<?xml version="1.0" encoding="UTF-8" standalone="no"?>
<svg width="138.289mm" height="58.9139mm"
 viewBox="0 0 392 167"
 xmlns="http://www.w3.org/2000/svg" xmlns:xlink="http://www.w3.org/1999/xlink"  version="1.2" baseProfile="tiny">
<title>Qt SVG Document</title>
<desc>MATLAB, The MathWorks, Inc. Version 25.2.0.3055257 R2025b Update 2</desc>
<defs>
</defs>
<g fill="none" stroke="black" stroke-width="1" fill-rule="evenodd" stroke-linecap="square" stroke-linejoin="bevel" >

<g fill="#ffffff" fill-opacity="1" stroke="none" transform="matrix(0.75,0,0,0.75,-22.9875,-7.13996)"
font-family="MS Shell Dlg 2" font-size="8.25" font-weight="400" font-style="normal" 
>
<path vector-effect="none" fill-rule="evenodd" d="M29,8 L552,8 L552,232 L29,232 L29,8"/>
</g>

<g fill="#ffffff" fill-opacity="1" stroke="none" transform="matrix(7.5e-05,0,0,7.5e-05,-22.9875,-7.13996)"
font-family="MS Shell Dlg 2" font-size="8.25" font-weight="400" font-style="normal" 
>
<path vector-effect="none" fill-rule="evenodd" d="M790000,170000 L790000,1.85e+06 L5.48e+06,1.85e+06 L5.48e+06,170000 L790000,170000"/>
</g>

<g fill="#212121" fill-opacity="0.25098" stroke="#212121" stroke-opacity="0.25098" stroke-dasharray="1,3" stroke-dashoffset="0" stroke-width="1.06667" stroke-linecap="butt" stroke-linejoin="round" transform="matrix(0.75,0,0,0.75,-22.9875,-7.13996)"
font-family="MS Shell Dlg 2" font-size="8.25" font-weight="400" font-style="normal" 
>
<polyline fill="none" vector-effect="none" points="79,17 79,185 " />
<polyline fill="none" vector-effect="none" points="172.8,17 172.8,185 " />
<polyline fill="none" vector-effect="none" points="266.6,17 266.6,185 " />
<polyline fill="none" vector-effect="none" points="360.4,17 360.4,185 " />
<polyline fill="none" vector-effect="none" points="454.2,17 454.2,185 " />
<polyline fill="none" vector-effect="none" points="548,17 548,185 " />
<polyline fill="none" vector-effect="none" points="79,185 548,185 " />
<polyline fill="none" vector-effect="none" points="79,143 548,143 " />
<polyline fill="none" vector-effect="none" points="79,101 548,101 " />
<polyline fill="none" vector-effect="none" points="79,59 548,59 " />
<polyline fill="none" vector-effect="none" points="79,17 548,17 " />
</g>

<g fill="#212121" fill-opacity="1" stroke="none" transform="matrix(0.75,0,0,0.75,168.638,163.06)"
font-family="MS Shell Dlg 2" font-size="8.25" font-weight="400" font-style="normal" 
>
<path vector-effect="none" fill-rule="evenodd" d="M0.84375,-2.60938 L1.1875,-2.60938 C1.25,-1.90104 1.47656,-1.35677 1.86719,-0.976563 C2.25781,-0.596354 2.83854,-0.369792 3.60938,-0.296875 L3.60938,-4.85938 C2.44271,-5.57813 1.66146,-6.21875 1.26563,-6.78125 C0.994792,-7.17708 0.859375,-7.65625 0.859375,-8.21875 C0.859375,-8.86458 1.09635,-9.42708 1.57031,-9.90625 C2.04427,-10.3854 2.72396,-10.6719 3.60938,-10.7656 L3.60938,-11.4844 L4.10938,-11.4844 L4.10938,-10.7656 C4.53646,-10.7448 4.89583,-10.6979 5.1875,-10.625 C5.34375,-10.5833 5.84375,-10.401 6.6875,-10.0781 L6.6875,-7.75 L6.39063,-7.75 C6.31771,-8.57292 6.10156,-9.17708 5.74219,-9.5625 C5.38281,-9.94792 4.83854,-10.1771 4.10938,-10.25 L4.10938,-6.28125 C5.42188,-5.36458 6.26563,-4.6875 6.64063,-4.25 C7.01563,-3.8125 7.20313,-3.27083 7.20313,-2.625 C7.20313,-1.90625 6.92969,-1.27344 6.38281,-0.726563 C5.83594,-0.179688 5.07813,0.135417 4.10938,0.21875 L4.10938,1.21875 L3.60938,1.21875 L3.60938,0.21875 C3.11979,0.197917 2.66406,0.140625 2.24219,0.046875 C1.82031,-0.046875 1.35417,-0.197917 0.84375,-0.40625 L0.84375,-2.60938 M3.60938,-6.60938 L3.60938,-10.2344 C3.08854,-10.1719 2.70313,-10.0078 2.45313,-9.74219 C2.20313,-9.47656 2.07813,-9.14063 2.07813,-8.73438 C2.07813,-8.34896 2.19271,-7.99219 2.42188,-7.66406 C2.65104,-7.33594 3.04688,-6.98438 3.60938,-6.60938 M4.10938,-0.296875 C4.50521,-0.359375 4.80729,-0.453125 5.01563,-0.578125 C5.30729,-0.765625 5.53646,-1.00521 5.70313,-1.29688 C5.86979,-1.58854 5.95313,-1.90104 5.95313,-2.23438 C5.95313,-2.57813 5.85156,-2.90365 5.64844,-3.21094 C5.44531,-3.51823 4.93229,-3.95313 4.10938,-4.51563 L4.10938,-0.296875 M8.65625,-11.1094 L12.4844,0.21875 L11.8594,0.21875 L8.03125,-11.1094 L8.65625,-11.1094 M17.125,-7.375 L17.125,-4.9375 L16.875,-4.9375 C16.6771,-5.69792 16.4219,-6.21615 16.1094,-6.49219 C15.7969,-6.76823 15.401,-6.90625 14.9219,-6.90625 C14.5573,-6.90625 14.263,-6.8099 14.0391,-6.61719 C13.8151,-6.42448 13.7031,-6.21354 13.7031,-5.98438 C13.7031,-5.69271 13.7865,-5.44271 13.9531,-5.23438 C14.1198,-5.01563 14.4479,-4.78646 14.9375,-4.54688 L16.0781,-4 C17.1406,-3.47917 17.6719,-2.79688 17.6719,-1.95313 C17.6719,-1.30729 17.4245,-0.783854 16.9297,-0.382813 C16.4349,0.0182292 15.8854,0.21875 15.2813,0.21875 C14.8438,0.21875 14.3438,0.140625 13.7813,-0.015625 C13.6042,-0.0677083 13.4635,-0.09375 13.3594,-0.09375 C13.2344,-0.09375 13.1406,-0.0260417 13.0781,0.109375 L12.8125,0.109375 L12.8125,-2.45313 L13.0781,-2.45313 C13.224,-1.72396 13.5026,-1.17448 13.9141,-0.804688 C14.3255,-0.434896 14.7865,-0.25 15.2969,-0.25 C15.651,-0.25 15.9427,-0.354167 16.1719,-0.5625 C16.401,-0.770833 16.5156,-1.02604 16.5156,-1.32813 C16.5156,-1.68229 16.388,-1.98177 16.1328,-2.22656 C15.8776,-2.47135 15.3724,-2.78125 14.6172,-3.15625 C13.862,-3.53125 13.3698,-3.86979 13.1406,-4.17188 C12.901,-4.47396 12.7813,-4.84896 12.7813,-5.29688 C12.7813,-5.89063 12.9844,-6.38542 13.3906,-6.78125 C13.7969,-7.17708 14.3177,-7.375 14.9531,-7.375 C15.2344,-7.375 15.5781,-7.3125 15.9844,-7.1875 C16.2448,-7.11458 16.4219,-7.07813 16.5156,-7.07813 C16.599,-7.07813 16.6641,-7.09635 16.7109,-7.13281 C16.7578,-7.16927 16.8125,-7.25 16.875,-7.375 L17.125,-7.375 M18.0938,-7.15625 L21.4375,-7.15625 L21.4375,-6.875 L21.2656,-6.875 C21.0365,-6.875 20.862,-6.82292 20.7422,-6.71875 C20.6224,-6.61458 20.5625,-6.48958 20.5625,-6.34375 C20.5625,-6.13542 20.651,-5.85417 20.8281,-5.5 L22.5625,-1.89063 L24.1719,-5.84375 C24.2552,-6.05208 24.2969,-6.26042 24.2969,-6.46875 C24.2969,-6.5625 24.2813,-6.63542 24.25,-6.6875 C24.2083,-6.73958 24.1432,-6.78385 24.0547,-6.82031 C23.9661,-6.85677 23.8073,-6.875 23.5781,-6.875 L23.5781,-7.15625 L25.9063,-7.15625 L25.9063,-6.875 C25.7188,-6.85417 25.5729,-6.8125 25.4688,-6.75 C25.3646,-6.6875 25.25,-6.56771 25.125,-6.39063 C25.0729,-6.31771 24.9844,-6.11979 24.8594,-5.79688 L21.9375,1.35938 C21.6563,2.04688 21.2891,2.56771 20.8359,2.92188 C20.3828,3.27604 19.9427,3.45313 19.5156,3.45313 C19.2135,3.45313 18.9635,3.36458 18.7656,3.1875 C18.5677,3.01042 18.4688,2.80729 18.4688,2.57813 C18.4688,2.35938 18.5391,2.1849 18.6797,2.05469 C18.8203,1.92448 19.0156,1.85938 19.2656,1.85938 C19.4427,1.85938 19.6771,1.91667 19.9688,2.03125 C20.1771,2.10417 20.3073,2.14063 20.3594,2.14063 C20.5156,2.14063 20.6875,2.0599 20.875,1.89844 C21.0625,1.73698 21.25,1.42708 21.4375,0.96875 L21.9375,-0.28125 L19.375,-5.6875 C19.2917,-5.84375 19.1667,-6.04167 19,-6.28125 C18.8646,-6.46875 18.7552,-6.59375 18.6719,-6.65625 C18.5573,-6.73958 18.3646,-6.8125 18.0938,-6.875 L18.0938,-7.15625 M28.625,-5.84375 C29.1458,-6.36458 29.4531,-6.66667 29.5469,-6.75 C29.7865,-6.94792 30.0417,-7.10156 30.3125,-7.21094 C30.5833,-7.32031 30.849,-7.375 31.1094,-7.375 C31.5573,-7.375 31.9427,-7.24479 32.2656,-6.98438 C32.5885,-6.72396 32.8073,-6.34375 32.9219,-5.84375 C33.4531,-6.46875 33.9036,-6.88021 34.2734,-7.07813 C34.6432,-7.27604 35.026,-7.375 35.4219,-7.375 C35.7969,-7.375 36.1328,-7.27604 36.4297,-7.07813 C36.7266,-6.88021 36.9583,-6.5625 37.125,-6.125 C37.2396,-5.82292 37.2969,-5.34896 37.2969,-4.70313 L37.2969,-1.625 C37.2969,-1.17708 37.3333,-0.869792 37.4063,-0.703125 C37.4583,-0.588542 37.5547,-0.489583 37.6953,-0.40625 C37.8359,-0.322917 38.0625,-0.28125 38.375,-0.28125 L38.375,0 L34.8438,0 L34.8438,-0.28125 L35,-0.28125 C35.3021,-0.28125 35.5417,-0.34375 35.7188,-0.46875 C35.8333,-0.552083 35.9167,-0.682292 35.9688,-0.859375 C35.9896,-0.953125 36,-1.20833 36,-1.625 L36,-4.70313 C36,-5.28646 35.9323,-5.69792 35.7969,-5.9375 C35.5885,-6.27083 35.2604,-6.4375 34.8125,-6.4375 C34.5417,-6.4375 34.2656,-6.36719 33.9844,-6.22656 C33.7031,-6.08594 33.3646,-5.82813 32.9688,-5.45313 L32.9531,-5.375 L32.9688,-5.03125 L32.9688,-1.625 C32.9688,-1.13542 32.9974,-0.830729 33.0547,-0.710938 C33.112,-0.591146 33.2161,-0.489583 33.3672,-0.40625 C33.5182,-0.322917 33.776,-0.28125 34.1406,-0.28125 L34.1406,0 L30.5156,0 L30.5156,-0.28125 C30.9115,-0.28125 31.1849,-0.328125 31.3359,-0.421875 C31.487,-0.515625 31.5885,-0.65625 31.6406,-0.84375 C31.6719,-0.9375 31.6875,-1.19792 31.6875,-1.625 L31.6875,-4.70313 C31.6875,-5.28646 31.599,-5.70313 31.4219,-5.95313 C31.1927,-6.28646 30.875,-6.45313 30.4688,-6.45313 C30.1875,-6.45313 29.9063,-6.38021 29.625,-6.23438 C29.1979,-6.00521 28.8646,-5.74479 28.625,-5.45313 L28.625,-1.625 C28.625,-1.15625 28.6589,-0.851563 28.7266,-0.710938 C28.7943,-0.570313 28.8906,-0.463542 29.0156,-0.390625 C29.1406,-0.317708 29.401,-0.28125 29.7969,-0.28125 L29.7969,0 L26.25,0 L26.25,-0.28125 C26.5833,-0.28125 26.8151,-0.317708 26.9453,-0.390625 C27.0755,-0.463542 27.1745,-0.575521 27.2422,-0.726563 C27.3099,-0.877604 27.3438,-1.17708 27.3438,-1.625 L27.3438,-4.35938 C27.3438,-5.14063 27.3177,-5.64583 27.2656,-5.875 C27.2344,-6.05208 27.1797,-6.17188 27.1016,-6.23438 C27.0234,-6.29688 26.9167,-6.32813 26.7813,-6.32813 C26.6354,-6.32813 26.4583,-6.29167 26.25,-6.21875 L26.1406,-6.5 L28.2969,-7.375 L28.625,-7.375 L28.625,-5.84375 M44.5781,3.1875 L44.5781,3.45313 C43.7031,3.33854 42.9948,2.98698 42.4531,2.39844 C41.9115,1.8099 41.6406,1.16146 41.6406,0.453125 C41.6406,0.0677083 41.7005,-0.372396 41.8203,-0.867188 C41.9401,-1.36198 42,-1.75 42,-2.03125 C42,-2.40625 41.8411,-2.75521 41.5234,-3.07813 C41.2057,-3.40104 40.7708,-3.59896 40.2188,-3.67188 L40.2188,-4 C40.7708,-4.07292 41.2057,-4.27083 41.5234,-4.59375 C41.8411,-4.91667 42,-5.26563 42,-5.64063 C42,-5.92188 41.9401,-6.3099 41.8203,-6.80469 C41.7005,-7.29948 41.6406,-7.73438 41.6406,-8.10938 C41.6406,-8.81771 41.9115,-9.46615 42.4531,-10.0547 C42.9948,-10.6432 43.7031,-10.9948 44.5781,-11.1094 L44.5781,-10.8438 C43.9635,-10.6979 43.5156,-10.4583 43.2344,-10.125 C42.9531,-9.79167 42.8125,-9.42708 42.8125,-9.03125 C42.8125,-8.72917 42.8698,-8.32552 42.9844,-7.82031 C43.099,-7.3151 43.1563,-6.88542 43.1563,-6.53125 C43.1563,-6.01042 42.9635,-5.5026 42.5781,-5.00781 C42.1927,-4.51302 41.6198,-4.13021 40.8594,-3.85938 C41.6094,-3.57813 42.1797,-3.1849 42.5703,-2.67969 C42.9609,-2.17448 43.1563,-1.66146 43.1563,-1.14063 C43.1563,-0.786458 43.099,-0.356771 42.9844,0.148438 C42.8698,0.653646 42.8125,1.0625 42.8125,1.375 C42.8125,1.77083 42.9531,2.13281 43.2344,2.46094 C43.5156,2.78906 43.9635,3.03125 44.5781,3.1875 M45.9844,-6.45313 L48.1875,-7.34375 L48.4844,-7.34375 L48.4844,-5.67188 C48.8594,-6.29688 49.2318,-6.73698 49.6016,-6.99219 C49.9714,-7.2474 50.3646,-7.375 50.7813,-7.375 C51.5,-7.375 52.099,-7.09375 52.5781,-6.53125 C53.1615,-5.84375 53.4531,-4.94792 53.4531,-3.84375 C53.4531,-2.60417 53.099,-1.58333 52.3906,-0.78125 C51.8073,-0.114583 51.0729,0.21875 50.1875,0.21875 C49.8021,0.21875 49.4688,0.166667 49.1875,0.0625 C48.9792,-0.0208333 48.7448,-0.182292 48.4844,-0.421875 L48.4844,1.76563 C48.4844,2.25521 48.5156,2.56771 48.5781,2.70313 C48.6406,2.83854 48.7448,2.94531 48.8906,3.02344 C49.0365,3.10156 49.3073,3.14063 49.7031,3.14063 L49.7031,3.42188 L45.9375,3.42188 L45.9375,3.14063 L46.1406,3.14063 C46.4323,3.14063 46.6771,3.08333 46.875,2.96875 C46.9792,2.91667 47.0573,2.82552 47.1094,2.69531 C47.1615,2.5651 47.1875,2.23958 47.1875,1.71875 L47.1875,-5.04688 C47.1875,-5.51563 47.1667,-5.8125 47.125,-5.9375 C47.0833,-6.0625 47.0182,-6.15625 46.9297,-6.21875 C46.8411,-6.28125 46.7188,-6.3125 46.5625,-6.3125 C46.4375,-6.3125 46.276,-6.27604 46.0781,-6.20313 L45.9844,-6.45313 M48.4844,-5.20313 L48.4844,-2.53125 C48.4844,-1.95833 48.5104,-1.57813 48.5625,-1.39063 C48.6354,-1.08854 48.8125,-0.822917 49.0938,-0.59375 C49.375,-0.364583 49.7344,-0.25 50.1719,-0.25 C50.6927,-0.25 51.1146,-0.453125 51.4375,-0.859375 C51.8542,-1.39063 52.0625,-2.14063 52.0625,-3.10938 C52.0625,-4.20313 51.8229,-5.04167 51.3438,-5.625 C51.0104,-6.03125 50.6146,-6.23438 50.1563,-6.23438 C49.9063,-6.23438 49.6615,-6.17188 49.4219,-6.04688 C49.2344,-5.95313 48.9219,-5.67188 48.4844,-5.20313 M54.6563,-4.1875 L58.6875,-4.1875 L58.6875,-3 L54.6563,-3 L54.6563,-4.1875 M73.9844,-10.5938 L73.9844,-10.3125 C73.7031,-10.3125 73.4766,-10.263 73.3047,-10.1641 C73.1328,-10.0651 72.9688,-9.88021 72.8125,-9.60938 C72.7083,-9.42188 72.5469,-8.98438 72.3281,-8.29688 L69.375,0.25 L69.0625,0.25 L66.6406,-6.53125 L64.25,0.25 L63.9688,0.25 L60.8125,-8.5625 C60.5833,-9.21875 60.4375,-9.60417 60.375,-9.71875 C60.2708,-9.91667 60.1276,-10.0651 59.9453,-10.1641 C59.763,-10.263 59.5208,-10.3125 59.2188,-10.3125 L59.2188,-10.5938 L63.1406,-10.5938 L63.1406,-10.3125 L62.9531,-10.3125 C62.6719,-10.3125 62.4583,-10.25 62.3125,-10.125 C62.1667,-10 62.0938,-9.84896 62.0938,-9.67188 C62.0938,-9.48438 62.2083,-9.0625 62.4375,-8.40625 L64.5313,-2.46875 L66.2813,-7.51563 L65.9688,-8.40625 L65.7188,-9.125 C65.6146,-9.38542 65.4948,-9.61458 65.3594,-9.8125 C65.2865,-9.90625 65.2031,-9.98958 65.1094,-10.0625 C64.974,-10.1563 64.8438,-10.224 64.7188,-10.2656 C64.6146,-10.2969 64.4583,-10.3125 64.25,-10.3125 L64.25,-10.5938 L68.375,-10.5938 L68.375,-10.3125 L68.0938,-10.3125 C67.8021,-10.3125 67.5885,-10.25 67.4531,-10.125 C67.3177,-10 67.25,-9.82813 67.25,-9.60938 C67.25,-9.34896 67.3646,-8.88542 67.5938,-8.21875 L69.625,-2.46875 L71.6406,-8.29688 C71.8698,-8.94271 71.9844,-9.39063 71.9844,-9.64063 C71.9844,-9.76563 71.9479,-9.88021 71.875,-9.98438 C71.8021,-10.0885 71.7083,-10.1615 71.5938,-10.2031 C71.3958,-10.276 71.1354,-10.3125 70.8125,-10.3125 L70.8125,-10.5938 L73.9844,-10.5938 M74.7031,-4.46875 C74.7031,-3.40625 74.9635,-2.57292 75.4844,-1.96875 C76.0052,-1.36458 76.6146,-1.0625 77.3125,-1.0625 C77.7813,-1.0625 78.1901,-1.1901 78.5391,-1.44531 C78.888,-1.70052 79.1771,-2.14063 79.4063,-2.76563 L79.6563,-2.60938 C79.5417,-1.90104 79.2214,-1.2526 78.6953,-0.664063 C78.1693,-0.0755208 77.5104,0.21875 76.7188,0.21875 C75.8646,0.21875 75.1302,-0.117188 74.5156,-0.789063 C73.901,-1.46094 73.5938,-2.35938 73.5938,-3.48438 C73.5938,-4.71354 73.9089,-5.66927 74.5391,-6.35156 C75.1693,-7.03385 75.9583,-7.375 76.9063,-7.375 C77.7083,-7.375 78.3672,-7.11198 78.8828,-6.58594 C79.3984,-6.0599 79.6563,-5.35417 79.6563,-4.46875 L74.7031,-4.46875 M74.7031,-4.92188 L78.0156,-4.92188 C77.9948,-5.38021 77.9427,-5.70313 77.8594,-5.89063 C77.724,-6.18229 77.5286,-6.41146 77.2734,-6.57813 C77.0182,-6.74479 76.75,-6.82813 76.4688,-6.82813 C76.0313,-6.82813 75.6432,-6.65885 75.3047,-6.32031 C74.9661,-5.98177 74.7656,-5.51563 74.7031,-4.92188 M82.5938,-7.375 L82.5938,-5.76563 C83.1979,-6.83854 83.8125,-7.375 84.4375,-7.375 C84.7292,-7.375 84.9688,-7.28646 85.1563,-7.10938 C85.3438,-6.93229 85.4375,-6.72917 85.4375,-6.5 C85.4375,-6.30208 85.3698,-6.13281 85.2344,-5.99219 C85.099,-5.85156 84.9375,-5.78125 84.75,-5.78125 C84.5625,-5.78125 84.3568,-5.86979 84.1328,-6.04688 C83.9089,-6.22396 83.7396,-6.3125 83.625,-6.3125 C83.5313,-6.3125 83.4323,-6.26042 83.3281,-6.15625 C83.0885,-5.94792 82.8438,-5.59896 82.5938,-5.10938 L82.5938,-1.67188 C82.5938,-1.27604 82.6458,-0.979167 82.75,-0.78125 C82.8125,-0.635417 82.9297,-0.515625 83.1016,-0.421875 C83.2734,-0.328125 83.5208,-0.28125 83.8438,-0.28125 L83.8438,0 L80.1875,0 L80.1875,-0.28125 C80.5521,-0.28125 80.8229,-0.338542 81,-0.453125 C81.125,-0.536458 81.2135,-0.671875 81.2656,-0.859375 C81.2969,-0.942708 81.3125,-1.19271 81.3125,-1.60938 L81.3125,-4.39063 C81.3125,-5.22396 81.2943,-5.71875 81.2578,-5.875 C81.2214,-6.03125 81.1589,-6.14583 81.0703,-6.21875 C80.9818,-6.29167 80.8698,-6.32813 80.7344,-6.32813 C80.5677,-6.32813 80.3854,-6.29167 80.1875,-6.21875 L80.1094,-6.5 L82.2656,-7.375 L82.5938,-7.375 M87.5781,-9.51563 L87.5781,-7.15625 L89.25,-7.15625 L89.25,-6.60938 L87.5781,-6.60938 L87.5781,-1.96875 C87.5781,-1.51042 87.6458,-1.20052 87.7813,-1.03906 C87.9167,-0.877604 88.0885,-0.796875 88.2969,-0.796875 C88.4635,-0.796875 88.6276,-0.848958 88.7891,-0.953125 C88.9505,-1.05729 89.0781,-1.21354 89.1719,-1.42188 L89.4688,-1.42188 C89.2917,-0.911458 89.0365,-0.526042 88.7031,-0.265625 C88.3698,-0.00520833 88.026,0.125 87.6719,0.125 C87.4323,0.125 87.1979,0.0572917 86.9688,-0.078125 C86.7396,-0.213542 86.5703,-0.40625 86.4609,-0.65625 C86.3516,-0.90625 86.2969,-1.28646 86.2969,-1.79688 L86.2969,-6.60938 L85.1563,-6.60938 L85.1563,-6.875 C85.4479,-6.98958 85.7422,-7.18229 86.0391,-7.45313 C86.3359,-7.72396 86.6042,-8.04688 86.8438,-8.42188 C86.9583,-8.61979 87.125,-8.98438 87.3438,-9.51563 L87.5781,-9.51563 M90.3906,-10.8438 L90.3906,-11.1094 C91.2552,-10.9948 91.9609,-10.6458 92.5078,-10.0625 C93.0547,-9.47917 93.3281,-8.82813 93.3281,-8.10938 C93.3281,-7.73438 93.2682,-7.29948 93.1484,-6.80469 C93.0286,-6.3099 92.9688,-5.92188 92.9688,-5.64063 C92.9688,-5.26563 93.125,-4.91667 93.4375,-4.59375 C93.75,-4.27083 94.1875,-4.07292 94.75,-4 L94.75,-3.67188 C94.1875,-3.59896 93.75,-3.40104 93.4375,-3.07813 C93.125,-2.75521 92.9688,-2.40625 92.9688,-2.03125 C92.9688,-1.75 93.0286,-1.36198 93.1484,-0.867188 C93.2682,-0.372396 93.3281,0.0677083 93.3281,0.453125 C93.3281,1.16146 93.0547,1.8099 92.5078,2.39844 C91.9609,2.98698 91.2552,3.33854 90.3906,3.45313 L90.3906,3.1875 C90.9948,3.03125 91.4401,2.78906 91.7266,2.46094 C92.013,2.13281 92.1563,1.77083 92.1563,1.375 C92.1563,1.0625 92.0964,0.653646 91.9766,0.148438 C91.8568,-0.356771 91.7969,-0.78125 91.7969,-1.125 C91.7969,-1.65625 91.9896,-2.16927 92.375,-2.66406 C92.7604,-3.15885 93.3385,-3.54167 94.1094,-3.8125 C93.3594,-4.09375 92.7865,-4.48698 92.3906,-4.99219 C91.9948,-5.4974 91.7969,-6.01042 91.7969,-6.53125 C91.7969,-6.88542 91.8568,-7.3151 91.9766,-7.82031 C92.0964,-8.32552 92.1563,-8.72917 92.1563,-9.03125 C92.1563,-9.42708 92.013,-9.79167 91.7266,-10.125 C91.4401,-10.4583 90.9948,-10.6979 90.3906,-10.8438 M97.8438,-2.60938 L98.1875,-2.60938 C98.25,-1.90104 98.4766,-1.35677 98.8672,-0.976563 C99.2578,-0.596354 99.8385,-0.369792 100.609,-0.296875 L100.609,-4.85938 C99.4427,-5.57813 98.6615,-6.21875 98.2656,-6.78125 C97.9948,-7.17708 97.8594,-7.65625 97.8594,-8.21875 C97.8594,-8.86458 98.0964,-9.42708 98.5703,-9.90625 C99.0443,-10.3854 99.724,-10.6719 100.609,-10.7656 L100.609,-11.4844 L101.109,-11.4844 L101.109,-10.7656 C101.536,-10.7448 101.896,-10.6979 102.188,-10.625 C102.344,-10.5833 102.844,-10.401 103.688,-10.0781 L103.688,-7.75 L103.391,-7.75 C103.318,-8.57292 103.102,-9.17708 102.742,-9.5625 C102.383,-9.94792 101.839,-10.1771 101.109,-10.25 L101.109,-6.28125 C102.422,-5.36458 103.266,-4.6875 103.641,-4.25 C104.016,-3.8125 104.203,-3.27083 104.203,-2.625 C104.203,-1.90625 103.93,-1.27344 103.383,-0.726563 C102.836,-0.179688 102.078,0.135417 101.109,0.21875 L101.109,1.21875 L100.609,1.21875 L100.609,0.21875 C100.12,0.197917 99.6641,0.140625 99.2422,0.046875 C98.8203,-0.046875 98.3542,-0.197917 97.8438,-0.40625 L97.8438,-2.60938 M100.609,-6.60938 L100.609,-10.2344 C100.089,-10.1719 99.7031,-10.0078 99.4531,-9.74219 C99.2031,-9.47656 99.0781,-9.14063 99.0781,-8.73438 C99.0781,-8.34896 99.1927,-7.99219 99.4219,-7.66406 C99.651,-7.33594 100.047,-6.98438 100.609,-6.60938 M101.109,-0.296875 C101.505,-0.359375 101.807,-0.453125 102.016,-0.578125 C102.307,-0.765625 102.536,-1.00521 102.703,-1.29688 C102.87,-1.58854 102.953,-1.90104 102.953,-2.23438 C102.953,-2.57813 102.852,-2.90365 102.648,-3.21094 C102.445,-3.51823 101.932,-3.95313 101.109,-4.51563 L101.109,-0.296875"/>
</g>

<g fill="#212121" fill-opacity="1" stroke="#212121" stroke-opacity="1" stroke-width="1.06667" stroke-linecap="square" stroke-linejoin="round" transform="matrix(0.75,0,0,0.75,-22.9875,-7.13996)"
font-family="MS Shell Dlg 2" font-size="8.25" font-weight="400" font-style="normal" 
>
<polyline fill="none" vector-effect="none" points="79,185 548,185 " />
<polyline fill="none" vector-effect="none" points="79,17 548,17 " />
<polyline fill="none" vector-effect="none" points="79,185 79,180.31 " />
<polyline fill="none" vector-effect="none" points="79,21.69 79,17 " />
<polyline fill="none" vector-effect="none" points="172.8,185 172.8,180.31 " />
<polyline fill="none" vector-effect="none" points="172.8,21.69 172.8,17 " />
<polyline fill="none" vector-effect="none" points="266.6,185 266.6,180.31 " />
<polyline fill="none" vector-effect="none" points="266.6,21.69 266.6,17 " />
<polyline fill="none" vector-effect="none" points="360.4,185 360.4,180.31 " />
<polyline fill="none" vector-effect="none" points="360.4,21.69 360.4,17 " />
<polyline fill="none" vector-effect="none" points="454.2,185 454.2,180.31 " />
<polyline fill="none" vector-effect="none" points="454.2,21.69 454.2,17 " />
<polyline fill="none" vector-effect="none" points="548,185 548,180.31 " />
<polyline fill="none" vector-effect="none" points="548,21.69 548,17 " />
</g>

<g fill="#212121" fill-opacity="1" stroke="none" transform="matrix(0.75,0,0,0.75,33.5125,145.05)"
font-family="MS Shell Dlg 2" font-size="8.25" font-weight="400" font-style="normal" 
>
<path vector-effect="none" fill-rule="evenodd" d="M3.5,0.3125 C2.35417,0.3125 1.57552,-0.158854 1.16406,-1.10156 C0.752604,-2.04427 0.546875,-3.16667 0.546875,-4.46875 C0.546875,-5.28125 0.619792,-6.04427 0.765625,-6.75781 C0.911458,-7.47135 1.20573,-8.07813 1.64844,-8.57813 C2.09115,-9.07813 2.70833,-9.32813 3.5,-9.32813 C4.11458,-9.32813 4.61719,-9.17708 5.00781,-8.875 C5.39844,-8.57292 5.69792,-8.1849 5.90625,-7.71094 C6.11458,-7.23698 6.25521,-6.72656 6.32813,-6.17969 C6.40104,-5.63281 6.4375,-5.0625 6.4375,-4.46875 C6.4375,-3.66667 6.36458,-2.91406 6.21875,-2.21094 C6.07292,-1.50781 5.78385,-0.911458 5.35156,-0.421875 C4.91927,0.0677083 4.30208,0.3125 3.5,0.3125 M3.5,-0.0625 C4.02083,-0.0625 4.40885,-0.328125 4.66406,-0.859375 C4.91927,-1.39063 5.07552,-1.97917 5.13281,-2.625 C5.1901,-3.27083 5.21875,-3.95833 5.21875,-4.6875 C5.21875,-5.39583 5.1901,-6.04427 5.13281,-6.63281 C5.07552,-7.22135 4.91927,-7.75781 4.66406,-8.24219 C4.40885,-8.72656 4.02083,-8.96875 3.5,-8.96875 C2.96875,-8.96875 2.57552,-8.72656 2.32031,-8.24219 C2.0651,-7.75781 1.90885,-7.22135 1.85156,-6.63281 C1.79427,-6.04427 1.76563,-5.39583 1.76563,-4.6875 C1.76563,-4.16667 1.77865,-3.67708 1.80469,-3.21875 C1.83073,-2.76042 1.89844,-2.28646 2.00781,-1.79688 C2.11719,-1.30729 2.29427,-0.895833 2.53906,-0.5625 C2.78385,-0.229167 3.10417,-0.0625 3.5,-0.0625 "/>
</g>

<g fill="#212121" fill-opacity="1" stroke="none" transform="matrix(0.75,0,0,0.75,99.5847,145.05)"
font-family="MS Shell Dlg 2" font-size="8.25" font-weight="400" font-style="normal" 
>
<path vector-effect="none" fill-rule="evenodd" d="M3.5,0.3125 C2.35417,0.3125 1.57552,-0.158854 1.16406,-1.10156 C0.752604,-2.04427 0.546875,-3.16667 0.546875,-4.46875 C0.546875,-5.28125 0.619792,-6.04427 0.765625,-6.75781 C0.911458,-7.47135 1.20573,-8.07813 1.64844,-8.57813 C2.09115,-9.07813 2.70833,-9.32813 3.5,-9.32813 C4.11458,-9.32813 4.61719,-9.17708 5.00781,-8.875 C5.39844,-8.57292 5.69792,-8.1849 5.90625,-7.71094 C6.11458,-7.23698 6.25521,-6.72656 6.32813,-6.17969 C6.40104,-5.63281 6.4375,-5.0625 6.4375,-4.46875 C6.4375,-3.66667 6.36458,-2.91406 6.21875,-2.21094 C6.07292,-1.50781 5.78385,-0.911458 5.35156,-0.421875 C4.91927,0.0677083 4.30208,0.3125 3.5,0.3125 M3.5,-0.0625 C4.02083,-0.0625 4.40885,-0.328125 4.66406,-0.859375 C4.91927,-1.39063 5.07552,-1.97917 5.13281,-2.625 C5.1901,-3.27083 5.21875,-3.95833 5.21875,-4.6875 C5.21875,-5.39583 5.1901,-6.04427 5.13281,-6.63281 C5.07552,-7.22135 4.91927,-7.75781 4.66406,-8.24219 C4.40885,-8.72656 4.02083,-8.96875 3.5,-8.96875 C2.96875,-8.96875 2.57552,-8.72656 2.32031,-8.24219 C2.0651,-7.75781 1.90885,-7.22135 1.85156,-6.63281 C1.79427,-6.04427 1.76563,-5.39583 1.76563,-4.6875 C1.76563,-4.16667 1.77865,-3.67708 1.80469,-3.21875 C1.83073,-2.76042 1.89844,-2.28646 2.00781,-1.79688 C2.11719,-1.30729 2.29427,-0.895833 2.53906,-0.5625 C2.78385,-0.229167 3.10417,-0.0625 3.5,-0.0625 "/>
</g>

<g fill="#212121" fill-opacity="1" stroke="none" transform="matrix(0.75,0,0,0.75,105.085,145.05)"
font-family="MS Shell Dlg 2" font-size="8.25" font-weight="400" font-style="normal" 
>
<path vector-effect="none" fill-rule="evenodd" d="M1.17188,-0.765625 C1.17188,-0.984375 1.25,-1.16667 1.40625,-1.3125 C1.5625,-1.45833 1.74479,-1.53125 1.95313,-1.53125 C2.07813,-1.53125 2.20313,-1.4974 2.32813,-1.42969 C2.45313,-1.36198 2.54948,-1.26823 2.61719,-1.14844 C2.6849,-1.02865 2.71875,-0.901042 2.71875,-0.765625 C2.71875,-0.567708 2.64323,-0.390625 2.49219,-0.234375 C2.34115,-0.078125 2.16146,0 1.95313,0 C1.74479,0 1.5625,-0.078125 1.40625,-0.234375 C1.25,-0.390625 1.17188,-0.567708 1.17188,-0.765625 "/>
</g>

<g fill="#212121" fill-opacity="1" stroke="none" transform="matrix(0.75,0,0,0.75,108.14,145.05)"
font-family="MS Shell Dlg 2" font-size="8.25" font-weight="400" font-style="normal" 
>
<path vector-effect="none" fill-rule="evenodd" d="M0.703125,0 L0.703125,-0.375 C0.703125,-0.395833 0.708333,-0.421875 0.71875,-0.453125 L2.90625,-2.85938 C3.22917,-3.21354 3.49219,-3.51042 3.69531,-3.75 C3.89844,-3.98958 4.10156,-4.26823 4.30469,-4.58594 C4.50781,-4.90365 4.66667,-5.22396 4.78125,-5.54688 C4.89583,-5.86979 4.95313,-6.21354 4.95313,-6.57813 C4.95313,-6.96354 4.88281,-7.33073 4.74219,-7.67969 C4.60156,-8.02865 4.39063,-8.30729 4.10938,-8.51563 C3.82813,-8.72396 3.48958,-8.82813 3.09375,-8.82813 C2.6875,-8.82813 2.32292,-8.70573 2,-8.46094 C1.67708,-8.21615 1.44792,-7.90104 1.3125,-7.51563 C1.35417,-7.52604 1.40625,-7.53125 1.46875,-7.53125 C1.67708,-7.53125 1.85677,-7.46094 2.00781,-7.32031 C2.15885,-7.17969 2.23438,-7 2.23438,-6.78125 C2.23438,-6.5625 2.15885,-6.38021 2.00781,-6.23438 C1.85677,-6.08854 1.67708,-6.01563 1.46875,-6.01563 C1.25,-6.01563 1.06771,-6.09115 0.921875,-6.24219 C0.776042,-6.39323 0.703125,-6.57292 0.703125,-6.78125 C0.703125,-7.125 0.768229,-7.45052 0.898438,-7.75781 C1.02865,-8.0651 1.21875,-8.33854 1.46875,-8.57813 C1.71875,-8.81771 2,-9.0026 2.3125,-9.13281 C2.625,-9.26302 2.95313,-9.32813 3.29688,-9.32813 C3.83854,-9.32813 4.33854,-9.21354 4.79688,-8.98438 C5.25521,-8.75521 5.61979,-8.4349 5.89063,-8.02344 C6.16146,-7.61198 6.29688,-7.13021 6.29688,-6.57813 C6.29688,-6.17188 6.20573,-5.78646 6.02344,-5.42188 C5.84115,-5.05729 5.61198,-4.72656 5.33594,-4.42969 C5.0599,-4.13281 4.70573,-3.79427 4.27344,-3.41406 C3.84115,-3.03385 3.55729,-2.78125 3.42188,-2.65625 L1.82813,-1.14063 L3.17188,-1.14063 C3.83854,-1.14063 4.39323,-1.14583 4.83594,-1.15625 C5.27865,-1.16667 5.51563,-1.18229 5.54688,-1.20313 C5.65104,-1.31771 5.76042,-1.75 5.875,-2.5 L6.29688,-2.5 L5.89063,0 L0.703125,0"/>
</g>

<g fill="#212121" fill-opacity="1" stroke="none" transform="matrix(0.75,0,0,0.75,169.935,145.05)"
font-family="MS Shell Dlg 2" font-size="8.25" font-weight="400" font-style="normal" 
>
<path vector-effect="none" fill-rule="evenodd" d="M3.5,0.3125 C2.35417,0.3125 1.57552,-0.158854 1.16406,-1.10156 C0.752604,-2.04427 0.546875,-3.16667 0.546875,-4.46875 C0.546875,-5.28125 0.619792,-6.04427 0.765625,-6.75781 C0.911458,-7.47135 1.20573,-8.07813 1.64844,-8.57813 C2.09115,-9.07813 2.70833,-9.32813 3.5,-9.32813 C4.11458,-9.32813 4.61719,-9.17708 5.00781,-8.875 C5.39844,-8.57292 5.69792,-8.1849 5.90625,-7.71094 C6.11458,-7.23698 6.25521,-6.72656 6.32813,-6.17969 C6.40104,-5.63281 6.4375,-5.0625 6.4375,-4.46875 C6.4375,-3.66667 6.36458,-2.91406 6.21875,-2.21094 C6.07292,-1.50781 5.78385,-0.911458 5.35156,-0.421875 C4.91927,0.0677083 4.30208,0.3125 3.5,0.3125 M3.5,-0.0625 C4.02083,-0.0625 4.40885,-0.328125 4.66406,-0.859375 C4.91927,-1.39063 5.07552,-1.97917 5.13281,-2.625 C5.1901,-3.27083 5.21875,-3.95833 5.21875,-4.6875 C5.21875,-5.39583 5.1901,-6.04427 5.13281,-6.63281 C5.07552,-7.22135 4.91927,-7.75781 4.66406,-8.24219 C4.40885,-8.72656 4.02083,-8.96875 3.5,-8.96875 C2.96875,-8.96875 2.57552,-8.72656 2.32031,-8.24219 C2.0651,-7.75781 1.90885,-7.22135 1.85156,-6.63281 C1.79427,-6.04427 1.76563,-5.39583 1.76563,-4.6875 C1.76563,-4.16667 1.77865,-3.67708 1.80469,-3.21875 C1.83073,-2.76042 1.89844,-2.28646 2.00781,-1.79688 C2.11719,-1.30729 2.29427,-0.895833 2.53906,-0.5625 C2.78385,-0.229167 3.10417,-0.0625 3.5,-0.0625 "/>
</g>

<g fill="#212121" fill-opacity="1" stroke="none" transform="matrix(0.75,0,0,0.75,175.435,145.05)"
font-family="MS Shell Dlg 2" font-size="8.25" font-weight="400" font-style="normal" 
>
<path vector-effect="none" fill-rule="evenodd" d="M1.17188,-0.765625 C1.17188,-0.984375 1.25,-1.16667 1.40625,-1.3125 C1.5625,-1.45833 1.74479,-1.53125 1.95313,-1.53125 C2.07813,-1.53125 2.20313,-1.4974 2.32813,-1.42969 C2.45313,-1.36198 2.54948,-1.26823 2.61719,-1.14844 C2.6849,-1.02865 2.71875,-0.901042 2.71875,-0.765625 C2.71875,-0.567708 2.64323,-0.390625 2.49219,-0.234375 C2.34115,-0.078125 2.16146,0 1.95313,0 C1.74479,0 1.5625,-0.078125 1.40625,-0.234375 C1.25,-0.390625 1.17188,-0.567708 1.17188,-0.765625 "/>
</g>

<g fill="#212121" fill-opacity="1" stroke="none" transform="matrix(0.75,0,0,0.75,178.49,145.05)"
font-family="MS Shell Dlg 2" font-size="8.25" font-weight="400" font-style="normal" 
>
<path vector-effect="none" fill-rule="evenodd" d="M0.390625,-2.3125 L0.390625,-2.79688 L4.71875,-9.25 C4.75,-9.30208 4.79688,-9.32813 4.85938,-9.32813 L5.0625,-9.32813 C5.16667,-9.32813 5.21875,-9.27604 5.21875,-9.17188 L5.21875,-2.79688 L6.59375,-2.79688 L6.59375,-2.3125 L5.21875,-2.3125 L5.21875,-0.9375 C5.21875,-0.75 5.35677,-0.630208 5.63281,-0.578125 C5.90885,-0.526042 6.22396,-0.5 6.57813,-0.5 L6.57813,0 L2.73438,0 L2.73438,-0.5 C3.08854,-0.5 3.40365,-0.526042 3.67969,-0.578125 C3.95573,-0.630208 4.09375,-0.75 4.09375,-0.9375 L4.09375,-2.3125 L0.390625,-2.3125 M0.859375,-2.79688 L4.17188,-2.79688 L4.17188,-7.76563 L0.859375,-2.79688"/>
</g>

<g fill="#212121" fill-opacity="1" stroke="none" transform="matrix(0.75,0,0,0.75,240.285,145.05)"
font-family="MS Shell Dlg 2" font-size="8.25" font-weight="400" font-style="normal" 
>
<path vector-effect="none" fill-rule="evenodd" d="M3.5,0.3125 C2.35417,0.3125 1.57552,-0.158854 1.16406,-1.10156 C0.752604,-2.04427 0.546875,-3.16667 0.546875,-4.46875 C0.546875,-5.28125 0.619792,-6.04427 0.765625,-6.75781 C0.911458,-7.47135 1.20573,-8.07813 1.64844,-8.57813 C2.09115,-9.07813 2.70833,-9.32813 3.5,-9.32813 C4.11458,-9.32813 4.61719,-9.17708 5.00781,-8.875 C5.39844,-8.57292 5.69792,-8.1849 5.90625,-7.71094 C6.11458,-7.23698 6.25521,-6.72656 6.32813,-6.17969 C6.40104,-5.63281 6.4375,-5.0625 6.4375,-4.46875 C6.4375,-3.66667 6.36458,-2.91406 6.21875,-2.21094 C6.07292,-1.50781 5.78385,-0.911458 5.35156,-0.421875 C4.91927,0.0677083 4.30208,0.3125 3.5,0.3125 M3.5,-0.0625 C4.02083,-0.0625 4.40885,-0.328125 4.66406,-0.859375 C4.91927,-1.39063 5.07552,-1.97917 5.13281,-2.625 C5.1901,-3.27083 5.21875,-3.95833 5.21875,-4.6875 C5.21875,-5.39583 5.1901,-6.04427 5.13281,-6.63281 C5.07552,-7.22135 4.91927,-7.75781 4.66406,-8.24219 C4.40885,-8.72656 4.02083,-8.96875 3.5,-8.96875 C2.96875,-8.96875 2.57552,-8.72656 2.32031,-8.24219 C2.0651,-7.75781 1.90885,-7.22135 1.85156,-6.63281 C1.79427,-6.04427 1.76563,-5.39583 1.76563,-4.6875 C1.76563,-4.16667 1.77865,-3.67708 1.80469,-3.21875 C1.83073,-2.76042 1.89844,-2.28646 2.00781,-1.79688 C2.11719,-1.30729 2.29427,-0.895833 2.53906,-0.5625 C2.78385,-0.229167 3.10417,-0.0625 3.5,-0.0625 "/>
</g>

<g fill="#212121" fill-opacity="1" stroke="none" transform="matrix(0.75,0,0,0.75,245.785,145.05)"
font-family="MS Shell Dlg 2" font-size="8.25" font-weight="400" font-style="normal" 
>
<path vector-effect="none" fill-rule="evenodd" d="M1.17188,-0.765625 C1.17188,-0.984375 1.25,-1.16667 1.40625,-1.3125 C1.5625,-1.45833 1.74479,-1.53125 1.95313,-1.53125 C2.07813,-1.53125 2.20313,-1.4974 2.32813,-1.42969 C2.45313,-1.36198 2.54948,-1.26823 2.61719,-1.14844 C2.6849,-1.02865 2.71875,-0.901042 2.71875,-0.765625 C2.71875,-0.567708 2.64323,-0.390625 2.49219,-0.234375 C2.34115,-0.078125 2.16146,0 1.95313,0 C1.74479,0 1.5625,-0.078125 1.40625,-0.234375 C1.25,-0.390625 1.17188,-0.567708 1.17188,-0.765625 "/>
</g>

<g fill="#212121" fill-opacity="1" stroke="none" transform="matrix(0.75,0,0,0.75,248.84,145.05)"
font-family="MS Shell Dlg 2" font-size="8.25" font-weight="400" font-style="normal" 
>
<path vector-effect="none" fill-rule="evenodd" d="M3.5,0.3125 C2.91667,0.3125 2.43229,0.158854 2.04688,-0.148438 C1.66146,-0.455729 1.36198,-0.854167 1.14844,-1.34375 C0.934896,-1.83333 0.789063,-2.34896 0.710938,-2.89063 C0.632813,-3.43229 0.59375,-3.97917 0.59375,-4.53125 C0.59375,-5.27083 0.736979,-6.01042 1.02344,-6.75 C1.3099,-7.48958 1.73177,-8.10417 2.28906,-8.59375 C2.84635,-9.08333 3.50521,-9.32813 4.26563,-9.32813 C4.58854,-9.32813 4.88802,-9.26823 5.16406,-9.14844 C5.4401,-9.02865 5.65625,-8.85156 5.8125,-8.61719 C5.96875,-8.38281 6.04688,-8.09896 6.04688,-7.76563 C6.04688,-7.56771 5.98177,-7.40365 5.85156,-7.27344 C5.72135,-7.14323 5.5625,-7.07813 5.375,-7.07813 C5.1875,-7.07813 5.02865,-7.14583 4.89844,-7.28125 C4.76823,-7.41667 4.70313,-7.57813 4.70313,-7.76563 C4.70313,-7.94271 4.76823,-8.09635 4.89844,-8.22656 C5.02865,-8.35677 5.1875,-8.42188 5.375,-8.42188 L5.45313,-8.42188 C5.32813,-8.59896 5.15885,-8.72656 4.94531,-8.80469 C4.73177,-8.88281 4.50521,-8.92188 4.26563,-8.92188 C3.98438,-8.92188 3.72396,-8.85938 3.48438,-8.73438 C3.24479,-8.60938 3.03125,-8.44271 2.84375,-8.23438 C2.65625,-8.02604 2.4974,-7.79427 2.36719,-7.53906 C2.23698,-7.28385 2.13802,-6.99479 2.07031,-6.67188 C2.0026,-6.34896 1.95833,-6.04688 1.9375,-5.76563 C1.91667,-5.48438 1.90625,-5.13021 1.90625,-4.70313 C2.07292,-5.08854 2.30729,-5.40365 2.60938,-5.64844 C2.91146,-5.89323 3.25,-6.01563 3.625,-6.01563 C4.04167,-6.01563 4.41927,-5.92969 4.75781,-5.75781 C5.09635,-5.58594 5.39063,-5.35156 5.64063,-5.05469 C5.89063,-4.75781 6.08073,-4.41667 6.21094,-4.03125 C6.34115,-3.64583 6.40625,-3.26042 6.40625,-2.875 C6.40625,-2.32292 6.28385,-1.79948 6.03906,-1.30469 C5.79427,-0.809896 5.45052,-0.416667 5.00781,-0.125 C4.5651,0.166667 4.0625,0.3125 3.5,0.3125 M3.5,-0.140625 C3.86458,-0.140625 4.15625,-0.223958 4.375,-0.390625 C4.59375,-0.557292 4.7526,-0.776042 4.85156,-1.04688 C4.95052,-1.31771 5.01302,-1.58854 5.03906,-1.85938 C5.0651,-2.13021 5.07813,-2.46875 5.07813,-2.875 C5.07813,-3.39583 5.05208,-3.84375 5,-4.21875 C4.94792,-4.59375 4.8125,-4.92448 4.59375,-5.21094 C4.375,-5.4974 4.03125,-5.64063 3.5625,-5.64063 C3.1875,-5.64063 2.8776,-5.51302 2.63281,-5.25781 C2.38802,-5.0026 2.21094,-4.67969 2.10156,-4.28906 C1.99219,-3.89844 1.9375,-3.52604 1.9375,-3.17188 C1.9375,-3.04688 1.94271,-2.95313 1.95313,-2.89063 C1.95313,-2.86979 1.95052,-2.85677 1.94531,-2.85156 C1.9401,-2.84635 1.9375,-2.83333 1.9375,-2.8125 C1.9375,-2.41667 1.97917,-2.01302 2.0625,-1.60156 C2.14583,-1.1901 2.30208,-0.84375 2.53125,-0.5625 C2.76042,-0.28125 3.08333,-0.140625 3.5,-0.140625 "/>
</g>

<g fill="#212121" fill-opacity="1" stroke="none" transform="matrix(0.75,0,0,0.75,310.635,145.05)"
font-family="MS Shell Dlg 2" font-size="8.25" font-weight="400" font-style="normal" 
>
<path vector-effect="none" fill-rule="evenodd" d="M3.5,0.3125 C2.35417,0.3125 1.57552,-0.158854 1.16406,-1.10156 C0.752604,-2.04427 0.546875,-3.16667 0.546875,-4.46875 C0.546875,-5.28125 0.619792,-6.04427 0.765625,-6.75781 C0.911458,-7.47135 1.20573,-8.07813 1.64844,-8.57813 C2.09115,-9.07813 2.70833,-9.32813 3.5,-9.32813 C4.11458,-9.32813 4.61719,-9.17708 5.00781,-8.875 C5.39844,-8.57292 5.69792,-8.1849 5.90625,-7.71094 C6.11458,-7.23698 6.25521,-6.72656 6.32813,-6.17969 C6.40104,-5.63281 6.4375,-5.0625 6.4375,-4.46875 C6.4375,-3.66667 6.36458,-2.91406 6.21875,-2.21094 C6.07292,-1.50781 5.78385,-0.911458 5.35156,-0.421875 C4.91927,0.0677083 4.30208,0.3125 3.5,0.3125 M3.5,-0.0625 C4.02083,-0.0625 4.40885,-0.328125 4.66406,-0.859375 C4.91927,-1.39063 5.07552,-1.97917 5.13281,-2.625 C5.1901,-3.27083 5.21875,-3.95833 5.21875,-4.6875 C5.21875,-5.39583 5.1901,-6.04427 5.13281,-6.63281 C5.07552,-7.22135 4.91927,-7.75781 4.66406,-8.24219 C4.40885,-8.72656 4.02083,-8.96875 3.5,-8.96875 C2.96875,-8.96875 2.57552,-8.72656 2.32031,-8.24219 C2.0651,-7.75781 1.90885,-7.22135 1.85156,-6.63281 C1.79427,-6.04427 1.76563,-5.39583 1.76563,-4.6875 C1.76563,-4.16667 1.77865,-3.67708 1.80469,-3.21875 C1.83073,-2.76042 1.89844,-2.28646 2.00781,-1.79688 C2.11719,-1.30729 2.29427,-0.895833 2.53906,-0.5625 C2.78385,-0.229167 3.10417,-0.0625 3.5,-0.0625 "/>
</g>

<g fill="#212121" fill-opacity="1" stroke="none" transform="matrix(0.75,0,0,0.75,316.135,145.05)"
font-family="MS Shell Dlg 2" font-size="8.25" font-weight="400" font-style="normal" 
>
<path vector-effect="none" fill-rule="evenodd" d="M1.17188,-0.765625 C1.17188,-0.984375 1.25,-1.16667 1.40625,-1.3125 C1.5625,-1.45833 1.74479,-1.53125 1.95313,-1.53125 C2.07813,-1.53125 2.20313,-1.4974 2.32813,-1.42969 C2.45313,-1.36198 2.54948,-1.26823 2.61719,-1.14844 C2.6849,-1.02865 2.71875,-0.901042 2.71875,-0.765625 C2.71875,-0.567708 2.64323,-0.390625 2.49219,-0.234375 C2.34115,-0.078125 2.16146,0 1.95313,0 C1.74479,0 1.5625,-0.078125 1.40625,-0.234375 C1.25,-0.390625 1.17188,-0.567708 1.17188,-0.765625 "/>
</g>

<g fill="#212121" fill-opacity="1" stroke="none" transform="matrix(0.75,0,0,0.75,319.19,145.05)"
font-family="MS Shell Dlg 2" font-size="8.25" font-weight="400" font-style="normal" 
>
<path vector-effect="none" fill-rule="evenodd" d="M0.59375,-2.125 C0.59375,-2.6875 0.778646,-3.1849 1.14844,-3.61719 C1.51823,-4.04948 1.98958,-4.40625 2.5625,-4.6875 L2.04688,-5.03125 C1.72396,-5.23958 1.46354,-5.51823 1.26563,-5.86719 C1.06771,-6.21615 0.96875,-6.57813 0.96875,-6.95313 C0.96875,-7.40104 1.08594,-7.80469 1.32031,-8.16406 C1.55469,-8.52344 1.86719,-8.80729 2.25781,-9.01563 C2.64844,-9.22396 3.0625,-9.32813 3.5,-9.32813 C3.91667,-9.32813 4.31771,-9.24219 4.70313,-9.07031 C5.08854,-8.89844 5.40365,-8.65625 5.64844,-8.34375 C5.89323,-8.03125 6.01563,-7.66146 6.01563,-7.23438 C6.01563,-6.91146 5.94271,-6.61719 5.79688,-6.35156 C5.65104,-6.08594 5.45052,-5.84635 5.19531,-5.63281 C4.9401,-5.41927 4.66667,-5.23438 4.375,-5.07813 L5.17188,-4.5625 C5.53646,-4.32292 5.83333,-4.00781 6.0625,-3.61719 C6.29167,-3.22656 6.40625,-2.8125 6.40625,-2.375 C6.40625,-1.875 6.26823,-1.41667 5.99219,-1 C5.71615,-0.583333 5.35677,-0.260417 4.91406,-0.03125 C4.47135,0.197917 4,0.3125 3.5,0.3125 C3.02083,0.3125 2.55469,0.213542 2.10156,0.015625 C1.64844,-0.182292 1.28385,-0.466146 1.00781,-0.835938 C0.731771,-1.20573 0.59375,-1.63542 0.59375,-2.125 M1.34375,-2.125 C1.34375,-1.76042 1.44531,-1.42448 1.64844,-1.11719 C1.85156,-0.809896 2.11979,-0.570313 2.45313,-0.398438 C2.78646,-0.226563 3.13542,-0.140625 3.5,-0.140625 C4.04167,-0.140625 4.53385,-0.299479 4.97656,-0.617188 C5.41927,-0.934896 5.64063,-1.35417 5.64063,-1.875 C5.64063,-2.05208 5.60417,-2.22917 5.53125,-2.40625 C5.45833,-2.58333 5.35938,-2.74219 5.23438,-2.88281 C5.10938,-3.02344 4.96875,-3.14063 4.8125,-3.23438 L2.9375,-4.45313 C2.64583,-4.29688 2.3776,-4.10156 2.13281,-3.86719 C1.88802,-3.63281 1.69531,-3.36719 1.55469,-3.07031 C1.41406,-2.77344 1.34375,-2.45833 1.34375,-2.125 M2.3125,-6.40625 L4,-5.3125 C4.39583,-5.54167 4.71875,-5.81771 4.96875,-6.14063 C5.21875,-6.46354 5.34375,-6.82813 5.34375,-7.23438 C5.34375,-7.54688 5.25521,-7.83333 5.07813,-8.09375 C4.90104,-8.35417 4.67188,-8.55729 4.39063,-8.70313 C4.10938,-8.84896 3.80729,-8.92188 3.48438,-8.92188 C3.20313,-8.92188 2.91927,-8.86719 2.63281,-8.75781 C2.34635,-8.64844 2.10938,-8.48438 1.92188,-8.26563 C1.73438,-8.04688 1.64063,-7.79167 1.64063,-7.5 C1.64063,-7.0625 1.86458,-6.69792 2.3125,-6.40625 "/>
</g>

<g fill="#212121" fill-opacity="1" stroke="none" transform="matrix(0.75,0,0,0.75,385.262,145.05)"
font-family="MS Shell Dlg 2" font-size="8.25" font-weight="400" font-style="normal" 
>
<path vector-effect="none" fill-rule="evenodd" d="M1.29688,0 L1.29688,-0.5 C2.46354,-0.5 3.04688,-0.645833 3.04688,-0.9375 L3.04688,-8.28125 C2.56771,-8.05208 1.95833,-7.9375 1.21875,-7.9375 L1.21875,-8.42188 C2.36458,-8.42188 3.22917,-8.72396 3.8125,-9.32813 L4,-9.32813 C4.03125,-9.32813 4.0625,-9.3151 4.09375,-9.28906 C4.125,-9.26302 4.14063,-9.23438 4.14063,-9.20313 L4.14063,-0.9375 C4.14063,-0.645833 4.72396,-0.5 5.89063,-0.5 L5.89063,0 L1.29688,0"/>
</g>

<g fill="#212121" fill-opacity="1" stroke="none" transform="matrix(0,-0.75,0.75,0,9.75,117.735)"
font-family="MS Shell Dlg 2" font-size="8.25" font-weight="400" font-style="normal" 
>
<path vector-effect="none" fill-rule="evenodd" d="M10.8125,0 L7.98438,0 L4.40625,-4.95313 C4.13542,-4.94271 3.91667,-4.9375 3.75,-4.9375 C3.6875,-4.9375 3.61719,-4.9401 3.53906,-4.94531 C3.46094,-4.95052 3.38021,-4.95313 3.29688,-4.95313 L3.29688,-1.875 C3.29688,-1.20833 3.36979,-0.796875 3.51563,-0.640625 C3.71354,-0.411458 4.01042,-0.296875 4.40625,-0.296875 L4.8125,-0.296875 L4.8125,0 L0.28125,0 L0.28125,-0.296875 L0.671875,-0.296875 C1.11979,-0.296875 1.44271,-0.442708 1.64063,-0.734375 C1.74479,-0.890625 1.79688,-1.27083 1.79688,-1.875 L1.79688,-8.71875 C1.79688,-9.38542 1.72396,-9.80208 1.57813,-9.96875 C1.38021,-10.1979 1.07813,-10.3125 0.671875,-10.3125 L0.28125,-10.3125 L0.28125,-10.5938 L4.14063,-10.5938 C5.26563,-10.5938 6.09375,-10.513 6.625,-10.3516 C7.15625,-10.1901 7.60938,-9.88802 7.98438,-9.44531 C8.35938,-9.0026 8.54688,-8.47917 8.54688,-7.875 C8.54688,-7.21875 8.33333,-6.65104 7.90625,-6.17188 C7.47917,-5.69271 6.82292,-5.35417 5.9375,-5.15625 L8.125,-2.125 C8.625,-1.42708 9.05469,-0.963542 9.41406,-0.734375 C9.77344,-0.505208 10.2396,-0.359375 10.8125,-0.296875 L10.8125,0 M3.29688,-5.45313 C3.39063,-5.45313 3.47396,-5.45052 3.54688,-5.44531 C3.61979,-5.4401 3.68229,-5.4375 3.73438,-5.4375 C4.74479,-5.4375 5.50521,-5.65625 6.01563,-6.09375 C6.52604,-6.53125 6.78125,-7.08854 6.78125,-7.76563 C6.78125,-8.43229 6.57552,-8.97135 6.16406,-9.38281 C5.7526,-9.79427 5.20313,-10 4.51563,-10 C4.21354,-10 3.80729,-9.95313 3.29688,-9.85938 L3.29688,-5.45313 M12.7031,-4.46875 C12.7031,-3.40625 12.9635,-2.57292 13.4844,-1.96875 C14.0052,-1.36458 14.6146,-1.0625 15.3125,-1.0625 C15.7813,-1.0625 16.1901,-1.1901 16.5391,-1.44531 C16.888,-1.70052 17.1771,-2.14063 17.4063,-2.76563 L17.6563,-2.60938 C17.5417,-1.90104 17.2214,-1.2526 16.6953,-0.664063 C16.1693,-0.0755208 15.5104,0.21875 14.7188,0.21875 C13.8646,0.21875 13.1302,-0.117188 12.5156,-0.789063 C11.901,-1.46094 11.5938,-2.35938 11.5938,-3.48438 C11.5938,-4.71354 11.9089,-5.66927 12.5391,-6.35156 C13.1693,-7.03385 13.9583,-7.375 14.9063,-7.375 C15.7083,-7.375 16.3672,-7.11198 16.8828,-6.58594 C17.3984,-6.0599 17.6563,-5.35417 17.6563,-4.46875 L12.7031,-4.46875 M12.7031,-4.92188 L16.0156,-4.92188 C15.9948,-5.38021 15.9427,-5.70313 15.8594,-5.89063 C15.724,-6.18229 15.5286,-6.41146 15.2734,-6.57813 C15.0182,-6.74479 14.75,-6.82813 14.4688,-6.82813 C14.0313,-6.82813 13.6432,-6.65885 13.3047,-6.32031 C12.9661,-5.98177 12.7656,-5.51563 12.7031,-4.92188 M20.9688,-11.1094 L20.9688,-1.625 C20.9688,-1.17708 21,-0.880208 21.0625,-0.734375 C21.125,-0.588542 21.224,-0.476563 21.3594,-0.398438 C21.4948,-0.320313 21.75,-0.28125 22.125,-0.28125 L22.125,0 L18.6094,0 L18.6094,-0.28125 C18.9427,-0.28125 19.1693,-0.315104 19.2891,-0.382813 C19.4089,-0.450521 19.5026,-0.5625 19.5703,-0.71875 C19.638,-0.875 19.6719,-1.17708 19.6719,-1.625 L19.6719,-8.125 C19.6719,-8.92708 19.6536,-9.42188 19.6172,-9.60938 C19.5807,-9.79688 19.5208,-9.92448 19.4375,-9.99219 C19.3542,-10.0599 19.25,-10.0938 19.125,-10.0938 C18.9896,-10.0938 18.8177,-10.0521 18.6094,-9.96875 L18.4844,-10.2344 L20.6094,-11.1094 L20.9688,-11.1094 M26.5625,-1.03125 C25.8229,-0.46875 25.3594,-0.140625 25.1719,-0.046875 C24.8906,0.0885417 24.5938,0.15625 24.2813,0.15625 C23.7813,0.15625 23.3724,-0.015625 23.0547,-0.359375 C22.737,-0.703125 22.5781,-1.15104 22.5781,-1.70313 C22.5781,-2.04688 22.6563,-2.34896 22.8125,-2.60938 C23.0208,-2.96354 23.3906,-3.29688 23.9219,-3.60938 C24.4531,-3.92188 25.3333,-4.30208 26.5625,-4.75 L26.5625,-5.03125 C26.5625,-5.73958 26.4479,-6.22656 26.2188,-6.49219 C25.9896,-6.75781 25.6615,-6.89063 25.2344,-6.89063 C24.901,-6.89063 24.6406,-6.80208 24.4531,-6.625 C24.2552,-6.44792 24.1563,-6.24479 24.1563,-6.01563 L24.1719,-5.5625 C24.1719,-5.32292 24.1094,-5.13802 23.9844,-5.00781 C23.8594,-4.8776 23.6979,-4.8125 23.5,-4.8125 C23.3125,-4.8125 23.1563,-4.88021 23.0313,-5.01563 C22.9063,-5.15104 22.8438,-5.33854 22.8438,-5.57813 C22.8438,-6.02604 23.0729,-6.4375 23.5313,-6.8125 C23.9896,-7.1875 24.6354,-7.375 25.4688,-7.375 C26.1042,-7.375 26.625,-7.26563 27.0313,-7.04688 C27.3333,-6.89063 27.5573,-6.64063 27.7031,-6.29688 C27.7969,-6.06771 27.8438,-5.60938 27.8438,-4.92188 L27.8438,-2.48438 C27.8438,-1.80729 27.8568,-1.39063 27.8828,-1.23438 C27.9089,-1.07813 27.9531,-0.973958 28.0156,-0.921875 C28.0781,-0.869792 28.1458,-0.84375 28.2188,-0.84375 C28.3021,-0.84375 28.375,-0.864583 28.4375,-0.90625 C28.5521,-0.96875 28.7656,-1.15625 29.0781,-1.46875 L29.0781,-1.03125 C28.4948,-0.25 27.9375,0.140625 27.4063,0.140625 C27.1458,0.140625 26.9401,0.0520833 26.7891,-0.125 C26.638,-0.302083 26.5625,-0.604167 26.5625,-1.03125 M26.5625,-1.54688 L26.5625,-4.26563 C25.7708,-3.95313 25.2604,-3.73438 25.0313,-3.60938 C24.625,-3.38021 24.3333,-3.14063 24.1563,-2.89063 C23.9792,-2.64063 23.8906,-2.36458 23.8906,-2.0625 C23.8906,-1.6875 24.0026,-1.3776 24.2266,-1.13281 C24.4505,-0.888021 24.7083,-0.765625 25,-0.765625 C25.3958,-0.765625 25.9167,-1.02604 26.5625,-1.54688 M31.5781,-9.51563 L31.5781,-7.15625 L33.25,-7.15625 L33.25,-6.60938 L31.5781,-6.60938 L31.5781,-1.96875 C31.5781,-1.51042 31.6458,-1.20052 31.7813,-1.03906 C31.9167,-0.877604 32.0885,-0.796875 32.2969,-0.796875 C32.4635,-0.796875 32.6276,-0.848958 32.7891,-0.953125 C32.9505,-1.05729 33.0781,-1.21354 33.1719,-1.42188 L33.4688,-1.42188 C33.2917,-0.911458 33.0365,-0.526042 32.7031,-0.265625 C32.3698,-0.00520833 32.026,0.125 31.6719,0.125 C31.4323,0.125 31.1979,0.0572917 30.9688,-0.078125 C30.7396,-0.213542 30.5703,-0.40625 30.4609,-0.65625 C30.3516,-0.90625 30.2969,-1.28646 30.2969,-1.79688 L30.2969,-6.60938 L29.1563,-6.60938 L29.1563,-6.875 C29.4479,-6.98958 29.7422,-7.18229 30.0391,-7.45313 C30.3359,-7.72396 30.6042,-8.04688 30.8438,-8.42188 C30.9583,-8.61979 31.125,-8.98438 31.3438,-9.51563 L31.5781,-9.51563 M35.3281,-11.1094 C35.5469,-11.1094 35.7318,-11.0339 35.8828,-10.8828 C36.0339,-10.7318 36.1094,-10.5469 36.1094,-10.3281 C36.1094,-10.1094 36.0339,-9.92188 35.8828,-9.76563 C35.7318,-9.60938 35.5469,-9.53125 35.3281,-9.53125 C35.1094,-9.53125 34.9219,-9.60938 34.7656,-9.76563 C34.6094,-9.92188 34.5313,-10.1094 34.5313,-10.3281 C34.5313,-10.5469 34.6068,-10.7318 34.7578,-10.8828 C34.9089,-11.0339 35.099,-11.1094 35.3281,-11.1094 M35.9688,-7.375 L35.9688,-1.625 C35.9688,-1.17708 36.0026,-0.877604 36.0703,-0.726563 C36.138,-0.575521 36.2344,-0.463542 36.3594,-0.390625 C36.4844,-0.317708 36.7188,-0.28125 37.0625,-0.28125 L37.0625,0 L33.5781,0 L33.5781,-0.28125 C33.9323,-0.28125 34.1693,-0.315104 34.2891,-0.382813 C34.4089,-0.450521 34.5026,-0.5625 34.5703,-0.71875 C34.638,-0.875 34.6719,-1.17708 34.6719,-1.625 L34.6719,-4.375 C34.6719,-5.15625 34.651,-5.66146 34.6094,-5.89063 C34.5677,-6.05729 34.5078,-6.17188 34.4297,-6.23438 C34.3516,-6.29688 34.2448,-6.32813 34.1094,-6.32813 C33.9635,-6.32813 33.7865,-6.29167 33.5781,-6.21875 L33.4688,-6.5 L35.625,-7.375 L35.9688,-7.375 M37.1406,-7.15625 L40.5,-7.15625 L40.5,-6.875 L40.2813,-6.875 C40.0833,-6.875 39.9297,-6.82552 39.8203,-6.72656 C39.7109,-6.6276 39.6563,-6.49479 39.6563,-6.32813 C39.6563,-6.14063 39.7135,-5.92188 39.8281,-5.67188 L41.4844,-1.71875 L43.1563,-5.82813 C43.2813,-6.11979 43.3438,-6.33854 43.3438,-6.48438 C43.3438,-6.55729 43.3229,-6.61979 43.2813,-6.67188 C43.2188,-6.74479 43.1432,-6.79688 43.0547,-6.82813 C42.9661,-6.85938 42.7865,-6.875 42.5156,-6.875 L42.5156,-7.15625 L44.8594,-7.15625 L44.8594,-6.875 C44.5885,-6.85417 44.401,-6.79688 44.2969,-6.70313 C44.1094,-6.54688 43.9427,-6.28646 43.7969,-5.92188 L41.2656,0.21875 L40.9375,0.21875 L38.3906,-5.82813 C38.276,-6.10938 38.1667,-6.3099 38.0625,-6.42969 C37.9583,-6.54948 37.8229,-6.65104 37.6563,-6.73438 C37.5729,-6.78646 37.401,-6.83333 37.1406,-6.875 L37.1406,-7.15625 M46.7031,-4.46875 C46.7031,-3.40625 46.9635,-2.57292 47.4844,-1.96875 C48.0052,-1.36458 48.6146,-1.0625 49.3125,-1.0625 C49.7813,-1.0625 50.1901,-1.1901 50.5391,-1.44531 C50.888,-1.70052 51.1771,-2.14063 51.4063,-2.76563 L51.6563,-2.60938 C51.5417,-1.90104 51.2214,-1.2526 50.6953,-0.664063 C50.1693,-0.0755208 49.5104,0.21875 48.7188,0.21875 C47.8646,0.21875 47.1302,-0.117188 46.5156,-0.789063 C45.901,-1.46094 45.5938,-2.35938 45.5938,-3.48438 C45.5938,-4.71354 45.9089,-5.66927 46.5391,-6.35156 C47.1693,-7.03385 47.9583,-7.375 48.9063,-7.375 C49.7083,-7.375 50.3672,-7.11198 50.8828,-6.58594 C51.3984,-6.0599 51.6563,-5.35417 51.6563,-4.46875 L46.7031,-4.46875 M46.7031,-4.92188 L50.0156,-4.92188 C49.9948,-5.38021 49.9427,-5.70313 49.8594,-5.89063 C49.724,-6.18229 49.5286,-6.41146 49.2734,-6.57813 C49.0182,-6.74479 48.75,-6.82813 48.4688,-6.82813 C48.0313,-6.82813 47.6432,-6.65885 47.3047,-6.32031 C46.9661,-5.98177 46.7656,-5.51563 46.7031,-4.92188 M59.2969,-5.6875 L64.2188,-5.6875 L64.2188,-8.71875 C64.2188,-9.26042 64.1823,-9.61458 64.1094,-9.78125 C64.0573,-9.91667 63.9479,-10.0313 63.7813,-10.125 C63.5625,-10.25 63.3281,-10.3125 63.0781,-10.3125 L62.7031,-10.3125 L62.7031,-10.5938 L67.2344,-10.5938 L67.2344,-10.3125 L66.8594,-10.3125 C66.6094,-10.3125 66.3698,-10.25 66.1406,-10.125 C65.974,-10.0417 65.862,-9.91667 65.8047,-9.75 C65.7474,-9.58333 65.7188,-9.23958 65.7188,-8.71875 L65.7188,-1.875 C65.7188,-1.34375 65.75,-0.989583 65.8125,-0.8125 C65.8646,-0.6875 65.974,-0.578125 66.1406,-0.484375 C66.3698,-0.359375 66.6094,-0.296875 66.8594,-0.296875 L67.2344,-0.296875 L67.2344,0 L62.7031,0 L62.7031,-0.296875 L63.0781,-0.296875 C63.5052,-0.296875 63.8177,-0.421875 64.0156,-0.671875 C64.151,-0.838542 64.2188,-1.23958 64.2188,-1.875 L64.2188,-5.10938 L59.2969,-5.10938 L59.2969,-1.875 C59.2969,-1.34375 59.3281,-0.989583 59.3906,-0.8125 C59.4427,-0.6875 59.5521,-0.578125 59.7188,-0.484375 C59.9479,-0.359375 60.1875,-0.296875 60.4375,-0.296875 L60.8125,-0.296875 L60.8125,0 L56.2813,0 L56.2813,-0.296875 L56.6563,-0.296875 C57.0938,-0.296875 57.4115,-0.421875 57.6094,-0.671875 C57.7344,-0.838542 57.7969,-1.23958 57.7969,-1.875 L57.7969,-8.71875 C57.7969,-9.26042 57.7604,-9.61458 57.6875,-9.78125 C57.6354,-9.91667 57.5313,-10.0313 57.375,-10.125 C57.1458,-10.25 56.9063,-10.3125 56.6563,-10.3125 L56.2813,-10.3125 L56.2813,-10.5938 L60.8125,-10.5938 L60.8125,-10.3125 L60.4375,-10.3125 C60.1875,-10.3125 59.9479,-10.25 59.7188,-10.125 C59.5625,-10.0417 59.4531,-9.91667 59.3906,-9.75 C59.3281,-9.58333 59.2969,-9.23958 59.2969,-8.71875 L59.2969,-5.6875 M72.5625,-1.03125 C71.8229,-0.46875 71.3594,-0.140625 71.1719,-0.046875 C70.8906,0.0885417 70.5938,0.15625 70.2813,0.15625 C69.7813,0.15625 69.3724,-0.015625 69.0547,-0.359375 C68.737,-0.703125 68.5781,-1.15104 68.5781,-1.70313 C68.5781,-2.04688 68.6563,-2.34896 68.8125,-2.60938 C69.0208,-2.96354 69.3906,-3.29688 69.9219,-3.60938 C70.4531,-3.92188 71.3333,-4.30208 72.5625,-4.75 L72.5625,-5.03125 C72.5625,-5.73958 72.4479,-6.22656 72.2188,-6.49219 C71.9896,-6.75781 71.6615,-6.89063 71.2344,-6.89063 C70.901,-6.89063 70.6406,-6.80208 70.4531,-6.625 C70.2552,-6.44792 70.1563,-6.24479 70.1563,-6.01563 L70.1719,-5.5625 C70.1719,-5.32292 70.1094,-5.13802 69.9844,-5.00781 C69.8594,-4.8776 69.6979,-4.8125 69.5,-4.8125 C69.3125,-4.8125 69.1563,-4.88021 69.0313,-5.01563 C68.9063,-5.15104 68.8438,-5.33854 68.8438,-5.57813 C68.8438,-6.02604 69.0729,-6.4375 69.5313,-6.8125 C69.9896,-7.1875 70.6354,-7.375 71.4688,-7.375 C72.1042,-7.375 72.625,-7.26563 73.0313,-7.04688 C73.3333,-6.89063 73.5573,-6.64063 73.7031,-6.29688 C73.7969,-6.06771 73.8438,-5.60938 73.8438,-4.92188 L73.8438,-2.48438 C73.8438,-1.80729 73.8568,-1.39063 73.8828,-1.23438 C73.9089,-1.07813 73.9531,-0.973958 74.0156,-0.921875 C74.0781,-0.869792 74.1458,-0.84375 74.2188,-0.84375 C74.3021,-0.84375 74.375,-0.864583 74.4375,-0.90625 C74.5521,-0.96875 74.7656,-1.15625 75.0781,-1.46875 L75.0781,-1.03125 C74.4948,-0.25 73.9375,0.140625 73.4063,0.140625 C73.1458,0.140625 72.9401,0.0520833 72.7891,-0.125 C72.638,-0.302083 72.5625,-0.604167 72.5625,-1.03125 M72.5625,-1.54688 L72.5625,-4.26563 C71.7708,-3.95313 71.2604,-3.73438 71.0313,-3.60938 C70.625,-3.38021 70.3333,-3.14063 70.1563,-2.89063 C69.9792,-2.64063 69.8906,-2.36458 69.8906,-2.0625 C69.8906,-1.6875 70.0026,-1.3776 70.2266,-1.13281 C70.4505,-0.888021 70.7083,-0.765625 71,-0.765625 C71.3958,-0.765625 71.9167,-1.02604 72.5625,-1.54688 M72.9531,-10.4531 C73.1927,-10.4531 73.3932,-10.3698 73.5547,-10.2031 C73.7161,-10.0365 73.7969,-9.83333 73.7969,-9.59375 C73.7969,-9.36458 73.7161,-9.16667 73.5547,-9 C73.3932,-8.83333 73.1927,-8.75 72.9531,-8.75 C72.724,-8.75 72.526,-8.83333 72.3594,-9 C72.1927,-9.16667 72.1094,-9.36458 72.1094,-9.59375 C72.1094,-9.83333 72.1927,-10.0365 72.3594,-10.2031 C72.526,-10.3698 72.724,-10.4531 72.9531,-10.4531 M70.2031,-10.4531 C70.4427,-10.4531 70.6432,-10.3698 70.8047,-10.2031 C70.9661,-10.0365 71.0469,-9.83333 71.0469,-9.59375 C71.0469,-9.36458 70.9635,-9.16667 70.7969,-9 C70.6302,-8.83333 70.4323,-8.75 70.2031,-8.75 C69.974,-8.75 69.776,-8.83333 69.6094,-9 C69.4427,-9.16667 69.3594,-9.36458 69.3594,-9.59375 C69.3594,-9.83333 69.4401,-10.0365 69.6016,-10.2031 C69.763,-10.3698 69.9635,-10.4531 70.2031,-10.4531 M81.7813,-7.15625 L81.7813,-2.82813 C81.7813,-1.99479 81.7995,-1.48698 81.8359,-1.30469 C81.8724,-1.1224 81.9349,-0.994792 82.0234,-0.921875 C82.112,-0.848958 82.2135,-0.8125 82.3281,-0.8125 C82.4844,-0.8125 82.6667,-0.854167 82.875,-0.9375 L82.9844,-0.671875 L80.8438,0.21875 L80.4844,0.21875 L80.4844,-1.29688 C79.8698,-0.630208 79.401,-0.210938 79.0781,-0.0390625 C78.7552,0.132813 78.4167,0.21875 78.0625,0.21875 C77.6563,0.21875 77.3073,0.101563 77.0156,-0.132813 C76.724,-0.367188 76.5208,-0.666667 76.4063,-1.03125 C76.2917,-1.39583 76.2344,-1.91146 76.2344,-2.57813 L76.2344,-5.76563 C76.2344,-6.10938 76.1979,-6.34635 76.125,-6.47656 C76.0521,-6.60677 75.9427,-6.70573 75.7969,-6.77344 C75.651,-6.84115 75.3906,-6.875 75.0156,-6.875 L75.0156,-7.15625 L77.5313,-7.15625 L77.5313,-2.375 C77.5313,-1.70833 77.6458,-1.27083 77.875,-1.0625 C78.1042,-0.854167 78.3854,-0.75 78.7188,-0.75 C78.9375,-0.75 79.1901,-0.820313 79.4766,-0.960938 C79.763,-1.10156 80.099,-1.36979 80.4844,-1.76563 L80.4844,-5.8125 C80.4844,-6.21875 80.4115,-6.49479 80.2656,-6.64063 C80.1198,-6.78646 79.8125,-6.86458 79.3438,-6.875 L79.3438,-7.15625 L81.7813,-7.15625 M86.2969,-6.59375 L86.2969,-1.89063 C86.2969,-1.22396 86.3698,-0.802083 86.5156,-0.625 C86.7135,-0.395833 86.974,-0.28125 87.2969,-0.28125 L87.9375,-0.28125 L87.9375,0 L83.6719,0 L83.6719,-0.28125 L83.9844,-0.28125 C84.1927,-0.28125 84.3828,-0.333333 84.5547,-0.4375 C84.7266,-0.541667 84.8464,-0.682292 84.9141,-0.859375 C84.9818,-1.03646 85.0156,-1.38021 85.0156,-1.89063 L85.0156,-6.59375 L83.625,-6.59375 L83.625,-7.15625 L85.0156,-7.15625 L85.0156,-7.625 C85.0156,-8.34375 85.1302,-8.95052 85.3594,-9.44531 C85.5885,-9.9401 85.9375,-10.3385 86.4063,-10.6406 C86.875,-10.9427 87.4063,-11.0938 88,-11.0938 C88.5417,-11.0938 89.0417,-10.9167 89.5,-10.5625 C89.8021,-10.3333 89.9531,-10.0729 89.9531,-9.78125 C89.9531,-9.625 89.8854,-9.47656 89.75,-9.33594 C89.6146,-9.19531 89.4688,-9.125 89.3125,-9.125 C89.1979,-9.125 89.0729,-9.16927 88.9375,-9.25781 C88.8021,-9.34635 88.638,-9.53125 88.4453,-9.8125 C88.2526,-10.0938 88.0781,-10.2865 87.9219,-10.3906 C87.7552,-10.4844 87.5729,-10.5313 87.375,-10.5313 C87.1354,-10.5313 86.9323,-10.4688 86.7656,-10.3438 C86.599,-10.2188 86.4792,-10.0208 86.4063,-9.75 C86.3333,-9.47917 86.2969,-8.78646 86.2969,-7.67188 L86.2969,-7.15625 L88.1406,-7.15625 L88.1406,-6.59375 L86.2969,-6.59375 M90.3281,-11.1094 C90.5469,-11.1094 90.7318,-11.0339 90.8828,-10.8828 C91.0339,-10.7318 91.1094,-10.5469 91.1094,-10.3281 C91.1094,-10.1094 91.0339,-9.92188 90.8828,-9.76563 C90.7318,-9.60938 90.5469,-9.53125 90.3281,-9.53125 C90.1094,-9.53125 89.9219,-9.60938 89.7656,-9.76563 C89.6094,-9.92188 89.5313,-10.1094 89.5313,-10.3281 C89.5313,-10.5469 89.6068,-10.7318 89.7578,-10.8828 C89.9089,-11.0339 90.099,-11.1094 90.3281,-11.1094 M90.9688,-7.375 L90.9688,-1.625 C90.9688,-1.17708 91.0026,-0.877604 91.0703,-0.726563 C91.138,-0.575521 91.2344,-0.463542 91.3594,-0.390625 C91.4844,-0.317708 91.7188,-0.28125 92.0625,-0.28125 L92.0625,0 L88.5781,0 L88.5781,-0.28125 C88.9323,-0.28125 89.1693,-0.315104 89.2891,-0.382813 C89.4089,-0.450521 89.5026,-0.5625 89.5703,-0.71875 C89.638,-0.875 89.6719,-1.17708 89.6719,-1.625 L89.6719,-4.375 C89.6719,-5.15625 89.651,-5.66146 89.6094,-5.89063 C89.5677,-6.05729 89.5078,-6.17188 89.4297,-6.23438 C89.3516,-6.29688 89.2448,-6.32813 89.1094,-6.32813 C88.9635,-6.32813 88.7865,-6.29167 88.5781,-6.21875 L88.4688,-6.5 L90.625,-7.375 L90.9688,-7.375 M94.4219,-2.60938 C93.9844,-2.82813 93.6484,-3.1276 93.4141,-3.50781 C93.1797,-3.88802 93.0625,-4.3125 93.0625,-4.78125 C93.0625,-5.48958 93.3281,-6.09896 93.8594,-6.60938 C94.3906,-7.11979 95.0729,-7.375 95.9063,-7.375 C96.5938,-7.375 97.1875,-7.20833 97.6875,-6.875 L99.2031,-6.875 C99.4219,-6.875 99.5495,-6.86719 99.5859,-6.85156 C99.6224,-6.83594 99.651,-6.8125 99.6719,-6.78125 C99.7031,-6.73958 99.7188,-6.65625 99.7188,-6.53125 C99.7188,-6.39583 99.7031,-6.30208 99.6719,-6.25 C99.6615,-6.22917 99.6354,-6.21094 99.5938,-6.19531 C99.5521,-6.17969 99.4219,-6.17188 99.2031,-6.17188 L98.2656,-6.17188 C98.5573,-5.79688 98.7031,-5.31771 98.7031,-4.73438 C98.7031,-4.06771 98.4479,-3.4974 97.9375,-3.02344 C97.4271,-2.54948 96.7448,-2.3125 95.8906,-2.3125 C95.5365,-2.3125 95.1719,-2.36458 94.7969,-2.46875 C94.5677,-2.27083 94.4141,-2.09635 94.3359,-1.94531 C94.2578,-1.79427 94.2188,-1.66667 94.2188,-1.5625 C94.2188,-1.47917 94.2604,-1.39583 94.3438,-1.3125 C94.4271,-1.22917 94.5938,-1.16667 94.8438,-1.125 C94.9896,-1.10417 95.3542,-1.08854 95.9375,-1.07813 C97.0104,-1.04688 97.7083,-1.01042 98.0313,-0.96875 C98.5104,-0.895833 98.8958,-0.713542 99.1875,-0.421875 C99.4792,-0.130208 99.625,0.229167 99.625,0.65625 C99.625,1.25 99.349,1.80208 98.7969,2.3125 C97.9844,3.07292 96.9219,3.45313 95.6094,3.45313 C94.6094,3.45313 93.7604,3.22917 93.0625,2.78125 C92.6771,2.52083 92.4844,2.25 92.4844,1.96875 C92.4844,1.84375 92.5104,1.71875 92.5625,1.59375 C92.6563,1.39583 92.8385,1.125 93.1094,0.78125 C93.151,0.739583 93.4167,0.458333 93.9063,-0.0625 C93.6354,-0.229167 93.4453,-0.375 93.3359,-0.5 C93.2266,-0.625 93.1719,-0.770833 93.1719,-0.9375 C93.1719,-1.11458 93.2448,-1.32552 93.3906,-1.57031 C93.5365,-1.8151 93.8802,-2.16146 94.4219,-2.60938 M95.7813,-7 C95.3958,-7 95.0729,-6.84635 94.8125,-6.53906 C94.5521,-6.23177 94.4219,-5.76042 94.4219,-5.125 C94.4219,-4.30208 94.599,-3.66146 94.9531,-3.20313 C95.224,-2.85938 95.5677,-2.6875 95.9844,-2.6875 C96.3802,-2.6875 96.7057,-2.83594 96.9609,-3.13281 C97.2161,-3.42969 97.3438,-3.89583 97.3438,-4.53125 C97.3438,-5.36458 97.1615,-6.01563 96.7969,-6.48438 C96.5365,-6.82813 96.1979,-7 95.7813,-7 M94.3438,0 C94.0938,0.270833 93.9063,0.520833 93.7813,0.75 C93.6563,0.979167 93.5938,1.1875 93.5938,1.375 C93.5938,1.625 93.7448,1.84375 94.0469,2.03125 C94.5677,2.35417 95.3229,2.51563 96.3125,2.51563 C97.25,2.51563 97.9401,2.35156 98.3828,2.02344 C98.8255,1.69531 99.0469,1.34375 99.0469,0.96875 C99.0469,0.697917 98.9167,0.505208 98.6563,0.390625 C98.3854,0.276042 97.849,0.208333 97.0469,0.1875 C95.8698,0.15625 94.9688,0.09375 94.3438,0 M102.625,-11.1094 L102.625,-4 L104.438,-5.65625 C104.823,-6.01042 105.047,-6.23438 105.109,-6.32813 C105.151,-6.39063 105.172,-6.45313 105.172,-6.51563 C105.172,-6.61979 105.13,-6.70833 105.047,-6.78125 C104.964,-6.85417 104.823,-6.89583 104.625,-6.90625 L104.625,-7.15625 L107.734,-7.15625 L107.734,-6.90625 C107.307,-6.89583 106.951,-6.83073 106.664,-6.71094 C106.378,-6.59115 106.068,-6.38021 105.734,-6.07813 L103.891,-4.375 L105.734,-2.0625 C106.245,-1.41667 106.589,-1.01042 106.766,-0.84375 C107.016,-0.59375 107.234,-0.432292 107.422,-0.359375 C107.547,-0.307292 107.771,-0.28125 108.094,-0.28125 L108.094,0 L104.625,0 L104.625,-0.28125 C104.823,-0.291667 104.956,-0.322917 105.023,-0.375 C105.091,-0.427083 105.125,-0.505208 105.125,-0.609375 C105.125,-0.723958 105.021,-0.916667 104.813,-1.1875 L102.625,-3.98438 L102.625,-1.60938 C102.625,-1.15104 102.656,-0.848958 102.719,-0.703125 C102.781,-0.557292 102.872,-0.453125 102.992,-0.390625 C103.112,-0.328125 103.375,-0.291667 103.781,-0.28125 L103.781,0 L100.141,0 L100.141,-0.28125 C100.505,-0.28125 100.776,-0.328125 100.953,-0.421875 C101.068,-0.473958 101.151,-0.5625 101.203,-0.6875 C101.286,-0.854167 101.328,-1.15104 101.328,-1.57813 L101.328,-8.09375 C101.328,-8.91667 101.31,-9.42188 101.273,-9.60938 C101.237,-9.79688 101.177,-9.92448 101.094,-9.99219 C101.01,-10.0599 100.901,-10.0938 100.766,-10.0938 C100.651,-10.0938 100.484,-10.0521 100.266,-9.96875 L100.141,-10.2344 L102.266,-11.1094 L102.625,-11.1094 M109.703,-4.46875 C109.703,-3.40625 109.964,-2.57292 110.484,-1.96875 C111.005,-1.36458 111.615,-1.0625 112.313,-1.0625 C112.781,-1.0625 113.19,-1.1901 113.539,-1.44531 C113.888,-1.70052 114.177,-2.14063 114.406,-2.76563 L114.656,-2.60938 C114.542,-1.90104 114.221,-1.2526 113.695,-0.664063 C113.169,-0.0755208 112.51,0.21875 111.719,0.21875 C110.865,0.21875 110.13,-0.117188 109.516,-0.789063 C108.901,-1.46094 108.594,-2.35938 108.594,-3.48438 C108.594,-4.71354 108.909,-5.66927 109.539,-6.35156 C110.169,-7.03385 110.958,-7.375 111.906,-7.375 C112.708,-7.375 113.367,-7.11198 113.883,-6.58594 C114.398,-6.0599 114.656,-5.35417 114.656,-4.46875 L109.703,-4.46875 M109.703,-4.92188 L113.016,-4.92188 C112.995,-5.38021 112.943,-5.70313 112.859,-5.89063 C112.724,-6.18229 112.529,-6.41146 112.273,-6.57813 C112.018,-6.74479 111.75,-6.82813 111.469,-6.82813 C111.031,-6.82813 110.643,-6.65885 110.305,-6.32031 C109.966,-5.98177 109.766,-5.51563 109.703,-4.92188 M117.328,-11.1094 C117.547,-11.1094 117.732,-11.0339 117.883,-10.8828 C118.034,-10.7318 118.109,-10.5469 118.109,-10.3281 C118.109,-10.1094 118.034,-9.92188 117.883,-9.76563 C117.732,-9.60938 117.547,-9.53125 117.328,-9.53125 C117.109,-9.53125 116.922,-9.60938 116.766,-9.76563 C116.609,-9.92188 116.531,-10.1094 116.531,-10.3281 C116.531,-10.5469 116.607,-10.7318 116.758,-10.8828 C116.909,-11.0339 117.099,-11.1094 117.328,-11.1094 M117.969,-7.375 L117.969,-1.625 C117.969,-1.17708 118.003,-0.877604 118.07,-0.726563 C118.138,-0.575521 118.234,-0.463542 118.359,-0.390625 C118.484,-0.317708 118.719,-0.28125 119.063,-0.28125 L119.063,0 L115.578,0 L115.578,-0.28125 C115.932,-0.28125 116.169,-0.315104 116.289,-0.382813 C116.409,-0.450521 116.503,-0.5625 116.57,-0.71875 C116.638,-0.875 116.672,-1.17708 116.672,-1.625 L116.672,-4.375 C116.672,-5.15625 116.651,-5.66146 116.609,-5.89063 C116.568,-6.05729 116.508,-6.17188 116.43,-6.23438 C116.352,-6.29688 116.245,-6.32813 116.109,-6.32813 C115.964,-6.32813 115.786,-6.29167 115.578,-6.21875 L115.469,-6.5 L117.625,-7.375 L117.969,-7.375 M121.578,-9.51563 L121.578,-7.15625 L123.25,-7.15625 L123.25,-6.60938 L121.578,-6.60938 L121.578,-1.96875 C121.578,-1.51042 121.646,-1.20052 121.781,-1.03906 C121.917,-0.877604 122.089,-0.796875 122.297,-0.796875 C122.464,-0.796875 122.628,-0.848958 122.789,-0.953125 C122.951,-1.05729 123.078,-1.21354 123.172,-1.42188 L123.469,-1.42188 C123.292,-0.911458 123.036,-0.526042 122.703,-0.265625 C122.37,-0.00520833 122.026,0.125 121.672,0.125 C121.432,0.125 121.198,0.0572917 120.969,-0.078125 C120.74,-0.213542 120.57,-0.40625 120.461,-0.65625 C120.352,-0.90625 120.297,-1.28646 120.297,-1.79688 L120.297,-6.60938 L119.156,-6.60938 L119.156,-6.875 C119.448,-6.98958 119.742,-7.18229 120.039,-7.45313 C120.336,-7.72396 120.604,-8.04688 120.844,-8.42188 C120.958,-8.61979 121.125,-8.98438 121.344,-9.51563 L121.578,-9.51563"/>
</g>

<g fill="#212121" fill-opacity="1" stroke="#212121" stroke-opacity="1" stroke-width="1.06667" stroke-linecap="square" stroke-linejoin="round" transform="matrix(0.75,0,0,0.75,-22.9875,-7.13996)"
font-family="MS Shell Dlg 2" font-size="8.25" font-weight="400" font-style="normal" 
>
<polyline fill="none" vector-effect="none" points="79,185 79,17 " />
<polyline fill="none" vector-effect="none" points="548,185 548,17 " />
<polyline fill="none" vector-effect="none" points="79,185 83.69,185 " />
<polyline fill="none" vector-effect="none" points="543.31,185 548,185 " />
<polyline fill="none" vector-effect="none" points="79,143 83.69,143 " />
<polyline fill="none" vector-effect="none" points="543.31,143 548,143 " />
<polyline fill="none" vector-effect="none" points="79,101 83.69,101 " />
<polyline fill="none" vector-effect="none" points="543.31,101 548,101 " />
<polyline fill="none" vector-effect="none" points="79,59 83.69,59 " />
<polyline fill="none" vector-effect="none" points="543.31,59 548,59 " />
<polyline fill="none" vector-effect="none" points="79,17 83.69,17 " />
<polyline fill="none" vector-effect="none" points="543.31,17 548,17 " />
</g>

<g fill="#212121" fill-opacity="1" stroke="none" transform="matrix(0.75,0,0,0.75,26.5625,134.25)"
font-family="MS Shell Dlg 2" font-size="8.25" font-weight="400" font-style="normal" 
>
<path vector-effect="none" fill-rule="evenodd" d="M3.5,0.3125 C2.35417,0.3125 1.57552,-0.158854 1.16406,-1.10156 C0.752604,-2.04427 0.546875,-3.16667 0.546875,-4.46875 C0.546875,-5.28125 0.619792,-6.04427 0.765625,-6.75781 C0.911458,-7.47135 1.20573,-8.07813 1.64844,-8.57813 C2.09115,-9.07813 2.70833,-9.32813 3.5,-9.32813 C4.11458,-9.32813 4.61719,-9.17708 5.00781,-8.875 C5.39844,-8.57292 5.69792,-8.1849 5.90625,-7.71094 C6.11458,-7.23698 6.25521,-6.72656 6.32813,-6.17969 C6.40104,-5.63281 6.4375,-5.0625 6.4375,-4.46875 C6.4375,-3.66667 6.36458,-2.91406 6.21875,-2.21094 C6.07292,-1.50781 5.78385,-0.911458 5.35156,-0.421875 C4.91927,0.0677083 4.30208,0.3125 3.5,0.3125 M3.5,-0.0625 C4.02083,-0.0625 4.40885,-0.328125 4.66406,-0.859375 C4.91927,-1.39063 5.07552,-1.97917 5.13281,-2.625 C5.1901,-3.27083 5.21875,-3.95833 5.21875,-4.6875 C5.21875,-5.39583 5.1901,-6.04427 5.13281,-6.63281 C5.07552,-7.22135 4.91927,-7.75781 4.66406,-8.24219 C4.40885,-8.72656 4.02083,-8.96875 3.5,-8.96875 C2.96875,-8.96875 2.57552,-8.72656 2.32031,-8.24219 C2.0651,-7.75781 1.90885,-7.22135 1.85156,-6.63281 C1.79427,-6.04427 1.76563,-5.39583 1.76563,-4.6875 C1.76563,-4.16667 1.77865,-3.67708 1.80469,-3.21875 C1.83073,-2.76042 1.89844,-2.28646 2.00781,-1.79688 C2.11719,-1.30729 2.29427,-0.895833 2.53906,-0.5625 C2.78385,-0.229167 3.10417,-0.0625 3.5,-0.0625 "/>
</g>

<g fill="#212121" fill-opacity="1" stroke="none" transform="matrix(0.75,0,0,0.75,18.0069,102.75)"
font-family="MS Shell Dlg 2" font-size="8.25" font-weight="400" font-style="normal" 
>
<path vector-effect="none" fill-rule="evenodd" d="M3.5,0.3125 C2.35417,0.3125 1.57552,-0.158854 1.16406,-1.10156 C0.752604,-2.04427 0.546875,-3.16667 0.546875,-4.46875 C0.546875,-5.28125 0.619792,-6.04427 0.765625,-6.75781 C0.911458,-7.47135 1.20573,-8.07813 1.64844,-8.57813 C2.09115,-9.07813 2.70833,-9.32813 3.5,-9.32813 C4.11458,-9.32813 4.61719,-9.17708 5.00781,-8.875 C5.39844,-8.57292 5.69792,-8.1849 5.90625,-7.71094 C6.11458,-7.23698 6.25521,-6.72656 6.32813,-6.17969 C6.40104,-5.63281 6.4375,-5.0625 6.4375,-4.46875 C6.4375,-3.66667 6.36458,-2.91406 6.21875,-2.21094 C6.07292,-1.50781 5.78385,-0.911458 5.35156,-0.421875 C4.91927,0.0677083 4.30208,0.3125 3.5,0.3125 M3.5,-0.0625 C4.02083,-0.0625 4.40885,-0.328125 4.66406,-0.859375 C4.91927,-1.39063 5.07552,-1.97917 5.13281,-2.625 C5.1901,-3.27083 5.21875,-3.95833 5.21875,-4.6875 C5.21875,-5.39583 5.1901,-6.04427 5.13281,-6.63281 C5.07552,-7.22135 4.91927,-7.75781 4.66406,-8.24219 C4.40885,-8.72656 4.02083,-8.96875 3.5,-8.96875 C2.96875,-8.96875 2.57552,-8.72656 2.32031,-8.24219 C2.0651,-7.75781 1.90885,-7.22135 1.85156,-6.63281 C1.79427,-6.04427 1.76563,-5.39583 1.76563,-4.6875 C1.76563,-4.16667 1.77865,-3.67708 1.80469,-3.21875 C1.83073,-2.76042 1.89844,-2.28646 2.00781,-1.79688 C2.11719,-1.30729 2.29427,-0.895833 2.53906,-0.5625 C2.78385,-0.229167 3.10417,-0.0625 3.5,-0.0625 "/>
</g>

<g fill="#212121" fill-opacity="1" stroke="none" transform="matrix(0.75,0,0,0.75,23.5069,102.75)"
font-family="MS Shell Dlg 2" font-size="8.25" font-weight="400" font-style="normal" 
>
<path vector-effect="none" fill-rule="evenodd" d="M1.17188,-0.765625 C1.17188,-0.984375 1.25,-1.16667 1.40625,-1.3125 C1.5625,-1.45833 1.74479,-1.53125 1.95313,-1.53125 C2.07813,-1.53125 2.20313,-1.4974 2.32813,-1.42969 C2.45313,-1.36198 2.54948,-1.26823 2.61719,-1.14844 C2.6849,-1.02865 2.71875,-0.901042 2.71875,-0.765625 C2.71875,-0.567708 2.64323,-0.390625 2.49219,-0.234375 C2.34115,-0.078125 2.16146,0 1.95313,0 C1.74479,0 1.5625,-0.078125 1.40625,-0.234375 C1.25,-0.390625 1.17188,-0.567708 1.17188,-0.765625 "/>
</g>

<g fill="#212121" fill-opacity="1" stroke="none" transform="matrix(0.75,0,0,0.75,26.5625,102.75)"
font-family="MS Shell Dlg 2" font-size="8.25" font-weight="400" font-style="normal" 
>
<path vector-effect="none" fill-rule="evenodd" d="M0.703125,0 L0.703125,-0.375 C0.703125,-0.395833 0.708333,-0.421875 0.71875,-0.453125 L2.90625,-2.85938 C3.22917,-3.21354 3.49219,-3.51042 3.69531,-3.75 C3.89844,-3.98958 4.10156,-4.26823 4.30469,-4.58594 C4.50781,-4.90365 4.66667,-5.22396 4.78125,-5.54688 C4.89583,-5.86979 4.95313,-6.21354 4.95313,-6.57813 C4.95313,-6.96354 4.88281,-7.33073 4.74219,-7.67969 C4.60156,-8.02865 4.39063,-8.30729 4.10938,-8.51563 C3.82813,-8.72396 3.48958,-8.82813 3.09375,-8.82813 C2.6875,-8.82813 2.32292,-8.70573 2,-8.46094 C1.67708,-8.21615 1.44792,-7.90104 1.3125,-7.51563 C1.35417,-7.52604 1.40625,-7.53125 1.46875,-7.53125 C1.67708,-7.53125 1.85677,-7.46094 2.00781,-7.32031 C2.15885,-7.17969 2.23438,-7 2.23438,-6.78125 C2.23438,-6.5625 2.15885,-6.38021 2.00781,-6.23438 C1.85677,-6.08854 1.67708,-6.01563 1.46875,-6.01563 C1.25,-6.01563 1.06771,-6.09115 0.921875,-6.24219 C0.776042,-6.39323 0.703125,-6.57292 0.703125,-6.78125 C0.703125,-7.125 0.768229,-7.45052 0.898438,-7.75781 C1.02865,-8.0651 1.21875,-8.33854 1.46875,-8.57813 C1.71875,-8.81771 2,-9.0026 2.3125,-9.13281 C2.625,-9.26302 2.95313,-9.32813 3.29688,-9.32813 C3.83854,-9.32813 4.33854,-9.21354 4.79688,-8.98438 C5.25521,-8.75521 5.61979,-8.4349 5.89063,-8.02344 C6.16146,-7.61198 6.29688,-7.13021 6.29688,-6.57813 C6.29688,-6.17188 6.20573,-5.78646 6.02344,-5.42188 C5.84115,-5.05729 5.61198,-4.72656 5.33594,-4.42969 C5.0599,-4.13281 4.70573,-3.79427 4.27344,-3.41406 C3.84115,-3.03385 3.55729,-2.78125 3.42188,-2.65625 L1.82813,-1.14063 L3.17188,-1.14063 C3.83854,-1.14063 4.39323,-1.14583 4.83594,-1.15625 C5.27865,-1.16667 5.51563,-1.18229 5.54688,-1.20313 C5.65104,-1.31771 5.76042,-1.75 5.875,-2.5 L6.29688,-2.5 L5.89063,0 L0.703125,0"/>
</g>

<g fill="#212121" fill-opacity="1" stroke="none" transform="matrix(0.75,0,0,0.75,18.0069,71.25)"
font-family="MS Shell Dlg 2" font-size="8.25" font-weight="400" font-style="normal" 
>
<path vector-effect="none" fill-rule="evenodd" d="M3.5,0.3125 C2.35417,0.3125 1.57552,-0.158854 1.16406,-1.10156 C0.752604,-2.04427 0.546875,-3.16667 0.546875,-4.46875 C0.546875,-5.28125 0.619792,-6.04427 0.765625,-6.75781 C0.911458,-7.47135 1.20573,-8.07813 1.64844,-8.57813 C2.09115,-9.07813 2.70833,-9.32813 3.5,-9.32813 C4.11458,-9.32813 4.61719,-9.17708 5.00781,-8.875 C5.39844,-8.57292 5.69792,-8.1849 5.90625,-7.71094 C6.11458,-7.23698 6.25521,-6.72656 6.32813,-6.17969 C6.40104,-5.63281 6.4375,-5.0625 6.4375,-4.46875 C6.4375,-3.66667 6.36458,-2.91406 6.21875,-2.21094 C6.07292,-1.50781 5.78385,-0.911458 5.35156,-0.421875 C4.91927,0.0677083 4.30208,0.3125 3.5,0.3125 M3.5,-0.0625 C4.02083,-0.0625 4.40885,-0.328125 4.66406,-0.859375 C4.91927,-1.39063 5.07552,-1.97917 5.13281,-2.625 C5.1901,-3.27083 5.21875,-3.95833 5.21875,-4.6875 C5.21875,-5.39583 5.1901,-6.04427 5.13281,-6.63281 C5.07552,-7.22135 4.91927,-7.75781 4.66406,-8.24219 C4.40885,-8.72656 4.02083,-8.96875 3.5,-8.96875 C2.96875,-8.96875 2.57552,-8.72656 2.32031,-8.24219 C2.0651,-7.75781 1.90885,-7.22135 1.85156,-6.63281 C1.79427,-6.04427 1.76563,-5.39583 1.76563,-4.6875 C1.76563,-4.16667 1.77865,-3.67708 1.80469,-3.21875 C1.83073,-2.76042 1.89844,-2.28646 2.00781,-1.79688 C2.11719,-1.30729 2.29427,-0.895833 2.53906,-0.5625 C2.78385,-0.229167 3.10417,-0.0625 3.5,-0.0625 "/>
</g>

<g fill="#212121" fill-opacity="1" stroke="none" transform="matrix(0.75,0,0,0.75,23.5069,71.25)"
font-family="MS Shell Dlg 2" font-size="8.25" font-weight="400" font-style="normal" 
>
<path vector-effect="none" fill-rule="evenodd" d="M1.17188,-0.765625 C1.17188,-0.984375 1.25,-1.16667 1.40625,-1.3125 C1.5625,-1.45833 1.74479,-1.53125 1.95313,-1.53125 C2.07813,-1.53125 2.20313,-1.4974 2.32813,-1.42969 C2.45313,-1.36198 2.54948,-1.26823 2.61719,-1.14844 C2.6849,-1.02865 2.71875,-0.901042 2.71875,-0.765625 C2.71875,-0.567708 2.64323,-0.390625 2.49219,-0.234375 C2.34115,-0.078125 2.16146,0 1.95313,0 C1.74479,0 1.5625,-0.078125 1.40625,-0.234375 C1.25,-0.390625 1.17188,-0.567708 1.17188,-0.765625 "/>
</g>

<g fill="#212121" fill-opacity="1" stroke="none" transform="matrix(0.75,0,0,0.75,26.5625,71.25)"
font-family="MS Shell Dlg 2" font-size="8.25" font-weight="400" font-style="normal" 
>
<path vector-effect="none" fill-rule="evenodd" d="M0.390625,-2.3125 L0.390625,-2.79688 L4.71875,-9.25 C4.75,-9.30208 4.79688,-9.32813 4.85938,-9.32813 L5.0625,-9.32813 C5.16667,-9.32813 5.21875,-9.27604 5.21875,-9.17188 L5.21875,-2.79688 L6.59375,-2.79688 L6.59375,-2.3125 L5.21875,-2.3125 L5.21875,-0.9375 C5.21875,-0.75 5.35677,-0.630208 5.63281,-0.578125 C5.90885,-0.526042 6.22396,-0.5 6.57813,-0.5 L6.57813,0 L2.73438,0 L2.73438,-0.5 C3.08854,-0.5 3.40365,-0.526042 3.67969,-0.578125 C3.95573,-0.630208 4.09375,-0.75 4.09375,-0.9375 L4.09375,-2.3125 L0.390625,-2.3125 M0.859375,-2.79688 L4.17188,-2.79688 L4.17188,-7.76563 L0.859375,-2.79688"/>
</g>

<g fill="#212121" fill-opacity="1" stroke="none" transform="matrix(0.75,0,0,0.75,18.0069,39.75)"
font-family="MS Shell Dlg 2" font-size="8.25" font-weight="400" font-style="normal" 
>
<path vector-effect="none" fill-rule="evenodd" d="M3.5,0.3125 C2.35417,0.3125 1.57552,-0.158854 1.16406,-1.10156 C0.752604,-2.04427 0.546875,-3.16667 0.546875,-4.46875 C0.546875,-5.28125 0.619792,-6.04427 0.765625,-6.75781 C0.911458,-7.47135 1.20573,-8.07813 1.64844,-8.57813 C2.09115,-9.07813 2.70833,-9.32813 3.5,-9.32813 C4.11458,-9.32813 4.61719,-9.17708 5.00781,-8.875 C5.39844,-8.57292 5.69792,-8.1849 5.90625,-7.71094 C6.11458,-7.23698 6.25521,-6.72656 6.32813,-6.17969 C6.40104,-5.63281 6.4375,-5.0625 6.4375,-4.46875 C6.4375,-3.66667 6.36458,-2.91406 6.21875,-2.21094 C6.07292,-1.50781 5.78385,-0.911458 5.35156,-0.421875 C4.91927,0.0677083 4.30208,0.3125 3.5,0.3125 M3.5,-0.0625 C4.02083,-0.0625 4.40885,-0.328125 4.66406,-0.859375 C4.91927,-1.39063 5.07552,-1.97917 5.13281,-2.625 C5.1901,-3.27083 5.21875,-3.95833 5.21875,-4.6875 C5.21875,-5.39583 5.1901,-6.04427 5.13281,-6.63281 C5.07552,-7.22135 4.91927,-7.75781 4.66406,-8.24219 C4.40885,-8.72656 4.02083,-8.96875 3.5,-8.96875 C2.96875,-8.96875 2.57552,-8.72656 2.32031,-8.24219 C2.0651,-7.75781 1.90885,-7.22135 1.85156,-6.63281 C1.79427,-6.04427 1.76563,-5.39583 1.76563,-4.6875 C1.76563,-4.16667 1.77865,-3.67708 1.80469,-3.21875 C1.83073,-2.76042 1.89844,-2.28646 2.00781,-1.79688 C2.11719,-1.30729 2.29427,-0.895833 2.53906,-0.5625 C2.78385,-0.229167 3.10417,-0.0625 3.5,-0.0625 "/>
</g>

<g fill="#212121" fill-opacity="1" stroke="none" transform="matrix(0.75,0,0,0.75,23.5069,39.75)"
font-family="MS Shell Dlg 2" font-size="8.25" font-weight="400" font-style="normal" 
>
<path vector-effect="none" fill-rule="evenodd" d="M1.17188,-0.765625 C1.17188,-0.984375 1.25,-1.16667 1.40625,-1.3125 C1.5625,-1.45833 1.74479,-1.53125 1.95313,-1.53125 C2.07813,-1.53125 2.20313,-1.4974 2.32813,-1.42969 C2.45313,-1.36198 2.54948,-1.26823 2.61719,-1.14844 C2.6849,-1.02865 2.71875,-0.901042 2.71875,-0.765625 C2.71875,-0.567708 2.64323,-0.390625 2.49219,-0.234375 C2.34115,-0.078125 2.16146,0 1.95313,0 C1.74479,0 1.5625,-0.078125 1.40625,-0.234375 C1.25,-0.390625 1.17188,-0.567708 1.17188,-0.765625 "/>
</g>

<g fill="#212121" fill-opacity="1" stroke="none" transform="matrix(0.75,0,0,0.75,26.5625,39.75)"
font-family="MS Shell Dlg 2" font-size="8.25" font-weight="400" font-style="normal" 
>
<path vector-effect="none" fill-rule="evenodd" d="M3.5,0.3125 C2.91667,0.3125 2.43229,0.158854 2.04688,-0.148438 C1.66146,-0.455729 1.36198,-0.854167 1.14844,-1.34375 C0.934896,-1.83333 0.789063,-2.34896 0.710938,-2.89063 C0.632813,-3.43229 0.59375,-3.97917 0.59375,-4.53125 C0.59375,-5.27083 0.736979,-6.01042 1.02344,-6.75 C1.3099,-7.48958 1.73177,-8.10417 2.28906,-8.59375 C2.84635,-9.08333 3.50521,-9.32813 4.26563,-9.32813 C4.58854,-9.32813 4.88802,-9.26823 5.16406,-9.14844 C5.4401,-9.02865 5.65625,-8.85156 5.8125,-8.61719 C5.96875,-8.38281 6.04688,-8.09896 6.04688,-7.76563 C6.04688,-7.56771 5.98177,-7.40365 5.85156,-7.27344 C5.72135,-7.14323 5.5625,-7.07813 5.375,-7.07813 C5.1875,-7.07813 5.02865,-7.14583 4.89844,-7.28125 C4.76823,-7.41667 4.70313,-7.57813 4.70313,-7.76563 C4.70313,-7.94271 4.76823,-8.09635 4.89844,-8.22656 C5.02865,-8.35677 5.1875,-8.42188 5.375,-8.42188 L5.45313,-8.42188 C5.32813,-8.59896 5.15885,-8.72656 4.94531,-8.80469 C4.73177,-8.88281 4.50521,-8.92188 4.26563,-8.92188 C3.98438,-8.92188 3.72396,-8.85938 3.48438,-8.73438 C3.24479,-8.60938 3.03125,-8.44271 2.84375,-8.23438 C2.65625,-8.02604 2.4974,-7.79427 2.36719,-7.53906 C2.23698,-7.28385 2.13802,-6.99479 2.07031,-6.67188 C2.0026,-6.34896 1.95833,-6.04688 1.9375,-5.76563 C1.91667,-5.48438 1.90625,-5.13021 1.90625,-4.70313 C2.07292,-5.08854 2.30729,-5.40365 2.60938,-5.64844 C2.91146,-5.89323 3.25,-6.01563 3.625,-6.01563 C4.04167,-6.01563 4.41927,-5.92969 4.75781,-5.75781 C5.09635,-5.58594 5.39063,-5.35156 5.64063,-5.05469 C5.89063,-4.75781 6.08073,-4.41667 6.21094,-4.03125 C6.34115,-3.64583 6.40625,-3.26042 6.40625,-2.875 C6.40625,-2.32292 6.28385,-1.79948 6.03906,-1.30469 C5.79427,-0.809896 5.45052,-0.416667 5.00781,-0.125 C4.5651,0.166667 4.0625,0.3125 3.5,0.3125 M3.5,-0.140625 C3.86458,-0.140625 4.15625,-0.223958 4.375,-0.390625 C4.59375,-0.557292 4.7526,-0.776042 4.85156,-1.04688 C4.95052,-1.31771 5.01302,-1.58854 5.03906,-1.85938 C5.0651,-2.13021 5.07813,-2.46875 5.07813,-2.875 C5.07813,-3.39583 5.05208,-3.84375 5,-4.21875 C4.94792,-4.59375 4.8125,-4.92448 4.59375,-5.21094 C4.375,-5.4974 4.03125,-5.64063 3.5625,-5.64063 C3.1875,-5.64063 2.8776,-5.51302 2.63281,-5.25781 C2.38802,-5.0026 2.21094,-4.67969 2.10156,-4.28906 C1.99219,-3.89844 1.9375,-3.52604 1.9375,-3.17188 C1.9375,-3.04688 1.94271,-2.95313 1.95313,-2.89063 C1.95313,-2.86979 1.95052,-2.85677 1.94531,-2.85156 C1.9401,-2.84635 1.9375,-2.83333 1.9375,-2.8125 C1.9375,-2.41667 1.97917,-2.01302 2.0625,-1.60156 C2.14583,-1.1901 2.30208,-0.84375 2.53125,-0.5625 C2.76042,-0.28125 3.08333,-0.140625 3.5,-0.140625 "/>
</g>

<g fill="#212121" fill-opacity="1" stroke="none" transform="matrix(0.75,0,0,0.75,18.0069,8.25)"
font-family="MS Shell Dlg 2" font-size="8.25" font-weight="400" font-style="normal" 
>
<path vector-effect="none" fill-rule="evenodd" d="M3.5,0.3125 C2.35417,0.3125 1.57552,-0.158854 1.16406,-1.10156 C0.752604,-2.04427 0.546875,-3.16667 0.546875,-4.46875 C0.546875,-5.28125 0.619792,-6.04427 0.765625,-6.75781 C0.911458,-7.47135 1.20573,-8.07813 1.64844,-8.57813 C2.09115,-9.07813 2.70833,-9.32813 3.5,-9.32813 C4.11458,-9.32813 4.61719,-9.17708 5.00781,-8.875 C5.39844,-8.57292 5.69792,-8.1849 5.90625,-7.71094 C6.11458,-7.23698 6.25521,-6.72656 6.32813,-6.17969 C6.40104,-5.63281 6.4375,-5.0625 6.4375,-4.46875 C6.4375,-3.66667 6.36458,-2.91406 6.21875,-2.21094 C6.07292,-1.50781 5.78385,-0.911458 5.35156,-0.421875 C4.91927,0.0677083 4.30208,0.3125 3.5,0.3125 M3.5,-0.0625 C4.02083,-0.0625 4.40885,-0.328125 4.66406,-0.859375 C4.91927,-1.39063 5.07552,-1.97917 5.13281,-2.625 C5.1901,-3.27083 5.21875,-3.95833 5.21875,-4.6875 C5.21875,-5.39583 5.1901,-6.04427 5.13281,-6.63281 C5.07552,-7.22135 4.91927,-7.75781 4.66406,-8.24219 C4.40885,-8.72656 4.02083,-8.96875 3.5,-8.96875 C2.96875,-8.96875 2.57552,-8.72656 2.32031,-8.24219 C2.0651,-7.75781 1.90885,-7.22135 1.85156,-6.63281 C1.79427,-6.04427 1.76563,-5.39583 1.76563,-4.6875 C1.76563,-4.16667 1.77865,-3.67708 1.80469,-3.21875 C1.83073,-2.76042 1.89844,-2.28646 2.00781,-1.79688 C2.11719,-1.30729 2.29427,-0.895833 2.53906,-0.5625 C2.78385,-0.229167 3.10417,-0.0625 3.5,-0.0625 "/>
</g>

<g fill="#212121" fill-opacity="1" stroke="none" transform="matrix(0.75,0,0,0.75,23.5069,8.25)"
font-family="MS Shell Dlg 2" font-size="8.25" font-weight="400" font-style="normal" 
>
<path vector-effect="none" fill-rule="evenodd" d="M1.17188,-0.765625 C1.17188,-0.984375 1.25,-1.16667 1.40625,-1.3125 C1.5625,-1.45833 1.74479,-1.53125 1.95313,-1.53125 C2.07813,-1.53125 2.20313,-1.4974 2.32813,-1.42969 C2.45313,-1.36198 2.54948,-1.26823 2.61719,-1.14844 C2.6849,-1.02865 2.71875,-0.901042 2.71875,-0.765625 C2.71875,-0.567708 2.64323,-0.390625 2.49219,-0.234375 C2.34115,-0.078125 2.16146,0 1.95313,0 C1.74479,0 1.5625,-0.078125 1.40625,-0.234375 C1.25,-0.390625 1.17188,-0.567708 1.17188,-0.765625 "/>
</g>

<g fill="#212121" fill-opacity="1" stroke="none" transform="matrix(0.75,0,0,0.75,26.5625,8.25)"
font-family="MS Shell Dlg 2" font-size="8.25" font-weight="400" font-style="normal" 
>
<path vector-effect="none" fill-rule="evenodd" d="M0.59375,-2.125 C0.59375,-2.6875 0.778646,-3.1849 1.14844,-3.61719 C1.51823,-4.04948 1.98958,-4.40625 2.5625,-4.6875 L2.04688,-5.03125 C1.72396,-5.23958 1.46354,-5.51823 1.26563,-5.86719 C1.06771,-6.21615 0.96875,-6.57813 0.96875,-6.95313 C0.96875,-7.40104 1.08594,-7.80469 1.32031,-8.16406 C1.55469,-8.52344 1.86719,-8.80729 2.25781,-9.01563 C2.64844,-9.22396 3.0625,-9.32813 3.5,-9.32813 C3.91667,-9.32813 4.31771,-9.24219 4.70313,-9.07031 C5.08854,-8.89844 5.40365,-8.65625 5.64844,-8.34375 C5.89323,-8.03125 6.01563,-7.66146 6.01563,-7.23438 C6.01563,-6.91146 5.94271,-6.61719 5.79688,-6.35156 C5.65104,-6.08594 5.45052,-5.84635 5.19531,-5.63281 C4.9401,-5.41927 4.66667,-5.23438 4.375,-5.07813 L5.17188,-4.5625 C5.53646,-4.32292 5.83333,-4.00781 6.0625,-3.61719 C6.29167,-3.22656 6.40625,-2.8125 6.40625,-2.375 C6.40625,-1.875 6.26823,-1.41667 5.99219,-1 C5.71615,-0.583333 5.35677,-0.260417 4.91406,-0.03125 C4.47135,0.197917 4,0.3125 3.5,0.3125 C3.02083,0.3125 2.55469,0.213542 2.10156,0.015625 C1.64844,-0.182292 1.28385,-0.466146 1.00781,-0.835938 C0.731771,-1.20573 0.59375,-1.63542 0.59375,-2.125 M1.34375,-2.125 C1.34375,-1.76042 1.44531,-1.42448 1.64844,-1.11719 C1.85156,-0.809896 2.11979,-0.570313 2.45313,-0.398438 C2.78646,-0.226563 3.13542,-0.140625 3.5,-0.140625 C4.04167,-0.140625 4.53385,-0.299479 4.97656,-0.617188 C5.41927,-0.934896 5.64063,-1.35417 5.64063,-1.875 C5.64063,-2.05208 5.60417,-2.22917 5.53125,-2.40625 C5.45833,-2.58333 5.35938,-2.74219 5.23438,-2.88281 C5.10938,-3.02344 4.96875,-3.14063 4.8125,-3.23438 L2.9375,-4.45313 C2.64583,-4.29688 2.3776,-4.10156 2.13281,-3.86719 C1.88802,-3.63281 1.69531,-3.36719 1.55469,-3.07031 C1.41406,-2.77344 1.34375,-2.45833 1.34375,-2.125 M2.3125,-6.40625 L4,-5.3125 C4.39583,-5.54167 4.71875,-5.81771 4.96875,-6.14063 C5.21875,-6.46354 5.34375,-6.82813 5.34375,-7.23438 C5.34375,-7.54688 5.25521,-7.83333 5.07813,-8.09375 C4.90104,-8.35417 4.67188,-8.55729 4.39063,-8.70313 C4.10938,-8.84896 3.80729,-8.92188 3.48438,-8.92188 C3.20313,-8.92188 2.91927,-8.86719 2.63281,-8.75781 C2.34635,-8.64844 2.10938,-8.48438 1.92188,-8.26563 C1.73438,-8.04688 1.64063,-7.79167 1.64063,-7.5 C1.64063,-7.0625 1.86458,-6.69792 2.3125,-6.40625 "/>
</g>

<g fill="none" stroke="#000000" stroke-opacity="1" stroke-width="2" stroke-linecap="butt" stroke-linejoin="miter" stroke-miterlimit="2" transform="matrix(0.75,0,0,0.75,-22.9875,-7.13996)"
font-family="MS Shell Dlg 2" font-size="8.25" font-weight="400" font-style="normal" 
>
<polyline fill="none" vector-effect="none" points="79,48.794 91.0256,48.794 91.0256,170.888 103.051,170.888 103.051,177.671 115.077,177.671 115.077,179.624 127.103,179.624 127.103,180.884 139.128,180.884 139.128,181.577 151.154,181.577 151.154,181.976 163.179,181.976 163.179,182.606 175.205,182.606 175.205,183.215 187.231,183.215 187.231,182.69 199.256,182.69 199.256,183.236 211.282,183.236 211.282,183.215 223.308,183.215 223.308,183.635 235.333,183.635 235.333,183.698 247.359,183.698 247.359,183.572 259.385,183.572 259.385,183.635 271.41,183.635 271.41,183.698 283.436,183.698 283.436,183.887 295.462,183.887 295.462,183.677 307.487,183.677 307.487,183.803 319.513,183.803 319.513,184.013 331.538,184.013 331.538,184.013 343.564,184.013 343.564,184.055 355.59,184.055 355.59,183.971 367.615,183.971 367.615,184.118 379.641,184.118 379.641,184.034 391.667,184.034 391.667,184.139 403.692,184.139 403.692,184.097 415.718,184.097 415.718,184.328 427.744,184.328 427.744,184.118 439.769,184.118 439.769,184.244 451.795,184.244 451.795,184.265 463.821,184.265 463.821,184.097 475.846,184.097 475.846,184.286 487.872,184.286 487.872,184.202 499.897,184.202 499.897,184.349 511.923,184.349 511.923,184.244 523.949,184.244 523.949,184.244 535.974,184.244 535.974,184.202 548,184.202 548,184.202 " />
</g>

<g fill="none" stroke="#808080" stroke-opacity="1" stroke-dasharray="8,8" stroke-dashoffset="0" stroke-width="2" stroke-linecap="butt" stroke-linejoin="miter" stroke-miterlimit="2" transform="matrix(0.75,0,0,0.75,-22.9875,-7.13996)"
font-family="MS Shell Dlg 2" font-size="8.25" font-weight="400" font-style="normal" 
>
<polyline fill="none" vector-effect="none" points="79,72.944 91.0256,72.944 91.0256,167.843 103.051,167.843 103.051,174.731 115.077,174.731 115.077,178.028 127.103,178.028 127.103,179.33 139.128,179.33 139.128,180.674 151.154,180.674 151.154,181.094 163.179,181.094 163.179,181.598 175.205,181.598 175.205,182.291 187.231,182.291 187.231,181.997 199.256,181.997 199.256,182.312 211.282,182.312 211.282,182.774 223.308,182.774 223.308,183.11 235.333,183.11 235.333,183.026 247.359,183.026 247.359,183.131 259.385,183.131 259.385,183.404 271.41,183.404 271.41,183.593 283.436,183.593 283.436,183.173 295.462,183.173 295.462,183.74 307.487,183.74 307.487,183.782 319.513,183.782 319.513,183.362 331.538,183.362 331.538,183.656 343.564,183.656 343.564,183.992 355.59,183.992 355.59,183.551 367.615,183.551 367.615,183.887 379.641,183.887 379.641,183.908 391.667,183.908 391.667,183.908 403.692,183.908 403.692,183.887 415.718,183.887 415.718,183.908 427.744,183.908 427.744,183.74 439.769,183.74 439.769,183.887 451.795,183.887 451.795,183.929 463.821,183.929 463.821,183.656 475.846,183.656 475.846,184.181 487.872,184.181 487.872,183.74 499.897,183.74 499.897,183.824 511.923,183.824 511.923,183.95 523.949,183.95 523.949,183.698 535.974,183.698 535.974,183.761 548,183.761 548,183.761 " />
</g>

<g fill="#000000" fill-opacity="0.701961" stroke="#000000" stroke-opacity="0.701961" stroke-width="2" stroke-linecap="butt" stroke-linejoin="round" transform="matrix(0.75,0,0,0.75,-22.9875,-7.13996)"
font-family="MS Shell Dlg 2" font-size="8.25" font-weight="400" font-style="normal" 
>
<polyline fill="none" vector-effect="none" points="102.45,185 102.45,17 " />
</g>

<g fill="#ffffff" fill-opacity="1" stroke="none" transform="matrix(7.5e-05,0,0,7.5e-05,-22.9875,-7.13996)"
font-family="MS Shell Dlg 2" font-size="8.25" font-weight="400" font-style="normal" 
>
<path vector-effect="none" fill-rule="evenodd" d="M2.83e+06,260000 L2.83e+06,810000 L5.37e+06,810000 L5.37e+06,260000 L2.83e+06,260000"/>
</g>

<g fill="#000000" fill-opacity="1" stroke="#000000" stroke-opacity="1" stroke-width="2" stroke-linecap="butt" stroke-linejoin="round" transform="matrix(0.75,0,0,0.75,-22.9875,-7.13996)"
font-family="MS Shell Dlg 2" font-size="8.25" font-weight="400" font-style="normal" 
>
<polyline fill="none" vector-effect="none" points="287,36 327,36 " />
</g>

<g fill="#808080" fill-opacity="1" stroke="#808080" stroke-opacity="1" stroke-dasharray="8,8" stroke-dashoffset="0" stroke-width="2" stroke-linecap="butt" stroke-linejoin="round" transform="matrix(0.75,0,0,0.75,-22.9875,-7.13996)"
font-family="MS Shell Dlg 2" font-size="8.25" font-weight="400" font-style="normal" 
>
<polyline fill="none" vector-effect="none" points="287,53.5 327,53.5 " />
</g>

<g fill="#000000" fill-opacity="0.701961" stroke="#000000" stroke-opacity="0.701961" stroke-width="2" stroke-linecap="butt" stroke-linejoin="round" transform="matrix(0.75,0,0,0.75,-22.9875,-7.13996)"
font-family="MS Shell Dlg 2" font-size="8.25" font-weight="400" font-style="normal" 
>
<polyline fill="none" vector-effect="none" points="287,71 327,71 " />
</g>

<g fill="#212121" fill-opacity="1" stroke="none" transform="matrix(0.75,0,0,0.75,224.512,35.625)"
font-family="MS Shell Dlg 2" font-size="8.25" font-weight="400" font-style="normal" 
>
<path vector-effect="none" fill-rule="evenodd" d="M0.4375,0 L0.4375,-0.5 C1.39583,-0.5 1.875,-0.645833 1.875,-0.9375 L1.875,-8.625 C1.875,-8.92708 1.39583,-9.07813 0.4375,-9.07813 L0.4375,-9.5625 L8.34375,-9.5625 L8.73438,-6.35938 L8.32813,-6.35938 C8.23438,-7.16146 8.09635,-7.74479 7.91406,-8.10938 C7.73177,-8.47396 7.44271,-8.72656 7.04688,-8.86719 C6.65104,-9.00781 6.05729,-9.07813 5.26563,-9.07813 L3.89063,-9.07813 C3.72396,-9.07813 3.59375,-9.07031 3.5,-9.05469 C3.40625,-9.03906 3.32813,-8.9974 3.26563,-8.92969 C3.20313,-8.86198 3.17188,-8.76042 3.17188,-8.625 L3.17188,-5.20313 L4.21875,-5.20313 C4.6875,-5.20313 5.03906,-5.24479 5.27344,-5.32813 C5.50781,-5.41146 5.66927,-5.5651 5.75781,-5.78906 C5.84635,-6.01302 5.89063,-6.36458 5.89063,-6.84375 L6.29688,-6.84375 L6.29688,-3.07813 L5.89063,-3.07813 C5.89063,-3.55729 5.84635,-3.91146 5.75781,-4.14063 C5.66927,-4.36979 5.50781,-4.52344 5.27344,-4.60156 C5.03906,-4.67969 4.6875,-4.71875 4.21875,-4.71875 L3.17188,-4.71875 L3.17188,-0.9375 C3.17188,-0.739583 3.22917,-0.617188 3.34375,-0.570313 C3.45833,-0.523438 3.64063,-0.5 3.89063,-0.5 L5.375,-0.5 C6.02083,-0.5 6.54427,-0.549479 6.94531,-0.648438 C7.34635,-0.747396 7.65625,-0.916667 7.875,-1.15625 C8.09375,-1.39583 8.26302,-1.70573 8.38281,-2.08594 C8.5026,-2.46615 8.61458,-2.99479 8.71875,-3.67188 L9.125,-3.67188 L8.53125,0 L0.4375,0"/>
</g>

<g fill="#212121" fill-opacity="1" stroke="none" transform="matrix(0.75,0,0,0.75,231.999,35.625)"
font-family="MS Shell Dlg 2" font-size="8.25" font-weight="400" font-style="normal" 
>
<path vector-effect="none" fill-rule="evenodd" d="M0.421875,0 L0.421875,-0.5 C0.734375,-0.5 0.994792,-0.523438 1.20313,-0.570313 C1.41146,-0.617188 1.51563,-0.739583 1.51563,-0.9375 L1.51563,-4.76563 C1.51563,-5.01563 1.47656,-5.19531 1.39844,-5.30469 C1.32031,-5.41406 1.21094,-5.48177 1.07031,-5.50781 C0.929688,-5.53385 0.713542,-5.54688 0.421875,-5.54688 L0.421875,-6.03125 L2.45313,-6.1875 L2.45313,-4.8125 C2.64063,-5.21875 2.91667,-5.54948 3.28125,-5.80469 C3.64583,-6.0599 4.04688,-6.1875 4.48438,-6.1875 C5.55729,-6.1875 6.1875,-5.75 6.375,-4.875 C6.5625,-5.27083 6.83594,-5.58854 7.19531,-5.82813 C7.55469,-6.06771 7.94792,-6.1875 8.375,-6.1875 C8.80208,-6.1875 9.15885,-6.11979 9.44531,-5.98438 C9.73177,-5.84896 9.94792,-5.64063 10.0938,-5.35938 C10.2396,-5.07813 10.3125,-4.72396 10.3125,-4.29688 L10.3125,-0.9375 C10.3125,-0.739583 10.4167,-0.617188 10.625,-0.570313 C10.8333,-0.523438 11.0938,-0.5 11.4063,-0.5 L11.4063,0 L8.20313,0 L8.20313,-0.5 C8.52604,-0.5 8.78906,-0.523438 8.99219,-0.570313 C9.19531,-0.617188 9.29688,-0.739583 9.29688,-0.9375 L9.29688,-4.26563 C9.29688,-4.73438 9.23177,-5.11198 9.10156,-5.39844 C8.97135,-5.6849 8.69792,-5.82813 8.28125,-5.82813 C7.75,-5.82813 7.30729,-5.61198 6.95313,-5.17969 C6.59896,-4.7474 6.42188,-4.25521 6.42188,-3.70313 L6.42188,-0.9375 C6.42188,-0.739583 6.52604,-0.617188 6.73438,-0.570313 C6.94271,-0.523438 7.20313,-0.5 7.51563,-0.5 L7.51563,0 L4.3125,0 L4.3125,-0.5 C4.63542,-0.5 4.89844,-0.523438 5.10156,-0.570313 C5.30469,-0.617188 5.40625,-0.739583 5.40625,-0.9375 L5.40625,-4.26563 C5.40625,-4.71354 5.34115,-5.08594 5.21094,-5.38281 C5.08073,-5.67969 4.80729,-5.82813 4.39063,-5.82813 C3.84896,-5.82813 3.40365,-5.61198 3.05469,-5.17969 C2.70573,-4.7474 2.53125,-4.25521 2.53125,-3.70313 L2.53125,-0.9375 C2.53125,-0.739583 2.63542,-0.617188 2.84375,-0.570313 C3.05208,-0.523438 3.3125,-0.5 3.625,-0.5 L3.625,0 L0.421875,0"/>
</g>

<g fill="#212121" fill-opacity="1" stroke="none" transform="matrix(0.75,0,0,0.75,241.165,35.625)"
font-family="MS Shell Dlg 2" font-size="8.25" font-weight="400" font-style="normal" 
>
<path vector-effect="none" fill-rule="evenodd" d="M0.453125,0 L0.453125,-0.5 C1.28646,-0.5 1.79688,-0.770833 1.98438,-1.3125 L4.92188,-9.875 C4.95313,-9.96875 5.03125,-10.0156 5.15625,-10.0156 L5.32813,-10.0156 C5.45313,-10.0156 5.53125,-9.96875 5.5625,-9.875 L8.625,-0.9375 C8.70833,-0.739583 8.8724,-0.617188 9.11719,-0.570313 C9.36198,-0.523438 9.66667,-0.5 10.0313,-0.5 L10.0313,0 L6.125,0 L6.125,-0.5 C6.90625,-0.5 7.29688,-0.625 7.29688,-0.875 L7.29688,-0.9375 L6.53125,-3.125 L3.14063,-3.125 L2.51563,-1.3125 C2.50521,-1.28125 2.5,-1.23438 2.5,-1.17188 C2.5,-0.942708 2.60938,-0.773438 2.82813,-0.664063 C3.04688,-0.554688 3.28646,-0.5 3.54688,-0.5 L3.54688,0 L0.453125,0 M3.29688,-3.60938 L6.375,-3.60938 L4.82813,-8.07813 L3.29688,-3.60938"/>
</g>

<g fill="#212121" fill-opacity="1" stroke="none" transform="matrix(0.75,0,0,0.75,249.415,35.625)"
font-family="MS Shell Dlg 2" font-size="8.25" font-weight="400" font-style="normal" 
>
<path vector-effect="none" fill-rule="evenodd" d="M0.4375,0 L0.4375,-0.5 C1.39583,-0.5 1.875,-0.645833 1.875,-0.9375 L1.875,-8.625 C1.875,-8.92708 1.39583,-9.07813 0.4375,-9.07813 L0.4375,-9.5625 L4.96875,-9.5625 L4.96875,-9.07813 C3.77083,-9.07813 3.17188,-8.92708 3.17188,-8.625 L3.17188,-0.9375 C3.17188,-0.739583 3.22917,-0.617188 3.34375,-0.570313 C3.45833,-0.523438 3.64063,-0.5 3.89063,-0.5 L4.96875,-0.5 C5.66667,-0.5 6.20573,-0.627604 6.58594,-0.882813 C6.96615,-1.13802 7.23438,-1.48438 7.39063,-1.92188 C7.54688,-2.35938 7.66667,-2.94271 7.75,-3.67188 L8.15625,-3.67188 L7.76563,0 L0.4375,0"/>
</g>

<g fill="#212121" fill-opacity="1" stroke="none" transform="matrix(0.75,0,0,0.75,255.374,35.625)"
font-family="MS Shell Dlg 2" font-size="8.25" font-weight="400" font-style="normal" 
>
<path vector-effect="none" fill-rule="evenodd" d="M2.35938,0 L2.35938,-0.5 C2.82813,-0.5 3.28385,-0.526042 3.72656,-0.578125 C4.16927,-0.630208 4.39063,-0.75 4.39063,-0.9375 L4.39063,-8.625 C4.39063,-8.82292 4.33594,-8.94792 4.22656,-9 C4.11719,-9.05208 3.9375,-9.07813 3.6875,-9.07813 L3.09375,-9.07813 C2.32292,-9.07813 1.77604,-8.90625 1.45313,-8.5625 C1.28646,-8.39583 1.16667,-8.1276 1.09375,-7.75781 C1.02083,-7.38802 0.958333,-6.92188 0.90625,-6.35938 L0.5,-6.35938 L0.765625,-9.5625 L9.32813,-9.5625 L9.59375,-6.35938 L9.1875,-6.35938 C9.125,-6.96354 9.0625,-7.4401 9,-7.78906 C8.9375,-8.13802 8.81771,-8.39583 8.64063,-8.5625 C8.31771,-8.90625 7.77083,-9.07813 7,-9.07813 L6.40625,-9.07813 C6.23958,-9.07813 6.10938,-9.07031 6.01563,-9.05469 C5.92188,-9.03906 5.84635,-8.9974 5.78906,-8.92969 C5.73177,-8.86198 5.70313,-8.76042 5.70313,-8.625 L5.70313,-0.9375 C5.70313,-0.75 5.92448,-0.630208 6.36719,-0.578125 C6.8099,-0.526042 7.26042,-0.5 7.71875,-0.5 L7.71875,0 L2.35938,0"/>
</g>

<g fill="none" stroke="#212121" stroke-opacity="1" stroke-width="1.06667" stroke-linecap="butt" stroke-linejoin="miter" stroke-miterlimit="2" transform="matrix(0.75,0,0,0.75,-22.9875,-7.13996)"
font-family="MS Shell Dlg 2" font-size="8.25" font-weight="400" font-style="normal" 
>
<path vector-effect="none" fill-rule="evenodd" d="M283,81 L283,26 L537,26 L537,81 L283,81"/>
</g>
</g>
</svg>
