<?xml version="1.0" encoding="UTF-8" standalone="no"?>
<svg width="51.1528mm" height="61.3833mm"
 viewBox="0 0 145 174"
 xmlns="http://www.w3.org/2000/svg" xmlns:xlink="http://www.w3.org/1999/xlink"  version="1.2" baseProfile="tiny">
<title>Qt SVG Document</title>
<desc>MATLAB, The MathWorks, Inc. Version 25.2.0.3042426 R2025b Update 1</desc>
<defs>
</defs>
<g fill="none" stroke="black" stroke-width="1" fill-rule="evenodd" stroke-linecap="square" stroke-linejoin="bevel" >

<g fill="#ffffff" fill-opacity="1" stroke="none" transform="matrix(0.75,0,0,0.75,-9.79166,1.52254)"
font-family="MS Shell Dlg 2" font-size="8.25" font-weight="400" font-style="normal" 
>
<path vector-effect="none" fill-rule="evenodd" d="M12,-3 L206,-3 L206,229 L12,229 L12,-3"/>
</g>

<g fill="#ffffff" fill-opacity="1" stroke="none" transform="matrix(7.5e-05,0,0,7.5e-05,-9.79166,1.52254)"
font-family="MS Shell Dlg 2" font-size="8.25" font-weight="400" font-style="normal" 
>
<path vector-effect="none" fill-rule="evenodd" d="M315000,180000 L315000,1.9e+06 L2.035e+06,1.9e+06 L2.035e+06,180000 L315000,180000"/>
</g>

<g fill="#212121" fill-opacity="1" stroke="none" transform="matrix(0.75,0,0,0.75,72.99,169.958)"
font-family="MS Shell Dlg 2" font-size="8.25" font-weight="400" font-style="normal" 
>
<path vector-effect="none" fill-rule="evenodd" d="M1.09375,-0.40625 C1.26042,-0.28125 1.49479,-0.21875 1.79688,-0.21875 C2.08854,-0.21875 2.34635,-0.359375 2.57031,-0.640625 C2.79427,-0.921875 2.94271,-1.22917 3.01563,-1.5625 L3.65625,-4.03125 C3.76042,-4.48958 3.8125,-4.79688 3.8125,-4.95313 C3.8125,-5.19271 3.7474,-5.39844 3.61719,-5.57031 C3.48698,-5.74219 3.30208,-5.82813 3.0625,-5.82813 C2.77083,-5.82813 2.49479,-5.73438 2.23438,-5.54688 C1.97396,-5.35938 1.75521,-5.125 1.57813,-4.84375 C1.40104,-4.5625 1.27604,-4.27604 1.20313,-3.98438 C1.18229,-3.92188 1.14583,-3.89063 1.09375,-3.89063 L0.921875,-3.89063 C0.848958,-3.89063 0.8125,-3.93229 0.8125,-4.01563 L0.8125,-4.0625 C0.90625,-4.40625 1.0625,-4.74479 1.28125,-5.07813 C1.5,-5.41146 1.76823,-5.67969 2.08594,-5.88281 C2.40365,-6.08594 2.73958,-6.1875 3.09375,-6.1875 C3.4375,-6.1875 3.7474,-6.09635 4.02344,-5.91406 C4.29948,-5.73177 4.49479,-5.48438 4.60938,-5.17188 C4.76563,-5.45313 4.96875,-5.69271 5.21875,-5.89063 C5.46875,-6.08854 5.73958,-6.1875 6.03125,-6.1875 C6.23958,-6.1875 6.44792,-6.15104 6.65625,-6.07813 C6.86458,-6.00521 7.03385,-5.89583 7.16406,-5.75 C7.29427,-5.60417 7.35938,-5.42188 7.35938,-5.20313 C7.35938,-4.97396 7.28385,-4.77344 7.13281,-4.60156 C6.98177,-4.42969 6.78646,-4.34375 6.54688,-4.34375 C6.40104,-4.34375 6.27604,-4.39063 6.17188,-4.48438 C6.06771,-4.57813 6.01563,-4.69792 6.01563,-4.84375 C6.01563,-5.04167 6.08333,-5.21354 6.21875,-5.35938 C6.35417,-5.50521 6.51563,-5.59375 6.70313,-5.625 C6.53646,-5.76042 6.30729,-5.82813 6.01563,-5.82813 C5.71354,-5.82813 5.45052,-5.6875 5.22656,-5.40625 C5.0026,-5.125 4.84896,-4.81771 4.76563,-4.48438 L4.14063,-2 C4.04688,-1.63542 4,-1.32813 4,-1.07813 C4,-0.848958 4.0651,-0.648438 4.19531,-0.476563 C4.32552,-0.304688 4.50521,-0.21875 4.73438,-0.21875 C5.17188,-0.21875 5.5625,-0.411458 5.90625,-0.796875 C6.25,-1.18229 6.47396,-1.60417 6.57813,-2.0625 C6.59896,-2.11458 6.63542,-2.14063 6.6875,-2.14063 L6.85938,-2.14063 C6.90104,-2.14063 6.93229,-2.1276 6.95313,-2.10156 C6.97396,-2.07552 6.98438,-2.04688 6.98438,-2.01563 C6.98438,-2.00521 6.97917,-1.99479 6.96875,-1.98438 C6.84375,-1.42188 6.56771,-0.924479 6.14063,-0.492188 C5.71354,-0.0598958 5.23438,0.15625 4.70313,0.15625 C4.35938,0.15625 4.04948,0.0625 3.77344,-0.125 C3.4974,-0.3125 3.30208,-0.5625 3.1875,-0.875 C3.04167,-0.604167 2.84115,-0.364583 2.58594,-0.15625 C2.33073,0.0520833 2.05729,0.15625 1.76563,0.15625 C1.56771,0.15625 1.36198,0.119792 1.14844,0.046875 C0.934896,-0.0260417 0.763021,-0.135417 0.632813,-0.28125 C0.502604,-0.427083 0.4375,-0.609375 0.4375,-0.828125 C0.4375,-1.04688 0.513021,-1.2474 0.664063,-1.42969 C0.815104,-1.61198 1.00521,-1.70313 1.23438,-1.70313 C1.39063,-1.70313 1.52083,-1.65625 1.625,-1.5625 C1.72917,-1.46875 1.78125,-1.34375 1.78125,-1.1875 C1.78125,-1 1.71615,-0.833333 1.58594,-0.6875 C1.45573,-0.541667 1.29167,-0.447917 1.09375,-0.40625 "/>
</g>

<g fill="#212121" fill-opacity="1" stroke="none" transform="matrix(0.75,0,0,0.75,79.2768,171.608)"
font-family="MS Shell Dlg 2" font-size="8.25" font-weight="400" font-style="normal" 
>
<path vector-effect="none" fill-rule="evenodd" d="M0.921875,0 L0.921875,-0.359375 C1.75521,-0.359375 2.17188,-0.463542 2.17188,-0.671875 L2.17188,-5.92188 C1.82813,-5.75521 1.39583,-5.67188 0.875,-5.67188 L0.875,-6.01563 C1.6875,-6.01563 2.30208,-6.22917 2.71875,-6.65625 L2.85938,-6.65625 C2.88021,-6.65625 2.90104,-6.64844 2.92188,-6.63281 C2.94271,-6.61719 2.95313,-6.59896 2.95313,-6.57813 L2.95313,-0.671875 C2.95313,-0.463542 3.36979,-0.359375 4.20313,-0.359375 L4.20313,0 L0.921875,0"/>
</g>

<g fill="#212121" fill-opacity="1" stroke="#212121" stroke-opacity="1" stroke-width="1.06667" stroke-linecap="square" stroke-linejoin="round" transform="matrix(0.75,0,0,0.75,-9.79166,1.52254)"
font-family="MS Shell Dlg 2" font-size="8.25" font-weight="400" font-style="normal" 
>
<polyline fill="none" vector-effect="none" points="31.5,190 203.5,190 " />
<polyline fill="none" vector-effect="none" points="31.5,18 203.5,18 " />
<polyline fill="none" vector-effect="none" points="72.2368,190 72.2368,188.28 " />
<polyline fill="none" vector-effect="none" points="72.2368,19.72 72.2368,18 " />
<polyline fill="none" vector-effect="none" points="117.5,190 117.5,188.28 " />
<polyline fill="none" vector-effect="none" points="117.5,19.72 117.5,18 " />
<polyline fill="none" vector-effect="none" points="162.763,190 162.763,188.28 " />
<polyline fill="none" vector-effect="none" points="162.763,19.72 162.763,18 " />
</g>

<g fill="#212121" fill-opacity="1" stroke="none" transform="matrix(0.75,0,0,0.75,40.2193,156.423)"
font-family="MS Shell Dlg 2" font-size="8.25" font-weight="400" font-style="normal" 
>
<path vector-effect="none" fill-rule="evenodd" d="M0.140625,-2.40625 L0.140625,-3.21875 L3.59375,-3.21875 L3.59375,-2.40625 L0.140625,-2.40625"/>
</g>

<g fill="#212121" fill-opacity="1" stroke="none" transform="matrix(0.75,0,0,0.75,43.5526,156.423)"
font-family="MS Shell Dlg 2" font-size="8.25" font-weight="400" font-style="normal" 
>
<path vector-effect="none" fill-rule="evenodd" d="M1.20313,0 L1.20313,-0.453125 C2.28646,-0.453125 2.82813,-0.59375 2.82813,-0.875 L2.82813,-7.6875 C2.38021,-7.47917 1.8125,-7.375 1.125,-7.375 L1.125,-7.82813 C2.1875,-7.82813 2.98958,-8.10417 3.53125,-8.65625 L3.71875,-8.65625 C3.75,-8.65625 3.77865,-8.64583 3.80469,-8.625 C3.83073,-8.60417 3.84375,-8.57813 3.84375,-8.54688 L3.84375,-0.875 C3.84375,-0.59375 4.38542,-0.453125 5.46875,-0.453125 L5.46875,0 L1.20313,0"/>
</g>

<g fill="#212121" fill-opacity="1" stroke="none" transform="matrix(0.75,0,0,0.75,75.8333,156.423)"
font-family="MS Shell Dlg 2" font-size="8.25" font-weight="400" font-style="normal" 
>
<path vector-effect="none" fill-rule="evenodd" d="M3.25,0.28125 C2.1875,0.28125 1.46615,-0.15625 1.08594,-1.03125 C0.705729,-1.90625 0.515625,-2.94271 0.515625,-4.14063 C0.515625,-4.90104 0.583333,-5.61198 0.71875,-6.27344 C0.854167,-6.9349 1.125,-7.4974 1.53125,-7.96094 C1.9375,-8.42448 2.51042,-8.65625 3.25,-8.65625 C3.82292,-8.65625 4.29167,-8.51823 4.65625,-8.24219 C5.02083,-7.96615 5.29688,-7.60677 5.48438,-7.16406 C5.67188,-6.72135 5.80208,-6.2474 5.875,-5.74219 C5.94792,-5.23698 5.98438,-4.70313 5.98438,-4.14063 C5.98438,-3.40104 5.91406,-2.70573 5.77344,-2.05469 C5.63281,-1.40365 5.36198,-0.851563 4.96094,-0.398438 C4.5599,0.0546875 3.98958,0.28125 3.25,0.28125 M3.25,-0.046875 C3.72917,-0.046875 4.08854,-0.294271 4.32813,-0.789063 C4.56771,-1.28385 4.71354,-1.83333 4.76563,-2.4375 C4.81771,-3.04167 4.84375,-3.68229 4.84375,-4.35938 C4.84375,-5.00521 4.81771,-5.60417 4.76563,-6.15625 C4.71354,-6.70833 4.57031,-7.20833 4.33594,-7.65625 C4.10156,-8.10417 3.73958,-8.32813 3.25,-8.32813 C2.76042,-8.32813 2.39583,-8.10156 2.15625,-7.64844 C1.91667,-7.19531 1.77083,-6.69531 1.71875,-6.14844 C1.66667,-5.60156 1.64063,-5.00521 1.64063,-4.35938 C1.64063,-3.86979 1.65104,-3.41146 1.67188,-2.98438 C1.69271,-2.55729 1.75521,-2.11719 1.85938,-1.66406 C1.96354,-1.21094 2.1276,-0.828125 2.35156,-0.515625 C2.57552,-0.203125 2.875,-0.046875 3.25,-0.046875 "/>
</g>

<g fill="#212121" fill-opacity="1" stroke="none" transform="matrix(0.75,0,0,0.75,109.781,156.423)"
font-family="MS Shell Dlg 2" font-size="8.25" font-weight="400" font-style="normal" 
>
<path vector-effect="none" fill-rule="evenodd" d="M1.20313,0 L1.20313,-0.453125 C2.28646,-0.453125 2.82813,-0.59375 2.82813,-0.875 L2.82813,-7.6875 C2.38021,-7.47917 1.8125,-7.375 1.125,-7.375 L1.125,-7.82813 C2.1875,-7.82813 2.98958,-8.10417 3.53125,-8.65625 L3.71875,-8.65625 C3.75,-8.65625 3.77865,-8.64583 3.80469,-8.625 C3.83073,-8.60417 3.84375,-8.57813 3.84375,-8.54688 L3.84375,-0.875 C3.84375,-0.59375 4.38542,-0.453125 5.46875,-0.453125 L5.46875,0 L1.20313,0"/>
</g>

<g fill="#212121" fill-opacity="1" stroke="#212121" stroke-opacity="1" stroke-width="1.06667" stroke-linecap="square" stroke-linejoin="round" transform="matrix(0.75,0,0,0.75,-9.79166,1.52254)"
font-family="MS Shell Dlg 2" font-size="8.25" font-weight="400" font-style="normal" 
>
<polyline fill="none" vector-effect="none" points="31.5,190 31.5,18 " />
<polyline fill="none" vector-effect="none" points="203.5,190 203.5,18 " />
<polyline fill="none" vector-effect="none" points="31.5,149.263 33.22,149.263 " />
<polyline fill="none" vector-effect="none" points="201.78,149.263 203.5,149.263 " />
<polyline fill="none" vector-effect="none" points="31.5,104 33.22,104 " />
<polyline fill="none" vector-effect="none" points="201.78,104 203.5,104 " />
<polyline fill="none" vector-effect="none" points="31.5,58.7368 33.22,58.7368 " />
<polyline fill="none" vector-effect="none" points="201.78,58.7368 203.5,58.7368 " />
</g>

<g fill="#212121" fill-opacity="1" stroke="none" transform="matrix(0.75,0,0,0.75,1.5,115.87)"
font-family="MS Shell Dlg 2" font-size="8.25" font-weight="400" font-style="normal" 
>
<path vector-effect="none" fill-rule="evenodd" d="M0.140625,-2.40625 L0.140625,-3.21875 L3.59375,-3.21875 L3.59375,-2.40625 L0.140625,-2.40625"/>
</g>

<g fill="#212121" fill-opacity="1" stroke="none" transform="matrix(0.75,0,0,0.75,4.83333,115.87)"
font-family="MS Shell Dlg 2" font-size="8.25" font-weight="400" font-style="normal" 
>
<path vector-effect="none" fill-rule="evenodd" d="M1.20313,0 L1.20313,-0.453125 C2.28646,-0.453125 2.82813,-0.59375 2.82813,-0.875 L2.82813,-7.6875 C2.38021,-7.47917 1.8125,-7.375 1.125,-7.375 L1.125,-7.82813 C2.1875,-7.82813 2.98958,-8.10417 3.53125,-8.65625 L3.71875,-8.65625 C3.75,-8.65625 3.77865,-8.64583 3.80469,-8.625 C3.83073,-8.60417 3.84375,-8.57813 3.84375,-8.54688 L3.84375,-0.875 C3.84375,-0.59375 4.38542,-0.453125 5.46875,-0.453125 L5.46875,0 L1.20313,0"/>
</g>

<g fill="#212121" fill-opacity="1" stroke="none" transform="matrix(0.75,0,0,0.75,4.83333,81.9225)"
font-family="MS Shell Dlg 2" font-size="8.25" font-weight="400" font-style="normal" 
>
<path vector-effect="none" fill-rule="evenodd" d="M3.25,0.28125 C2.1875,0.28125 1.46615,-0.15625 1.08594,-1.03125 C0.705729,-1.90625 0.515625,-2.94271 0.515625,-4.14063 C0.515625,-4.90104 0.583333,-5.61198 0.71875,-6.27344 C0.854167,-6.9349 1.125,-7.4974 1.53125,-7.96094 C1.9375,-8.42448 2.51042,-8.65625 3.25,-8.65625 C3.82292,-8.65625 4.29167,-8.51823 4.65625,-8.24219 C5.02083,-7.96615 5.29688,-7.60677 5.48438,-7.16406 C5.67188,-6.72135 5.80208,-6.2474 5.875,-5.74219 C5.94792,-5.23698 5.98438,-4.70313 5.98438,-4.14063 C5.98438,-3.40104 5.91406,-2.70573 5.77344,-2.05469 C5.63281,-1.40365 5.36198,-0.851563 4.96094,-0.398438 C4.5599,0.0546875 3.98958,0.28125 3.25,0.28125 M3.25,-0.046875 C3.72917,-0.046875 4.08854,-0.294271 4.32813,-0.789063 C4.56771,-1.28385 4.71354,-1.83333 4.76563,-2.4375 C4.81771,-3.04167 4.84375,-3.68229 4.84375,-4.35938 C4.84375,-5.00521 4.81771,-5.60417 4.76563,-6.15625 C4.71354,-6.70833 4.57031,-7.20833 4.33594,-7.65625 C4.10156,-8.10417 3.73958,-8.32813 3.25,-8.32813 C2.76042,-8.32813 2.39583,-8.10156 2.15625,-7.64844 C1.91667,-7.19531 1.77083,-6.69531 1.71875,-6.14844 C1.66667,-5.60156 1.64063,-5.00521 1.64063,-4.35938 C1.64063,-3.86979 1.65104,-3.41146 1.67188,-2.98438 C1.69271,-2.55729 1.75521,-2.11719 1.85938,-1.66406 C1.96354,-1.21094 2.1276,-0.828125 2.35156,-0.515625 C2.57552,-0.203125 2.875,-0.046875 3.25,-0.046875 "/>
</g>

<g fill="#212121" fill-opacity="1" stroke="none" transform="matrix(0.75,0,0,0.75,4.83333,47.9751)"
font-family="MS Shell Dlg 2" font-size="8.25" font-weight="400" font-style="normal" 
>
<path vector-effect="none" fill-rule="evenodd" d="M1.20313,0 L1.20313,-0.453125 C2.28646,-0.453125 2.82813,-0.59375 2.82813,-0.875 L2.82813,-7.6875 C2.38021,-7.47917 1.8125,-7.375 1.125,-7.375 L1.125,-7.82813 C2.1875,-7.82813 2.98958,-8.10417 3.53125,-8.65625 L3.71875,-8.65625 C3.75,-8.65625 3.77865,-8.64583 3.80469,-8.625 C3.83073,-8.60417 3.84375,-8.57813 3.84375,-8.54688 L3.84375,-0.875 C3.84375,-0.59375 4.38542,-0.453125 5.46875,-0.453125 L5.46875,0 L1.20313,0"/>
</g>

<g fill="#212121" fill-opacity="1" stroke="none" transform="matrix(0.75,0,0,0.75,34.1314,9)"
font-family="MS Shell Dlg 2" font-size="8.25" font-weight="400" font-style="normal" 
>
<path vector-effect="none" fill-rule="evenodd" d="M0.9375,0 C0.833333,0 0.78125,-0.0520833 0.78125,-0.15625 L0.78125,-0.34375 C0.78125,-0.385417 0.791667,-0.416667 0.8125,-0.4375 L6.25,-9.07813 L4.28125,-9.07813 C3.625,-9.07813 3.08594,-8.98958 2.66406,-8.8125 C2.24219,-8.63542 1.92188,-8.34896 1.70313,-7.95313 C1.48438,-7.55729 1.375,-7.02604 1.375,-6.35938 L0.96875,-6.35938 L1.125,-9.5625 L7.60938,-9.5625 C7.71354,-9.5625 7.76563,-9.51042 7.76563,-9.40625 L7.76563,-9.25 C7.76563,-9.20833 7.76042,-9.17708 7.75,-9.15625 L2.29688,-0.53125 L4.35938,-0.53125 C4.84896,-0.53125 5.29427,-0.578125 5.69531,-0.671875 C6.09635,-0.765625 6.42708,-0.942708 6.6875,-1.20313 C6.875,-1.39063 7.02083,-1.625 7.125,-1.90625 C7.22917,-2.1875 7.29948,-2.46094 7.33594,-2.72656 C7.3724,-2.99219 7.40625,-3.34896 7.4375,-3.79688 L7.84375,-3.79688 L7.60938,0 L0.9375,0"/>
</g>

<g fill="#212121" fill-opacity="1" stroke="none" transform="matrix(0.75,0,0,0.75,40.8536,9)"
font-family="MS Shell Dlg 2" font-size="8.25" font-weight="400" font-style="normal" 
>
<path vector-effect="none" fill-rule="evenodd" d="M3.48438,0.15625 C2.91146,0.15625 2.38802,0.0078125 1.91406,-0.289063 C1.4401,-0.585938 1.06771,-0.984375 0.796875,-1.48438 C0.526042,-1.98438 0.390625,-2.51042 0.390625,-3.0625 C0.390625,-3.61458 0.515625,-4.13542 0.765625,-4.625 C1.01563,-5.11458 1.36198,-5.51302 1.80469,-5.82031 C2.2474,-6.1276 2.73958,-6.28125 3.28125,-6.28125 C3.71875,-6.28125 4.09375,-6.20833 4.40625,-6.0625 C4.71875,-5.91667 4.97917,-5.71615 5.1875,-5.46094 C5.39583,-5.20573 5.55208,-4.90625 5.65625,-4.5625 C5.76042,-4.21875 5.8125,-3.83854 5.8125,-3.42188 C5.8125,-3.29688 5.76563,-3.23438 5.67188,-3.23438 L1.60938,-3.23438 L1.60938,-3.07813 C1.60938,-2.30729 1.76563,-1.64583 2.07813,-1.09375 C2.39063,-0.541667 2.90104,-0.265625 3.60938,-0.265625 C3.90104,-0.265625 4.16667,-0.328125 4.40625,-0.453125 C4.64583,-0.578125 4.85677,-0.755208 5.03906,-0.984375 C5.22135,-1.21354 5.34375,-1.45833 5.40625,-1.71875 C5.41667,-1.75 5.4349,-1.77604 5.46094,-1.79688 C5.48698,-1.81771 5.51563,-1.82813 5.54688,-1.82813 L5.67188,-1.82813 C5.76563,-1.82813 5.8125,-1.77083 5.8125,-1.65625 C5.67708,-1.125 5.39063,-0.690104 4.95313,-0.351563 C4.51563,-0.0130208 4.02604,0.15625 3.48438,0.15625 M1.625,-3.57813 L4.8125,-3.57813 C4.8125,-3.93229 4.76563,-4.28906 4.67188,-4.64844 C4.57813,-5.00781 4.41667,-5.30729 4.1875,-5.54688 C3.95833,-5.78646 3.65625,-5.90625 3.28125,-5.90625 C2.76042,-5.90625 2.35417,-5.65885 2.0625,-5.16406 C1.77083,-4.66927 1.625,-4.14063 1.625,-3.57813 "/>
</g>

<g fill="#212121" fill-opacity="1" stroke="none" transform="matrix(0.75,0,0,0.75,45.7425,9)"
font-family="MS Shell Dlg 2" font-size="8.25" font-weight="400" font-style="normal" 
>
<path vector-effect="none" fill-rule="evenodd" d="M0.421875,0 L0.421875,-0.5 C0.734375,-0.5 0.994792,-0.523438 1.20313,-0.570313 C1.41146,-0.617188 1.51563,-0.739583 1.51563,-0.9375 L1.51563,-4.76563 C1.51563,-5.01563 1.47656,-5.19531 1.39844,-5.30469 C1.32031,-5.41406 1.21094,-5.48177 1.07031,-5.50781 C0.929688,-5.53385 0.713542,-5.54688 0.421875,-5.54688 L0.421875,-6.03125 L2.45313,-6.1875 L2.45313,-4.8125 C2.64063,-5.21875 2.91667,-5.54948 3.28125,-5.80469 C3.64583,-6.0599 4.04688,-6.1875 4.48438,-6.1875 C5.13021,-6.1875 5.61458,-6.03125 5.9375,-5.71875 C6.26042,-5.40625 6.42188,-4.93229 6.42188,-4.29688 L6.42188,-0.9375 C6.42188,-0.739583 6.52604,-0.617188 6.73438,-0.570313 C6.94271,-0.523438 7.20313,-0.5 7.51563,-0.5 L7.51563,0 L4.3125,0 L4.3125,-0.5 C4.63542,-0.5 4.89844,-0.523438 5.10156,-0.570313 C5.30469,-0.617188 5.40625,-0.739583 5.40625,-0.9375 L5.40625,-4.26563 C5.40625,-4.71354 5.34115,-5.08594 5.21094,-5.38281 C5.08073,-5.67969 4.80729,-5.82813 4.39063,-5.82813 C3.84896,-5.82813 3.40365,-5.61198 3.05469,-5.17969 C2.70573,-4.7474 2.53125,-4.25521 2.53125,-3.70313 L2.53125,-0.9375 C2.53125,-0.739583 2.63542,-0.617188 2.84375,-0.570313 C3.05208,-0.523438 3.3125,-0.5 3.625,-0.5 L3.625,0 L0.421875,0"/>
</g>

<g fill="#212121" fill-opacity="1" stroke="none" transform="matrix(0.75,0,0,0.75,51.5481,9)"
font-family="MS Shell Dlg 2" font-size="8.25" font-weight="400" font-style="normal" 
>
<path vector-effect="none" fill-rule="evenodd" d="M1.42188,-1.6875 L1.42188,-5.54688 L0.265625,-5.54688 L0.265625,-5.90625 C0.880208,-5.90625 1.33073,-6.1901 1.61719,-6.75781 C1.90365,-7.32552 2.04688,-7.94271 2.04688,-8.60938 L2.45313,-8.60938 L2.45313,-6.03125 L4.42188,-6.03125 L4.42188,-5.54688 L2.45313,-5.54688 L2.45313,-1.71875 C2.45313,-1.33333 2.51823,-0.994792 2.64844,-0.703125 C2.77865,-0.411458 3.01042,-0.265625 3.34375,-0.265625 C3.66667,-0.265625 3.89844,-0.419271 4.03906,-0.726563 C4.17969,-1.03385 4.25,-1.36458 4.25,-1.71875 L4.25,-2.54688 L4.65625,-2.54688 L4.65625,-1.6875 C4.65625,-1.39583 4.60156,-1.10677 4.49219,-0.820313 C4.38281,-0.533854 4.22396,-0.299479 4.01563,-0.117188 C3.80729,0.0651042 3.55208,0.15625 3.25,0.15625 C2.6875,0.15625 2.24219,-0.0104167 1.91406,-0.34375 C1.58594,-0.677083 1.42188,-1.125 1.42188,-1.6875 "/>
</g>

<g fill="#212121" fill-opacity="1" stroke="none" transform="matrix(0.75,0,0,0.75,55.8259,9)"
font-family="MS Shell Dlg 2" font-size="8.25" font-weight="400" font-style="normal" 
>
<path vector-effect="none" fill-rule="evenodd" d="M0.359375,0 L0.359375,-0.5 C0.682292,-0.5 0.945313,-0.523438 1.14844,-0.570313 C1.35156,-0.617188 1.45313,-0.739583 1.45313,-0.9375 L1.45313,-4.76563 C1.45313,-5.01563 1.41667,-5.19531 1.34375,-5.30469 C1.27083,-5.41406 1.16406,-5.48177 1.02344,-5.50781 C0.882813,-5.53385 0.661458,-5.54688 0.359375,-5.54688 L0.359375,-6.03125 L2.35938,-6.1875 L2.35938,-4.8125 C2.51563,-5.21875 2.73177,-5.54948 3.00781,-5.80469 C3.28385,-6.0599 3.61979,-6.1875 4.01563,-6.1875 C4.29688,-6.1875 4.54688,-6.10417 4.76563,-5.9375 C4.98438,-5.77083 5.09375,-5.55729 5.09375,-5.29688 C5.09375,-5.11979 5.03385,-4.96875 4.91406,-4.84375 C4.79427,-4.71875 4.64583,-4.65625 4.46875,-4.65625 C4.29167,-4.65625 4.14063,-4.71875 4.01563,-4.84375 C3.89063,-4.96875 3.82813,-5.11979 3.82813,-5.29688 C3.82813,-5.54688 3.92188,-5.72396 4.10938,-5.82813 L4.01563,-5.82813 C3.64063,-5.82813 3.33333,-5.6901 3.09375,-5.41406 C2.85417,-5.13802 2.6849,-4.79688 2.58594,-4.39063 C2.48698,-3.98438 2.4375,-3.59896 2.4375,-3.23438 L2.4375,-0.9375 C2.4375,-0.645833 2.89063,-0.5 3.79688,-0.5 L3.79688,0 L0.359375,0"/>
</g>

<g fill="#212121" fill-opacity="1" stroke="none" transform="matrix(0.75,0,0,0.75,60.1342,9)"
font-family="MS Shell Dlg 2" font-size="8.25" font-weight="400" font-style="normal" 
>
<path vector-effect="none" fill-rule="evenodd" d="M0.5625,-1.375 C0.5625,-1.92708 0.78125,-2.3776 1.21875,-2.72656 C1.65625,-3.07552 2.18229,-3.32292 2.79688,-3.46875 C3.41146,-3.61458 3.99479,-3.6875 4.54688,-3.6875 L4.54688,-4.25 C4.54688,-4.52083 4.48698,-4.78385 4.36719,-5.03906 C4.2474,-5.29427 4.07552,-5.5026 3.85156,-5.66406 C3.6276,-5.82552 3.38021,-5.90625 3.10938,-5.90625 C2.49479,-5.90625 2.02604,-5.76563 1.70313,-5.48438 C1.88021,-5.48438 2.02604,-5.41667 2.14063,-5.28125 C2.25521,-5.14583 2.3125,-4.98958 2.3125,-4.8125 C2.3125,-4.625 2.2474,-4.46615 2.11719,-4.33594 C1.98698,-4.20573 1.82813,-4.14063 1.64063,-4.14063 C1.45313,-4.14063 1.29427,-4.20833 1.16406,-4.34375 C1.03385,-4.47917 0.96875,-4.63542 0.96875,-4.8125 C0.96875,-5.3125 1.1901,-5.68229 1.63281,-5.92188 C2.07552,-6.16146 2.56771,-6.28125 3.10938,-6.28125 C3.48438,-6.28125 3.86458,-6.20052 4.25,-6.03906 C4.63542,-5.8776 4.95052,-5.64583 5.19531,-5.34375 C5.4401,-5.04167 5.5625,-4.6875 5.5625,-4.28125 L5.5625,-1.14063 C5.5625,-0.963542 5.60156,-0.796875 5.67969,-0.640625 C5.75781,-0.484375 5.875,-0.40625 6.03125,-0.40625 C6.1875,-0.40625 6.30469,-0.484375 6.38281,-0.640625 C6.46094,-0.796875 6.5,-0.963542 6.5,-1.14063 L6.5,-2.03125 L6.90625,-2.03125 L6.90625,-1.125 C6.90625,-0.916667 6.85156,-0.71875 6.74219,-0.53125 C6.63281,-0.34375 6.48438,-0.195313 6.29688,-0.0859375 C6.10938,0.0234375 5.91146,0.078125 5.70313,0.078125 C5.43229,0.078125 5.19792,-0.0286458 5,-0.242188 C4.80208,-0.455729 4.6875,-0.708333 4.65625,-1 C4.48958,-0.645833 4.23698,-0.364583 3.89844,-0.15625 C3.5599,0.0520833 3.19792,0.15625 2.8125,0.15625 C2.45833,0.15625 2.10938,0.104167 1.76563,0 C1.42188,-0.104167 1.13542,-0.268229 0.90625,-0.492188 C0.677083,-0.716146 0.5625,-1.01042 0.5625,-1.375 M1.70313,-1.375 C1.70313,-1.05208 1.82292,-0.778646 2.0625,-0.554688 C2.30208,-0.330729 2.58333,-0.21875 2.90625,-0.21875 C3.20833,-0.21875 3.48438,-0.294271 3.73438,-0.445313 C3.98438,-0.596354 4.18229,-0.799479 4.32813,-1.05469 C4.47396,-1.3099 4.54688,-1.58333 4.54688,-1.875 L4.54688,-3.32813 C4.11979,-3.32813 3.6849,-3.25781 3.24219,-3.11719 C2.79948,-2.97656 2.43229,-2.75781 2.14063,-2.46094 C1.84896,-2.16406 1.70313,-1.80208 1.70313,-1.375 "/>
</g>

<g fill="#212121" fill-opacity="1" stroke="none" transform="matrix(0.75,0,0,0.75,65.6342,9)"
font-family="MS Shell Dlg 2" font-size="8.25" font-weight="400" font-style="normal" 
>
<path vector-effect="none" fill-rule="evenodd" d="M0.4375,0 L0.4375,-0.5 C0.75,-0.5 1.01042,-0.523438 1.21875,-0.570313 C1.42708,-0.617188 1.53125,-0.739583 1.53125,-0.9375 L1.53125,-8.28125 C1.53125,-8.53125 1.49219,-8.71354 1.41406,-8.82813 C1.33594,-8.94271 1.22656,-9.01302 1.08594,-9.03906 C0.945313,-9.0651 0.729167,-9.07813 0.4375,-9.07813 L0.4375,-9.5625 L2.51563,-9.71875 L2.51563,-0.9375 C2.51563,-0.739583 2.61719,-0.617188 2.82031,-0.570313 C3.02344,-0.523438 3.28125,-0.5 3.59375,-0.5 L3.59375,0 L0.4375,0"/>
</g>

<g fill="#212121" fill-opacity="1" stroke="none" transform="matrix(0.75,0,0,0.75,68.6898,9)"
font-family="MS Shell Dlg 2" font-size="8.25" font-weight="400" font-style="normal" 
>
<path vector-effect="none" fill-rule="evenodd" d="M0.359375,2.71875 L0.359375,2.23438 C0.682292,2.23438 0.945313,2.20573 1.14844,2.14844 C1.35156,2.09115 1.45313,1.96875 1.45313,1.78125 L1.45313,-4.96875 C1.45313,-5.22917 1.36198,-5.39063 1.17969,-5.45313 C0.997396,-5.51563 0.723958,-5.54688 0.359375,-5.54688 L0.359375,-6.03125 L2.4375,-6.1875 L2.4375,-5.3125 C2.6875,-5.60417 2.98177,-5.82292 3.32031,-5.96875 C3.65885,-6.11458 4.02083,-6.1875 4.40625,-6.1875 C4.95833,-6.1875 5.45573,-6.03906 5.89844,-5.74219 C6.34115,-5.44531 6.6875,-5.05208 6.9375,-4.5625 C7.1875,-4.07292 7.3125,-3.55729 7.3125,-3.01563 C7.3125,-2.45313 7.17448,-1.92969 6.89844,-1.44531 C6.6224,-0.960938 6.24479,-0.572917 5.76563,-0.28125 C5.28646,0.0104167 4.76563,0.15625 4.20313,0.15625 C3.51563,0.15625 2.9375,-0.119792 2.46875,-0.671875 L2.46875,1.78125 C2.46875,1.96875 2.57292,2.09115 2.78125,2.14844 C2.98958,2.20573 3.25,2.23438 3.5625,2.23438 L3.5625,2.71875 L0.359375,2.71875 M2.46875,-1.35938 C2.63542,-1.03646 2.86458,-0.765625 3.15625,-0.546875 C3.44792,-0.328125 3.76563,-0.21875 4.10938,-0.21875 C4.43229,-0.21875 4.71875,-0.304688 4.96875,-0.476563 C5.21875,-0.648438 5.42969,-0.880208 5.60156,-1.17188 C5.77344,-1.46354 5.89844,-1.77083 5.97656,-2.09375 C6.05469,-2.41667 6.09375,-2.72917 6.09375,-3.03125 C6.09375,-3.39583 6.02604,-3.79688 5.89063,-4.23438 C5.75521,-4.67188 5.54948,-5.03906 5.27344,-5.33594 C4.9974,-5.63281 4.66146,-5.78125 4.26563,-5.78125 C3.89063,-5.78125 3.54427,-5.6849 3.22656,-5.49219 C2.90885,-5.29948 2.65625,-5.03646 2.46875,-4.70313 L2.46875,-1.35938"/>
</g>

<g fill="#212121" fill-opacity="1" stroke="none" transform="matrix(0.75,0,0,0.75,74.8009,9)"
font-family="MS Shell Dlg 2" font-size="8.25" font-weight="400" font-style="normal" 
>
<path vector-effect="none" fill-rule="evenodd" d="M1.51563,-1.67188 L1.51563,-4.76563 C1.51563,-5.01563 1.47656,-5.19531 1.39844,-5.30469 C1.32031,-5.41406 1.21094,-5.48177 1.07031,-5.50781 C0.929688,-5.53385 0.713542,-5.54688 0.421875,-5.54688 L0.421875,-6.03125 L2.53125,-6.1875 L2.53125,-1.67188 C2.53125,-1.30729 2.55729,-1.02344 2.60938,-0.820313 C2.66146,-0.617188 2.77344,-0.466146 2.94531,-0.367188 C3.11719,-0.268229 3.39063,-0.21875 3.76563,-0.21875 C4.26563,-0.21875 4.66406,-0.427083 4.96094,-0.84375 C5.25781,-1.26042 5.40625,-1.73958 5.40625,-2.28125 L5.40625,-4.76563 C5.40625,-5.01563 5.36719,-5.19531 5.28906,-5.30469 C5.21094,-5.41406 5.10417,-5.48177 4.96875,-5.50781 C4.83333,-5.53385 4.61458,-5.54688 4.3125,-5.54688 L4.3125,-6.03125 L6.42188,-6.1875 L6.42188,-1.26563 C6.42188,-1.02604 6.46094,-0.848958 6.53906,-0.734375 C6.61719,-0.619792 6.72656,-0.552083 6.86719,-0.53125 C7.00781,-0.510417 7.22396,-0.5 7.51563,-0.5 L7.51563,0 L5.45313,0.15625 L5.45313,-1.03125 C5.27604,-0.677083 5.03385,-0.390625 4.72656,-0.171875 C4.41927,0.046875 4.07813,0.15625 3.70313,0.15625 C3.02604,0.15625 2.49219,0.0130208 2.10156,-0.273438 C1.71094,-0.559896 1.51563,-1.02604 1.51563,-1.67188 "/>
</g>

<g fill="#212121" fill-opacity="1" stroke="none" transform="matrix(0.75,0,0,0.75,80.912,9)"
font-family="MS Shell Dlg 2" font-size="8.25" font-weight="400" font-style="normal" 
>
<path vector-effect="none" fill-rule="evenodd" d="M0.421875,0 L0.421875,-0.5 C0.734375,-0.5 0.994792,-0.523438 1.20313,-0.570313 C1.41146,-0.617188 1.51563,-0.739583 1.51563,-0.9375 L1.51563,-4.76563 C1.51563,-5.01563 1.47656,-5.19531 1.39844,-5.30469 C1.32031,-5.41406 1.21094,-5.48177 1.07031,-5.50781 C0.929688,-5.53385 0.713542,-5.54688 0.421875,-5.54688 L0.421875,-6.03125 L2.45313,-6.1875 L2.45313,-4.8125 C2.64063,-5.21875 2.91667,-5.54948 3.28125,-5.80469 C3.64583,-6.0599 4.04688,-6.1875 4.48438,-6.1875 C5.13021,-6.1875 5.61458,-6.03125 5.9375,-5.71875 C6.26042,-5.40625 6.42188,-4.93229 6.42188,-4.29688 L6.42188,-0.9375 C6.42188,-0.739583 6.52604,-0.617188 6.73438,-0.570313 C6.94271,-0.523438 7.20313,-0.5 7.51563,-0.5 L7.51563,0 L4.3125,0 L4.3125,-0.5 C4.63542,-0.5 4.89844,-0.523438 5.10156,-0.570313 C5.30469,-0.617188 5.40625,-0.739583 5.40625,-0.9375 L5.40625,-4.26563 C5.40625,-4.71354 5.34115,-5.08594 5.21094,-5.38281 C5.08073,-5.67969 4.80729,-5.82813 4.39063,-5.82813 C3.84896,-5.82813 3.40365,-5.61198 3.05469,-5.17969 C2.70573,-4.7474 2.53125,-4.25521 2.53125,-3.70313 L2.53125,-0.9375 C2.53125,-0.739583 2.63542,-0.617188 2.84375,-0.570313 C3.05208,-0.523438 3.3125,-0.5 3.625,-0.5 L3.625,0 L0.421875,0"/>
</g>

<g fill="#212121" fill-opacity="1" stroke="none" transform="matrix(0.75,0,0,0.75,87.0232,9)"
font-family="MS Shell Dlg 2" font-size="8.25" font-weight="400" font-style="normal" 
>
<path vector-effect="none" fill-rule="evenodd" d="M0.359375,0 L0.359375,-0.5 C0.682292,-0.5 0.945313,-0.523438 1.14844,-0.570313 C1.35156,-0.617188 1.45313,-0.739583 1.45313,-0.9375 L1.45313,-8.28125 C1.45313,-8.53125 1.41667,-8.71354 1.34375,-8.82813 C1.27083,-8.94271 1.16406,-9.01302 1.02344,-9.03906 C0.882813,-9.0651 0.661458,-9.07813 0.359375,-9.07813 L0.359375,-9.5625 L2.4375,-9.71875 L2.4375,-3.0625 L4.3125,-4.71875 C4.5,-4.89583 4.59375,-5.05729 4.59375,-5.20313 C4.59375,-5.31771 4.55469,-5.40365 4.47656,-5.46094 C4.39844,-5.51823 4.30729,-5.54688 4.20313,-5.54688 L4.20313,-6.03125 L6.82813,-6.03125 L6.82813,-5.54688 C6.19271,-5.54688 5.55729,-5.27083 4.92188,-4.71875 L3.9375,-3.84375 L5.71875,-1.3125 C5.95833,-0.96875 6.16146,-0.747396 6.32813,-0.648438 C6.49479,-0.549479 6.77083,-0.5 7.15625,-0.5 L7.15625,0 L4.375,0 L4.375,-0.5 C4.6875,-0.5 4.84375,-0.59375 4.84375,-0.78125 C4.84375,-0.927083 4.76042,-1.10417 4.59375,-1.3125 L3.25,-3.23438 L2.39063,-2.5 L2.39063,-0.9375 C2.39063,-0.739583 2.49479,-0.617188 2.70313,-0.570313 C2.91146,-0.523438 3.17188,-0.5 3.48438,-0.5 L3.48438,0 L0.359375,0"/>
</g>

<g fill="#212121" fill-opacity="1" stroke="none" transform="matrix(0.75,0,0,0.75,92.8287,9)"
font-family="MS Shell Dlg 2" font-size="8.25" font-weight="400" font-style="normal" 
>
<path vector-effect="none" fill-rule="evenodd" d="M1.42188,-1.6875 L1.42188,-5.54688 L0.265625,-5.54688 L0.265625,-5.90625 C0.880208,-5.90625 1.33073,-6.1901 1.61719,-6.75781 C1.90365,-7.32552 2.04688,-7.94271 2.04688,-8.60938 L2.45313,-8.60938 L2.45313,-6.03125 L4.42188,-6.03125 L4.42188,-5.54688 L2.45313,-5.54688 L2.45313,-1.71875 C2.45313,-1.33333 2.51823,-0.994792 2.64844,-0.703125 C2.77865,-0.411458 3.01042,-0.265625 3.34375,-0.265625 C3.66667,-0.265625 3.89844,-0.419271 4.03906,-0.726563 C4.17969,-1.03385 4.25,-1.36458 4.25,-1.71875 L4.25,-2.54688 L4.65625,-2.54688 L4.65625,-1.6875 C4.65625,-1.39583 4.60156,-1.10677 4.49219,-0.820313 C4.38281,-0.533854 4.22396,-0.299479 4.01563,-0.117188 C3.80729,0.0651042 3.55208,0.15625 3.25,0.15625 C2.6875,0.15625 2.24219,-0.0104167 1.91406,-0.34375 C1.58594,-0.677083 1.42188,-1.125 1.42188,-1.6875 "/>
</g>

<g fill="#212121" fill-opacity="1" stroke="none" transform="matrix(0.75,0,0,0.75,100.773,9)"
font-family="MS Shell Dlg 2" font-size="8.25" font-weight="400" font-style="normal" 
>
<path vector-effect="none" fill-rule="evenodd" d="M4.34375,3.46875 C3.82292,3.0625 3.375,2.59375 3,2.0625 C2.625,1.53125 2.31771,0.963542 2.07813,0.359375 C1.83854,-0.244792 1.65885,-0.875 1.53906,-1.53125 C1.41927,-2.1875 1.35938,-2.84375 1.35938,-3.5 C1.35938,-4.16667 1.41927,-4.82813 1.53906,-5.48438 C1.65885,-6.14063 1.84115,-6.77344 2.08594,-7.38281 C2.33073,-7.99219 2.64063,-8.5599 3.01563,-9.08594 C3.39063,-9.61198 3.83333,-10.0729 4.34375,-10.4688 C4.34375,-10.4896 4.36458,-10.5 4.40625,-10.5 L4.54688,-10.5 C4.56771,-10.5 4.59115,-10.487 4.61719,-10.4609 C4.64323,-10.4349 4.65625,-10.4063 4.65625,-10.375 C4.65625,-10.3333 4.64583,-10.3021 4.625,-10.2813 C4.16667,-9.84375 3.78646,-9.36979 3.48438,-8.85938 C3.18229,-8.34896 2.9375,-7.80469 2.75,-7.22656 C2.5625,-6.64844 2.42969,-6.04948 2.35156,-5.42969 C2.27344,-4.8099 2.23438,-4.16667 2.23438,-3.5 C2.23438,-0.53125 3.02604,1.72396 4.60938,3.26563 C4.64063,3.28646 4.65625,3.32292 4.65625,3.375 C4.65625,3.39583 4.64323,3.42188 4.61719,3.45313 C4.59115,3.48438 4.56771,3.5 4.54688,3.5 L4.40625,3.5 C4.36458,3.5 4.34375,3.48958 4.34375,3.46875 "/>
</g>

<g fill="#212121" fill-opacity="1" stroke="none" transform="matrix(0.75,0,0,0.75,105.051,9)"
font-family="MS Shell Dlg 2" font-size="8.25" font-weight="400" font-style="normal" 
>
<path vector-effect="none" fill-rule="evenodd" d="M1.07813,-0.25 C1.07813,-0.302083 1.08333,-0.34375 1.09375,-0.375 L2.14063,-4.54688 C2.21354,-4.80729 2.25,-5.03125 2.25,-5.21875 C2.25,-5.625 2.10938,-5.82813 1.82813,-5.82813 C1.53646,-5.82813 1.32031,-5.65365 1.17969,-5.30469 C1.03906,-4.95573 0.901042,-4.51563 0.765625,-3.98438 C0.765625,-3.95313 0.752604,-3.92969 0.726563,-3.91406 C0.700521,-3.89844 0.677083,-3.89063 0.65625,-3.89063 L0.5,-3.89063 C0.458333,-3.89063 0.427083,-3.90885 0.40625,-3.94531 C0.385417,-3.98177 0.375,-4.01042 0.375,-4.03125 C0.479167,-4.4375 0.578125,-4.78125 0.671875,-5.0625 C0.765625,-5.34375 0.911458,-5.60156 1.10938,-5.83594 C1.30729,-6.07031 1.55208,-6.1875 1.84375,-6.1875 C2.19792,-6.1875 2.50781,-6.07813 2.77344,-5.85938 C3.03906,-5.64063 3.17188,-5.35938 3.17188,-5.01563 C3.45313,-5.38021 3.78125,-5.66667 4.15625,-5.875 C4.53125,-6.08333 4.92708,-6.1875 5.34375,-6.1875 C5.67708,-6.1875 5.96354,-6.13021 6.20313,-6.01563 C6.44271,-5.90104 6.63021,-5.72917 6.76563,-5.5 C6.90104,-5.27083 6.96875,-4.99479 6.96875,-4.67188 C6.96875,-4.29688 6.88281,-3.83854 6.71094,-3.29688 C6.53906,-2.75521 6.32813,-2.14583 6.07813,-1.46875 C5.94271,-1.16667 5.875,-0.890625 5.875,-0.640625 C5.875,-0.359375 5.98438,-0.21875 6.20313,-0.21875 C6.56771,-0.21875 6.8724,-0.414063 7.11719,-0.804688 C7.36198,-1.19531 7.53125,-1.61458 7.625,-2.0625 C7.64583,-2.11458 7.6875,-2.14063 7.75,-2.14063 L7.90625,-2.14063 C7.94792,-2.14063 7.98177,-2.13021 8.00781,-2.10938 C8.03385,-2.08854 8.04688,-2.05729 8.04688,-2.01563 C8.04688,-2.00521 8.04167,-1.99479 8.03125,-1.98438 C7.89583,-1.45313 7.67188,-0.963542 7.35938,-0.515625 C7.04688,-0.0677083 6.65104,0.15625 6.17188,0.15625 C5.84896,0.15625 5.57031,0.0442708 5.33594,-0.179688 C5.10156,-0.403646 4.98438,-0.677083 4.98438,-1 C4.98438,-1.17708 5.02083,-1.35938 5.09375,-1.54688 C5.20833,-1.85938 5.34375,-2.22656 5.5,-2.64844 C5.65625,-3.07031 5.78125,-3.47396 5.875,-3.85938 C5.96875,-4.24479 6.01563,-4.58854 6.01563,-4.89063 C6.01563,-5.15104 5.96354,-5.3724 5.85938,-5.55469 C5.75521,-5.73698 5.57292,-5.82813 5.3125,-5.82813 C4.97917,-5.82813 4.66667,-5.7526 4.375,-5.60156 C4.08333,-5.45052 3.83073,-5.25 3.61719,-5 C3.40365,-4.75 3.20833,-4.45833 3.03125,-4.125 L2.07813,-0.3125 C2.04688,-0.177083 1.97656,-0.0651042 1.86719,0.0234375 C1.75781,0.111979 1.63542,0.15625 1.5,0.15625 C1.38542,0.15625 1.28646,0.119792 1.20313,0.046875 C1.11979,-0.0260417 1.07813,-0.125 1.07813,-0.25 "/>
</g>

<g fill="#212121" fill-opacity="1" stroke="none" transform="matrix(0.75,0,0,0.75,111.654,10.65)"
font-family="MS Shell Dlg 2" font-size="8.25" font-weight="400" font-style="normal" 
>
<path vector-effect="none" fill-rule="evenodd" d="M1.45313,-2.15625 C1.45313,-1.76042 1.53125,-1.40885 1.6875,-1.10156 C1.84375,-0.794271 2.07031,-0.554688 2.36719,-0.382813 C2.66406,-0.210938 3.01042,-0.125 3.40625,-0.125 C3.82292,-0.125 4.22656,-0.234375 4.61719,-0.453125 C5.00781,-0.671875 5.34115,-0.960938 5.61719,-1.32031 C5.89323,-1.67969 6.08333,-2.0625 6.1875,-2.46875 C6.19792,-2.5 6.22396,-2.51563 6.26563,-2.51563 L6.375,-2.51563 C6.40625,-2.51563 6.42969,-2.50781 6.44531,-2.49219 C6.46094,-2.47656 6.46875,-2.45833 6.46875,-2.4375 C6.46875,-2.42708 6.46354,-2.41667 6.45313,-2.40625 C6.34896,-1.9375 6.13281,-1.5026 5.80469,-1.10156 C5.47656,-0.700521 5.08333,-0.380208 4.625,-0.140625 C4.16667,0.0989583 3.69792,0.21875 3.21875,0.21875 C2.69792,0.21875 2.23177,0.101563 1.82031,-0.132813 C1.40885,-0.367188 1.08854,-0.692708 0.859375,-1.10938 C0.630208,-1.52604 0.515625,-1.99479 0.515625,-2.51563 C0.515625,-3.07813 0.640625,-3.63281 0.890625,-4.17969 C1.14063,-4.72656 1.47656,-5.21615 1.89844,-5.64844 C2.32031,-6.08073 2.80208,-6.42188 3.34375,-6.67188 C3.88542,-6.92188 4.43229,-7.04688 4.98438,-7.04688 C5.21354,-7.04688 5.42708,-7.01302 5.625,-6.94531 C5.82292,-6.8776 6.01042,-6.77604 6.1875,-6.64063 C6.36458,-6.50521 6.50521,-6.34896 6.60938,-6.17188 L7.40625,-7.03125 C7.40625,-7.04167 7.42188,-7.04688 7.45313,-7.04688 L7.51563,-7.04688 C7.53646,-7.04688 7.55469,-7.03646 7.57031,-7.01563 C7.58594,-6.99479 7.59375,-6.97396 7.59375,-6.95313 L6.92188,-4.25 C6.92188,-4.20833 6.89583,-4.1875 6.84375,-4.1875 L6.65625,-4.1875 C6.60417,-4.1875 6.57813,-4.22396 6.57813,-4.29688 C6.60938,-4.44271 6.625,-4.61458 6.625,-4.8125 C6.625,-5.14583 6.57031,-5.45573 6.46094,-5.74219 C6.35156,-6.02865 6.17969,-6.26042 5.94531,-6.4375 C5.71094,-6.61458 5.42708,-6.70313 5.09375,-6.70313 C4.54167,-6.70313 4.04167,-6.5651 3.59375,-6.28906 C3.14583,-6.01302 2.76302,-5.65365 2.44531,-5.21094 C2.1276,-4.76823 1.88281,-4.27604 1.71094,-3.73438 C1.53906,-3.19271 1.45313,-2.66667 1.45313,-2.15625 "/>
</g>

<g fill="#212121" fill-opacity="1" stroke="none" transform="matrix(0.75,0,0,0.75,118.258,9)"
font-family="MS Shell Dlg 2" font-size="8.25" font-weight="400" font-style="normal" 
>
<path vector-effect="none" fill-rule="evenodd" d="M0.90625,3.5 C0.822917,3.5 0.78125,3.45833 0.78125,3.375 C0.78125,3.33333 0.791667,3.30208 0.8125,3.28125 C2.40625,1.72917 3.20313,-0.53125 3.20313,-3.5 C3.20313,-6.46875 2.41667,-8.72396 0.84375,-10.2656 C0.802083,-10.2865 0.78125,-10.3229 0.78125,-10.375 C0.78125,-10.4063 0.794271,-10.4349 0.820313,-10.4609 C0.846354,-10.487 0.875,-10.5 0.90625,-10.5 L1.04688,-10.5 C1.06771,-10.5 1.08854,-10.4896 1.10938,-10.4688 C1.77604,-9.94792 2.33333,-9.30729 2.78125,-8.54688 C3.22917,-7.78646 3.55729,-6.97917 3.76563,-6.125 C3.97396,-5.27083 4.07813,-4.39583 4.07813,-3.5 C4.07813,-2.84375 4.02083,-2.19531 3.90625,-1.55469 C3.79167,-0.914063 3.61458,-0.28125 3.375,0.34375 C3.13542,0.96875 2.82813,1.54427 2.45313,2.07031 C2.07813,2.59635 1.63021,3.0625 1.10938,3.46875 C1.08854,3.48958 1.06771,3.5 1.04688,3.5 L0.90625,3.5"/>
</g>

<g fill="none" stroke="#000000" stroke-opacity="1" stroke-dasharray="10,6" stroke-dashoffset="0" stroke-width="1.06667" stroke-linecap="butt" stroke-linejoin="round" transform="matrix(0.75,0,0,0.75,-9.79166,1.52254)"
font-family="MS Shell Dlg 2" font-size="8.25" font-weight="400" font-style="normal" 
>
<polyline fill="none" vector-effect="none" points="72.2368,149.263 162.763,149.263 162.763,58.7368 72.2368,58.7368 72.2368,149.263 " />
</g>

<g fill="#000000" fill-opacity="1" stroke="none" transform="matrix(0.75,0,0,0.75,-9.79166,1.52254)"
font-family="MS Shell Dlg 2" font-size="8.25" font-weight="400" font-style="normal" 
>
<circle cx="72.2368" cy="149.263" r="4.21637"/>
<circle cx="162.763" cy="149.263" r="4.21637"/>
<circle cx="72.2368" cy="58.7368" r="4.21637"/>
<circle cx="162.763" cy="58.7368" r="4.21637"/>
<circle cx="117.5" cy="104" r="4.21637"/>
</g>

<g fill="#b3b3b3" fill-opacity="0.701961" stroke="#b3b3b3" stroke-opacity="0.701961" stroke-dasharray="1,3" stroke-dashoffset="0" stroke-width="0.666667" stroke-linecap="butt" stroke-linejoin="round" transform="matrix(0.75,0,0,0.75,-9.79166,1.52254)"
font-family="MS Shell Dlg 2" font-size="8.25" font-weight="400" font-style="normal" 
>
<polyline fill="none" vector-effect="none" points="117.5,190 117.5,18 " />
<polyline fill="none" vector-effect="none" points="31.5,104 203.5,104 " />
</g>
</g>
</svg>
