<?xml version="1.0" encoding="UTF-8" standalone="no"?>
<svg width="128.411mm" height="62.0889mm"
 viewBox="0 0 364 176"
 xmlns="http://www.w3.org/2000/svg" xmlns:xlink="http://www.w3.org/1999/xlink"  version="1.2" baseProfile="tiny">
<title>Qt SVG Document</title>
<desc>MATLAB, The MathWorks, Inc. Version 25.2.0.3055257 R2025b Update 2</desc>
<defs>
</defs>
<g fill="none" stroke="black" stroke-width="1" fill-rule="evenodd" stroke-linecap="square" stroke-linejoin="bevel" >

<g fill="#ffffff" fill-opacity="1" stroke="none" transform="matrix(0.75,0,0,0.75,-23.75,-7.5)"
font-family="MS Shell Dlg 2" font-size="8.25" font-weight="400" font-style="normal" 
>
<path vector-effect="none" fill-rule="evenodd" d="M30,9 L516,9 L516,244 L30,244 L30,9"/>
</g>

<g fill="#ffffff" fill-opacity="1" stroke="none" transform="matrix(7.5e-05,0,0,7.5e-05,-23.75,-7.5)"
font-family="MS Shell Dlg 2" font-size="8.25" font-weight="400" font-style="normal" 
>
<path vector-effect="none" fill-rule="evenodd" d="M740000,180000 L740000,2.02e+06 L5.13e+06,2.02e+06 L5.13e+06,180000 L740000,180000"/>
</g>

<g fill="#212121" fill-opacity="0.25098" stroke="#212121" stroke-opacity="0.25098" stroke-dasharray="1,3" stroke-dashoffset="0" stroke-width="1.06667" stroke-linecap="butt" stroke-linejoin="round" transform="matrix(0.75,0,0,0.75,-23.75,-7.5)"
font-family="MS Shell Dlg 2" font-size="8.25" font-weight="400" font-style="normal" 
>
<polyline fill="none" vector-effect="none" points="74,18 74,202 " />
<polyline fill="none" vector-effect="none" points="117.9,18 117.9,202 " />
<polyline fill="none" vector-effect="none" points="161.8,18 161.8,202 " />
<polyline fill="none" vector-effect="none" points="205.7,18 205.7,202 " />
<polyline fill="none" vector-effect="none" points="249.6,18 249.6,202 " />
<polyline fill="none" vector-effect="none" points="293.5,18 293.5,202 " />
<polyline fill="none" vector-effect="none" points="337.4,18 337.4,202 " />
<polyline fill="none" vector-effect="none" points="381.3,18 381.3,202 " />
<polyline fill="none" vector-effect="none" points="425.2,18 425.2,202 " />
<polyline fill="none" vector-effect="none" points="469.1,18 469.1,202 " />
<polyline fill="none" vector-effect="none" points="513,18 513,202 " />
<polyline fill="none" vector-effect="none" points="74,202 513,202 " />
<polyline fill="none" vector-effect="none" points="74,165.2 513,165.2 " />
<polyline fill="none" vector-effect="none" points="74,128.4 513,128.4 " />
<polyline fill="none" vector-effect="none" points="74,91.6 513,91.6 " />
<polyline fill="none" vector-effect="none" points="74,54.8 513,54.8 " />
<polyline fill="none" vector-effect="none" points="74,18 513,18 " />
</g>

<g fill="#212121" fill-opacity="1" stroke="#212121" stroke-opacity="1" stroke-width="1" stroke-linecap="square" stroke-linejoin="bevel" transform="matrix(0.75,0,0,0.75,158.125,170.75)"
font-family="Palatino Linotype" font-size="14" font-weight="400" font-style="normal" 
>
<text fill="#212121" fill-opacity="1" stroke="none" xml:space="preserve" x="0" y="0" font-family="Palatino Linotype" font-size="14" font-weight="400" font-style="normal" 
 >$\sym{p-Wert}$</text>
</g>

<g fill="#212121" fill-opacity="1" stroke="#212121" stroke-opacity="1" stroke-width="1.06667" stroke-linecap="square" stroke-linejoin="round" transform="matrix(0.75,0,0,0.75,-23.75,-7.5)"
font-family="Palatino Linotype" font-size="14" font-weight="400" font-style="normal" 
>
<polyline fill="none" vector-effect="none" points="74,202 513,202 " />
<polyline fill="none" vector-effect="none" points="74,18 513,18 " />
<polyline fill="none" vector-effect="none" points="74,202 74,197.61 " />
<polyline fill="none" vector-effect="none" points="74,22.39 74,18 " />
<polyline fill="none" vector-effect="none" points="117.9,202 117.9,197.61 " />
<polyline fill="none" vector-effect="none" points="117.9,22.39 117.9,18 " />
<polyline fill="none" vector-effect="none" points="161.8,202 161.8,197.61 " />
<polyline fill="none" vector-effect="none" points="161.8,22.39 161.8,18 " />
<polyline fill="none" vector-effect="none" points="205.7,202 205.7,197.61 " />
<polyline fill="none" vector-effect="none" points="205.7,22.39 205.7,18 " />
<polyline fill="none" vector-effect="none" points="249.6,202 249.6,197.61 " />
<polyline fill="none" vector-effect="none" points="249.6,22.39 249.6,18 " />
<polyline fill="none" vector-effect="none" points="293.5,202 293.5,197.61 " />
<polyline fill="none" vector-effect="none" points="293.5,22.39 293.5,18 " />
<polyline fill="none" vector-effect="none" points="337.4,202 337.4,197.61 " />
<polyline fill="none" vector-effect="none" points="337.4,22.39 337.4,18 " />
<polyline fill="none" vector-effect="none" points="381.3,202 381.3,197.61 " />
<polyline fill="none" vector-effect="none" points="381.3,22.39 381.3,18 " />
<polyline fill="none" vector-effect="none" points="425.2,202 425.2,197.61 " />
<polyline fill="none" vector-effect="none" points="425.2,22.39 425.2,18 " />
<polyline fill="none" vector-effect="none" points="469.1,202 469.1,197.61 " />
<polyline fill="none" vector-effect="none" points="469.1,22.39 469.1,18 " />
<polyline fill="none" vector-effect="none" points="513,202 513,197.61 " />
<polyline fill="none" vector-effect="none" points="513,22.39 513,18 " />
</g>

<g fill="#212121" fill-opacity="1" stroke="#212121" stroke-opacity="1" stroke-width="1" stroke-linecap="square" stroke-linejoin="bevel" transform="matrix(0.75,0,0,0.75,29.125,155.5)"
font-family="Palatino Linotype" font-size="13" font-weight="400" font-style="normal" 
>
<text fill="#212121" fill-opacity="1" stroke="none" xml:space="preserve" x="0" y="0" font-family="Palatino Linotype" font-size="13" font-weight="400" font-style="normal" 
 >0</text>
</g>

<g fill="#212121" fill-opacity="1" stroke="#212121" stroke-opacity="1" stroke-width="1" stroke-linecap="square" stroke-linejoin="bevel" transform="matrix(0.75,0,0,0.75,58.3,155.5)"
font-family="Palatino Linotype" font-size="13" font-weight="400" font-style="normal" 
>
<text fill="#212121" fill-opacity="1" stroke="none" xml:space="preserve" x="0" y="0" font-family="Palatino Linotype" font-size="13" font-weight="400" font-style="normal" 
 >0.1</text>
</g>

<g fill="#212121" fill-opacity="1" stroke="#212121" stroke-opacity="1" stroke-width="1" stroke-linecap="square" stroke-linejoin="bevel" transform="matrix(0.75,0,0,0.75,91.225,155.5)"
font-family="Palatino Linotype" font-size="13" font-weight="400" font-style="normal" 
>
<text fill="#212121" fill-opacity="1" stroke="none" xml:space="preserve" x="0" y="0" font-family="Palatino Linotype" font-size="13" font-weight="400" font-style="normal" 
 >0.2</text>
</g>

<g fill="#212121" fill-opacity="1" stroke="#212121" stroke-opacity="1" stroke-width="1" stroke-linecap="square" stroke-linejoin="bevel" transform="matrix(0.75,0,0,0.75,124.15,155.5)"
font-family="Palatino Linotype" font-size="13" font-weight="400" font-style="normal" 
>
<text fill="#212121" fill-opacity="1" stroke="none" xml:space="preserve" x="0" y="0" font-family="Palatino Linotype" font-size="13" font-weight="400" font-style="normal" 
 >0.3</text>
</g>

<g fill="#212121" fill-opacity="1" stroke="#212121" stroke-opacity="1" stroke-width="1" stroke-linecap="square" stroke-linejoin="bevel" transform="matrix(0.75,0,0,0.75,157.075,155.5)"
font-family="Palatino Linotype" font-size="13" font-weight="400" font-style="normal" 
>
<text fill="#212121" fill-opacity="1" stroke="none" xml:space="preserve" x="0" y="0" font-family="Palatino Linotype" font-size="13" font-weight="400" font-style="normal" 
 >0.4</text>
</g>

<g fill="#212121" fill-opacity="1" stroke="#212121" stroke-opacity="1" stroke-width="1" stroke-linecap="square" stroke-linejoin="bevel" transform="matrix(0.75,0,0,0.75,190,155.5)"
font-family="Palatino Linotype" font-size="13" font-weight="400" font-style="normal" 
>
<text fill="#212121" fill-opacity="1" stroke="none" xml:space="preserve" x="0" y="0" font-family="Palatino Linotype" font-size="13" font-weight="400" font-style="normal" 
 >0.5</text>
</g>

<g fill="#212121" fill-opacity="1" stroke="#212121" stroke-opacity="1" stroke-width="1" stroke-linecap="square" stroke-linejoin="bevel" transform="matrix(0.75,0,0,0.75,222.925,155.5)"
font-family="Palatino Linotype" font-size="13" font-weight="400" font-style="normal" 
>
<text fill="#212121" fill-opacity="1" stroke="none" xml:space="preserve" x="0" y="0" font-family="Palatino Linotype" font-size="13" font-weight="400" font-style="normal" 
 >0.6</text>
</g>

<g fill="#212121" fill-opacity="1" stroke="#212121" stroke-opacity="1" stroke-width="1" stroke-linecap="square" stroke-linejoin="bevel" transform="matrix(0.75,0,0,0.75,255.85,155.5)"
font-family="Palatino Linotype" font-size="13" font-weight="400" font-style="normal" 
>
<text fill="#212121" fill-opacity="1" stroke="none" xml:space="preserve" x="0" y="0" font-family="Palatino Linotype" font-size="13" font-weight="400" font-style="normal" 
 >0.7</text>
</g>

<g fill="#212121" fill-opacity="1" stroke="#212121" stroke-opacity="1" stroke-width="1" stroke-linecap="square" stroke-linejoin="bevel" transform="matrix(0.75,0,0,0.75,288.775,155.5)"
font-family="Palatino Linotype" font-size="13" font-weight="400" font-style="normal" 
>
<text fill="#212121" fill-opacity="1" stroke="none" xml:space="preserve" x="0" y="0" font-family="Palatino Linotype" font-size="13" font-weight="400" font-style="normal" 
 >0.8</text>
</g>

<g fill="#212121" fill-opacity="1" stroke="#212121" stroke-opacity="1" stroke-width="1" stroke-linecap="square" stroke-linejoin="bevel" transform="matrix(0.75,0,0,0.75,321.7,155.5)"
font-family="Palatino Linotype" font-size="13" font-weight="400" font-style="normal" 
>
<text fill="#212121" fill-opacity="1" stroke="none" xml:space="preserve" x="0" y="0" font-family="Palatino Linotype" font-size="13" font-weight="400" font-style="normal" 
 >0.9</text>
</g>

<g fill="#212121" fill-opacity="1" stroke="#212121" stroke-opacity="1" stroke-width="1" stroke-linecap="square" stroke-linejoin="bevel" transform="matrix(0.75,0,0,0.75,358.375,155.5)"
font-family="Palatino Linotype" font-size="13" font-weight="400" font-style="normal" 
>
<text fill="#212121" fill-opacity="1" stroke="none" xml:space="preserve" x="0" y="0" font-family="Palatino Linotype" font-size="13" font-weight="400" font-style="normal" 
 >1</text>
</g>

<g fill="#212121" fill-opacity="1" stroke="#212121" stroke-opacity="1" stroke-width="1" stroke-linecap="square" stroke-linejoin="bevel" transform="matrix(0,-0.75,0.75,0,9,120.75)"
font-family="Palatino Linotype" font-size="14" font-weight="400" font-style="normal" 
>
<text fill="#212121" fill-opacity="1" stroke="none" xml:space="preserve" x="0" y="0" font-family="Palatino Linotype" font-size="14" font-weight="400" font-style="normal" 
 >Relative Häufigkeit</text>
</g>

<g fill="#212121" fill-opacity="1" stroke="#212121" stroke-opacity="1" stroke-width="1.06667" stroke-linecap="square" stroke-linejoin="round" transform="matrix(0.75,0,0,0.75,-23.75,-7.5)"
font-family="Palatino Linotype" font-size="14" font-weight="400" font-style="normal" 
>
<polyline fill="none" vector-effect="none" points="74,202 74,18 " />
<polyline fill="none" vector-effect="none" points="513,202 513,18 " />
<polyline fill="none" vector-effect="none" points="74,202 78.39,202 " />
<polyline fill="none" vector-effect="none" points="508.61,202 513,202 " />
<polyline fill="none" vector-effect="none" points="74,165.2 78.39,165.2 " />
<polyline fill="none" vector-effect="none" points="508.61,165.2 513,165.2 " />
<polyline fill="none" vector-effect="none" points="74,128.4 78.39,128.4 " />
<polyline fill="none" vector-effect="none" points="508.61,128.4 513,128.4 " />
<polyline fill="none" vector-effect="none" points="74,91.6 78.39,91.6 " />
<polyline fill="none" vector-effect="none" points="508.61,91.6 513,91.6 " />
<polyline fill="none" vector-effect="none" points="74,54.8 78.39,54.8 " />
<polyline fill="none" vector-effect="none" points="508.61,54.8 513,54.8 " />
<polyline fill="none" vector-effect="none" points="74,18 78.39,18 " />
<polyline fill="none" vector-effect="none" points="508.61,18 513,18 " />
</g>

<g fill="#212121" fill-opacity="1" stroke="#212121" stroke-opacity="1" stroke-width="1" stroke-linecap="square" stroke-linejoin="bevel" transform="matrix(0.75,0,0,0.75,22.5,146.25)"
font-family="Palatino Linotype" font-size="13" font-weight="400" font-style="normal" 
>
<text fill="#212121" fill-opacity="1" stroke="none" xml:space="preserve" x="0" y="0" font-family="Palatino Linotype" font-size="13" font-weight="400" font-style="normal" 
 >0</text>
</g>

<g fill="#212121" fill-opacity="1" stroke="#212121" stroke-opacity="1" stroke-width="1" stroke-linecap="square" stroke-linejoin="bevel" transform="matrix(0.75,0,0,0.75,15,118.65)"
font-family="Palatino Linotype" font-size="13" font-weight="400" font-style="normal" 
>
<text fill="#212121" fill-opacity="1" stroke="none" xml:space="preserve" x="0" y="0" font-family="Palatino Linotype" font-size="13" font-weight="400" font-style="normal" 
 >0.2</text>
</g>

<g fill="#212121" fill-opacity="1" stroke="#212121" stroke-opacity="1" stroke-width="1" stroke-linecap="square" stroke-linejoin="bevel" transform="matrix(0.75,0,0,0.75,15,91.05)"
font-family="Palatino Linotype" font-size="13" font-weight="400" font-style="normal" 
>
<text fill="#212121" fill-opacity="1" stroke="none" xml:space="preserve" x="0" y="0" font-family="Palatino Linotype" font-size="13" font-weight="400" font-style="normal" 
 >0.4</text>
</g>

<g fill="#212121" fill-opacity="1" stroke="#212121" stroke-opacity="1" stroke-width="1" stroke-linecap="square" stroke-linejoin="bevel" transform="matrix(0.75,0,0,0.75,15,63.45)"
font-family="Palatino Linotype" font-size="13" font-weight="400" font-style="normal" 
>
<text fill="#212121" fill-opacity="1" stroke="none" xml:space="preserve" x="0" y="0" font-family="Palatino Linotype" font-size="13" font-weight="400" font-style="normal" 
 >0.6</text>
</g>

<g fill="#212121" fill-opacity="1" stroke="#212121" stroke-opacity="1" stroke-width="1" stroke-linecap="square" stroke-linejoin="bevel" transform="matrix(0.75,0,0,0.75,15,35.85)"
font-family="Palatino Linotype" font-size="13" font-weight="400" font-style="normal" 
>
<text fill="#212121" fill-opacity="1" stroke="none" xml:space="preserve" x="0" y="0" font-family="Palatino Linotype" font-size="13" font-weight="400" font-style="normal" 
 >0.8</text>
</g>

<g fill="#212121" fill-opacity="1" stroke="#212121" stroke-opacity="1" stroke-width="1" stroke-linecap="square" stroke-linejoin="bevel" transform="matrix(0.75,0,0,0.75,22.5,8.25)"
font-family="Palatino Linotype" font-size="13" font-weight="400" font-style="normal" 
>
<text fill="#212121" fill-opacity="1" stroke="none" xml:space="preserve" x="0" y="0" font-family="Palatino Linotype" font-size="13" font-weight="400" font-style="normal" 
 >1</text>
</g>

<g fill="none" stroke="#000000" stroke-opacity="1" stroke-width="2" stroke-linecap="butt" stroke-linejoin="miter" stroke-miterlimit="2" transform="matrix(0.75,0,0,0.75,-23.75,-7.5)"
font-family="Palatino Linotype" font-size="13" font-weight="400" font-style="normal" 
>
<polyline fill="none" vector-effect="none" points="74,36.4 85.2564,36.4 85.2564,202 96.5128,202 96.5128,202 107.769,202 107.769,202 119.026,202 119.026,190.96 130.282,190.96 130.282,202 141.538,202 141.538,202 152.795,202 152.795,202 164.051,202 164.051,202 175.308,202 175.308,202 186.564,202 186.564,202 197.821,202 197.821,202 209.077,202 209.077,202 220.333,202 220.333,198.32 231.59,198.32 231.59,202 242.846,202 242.846,202 254.103,202 254.103,202 265.359,202 265.359,202 276.615,202 276.615,202 287.872,202 287.872,202 299.128,202 299.128,202 310.385,202 310.385,202 321.641,202 321.641,202 332.897,202 332.897,202 344.154,202 344.154,202 355.41,202 355.41,202 366.667,202 366.667,202 377.923,202 377.923,198.32 389.18,198.32 389.18,202 400.436,202 400.436,202 411.692,202 411.692,202 422.949,202 422.949,202 434.205,202 434.205,202 445.462,202 445.462,202 456.718,202 456.718,202 467.974,202 467.974,202 479.231,202 479.231,202 490.487,202 490.487,202 501.744,202 501.744,202 513,202 513,202 " />
</g>

<g fill="none" stroke="#999999" stroke-opacity="1" stroke-dasharray="2,2" stroke-dashoffset="0" stroke-width="2" stroke-linecap="butt" stroke-linejoin="miter" stroke-miterlimit="2" transform="matrix(0.75,0,0,0.75,-23.75,-7.5)"
font-family="Palatino Linotype" font-size="13" font-weight="400" font-style="normal" 
>
<polyline fill="none" vector-effect="none" points="74,32.72 85.2564,32.72 85.2564,198.32 96.5128,198.32 96.5128,202 107.769,202 107.769,198.32 119.026,198.32 119.026,202 130.282,202 130.282,202 141.538,202 141.538,202 152.795,202 152.795,202 164.051,202 164.051,202 175.308,202 175.308,202 186.564,202 186.564,202 197.821,202 197.821,202 209.077,202 209.077,202 220.333,202 220.333,202 231.59,202 231.59,202 242.846,202 242.846,202 254.103,202 254.103,198.32 265.359,198.32 265.359,202 276.615,202 276.615,202 287.872,202 287.872,202 299.128,202 299.128,202 310.385,202 310.385,202 321.641,202 321.641,202 332.897,202 332.897,202 344.154,202 344.154,202 355.41,202 355.41,202 366.667,202 366.667,202 377.923,202 377.923,202 389.18,202 389.18,202 400.436,202 400.436,202 411.692,202 411.692,202 422.949,202 422.949,202 434.205,202 434.205,202 445.462,202 445.462,202 456.718,202 456.718,198.32 467.974,198.32 467.974,202 479.231,202 479.231,202 490.487,202 490.487,202 501.744,202 501.744,202 513,202 513,202 " />
</g>

<g fill="none" stroke="#4d4d4d" stroke-opacity="1" stroke-dasharray="8,8" stroke-dashoffset="0" stroke-width="2" stroke-linecap="butt" stroke-linejoin="miter" stroke-miterlimit="2" transform="matrix(0.75,0,0,0.75,-23.75,-7.5)"
font-family="Palatino Linotype" font-size="13" font-weight="400" font-style="normal" 
>
<polyline fill="none" vector-effect="none" points="74,43.76 85.2564,43.76 85.2564,202 96.5128,202 96.5128,202 107.769,202 107.769,198.32 119.026,198.32 119.026,202 130.282,202 130.282,202 141.538,202 141.538,202 152.795,202 152.795,202 164.051,202 164.051,202 175.308,202 175.308,198.32 186.564,198.32 186.564,202 197.821,202 197.821,202 209.077,202 209.077,202 220.333,202 220.333,202 231.59,202 231.59,202 242.846,202 242.846,202 254.103,202 254.103,202 265.359,202 265.359,202 276.615,202 276.615,198.32 287.872,198.32 287.872,202 299.128,202 299.128,202 310.385,202 310.385,198.32 321.641,198.32 321.641,202 332.897,202 332.897,202 344.154,202 344.154,202 355.41,202 355.41,202 366.667,202 366.667,202 377.923,202 377.923,202 389.18,202 389.18,202 400.436,202 400.436,202 411.692,202 411.692,202 422.949,202 422.949,202 434.205,202 434.205,202 445.462,202 445.462,202 456.718,202 456.718,202 467.974,202 467.974,202 479.231,202 479.231,202 490.487,202 490.487,202 501.744,202 501.744,190.96 513,190.96 513,190.96 " />
</g>

<g fill="#000000" fill-opacity="1" stroke="#000000" stroke-opacity="1" stroke-width="2" stroke-linecap="butt" stroke-linejoin="round" transform="matrix(0.75,0,0,0.75,-23.75,-7.5)"
font-family="Palatino Linotype" font-size="13" font-weight="400" font-style="normal" 
>
<polyline fill="none" vector-effect="none" points="95.95,202 95.95,18 " />
</g>

<g fill="#ffffff" fill-opacity="1" stroke="none" transform="matrix(7.5e-05,0,0,7.5e-05,-23.75,-7.5)"
font-family="Palatino Linotype" font-size="13" font-weight="400" font-style="normal" 
>
<path vector-effect="none" fill-rule="evenodd" d="M1.47e+06,270000 L1.47e+06,1.05e+06 L5.02e+06,1.05e+06 L5.02e+06,270000 L1.47e+06,270000"/>
</g>

<g fill="#000000" fill-opacity="1" stroke="#000000" stroke-opacity="1" stroke-width="2" stroke-linecap="butt" stroke-linejoin="round" transform="matrix(0.75,0,0,0.75,-23.75,-7.5)"
font-family="Palatino Linotype" font-size="13" font-weight="400" font-style="normal" 
>
<polyline fill="none" vector-effect="none" points="151,38.071 191,38.071 " />
</g>

<g fill="#999999" fill-opacity="1" stroke="#999999" stroke-opacity="1" stroke-dasharray="2,2" stroke-dashoffset="0" stroke-width="2" stroke-linecap="butt" stroke-linejoin="round" transform="matrix(0.75,0,0,0.75,-23.75,-7.5)"
font-family="Palatino Linotype" font-size="13" font-weight="400" font-style="normal" 
>
<polyline fill="none" vector-effect="none" points="151,56.6903 191,56.6903 " />
</g>

<g fill="#4d4d4d" fill-opacity="1" stroke="#4d4d4d" stroke-opacity="1" stroke-dasharray="8,8" stroke-dashoffset="0" stroke-width="2" stroke-linecap="butt" stroke-linejoin="round" transform="matrix(0.75,0,0,0.75,-23.75,-7.5)"
font-family="Palatino Linotype" font-size="13" font-weight="400" font-style="normal" 
>
<polyline fill="none" vector-effect="none" points="151,75.3097 191,75.3097 " />
</g>

<g fill="#000000" fill-opacity="1" stroke="#000000" stroke-opacity="1" stroke-width="2" stroke-linecap="butt" stroke-linejoin="round" transform="matrix(0.75,0,0,0.75,-23.75,-7.5)"
font-family="Palatino Linotype" font-size="13" font-weight="400" font-style="normal" 
>
<polyline fill="none" vector-effect="none" points="151,93.929 191,93.929 " />
</g>

<g fill="#212121" fill-opacity="1" stroke="#212121" stroke-opacity="1" stroke-width="1" stroke-linecap="square" stroke-linejoin="bevel" transform="matrix(0.75,0,0,0.75,121.75,23.3032)"
font-family="Palatino Linotype" font-size="13" font-weight="400" font-style="normal" 
>
<text fill="#212121" fill-opacity="1" stroke="none" xml:space="preserve" x="0" y="0" font-family="Palatino Linotype" font-size="13" font-weight="400" font-style="normal" 
 >Basis \ac{CCD}</text>
</g>

<g fill="#212121" fill-opacity="1" stroke="#212121" stroke-opacity="1" stroke-width="1" stroke-linecap="square" stroke-linejoin="bevel" transform="matrix(0.75,0,0,0.75,121.75,37.2677)"
font-family="Palatino Linotype" font-size="13" font-weight="400" font-style="normal" 
>
<text fill="#212121" fill-opacity="1" stroke="none" xml:space="preserve" x="0" y="0" font-family="Palatino Linotype" font-size="13" font-weight="400" font-style="normal" 
 >$\textnormal{\ac{CCD}}_{-\textnormal{\ac{AP}}}$</text>
</g>

<g fill="#212121" fill-opacity="1" stroke="#212121" stroke-opacity="1" stroke-width="1" stroke-linecap="square" stroke-linejoin="bevel" transform="matrix(0.75,0,0,0.75,121.75,51.2323)"
font-family="Palatino Linotype" font-size="13" font-weight="400" font-style="normal" 
>
<text fill="#212121" fill-opacity="1" stroke="none" xml:space="preserve" x="0" y="0" font-family="Palatino Linotype" font-size="13" font-weight="400" font-style="normal" 
 >\ac{EmALT}</text>
</g>

<g fill="#212121" fill-opacity="1" stroke="#212121" stroke-opacity="1" stroke-width="1" stroke-linecap="square" stroke-linejoin="bevel" transform="matrix(0.75,0,0,0.75,121.75,65.1968)"
font-family="Palatino Linotype" font-size="13" font-weight="400" font-style="normal" 
>
<text fill="#212121" fill-opacity="1" stroke="none" xml:space="preserve" x="0" y="0" font-family="Palatino Linotype" font-size="13" font-weight="400" font-style="normal" 
 >Signifikanz $\sym{alpha} = 0.05$</text>
</g>

<g fill="none" stroke="#212121" stroke-opacity="1" stroke-width="1.06667" stroke-linecap="butt" stroke-linejoin="miter" stroke-miterlimit="2" transform="matrix(0.75,0,0,0.75,-23.75,-7.5)"
font-family="Palatino Linotype" font-size="13" font-weight="400" font-style="normal" 
>
<path vector-effect="none" fill-rule="evenodd" d="M147,105 L147,27 L502,27 L502,105 L147,105"/>
</g>
</g>
</svg>
