<?xml version="1.0" encoding="UTF-8" standalone="no"?>
<svg width="107.597mm" height="105.128mm"
 viewBox="0 0 305 298"
 xmlns="http://www.w3.org/2000/svg" xmlns:xlink="http://www.w3.org/1999/xlink"  version="1.2" baseProfile="tiny">
<title>Qt SVG Document</title>
<desc>MATLAB, The MathWorks, Inc. Version 25.2.0.3042426 R2025b Update 1</desc>
<defs>
</defs>
<g fill="none" stroke="black" stroke-width="1" fill-rule="evenodd" stroke-linecap="square" stroke-linejoin="bevel" >

<g fill="#ffffff" fill-opacity="1" stroke="none" transform="matrix(0.75,0,0,0.75,-5.19005,-31.1)"
font-family="MS Shell Dlg 2" font-size="8.25" font-weight="400" font-style="normal" 
>
<path vector-effect="none" fill-rule="evenodd" d="M5,40 L413,40 L413,438 L5,438 L5,40"/>
</g>

<g fill="#ffffff" fill-opacity="1" stroke="none" transform="matrix(7.5e-05,0,0,7.5e-05,-5.19005,-31.1)"
font-family="MS Shell Dlg 2" font-size="8.25" font-weight="400" font-style="normal" 
>
<path vector-effect="none" fill-rule="evenodd" d="M610000,440000 L610000,3.94e+06 L4.11e+06,3.94e+06 L4.11e+06,440000 L610000,440000"/>
</g>

<g fill="#212121" fill-opacity="0.25098" stroke="#212121" stroke-opacity="0.25098" stroke-dasharray="1,3" stroke-dashoffset="0" stroke-width="1.06667" stroke-linecap="butt" stroke-linejoin="round" transform="matrix(0.75,0,0,0.75,-5.19005,-31.1)"
font-family="MS Shell Dlg 2" font-size="8.25" font-weight="400" font-style="normal" 
>
<polyline fill="none" vector-effect="none" points="99.5842,44 99.5842,394 " />
<polyline fill="none" vector-effect="none" points="139.539,44 139.539,394 " />
<polyline fill="none" vector-effect="none" points="236,44 236,394 " />
<polyline fill="none" vector-effect="none" points="332.461,44 332.461,394 " />
<polyline fill="none" vector-effect="none" points="372.416,44 372.416,394 " />
<polyline fill="none" vector-effect="none" points="61,355.416 411,355.416 " />
<polyline fill="none" vector-effect="none" points="61,315.461 411,315.461 " />
<polyline fill="none" vector-effect="none" points="61,219 411,219 " />
<polyline fill="none" vector-effect="none" points="61,122.539 411,122.539 " />
<polyline fill="none" vector-effect="none" points="61,82.5842 411,82.5842 " />
</g>

<g fill="#212121" fill-opacity="1" stroke="none" transform="matrix(0.75,0,0,0.75,165.932,294.389)"
font-family="MS Shell Dlg 2" font-size="8.25" font-weight="400" font-style="normal" 
>
<path vector-effect="none" fill-rule="evenodd" d="M1.25,-0.46875 C1.4375,-0.322917 1.70313,-0.25 2.04688,-0.25 C2.38021,-0.25 2.67448,-0.408854 2.92969,-0.726563 C3.1849,-1.04427 3.35938,-1.39583 3.45313,-1.78125 L4.1875,-4.60938 C4.30208,-5.13021 4.35938,-5.48438 4.35938,-5.67188 C4.35938,-5.93229 4.28385,-6.16146 4.13281,-6.35938 C3.98177,-6.55729 3.77604,-6.65625 3.51563,-6.65625 C3.17188,-6.65625 2.85156,-6.55208 2.55469,-6.34375 C2.25781,-6.13542 2.00781,-5.86719 1.80469,-5.53906 C1.60156,-5.21094 1.45833,-4.88021 1.375,-4.54688 C1.35417,-4.48438 1.3125,-4.45313 1.25,-4.45313 L1.0625,-4.45313 C0.979167,-4.45313 0.9375,-4.5 0.9375,-4.59375 L0.9375,-4.64063 C1.04167,-5.03646 1.21875,-5.42448 1.46875,-5.80469 C1.71875,-6.1849 2.02344,-6.49219 2.38281,-6.72656 C2.74219,-6.96094 3.13021,-7.07813 3.54688,-7.07813 C3.93229,-7.07813 4.28385,-6.97396 4.60156,-6.76563 C4.91927,-6.55729 5.14063,-6.27083 5.26563,-5.90625 C5.45313,-6.23958 5.6875,-6.51823 5.96875,-6.74219 C6.25,-6.96615 6.5625,-7.07813 6.90625,-7.07813 C7.13542,-7.07813 7.36979,-7.03646 7.60938,-6.95313 C7.84896,-6.86979 8.04427,-6.74479 8.19531,-6.57813 C8.34635,-6.41146 8.42188,-6.20313 8.42188,-5.95313 C8.42188,-5.68229 8.33333,-5.45052 8.15625,-5.25781 C7.97917,-5.0651 7.75521,-4.96875 7.48438,-4.96875 C7.31771,-4.96875 7.17708,-5.02344 7.0625,-5.13281 C6.94792,-5.24219 6.89063,-5.38021 6.89063,-5.54688 C6.89063,-5.76563 6.96615,-5.96094 7.11719,-6.13281 C7.26823,-6.30469 7.45313,-6.40625 7.67188,-6.4375 C7.47396,-6.58333 7.20833,-6.65625 6.875,-6.65625 C6.53125,-6.65625 6.23177,-6.4974 5.97656,-6.17969 C5.72135,-5.86198 5.54167,-5.51042 5.4375,-5.125 L4.73438,-2.29688 C4.61979,-1.86979 4.5625,-1.51563 4.5625,-1.23438 C4.5625,-0.963542 4.64063,-0.731771 4.79688,-0.539063 C4.95313,-0.346354 5.15625,-0.25 5.40625,-0.25 C5.90625,-0.25 6.35417,-0.46875 6.75,-0.90625 C7.14583,-1.34375 7.40625,-1.82813 7.53125,-2.35938 C7.55208,-2.42188 7.59375,-2.45313 7.65625,-2.45313 L7.84375,-2.45313 C7.88542,-2.45313 7.91927,-2.4375 7.94531,-2.40625 C7.97135,-2.375 7.98438,-2.34375 7.98438,-2.3125 C7.98438,-2.30208 7.97917,-2.28646 7.96875,-2.26563 C7.82292,-1.63021 7.50781,-1.0625 7.02344,-0.5625 C6.53906,-0.0625 5.98958,0.1875 5.375,0.1875 C4.98958,0.1875 4.63802,0.0807292 4.32031,-0.132813 C4.0026,-0.346354 3.78125,-0.635417 3.65625,-1 C3.48958,-0.6875 3.25781,-0.411458 2.96094,-0.171875 C2.66406,0.0677083 2.34896,0.1875 2.01563,0.1875 C1.78646,0.1875 1.55208,0.145833 1.3125,0.0625 C1.07292,-0.0208333 0.877604,-0.145833 0.726563,-0.3125 C0.575521,-0.479167 0.5,-0.692708 0.5,-0.953125 C0.5,-1.20313 0.585938,-1.42969 0.757813,-1.63281 C0.929688,-1.83594 1.14583,-1.9375 1.40625,-1.9375 C1.58333,-1.9375 1.73177,-1.88542 1.85156,-1.78125 C1.97135,-1.67708 2.03125,-1.53646 2.03125,-1.35938 C2.03125,-1.14063 1.95833,-0.947917 1.8125,-0.78125 C1.66667,-0.614583 1.47917,-0.510417 1.25,-0.46875 "/>
</g>

<g fill="#212121" fill-opacity="1" stroke="none" transform="matrix(0.75,0,0,0.75,172.848,296.204)"
font-family="MS Shell Dlg 2" font-size="8.25" font-weight="400" font-style="normal" 
>
<path vector-effect="none" fill-rule="evenodd" d="M1.01563,0 L1.01563,-0.390625 C1.93229,-0.390625 2.39063,-0.505208 2.39063,-0.734375 L2.39063,-6.51563 C2.01563,-6.32813 1.53646,-6.23438 0.953125,-6.23438 L0.953125,-6.625 C1.84896,-6.625 2.52604,-6.85938 2.98438,-7.32813 L3.14063,-7.32813 C3.17188,-7.32813 3.19792,-7.31771 3.21875,-7.29688 C3.23958,-7.27604 3.25,-7.25521 3.25,-7.23438 L3.25,-0.734375 C3.25,-0.505208 3.70833,-0.390625 4.625,-0.390625 L4.625,0 L1.01563,0"/>
</g>

<g fill="#212121" fill-opacity="1" stroke="#212121" stroke-opacity="1" stroke-width="1.06667" stroke-linecap="square" stroke-linejoin="round" transform="matrix(0.75,0,0,0.75,-5.19005,-31.1)"
font-family="MS Shell Dlg 2" font-size="8.25" font-weight="400" font-style="normal" 
>
<polyline fill="none" vector-effect="none" points="61,394 411,394 " />
<polyline fill="none" vector-effect="none" points="61,44 411,44 " />
<polyline fill="none" vector-effect="none" points="99.5842,394 99.5842,390.5 " />
<polyline fill="none" vector-effect="none" points="99.5842,47.5 99.5842,44 " />
<polyline fill="none" vector-effect="none" points="139.539,394 139.539,390.5 " />
<polyline fill="none" vector-effect="none" points="139.539,47.5 139.539,44 " />
<polyline fill="none" vector-effect="none" points="236,394 236,390.5 " />
<polyline fill="none" vector-effect="none" points="236,47.5 236,44 " />
<polyline fill="none" vector-effect="none" points="332.461,394 332.461,390.5 " />
<polyline fill="none" vector-effect="none" points="332.461,47.5 332.461,44 " />
<polyline fill="none" vector-effect="none" points="372.416,394 372.416,390.5 " />
<polyline fill="none" vector-effect="none" points="372.416,47.5 372.416,44 " />
</g>

<g fill="#212121" fill-opacity="1" stroke="none" transform="matrix(0.75,0,0,0.75,58.1325,277.84)"
font-family="MS Shell Dlg 2" font-size="8.25" font-weight="400" font-style="normal" 
>
<path vector-effect="none" fill-rule="evenodd" d="M1.42188,-3.21875 C1.34896,-3.21875 1.28646,-3.2474 1.23438,-3.30469 C1.18229,-3.36198 1.15625,-3.42708 1.15625,-3.5 C1.15625,-3.57292 1.18229,-3.63802 1.23438,-3.69531 C1.28646,-3.7526 1.34896,-3.78125 1.42188,-3.78125 L9.46875,-3.78125 C9.54167,-3.78125 9.60156,-3.7526 9.64844,-3.69531 C9.69531,-3.63802 9.71875,-3.57292 9.71875,-3.5 C9.71875,-3.42708 9.69531,-3.36198 9.64844,-3.30469 C9.60156,-3.2474 9.54167,-3.21875 9.46875,-3.21875 L1.42188,-3.21875"/>
</g>

<g fill="#212121" fill-opacity="1" stroke="none" transform="matrix(0.75,0,0,0.75,66.6881,277.84)"
font-family="MS Shell Dlg 2" font-size="8.25" font-weight="400" font-style="normal" 
>
<path vector-effect="none" fill-rule="evenodd" d="M2.8125,0.15625 C2.375,0.15625 1.98438,0.0520833 1.64063,-0.15625 C1.29688,-0.364583 1.03125,-0.645833 0.84375,-1 C0.65625,-1.35417 0.5625,-1.76042 0.5625,-2.21875 C0.5625,-2.85417 0.739583,-3.48177 1.09375,-4.10156 C1.44792,-4.72135 1.91667,-5.22396 2.5,-5.60938 C3.08333,-5.99479 3.69792,-6.1875 4.34375,-6.1875 C4.8125,-6.1875 5.22656,-6.0625 5.58594,-5.8125 C5.94531,-5.5625 6.21875,-5.23177 6.40625,-4.82031 C6.59375,-4.40885 6.6875,-3.96875 6.6875,-3.5 L6.70313,-2.5625 C7.02604,-3.01042 7.29688,-3.47135 7.51563,-3.94531 C7.73438,-4.41927 7.90625,-4.91146 8.03125,-5.42188 C8.04167,-5.47396 8.07813,-5.5 8.14063,-5.5 L8.29688,-5.5 C8.38021,-5.5 8.42188,-5.45833 8.42188,-5.375 C8.42188,-5.36458 8.42188,-5.34896 8.42188,-5.32813 C8.30729,-4.90104 8.16927,-4.49219 8.00781,-4.10156 C7.84635,-3.71094 7.65365,-3.33073 7.42969,-2.96094 C7.20573,-2.59115 6.96354,-2.25521 6.70313,-1.95313 C6.70313,-0.796875 6.83854,-0.21875 7.10938,-0.21875 C7.28646,-0.21875 7.42969,-0.270833 7.53906,-0.375 C7.64844,-0.479167 7.74479,-0.606771 7.82813,-0.757813 C7.91146,-0.908854 7.96354,-0.984375 7.98438,-0.984375 L8.15625,-0.984375 C8.22917,-0.984375 8.26563,-0.9375 8.26563,-0.84375 C8.26563,-0.614583 8.13281,-0.390625 7.86719,-0.171875 C7.60156,0.046875 7.33854,0.15625 7.07813,0.15625 C6.74479,0.15625 6.46615,0.046875 6.24219,-0.171875 C6.01823,-0.390625 5.86458,-0.677083 5.78125,-1.03125 C5.34375,-0.65625 4.86979,-0.364583 4.35938,-0.15625 C3.84896,0.0520833 3.33333,0.15625 2.8125,0.15625 M2.84375,-0.21875 C3.84375,-0.21875 4.80208,-0.630208 5.71875,-1.45313 C5.70833,-1.50521 5.70052,-1.57031 5.69531,-1.64844 C5.6901,-1.72656 5.6875,-1.77083 5.6875,-1.78125 L5.6875,-3.29688 C5.6875,-4.98438 5.22917,-5.82813 4.3125,-5.82813 C3.77083,-5.82813 3.29427,-5.59375 2.88281,-5.125 C2.47135,-4.65625 2.16146,-4.09896 1.95313,-3.45313 C1.74479,-2.80729 1.64063,-2.21354 1.64063,-1.67188 C1.64063,-1.26563 1.74479,-0.921875 1.95313,-0.640625 C2.16146,-0.359375 2.45833,-0.21875 2.84375,-0.21875 "/>
</g>

<g fill="#212121" fill-opacity="1" stroke="none" transform="matrix(0.75,0,0,0.75,73.7248,279.49)"
font-family="MS Shell Dlg 2" font-size="8.25" font-weight="400" font-style="normal" 
>
<path vector-effect="none" fill-rule="evenodd" d="M0.484375,0 C0.421875,0 0.390625,-0.0416667 0.390625,-0.125 C0.390625,-0.145833 0.395833,-0.177083 0.40625,-0.21875 C0.416667,-0.260417 0.432292,-0.294271 0.453125,-0.320313 C0.473958,-0.346354 0.494792,-0.359375 0.515625,-0.359375 C0.921875,-0.359375 1.20833,-0.380208 1.375,-0.421875 C1.45833,-0.453125 1.52083,-0.541667 1.5625,-0.6875 L2.9375,-6.1875 C2.94792,-6.25 2.95313,-6.29167 2.95313,-6.3125 C2.95313,-6.38542 2.91146,-6.42708 2.82813,-6.4375 C2.70313,-6.46875 2.46354,-6.48438 2.10938,-6.48438 C2.04688,-6.48438 2.01563,-6.52604 2.01563,-6.60938 C2.01563,-6.63021 2.02083,-6.66146 2.03125,-6.70313 C2.04167,-6.74479 2.05469,-6.77604 2.07031,-6.79688 C2.08594,-6.81771 2.10938,-6.82813 2.14063,-6.82813 L5.73438,-6.82813 C6.20313,-6.82813 6.60938,-6.71615 6.95313,-6.49219 C7.29688,-6.26823 7.5625,-5.96354 7.75,-5.57813 C7.9375,-5.19271 8.03125,-4.77083 8.03125,-4.3125 C8.03125,-3.80208 7.92448,-3.29167 7.71094,-2.78125 C7.4974,-2.27083 7.20052,-1.80469 6.82031,-1.38281 C6.4401,-0.960938 6.00781,-0.625 5.52344,-0.375 C5.03906,-0.125 4.53646,0 4.01563,0 L0.484375,0 M2.35938,-0.4375 C2.35938,-0.385417 2.47396,-0.359375 2.70313,-0.359375 L3.85938,-0.359375 C4.23438,-0.359375 4.59375,-0.434896 4.9375,-0.585938 C5.28125,-0.736979 5.58854,-0.947917 5.85938,-1.21875 C6.10938,-1.46875 6.33073,-1.79688 6.52344,-2.20313 C6.71615,-2.60938 6.86458,-3.03385 6.96875,-3.47656 C7.07292,-3.91927 7.125,-4.32292 7.125,-4.6875 C7.125,-4.95833 7.08594,-5.20313 7.00781,-5.42188 C6.92969,-5.64063 6.81771,-5.82813 6.67188,-5.98438 C6.52604,-6.14063 6.34375,-6.26302 6.125,-6.35156 C5.90625,-6.4401 5.66146,-6.48438 5.39063,-6.48438 L4.29688,-6.48438 C4.10938,-6.48438 3.98698,-6.46875 3.92969,-6.4375 C3.8724,-6.40625 3.81771,-6.30729 3.76563,-6.14063 L2.40625,-0.65625 C2.375,-0.572917 2.35938,-0.5 2.35938,-0.4375 "/>
</g>

<g fill="#212121" fill-opacity="1" stroke="none" transform="matrix(0.75,0,0,0.75,92.4368,277.84)"
font-family="MS Shell Dlg 2" font-size="8.25" font-weight="400" font-style="normal" 
>
<path vector-effect="none" fill-rule="evenodd" d="M1.42188,-3.21875 C1.34896,-3.21875 1.28646,-3.2474 1.23438,-3.30469 C1.18229,-3.36198 1.15625,-3.42708 1.15625,-3.5 C1.15625,-3.57292 1.18229,-3.63802 1.23438,-3.69531 C1.28646,-3.7526 1.34896,-3.78125 1.42188,-3.78125 L9.46875,-3.78125 C9.54167,-3.78125 9.60156,-3.7526 9.64844,-3.69531 C9.69531,-3.63802 9.71875,-3.57292 9.71875,-3.5 C9.71875,-3.42708 9.69531,-3.36198 9.64844,-3.30469 C9.60156,-3.2474 9.54167,-3.21875 9.46875,-3.21875 L1.42188,-3.21875"/>
</g>

<g fill="#212121" fill-opacity="1" stroke="none" transform="matrix(0.75,0,0,0.75,100.992,277.84)"
font-family="MS Shell Dlg 2" font-size="8.25" font-weight="400" font-style="normal" 
>
<path vector-effect="none" fill-rule="evenodd" d="M1.29688,0 L1.29688,-0.5 C2.46354,-0.5 3.04688,-0.645833 3.04688,-0.9375 L3.04688,-8.28125 C2.56771,-8.05208 1.95833,-7.9375 1.21875,-7.9375 L1.21875,-8.42188 C2.36458,-8.42188 3.22917,-8.72396 3.8125,-9.32813 L4,-9.32813 C4.03125,-9.32813 4.0625,-9.3151 4.09375,-9.28906 C4.125,-9.26302 4.14063,-9.23438 4.14063,-9.20313 L4.14063,-0.9375 C4.14063,-0.645833 4.72396,-0.5 5.89063,-0.5 L5.89063,0 L1.29688,0"/>
</g>

<g fill="#212121" fill-opacity="1" stroke="none" transform="matrix(0.75,0,0,0.75,169.06,277.84)"
font-family="MS Shell Dlg 2" font-size="8.25" font-weight="400" font-style="normal" 
>
<path vector-effect="none" fill-rule="evenodd" d="M3.5,0.3125 C2.35417,0.3125 1.57552,-0.158854 1.16406,-1.10156 C0.752604,-2.04427 0.546875,-3.16667 0.546875,-4.46875 C0.546875,-5.28125 0.619792,-6.04427 0.765625,-6.75781 C0.911458,-7.47135 1.20573,-8.07813 1.64844,-8.57813 C2.09115,-9.07813 2.70833,-9.32813 3.5,-9.32813 C4.11458,-9.32813 4.61719,-9.17708 5.00781,-8.875 C5.39844,-8.57292 5.69792,-8.1849 5.90625,-7.71094 C6.11458,-7.23698 6.25521,-6.72656 6.32813,-6.17969 C6.40104,-5.63281 6.4375,-5.0625 6.4375,-4.46875 C6.4375,-3.66667 6.36458,-2.91406 6.21875,-2.21094 C6.07292,-1.50781 5.78385,-0.911458 5.35156,-0.421875 C4.91927,0.0677083 4.30208,0.3125 3.5,0.3125 M3.5,-0.0625 C4.02083,-0.0625 4.40885,-0.328125 4.66406,-0.859375 C4.91927,-1.39063 5.07552,-1.97917 5.13281,-2.625 C5.1901,-3.27083 5.21875,-3.95833 5.21875,-4.6875 C5.21875,-5.39583 5.1901,-6.04427 5.13281,-6.63281 C5.07552,-7.22135 4.91927,-7.75781 4.66406,-8.24219 C4.40885,-8.72656 4.02083,-8.96875 3.5,-8.96875 C2.96875,-8.96875 2.57552,-8.72656 2.32031,-8.24219 C2.0651,-7.75781 1.90885,-7.22135 1.85156,-6.63281 C1.79427,-6.04427 1.76563,-5.39583 1.76563,-4.6875 C1.76563,-4.16667 1.77865,-3.67708 1.80469,-3.21875 C1.83073,-2.76042 1.89844,-2.28646 2.00781,-1.79688 C2.11719,-1.30729 2.29427,-0.895833 2.53906,-0.5625 C2.78385,-0.229167 3.10417,-0.0625 3.5,-0.0625 "/>
</g>

<g fill="#212121" fill-opacity="1" stroke="none" transform="matrix(0.75,0,0,0.75,237.128,277.84)"
font-family="MS Shell Dlg 2" font-size="8.25" font-weight="400" font-style="normal" 
>
<path vector-effect="none" fill-rule="evenodd" d="M1.04688,-3.21875 C0.973958,-3.21875 0.911458,-3.2474 0.859375,-3.30469 C0.807292,-3.36198 0.78125,-3.42708 0.78125,-3.5 C0.78125,-3.57292 0.807292,-3.63802 0.859375,-3.69531 C0.911458,-3.7526 0.973958,-3.78125 1.04688,-3.78125 L5.17188,-3.78125 L5.17188,-7.90625 C5.17188,-7.97917 5.19792,-8.03906 5.25,-8.08594 C5.30208,-8.13281 5.36979,-8.15625 5.45313,-8.15625 C5.51563,-8.15625 5.57813,-8.13281 5.64063,-8.08594 C5.70313,-8.03906 5.73438,-7.97917 5.73438,-7.90625 L5.73438,-3.78125 L9.84375,-3.78125 C9.91667,-3.78125 9.97656,-3.7526 10.0234,-3.69531 C10.0703,-3.63802 10.0938,-3.57292 10.0938,-3.5 C10.0938,-3.42708 10.0703,-3.36198 10.0234,-3.30469 C9.97656,-3.2474 9.91667,-3.21875 9.84375,-3.21875 L5.73438,-3.21875 L5.73438,0.90625 C5.73438,0.979167 5.70313,1.03906 5.64063,1.08594 C5.57813,1.13281 5.51563,1.15625 5.45313,1.15625 C5.36979,1.15625 5.30208,1.13281 5.25,1.08594 C5.19792,1.03906 5.17188,0.979167 5.17188,0.90625 L5.17188,-3.21875 L1.04688,-3.21875"/>
</g>

<g fill="#212121" fill-opacity="1" stroke="none" transform="matrix(0.75,0,0,0.75,245.683,277.84)"
font-family="MS Shell Dlg 2" font-size="8.25" font-weight="400" font-style="normal" 
>
<path vector-effect="none" fill-rule="evenodd" d="M1.29688,0 L1.29688,-0.5 C2.46354,-0.5 3.04688,-0.645833 3.04688,-0.9375 L3.04688,-8.28125 C2.56771,-8.05208 1.95833,-7.9375 1.21875,-7.9375 L1.21875,-8.42188 C2.36458,-8.42188 3.22917,-8.72396 3.8125,-9.32813 L4,-9.32813 C4.03125,-9.32813 4.0625,-9.3151 4.09375,-9.28906 C4.125,-9.26302 4.14063,-9.23438 4.14063,-9.20313 L4.14063,-0.9375 C4.14063,-0.645833 4.72396,-0.5 5.89063,-0.5 L5.89063,0 L1.29688,0"/>
</g>

<g fill="#212121" fill-opacity="1" stroke="none" transform="matrix(0.75,0,0,0.75,262.756,277.84)"
font-family="MS Shell Dlg 2" font-size="8.25" font-weight="400" font-style="normal" 
>
<path vector-effect="none" fill-rule="evenodd" d="M1.04688,-3.21875 C0.973958,-3.21875 0.911458,-3.2474 0.859375,-3.30469 C0.807292,-3.36198 0.78125,-3.42708 0.78125,-3.5 C0.78125,-3.57292 0.807292,-3.63802 0.859375,-3.69531 C0.911458,-3.7526 0.973958,-3.78125 1.04688,-3.78125 L5.17188,-3.78125 L5.17188,-7.90625 C5.17188,-7.97917 5.19792,-8.03906 5.25,-8.08594 C5.30208,-8.13281 5.36979,-8.15625 5.45313,-8.15625 C5.51563,-8.15625 5.57813,-8.13281 5.64063,-8.08594 C5.70313,-8.03906 5.73438,-7.97917 5.73438,-7.90625 L5.73438,-3.78125 L9.84375,-3.78125 C9.91667,-3.78125 9.97656,-3.7526 10.0234,-3.69531 C10.0703,-3.63802 10.0938,-3.57292 10.0938,-3.5 C10.0938,-3.42708 10.0703,-3.36198 10.0234,-3.30469 C9.97656,-3.2474 9.91667,-3.21875 9.84375,-3.21875 L5.73438,-3.21875 L5.73438,0.90625 C5.73438,0.979167 5.70313,1.03906 5.64063,1.08594 C5.57813,1.13281 5.51563,1.15625 5.45313,1.15625 C5.36979,1.15625 5.30208,1.13281 5.25,1.08594 C5.19792,1.03906 5.17188,0.979167 5.17188,0.90625 L5.17188,-3.21875 L1.04688,-3.21875"/>
</g>

<g fill="#212121" fill-opacity="1" stroke="none" transform="matrix(0.75,0,0,0.75,271.312,277.84)"
font-family="MS Shell Dlg 2" font-size="8.25" font-weight="400" font-style="normal" 
>
<path vector-effect="none" fill-rule="evenodd" d="M2.8125,0.15625 C2.375,0.15625 1.98438,0.0520833 1.64063,-0.15625 C1.29688,-0.364583 1.03125,-0.645833 0.84375,-1 C0.65625,-1.35417 0.5625,-1.76042 0.5625,-2.21875 C0.5625,-2.85417 0.739583,-3.48177 1.09375,-4.10156 C1.44792,-4.72135 1.91667,-5.22396 2.5,-5.60938 C3.08333,-5.99479 3.69792,-6.1875 4.34375,-6.1875 C4.8125,-6.1875 5.22656,-6.0625 5.58594,-5.8125 C5.94531,-5.5625 6.21875,-5.23177 6.40625,-4.82031 C6.59375,-4.40885 6.6875,-3.96875 6.6875,-3.5 L6.70313,-2.5625 C7.02604,-3.01042 7.29688,-3.47135 7.51563,-3.94531 C7.73438,-4.41927 7.90625,-4.91146 8.03125,-5.42188 C8.04167,-5.47396 8.07813,-5.5 8.14063,-5.5 L8.29688,-5.5 C8.38021,-5.5 8.42188,-5.45833 8.42188,-5.375 C8.42188,-5.36458 8.42188,-5.34896 8.42188,-5.32813 C8.30729,-4.90104 8.16927,-4.49219 8.00781,-4.10156 C7.84635,-3.71094 7.65365,-3.33073 7.42969,-2.96094 C7.20573,-2.59115 6.96354,-2.25521 6.70313,-1.95313 C6.70313,-0.796875 6.83854,-0.21875 7.10938,-0.21875 C7.28646,-0.21875 7.42969,-0.270833 7.53906,-0.375 C7.64844,-0.479167 7.74479,-0.606771 7.82813,-0.757813 C7.91146,-0.908854 7.96354,-0.984375 7.98438,-0.984375 L8.15625,-0.984375 C8.22917,-0.984375 8.26563,-0.9375 8.26563,-0.84375 C8.26563,-0.614583 8.13281,-0.390625 7.86719,-0.171875 C7.60156,0.046875 7.33854,0.15625 7.07813,0.15625 C6.74479,0.15625 6.46615,0.046875 6.24219,-0.171875 C6.01823,-0.390625 5.86458,-0.677083 5.78125,-1.03125 C5.34375,-0.65625 4.86979,-0.364583 4.35938,-0.15625 C3.84896,0.0520833 3.33333,0.15625 2.8125,0.15625 M2.84375,-0.21875 C3.84375,-0.21875 4.80208,-0.630208 5.71875,-1.45313 C5.70833,-1.50521 5.70052,-1.57031 5.69531,-1.64844 C5.6901,-1.72656 5.6875,-1.77083 5.6875,-1.78125 L5.6875,-3.29688 C5.6875,-4.98438 5.22917,-5.82813 4.3125,-5.82813 C3.77083,-5.82813 3.29427,-5.59375 2.88281,-5.125 C2.47135,-4.65625 2.16146,-4.09896 1.95313,-3.45313 C1.74479,-2.80729 1.64063,-2.21354 1.64063,-1.67188 C1.64063,-1.26563 1.74479,-0.921875 1.95313,-0.640625 C2.16146,-0.359375 2.45833,-0.21875 2.84375,-0.21875 "/>
</g>

<g fill="#212121" fill-opacity="1" stroke="none" transform="matrix(0.75,0,0,0.75,278.349,279.49)"
font-family="MS Shell Dlg 2" font-size="8.25" font-weight="400" font-style="normal" 
>
<path vector-effect="none" fill-rule="evenodd" d="M0.484375,0 C0.421875,0 0.390625,-0.0416667 0.390625,-0.125 C0.390625,-0.145833 0.395833,-0.177083 0.40625,-0.21875 C0.416667,-0.260417 0.432292,-0.294271 0.453125,-0.320313 C0.473958,-0.346354 0.494792,-0.359375 0.515625,-0.359375 C0.921875,-0.359375 1.20833,-0.380208 1.375,-0.421875 C1.45833,-0.453125 1.52083,-0.541667 1.5625,-0.6875 L2.9375,-6.1875 C2.94792,-6.25 2.95313,-6.29167 2.95313,-6.3125 C2.95313,-6.38542 2.91146,-6.42708 2.82813,-6.4375 C2.70313,-6.46875 2.46354,-6.48438 2.10938,-6.48438 C2.04688,-6.48438 2.01563,-6.52604 2.01563,-6.60938 C2.01563,-6.63021 2.02083,-6.66146 2.03125,-6.70313 C2.04167,-6.74479 2.05469,-6.77604 2.07031,-6.79688 C2.08594,-6.81771 2.10938,-6.82813 2.14063,-6.82813 L5.73438,-6.82813 C6.20313,-6.82813 6.60938,-6.71615 6.95313,-6.49219 C7.29688,-6.26823 7.5625,-5.96354 7.75,-5.57813 C7.9375,-5.19271 8.03125,-4.77083 8.03125,-4.3125 C8.03125,-3.80208 7.92448,-3.29167 7.71094,-2.78125 C7.4974,-2.27083 7.20052,-1.80469 6.82031,-1.38281 C6.4401,-0.960938 6.00781,-0.625 5.52344,-0.375 C5.03906,-0.125 4.53646,0 4.01563,0 L0.484375,0 M2.35938,-0.4375 C2.35938,-0.385417 2.47396,-0.359375 2.70313,-0.359375 L3.85938,-0.359375 C4.23438,-0.359375 4.59375,-0.434896 4.9375,-0.585938 C5.28125,-0.736979 5.58854,-0.947917 5.85938,-1.21875 C6.10938,-1.46875 6.33073,-1.79688 6.52344,-2.20313 C6.71615,-2.60938 6.86458,-3.03385 6.96875,-3.47656 C7.07292,-3.91927 7.125,-4.32292 7.125,-4.6875 C7.125,-4.95833 7.08594,-5.20313 7.00781,-5.42188 C6.92969,-5.64063 6.81771,-5.82813 6.67188,-5.98438 C6.52604,-6.14063 6.34375,-6.26302 6.125,-6.35156 C5.90625,-6.4401 5.66146,-6.48438 5.39063,-6.48438 L4.29688,-6.48438 C4.10938,-6.48438 3.98698,-6.46875 3.92969,-6.4375 C3.8724,-6.40625 3.81771,-6.30729 3.76563,-6.14063 L2.40625,-0.65625 C2.375,-0.572917 2.35938,-0.5 2.35938,-0.4375 "/>
</g>

<g fill="#212121" fill-opacity="1" stroke="none" transform="matrix(0,-0.75,0.75,0,6.75,139.028)"
font-family="MS Shell Dlg 2" font-size="8.25" font-weight="400" font-style="normal" 
>
<path vector-effect="none" fill-rule="evenodd" d="M1.25,-0.46875 C1.4375,-0.322917 1.70313,-0.25 2.04688,-0.25 C2.38021,-0.25 2.67448,-0.408854 2.92969,-0.726563 C3.1849,-1.04427 3.35938,-1.39583 3.45313,-1.78125 L4.1875,-4.60938 C4.30208,-5.13021 4.35938,-5.48438 4.35938,-5.67188 C4.35938,-5.93229 4.28385,-6.16146 4.13281,-6.35938 C3.98177,-6.55729 3.77604,-6.65625 3.51563,-6.65625 C3.17188,-6.65625 2.85156,-6.55208 2.55469,-6.34375 C2.25781,-6.13542 2.00781,-5.86719 1.80469,-5.53906 C1.60156,-5.21094 1.45833,-4.88021 1.375,-4.54688 C1.35417,-4.48438 1.3125,-4.45313 1.25,-4.45313 L1.0625,-4.45313 C0.979167,-4.45313 0.9375,-4.5 0.9375,-4.59375 L0.9375,-4.64063 C1.04167,-5.03646 1.21875,-5.42448 1.46875,-5.80469 C1.71875,-6.1849 2.02344,-6.49219 2.38281,-6.72656 C2.74219,-6.96094 3.13021,-7.07813 3.54688,-7.07813 C3.93229,-7.07813 4.28385,-6.97396 4.60156,-6.76563 C4.91927,-6.55729 5.14063,-6.27083 5.26563,-5.90625 C5.45313,-6.23958 5.6875,-6.51823 5.96875,-6.74219 C6.25,-6.96615 6.5625,-7.07813 6.90625,-7.07813 C7.13542,-7.07813 7.36979,-7.03646 7.60938,-6.95313 C7.84896,-6.86979 8.04427,-6.74479 8.19531,-6.57813 C8.34635,-6.41146 8.42188,-6.20313 8.42188,-5.95313 C8.42188,-5.68229 8.33333,-5.45052 8.15625,-5.25781 C7.97917,-5.0651 7.75521,-4.96875 7.48438,-4.96875 C7.31771,-4.96875 7.17708,-5.02344 7.0625,-5.13281 C6.94792,-5.24219 6.89063,-5.38021 6.89063,-5.54688 C6.89063,-5.76563 6.96615,-5.96094 7.11719,-6.13281 C7.26823,-6.30469 7.45313,-6.40625 7.67188,-6.4375 C7.47396,-6.58333 7.20833,-6.65625 6.875,-6.65625 C6.53125,-6.65625 6.23177,-6.4974 5.97656,-6.17969 C5.72135,-5.86198 5.54167,-5.51042 5.4375,-5.125 L4.73438,-2.29688 C4.61979,-1.86979 4.5625,-1.51563 4.5625,-1.23438 C4.5625,-0.963542 4.64063,-0.731771 4.79688,-0.539063 C4.95313,-0.346354 5.15625,-0.25 5.40625,-0.25 C5.90625,-0.25 6.35417,-0.46875 6.75,-0.90625 C7.14583,-1.34375 7.40625,-1.82813 7.53125,-2.35938 C7.55208,-2.42188 7.59375,-2.45313 7.65625,-2.45313 L7.84375,-2.45313 C7.88542,-2.45313 7.91927,-2.4375 7.94531,-2.40625 C7.97135,-2.375 7.98438,-2.34375 7.98438,-2.3125 C7.98438,-2.30208 7.97917,-2.28646 7.96875,-2.26563 C7.82292,-1.63021 7.50781,-1.0625 7.02344,-0.5625 C6.53906,-0.0625 5.98958,0.1875 5.375,0.1875 C4.98958,0.1875 4.63802,0.0807292 4.32031,-0.132813 C4.0026,-0.346354 3.78125,-0.635417 3.65625,-1 C3.48958,-0.6875 3.25781,-0.411458 2.96094,-0.171875 C2.66406,0.0677083 2.34896,0.1875 2.01563,0.1875 C1.78646,0.1875 1.55208,0.145833 1.3125,0.0625 C1.07292,-0.0208333 0.877604,-0.145833 0.726563,-0.3125 C0.575521,-0.479167 0.5,-0.692708 0.5,-0.953125 C0.5,-1.20313 0.585938,-1.42969 0.757813,-1.63281 C0.929688,-1.83594 1.14583,-1.9375 1.40625,-1.9375 C1.58333,-1.9375 1.73177,-1.88542 1.85156,-1.78125 C1.97135,-1.67708 2.03125,-1.53646 2.03125,-1.35938 C2.03125,-1.14063 1.95833,-0.947917 1.8125,-0.78125 C1.66667,-0.614583 1.47917,-0.510417 1.25,-0.46875 "/>
</g>

<g fill="#212121" fill-opacity="1" stroke="none" transform="matrix(0,-0.75,0.75,0,8.56498,132.112)"
font-family="MS Shell Dlg 2" font-size="8.25" font-weight="400" font-style="normal" 
>
<path vector-effect="none" fill-rule="evenodd" d="M0.546875,0 L0.546875,-0.296875 C0.546875,-0.317708 0.552083,-0.338542 0.5625,-0.359375 L2.28125,-2.25 C2.54167,-2.53125 2.75,-2.76563 2.90625,-2.95313 C3.0625,-3.14063 3.22135,-3.35677 3.38281,-3.60156 C3.54427,-3.84635 3.66927,-4.09896 3.75781,-4.35938 C3.84635,-4.61979 3.89063,-4.89063 3.89063,-5.17188 C3.89063,-5.47396 3.83594,-5.76302 3.72656,-6.03906 C3.61719,-6.3151 3.45313,-6.53385 3.23438,-6.69531 C3.01563,-6.85677 2.75,-6.9375 2.4375,-6.9375 C2.11458,-6.9375 1.82552,-6.84115 1.57031,-6.64844 C1.3151,-6.45573 1.13542,-6.20833 1.03125,-5.90625 C1.0625,-5.91667 1.10417,-5.92188 1.15625,-5.92188 C1.32292,-5.92188 1.46354,-5.86719 1.57813,-5.75781 C1.69271,-5.64844 1.75,-5.50521 1.75,-5.32813 C1.75,-5.16146 1.69271,-5.01823 1.57813,-4.89844 C1.46354,-4.77865 1.32292,-4.71875 1.15625,-4.71875 C0.979167,-4.71875 0.833333,-4.77865 0.71875,-4.89844 C0.604167,-5.01823 0.546875,-5.16146 0.546875,-5.32813 C0.546875,-5.59896 0.598958,-5.85677 0.703125,-6.10156 C0.807292,-6.34635 0.955729,-6.5625 1.14844,-6.75 C1.34115,-6.9375 1.5625,-7.08073 1.8125,-7.17969 C2.0625,-7.27865 2.32292,-7.32813 2.59375,-7.32813 C3.01042,-7.32813 3.40104,-7.23958 3.76563,-7.0625 C4.13021,-6.88542 4.41667,-6.63542 4.625,-6.3125 C4.83333,-5.98958 4.9375,-5.60938 4.9375,-5.17188 C4.9375,-4.84896 4.86719,-4.54427 4.72656,-4.25781 C4.58594,-3.97135 4.40885,-3.71094 4.19531,-3.47656 C3.98177,-3.24219 3.70313,-2.97656 3.35938,-2.67969 C3.01563,-2.38281 2.79167,-2.1875 2.6875,-2.09375 L1.4375,-0.890625 L2.5,-0.890625 C3.02083,-0.890625 3.45573,-0.895833 3.80469,-0.90625 C4.15365,-0.916667 4.33854,-0.932292 4.35938,-0.953125 C4.44271,-1.03646 4.53125,-1.36979 4.625,-1.95313 L4.9375,-1.95313 L4.625,0 L0.546875,0"/>
</g>

<g fill="#212121" fill-opacity="1" stroke="#212121" stroke-opacity="1" stroke-width="1.06667" stroke-linecap="square" stroke-linejoin="round" transform="matrix(0.75,0,0,0.75,-5.19005,-31.1)"
font-family="MS Shell Dlg 2" font-size="8.25" font-weight="400" font-style="normal" 
>
<polyline fill="none" vector-effect="none" points="61,394 61,44 " />
<polyline fill="none" vector-effect="none" points="411,394 411,44 " />
<polyline fill="none" vector-effect="none" points="61,355.416 64.5,355.416 " />
<polyline fill="none" vector-effect="none" points="407.5,355.416 411,355.416 " />
<polyline fill="none" vector-effect="none" points="61,315.461 64.5,315.461 " />
<polyline fill="none" vector-effect="none" points="407.5,315.461 411,315.461 " />
<polyline fill="none" vector-effect="none" points="61,219 64.5,219 " />
<polyline fill="none" vector-effect="none" points="407.5,219 411,219 " />
<polyline fill="none" vector-effect="none" points="61,122.539 64.5,122.539 " />
<polyline fill="none" vector-effect="none" points="407.5,122.539 411,122.539 " />
<polyline fill="none" vector-effect="none" points="61,82.5842 64.5,82.5842 " />
<polyline fill="none" vector-effect="none" points="407.5,82.5842 411,82.5842 " />
</g>

<g fill="#212121" fill-opacity="1" stroke="none" transform="matrix(0.75,0,0,0.75,13.6288,238.102)"
font-family="MS Shell Dlg 2" font-size="8.25" font-weight="400" font-style="normal" 
>
<path vector-effect="none" fill-rule="evenodd" d="M1.42188,-3.21875 C1.34896,-3.21875 1.28646,-3.2474 1.23438,-3.30469 C1.18229,-3.36198 1.15625,-3.42708 1.15625,-3.5 C1.15625,-3.57292 1.18229,-3.63802 1.23438,-3.69531 C1.28646,-3.7526 1.34896,-3.78125 1.42188,-3.78125 L9.46875,-3.78125 C9.54167,-3.78125 9.60156,-3.7526 9.64844,-3.69531 C9.69531,-3.63802 9.71875,-3.57292 9.71875,-3.5 C9.71875,-3.42708 9.69531,-3.36198 9.64844,-3.30469 C9.60156,-3.2474 9.54167,-3.21875 9.46875,-3.21875 L1.42188,-3.21875"/>
</g>

<g fill="#212121" fill-opacity="1" stroke="none" transform="matrix(0.75,0,0,0.75,22.1844,238.102)"
font-family="MS Shell Dlg 2" font-size="8.25" font-weight="400" font-style="normal" 
>
<path vector-effect="none" fill-rule="evenodd" d="M2.8125,0.15625 C2.375,0.15625 1.98438,0.0520833 1.64063,-0.15625 C1.29688,-0.364583 1.03125,-0.645833 0.84375,-1 C0.65625,-1.35417 0.5625,-1.76042 0.5625,-2.21875 C0.5625,-2.85417 0.739583,-3.48177 1.09375,-4.10156 C1.44792,-4.72135 1.91667,-5.22396 2.5,-5.60938 C3.08333,-5.99479 3.69792,-6.1875 4.34375,-6.1875 C4.8125,-6.1875 5.22656,-6.0625 5.58594,-5.8125 C5.94531,-5.5625 6.21875,-5.23177 6.40625,-4.82031 C6.59375,-4.40885 6.6875,-3.96875 6.6875,-3.5 L6.70313,-2.5625 C7.02604,-3.01042 7.29688,-3.47135 7.51563,-3.94531 C7.73438,-4.41927 7.90625,-4.91146 8.03125,-5.42188 C8.04167,-5.47396 8.07813,-5.5 8.14063,-5.5 L8.29688,-5.5 C8.38021,-5.5 8.42188,-5.45833 8.42188,-5.375 C8.42188,-5.36458 8.42188,-5.34896 8.42188,-5.32813 C8.30729,-4.90104 8.16927,-4.49219 8.00781,-4.10156 C7.84635,-3.71094 7.65365,-3.33073 7.42969,-2.96094 C7.20573,-2.59115 6.96354,-2.25521 6.70313,-1.95313 C6.70313,-0.796875 6.83854,-0.21875 7.10938,-0.21875 C7.28646,-0.21875 7.42969,-0.270833 7.53906,-0.375 C7.64844,-0.479167 7.74479,-0.606771 7.82813,-0.757813 C7.91146,-0.908854 7.96354,-0.984375 7.98438,-0.984375 L8.15625,-0.984375 C8.22917,-0.984375 8.26563,-0.9375 8.26563,-0.84375 C8.26563,-0.614583 8.13281,-0.390625 7.86719,-0.171875 C7.60156,0.046875 7.33854,0.15625 7.07813,0.15625 C6.74479,0.15625 6.46615,0.046875 6.24219,-0.171875 C6.01823,-0.390625 5.86458,-0.677083 5.78125,-1.03125 C5.34375,-0.65625 4.86979,-0.364583 4.35938,-0.15625 C3.84896,0.0520833 3.33333,0.15625 2.8125,0.15625 M2.84375,-0.21875 C3.84375,-0.21875 4.80208,-0.630208 5.71875,-1.45313 C5.70833,-1.50521 5.70052,-1.57031 5.69531,-1.64844 C5.6901,-1.72656 5.6875,-1.77083 5.6875,-1.78125 L5.6875,-3.29688 C5.6875,-4.98438 5.22917,-5.82813 4.3125,-5.82813 C3.77083,-5.82813 3.29427,-5.59375 2.88281,-5.125 C2.47135,-4.65625 2.16146,-4.09896 1.95313,-3.45313 C1.74479,-2.80729 1.64063,-2.21354 1.64063,-1.67188 C1.64063,-1.26563 1.74479,-0.921875 1.95313,-0.640625 C2.16146,-0.359375 2.45833,-0.21875 2.84375,-0.21875 "/>
</g>

<g fill="#212121" fill-opacity="1" stroke="none" transform="matrix(0.75,0,0,0.75,29.2211,239.752)"
font-family="MS Shell Dlg 2" font-size="8.25" font-weight="400" font-style="normal" 
>
<path vector-effect="none" fill-rule="evenodd" d="M0.484375,0 C0.421875,0 0.390625,-0.0416667 0.390625,-0.125 C0.390625,-0.145833 0.395833,-0.177083 0.40625,-0.21875 C0.416667,-0.260417 0.432292,-0.294271 0.453125,-0.320313 C0.473958,-0.346354 0.494792,-0.359375 0.515625,-0.359375 C0.921875,-0.359375 1.20833,-0.380208 1.375,-0.421875 C1.45833,-0.453125 1.52083,-0.541667 1.5625,-0.6875 L2.9375,-6.1875 C2.94792,-6.25 2.95313,-6.29167 2.95313,-6.3125 C2.95313,-6.38542 2.91146,-6.42708 2.82813,-6.4375 C2.70313,-6.46875 2.46354,-6.48438 2.10938,-6.48438 C2.04688,-6.48438 2.01563,-6.52604 2.01563,-6.60938 C2.01563,-6.63021 2.02083,-6.66146 2.03125,-6.70313 C2.04167,-6.74479 2.05469,-6.77604 2.07031,-6.79688 C2.08594,-6.81771 2.10938,-6.82813 2.14063,-6.82813 L5.73438,-6.82813 C6.20313,-6.82813 6.60938,-6.71615 6.95313,-6.49219 C7.29688,-6.26823 7.5625,-5.96354 7.75,-5.57813 C7.9375,-5.19271 8.03125,-4.77083 8.03125,-4.3125 C8.03125,-3.80208 7.92448,-3.29167 7.71094,-2.78125 C7.4974,-2.27083 7.20052,-1.80469 6.82031,-1.38281 C6.4401,-0.960938 6.00781,-0.625 5.52344,-0.375 C5.03906,-0.125 4.53646,0 4.01563,0 L0.484375,0 M2.35938,-0.4375 C2.35938,-0.385417 2.47396,-0.359375 2.70313,-0.359375 L3.85938,-0.359375 C4.23438,-0.359375 4.59375,-0.434896 4.9375,-0.585938 C5.28125,-0.736979 5.58854,-0.947917 5.85938,-1.21875 C6.10938,-1.46875 6.33073,-1.79688 6.52344,-2.20313 C6.71615,-2.60938 6.86458,-3.03385 6.96875,-3.47656 C7.07292,-3.91927 7.125,-4.32292 7.125,-4.6875 C7.125,-4.95833 7.08594,-5.20313 7.00781,-5.42188 C6.92969,-5.64063 6.81771,-5.82813 6.67188,-5.98438 C6.52604,-6.14063 6.34375,-6.26302 6.125,-6.35156 C5.90625,-6.4401 5.66146,-6.48438 5.39063,-6.48438 L4.29688,-6.48438 C4.10938,-6.48438 3.98698,-6.46875 3.92969,-6.4375 C3.8724,-6.40625 3.81771,-6.30729 3.76563,-6.14063 L2.40625,-0.65625 C2.375,-0.572917 2.35938,-0.5 2.35938,-0.4375 "/>
</g>

<g fill="#212121" fill-opacity="1" stroke="none" transform="matrix(0.75,0,0,0.75,22.3044,208.135)"
font-family="MS Shell Dlg 2" font-size="8.25" font-weight="400" font-style="normal" 
>
<path vector-effect="none" fill-rule="evenodd" d="M1.42188,-3.21875 C1.34896,-3.21875 1.28646,-3.2474 1.23438,-3.30469 C1.18229,-3.36198 1.15625,-3.42708 1.15625,-3.5 C1.15625,-3.57292 1.18229,-3.63802 1.23438,-3.69531 C1.28646,-3.7526 1.34896,-3.78125 1.42188,-3.78125 L9.46875,-3.78125 C9.54167,-3.78125 9.60156,-3.7526 9.64844,-3.69531 C9.69531,-3.63802 9.71875,-3.57292 9.71875,-3.5 C9.71875,-3.42708 9.69531,-3.36198 9.64844,-3.30469 C9.60156,-3.2474 9.54167,-3.21875 9.46875,-3.21875 L1.42188,-3.21875"/>
</g>

<g fill="#212121" fill-opacity="1" stroke="none" transform="matrix(0.75,0,0,0.75,30.8599,208.135)"
font-family="MS Shell Dlg 2" font-size="8.25" font-weight="400" font-style="normal" 
>
<path vector-effect="none" fill-rule="evenodd" d="M1.29688,0 L1.29688,-0.5 C2.46354,-0.5 3.04688,-0.645833 3.04688,-0.9375 L3.04688,-8.28125 C2.56771,-8.05208 1.95833,-7.9375 1.21875,-7.9375 L1.21875,-8.42188 C2.36458,-8.42188 3.22917,-8.72396 3.8125,-9.32813 L4,-9.32813 C4.03125,-9.32813 4.0625,-9.3151 4.09375,-9.28906 C4.125,-9.26302 4.14063,-9.23438 4.14063,-9.20313 L4.14063,-0.9375 C4.14063,-0.645833 4.72396,-0.5 5.89063,-0.5 L5.89063,0 L1.29688,0"/>
</g>

<g fill="#212121" fill-opacity="1" stroke="none" transform="matrix(0.75,0,0,0.75,30.8599,135.79)"
font-family="MS Shell Dlg 2" font-size="8.25" font-weight="400" font-style="normal" 
>
<path vector-effect="none" fill-rule="evenodd" d="M3.5,0.3125 C2.35417,0.3125 1.57552,-0.158854 1.16406,-1.10156 C0.752604,-2.04427 0.546875,-3.16667 0.546875,-4.46875 C0.546875,-5.28125 0.619792,-6.04427 0.765625,-6.75781 C0.911458,-7.47135 1.20573,-8.07813 1.64844,-8.57813 C2.09115,-9.07813 2.70833,-9.32813 3.5,-9.32813 C4.11458,-9.32813 4.61719,-9.17708 5.00781,-8.875 C5.39844,-8.57292 5.69792,-8.1849 5.90625,-7.71094 C6.11458,-7.23698 6.25521,-6.72656 6.32813,-6.17969 C6.40104,-5.63281 6.4375,-5.0625 6.4375,-4.46875 C6.4375,-3.66667 6.36458,-2.91406 6.21875,-2.21094 C6.07292,-1.50781 5.78385,-0.911458 5.35156,-0.421875 C4.91927,0.0677083 4.30208,0.3125 3.5,0.3125 M3.5,-0.0625 C4.02083,-0.0625 4.40885,-0.328125 4.66406,-0.859375 C4.91927,-1.39063 5.07552,-1.97917 5.13281,-2.625 C5.1901,-3.27083 5.21875,-3.95833 5.21875,-4.6875 C5.21875,-5.39583 5.1901,-6.04427 5.13281,-6.63281 C5.07552,-7.22135 4.91927,-7.75781 4.66406,-8.24219 C4.40885,-8.72656 4.02083,-8.96875 3.5,-8.96875 C2.96875,-8.96875 2.57552,-8.72656 2.32031,-8.24219 C2.0651,-7.75781 1.90885,-7.22135 1.85156,-6.63281 C1.79427,-6.04427 1.76563,-5.39583 1.76563,-4.6875 C1.76563,-4.16667 1.77865,-3.67708 1.80469,-3.21875 C1.83073,-2.76042 1.89844,-2.28646 2.00781,-1.79688 C2.11719,-1.30729 2.29427,-0.895833 2.53906,-0.5625 C2.78385,-0.229167 3.10417,-0.0625 3.5,-0.0625 "/>
</g>

<g fill="#212121" fill-opacity="1" stroke="none" transform="matrix(0.75,0,0,0.75,22.3044,63.4446)"
font-family="MS Shell Dlg 2" font-size="8.25" font-weight="400" font-style="normal" 
>
<path vector-effect="none" fill-rule="evenodd" d="M1.04688,-3.21875 C0.973958,-3.21875 0.911458,-3.2474 0.859375,-3.30469 C0.807292,-3.36198 0.78125,-3.42708 0.78125,-3.5 C0.78125,-3.57292 0.807292,-3.63802 0.859375,-3.69531 C0.911458,-3.7526 0.973958,-3.78125 1.04688,-3.78125 L5.17188,-3.78125 L5.17188,-7.90625 C5.17188,-7.97917 5.19792,-8.03906 5.25,-8.08594 C5.30208,-8.13281 5.36979,-8.15625 5.45313,-8.15625 C5.51563,-8.15625 5.57813,-8.13281 5.64063,-8.08594 C5.70313,-8.03906 5.73438,-7.97917 5.73438,-7.90625 L5.73438,-3.78125 L9.84375,-3.78125 C9.91667,-3.78125 9.97656,-3.7526 10.0234,-3.69531 C10.0703,-3.63802 10.0938,-3.57292 10.0938,-3.5 C10.0938,-3.42708 10.0703,-3.36198 10.0234,-3.30469 C9.97656,-3.2474 9.91667,-3.21875 9.84375,-3.21875 L5.73438,-3.21875 L5.73438,0.90625 C5.73438,0.979167 5.70313,1.03906 5.64063,1.08594 C5.57813,1.13281 5.51563,1.15625 5.45313,1.15625 C5.36979,1.15625 5.30208,1.13281 5.25,1.08594 C5.19792,1.03906 5.17188,0.979167 5.17188,0.90625 L5.17188,-3.21875 L1.04688,-3.21875"/>
</g>

<g fill="#212121" fill-opacity="1" stroke="none" transform="matrix(0.75,0,0,0.75,30.8599,63.4446)"
font-family="MS Shell Dlg 2" font-size="8.25" font-weight="400" font-style="normal" 
>
<path vector-effect="none" fill-rule="evenodd" d="M1.29688,0 L1.29688,-0.5 C2.46354,-0.5 3.04688,-0.645833 3.04688,-0.9375 L3.04688,-8.28125 C2.56771,-8.05208 1.95833,-7.9375 1.21875,-7.9375 L1.21875,-8.42188 C2.36458,-8.42188 3.22917,-8.72396 3.8125,-9.32813 L4,-9.32813 C4.03125,-9.32813 4.0625,-9.3151 4.09375,-9.28906 C4.125,-9.26302 4.14063,-9.23438 4.14063,-9.20313 L4.14063,-0.9375 C4.14063,-0.645833 4.72396,-0.5 5.89063,-0.5 L5.89063,0 L1.29688,0"/>
</g>

<g fill="#212121" fill-opacity="1" stroke="none" transform="matrix(0.75,0,0,0.75,13.6288,33.4781)"
font-family="MS Shell Dlg 2" font-size="8.25" font-weight="400" font-style="normal" 
>
<path vector-effect="none" fill-rule="evenodd" d="M1.04688,-3.21875 C0.973958,-3.21875 0.911458,-3.2474 0.859375,-3.30469 C0.807292,-3.36198 0.78125,-3.42708 0.78125,-3.5 C0.78125,-3.57292 0.807292,-3.63802 0.859375,-3.69531 C0.911458,-3.7526 0.973958,-3.78125 1.04688,-3.78125 L5.17188,-3.78125 L5.17188,-7.90625 C5.17188,-7.97917 5.19792,-8.03906 5.25,-8.08594 C5.30208,-8.13281 5.36979,-8.15625 5.45313,-8.15625 C5.51563,-8.15625 5.57813,-8.13281 5.64063,-8.08594 C5.70313,-8.03906 5.73438,-7.97917 5.73438,-7.90625 L5.73438,-3.78125 L9.84375,-3.78125 C9.91667,-3.78125 9.97656,-3.7526 10.0234,-3.69531 C10.0703,-3.63802 10.0938,-3.57292 10.0938,-3.5 C10.0938,-3.42708 10.0703,-3.36198 10.0234,-3.30469 C9.97656,-3.2474 9.91667,-3.21875 9.84375,-3.21875 L5.73438,-3.21875 L5.73438,0.90625 C5.73438,0.979167 5.70313,1.03906 5.64063,1.08594 C5.57813,1.13281 5.51563,1.15625 5.45313,1.15625 C5.36979,1.15625 5.30208,1.13281 5.25,1.08594 C5.19792,1.03906 5.17188,0.979167 5.17188,0.90625 L5.17188,-3.21875 L1.04688,-3.21875"/>
</g>

<g fill="#212121" fill-opacity="1" stroke="none" transform="matrix(0.75,0,0,0.75,22.1844,33.4781)"
font-family="MS Shell Dlg 2" font-size="8.25" font-weight="400" font-style="normal" 
>
<path vector-effect="none" fill-rule="evenodd" d="M2.8125,0.15625 C2.375,0.15625 1.98438,0.0520833 1.64063,-0.15625 C1.29688,-0.364583 1.03125,-0.645833 0.84375,-1 C0.65625,-1.35417 0.5625,-1.76042 0.5625,-2.21875 C0.5625,-2.85417 0.739583,-3.48177 1.09375,-4.10156 C1.44792,-4.72135 1.91667,-5.22396 2.5,-5.60938 C3.08333,-5.99479 3.69792,-6.1875 4.34375,-6.1875 C4.8125,-6.1875 5.22656,-6.0625 5.58594,-5.8125 C5.94531,-5.5625 6.21875,-5.23177 6.40625,-4.82031 C6.59375,-4.40885 6.6875,-3.96875 6.6875,-3.5 L6.70313,-2.5625 C7.02604,-3.01042 7.29688,-3.47135 7.51563,-3.94531 C7.73438,-4.41927 7.90625,-4.91146 8.03125,-5.42188 C8.04167,-5.47396 8.07813,-5.5 8.14063,-5.5 L8.29688,-5.5 C8.38021,-5.5 8.42188,-5.45833 8.42188,-5.375 C8.42188,-5.36458 8.42188,-5.34896 8.42188,-5.32813 C8.30729,-4.90104 8.16927,-4.49219 8.00781,-4.10156 C7.84635,-3.71094 7.65365,-3.33073 7.42969,-2.96094 C7.20573,-2.59115 6.96354,-2.25521 6.70313,-1.95313 C6.70313,-0.796875 6.83854,-0.21875 7.10938,-0.21875 C7.28646,-0.21875 7.42969,-0.270833 7.53906,-0.375 C7.64844,-0.479167 7.74479,-0.606771 7.82813,-0.757813 C7.91146,-0.908854 7.96354,-0.984375 7.98438,-0.984375 L8.15625,-0.984375 C8.22917,-0.984375 8.26563,-0.9375 8.26563,-0.84375 C8.26563,-0.614583 8.13281,-0.390625 7.86719,-0.171875 C7.60156,0.046875 7.33854,0.15625 7.07813,0.15625 C6.74479,0.15625 6.46615,0.046875 6.24219,-0.171875 C6.01823,-0.390625 5.86458,-0.677083 5.78125,-1.03125 C5.34375,-0.65625 4.86979,-0.364583 4.35938,-0.15625 C3.84896,0.0520833 3.33333,0.15625 2.8125,0.15625 M2.84375,-0.21875 C3.84375,-0.21875 4.80208,-0.630208 5.71875,-1.45313 C5.70833,-1.50521 5.70052,-1.57031 5.69531,-1.64844 C5.6901,-1.72656 5.6875,-1.77083 5.6875,-1.78125 L5.6875,-3.29688 C5.6875,-4.98438 5.22917,-5.82813 4.3125,-5.82813 C3.77083,-5.82813 3.29427,-5.59375 2.88281,-5.125 C2.47135,-4.65625 2.16146,-4.09896 1.95313,-3.45313 C1.74479,-2.80729 1.64063,-2.21354 1.64063,-1.67188 C1.64063,-1.26563 1.74479,-0.921875 1.95313,-0.640625 C2.16146,-0.359375 2.45833,-0.21875 2.84375,-0.21875 "/>
</g>

<g fill="#212121" fill-opacity="1" stroke="none" transform="matrix(0.75,0,0,0.75,29.2211,35.1281)"
font-family="MS Shell Dlg 2" font-size="8.25" font-weight="400" font-style="normal" 
>
<path vector-effect="none" fill-rule="evenodd" d="M0.484375,0 C0.421875,0 0.390625,-0.0416667 0.390625,-0.125 C0.390625,-0.145833 0.395833,-0.177083 0.40625,-0.21875 C0.416667,-0.260417 0.432292,-0.294271 0.453125,-0.320313 C0.473958,-0.346354 0.494792,-0.359375 0.515625,-0.359375 C0.921875,-0.359375 1.20833,-0.380208 1.375,-0.421875 C1.45833,-0.453125 1.52083,-0.541667 1.5625,-0.6875 L2.9375,-6.1875 C2.94792,-6.25 2.95313,-6.29167 2.95313,-6.3125 C2.95313,-6.38542 2.91146,-6.42708 2.82813,-6.4375 C2.70313,-6.46875 2.46354,-6.48438 2.10938,-6.48438 C2.04688,-6.48438 2.01563,-6.52604 2.01563,-6.60938 C2.01563,-6.63021 2.02083,-6.66146 2.03125,-6.70313 C2.04167,-6.74479 2.05469,-6.77604 2.07031,-6.79688 C2.08594,-6.81771 2.10938,-6.82813 2.14063,-6.82813 L5.73438,-6.82813 C6.20313,-6.82813 6.60938,-6.71615 6.95313,-6.49219 C7.29688,-6.26823 7.5625,-5.96354 7.75,-5.57813 C7.9375,-5.19271 8.03125,-4.77083 8.03125,-4.3125 C8.03125,-3.80208 7.92448,-3.29167 7.71094,-2.78125 C7.4974,-2.27083 7.20052,-1.80469 6.82031,-1.38281 C6.4401,-0.960938 6.00781,-0.625 5.52344,-0.375 C5.03906,-0.125 4.53646,0 4.01563,0 L0.484375,0 M2.35938,-0.4375 C2.35938,-0.385417 2.47396,-0.359375 2.70313,-0.359375 L3.85938,-0.359375 C4.23438,-0.359375 4.59375,-0.434896 4.9375,-0.585938 C5.28125,-0.736979 5.58854,-0.947917 5.85938,-1.21875 C6.10938,-1.46875 6.33073,-1.79688 6.52344,-2.20313 C6.71615,-2.60938 6.86458,-3.03385 6.96875,-3.47656 C7.07292,-3.91927 7.125,-4.32292 7.125,-4.6875 C7.125,-4.95833 7.08594,-5.20313 7.00781,-5.42188 C6.92969,-5.64063 6.81771,-5.82813 6.67188,-5.98438 C6.52604,-6.14063 6.34375,-6.26302 6.125,-6.35156 C5.90625,-6.4401 5.66146,-6.48438 5.39063,-6.48438 L4.29688,-6.48438 C4.10938,-6.48438 3.98698,-6.46875 3.92969,-6.4375 C3.8724,-6.40625 3.81771,-6.30729 3.76563,-6.14063 L2.40625,-0.65625 C2.375,-0.572917 2.35938,-0.5 2.35938,-0.4375 "/>
</g>

<g fill="none" stroke="#000000" stroke-opacity="1" stroke-dasharray="10,6" stroke-dashoffset="0" stroke-width="1.33333" stroke-linecap="butt" stroke-linejoin="round" transform="matrix(0.75,0,0,0.75,-5.19005,-31.1)"
font-family="MS Shell Dlg 2" font-size="8.25" font-weight="400" font-style="normal" 
>
<polyline fill="none" vector-effect="none" points="139.539,315.461 332.461,315.461 332.461,122.539 139.539,122.539 139.539,315.461 " />
</g>

<g fill="none" stroke="#808080" stroke-opacity="1" stroke-dasharray="1,3" stroke-dashoffset="0" stroke-width="1.33333" stroke-linecap="butt" stroke-linejoin="round" transform="matrix(0.75,0,0,0.75,-5.19005,-31.1)"
font-family="MS Shell Dlg 2" font-size="8.25" font-weight="400" font-style="normal" 
>
<polyline fill="none" vector-effect="none" points="372.416,219 372.141,210.348 371.318,201.731 369.951,193.183 368.043,184.739 365.605,176.434 362.644,168.299 359.173,160.369 355.207,152.675 350.76,145.248 345.852,138.118 340.501,131.314 334.729,124.862 328.559,118.79 322.017,113.121 315.129,107.879 307.922,103.084 300.425,98.7558 292.669,94.9118 284.685,91.5675 276.505,88.7363 268.161,86.4296 259.688,84.6567 251.12,83.4247 242.491,82.7387 233.836,82.6014 225.189,83.0133 216.586,83.9727 208.061,85.4759 199.649,87.5167 191.383,90.087 183.296,93.1763 175.422,96.7723 167.792,100.86 160.437,105.424 153.385,110.446 146.667,115.904 140.308,121.777 134.334,128.042 128.77,134.673 123.638,141.644 118.958,148.926 114.749,156.491 111.028,164.307 107.811,172.343 105.11,180.567 102.936,188.946 101.298,197.446 100.202,206.033 99.6529,214.672 99.6529,223.328 100.202,231.967 101.298,240.554 102.936,249.054 105.11,257.433 107.811,265.657 111.028,273.693 114.749,281.509 118.958,289.074 123.638,296.356 128.77,303.327 134.334,309.958 140.308,316.223 146.667,322.096 153.385,327.554 160.437,332.576 167.792,337.14 175.422,341.228 183.296,344.824 191.383,347.913 199.649,350.483 208.061,352.524 216.586,354.027 225.189,354.987 233.836,355.399 242.491,355.261 251.12,354.575 259.688,353.343 268.161,351.57 276.505,349.264 284.685,346.433 292.669,343.088 300.425,339.244 307.922,334.916 315.129,330.121 322.017,324.879 328.559,319.21 334.729,313.138 340.501,306.686 345.852,299.882 350.76,292.752 355.207,285.325 359.173,277.631 362.644,269.701 365.605,261.566 368.043,253.261 369.951,244.817 371.318,236.269 372.141,227.652 372.416,219 " />
</g>

<g fill="#000000" fill-opacity="1" stroke="none" transform="matrix(0.75,0,0,0.75,-5.19005,-31.1)"
font-family="MS Shell Dlg 2" font-size="8.25" font-weight="400" font-style="normal" 
>
<circle cx="139.539" cy="315.461" r="5.96285"/>
<circle cx="332.461" cy="315.461" r="5.96285"/>
<circle cx="139.539" cy="122.539" r="5.96285"/>
<circle cx="332.461" cy="122.539" r="5.96285"/>
<circle cx="99.5842" cy="219" r="5.96285"/>
<circle cx="372.416" cy="219" r="5.96285"/>
<circle cx="236" cy="355.416" r="5.96285"/>
<circle cx="236" cy="82.5842" r="5.96285"/>
<circle cx="236" cy="219" r="5.96285"/>
</g>
</g>
</svg>
