<?xml version="1.0" encoding="UTF-8" standalone="no"?>
<svg width="130.175mm" height="55.7389mm"
 viewBox="0 0 369 158"
 xmlns="http://www.w3.org/2000/svg" xmlns:xlink="http://www.w3.org/1999/xlink"  version="1.2" baseProfile="tiny">
<title>Qt SVG Document</title>
<desc>MATLAB, The MathWorks, Inc. Version 25.2.0.3042426 R2025b Update 1</desc>
<defs>
</defs>
<g fill="none" stroke="black" stroke-width="1" fill-rule="evenodd" stroke-linecap="square" stroke-linejoin="bevel" >

<g fill="#ffffff" fill-opacity="1" stroke="none" transform="matrix(0.75,0,0,0.75,-43.944,-10.85)"
font-family="MS Shell Dlg 2" font-size="8.25" font-weight="400" font-style="normal" 
>
<path vector-effect="none" fill-rule="evenodd" d="M57,13 L550,13 L550,224 L57,224 L57,13"/>
</g>

<g fill="#ffffff" fill-opacity="1" stroke="none" transform="matrix(7.5e-05,0,0,7.5e-05,-43.944,-10.85)"
font-family="MS Shell Dlg 2" font-size="8.25" font-weight="400" font-style="normal" 
>
<path vector-effect="none" fill-rule="evenodd" d="M790000,170000 L790000,1.81e+06 L2.08e+06,1.81e+06 L2.08e+06,170000 L790000,170000"/>
</g>

<g fill="#212121" fill-opacity="1" stroke="none" transform="matrix(0.75,0,0,0.75,57.8033,153.764)"
font-family="MS Shell Dlg 2" font-size="8.25" font-weight="400" font-style="normal" 
>
<path vector-effect="none" fill-rule="evenodd" d="M1.25,-0.46875 C1.4375,-0.322917 1.70313,-0.25 2.04688,-0.25 C2.38021,-0.25 2.67448,-0.408854 2.92969,-0.726563 C3.1849,-1.04427 3.35938,-1.39583 3.45313,-1.78125 L4.1875,-4.60938 C4.30208,-5.13021 4.35938,-5.48438 4.35938,-5.67188 C4.35938,-5.93229 4.28385,-6.16146 4.13281,-6.35938 C3.98177,-6.55729 3.77604,-6.65625 3.51563,-6.65625 C3.17188,-6.65625 2.85156,-6.55208 2.55469,-6.34375 C2.25781,-6.13542 2.00781,-5.86719 1.80469,-5.53906 C1.60156,-5.21094 1.45833,-4.88021 1.375,-4.54688 C1.35417,-4.48438 1.3125,-4.45313 1.25,-4.45313 L1.0625,-4.45313 C0.979167,-4.45313 0.9375,-4.5 0.9375,-4.59375 L0.9375,-4.64063 C1.04167,-5.03646 1.21875,-5.42448 1.46875,-5.80469 C1.71875,-6.1849 2.02344,-6.49219 2.38281,-6.72656 C2.74219,-6.96094 3.13021,-7.07813 3.54688,-7.07813 C3.93229,-7.07813 4.28385,-6.97396 4.60156,-6.76563 C4.91927,-6.55729 5.14063,-6.27083 5.26563,-5.90625 C5.45313,-6.23958 5.6875,-6.51823 5.96875,-6.74219 C6.25,-6.96615 6.5625,-7.07813 6.90625,-7.07813 C7.13542,-7.07813 7.36979,-7.03646 7.60938,-6.95313 C7.84896,-6.86979 8.04427,-6.74479 8.19531,-6.57813 C8.34635,-6.41146 8.42188,-6.20313 8.42188,-5.95313 C8.42188,-5.68229 8.33333,-5.45052 8.15625,-5.25781 C7.97917,-5.0651 7.75521,-4.96875 7.48438,-4.96875 C7.31771,-4.96875 7.17708,-5.02344 7.0625,-5.13281 C6.94792,-5.24219 6.89063,-5.38021 6.89063,-5.54688 C6.89063,-5.76563 6.96615,-5.96094 7.11719,-6.13281 C7.26823,-6.30469 7.45313,-6.40625 7.67188,-6.4375 C7.47396,-6.58333 7.20833,-6.65625 6.875,-6.65625 C6.53125,-6.65625 6.23177,-6.4974 5.97656,-6.17969 C5.72135,-5.86198 5.54167,-5.51042 5.4375,-5.125 L4.73438,-2.29688 C4.61979,-1.86979 4.5625,-1.51563 4.5625,-1.23438 C4.5625,-0.963542 4.64063,-0.731771 4.79688,-0.539063 C4.95313,-0.346354 5.15625,-0.25 5.40625,-0.25 C5.90625,-0.25 6.35417,-0.46875 6.75,-0.90625 C7.14583,-1.34375 7.40625,-1.82813 7.53125,-2.35938 C7.55208,-2.42188 7.59375,-2.45313 7.65625,-2.45313 L7.84375,-2.45313 C7.88542,-2.45313 7.91927,-2.4375 7.94531,-2.40625 C7.97135,-2.375 7.98438,-2.34375 7.98438,-2.3125 C7.98438,-2.30208 7.97917,-2.28646 7.96875,-2.26563 C7.82292,-1.63021 7.50781,-1.0625 7.02344,-0.5625 C6.53906,-0.0625 5.98958,0.1875 5.375,0.1875 C4.98958,0.1875 4.63802,0.0807292 4.32031,-0.132813 C4.0026,-0.346354 3.78125,-0.635417 3.65625,-1 C3.48958,-0.6875 3.25781,-0.411458 2.96094,-0.171875 C2.66406,0.0677083 2.34896,0.1875 2.01563,0.1875 C1.78646,0.1875 1.55208,0.145833 1.3125,0.0625 C1.07292,-0.0208333 0.877604,-0.145833 0.726563,-0.3125 C0.575521,-0.479167 0.5,-0.692708 0.5,-0.953125 C0.5,-1.20313 0.585938,-1.42969 0.757813,-1.63281 C0.929688,-1.83594 1.14583,-1.9375 1.40625,-1.9375 C1.58333,-1.9375 1.73177,-1.88542 1.85156,-1.78125 C1.97135,-1.67708 2.03125,-1.53646 2.03125,-1.35938 C2.03125,-1.14063 1.95833,-0.947917 1.8125,-0.78125 C1.66667,-0.614583 1.47917,-0.510417 1.25,-0.46875 "/>
</g>

<g fill="#212121" fill-opacity="1" stroke="none" transform="matrix(0.75,0,0,0.75,64.7188,155.579)"
font-family="MS Shell Dlg 2" font-size="8.25" font-weight="400" font-style="normal" 
>
<path vector-effect="none" fill-rule="evenodd" d="M1.01563,0 L1.01563,-0.390625 C1.93229,-0.390625 2.39063,-0.505208 2.39063,-0.734375 L2.39063,-6.51563 C2.01563,-6.32813 1.53646,-6.23438 0.953125,-6.23438 L0.953125,-6.625 C1.84896,-6.625 2.52604,-6.85938 2.98438,-7.32813 L3.14063,-7.32813 C3.17188,-7.32813 3.19792,-7.31771 3.21875,-7.29688 C3.23958,-7.27604 3.25,-7.25521 3.25,-7.23438 L3.25,-0.734375 C3.25,-0.505208 3.70833,-0.390625 4.625,-0.390625 L4.625,0 L1.01563,0"/>
</g>

<g fill="#212121" fill-opacity="1" stroke="#212121" stroke-opacity="1" stroke-width="1.06667" stroke-linecap="square" stroke-linejoin="round" transform="matrix(0.75,0,0,0.75,-43.944,-10.85)"
font-family="MS Shell Dlg 2" font-size="8.25" font-weight="400" font-style="normal" 
>
<polyline fill="none" vector-effect="none" points="79,181 208,181 " />
<polyline fill="none" vector-effect="none" points="79,17 208,17 " />
<polyline fill="none" vector-effect="none" points="100.5,181 100.5,179.36 " />
<polyline fill="none" vector-effect="none" points="100.5,18.64 100.5,17 " />
<polyline fill="none" vector-effect="none" points="109.1,181 109.1,179.36 " />
<polyline fill="none" vector-effect="none" points="109.1,18.64 109.1,17 " />
</g>

<g fill="#212121" fill-opacity="1" stroke="none" transform="matrix(0.75,0,0,0.75,27.1533,138.34)"
font-family="MS Shell Dlg 2" font-size="8.25" font-weight="400" font-style="normal" 
>
<path vector-effect="none" fill-rule="evenodd" d="M1.42188,-3.21875 C1.34896,-3.21875 1.28646,-3.2474 1.23438,-3.30469 C1.18229,-3.36198 1.15625,-3.42708 1.15625,-3.5 C1.15625,-3.57292 1.18229,-3.63802 1.23438,-3.69531 C1.28646,-3.7526 1.34896,-3.78125 1.42188,-3.78125 L9.46875,-3.78125 C9.54167,-3.78125 9.60156,-3.7526 9.64844,-3.69531 C9.69531,-3.63802 9.71875,-3.57292 9.71875,-3.5 C9.71875,-3.42708 9.69531,-3.36198 9.64844,-3.30469 C9.60156,-3.2474 9.54167,-3.21875 9.46875,-3.21875 L1.42188,-3.21875"/>
</g>

<g fill="#212121" fill-opacity="1" stroke="none" transform="matrix(0.75,0,0,0.75,33.6033,138.34)"
font-family="MS Shell Dlg 2" font-size="8.25" font-weight="400" font-style="normal" 
>
<path vector-effect="none" fill-rule="evenodd" d="M1.04688,-3.21875 C0.973958,-3.21875 0.911458,-3.2474 0.859375,-3.30469 C0.807292,-3.36198 0.78125,-3.42708 0.78125,-3.5 C0.78125,-3.57292 0.807292,-3.63802 0.859375,-3.69531 C0.911458,-3.7526 0.973958,-3.78125 1.04688,-3.78125 L5.17188,-3.78125 L5.17188,-7.90625 C5.17188,-7.97917 5.19792,-8.03906 5.25,-8.08594 C5.30208,-8.13281 5.36979,-8.15625 5.45313,-8.15625 C5.51563,-8.15625 5.57813,-8.13281 5.64063,-8.08594 C5.70313,-8.03906 5.73438,-7.97917 5.73438,-7.90625 L5.73438,-3.78125 L9.84375,-3.78125 C9.91667,-3.78125 9.97656,-3.7526 10.0234,-3.69531 C10.0703,-3.63802 10.0938,-3.57292 10.0938,-3.5 C10.0938,-3.42708 10.0703,-3.36198 10.0234,-3.30469 C9.97656,-3.2474 9.91667,-3.21875 9.84375,-3.21875 L5.73438,-3.21875 L5.73438,0.90625 C5.73438,0.979167 5.70313,1.03906 5.64063,1.08594 C5.57813,1.13281 5.51563,1.15625 5.45313,1.15625 C5.36979,1.15625 5.30208,1.13281 5.25,1.08594 C5.19792,1.03906 5.17188,0.979167 5.17188,0.90625 L5.17188,-3.21875 L1.04688,-3.21875"/>
</g>

<g fill="#212121" fill-opacity="1" stroke="none" transform="matrix(0,-0.75,0.75,0,6.75,66.5832)"
font-family="MS Shell Dlg 2" font-size="8.25" font-weight="400" font-style="normal" 
>
<path vector-effect="none" fill-rule="evenodd" d="M1.34375,2.29688 C1.57292,2.68229 1.96354,2.875 2.51563,2.875 C3.02604,2.875 3.46615,2.69531 3.83594,2.33594 C4.20573,1.97656 4.5026,1.54688 4.72656,1.04688 C4.95052,0.546875 5.125,0.03125 5.25,-0.5 C4.78125,-0.0416667 4.27083,0.1875 3.71875,0.1875 C3.29167,0.1875 2.92969,0.111979 2.63281,-0.0390625 C2.33594,-0.190104 2.10677,-0.408854 1.94531,-0.695313 C1.78385,-0.981771 1.70313,-1.33333 1.70313,-1.75 C1.70313,-2.09375 1.75,-2.45052 1.84375,-2.82031 C1.9375,-3.1901 2.06771,-3.59896 2.23438,-4.04688 C2.40104,-4.49479 2.54688,-4.88542 2.67188,-5.21875 C2.81771,-5.61458 2.89063,-5.9375 2.89063,-6.1875 C2.89063,-6.5 2.77083,-6.65625 2.53125,-6.65625 C2.11458,-6.65625 1.76823,-6.4401 1.49219,-6.00781 C1.21615,-5.57552 1.01563,-5.08854 0.890625,-4.54688 C0.869792,-4.48438 0.822917,-4.45313 0.75,-4.45313 L0.5625,-4.45313 C0.479167,-4.45313 0.4375,-4.5 0.4375,-4.59375 L0.4375,-4.64063 C0.604167,-5.27604 0.864583,-5.84115 1.21875,-6.33594 C1.57292,-6.83073 2.02083,-7.07813 2.5625,-7.07813 C2.94792,-7.07813 3.27083,-6.95313 3.53125,-6.70313 C3.79167,-6.45313 3.92188,-6.13542 3.92188,-5.75 C3.92188,-5.55208 3.88021,-5.34375 3.79688,-5.125 C3.74479,-4.98958 3.63542,-4.70313 3.46875,-4.26563 C3.30208,-3.82813 3.17448,-3.46615 3.08594,-3.17969 C2.9974,-2.89323 2.92448,-2.61198 2.86719,-2.33594 C2.8099,-2.0599 2.78125,-1.78646 2.78125,-1.51563 C2.78125,-1.16146 2.85677,-0.861979 3.00781,-0.617188 C3.15885,-0.372396 3.40104,-0.25 3.73438,-0.25 C4.39063,-0.25 4.98438,-0.651042 5.51563,-1.45313 L6.71875,-6.39063 C6.76042,-6.52604 6.84635,-6.64583 6.97656,-6.75 C7.10677,-6.85417 7.24479,-6.90625 7.39063,-6.90625 C7.52604,-6.90625 7.64063,-6.86458 7.73438,-6.78125 C7.82813,-6.69792 7.875,-6.58854 7.875,-6.45313 C7.875,-6.39063 7.86979,-6.34896 7.85938,-6.32813 L6.28125,0.046875 C6.13542,0.588542 5.875,1.11198 5.5,1.61719 C5.125,2.1224 4.67448,2.52604 4.14844,2.82813 C3.6224,3.13021 3.07292,3.28125 2.5,3.28125 C2.21875,3.28125 1.94271,3.22917 1.67188,3.125 C1.40104,3.02083 1.18229,2.86198 1.01563,2.64844 C0.848958,2.4349 0.765625,2.18229 0.765625,1.89063 C0.765625,1.59896 0.851563,1.34635 1.02344,1.13281 C1.19531,0.919271 1.42708,0.8125 1.71875,0.8125 C1.88542,0.8125 2.02865,0.867188 2.14844,0.976563 C2.26823,1.08594 2.32813,1.22396 2.32813,1.39063 C2.32813,1.64063 2.23698,1.85677 2.05469,2.03906 C1.8724,2.22135 1.65625,2.3125 1.40625,2.3125 C1.39583,2.30208 1.38542,2.29688 1.375,2.29688 C1.36458,2.29688 1.35417,2.29688 1.34375,2.29688 "/>
</g>

<g fill="#212121" fill-opacity="1" stroke="#212121" stroke-opacity="1" stroke-width="1.06667" stroke-linecap="square" stroke-linejoin="round" transform="matrix(0.75,0,0,0.75,-43.944,-10.85)"
font-family="MS Shell Dlg 2" font-size="8.25" font-weight="400" font-style="normal" 
>
<polyline fill="none" vector-effect="none" points="79,181 79,17 " />
<polyline fill="none" vector-effect="none" points="208,181 208,17 " />
</g>

<g fill="none" stroke="#000000" stroke-opacity="1" stroke-width="1.33333" stroke-linecap="butt" stroke-linejoin="round" transform="matrix(0.75,0,0,0.75,-43.944,-10.85)"
font-family="MS Shell Dlg 2" font-size="8.25" font-weight="400" font-style="normal" 
>
<polyline fill="none" vector-effect="none" points="96.3965,181 96.5025,180.364 97.1508,176.53 97.799,172.75 98.4472,169.023 99.0955,165.349 99.7437,161.728 100.392,158.161 101.04,154.647 101.688,151.186 102.337,147.778 102.985,144.424 103.633,141.122 104.281,137.874 104.93,134.68 105.578,131.538 106.226,128.45 106.874,125.415 107.523,122.433 108.171,119.505 108.819,116.629 109.467,113.807 110.116,111.039 110.764,108.323 111.412,105.661 112.06,103.052 112.709,100.496 113.357,97.9935 114.005,95.5442 114.653,93.1482 115.302,90.8054 115.95,88.5158 116.598,86.2795 117.246,84.0965 117.894,81.9666 118.543,79.8901 119.191,77.8668 119.839,75.8967 120.487,73.9798 121.136,72.1162 121.784,70.3059 122.432,68.5488 123.08,66.8449 123.729,65.1943 124.377,63.597 125.025,62.0529 125.673,60.562 126.322,59.1244 126.97,57.74 127.618,56.4088 128.266,55.131 128.915,53.9063 129.563,52.7349 130.211,51.6168 130.859,50.5518 131.508,49.5402 132.156,48.5818 132.804,47.6766 133.452,46.8247 134.101,46.026 134.749,45.2806 135.397,44.5884 136.045,43.9494 136.693,43.3637 137.342,42.8313 137.99,42.3521 138.638,41.9261 139.286,41.5534 139.935,41.2339 140.583,40.9677 141.231,40.7547 141.879,40.595 142.528,40.4885 143.176,40.4352 143.824,40.4352 144.472,40.4885 145.121,40.595 145.769,40.7547 146.417,40.9677 147.065,41.2339 147.714,41.5534 148.362,41.9261 149.01,42.3521 149.658,42.8313 150.307,43.3637 150.955,43.9494 151.603,44.5884 152.251,45.2806 152.899,46.026 153.548,46.8247 154.196,47.6766 154.844,48.5818 155.492,49.5402 156.141,50.5518 156.789,51.6168 157.437,52.7349 158.085,53.9063 158.734,55.131 159.382,56.4088 160.03,57.74 160.678,59.1244 161.327,60.562 161.975,62.0529 162.623,63.597 163.271,65.1943 163.92,66.8449 164.568,68.5488 165.216,70.3059 165.864,72.1162 166.513,73.9798 167.161,75.8967 167.809,77.8668 168.457,79.8901 169.106,81.9666 169.754,84.0965 170.402,86.2795 171.05,88.5158 171.698,90.8054 172.347,93.1482 172.995,95.5442 173.643,97.9935 174.291,100.496 174.94,103.052 175.588,105.661 176.236,108.323 176.884,111.039 177.533,113.807 178.181,116.629 178.829,119.505 179.477,122.433 180.126,125.415 180.774,128.45 181.422,131.538 182.07,134.68 182.719,137.874 183.367,141.122 184.015,144.424 184.663,147.778 185.312,151.186 185.96,154.647 186.608,158.161 187.256,161.728 187.905,165.349 188.553,169.023 189.201,172.75 189.849,176.53 190.497,180.364 190.604,181 " />
</g>

<g fill="#000000" fill-opacity="1" stroke="#000000" stroke-opacity="1" stroke-width="2" stroke-linecap="butt" stroke-linejoin="round" transform="matrix(0.75,0,0,0.75,-43.944,-10.85)"
font-family="MS Shell Dlg 2" font-size="8.25" font-weight="400" font-style="normal" 
>
<polyline fill="none" vector-effect="none" points="100.5,157.571 109.1,115.4 " />
</g>

<g fill="#808080" fill-opacity="1" stroke="none" transform="matrix(0.75,0,0,0.75,-43.944,-10.85)"
font-family="MS Shell Dlg 2" font-size="8.25" font-weight="400" font-style="normal" 
>
<circle cx="100.5" cy="157.571" r="4.21637"/>
</g>

<g fill="none" stroke="#000000" stroke-opacity="1" stroke-width="0.666667" stroke-linecap="butt" stroke-linejoin="miter" stroke-miterlimit="2" transform="matrix(0.75,0,0,0.75,-43.944,-10.85)"
font-family="MS Shell Dlg 2" font-size="8.25" font-weight="400" font-style="normal" 
>
<path vector-effect="none" fill-rule="evenodd" d="M104.716,157.571 C104.716,155.243 102.829,153.355 100.5,153.355 C98.1714,153.355 96.2836,155.243 96.2836,157.571 C96.2836,159.9 98.1714,161.788 100.5,161.788 C102.829,161.788 104.716,159.9 104.716,157.571 "/>
</g>

<g fill="#808080" fill-opacity="1" stroke="none" transform="matrix(0.75,0,0,0.75,-43.944,-10.85)"
font-family="MS Shell Dlg 2" font-size="8.25" font-weight="400" font-style="normal" 
>
<circle cx="109.1" cy="115.4" r="4.21637"/>
</g>

<g fill="none" stroke="#000000" stroke-opacity="1" stroke-width="0.666667" stroke-linecap="butt" stroke-linejoin="miter" stroke-miterlimit="2" transform="matrix(0.75,0,0,0.75,-43.944,-10.85)"
font-family="MS Shell Dlg 2" font-size="8.25" font-weight="400" font-style="normal" 
>
<path vector-effect="none" fill-rule="evenodd" d="M113.316,115.4 C113.316,113.071 111.429,111.184 109.1,111.184 C106.771,111.184 104.884,113.071 104.884,115.4 C104.884,117.729 106.771,119.616 109.1,119.616 C111.429,119.616 113.316,117.729 113.316,115.4 "/>
</g>

<g fill="none" stroke="#000000" stroke-opacity="1" stroke-width="1.06667" stroke-linecap="butt" stroke-linejoin="round" transform="matrix(0.75,0,0,0.75,-43.944,-10.85)"
font-family="MS Shell Dlg 2" font-size="8.25" font-weight="400" font-style="normal" 
>
<polyline fill="none" vector-effect="none" points="79,181 79.6482,181 80.2965,181 80.9447,181 81.593,181 82.2412,181 82.8895,181 83.5377,181 84.1859,181 84.8342,180.999 85.4824,180.999 86.1307,180.997 86.7789,180.994 87.4271,180.987 88.0754,180.974 88.7236,180.95 89.3719,180.906 90.0201,180.83 90.6683,180.704 91.3166,180.502 91.9648,180.191 92.6131,179.731 93.2613,179.08 93.9095,178.196 94.5578,177.048 95.206,175.623 95.8543,173.941 96.5025,172.055 97.1508,170.061 97.799,168.09 98.4472,166.294 99.0955,164.834 99.7437,163.848 100.392,163.437 101.04,163.644 101.688,164.447 102.337,165.763 102.985,167.464 103.633,169.394 104.281,171.397 104.93,173.331 105.578,175.089 106.226,176.603 106.874,177.844 107.523,178.813 108.171,179.538 108.819,180.056 109.467,180.412 110.116,180.647 110.764,180.795 111.412,180.885 112.06,180.938 112.709,180.968 113.357,180.984 114.005,180.992 114.653,180.996 115.302,180.998 115.95,180.999 116.598,181 117.246,181 117.894,181 118.543,181 119.191,181 119.839,181 120.487,181 121.136,181 121.784,181 122.432,181 123.08,181 123.729,181 124.377,181 125.025,181 125.673,181 126.322,181 126.97,181 127.618,181 128.266,181 128.915,181 129.563,181 130.211,181 130.859,181 131.508,181 132.156,181 132.804,181 133.452,181 134.101,181 134.749,181 135.397,181 136.045,181 136.693,181 137.342,181 137.99,181 138.638,181 139.286,181 139.935,181 140.583,181 141.231,181 141.879,181 142.528,181 143.176,181 143.824,181 144.472,181 145.121,181 145.769,181 146.417,181 147.065,181 147.714,181 148.362,181 149.01,181 149.658,181 150.307,181 150.955,181 151.603,181 152.251,181 152.899,181 153.548,181 154.196,181 154.844,181 155.492,181 156.141,181 156.789,181 157.437,181 158.085,181 158.734,181 159.382,181 160.03,181 160.678,181 161.327,181 161.975,181 162.623,181 163.271,181 163.92,181 164.568,181 165.216,181 165.864,181 166.513,181 167.161,181 167.809,181 168.457,181 169.106,181 169.754,181 170.402,181 171.05,181 171.698,181 172.347,181 172.995,181 173.643,181 174.291,181 174.94,181 175.588,181 176.236,181 176.884,181 177.533,181 178.181,181 178.829,181 179.477,181 180.126,181 180.774,181 181.422,181 182.07,181 182.719,181 183.367,181 184.015,181 184.663,181 185.312,181 185.96,181 186.608,181 187.256,181 187.905,181 188.553,181 189.201,181 189.849,181 190.497,181 191.146,181 191.794,181 192.442,181 193.09,181 193.739,181 194.387,181 195.035,181 195.683,181 196.332,181 196.98,181 197.628,181 198.276,181 198.925,181 199.573,181 200.221,181 200.869,181 201.518,181 202.166,181 202.814,181 203.462,181 204.111,181 204.759,181 205.407,181 206.055,181 206.704,181 207.352,181 208,181 " />
<polyline fill="none" vector-effect="none" points="79,181 79.6482,181 80.2965,181 80.9447,181 81.593,181 82.2412,181 82.8895,181 83.5377,181 84.1859,181 84.8342,181 85.4824,181 86.1307,181 86.7789,181 87.4271,181 88.0754,181 88.7236,181 89.3719,181 90.0201,181 90.6683,181 91.3166,181 91.9648,181 92.6131,181 93.2613,181 93.9095,180.999 94.5578,180.998 95.206,180.995 95.8543,180.989 96.5025,180.978 97.1508,180.958 97.799,180.92 98.4472,180.855 99.0955,180.744 99.7437,180.565 100.392,180.287 101.04,179.871 101.688,179.275 102.337,178.457 102.985,177.381 103.633,176.03 104.281,174.412 104.93,172.573 105.578,170.597 106.226,168.605 106.874,166.747 107.523,165.182 108.171,164.058 108.819,163.487 109.467,163.528 110.116,164.178 110.764,165.368 111.412,166.981 112.06,168.866 112.709,170.864 113.357,172.829 114.005,174.642 114.653,176.226 115.302,177.54 115.95,178.58 116.598,179.366 117.246,179.936 117.894,180.331 118.543,180.594 119.191,180.762 119.839,180.866 120.487,180.927 121.136,180.961 121.784,180.98 122.432,180.99 123.08,180.995 123.729,180.998 124.377,180.999 125.025,181 125.673,181 126.322,181 126.97,181 127.618,181 128.266,181 128.915,181 129.563,181 130.211,181 130.859,181 131.508,181 132.156,181 132.804,181 133.452,181 134.101,181 134.749,181 135.397,181 136.045,181 136.693,181 137.342,181 137.99,181 138.638,181 139.286,181 139.935,181 140.583,181 141.231,181 141.879,181 142.528,181 143.176,181 143.824,181 144.472,181 145.121,181 145.769,181 146.417,181 147.065,181 147.714,181 148.362,181 149.01,181 149.658,181 150.307,181 150.955,181 151.603,181 152.251,181 152.899,181 153.548,181 154.196,181 154.844,181 155.492,181 156.141,181 156.789,181 157.437,181 158.085,181 158.734,181 159.382,181 160.03,181 160.678,181 161.327,181 161.975,181 162.623,181 163.271,181 163.92,181 164.568,181 165.216,181 165.864,181 166.513,181 167.161,181 167.809,181 168.457,181 169.106,181 169.754,181 170.402,181 171.05,181 171.698,181 172.347,181 172.995,181 173.643,181 174.291,181 174.94,181 175.588,181 176.236,181 176.884,181 177.533,181 178.181,181 178.829,181 179.477,181 180.126,181 180.774,181 181.422,181 182.07,181 182.719,181 183.367,181 184.015,181 184.663,181 185.312,181 185.96,181 186.608,181 187.256,181 187.905,181 188.553,181 189.201,181 189.849,181 190.497,181 191.146,181 191.794,181 192.442,181 193.09,181 193.739,181 194.387,181 195.035,181 195.683,181 196.332,181 196.98,181 197.628,181 198.276,181 198.925,181 199.573,181 200.221,181 200.869,181 201.518,181 202.166,181 202.814,181 203.462,181 204.111,181 204.759,181 205.407,181 206.055,181 206.704,181 207.352,181 208,181 " />
</g>

<g fill="#212121" fill-opacity="1" stroke="none" transform="matrix(0.75,0,0,0.75,27.306,14.0607)"
font-family="MS Shell Dlg 2" font-size="8.25" font-weight="400" font-style="normal" 
>
<path vector-effect="none" fill-rule="evenodd" d="M-0.015625,0 L3.5625,-9.3125 L4.875,-9.3125 L8.6875,0 L7.28125,0 L6.20313,-2.8125 L2.3125,-2.8125 L1.28125,0 L-0.015625,0 M2.67188,-3.82813 L5.82813,-3.82813 L4.84375,-6.40625 C4.55208,-7.1875 4.33333,-7.82813 4.1875,-8.32813 C4.07292,-7.73438 3.90625,-7.14063 3.6875,-6.54688 L2.67188,-3.82813 M10.9063,0 L9.84375,0 L9.84375,-9.3125 L11,-9.3125 L11,-5.98438 C11.4792,-6.58854 12.0938,-6.89063 12.8438,-6.89063 C13.2604,-6.89063 13.6536,-6.80729 14.0234,-6.64063 C14.3932,-6.47396 14.6979,-6.23958 14.9375,-5.9375 C15.1771,-5.63542 15.3646,-5.27083 15.5,-4.84375 C15.6354,-4.41667 15.7031,-3.95833 15.7031,-3.46875 C15.7031,-2.3125 15.4167,-1.41927 14.8438,-0.789063 C14.2708,-0.158854 13.5833,0.15625 12.7813,0.15625 C11.9896,0.15625 11.3646,-0.177083 10.9063,-0.84375 L10.9063,0 M10.8906,-3.42188 C10.8906,-2.60938 11.0052,-2.02604 11.2344,-1.67188 C11.5885,-1.07813 12.0729,-0.78125 12.6875,-0.78125 C13.1875,-0.78125 13.6198,-1 13.9844,-1.4375 C14.349,-1.875 14.5313,-2.52083 14.5313,-3.375 C14.5313,-4.26042 14.3568,-4.91146 14.0078,-5.32813 C13.6589,-5.74479 13.2344,-5.95313 12.7344,-5.95313 C12.2344,-5.95313 11.8021,-5.73698 11.4375,-5.30469 C11.0729,-4.8724 10.8906,-4.24479 10.8906,-3.42188 M16.4063,-2.01563 L17.5313,-2.1875 C17.5938,-1.73958 17.7708,-1.39323 18.0625,-1.14844 C18.3542,-0.903646 18.7604,-0.78125 19.2813,-0.78125 C19.8021,-0.78125 20.1901,-0.888021 20.4453,-1.10156 C20.7005,-1.3151 20.8281,-1.56771 20.8281,-1.85938 C20.8281,-2.11979 20.7135,-2.32292 20.4844,-2.46875 C20.3281,-2.57292 19.9375,-2.70313 19.3125,-2.85938 C18.4792,-3.06771 17.901,-3.25 17.5781,-3.40625 C17.2552,-3.5625 17.0104,-3.77604 16.8438,-4.04688 C16.6771,-4.31771 16.5938,-4.61979 16.5938,-4.95313 C16.5938,-5.25521 16.6615,-5.53385 16.7969,-5.78906 C16.9323,-6.04427 17.1198,-6.25521 17.3594,-6.42188 C17.5365,-6.55729 17.7786,-6.66927 18.0859,-6.75781 C18.3932,-6.84635 18.724,-6.89063 19.0781,-6.89063 C19.599,-6.89063 20.0599,-6.8151 20.4609,-6.66406 C20.862,-6.51302 21.1589,-6.30729 21.3516,-6.04688 C21.5443,-5.78646 21.6771,-5.4375 21.75,-5 L20.625,-4.84375 C20.5729,-5.19792 20.4271,-5.47135 20.1875,-5.66406 C19.9479,-5.85677 19.6042,-5.95313 19.1563,-5.95313 C18.6354,-5.95313 18.2604,-5.86719 18.0313,-5.69531 C17.8021,-5.52344 17.6875,-5.31771 17.6875,-5.07813 C17.6875,-4.93229 17.7344,-4.80208 17.8281,-4.6875 C17.9219,-4.5625 18.0677,-4.45833 18.2656,-4.375 C18.3802,-4.33333 18.7188,-4.23958 19.2813,-4.09375 C20.0938,-3.875 20.6589,-3.69792 20.9766,-3.5625 C21.2943,-3.42708 21.5443,-3.22656 21.7266,-2.96094 C21.9089,-2.69531 22,-2.36979 22,-1.98438 C22,-1.59896 21.888,-1.23958 21.6641,-0.90625 C21.4401,-0.572917 21.1198,-0.3125 20.7031,-0.125 C20.2865,0.0625 19.8125,0.15625 19.2813,0.15625 C18.4063,0.15625 17.7396,-0.0260417 17.2813,-0.390625 C16.8229,-0.755208 16.5313,-1.29688 16.4063,-2.01563 M26.3594,-1.01563 L26.5156,-0.015625 C26.1927,0.0572917 25.9063,0.09375 25.6563,0.09375 C25.2396,0.09375 24.9167,0.0260417 24.6875,-0.109375 C24.4583,-0.244792 24.2969,-0.419271 24.2031,-0.632813 C24.1094,-0.846354 24.0625,-1.29167 24.0625,-1.96875 L24.0625,-5.85938 L23.2344,-5.85938 L23.2344,-6.73438 L24.0625,-6.73438 L24.0625,-8.40625 L25.2031,-9.09375 L25.2031,-6.73438 L26.3594,-6.73438 L26.3594,-5.85938 L25.2031,-5.85938 L25.2031,-1.90625 C25.2031,-1.58333 25.224,-1.375 25.2656,-1.28125 C25.3073,-1.1875 25.3724,-1.11458 25.4609,-1.0625 C25.5495,-1.01042 25.6771,-0.984375 25.8438,-0.984375 C25.9792,-0.984375 26.151,-0.994792 26.3594,-1.01563 M32.25,-0.828125 C31.8333,-0.473958 31.4297,-0.221354 31.0391,-0.0703125 C30.6484,0.0807292 30.2292,0.15625 29.7813,0.15625 C29.0313,0.15625 28.4583,-0.0260417 28.0625,-0.390625 C27.6667,-0.755208 27.4688,-1.21875 27.4688,-1.78125 C27.4688,-2.10417 27.5443,-2.40365 27.6953,-2.67969 C27.8464,-2.95573 28.0443,-3.17708 28.2891,-3.34375 C28.5339,-3.51042 28.8073,-3.63542 29.1094,-3.71875 C29.3281,-3.77083 29.6667,-3.82813 30.125,-3.89063 C31.0417,-3.99479 31.7188,-4.125 32.1563,-4.28125 C32.1667,-4.4375 32.1719,-4.53646 32.1719,-4.57813 C32.1719,-5.04688 32.0625,-5.375 31.8438,-5.5625 C31.5521,-5.82292 31.1198,-5.95313 30.5469,-5.95313 C30.0052,-5.95313 29.6068,-5.85938 29.3516,-5.67188 C29.0964,-5.48438 28.9063,-5.15104 28.7813,-4.67188 L27.6719,-4.8125 C27.7656,-5.29167 27.9297,-5.67969 28.1641,-5.97656 C28.3984,-6.27344 28.737,-6.5 29.1797,-6.65625 C29.6224,-6.8125 30.1302,-6.89063 30.7031,-6.89063 C31.2865,-6.89063 31.7578,-6.82292 32.1172,-6.6875 C32.4766,-6.55208 32.7396,-6.38281 32.9063,-6.17969 C33.0729,-5.97656 33.1927,-5.71875 33.2656,-5.40625 C33.2969,-5.20833 33.3125,-4.85417 33.3125,-4.34375 L33.3125,-2.82813 C33.3125,-1.76563 33.3385,-1.09375 33.3906,-0.8125 C33.4427,-0.53125 33.5365,-0.260417 33.6719,0 L32.4844,0 C32.3698,-0.239583 32.2917,-0.515625 32.25,-0.828125 M32.1563,-3.39063 C31.7396,-3.21354 31.1198,-3.06771 30.2969,-2.95313 C29.8281,-2.88021 29.4948,-2.80208 29.2969,-2.71875 C29.099,-2.63542 28.9479,-2.51302 28.8438,-2.35156 C28.7396,-2.1901 28.6875,-2.01042 28.6875,-1.8125 C28.6875,-1.51042 28.8021,-1.25781 29.0313,-1.05469 C29.2604,-0.851563 29.599,-0.75 30.0469,-0.75 C30.4844,-0.75 30.875,-0.846354 31.2188,-1.03906 C31.5625,-1.23177 31.8177,-1.49479 31.9844,-1.82813 C32.099,-2.07813 32.1563,-2.45833 32.1563,-2.96875 L32.1563,-3.39063 M34.8594,0 L34.8594,-6.73438 L35.8906,-6.73438 L35.8906,-5.78125 C36.3802,-6.52083 37.0938,-6.89063 38.0313,-6.89063 C38.4375,-6.89063 38.8099,-6.81771 39.1484,-6.67188 C39.487,-6.52604 39.7422,-6.33594 39.9141,-6.10156 C40.0859,-5.86719 40.2031,-5.58333 40.2656,-5.25 C40.3073,-5.04167 40.3281,-4.67188 40.3281,-4.14063 L40.3281,0 L39.1875,0 L39.1875,-4.09375 C39.1875,-4.5625 39.1432,-4.91146 39.0547,-5.14063 C38.9661,-5.36979 38.8099,-5.55469 38.5859,-5.69531 C38.362,-5.83594 38.099,-5.90625 37.7969,-5.90625 C37.3073,-5.90625 36.8854,-5.7526 36.5313,-5.44531 C36.1771,-5.13802 36,-4.55208 36,-3.6875 L36,0 L34.8594,0 M46.2344,0 L46.2344,-0.84375 C45.8073,-0.177083 45.1771,0.15625 44.3438,0.15625 C43.8125,0.15625 43.3203,0.0078125 42.8672,-0.289063 C42.4141,-0.585938 42.0625,-1 41.8125,-1.53125 C41.5625,-2.0625 41.4375,-2.67188 41.4375,-3.35938 C41.4375,-4.03646 41.5521,-4.64844 41.7813,-5.19531 C42.0104,-5.74219 42.349,-6.16146 42.7969,-6.45313 C43.2448,-6.74479 43.7448,-6.89063 44.2969,-6.89063 C44.7031,-6.89063 45.0651,-6.80469 45.3828,-6.63281 C45.7005,-6.46094 45.9583,-6.23958 46.1563,-5.96875 L46.1563,-9.3125 L47.2969,-9.3125 L47.2969,0 L46.2344,0 M42.625,-3.35938 C42.625,-2.49479 42.8047,-1.84896 43.1641,-1.42188 C43.5234,-0.994792 43.9531,-0.78125 44.4531,-0.78125 C44.9531,-0.78125 45.3776,-0.986979 45.7266,-1.39844 C46.0755,-1.8099 46.25,-2.43229 46.25,-3.26563 C46.25,-4.19271 46.0729,-4.8724 45.7188,-5.30469 C45.3646,-5.73698 44.9271,-5.95313 44.4063,-5.95313 C43.8958,-5.95313 43.4714,-5.74479 43.1328,-5.32813 C42.7943,-4.91146 42.625,-4.25521 42.625,-3.35938 M52.25,0 L52.25,-0.921875 L56.5469,-5.85938 C56.0573,-5.82813 55.625,-5.8125 55.25,-5.8125 L52.5156,-5.8125 L52.5156,-6.73438 L58.0156,-6.73438 L58.0156,-5.98438 L54.375,-1.70313 L53.6563,-0.921875 C54.1771,-0.963542 54.6615,-0.984375 55.1094,-0.984375 L58.2188,-0.984375 L58.2188,0 L52.25,0 M64.2813,0 L64.2813,-0.984375 C63.75,-0.223958 63.0365,0.15625 62.1406,0.15625 C61.7448,0.15625 61.3724,0.078125 61.0234,-0.078125 C60.6745,-0.234375 60.4167,-0.427083 60.25,-0.65625 C60.0833,-0.885417 59.9688,-1.16667 59.9063,-1.5 C59.8542,-1.71875 59.8281,-2.07292 59.8281,-2.5625 L59.8281,-6.73438 L60.9688,-6.73438 L60.9688,-3 C60.9688,-2.40625 60.9948,-2.00521 61.0469,-1.79688 C61.1198,-1.49479 61.2708,-1.25781 61.5,-1.08594 C61.7292,-0.914063 62.0156,-0.828125 62.3594,-0.828125 C62.7031,-0.828125 63.026,-0.916667 63.3281,-1.09375 C63.6302,-1.27083 63.8438,-1.51042 63.9688,-1.8125 C64.0938,-2.11458 64.1563,-2.55208 64.1563,-3.125 L64.1563,-6.73438 L65.2969,-6.73438 L65.2969,0 L64.2813,0 M70.8594,0 L70.8594,-9.3125 L72,-9.3125 L72,-4 L74.7031,-6.73438 L76.1875,-6.73438 L73.6094,-4.23438 L76.4531,0 L75.0469,0 L72.8125,-3.45313 L72,-2.67188 L72,0 L70.8594,0 M77.8281,0 L77.8281,-9.3125 L78.9688,-9.3125 L78.9688,0 L77.8281,0 M85.4688,-2.17188 L86.6563,-2.03125 C86.4688,-1.33333 86.1224,-0.794271 85.6172,-0.414063 C85.112,-0.0338542 84.4688,0.15625 83.6875,0.15625 C82.6979,0.15625 81.9141,-0.148438 81.3359,-0.757813 C80.7578,-1.36719 80.4688,-2.21875 80.4688,-3.3125 C80.4688,-4.44792 80.763,-5.32813 81.3516,-5.95313 C81.9401,-6.57813 82.6979,-6.89063 83.625,-6.89063 C84.5313,-6.89063 85.2682,-6.58333 85.8359,-5.96875 C86.4036,-5.35417 86.6875,-4.49479 86.6875,-3.39063 C86.6875,-3.31771 86.6875,-3.21354 86.6875,-3.07813 L81.6563,-3.07813 C81.6979,-2.33854 81.9063,-1.77083 82.2813,-1.375 C82.6563,-0.979167 83.125,-0.78125 83.6875,-0.78125 C84.1146,-0.78125 84.4766,-0.893229 84.7734,-1.11719 C85.0703,-1.34115 85.3021,-1.69271 85.4688,-2.17188 M81.7188,-4.01563 L85.4844,-4.01563 C85.4323,-4.58854 85.2865,-5.01563 85.0469,-5.29688 C84.6823,-5.73438 84.2135,-5.95313 83.6406,-5.95313 C83.1094,-5.95313 82.6667,-5.77865 82.3125,-5.42969 C81.9583,-5.08073 81.7604,-4.60938 81.7188,-4.01563 M87.8594,-7.98438 L87.8594,-9.3125 L89,-9.3125 L89,-7.98438 L87.8594,-7.98438 M87.8594,0 L87.8594,-6.73438 L89,-6.73438 L89,0 L87.8594,0 M90.8594,0 L90.8594,-6.73438 L91.8906,-6.73438 L91.8906,-5.78125 C92.3802,-6.52083 93.0938,-6.89063 94.0313,-6.89063 C94.4375,-6.89063 94.8099,-6.81771 95.1484,-6.67188 C95.487,-6.52604 95.7422,-6.33594 95.9141,-6.10156 C96.0859,-5.86719 96.2031,-5.58333 96.2656,-5.25 C96.3073,-5.04167 96.3281,-4.67188 96.3281,-4.14063 L96.3281,0 L95.1875,0 L95.1875,-4.09375 C95.1875,-4.5625 95.1432,-4.91146 95.0547,-5.14063 C94.9661,-5.36979 94.8099,-5.55469 94.5859,-5.69531 C94.362,-5.83594 94.099,-5.90625 93.7969,-5.90625 C93.3073,-5.90625 92.8854,-5.7526 92.5313,-5.44531 C92.1771,-5.13802 92,-4.55208 92,-3.6875 L92,0 L90.8594,0"/>
</g>

<g fill="#ffffff" fill-opacity="1" stroke="none" transform="matrix(7.5e-05,0,0,7.5e-05,-43.944,-10.85)"
font-family="MS Shell Dlg 2" font-size="8.25" font-weight="400" font-style="normal" 
>
<path vector-effect="none" fill-rule="evenodd" d="M2.49e+06,170000 L2.49e+06,1.81e+06 L3.78e+06,1.81e+06 L3.78e+06,170000 L2.49e+06,170000"/>
</g>

<g fill="#212121" fill-opacity="1" stroke="none" transform="matrix(0.75,0,0,0.75,185.303,153.764)"
font-family="MS Shell Dlg 2" font-size="8.25" font-weight="400" font-style="normal" 
>
<path vector-effect="none" fill-rule="evenodd" d="M1.25,-0.46875 C1.4375,-0.322917 1.70313,-0.25 2.04688,-0.25 C2.38021,-0.25 2.67448,-0.408854 2.92969,-0.726563 C3.1849,-1.04427 3.35938,-1.39583 3.45313,-1.78125 L4.1875,-4.60938 C4.30208,-5.13021 4.35938,-5.48438 4.35938,-5.67188 C4.35938,-5.93229 4.28385,-6.16146 4.13281,-6.35938 C3.98177,-6.55729 3.77604,-6.65625 3.51563,-6.65625 C3.17188,-6.65625 2.85156,-6.55208 2.55469,-6.34375 C2.25781,-6.13542 2.00781,-5.86719 1.80469,-5.53906 C1.60156,-5.21094 1.45833,-4.88021 1.375,-4.54688 C1.35417,-4.48438 1.3125,-4.45313 1.25,-4.45313 L1.0625,-4.45313 C0.979167,-4.45313 0.9375,-4.5 0.9375,-4.59375 L0.9375,-4.64063 C1.04167,-5.03646 1.21875,-5.42448 1.46875,-5.80469 C1.71875,-6.1849 2.02344,-6.49219 2.38281,-6.72656 C2.74219,-6.96094 3.13021,-7.07813 3.54688,-7.07813 C3.93229,-7.07813 4.28385,-6.97396 4.60156,-6.76563 C4.91927,-6.55729 5.14063,-6.27083 5.26563,-5.90625 C5.45313,-6.23958 5.6875,-6.51823 5.96875,-6.74219 C6.25,-6.96615 6.5625,-7.07813 6.90625,-7.07813 C7.13542,-7.07813 7.36979,-7.03646 7.60938,-6.95313 C7.84896,-6.86979 8.04427,-6.74479 8.19531,-6.57813 C8.34635,-6.41146 8.42188,-6.20313 8.42188,-5.95313 C8.42188,-5.68229 8.33333,-5.45052 8.15625,-5.25781 C7.97917,-5.0651 7.75521,-4.96875 7.48438,-4.96875 C7.31771,-4.96875 7.17708,-5.02344 7.0625,-5.13281 C6.94792,-5.24219 6.89063,-5.38021 6.89063,-5.54688 C6.89063,-5.76563 6.96615,-5.96094 7.11719,-6.13281 C7.26823,-6.30469 7.45313,-6.40625 7.67188,-6.4375 C7.47396,-6.58333 7.20833,-6.65625 6.875,-6.65625 C6.53125,-6.65625 6.23177,-6.4974 5.97656,-6.17969 C5.72135,-5.86198 5.54167,-5.51042 5.4375,-5.125 L4.73438,-2.29688 C4.61979,-1.86979 4.5625,-1.51563 4.5625,-1.23438 C4.5625,-0.963542 4.64063,-0.731771 4.79688,-0.539063 C4.95313,-0.346354 5.15625,-0.25 5.40625,-0.25 C5.90625,-0.25 6.35417,-0.46875 6.75,-0.90625 C7.14583,-1.34375 7.40625,-1.82813 7.53125,-2.35938 C7.55208,-2.42188 7.59375,-2.45313 7.65625,-2.45313 L7.84375,-2.45313 C7.88542,-2.45313 7.91927,-2.4375 7.94531,-2.40625 C7.97135,-2.375 7.98438,-2.34375 7.98438,-2.3125 C7.98438,-2.30208 7.97917,-2.28646 7.96875,-2.26563 C7.82292,-1.63021 7.50781,-1.0625 7.02344,-0.5625 C6.53906,-0.0625 5.98958,0.1875 5.375,0.1875 C4.98958,0.1875 4.63802,0.0807292 4.32031,-0.132813 C4.0026,-0.346354 3.78125,-0.635417 3.65625,-1 C3.48958,-0.6875 3.25781,-0.411458 2.96094,-0.171875 C2.66406,0.0677083 2.34896,0.1875 2.01563,0.1875 C1.78646,0.1875 1.55208,0.145833 1.3125,0.0625 C1.07292,-0.0208333 0.877604,-0.145833 0.726563,-0.3125 C0.575521,-0.479167 0.5,-0.692708 0.5,-0.953125 C0.5,-1.20313 0.585938,-1.42969 0.757813,-1.63281 C0.929688,-1.83594 1.14583,-1.9375 1.40625,-1.9375 C1.58333,-1.9375 1.73177,-1.88542 1.85156,-1.78125 C1.97135,-1.67708 2.03125,-1.53646 2.03125,-1.35938 C2.03125,-1.14063 1.95833,-0.947917 1.8125,-0.78125 C1.66667,-0.614583 1.47917,-0.510417 1.25,-0.46875 "/>
</g>

<g fill="#212121" fill-opacity="1" stroke="none" transform="matrix(0.75,0,0,0.75,192.219,155.579)"
font-family="MS Shell Dlg 2" font-size="8.25" font-weight="400" font-style="normal" 
>
<path vector-effect="none" fill-rule="evenodd" d="M1.01563,0 L1.01563,-0.390625 C1.93229,-0.390625 2.39063,-0.505208 2.39063,-0.734375 L2.39063,-6.51563 C2.01563,-6.32813 1.53646,-6.23438 0.953125,-6.23438 L0.953125,-6.625 C1.84896,-6.625 2.52604,-6.85938 2.98438,-7.32813 L3.14063,-7.32813 C3.17188,-7.32813 3.19792,-7.31771 3.21875,-7.29688 C3.23958,-7.27604 3.25,-7.25521 3.25,-7.23438 L3.25,-0.734375 C3.25,-0.505208 3.70833,-0.390625 4.625,-0.390625 L4.625,0 L1.01563,0"/>
</g>

<g fill="#212121" fill-opacity="1" stroke="#212121" stroke-opacity="1" stroke-width="1.06667" stroke-linecap="square" stroke-linejoin="round" transform="matrix(0.75,0,0,0.75,-43.944,-10.85)"
font-family="MS Shell Dlg 2" font-size="8.25" font-weight="400" font-style="normal" 
>
<polyline fill="none" vector-effect="none" points="249,181 378,181 " />
<polyline fill="none" vector-effect="none" points="249,17 378,17 " />
<polyline fill="none" vector-effect="none" points="270.5,181 270.5,179.36 " />
<polyline fill="none" vector-effect="none" points="270.5,18.64 270.5,17 " />
<polyline fill="none" vector-effect="none" points="304.9,181 304.9,179.36 " />
<polyline fill="none" vector-effect="none" points="304.9,18.64 304.9,17 " />
</g>

<g fill="#212121" fill-opacity="1" stroke="none" transform="matrix(0.75,0,0,0.75,154.653,138.34)"
font-family="MS Shell Dlg 2" font-size="8.25" font-weight="400" font-style="normal" 
>
<path vector-effect="none" fill-rule="evenodd" d="M1.42188,-3.21875 C1.34896,-3.21875 1.28646,-3.2474 1.23438,-3.30469 C1.18229,-3.36198 1.15625,-3.42708 1.15625,-3.5 C1.15625,-3.57292 1.18229,-3.63802 1.23438,-3.69531 C1.28646,-3.7526 1.34896,-3.78125 1.42188,-3.78125 L9.46875,-3.78125 C9.54167,-3.78125 9.60156,-3.7526 9.64844,-3.69531 C9.69531,-3.63802 9.71875,-3.57292 9.71875,-3.5 C9.71875,-3.42708 9.69531,-3.36198 9.64844,-3.30469 C9.60156,-3.2474 9.54167,-3.21875 9.46875,-3.21875 L1.42188,-3.21875"/>
</g>

<g fill="#212121" fill-opacity="1" stroke="none" transform="matrix(0.75,0,0,0.75,180.453,138.34)"
font-family="MS Shell Dlg 2" font-size="8.25" font-weight="400" font-style="normal" 
>
<path vector-effect="none" fill-rule="evenodd" d="M1.04688,-3.21875 C0.973958,-3.21875 0.911458,-3.2474 0.859375,-3.30469 C0.807292,-3.36198 0.78125,-3.42708 0.78125,-3.5 C0.78125,-3.57292 0.807292,-3.63802 0.859375,-3.69531 C0.911458,-3.7526 0.973958,-3.78125 1.04688,-3.78125 L5.17188,-3.78125 L5.17188,-7.90625 C5.17188,-7.97917 5.19792,-8.03906 5.25,-8.08594 C5.30208,-8.13281 5.36979,-8.15625 5.45313,-8.15625 C5.51563,-8.15625 5.57813,-8.13281 5.64063,-8.08594 C5.70313,-8.03906 5.73438,-7.97917 5.73438,-7.90625 L5.73438,-3.78125 L9.84375,-3.78125 C9.91667,-3.78125 9.97656,-3.7526 10.0234,-3.69531 C10.0703,-3.63802 10.0938,-3.57292 10.0938,-3.5 C10.0938,-3.42708 10.0703,-3.36198 10.0234,-3.30469 C9.97656,-3.2474 9.91667,-3.21875 9.84375,-3.21875 L5.73438,-3.21875 L5.73438,0.90625 C5.73438,0.979167 5.70313,1.03906 5.64063,1.08594 C5.57813,1.13281 5.51563,1.15625 5.45313,1.15625 C5.36979,1.15625 5.30208,1.13281 5.25,1.08594 C5.19792,1.03906 5.17188,0.979167 5.17188,0.90625 L5.17188,-3.21875 L1.04688,-3.21875"/>
</g>

<g fill="#212121" fill-opacity="1" stroke="none" transform="matrix(0,-0.75,0.75,0,134.25,66.5832)"
font-family="MS Shell Dlg 2" font-size="8.25" font-weight="400" font-style="normal" 
>
<path vector-effect="none" fill-rule="evenodd" d="M1.34375,2.29688 C1.57292,2.68229 1.96354,2.875 2.51563,2.875 C3.02604,2.875 3.46615,2.69531 3.83594,2.33594 C4.20573,1.97656 4.5026,1.54688 4.72656,1.04688 C4.95052,0.546875 5.125,0.03125 5.25,-0.5 C4.78125,-0.0416667 4.27083,0.1875 3.71875,0.1875 C3.29167,0.1875 2.92969,0.111979 2.63281,-0.0390625 C2.33594,-0.190104 2.10677,-0.408854 1.94531,-0.695313 C1.78385,-0.981771 1.70313,-1.33333 1.70313,-1.75 C1.70313,-2.09375 1.75,-2.45052 1.84375,-2.82031 C1.9375,-3.1901 2.06771,-3.59896 2.23438,-4.04688 C2.40104,-4.49479 2.54688,-4.88542 2.67188,-5.21875 C2.81771,-5.61458 2.89063,-5.9375 2.89063,-6.1875 C2.89063,-6.5 2.77083,-6.65625 2.53125,-6.65625 C2.11458,-6.65625 1.76823,-6.4401 1.49219,-6.00781 C1.21615,-5.57552 1.01563,-5.08854 0.890625,-4.54688 C0.869792,-4.48438 0.822917,-4.45313 0.75,-4.45313 L0.5625,-4.45313 C0.479167,-4.45313 0.4375,-4.5 0.4375,-4.59375 L0.4375,-4.64063 C0.604167,-5.27604 0.864583,-5.84115 1.21875,-6.33594 C1.57292,-6.83073 2.02083,-7.07813 2.5625,-7.07813 C2.94792,-7.07813 3.27083,-6.95313 3.53125,-6.70313 C3.79167,-6.45313 3.92188,-6.13542 3.92188,-5.75 C3.92188,-5.55208 3.88021,-5.34375 3.79688,-5.125 C3.74479,-4.98958 3.63542,-4.70313 3.46875,-4.26563 C3.30208,-3.82813 3.17448,-3.46615 3.08594,-3.17969 C2.9974,-2.89323 2.92448,-2.61198 2.86719,-2.33594 C2.8099,-2.0599 2.78125,-1.78646 2.78125,-1.51563 C2.78125,-1.16146 2.85677,-0.861979 3.00781,-0.617188 C3.15885,-0.372396 3.40104,-0.25 3.73438,-0.25 C4.39063,-0.25 4.98438,-0.651042 5.51563,-1.45313 L6.71875,-6.39063 C6.76042,-6.52604 6.84635,-6.64583 6.97656,-6.75 C7.10677,-6.85417 7.24479,-6.90625 7.39063,-6.90625 C7.52604,-6.90625 7.64063,-6.86458 7.73438,-6.78125 C7.82813,-6.69792 7.875,-6.58854 7.875,-6.45313 C7.875,-6.39063 7.86979,-6.34896 7.85938,-6.32813 L6.28125,0.046875 C6.13542,0.588542 5.875,1.11198 5.5,1.61719 C5.125,2.1224 4.67448,2.52604 4.14844,2.82813 C3.6224,3.13021 3.07292,3.28125 2.5,3.28125 C2.21875,3.28125 1.94271,3.22917 1.67188,3.125 C1.40104,3.02083 1.18229,2.86198 1.01563,2.64844 C0.848958,2.4349 0.765625,2.18229 0.765625,1.89063 C0.765625,1.59896 0.851563,1.34635 1.02344,1.13281 C1.19531,0.919271 1.42708,0.8125 1.71875,0.8125 C1.88542,0.8125 2.02865,0.867188 2.14844,0.976563 C2.26823,1.08594 2.32813,1.22396 2.32813,1.39063 C2.32813,1.64063 2.23698,1.85677 2.05469,2.03906 C1.8724,2.22135 1.65625,2.3125 1.40625,2.3125 C1.39583,2.30208 1.38542,2.29688 1.375,2.29688 C1.36458,2.29688 1.35417,2.29688 1.34375,2.29688 "/>
</g>

<g fill="#212121" fill-opacity="1" stroke="#212121" stroke-opacity="1" stroke-width="1.06667" stroke-linecap="square" stroke-linejoin="round" transform="matrix(0.75,0,0,0.75,-43.944,-10.85)"
font-family="MS Shell Dlg 2" font-size="8.25" font-weight="400" font-style="normal" 
>
<polyline fill="none" vector-effect="none" points="249,181 249,17 " />
<polyline fill="none" vector-effect="none" points="378,181 378,17 " />
</g>

<g fill="none" stroke="#000000" stroke-opacity="1" stroke-width="1.33333" stroke-linecap="butt" stroke-linejoin="round" transform="matrix(0.75,0,0,0.75,-43.944,-10.85)"
font-family="MS Shell Dlg 2" font-size="8.25" font-weight="400" font-style="normal" 
>
<polyline fill="none" vector-effect="none" points="266.396,181 266.503,180.364 267.151,176.53 267.799,172.75 268.447,169.023 269.095,165.349 269.744,161.728 270.392,158.161 271.04,154.647 271.688,151.186 272.337,147.778 272.985,144.424 273.633,141.122 274.281,137.874 274.93,134.68 275.578,131.538 276.226,128.45 276.874,125.415 277.523,122.433 278.171,119.505 278.819,116.629 279.467,113.807 280.116,111.039 280.764,108.323 281.412,105.661 282.06,103.052 282.709,100.496 283.357,97.9935 284.005,95.5442 284.653,93.1482 285.302,90.8054 285.95,88.5158 286.598,86.2795 287.246,84.0965 287.894,81.9666 288.543,79.8901 289.191,77.8668 289.839,75.8967 290.487,73.9798 291.136,72.1162 291.784,70.3059 292.432,68.5488 293.08,66.8449 293.729,65.1943 294.377,63.597 295.025,62.0529 295.673,60.562 296.322,59.1244 296.97,57.74 297.618,56.4088 298.266,55.131 298.915,53.9063 299.563,52.7349 300.211,51.6168 300.859,50.5518 301.508,49.5402 302.156,48.5818 302.804,47.6766 303.452,46.8247 304.1,46.026 304.749,45.2806 305.397,44.5884 306.045,43.9494 306.693,43.3637 307.342,42.8313 307.99,42.3521 308.638,41.9261 309.286,41.5534 309.935,41.2339 310.583,40.9677 311.231,40.7547 311.879,40.595 312.528,40.4885 313.176,40.4352 313.824,40.4352 314.472,40.4885 315.121,40.595 315.769,40.7547 316.417,40.9677 317.065,41.2339 317.714,41.5534 318.362,41.9261 319.01,42.3521 319.658,42.8313 320.307,43.3637 320.955,43.9494 321.603,44.5884 322.251,45.2806 322.9,46.026 323.548,46.8247 324.196,47.6766 324.844,48.5818 325.492,49.5402 326.141,50.5518 326.789,51.6168 327.437,52.7349 328.085,53.9063 328.734,55.131 329.382,56.4088 330.03,57.74 330.678,59.1244 331.327,60.562 331.975,62.0529 332.623,63.597 333.271,65.1943 333.92,66.8449 334.568,68.5488 335.216,70.3059 335.864,72.1162 336.513,73.9798 337.161,75.8967 337.809,77.8668 338.457,79.8901 339.106,81.9666 339.754,84.0965 340.402,86.2795 341.05,88.5158 341.698,90.8054 342.347,93.1482 342.995,95.5442 343.643,97.9935 344.291,100.496 344.94,103.052 345.588,105.661 346.236,108.323 346.884,111.039 347.533,113.807 348.181,116.629 348.829,119.505 349.477,122.433 350.126,125.415 350.774,128.45 351.422,131.538 352.07,134.68 352.719,137.874 353.367,141.122 354.015,144.424 354.663,147.778 355.312,151.186 355.96,154.647 356.608,158.161 357.256,161.728 357.905,165.349 358.553,169.023 359.201,172.75 359.849,176.53 360.497,180.364 360.604,181 " />
</g>

<g fill="#000000" fill-opacity="1" stroke="#000000" stroke-opacity="1" stroke-width="2" stroke-linecap="butt" stroke-linejoin="round" transform="matrix(0.75,0,0,0.75,-43.944,-10.85)"
font-family="MS Shell Dlg 2" font-size="8.25" font-weight="400" font-style="normal" 
>
<polyline fill="none" vector-effect="none" points="270.5,157.571 304.9,45.1143 " />
</g>

<g fill="#808080" fill-opacity="1" stroke="none" transform="matrix(0.75,0,0,0.75,-43.944,-10.85)"
font-family="MS Shell Dlg 2" font-size="8.25" font-weight="400" font-style="normal" 
>
<circle cx="270.5" cy="157.571" r="4.21637"/>
</g>

<g fill="none" stroke="#000000" stroke-opacity="1" stroke-width="0.666667" stroke-linecap="butt" stroke-linejoin="miter" stroke-miterlimit="2" transform="matrix(0.75,0,0,0.75,-43.944,-10.85)"
font-family="MS Shell Dlg 2" font-size="8.25" font-weight="400" font-style="normal" 
>
<path vector-effect="none" fill-rule="evenodd" d="M274.716,157.571 C274.716,155.243 272.829,153.355 270.5,153.355 C268.171,153.355 266.284,155.243 266.284,157.571 C266.284,159.9 268.171,161.788 270.5,161.788 C272.829,161.788 274.716,159.9 274.716,157.571 "/>
</g>

<g fill="#808080" fill-opacity="1" stroke="none" transform="matrix(0.75,0,0,0.75,-43.944,-10.85)"
font-family="MS Shell Dlg 2" font-size="8.25" font-weight="400" font-style="normal" 
>
<circle cx="304.9" cy="45.1143" r="4.21637"/>
</g>

<g fill="none" stroke="#000000" stroke-opacity="1" stroke-width="0.666667" stroke-linecap="butt" stroke-linejoin="miter" stroke-miterlimit="2" transform="matrix(0.75,0,0,0.75,-43.944,-10.85)"
font-family="MS Shell Dlg 2" font-size="8.25" font-weight="400" font-style="normal" 
>
<path vector-effect="none" fill-rule="evenodd" d="M309.116,45.1143 C309.116,42.7857 307.229,40.8979 304.9,40.8979 C302.571,40.8979 300.684,42.7857 300.684,45.1143 C300.684,47.4429 302.571,49.3307 304.9,49.3307 C307.229,49.3307 309.116,47.4429 309.116,45.1143 "/>
</g>

<g fill="none" stroke="#000000" stroke-opacity="1" stroke-width="1.06667" stroke-linecap="butt" stroke-linejoin="round" transform="matrix(0.75,0,0,0.75,-43.944,-10.85)"
font-family="MS Shell Dlg 2" font-size="8.25" font-weight="400" font-style="normal" 
>
<polyline fill="none" vector-effect="none" points="249,181 249.648,181 250.296,181 250.945,181 251.593,181 252.241,181 252.889,181 253.538,181 254.186,181 254.834,180.999 255.482,180.999 256.131,180.997 256.779,180.994 257.427,180.987 258.075,180.974 258.724,180.95 259.372,180.906 260.02,180.83 260.668,180.704 261.317,180.502 261.965,180.191 262.613,179.731 263.261,179.08 263.91,178.196 264.558,177.048 265.206,175.623 265.854,173.941 266.503,172.055 267.151,170.061 267.799,168.09 268.447,166.294 269.095,164.834 269.744,163.848 270.392,163.437 271.04,163.644 271.688,164.447 272.337,165.763 272.985,167.464 273.633,169.394 274.281,171.397 274.93,173.331 275.578,175.089 276.226,176.603 276.874,177.844 277.523,178.813 278.171,179.538 278.819,180.056 279.467,180.412 280.116,180.647 280.764,180.795 281.412,180.885 282.06,180.938 282.709,180.968 283.357,180.984 284.005,180.992 284.653,180.996 285.302,180.998 285.95,180.999 286.598,181 287.246,181 287.894,181 288.543,181 289.191,181 289.839,181 290.487,181 291.136,181 291.784,181 292.432,181 293.08,181 293.729,181 294.377,181 295.025,181 295.673,181 296.322,181 296.97,181 297.618,181 298.266,181 298.915,181 299.563,181 300.211,181 300.859,181 301.508,181 302.156,181 302.804,181 303.452,181 304.1,181 304.749,181 305.397,181 306.045,181 306.693,181 307.342,181 307.99,181 308.638,181 309.286,181 309.935,181 310.583,181 311.231,181 311.879,181 312.528,181 313.176,181 313.824,181 314.472,181 315.121,181 315.769,181 316.417,181 317.065,181 317.714,181 318.362,181 319.01,181 319.658,181 320.307,181 320.955,181 321.603,181 322.251,181 322.9,181 323.548,181 324.196,181 324.844,181 325.492,181 326.141,181 326.789,181 327.437,181 328.085,181 328.734,181 329.382,181 330.03,181 330.678,181 331.327,181 331.975,181 332.623,181 333.271,181 333.92,181 334.568,181 335.216,181 335.864,181 336.513,181 337.161,181 337.809,181 338.457,181 339.106,181 339.754,181 340.402,181 341.05,181 341.698,181 342.347,181 342.995,181 343.643,181 344.291,181 344.94,181 345.588,181 346.236,181 346.884,181 347.533,181 348.181,181 348.829,181 349.477,181 350.126,181 350.774,181 351.422,181 352.07,181 352.719,181 353.367,181 354.015,181 354.663,181 355.312,181 355.96,181 356.608,181 357.256,181 357.905,181 358.553,181 359.201,181 359.849,181 360.497,181 361.146,181 361.794,181 362.442,181 363.09,181 363.739,181 364.387,181 365.035,181 365.683,181 366.332,181 366.98,181 367.628,181 368.276,181 368.925,181 369.573,181 370.221,181 370.869,181 371.518,181 372.166,181 372.814,181 373.462,181 374.111,181 374.759,181 375.407,181 376.055,181 376.704,181 377.352,181 378,181 " />
<polyline fill="none" vector-effect="none" points="249,181 249.648,181 250.296,181 250.945,181 251.593,181 252.241,181 252.889,181 253.538,181 254.186,181 254.834,181 255.482,181 256.131,181 256.779,181 257.427,181 258.075,181 258.724,181 259.372,181 260.02,181 260.668,181 261.317,181 261.965,181 262.613,181 263.261,181 263.91,181 264.558,181 265.206,181 265.854,181 266.503,181 267.151,181 267.799,181 268.447,181 269.095,181 269.744,181 270.392,181 271.04,181 271.688,181 272.337,181 272.985,181 273.633,181 274.281,181 274.93,181 275.578,181 276.226,181 276.874,181 277.523,181 278.171,181 278.819,181 279.467,181 280.116,181 280.764,181 281.412,181 282.06,181 282.709,181 283.357,181 284.005,181 284.653,181 285.302,181 285.95,181 286.598,181 287.246,181 287.894,181 288.543,181 289.191,180.999 289.839,180.999 290.487,180.997 291.136,180.994 291.784,180.988 292.432,180.975 293.08,180.952 293.729,180.91 294.377,180.837 295.025,180.715 295.673,180.518 296.322,180.216 296.97,179.767 297.618,179.13 298.266,178.263 298.915,177.133 299.563,175.727 300.211,174.06 300.859,172.185 301.508,170.195 302.156,168.217 302.804,166.405 303.452,164.918 304.1,163.897 304.749,163.446 305.397,163.611 306.045,164.376 306.693,165.661 307.342,167.341 307.99,169.262 308.638,171.264 309.286,173.206 309.935,174.979 310.583,176.511 311.231,177.769 311.879,178.756 312.528,179.496 313.176,180.027 313.824,180.393 314.472,180.634 315.121,180.787 315.769,180.881 316.417,180.935 317.065,180.966 317.714,180.983 318.362,180.992 319.01,180.996 319.658,180.998 320.307,180.999 320.955,181 321.603,181 322.251,181 322.9,181 323.548,181 324.196,181 324.844,181 325.492,181 326.141,181 326.789,181 327.437,181 328.085,181 328.734,181 329.382,181 330.03,181 330.678,181 331.327,181 331.975,181 332.623,181 333.271,181 333.92,181 334.568,181 335.216,181 335.864,181 336.513,181 337.161,181 337.809,181 338.457,181 339.106,181 339.754,181 340.402,181 341.05,181 341.698,181 342.347,181 342.995,181 343.643,181 344.291,181 344.94,181 345.588,181 346.236,181 346.884,181 347.533,181 348.181,181 348.829,181 349.477,181 350.126,181 350.774,181 351.422,181 352.07,181 352.719,181 353.367,181 354.015,181 354.663,181 355.312,181 355.96,181 356.608,181 357.256,181 357.905,181 358.553,181 359.201,181 359.849,181 360.497,181 361.146,181 361.794,181 362.442,181 363.09,181 363.739,181 364.387,181 365.035,181 365.683,181 366.332,181 366.98,181 367.628,181 368.276,181 368.925,181 369.573,181 370.221,181 370.869,181 371.518,181 372.166,181 372.814,181 373.462,181 374.111,181 374.759,181 375.407,181 376.055,181 376.704,181 377.352,181 378,181 " />
</g>

<g fill="#212121" fill-opacity="1" stroke="none" transform="matrix(0.75,0,0,0.75,164.931,14.0607)"
font-family="MS Shell Dlg 2" font-size="8.25" font-weight="400" font-style="normal" 
>
<path vector-effect="none" fill-rule="evenodd" d="M-0.015625,0 L3.5625,-9.3125 L4.875,-9.3125 L8.6875,0 L7.28125,0 L6.20313,-2.8125 L2.3125,-2.8125 L1.28125,0 L-0.015625,0 M2.67188,-3.82813 L5.82813,-3.82813 L4.84375,-6.40625 C4.55208,-7.1875 4.33333,-7.82813 4.1875,-8.32813 C4.07292,-7.73438 3.90625,-7.14063 3.6875,-6.54688 L2.67188,-3.82813 M10.9063,0 L9.84375,0 L9.84375,-9.3125 L11,-9.3125 L11,-5.98438 C11.4792,-6.58854 12.0938,-6.89063 12.8438,-6.89063 C13.2604,-6.89063 13.6536,-6.80729 14.0234,-6.64063 C14.3932,-6.47396 14.6979,-6.23958 14.9375,-5.9375 C15.1771,-5.63542 15.3646,-5.27083 15.5,-4.84375 C15.6354,-4.41667 15.7031,-3.95833 15.7031,-3.46875 C15.7031,-2.3125 15.4167,-1.41927 14.8438,-0.789063 C14.2708,-0.158854 13.5833,0.15625 12.7813,0.15625 C11.9896,0.15625 11.3646,-0.177083 10.9063,-0.84375 L10.9063,0 M10.8906,-3.42188 C10.8906,-2.60938 11.0052,-2.02604 11.2344,-1.67188 C11.5885,-1.07813 12.0729,-0.78125 12.6875,-0.78125 C13.1875,-0.78125 13.6198,-1 13.9844,-1.4375 C14.349,-1.875 14.5313,-2.52083 14.5313,-3.375 C14.5313,-4.26042 14.3568,-4.91146 14.0078,-5.32813 C13.6589,-5.74479 13.2344,-5.95313 12.7344,-5.95313 C12.2344,-5.95313 11.8021,-5.73698 11.4375,-5.30469 C11.0729,-4.8724 10.8906,-4.24479 10.8906,-3.42188 M16.4063,-2.01563 L17.5313,-2.1875 C17.5938,-1.73958 17.7708,-1.39323 18.0625,-1.14844 C18.3542,-0.903646 18.7604,-0.78125 19.2813,-0.78125 C19.8021,-0.78125 20.1901,-0.888021 20.4453,-1.10156 C20.7005,-1.3151 20.8281,-1.56771 20.8281,-1.85938 C20.8281,-2.11979 20.7135,-2.32292 20.4844,-2.46875 C20.3281,-2.57292 19.9375,-2.70313 19.3125,-2.85938 C18.4792,-3.06771 17.901,-3.25 17.5781,-3.40625 C17.2552,-3.5625 17.0104,-3.77604 16.8438,-4.04688 C16.6771,-4.31771 16.5938,-4.61979 16.5938,-4.95313 C16.5938,-5.25521 16.6615,-5.53385 16.7969,-5.78906 C16.9323,-6.04427 17.1198,-6.25521 17.3594,-6.42188 C17.5365,-6.55729 17.7786,-6.66927 18.0859,-6.75781 C18.3932,-6.84635 18.724,-6.89063 19.0781,-6.89063 C19.599,-6.89063 20.0599,-6.8151 20.4609,-6.66406 C20.862,-6.51302 21.1589,-6.30729 21.3516,-6.04688 C21.5443,-5.78646 21.6771,-5.4375 21.75,-5 L20.625,-4.84375 C20.5729,-5.19792 20.4271,-5.47135 20.1875,-5.66406 C19.9479,-5.85677 19.6042,-5.95313 19.1563,-5.95313 C18.6354,-5.95313 18.2604,-5.86719 18.0313,-5.69531 C17.8021,-5.52344 17.6875,-5.31771 17.6875,-5.07813 C17.6875,-4.93229 17.7344,-4.80208 17.8281,-4.6875 C17.9219,-4.5625 18.0677,-4.45833 18.2656,-4.375 C18.3802,-4.33333 18.7188,-4.23958 19.2813,-4.09375 C20.0938,-3.875 20.6589,-3.69792 20.9766,-3.5625 C21.2943,-3.42708 21.5443,-3.22656 21.7266,-2.96094 C21.9089,-2.69531 22,-2.36979 22,-1.98438 C22,-1.59896 21.888,-1.23958 21.6641,-0.90625 C21.4401,-0.572917 21.1198,-0.3125 20.7031,-0.125 C20.2865,0.0625 19.8125,0.15625 19.2813,0.15625 C18.4063,0.15625 17.7396,-0.0260417 17.2813,-0.390625 C16.8229,-0.755208 16.5313,-1.29688 16.4063,-2.01563 M26.3594,-1.01563 L26.5156,-0.015625 C26.1927,0.0572917 25.9063,0.09375 25.6563,0.09375 C25.2396,0.09375 24.9167,0.0260417 24.6875,-0.109375 C24.4583,-0.244792 24.2969,-0.419271 24.2031,-0.632813 C24.1094,-0.846354 24.0625,-1.29167 24.0625,-1.96875 L24.0625,-5.85938 L23.2344,-5.85938 L23.2344,-6.73438 L24.0625,-6.73438 L24.0625,-8.40625 L25.2031,-9.09375 L25.2031,-6.73438 L26.3594,-6.73438 L26.3594,-5.85938 L25.2031,-5.85938 L25.2031,-1.90625 C25.2031,-1.58333 25.224,-1.375 25.2656,-1.28125 C25.3073,-1.1875 25.3724,-1.11458 25.4609,-1.0625 C25.5495,-1.01042 25.6771,-0.984375 25.8438,-0.984375 C25.9792,-0.984375 26.151,-0.994792 26.3594,-1.01563 M32.25,-0.828125 C31.8333,-0.473958 31.4297,-0.221354 31.0391,-0.0703125 C30.6484,0.0807292 30.2292,0.15625 29.7813,0.15625 C29.0313,0.15625 28.4583,-0.0260417 28.0625,-0.390625 C27.6667,-0.755208 27.4688,-1.21875 27.4688,-1.78125 C27.4688,-2.10417 27.5443,-2.40365 27.6953,-2.67969 C27.8464,-2.95573 28.0443,-3.17708 28.2891,-3.34375 C28.5339,-3.51042 28.8073,-3.63542 29.1094,-3.71875 C29.3281,-3.77083 29.6667,-3.82813 30.125,-3.89063 C31.0417,-3.99479 31.7188,-4.125 32.1563,-4.28125 C32.1667,-4.4375 32.1719,-4.53646 32.1719,-4.57813 C32.1719,-5.04688 32.0625,-5.375 31.8438,-5.5625 C31.5521,-5.82292 31.1198,-5.95313 30.5469,-5.95313 C30.0052,-5.95313 29.6068,-5.85938 29.3516,-5.67188 C29.0964,-5.48438 28.9063,-5.15104 28.7813,-4.67188 L27.6719,-4.8125 C27.7656,-5.29167 27.9297,-5.67969 28.1641,-5.97656 C28.3984,-6.27344 28.737,-6.5 29.1797,-6.65625 C29.6224,-6.8125 30.1302,-6.89063 30.7031,-6.89063 C31.2865,-6.89063 31.7578,-6.82292 32.1172,-6.6875 C32.4766,-6.55208 32.7396,-6.38281 32.9063,-6.17969 C33.0729,-5.97656 33.1927,-5.71875 33.2656,-5.40625 C33.2969,-5.20833 33.3125,-4.85417 33.3125,-4.34375 L33.3125,-2.82813 C33.3125,-1.76563 33.3385,-1.09375 33.3906,-0.8125 C33.4427,-0.53125 33.5365,-0.260417 33.6719,0 L32.4844,0 C32.3698,-0.239583 32.2917,-0.515625 32.25,-0.828125 M32.1563,-3.39063 C31.7396,-3.21354 31.1198,-3.06771 30.2969,-2.95313 C29.8281,-2.88021 29.4948,-2.80208 29.2969,-2.71875 C29.099,-2.63542 28.9479,-2.51302 28.8438,-2.35156 C28.7396,-2.1901 28.6875,-2.01042 28.6875,-1.8125 C28.6875,-1.51042 28.8021,-1.25781 29.0313,-1.05469 C29.2604,-0.851563 29.599,-0.75 30.0469,-0.75 C30.4844,-0.75 30.875,-0.846354 31.2188,-1.03906 C31.5625,-1.23177 31.8177,-1.49479 31.9844,-1.82813 C32.099,-2.07813 32.1563,-2.45833 32.1563,-2.96875 L32.1563,-3.39063 M34.8594,0 L34.8594,-6.73438 L35.8906,-6.73438 L35.8906,-5.78125 C36.3802,-6.52083 37.0938,-6.89063 38.0313,-6.89063 C38.4375,-6.89063 38.8099,-6.81771 39.1484,-6.67188 C39.487,-6.52604 39.7422,-6.33594 39.9141,-6.10156 C40.0859,-5.86719 40.2031,-5.58333 40.2656,-5.25 C40.3073,-5.04167 40.3281,-4.67188 40.3281,-4.14063 L40.3281,0 L39.1875,0 L39.1875,-4.09375 C39.1875,-4.5625 39.1432,-4.91146 39.0547,-5.14063 C38.9661,-5.36979 38.8099,-5.55469 38.5859,-5.69531 C38.362,-5.83594 38.099,-5.90625 37.7969,-5.90625 C37.3073,-5.90625 36.8854,-5.7526 36.5313,-5.44531 C36.1771,-5.13802 36,-4.55208 36,-3.6875 L36,0 L34.8594,0 M46.2344,0 L46.2344,-0.84375 C45.8073,-0.177083 45.1771,0.15625 44.3438,0.15625 C43.8125,0.15625 43.3203,0.0078125 42.8672,-0.289063 C42.4141,-0.585938 42.0625,-1 41.8125,-1.53125 C41.5625,-2.0625 41.4375,-2.67188 41.4375,-3.35938 C41.4375,-4.03646 41.5521,-4.64844 41.7813,-5.19531 C42.0104,-5.74219 42.349,-6.16146 42.7969,-6.45313 C43.2448,-6.74479 43.7448,-6.89063 44.2969,-6.89063 C44.7031,-6.89063 45.0651,-6.80469 45.3828,-6.63281 C45.7005,-6.46094 45.9583,-6.23958 46.1563,-5.96875 L46.1563,-9.3125 L47.2969,-9.3125 L47.2969,0 L46.2344,0 M42.625,-3.35938 C42.625,-2.49479 42.8047,-1.84896 43.1641,-1.42188 C43.5234,-0.994792 43.9531,-0.78125 44.4531,-0.78125 C44.9531,-0.78125 45.3776,-0.986979 45.7266,-1.39844 C46.0755,-1.8099 46.25,-2.43229 46.25,-3.26563 C46.25,-4.19271 46.0729,-4.8724 45.7188,-5.30469 C45.3646,-5.73698 44.9271,-5.95313 44.4063,-5.95313 C43.8958,-5.95313 43.4714,-5.74479 43.1328,-5.32813 C42.7943,-4.91146 42.625,-4.25521 42.625,-3.35938 M52.6406,0.5625 L53.7656,0.71875 C53.8073,1.0625 53.9323,1.3125 54.1406,1.46875 C54.4323,1.6875 54.8229,1.79688 55.3125,1.79688 C55.8333,1.79688 56.2396,1.6901 56.5313,1.47656 C56.8229,1.26302 57.0156,0.963542 57.1094,0.578125 C57.1719,0.348958 57.2031,-0.135417 57.2031,-0.875 C56.7031,-0.291667 56.0781,0 55.3281,0 C54.401,0 53.6849,-0.333333 53.1797,-1 C52.6745,-1.66667 52.4219,-2.46875 52.4219,-3.40625 C52.4219,-4.05208 52.5391,-4.64583 52.7734,-5.1875 C53.0078,-5.72917 53.3438,-6.14844 53.7813,-6.44531 C54.2188,-6.74219 54.7396,-6.89063 55.3438,-6.89063 C56.1354,-6.89063 56.7917,-6.56771 57.3125,-5.92188 L57.3125,-6.73438 L58.3594,-6.73438 L58.3594,-0.921875 C58.3594,0.130208 58.2526,0.875 58.0391,1.3125 C57.8255,1.75 57.487,2.09635 57.0234,2.35156 C56.5599,2.60677 55.9896,2.73438 55.3125,2.73438 C54.5104,2.73438 53.862,2.55469 53.3672,2.19531 C52.8724,1.83594 52.6302,1.29167 52.6406,0.5625 M53.5938,-3.48438 C53.5938,-2.60938 53.7682,-1.96875 54.1172,-1.5625 C54.4661,-1.15625 54.9063,-0.953125 55.4375,-0.953125 C55.9688,-0.953125 56.4115,-1.15365 56.7656,-1.55469 C57.1198,-1.95573 57.2969,-2.58854 57.2969,-3.45313 C57.2969,-4.27604 57.1146,-4.89844 56.75,-5.32031 C56.3854,-5.74219 55.9427,-5.95313 55.4219,-5.95313 C54.9115,-5.95313 54.4792,-5.74479 54.125,-5.32813 C53.7708,-4.91146 53.5938,-4.29688 53.5938,-3.48438 M64.2813,0 L64.2813,-0.984375 C63.75,-0.223958 63.0365,0.15625 62.1406,0.15625 C61.7448,0.15625 61.3724,0.078125 61.0234,-0.078125 C60.6745,-0.234375 60.4167,-0.427083 60.25,-0.65625 C60.0833,-0.885417 59.9688,-1.16667 59.9063,-1.5 C59.8542,-1.71875 59.8281,-2.07292 59.8281,-2.5625 L59.8281,-6.73438 L60.9688,-6.73438 L60.9688,-3 C60.9688,-2.40625 60.9948,-2.00521 61.0469,-1.79688 C61.1198,-1.49479 61.2708,-1.25781 61.5,-1.08594 C61.7292,-0.914063 62.0156,-0.828125 62.3594,-0.828125 C62.7031,-0.828125 63.026,-0.916667 63.3281,-1.09375 C63.6302,-1.27083 63.8438,-1.51042 63.9688,-1.8125 C64.0938,-2.11458 64.1563,-2.55208 64.1563,-3.125 L64.1563,-6.73438 L65.2969,-6.73438 L65.2969,0 L64.2813,0 M69.3594,-1.01563 L69.5156,-0.015625 C69.1927,0.0572917 68.9063,0.09375 68.6563,0.09375 C68.2396,0.09375 67.9167,0.0260417 67.6875,-0.109375 C67.4583,-0.244792 67.2969,-0.419271 67.2031,-0.632813 C67.1094,-0.846354 67.0625,-1.29167 67.0625,-1.96875 L67.0625,-5.85938 L66.2344,-5.85938 L66.2344,-6.73438 L67.0625,-6.73438 L67.0625,-8.40625 L68.2031,-9.09375 L68.2031,-6.73438 L69.3594,-6.73438 L69.3594,-5.85938 L68.2031,-5.85938 L68.2031,-1.90625 C68.2031,-1.58333 68.224,-1.375 68.2656,-1.28125 C68.3073,-1.1875 68.3724,-1.11458 68.4609,-1.0625 C68.5495,-1.01042 68.6771,-0.984375 68.8438,-0.984375 C68.9792,-0.984375 69.151,-0.994792 69.3594,-1.01563 "/>
</g>

<g fill="#ffffff" fill-opacity="1" stroke="none" transform="matrix(7.5e-05,0,0,7.5e-05,-43.944,-10.85)"
font-family="MS Shell Dlg 2" font-size="8.25" font-weight="400" font-style="normal" 
>
<path vector-effect="none" fill-rule="evenodd" d="M4.18e+06,170000 L4.18e+06,1.81e+06 L5.48e+06,1.81e+06 L5.48e+06,170000 L4.18e+06,170000"/>
</g>

<g fill="#212121" fill-opacity="1" stroke="none" transform="matrix(0.75,0,0,0.75,312.428,153.764)"
font-family="MS Shell Dlg 2" font-size="8.25" font-weight="400" font-style="normal" 
>
<path vector-effect="none" fill-rule="evenodd" d="M1.25,-0.46875 C1.4375,-0.322917 1.70313,-0.25 2.04688,-0.25 C2.38021,-0.25 2.67448,-0.408854 2.92969,-0.726563 C3.1849,-1.04427 3.35938,-1.39583 3.45313,-1.78125 L4.1875,-4.60938 C4.30208,-5.13021 4.35938,-5.48438 4.35938,-5.67188 C4.35938,-5.93229 4.28385,-6.16146 4.13281,-6.35938 C3.98177,-6.55729 3.77604,-6.65625 3.51563,-6.65625 C3.17188,-6.65625 2.85156,-6.55208 2.55469,-6.34375 C2.25781,-6.13542 2.00781,-5.86719 1.80469,-5.53906 C1.60156,-5.21094 1.45833,-4.88021 1.375,-4.54688 C1.35417,-4.48438 1.3125,-4.45313 1.25,-4.45313 L1.0625,-4.45313 C0.979167,-4.45313 0.9375,-4.5 0.9375,-4.59375 L0.9375,-4.64063 C1.04167,-5.03646 1.21875,-5.42448 1.46875,-5.80469 C1.71875,-6.1849 2.02344,-6.49219 2.38281,-6.72656 C2.74219,-6.96094 3.13021,-7.07813 3.54688,-7.07813 C3.93229,-7.07813 4.28385,-6.97396 4.60156,-6.76563 C4.91927,-6.55729 5.14063,-6.27083 5.26563,-5.90625 C5.45313,-6.23958 5.6875,-6.51823 5.96875,-6.74219 C6.25,-6.96615 6.5625,-7.07813 6.90625,-7.07813 C7.13542,-7.07813 7.36979,-7.03646 7.60938,-6.95313 C7.84896,-6.86979 8.04427,-6.74479 8.19531,-6.57813 C8.34635,-6.41146 8.42188,-6.20313 8.42188,-5.95313 C8.42188,-5.68229 8.33333,-5.45052 8.15625,-5.25781 C7.97917,-5.0651 7.75521,-4.96875 7.48438,-4.96875 C7.31771,-4.96875 7.17708,-5.02344 7.0625,-5.13281 C6.94792,-5.24219 6.89063,-5.38021 6.89063,-5.54688 C6.89063,-5.76563 6.96615,-5.96094 7.11719,-6.13281 C7.26823,-6.30469 7.45313,-6.40625 7.67188,-6.4375 C7.47396,-6.58333 7.20833,-6.65625 6.875,-6.65625 C6.53125,-6.65625 6.23177,-6.4974 5.97656,-6.17969 C5.72135,-5.86198 5.54167,-5.51042 5.4375,-5.125 L4.73438,-2.29688 C4.61979,-1.86979 4.5625,-1.51563 4.5625,-1.23438 C4.5625,-0.963542 4.64063,-0.731771 4.79688,-0.539063 C4.95313,-0.346354 5.15625,-0.25 5.40625,-0.25 C5.90625,-0.25 6.35417,-0.46875 6.75,-0.90625 C7.14583,-1.34375 7.40625,-1.82813 7.53125,-2.35938 C7.55208,-2.42188 7.59375,-2.45313 7.65625,-2.45313 L7.84375,-2.45313 C7.88542,-2.45313 7.91927,-2.4375 7.94531,-2.40625 C7.97135,-2.375 7.98438,-2.34375 7.98438,-2.3125 C7.98438,-2.30208 7.97917,-2.28646 7.96875,-2.26563 C7.82292,-1.63021 7.50781,-1.0625 7.02344,-0.5625 C6.53906,-0.0625 5.98958,0.1875 5.375,0.1875 C4.98958,0.1875 4.63802,0.0807292 4.32031,-0.132813 C4.0026,-0.346354 3.78125,-0.635417 3.65625,-1 C3.48958,-0.6875 3.25781,-0.411458 2.96094,-0.171875 C2.66406,0.0677083 2.34896,0.1875 2.01563,0.1875 C1.78646,0.1875 1.55208,0.145833 1.3125,0.0625 C1.07292,-0.0208333 0.877604,-0.145833 0.726563,-0.3125 C0.575521,-0.479167 0.5,-0.692708 0.5,-0.953125 C0.5,-1.20313 0.585938,-1.42969 0.757813,-1.63281 C0.929688,-1.83594 1.14583,-1.9375 1.40625,-1.9375 C1.58333,-1.9375 1.73177,-1.88542 1.85156,-1.78125 C1.97135,-1.67708 2.03125,-1.53646 2.03125,-1.35938 C2.03125,-1.14063 1.95833,-0.947917 1.8125,-0.78125 C1.66667,-0.614583 1.47917,-0.510417 1.25,-0.46875 "/>
</g>

<g fill="#212121" fill-opacity="1" stroke="none" transform="matrix(0.75,0,0,0.75,319.344,155.579)"
font-family="MS Shell Dlg 2" font-size="8.25" font-weight="400" font-style="normal" 
>
<path vector-effect="none" fill-rule="evenodd" d="M1.01563,0 L1.01563,-0.390625 C1.93229,-0.390625 2.39063,-0.505208 2.39063,-0.734375 L2.39063,-6.51563 C2.01563,-6.32813 1.53646,-6.23438 0.953125,-6.23438 L0.953125,-6.625 C1.84896,-6.625 2.52604,-6.85938 2.98438,-7.32813 L3.14063,-7.32813 C3.17188,-7.32813 3.19792,-7.31771 3.21875,-7.29688 C3.23958,-7.27604 3.25,-7.25521 3.25,-7.23438 L3.25,-0.734375 C3.25,-0.505208 3.70833,-0.390625 4.625,-0.390625 L4.625,0 L1.01563,0"/>
</g>

<g fill="#212121" fill-opacity="1" stroke="#212121" stroke-opacity="1" stroke-width="1.06667" stroke-linecap="square" stroke-linejoin="round" transform="matrix(0.75,0,0,0.75,-43.944,-10.85)"
font-family="MS Shell Dlg 2" font-size="8.25" font-weight="400" font-style="normal" 
>
<polyline fill="none" vector-effect="none" points="418,181 548,181 " />
<polyline fill="none" vector-effect="none" points="418,17 548,17 " />
<polyline fill="none" vector-effect="none" points="439.667,181 439.667,179.36 " />
<polyline fill="none" vector-effect="none" points="439.667,18.64 439.667,17 " />
<polyline fill="none" vector-effect="none" points="526.333,181 526.333,179.36 " />
<polyline fill="none" vector-effect="none" points="526.333,18.64 526.333,17 " />
</g>

<g fill="#212121" fill-opacity="1" stroke="none" transform="matrix(0.75,0,0,0.75,281.528,138.34)"
font-family="MS Shell Dlg 2" font-size="8.25" font-weight="400" font-style="normal" 
>
<path vector-effect="none" fill-rule="evenodd" d="M1.42188,-3.21875 C1.34896,-3.21875 1.28646,-3.2474 1.23438,-3.30469 C1.18229,-3.36198 1.15625,-3.42708 1.15625,-3.5 C1.15625,-3.57292 1.18229,-3.63802 1.23438,-3.69531 C1.28646,-3.7526 1.34896,-3.78125 1.42188,-3.78125 L9.46875,-3.78125 C9.54167,-3.78125 9.60156,-3.7526 9.64844,-3.69531 C9.69531,-3.63802 9.71875,-3.57292 9.71875,-3.5 C9.71875,-3.42708 9.69531,-3.36198 9.64844,-3.30469 C9.60156,-3.2474 9.54167,-3.21875 9.46875,-3.21875 L1.42188,-3.21875"/>
</g>

<g fill="#212121" fill-opacity="1" stroke="none" transform="matrix(0.75,0,0,0.75,346.528,138.34)"
font-family="MS Shell Dlg 2" font-size="8.25" font-weight="400" font-style="normal" 
>
<path vector-effect="none" fill-rule="evenodd" d="M1.04688,-3.21875 C0.973958,-3.21875 0.911458,-3.2474 0.859375,-3.30469 C0.807292,-3.36198 0.78125,-3.42708 0.78125,-3.5 C0.78125,-3.57292 0.807292,-3.63802 0.859375,-3.69531 C0.911458,-3.7526 0.973958,-3.78125 1.04688,-3.78125 L5.17188,-3.78125 L5.17188,-7.90625 C5.17188,-7.97917 5.19792,-8.03906 5.25,-8.08594 C5.30208,-8.13281 5.36979,-8.15625 5.45313,-8.15625 C5.51563,-8.15625 5.57813,-8.13281 5.64063,-8.08594 C5.70313,-8.03906 5.73438,-7.97917 5.73438,-7.90625 L5.73438,-3.78125 L9.84375,-3.78125 C9.91667,-3.78125 9.97656,-3.7526 10.0234,-3.69531 C10.0703,-3.63802 10.0938,-3.57292 10.0938,-3.5 C10.0938,-3.42708 10.0703,-3.36198 10.0234,-3.30469 C9.97656,-3.2474 9.91667,-3.21875 9.84375,-3.21875 L5.73438,-3.21875 L5.73438,0.90625 C5.73438,0.979167 5.70313,1.03906 5.64063,1.08594 C5.57813,1.13281 5.51563,1.15625 5.45313,1.15625 C5.36979,1.15625 5.30208,1.13281 5.25,1.08594 C5.19792,1.03906 5.17188,0.979167 5.17188,0.90625 L5.17188,-3.21875 L1.04688,-3.21875"/>
</g>

<g fill="#212121" fill-opacity="1" stroke="none" transform="matrix(0,-0.75,0.75,0,261,66.5832)"
font-family="MS Shell Dlg 2" font-size="8.25" font-weight="400" font-style="normal" 
>
<path vector-effect="none" fill-rule="evenodd" d="M1.34375,2.29688 C1.57292,2.68229 1.96354,2.875 2.51563,2.875 C3.02604,2.875 3.46615,2.69531 3.83594,2.33594 C4.20573,1.97656 4.5026,1.54688 4.72656,1.04688 C4.95052,0.546875 5.125,0.03125 5.25,-0.5 C4.78125,-0.0416667 4.27083,0.1875 3.71875,0.1875 C3.29167,0.1875 2.92969,0.111979 2.63281,-0.0390625 C2.33594,-0.190104 2.10677,-0.408854 1.94531,-0.695313 C1.78385,-0.981771 1.70313,-1.33333 1.70313,-1.75 C1.70313,-2.09375 1.75,-2.45052 1.84375,-2.82031 C1.9375,-3.1901 2.06771,-3.59896 2.23438,-4.04688 C2.40104,-4.49479 2.54688,-4.88542 2.67188,-5.21875 C2.81771,-5.61458 2.89063,-5.9375 2.89063,-6.1875 C2.89063,-6.5 2.77083,-6.65625 2.53125,-6.65625 C2.11458,-6.65625 1.76823,-6.4401 1.49219,-6.00781 C1.21615,-5.57552 1.01563,-5.08854 0.890625,-4.54688 C0.869792,-4.48438 0.822917,-4.45313 0.75,-4.45313 L0.5625,-4.45313 C0.479167,-4.45313 0.4375,-4.5 0.4375,-4.59375 L0.4375,-4.64063 C0.604167,-5.27604 0.864583,-5.84115 1.21875,-6.33594 C1.57292,-6.83073 2.02083,-7.07813 2.5625,-7.07813 C2.94792,-7.07813 3.27083,-6.95313 3.53125,-6.70313 C3.79167,-6.45313 3.92188,-6.13542 3.92188,-5.75 C3.92188,-5.55208 3.88021,-5.34375 3.79688,-5.125 C3.74479,-4.98958 3.63542,-4.70313 3.46875,-4.26563 C3.30208,-3.82813 3.17448,-3.46615 3.08594,-3.17969 C2.9974,-2.89323 2.92448,-2.61198 2.86719,-2.33594 C2.8099,-2.0599 2.78125,-1.78646 2.78125,-1.51563 C2.78125,-1.16146 2.85677,-0.861979 3.00781,-0.617188 C3.15885,-0.372396 3.40104,-0.25 3.73438,-0.25 C4.39063,-0.25 4.98438,-0.651042 5.51563,-1.45313 L6.71875,-6.39063 C6.76042,-6.52604 6.84635,-6.64583 6.97656,-6.75 C7.10677,-6.85417 7.24479,-6.90625 7.39063,-6.90625 C7.52604,-6.90625 7.64063,-6.86458 7.73438,-6.78125 C7.82813,-6.69792 7.875,-6.58854 7.875,-6.45313 C7.875,-6.39063 7.86979,-6.34896 7.85938,-6.32813 L6.28125,0.046875 C6.13542,0.588542 5.875,1.11198 5.5,1.61719 C5.125,2.1224 4.67448,2.52604 4.14844,2.82813 C3.6224,3.13021 3.07292,3.28125 2.5,3.28125 C2.21875,3.28125 1.94271,3.22917 1.67188,3.125 C1.40104,3.02083 1.18229,2.86198 1.01563,2.64844 C0.848958,2.4349 0.765625,2.18229 0.765625,1.89063 C0.765625,1.59896 0.851563,1.34635 1.02344,1.13281 C1.19531,0.919271 1.42708,0.8125 1.71875,0.8125 C1.88542,0.8125 2.02865,0.867188 2.14844,0.976563 C2.26823,1.08594 2.32813,1.22396 2.32813,1.39063 C2.32813,1.64063 2.23698,1.85677 2.05469,2.03906 C1.8724,2.22135 1.65625,2.3125 1.40625,2.3125 C1.39583,2.30208 1.38542,2.29688 1.375,2.29688 C1.36458,2.29688 1.35417,2.29688 1.34375,2.29688 "/>
</g>

<g fill="#212121" fill-opacity="1" stroke="#212121" stroke-opacity="1" stroke-width="1.06667" stroke-linecap="square" stroke-linejoin="round" transform="matrix(0.75,0,0,0.75,-43.944,-10.85)"
font-family="MS Shell Dlg 2" font-size="8.25" font-weight="400" font-style="normal" 
>
<polyline fill="none" vector-effect="none" points="418,181 418,17 " />
<polyline fill="none" vector-effect="none" points="548,181 548,17 " />
</g>

<g fill="none" stroke="#000000" stroke-opacity="1" stroke-width="1.33333" stroke-linecap="butt" stroke-linejoin="round" transform="matrix(0.75,0,0,0.75,-43.944,-10.85)"
font-family="MS Shell Dlg 2" font-size="8.25" font-weight="400" font-style="normal" 
>
<polyline fill="none" vector-effect="none" points="435.531,181 435.638,180.364 436.291,176.53 436.945,172.75 437.598,169.023 438.251,165.349 438.905,161.728 439.558,158.161 440.211,154.647 440.864,151.186 441.518,147.778 442.171,144.424 442.824,141.122 443.477,137.874 444.131,134.68 444.784,131.538 445.437,128.45 446.09,125.415 446.744,122.433 447.397,119.505 448.05,116.629 448.704,113.807 449.357,111.039 450.01,108.323 450.663,105.661 451.317,103.052 451.97,100.496 452.623,97.9935 453.276,95.5442 453.93,93.1482 454.583,90.8054 455.236,88.5158 455.889,86.2795 456.543,84.0965 457.196,81.9666 457.849,79.8901 458.503,77.8668 459.156,75.8967 459.809,73.9798 460.462,72.1162 461.116,70.3059 461.769,68.5488 462.422,66.8449 463.075,65.1943 463.729,63.597 464.382,62.0529 465.035,60.562 465.688,59.1244 466.342,57.74 466.995,56.4088 467.648,55.131 468.302,53.9063 468.955,52.7349 469.608,51.6168 470.261,50.5518 470.915,49.5402 471.568,48.5818 472.221,47.6766 472.874,46.8247 473.528,46.026 474.181,45.2806 474.834,44.5884 475.487,43.9494 476.141,43.3637 476.794,42.8313 477.447,42.3521 478.1,41.9261 478.754,41.5534 479.407,41.2339 480.06,40.9677 480.714,40.7547 481.367,40.595 482.02,40.4885 482.673,40.4352 483.327,40.4352 483.98,40.4885 484.633,40.595 485.286,40.7547 485.94,40.9677 486.593,41.2339 487.246,41.5534 487.9,41.9261 488.553,42.3521 489.206,42.8313 489.859,43.3637 490.513,43.9494 491.166,44.5884 491.819,45.2806 492.472,46.026 493.126,46.8247 493.779,47.6766 494.432,48.5818 495.085,49.5402 495.739,50.5518 496.392,51.6168 497.045,52.7349 497.698,53.9063 498.352,55.131 499.005,56.4088 499.658,57.74 500.312,59.1244 500.965,60.562 501.618,62.0529 502.271,63.597 502.925,65.1943 503.578,66.8449 504.231,68.5488 504.884,70.3059 505.538,72.1162 506.191,73.9798 506.844,75.8967 507.497,77.8668 508.151,79.8901 508.804,81.9666 509.457,84.0965 510.111,86.2795 510.764,88.5158 511.417,90.8054 512.07,93.1482 512.724,95.5442 513.377,97.9935 514.03,100.496 514.683,103.052 515.337,105.661 515.99,108.323 516.643,111.039 517.297,113.807 517.95,116.629 518.603,119.505 519.256,122.433 519.91,125.415 520.563,128.45 521.216,131.538 521.869,134.68 522.523,137.874 523.176,141.122 523.829,144.424 524.482,147.778 525.136,151.186 525.789,154.647 526.442,158.161 527.095,161.728 527.749,165.349 528.402,169.023 529.055,172.75 529.709,176.53 530.362,180.364 530.469,181 " />
</g>

<g fill="#000000" fill-opacity="1" stroke="#000000" stroke-opacity="1" stroke-width="2" stroke-linecap="butt" stroke-linejoin="round" transform="matrix(0.75,0,0,0.75,-43.944,-10.85)"
font-family="MS Shell Dlg 2" font-size="8.25" font-weight="400" font-style="normal" 
>
<polyline fill="none" vector-effect="none" points="439.667,157.571 526.333,157.571 " />
</g>

<g fill="#808080" fill-opacity="1" stroke="none" transform="matrix(0.75,0,0,0.75,-43.944,-10.85)"
font-family="MS Shell Dlg 2" font-size="8.25" font-weight="400" font-style="normal" 
>
<circle cx="439.667" cy="157.571" r="4.21637"/>
</g>

<g fill="none" stroke="#000000" stroke-opacity="1" stroke-width="0.666667" stroke-linecap="butt" stroke-linejoin="miter" stroke-miterlimit="2" transform="matrix(0.75,0,0,0.75,-43.944,-10.85)"
font-family="MS Shell Dlg 2" font-size="8.25" font-weight="400" font-style="normal" 
>
<path vector-effect="none" fill-rule="evenodd" d="M443.883,157.571 C443.883,155.243 441.995,153.355 439.667,153.355 C437.338,153.355 435.45,155.243 435.45,157.571 C435.45,159.9 437.338,161.788 439.667,161.788 C441.995,161.788 443.883,159.9 443.883,157.571 "/>
</g>

<g fill="#808080" fill-opacity="1" stroke="none" transform="matrix(0.75,0,0,0.75,-43.944,-10.85)"
font-family="MS Shell Dlg 2" font-size="8.25" font-weight="400" font-style="normal" 
>
<circle cx="526.333" cy="157.571" r="4.21637"/>
</g>

<g fill="none" stroke="#000000" stroke-opacity="1" stroke-width="0.666667" stroke-linecap="butt" stroke-linejoin="miter" stroke-miterlimit="2" transform="matrix(0.75,0,0,0.75,-43.944,-10.85)"
font-family="MS Shell Dlg 2" font-size="8.25" font-weight="400" font-style="normal" 
>
<path vector-effect="none" fill-rule="evenodd" d="M530.55,157.571 C530.55,155.243 528.662,153.355 526.333,153.355 C524.005,153.355 522.117,155.243 522.117,157.571 C522.117,159.9 524.005,161.788 526.333,161.788 C528.662,161.788 530.55,159.9 530.55,157.571 "/>
</g>

<g fill="none" stroke="#000000" stroke-opacity="1" stroke-width="1.06667" stroke-linecap="butt" stroke-linejoin="round" transform="matrix(0.75,0,0,0.75,-43.944,-10.85)"
font-family="MS Shell Dlg 2" font-size="8.25" font-weight="400" font-style="normal" 
>
<polyline fill="none" vector-effect="none" points="418,181 418.653,181 419.307,181 419.96,181 420.613,181 421.266,181 421.92,181 422.573,181 423.226,181 423.879,180.999 424.533,180.999 425.186,180.997 425.839,180.994 426.492,180.987 427.146,180.974 427.799,180.95 428.452,180.906 429.106,180.83 429.759,180.704 430.412,180.502 431.065,180.191 431.719,179.731 432.372,179.08 433.025,178.196 433.678,177.048 434.332,175.623 434.985,173.941 435.638,172.055 436.291,170.061 436.945,168.09 437.598,166.294 438.251,164.834 438.905,163.848 439.558,163.437 440.211,163.644 440.864,164.447 441.518,165.763 442.171,167.464 442.824,169.394 443.477,171.397 444.131,173.331 444.784,175.089 445.437,176.603 446.09,177.844 446.744,178.813 447.397,179.538 448.05,180.056 448.704,180.412 449.357,180.647 450.01,180.795 450.663,180.885 451.317,180.938 451.97,180.968 452.623,180.984 453.276,180.992 453.93,180.996 454.583,180.998 455.236,180.999 455.889,181 456.543,181 457.196,181 457.849,181 458.503,181 459.156,181 459.809,181 460.462,181 461.116,181 461.769,181 462.422,181 463.075,181 463.729,181 464.382,181 465.035,181 465.688,181 466.342,181 466.995,181 467.648,181 468.302,181 468.955,181 469.608,181 470.261,181 470.915,181 471.568,181 472.221,181 472.874,181 473.528,181 474.181,181 474.834,181 475.487,181 476.141,181 476.794,181 477.447,181 478.1,181 478.754,181 479.407,181 480.06,181 480.714,181 481.367,181 482.02,181 482.673,181 483.327,181 483.98,181 484.633,181 485.286,181 485.94,181 486.593,181 487.246,181 487.9,181 488.553,181 489.206,181 489.859,181 490.513,181 491.166,181 491.819,181 492.472,181 493.126,181 493.779,181 494.432,181 495.085,181 495.739,181 496.392,181 497.045,181 497.698,181 498.352,181 499.005,181 499.658,181 500.312,181 500.965,181 501.618,181 502.271,181 502.925,181 503.578,181 504.231,181 504.884,181 505.538,181 506.191,181 506.844,181 507.497,181 508.151,181 508.804,181 509.457,181 510.111,181 510.764,181 511.417,181 512.07,181 512.724,181 513.377,181 514.03,181 514.683,181 515.337,181 515.99,181 516.643,181 517.297,181 517.95,181 518.603,181 519.256,181 519.91,181 520.563,181 521.216,181 521.869,181 522.523,181 523.176,181 523.829,181 524.482,181 525.136,181 525.789,181 526.442,181 527.095,181 527.749,181 528.402,181 529.055,181 529.709,181 530.362,181 531.015,181 531.668,181 532.322,181 532.975,181 533.628,181 534.281,181 534.935,181 535.588,181 536.241,181 536.894,181 537.548,181 538.201,181 538.854,181 539.508,181 540.161,181 540.814,181 541.467,181 542.121,181 542.774,181 543.427,181 544.08,181 544.734,181 545.387,181 546.04,181 546.693,181 547.347,181 548,181 " />
<polyline fill="none" vector-effect="none" points="418,181 418.653,181 419.307,181 419.96,181 420.613,181 421.266,181 421.92,181 422.573,181 423.226,181 423.879,181 424.533,181 425.186,181 425.839,181 426.492,181 427.146,181 427.799,181 428.452,181 429.106,181 429.759,181 430.412,181 431.065,181 431.719,181 432.372,181 433.025,181 433.678,181 434.332,181 434.985,181 435.638,181 436.291,181 436.945,181 437.598,181 438.251,181 438.905,181 439.558,181 440.211,181 440.864,181 441.518,181 442.171,181 442.824,181 443.477,181 444.131,181 444.784,181 445.437,181 446.09,181 446.744,181 447.397,181 448.05,181 448.704,181 449.357,181 450.01,181 450.663,181 451.317,181 451.97,181 452.623,181 453.276,181 453.93,181 454.583,181 455.236,181 455.889,181 456.543,181 457.196,181 457.849,181 458.503,181 459.156,181 459.809,181 460.462,181 461.116,181 461.769,181 462.422,181 463.075,181 463.729,181 464.382,181 465.035,181 465.688,181 466.342,181 466.995,181 467.648,181 468.302,181 468.955,181 469.608,181 470.261,181 470.915,181 471.568,181 472.221,181 472.874,181 473.528,181 474.181,181 474.834,181 475.487,181 476.141,181 476.794,181 477.447,181 478.1,181 478.754,181 479.407,181 480.06,181 480.714,181 481.367,181 482.02,181 482.673,181 483.327,181 483.98,181 484.633,181 485.286,181 485.94,181 486.593,181 487.246,181 487.9,181 488.553,181 489.206,181 489.859,181 490.513,181 491.166,181 491.819,181 492.472,181 493.126,181 493.779,181 494.432,181 495.085,181 495.739,181 496.392,181 497.045,181 497.698,181 498.352,181 499.005,181 499.658,181 500.312,181 500.965,181 501.618,181 502.271,181 502.925,181 503.578,181 504.231,181 504.884,181 505.538,181 506.191,181 506.844,181 507.497,181 508.151,181 508.804,181 509.457,181 510.111,181 510.764,180.999 511.417,180.998 512.07,180.996 512.724,180.992 513.377,180.984 514.03,180.968 514.683,180.938 515.337,180.885 515.99,180.795 516.643,180.647 517.297,180.412 517.95,180.056 518.603,179.538 519.256,178.813 519.91,177.844 520.563,176.603 521.216,175.089 521.869,173.331 522.523,171.397 523.176,169.394 523.829,167.464 524.482,165.763 525.136,164.447 525.789,163.644 526.442,163.437 527.095,163.848 527.749,164.834 528.402,166.294 529.055,168.09 529.709,170.061 530.362,172.055 531.015,173.941 531.668,175.623 532.322,177.048 532.975,178.196 533.628,179.08 534.281,179.731 534.935,180.191 535.588,180.502 536.241,180.704 536.894,180.83 537.548,180.906 538.201,180.95 538.854,180.974 539.508,180.987 540.161,180.994 540.814,180.997 541.467,180.999 542.121,180.999 542.774,181 543.427,181 544.08,181 544.734,181 545.387,181 546.04,181 546.693,181 547.347,181 548,181 " />
</g>

<g fill="#212121" fill-opacity="1" stroke="none" transform="matrix(0.75,0,0,0.75,282.306,14.0607)"
font-family="MS Shell Dlg 2" font-size="8.25" font-weight="400" font-style="normal" 
>
<path vector-effect="none" fill-rule="evenodd" d="M-0.015625,0 L3.5625,-9.3125 L4.875,-9.3125 L8.6875,0 L7.28125,0 L6.20313,-2.8125 L2.3125,-2.8125 L1.28125,0 L-0.015625,0 M2.67188,-3.82813 L5.82813,-3.82813 L4.84375,-6.40625 C4.55208,-7.1875 4.33333,-7.82813 4.1875,-8.32813 C4.07292,-7.73438 3.90625,-7.14063 3.6875,-6.54688 L2.67188,-3.82813 M10.9063,0 L9.84375,0 L9.84375,-9.3125 L11,-9.3125 L11,-5.98438 C11.4792,-6.58854 12.0938,-6.89063 12.8438,-6.89063 C13.2604,-6.89063 13.6536,-6.80729 14.0234,-6.64063 C14.3932,-6.47396 14.6979,-6.23958 14.9375,-5.9375 C15.1771,-5.63542 15.3646,-5.27083 15.5,-4.84375 C15.6354,-4.41667 15.7031,-3.95833 15.7031,-3.46875 C15.7031,-2.3125 15.4167,-1.41927 14.8438,-0.789063 C14.2708,-0.158854 13.5833,0.15625 12.7813,0.15625 C11.9896,0.15625 11.3646,-0.177083 10.9063,-0.84375 L10.9063,0 M10.8906,-3.42188 C10.8906,-2.60938 11.0052,-2.02604 11.2344,-1.67188 C11.5885,-1.07813 12.0729,-0.78125 12.6875,-0.78125 C13.1875,-0.78125 13.6198,-1 13.9844,-1.4375 C14.349,-1.875 14.5313,-2.52083 14.5313,-3.375 C14.5313,-4.26042 14.3568,-4.91146 14.0078,-5.32813 C13.6589,-5.74479 13.2344,-5.95313 12.7344,-5.95313 C12.2344,-5.95313 11.8021,-5.73698 11.4375,-5.30469 C11.0729,-4.8724 10.8906,-4.24479 10.8906,-3.42188 M16.4063,-2.01563 L17.5313,-2.1875 C17.5938,-1.73958 17.7708,-1.39323 18.0625,-1.14844 C18.3542,-0.903646 18.7604,-0.78125 19.2813,-0.78125 C19.8021,-0.78125 20.1901,-0.888021 20.4453,-1.10156 C20.7005,-1.3151 20.8281,-1.56771 20.8281,-1.85938 C20.8281,-2.11979 20.7135,-2.32292 20.4844,-2.46875 C20.3281,-2.57292 19.9375,-2.70313 19.3125,-2.85938 C18.4792,-3.06771 17.901,-3.25 17.5781,-3.40625 C17.2552,-3.5625 17.0104,-3.77604 16.8438,-4.04688 C16.6771,-4.31771 16.5938,-4.61979 16.5938,-4.95313 C16.5938,-5.25521 16.6615,-5.53385 16.7969,-5.78906 C16.9323,-6.04427 17.1198,-6.25521 17.3594,-6.42188 C17.5365,-6.55729 17.7786,-6.66927 18.0859,-6.75781 C18.3932,-6.84635 18.724,-6.89063 19.0781,-6.89063 C19.599,-6.89063 20.0599,-6.8151 20.4609,-6.66406 C20.862,-6.51302 21.1589,-6.30729 21.3516,-6.04688 C21.5443,-5.78646 21.6771,-5.4375 21.75,-5 L20.625,-4.84375 C20.5729,-5.19792 20.4271,-5.47135 20.1875,-5.66406 C19.9479,-5.85677 19.6042,-5.95313 19.1563,-5.95313 C18.6354,-5.95313 18.2604,-5.86719 18.0313,-5.69531 C17.8021,-5.52344 17.6875,-5.31771 17.6875,-5.07813 C17.6875,-4.93229 17.7344,-4.80208 17.8281,-4.6875 C17.9219,-4.5625 18.0677,-4.45833 18.2656,-4.375 C18.3802,-4.33333 18.7188,-4.23958 19.2813,-4.09375 C20.0938,-3.875 20.6589,-3.69792 20.9766,-3.5625 C21.2943,-3.42708 21.5443,-3.22656 21.7266,-2.96094 C21.9089,-2.69531 22,-2.36979 22,-1.98438 C22,-1.59896 21.888,-1.23958 21.6641,-0.90625 C21.4401,-0.572917 21.1198,-0.3125 20.7031,-0.125 C20.2865,0.0625 19.8125,0.15625 19.2813,0.15625 C18.4063,0.15625 17.7396,-0.0260417 17.2813,-0.390625 C16.8229,-0.755208 16.5313,-1.29688 16.4063,-2.01563 M26.3594,-1.01563 L26.5156,-0.015625 C26.1927,0.0572917 25.9063,0.09375 25.6563,0.09375 C25.2396,0.09375 24.9167,0.0260417 24.6875,-0.109375 C24.4583,-0.244792 24.2969,-0.419271 24.2031,-0.632813 C24.1094,-0.846354 24.0625,-1.29167 24.0625,-1.96875 L24.0625,-5.85938 L23.2344,-5.85938 L23.2344,-6.73438 L24.0625,-6.73438 L24.0625,-8.40625 L25.2031,-9.09375 L25.2031,-6.73438 L26.3594,-6.73438 L26.3594,-5.85938 L25.2031,-5.85938 L25.2031,-1.90625 C25.2031,-1.58333 25.224,-1.375 25.2656,-1.28125 C25.3073,-1.1875 25.3724,-1.11458 25.4609,-1.0625 C25.5495,-1.01042 25.6771,-0.984375 25.8438,-0.984375 C25.9792,-0.984375 26.151,-0.994792 26.3594,-1.01563 M32.25,-0.828125 C31.8333,-0.473958 31.4297,-0.221354 31.0391,-0.0703125 C30.6484,0.0807292 30.2292,0.15625 29.7813,0.15625 C29.0313,0.15625 28.4583,-0.0260417 28.0625,-0.390625 C27.6667,-0.755208 27.4688,-1.21875 27.4688,-1.78125 C27.4688,-2.10417 27.5443,-2.40365 27.6953,-2.67969 C27.8464,-2.95573 28.0443,-3.17708 28.2891,-3.34375 C28.5339,-3.51042 28.8073,-3.63542 29.1094,-3.71875 C29.3281,-3.77083 29.6667,-3.82813 30.125,-3.89063 C31.0417,-3.99479 31.7188,-4.125 32.1563,-4.28125 C32.1667,-4.4375 32.1719,-4.53646 32.1719,-4.57813 C32.1719,-5.04688 32.0625,-5.375 31.8438,-5.5625 C31.5521,-5.82292 31.1198,-5.95313 30.5469,-5.95313 C30.0052,-5.95313 29.6068,-5.85938 29.3516,-5.67188 C29.0964,-5.48438 28.9063,-5.15104 28.7813,-4.67188 L27.6719,-4.8125 C27.7656,-5.29167 27.9297,-5.67969 28.1641,-5.97656 C28.3984,-6.27344 28.737,-6.5 29.1797,-6.65625 C29.6224,-6.8125 30.1302,-6.89063 30.7031,-6.89063 C31.2865,-6.89063 31.7578,-6.82292 32.1172,-6.6875 C32.4766,-6.55208 32.7396,-6.38281 32.9063,-6.17969 C33.0729,-5.97656 33.1927,-5.71875 33.2656,-5.40625 C33.2969,-5.20833 33.3125,-4.85417 33.3125,-4.34375 L33.3125,-2.82813 C33.3125,-1.76563 33.3385,-1.09375 33.3906,-0.8125 C33.4427,-0.53125 33.5365,-0.260417 33.6719,0 L32.4844,0 C32.3698,-0.239583 32.2917,-0.515625 32.25,-0.828125 M32.1563,-3.39063 C31.7396,-3.21354 31.1198,-3.06771 30.2969,-2.95313 C29.8281,-2.88021 29.4948,-2.80208 29.2969,-2.71875 C29.099,-2.63542 28.9479,-2.51302 28.8438,-2.35156 C28.7396,-2.1901 28.6875,-2.01042 28.6875,-1.8125 C28.6875,-1.51042 28.8021,-1.25781 29.0313,-1.05469 C29.2604,-0.851563 29.599,-0.75 30.0469,-0.75 C30.4844,-0.75 30.875,-0.846354 31.2188,-1.03906 C31.5625,-1.23177 31.8177,-1.49479 31.9844,-1.82813 C32.099,-2.07813 32.1563,-2.45833 32.1563,-2.96875 L32.1563,-3.39063 M34.8594,0 L34.8594,-6.73438 L35.8906,-6.73438 L35.8906,-5.78125 C36.3802,-6.52083 37.0938,-6.89063 38.0313,-6.89063 C38.4375,-6.89063 38.8099,-6.81771 39.1484,-6.67188 C39.487,-6.52604 39.7422,-6.33594 39.9141,-6.10156 C40.0859,-5.86719 40.2031,-5.58333 40.2656,-5.25 C40.3073,-5.04167 40.3281,-4.67188 40.3281,-4.14063 L40.3281,0 L39.1875,0 L39.1875,-4.09375 C39.1875,-4.5625 39.1432,-4.91146 39.0547,-5.14063 C38.9661,-5.36979 38.8099,-5.55469 38.5859,-5.69531 C38.362,-5.83594 38.099,-5.90625 37.7969,-5.90625 C37.3073,-5.90625 36.8854,-5.7526 36.5313,-5.44531 C36.1771,-5.13802 36,-4.55208 36,-3.6875 L36,0 L34.8594,0 M46.2344,0 L46.2344,-0.84375 C45.8073,-0.177083 45.1771,0.15625 44.3438,0.15625 C43.8125,0.15625 43.3203,0.0078125 42.8672,-0.289063 C42.4141,-0.585938 42.0625,-1 41.8125,-1.53125 C41.5625,-2.0625 41.4375,-2.67188 41.4375,-3.35938 C41.4375,-4.03646 41.5521,-4.64844 41.7813,-5.19531 C42.0104,-5.74219 42.349,-6.16146 42.7969,-6.45313 C43.2448,-6.74479 43.7448,-6.89063 44.2969,-6.89063 C44.7031,-6.89063 45.0651,-6.80469 45.3828,-6.63281 C45.7005,-6.46094 45.9583,-6.23958 46.1563,-5.96875 L46.1563,-9.3125 L47.2969,-9.3125 L47.2969,0 L46.2344,0 M42.625,-3.35938 C42.625,-2.49479 42.8047,-1.84896 43.1641,-1.42188 C43.5234,-0.994792 43.9531,-0.78125 44.4531,-0.78125 C44.9531,-0.78125 45.3776,-0.986979 45.7266,-1.39844 C46.0755,-1.8099 46.25,-2.43229 46.25,-3.26563 C46.25,-4.19271 46.0729,-4.8724 45.7188,-5.30469 C45.3646,-5.73698 44.9271,-5.95313 44.4063,-5.95313 C43.8958,-5.95313 43.4714,-5.74479 43.1328,-5.32813 C42.7943,-4.91146 42.625,-4.25521 42.625,-3.35938 M52.25,0 L52.25,-0.921875 L56.5469,-5.85938 C56.0573,-5.82813 55.625,-5.8125 55.25,-5.8125 L52.5156,-5.8125 L52.5156,-6.73438 L58.0156,-6.73438 L58.0156,-5.98438 L54.375,-1.70313 L53.6563,-0.921875 C54.1771,-0.963542 54.6615,-0.984375 55.1094,-0.984375 L58.2188,-0.984375 L58.2188,0 L52.25,0 M64.2813,0 L64.2813,-0.984375 C63.75,-0.223958 63.0365,0.15625 62.1406,0.15625 C61.7448,0.15625 61.3724,0.078125 61.0234,-0.078125 C60.6745,-0.234375 60.4167,-0.427083 60.25,-0.65625 C60.0833,-0.885417 59.9688,-1.16667 59.9063,-1.5 C59.8542,-1.71875 59.8281,-2.07292 59.8281,-2.5625 L59.8281,-6.73438 L60.9688,-6.73438 L60.9688,-3 C60.9688,-2.40625 60.9948,-2.00521 61.0469,-1.79688 C61.1198,-1.49479 61.2708,-1.25781 61.5,-1.08594 C61.7292,-0.914063 62.0156,-0.828125 62.3594,-0.828125 C62.7031,-0.828125 63.026,-0.916667 63.3281,-1.09375 C63.6302,-1.27083 63.8438,-1.51042 63.9688,-1.8125 C64.0938,-2.11458 64.1563,-2.55208 64.1563,-3.125 L64.1563,-6.73438 L65.2969,-6.73438 L65.2969,0 L64.2813,0 M70.6406,0.5625 L71.7656,0.71875 C71.8073,1.0625 71.9323,1.3125 72.1406,1.46875 C72.4323,1.6875 72.8229,1.79688 73.3125,1.79688 C73.8333,1.79688 74.2396,1.6901 74.5313,1.47656 C74.8229,1.26302 75.0156,0.963542 75.1094,0.578125 C75.1719,0.348958 75.2031,-0.135417 75.2031,-0.875 C74.7031,-0.291667 74.0781,0 73.3281,0 C72.401,0 71.6849,-0.333333 71.1797,-1 C70.6745,-1.66667 70.4219,-2.46875 70.4219,-3.40625 C70.4219,-4.05208 70.5391,-4.64583 70.7734,-5.1875 C71.0078,-5.72917 71.3438,-6.14844 71.7813,-6.44531 C72.2188,-6.74219 72.7396,-6.89063 73.3438,-6.89063 C74.1354,-6.89063 74.7917,-6.56771 75.3125,-5.92188 L75.3125,-6.73438 L76.3594,-6.73438 L76.3594,-0.921875 C76.3594,0.130208 76.2526,0.875 76.0391,1.3125 C75.8255,1.75 75.487,2.09635 75.0234,2.35156 C74.5599,2.60677 73.9896,2.73438 73.3125,2.73438 C72.5104,2.73438 71.862,2.55469 71.3672,2.19531 C70.8724,1.83594 70.6302,1.29167 70.6406,0.5625 M71.5938,-3.48438 C71.5938,-2.60938 71.7682,-1.96875 72.1172,-1.5625 C72.4661,-1.15625 72.9063,-0.953125 73.4375,-0.953125 C73.9688,-0.953125 74.4115,-1.15365 74.7656,-1.55469 C75.1198,-1.95573 75.2969,-2.58854 75.2969,-3.45313 C75.2969,-4.27604 75.1146,-4.89844 74.75,-5.32031 C74.3854,-5.74219 73.9427,-5.95313 73.4219,-5.95313 C72.9115,-5.95313 72.4792,-5.74479 72.125,-5.32813 C71.7708,-4.91146 71.5938,-4.29688 71.5938,-3.48438 M77.8438,0 L77.8438,-6.73438 L78.875,-6.73438 L78.875,-5.71875 C79.1354,-6.19792 79.3776,-6.51302 79.6016,-6.66406 C79.8255,-6.8151 80.0677,-6.89063 80.3281,-6.89063 C80.7135,-6.89063 81.1042,-6.77083 81.5,-6.53125 L81.1094,-5.46875 C80.8281,-5.63542 80.5521,-5.71875 80.2813,-5.71875 C80.0313,-5.71875 79.8047,-5.64323 79.6016,-5.49219 C79.3984,-5.34115 79.2552,-5.13021 79.1719,-4.85938 C79.0469,-4.45313 78.9844,-4.01042 78.9844,-3.53125 L78.9844,0 L77.8438,0 M81.4375,-3.375 C81.4375,-4.625 81.7813,-5.54688 82.4688,-6.14063 C83.0521,-6.64063 83.7604,-6.89063 84.5938,-6.89063 C85.5208,-6.89063 86.2786,-6.58854 86.8672,-5.98438 C87.4557,-5.38021 87.75,-4.54167 87.75,-3.46875 C87.75,-2.60417 87.6198,-1.92188 87.3594,-1.42188 C87.099,-0.921875 86.7188,-0.533854 86.2188,-0.257813 C85.7188,0.0182292 85.1771,0.15625 84.5938,0.15625 C83.6458,0.15625 82.8828,-0.145833 82.3047,-0.75 C81.7266,-1.35417 81.4375,-2.22917 81.4375,-3.375 M82.6094,-3.375 C82.6094,-2.51042 82.7969,-1.86198 83.1719,-1.42969 C83.5469,-0.997396 84.0208,-0.78125 84.5938,-0.78125 C85.1563,-0.78125 85.6276,-0.997396 86.0078,-1.42969 C86.388,-1.86198 86.5781,-2.52083 86.5781,-3.40625 C86.5781,-4.23958 86.388,-4.8724 86.0078,-5.30469 C85.6276,-5.73698 85.1563,-5.95313 84.5938,-5.95313 C84.0208,-5.95313 83.5469,-5.73958 83.1719,-5.3125 C82.7969,-4.88542 82.6094,-4.23958 82.6094,-3.375 M88.9688,0 L88.9688,-6.34375 C88.9688,-7.11458 89.0625,-7.70833 89.25,-8.125 C89.4375,-8.54167 89.7526,-8.86979 90.1953,-9.10938 C90.638,-9.34896 91.1354,-9.46875 91.6875,-9.46875 C92.4167,-9.46875 92.9896,-9.28385 93.4063,-8.91406 C93.8229,-8.54427 94.0313,-8.11979 94.0313,-7.64063 C94.0313,-7.42188 93.9948,-7.20052 93.9219,-6.97656 C93.849,-6.7526 93.7135,-6.46875 93.5156,-6.125 C93.3177,-5.78125 93.1953,-5.54427 93.1484,-5.41406 C93.1016,-5.28385 93.0781,-5.16667 93.0781,-5.0625 C93.0781,-4.92708 93.125,-4.79167 93.2188,-4.65625 C93.3021,-4.52083 93.5573,-4.31771 93.9844,-4.04688 C94.5573,-3.67188 94.9375,-3.36979 95.125,-3.14063 C95.3958,-2.80729 95.5313,-2.42188 95.5313,-1.98438 C95.5313,-1.39063 95.3151,-0.885417 94.8828,-0.46875 C94.4505,-0.0520833 93.8958,0.15625 93.2188,0.15625 C92.6875,0.15625 92.2214,0.0130208 91.8203,-0.273438 C91.4193,-0.559896 91.1146,-0.927083 90.9063,-1.375 L91.8906,-1.82813 C92.1094,-1.43229 92.3229,-1.15885 92.5313,-1.00781 C92.7396,-0.856771 92.9635,-0.78125 93.2031,-0.78125 C93.526,-0.78125 93.7995,-0.890625 94.0234,-1.10938 C94.2474,-1.32813 94.3594,-1.58854 94.3594,-1.89063 C94.3594,-2.11979 94.2917,-2.32292 94.1563,-2.5 C94.0729,-2.60417 93.8385,-2.78646 93.4531,-3.04688 C92.7552,-3.53646 92.3229,-3.90104 92.1563,-4.14063 C91.9792,-4.38021 91.8906,-4.625 91.8906,-4.875 C91.8906,-5.04167 91.9193,-5.21094 91.9766,-5.38281 C92.0339,-5.55469 92.1719,-5.82552 92.3906,-6.19531 C92.6094,-6.5651 92.7526,-6.84375 92.8203,-7.03125 C92.888,-7.21875 92.9219,-7.38542 92.9219,-7.53125 C92.9219,-7.79167 92.8073,-8.02344 92.5781,-8.22656 C92.349,-8.42969 92.0417,-8.53125 91.6563,-8.53125 C91.2083,-8.53125 90.8385,-8.39063 90.5469,-8.10938 C90.2552,-7.82813 90.1094,-7.22396 90.1094,-6.29688 L90.1094,0 L88.9688,0"/>
</g>
</g>
</svg>
