<?xml version="1.0" encoding="UTF-8" standalone="no"?>
<svg width="131.586mm" height="61.0306mm"
 viewBox="0 0 373 173"
 xmlns="http://www.w3.org/2000/svg" xmlns:xlink="http://www.w3.org/1999/xlink"  version="1.2" baseProfile="tiny">
<title>Qt SVG Document</title>
<desc>MATLAB, The MathWorks, Inc. Version 25.2.0.3055257 R2025b Update 2</desc>
<defs>
</defs>
<g fill="none" stroke="black" stroke-width="1" fill-rule="evenodd" stroke-linecap="square" stroke-linejoin="bevel" >

<g fill="#ffffff" fill-opacity="1" stroke="none" transform="matrix(0.75,0,0,0.75,-20.75,-7.5)"
font-family="MS Shell Dlg 2" font-size="8.25" font-weight="400" font-style="normal" 
>
<path vector-effect="none" fill-rule="evenodd" d="M26,9 L524,9 L524,241 L26,241 L26,9"/>
</g>

<g fill="#ffffff" fill-opacity="1" stroke="none" transform="matrix(7.5e-05,0,0,7.5e-05,-20.75,-7.5)"
font-family="MS Shell Dlg 2" font-size="8.25" font-weight="400" font-style="normal" 
>
<path vector-effect="none" fill-rule="evenodd" d="M740000,180000 L740000,2.19e+06 L5.13e+06,2.19e+06 L5.13e+06,180000 L740000,180000"/>
</g>

<g fill="#212121" fill-opacity="0.25098" stroke="#212121" stroke-opacity="0.25098" stroke-dasharray="1,3" stroke-dashoffset="0" stroke-width="1.06667" stroke-linecap="butt" stroke-linejoin="round" transform="matrix(0.75,0,0,0.75,-20.75,-7.5)"
font-family="MS Shell Dlg 2" font-size="8.25" font-weight="400" font-style="normal" 
>
<polyline fill="none" vector-effect="none" points="117.116,18 117.116,219 " />
<polyline fill="none" vector-effect="none" points="205.308,18 205.308,219 " />
<polyline fill="none" vector-effect="none" points="293.5,18 293.5,219 " />
<polyline fill="none" vector-effect="none" points="381.692,18 381.692,219 " />
<polyline fill="none" vector-effect="none" points="469.884,18 469.884,219 " />
<polyline fill="none" vector-effect="none" points="74,219 513,219 " />
<polyline fill="none" vector-effect="none" points="74,178.8 513,178.8 " />
<polyline fill="none" vector-effect="none" points="74,138.6 513,138.6 " />
<polyline fill="none" vector-effect="none" points="74,98.4 513,98.4 " />
<polyline fill="none" vector-effect="none" points="74,58.2 513,58.2 " />
<polyline fill="none" vector-effect="none" points="74,18 513,18 " />
</g>

<g fill="#212121" fill-opacity="1" stroke="#212121" stroke-opacity="1" stroke-width="0.666667" stroke-linecap="butt" stroke-linejoin="round" transform="matrix(0.75,0,0,0.75,-20.75,-7.5)"
font-family="MS Shell Dlg 2" font-size="8.25" font-weight="400" font-style="normal" 
>
<polyline fill="none" vector-effect="none" points="74,219 513,219 " />
</g>

<g fill="#000000" fill-opacity="1" stroke="none" transform="matrix(7.5e-05,0,0,7.5e-05,-20.75,-7.5)"
font-family="MS Shell Dlg 2" font-size="8.25" font-weight="400" font-style="normal" 
>
<path vector-effect="none" fill-rule="evenodd" d="M896785,180000 L896785,2.19e+06 L1.05357e+06,2.19e+06 L1.05357e+06,180000 L896785,180000"/>
</g>

<g fill="#000000" fill-opacity="1" stroke="none" transform="matrix(7.5e-05,0,0,7.5e-05,-20.75,-7.5)"
font-family="MS Shell Dlg 2" font-size="8.25" font-weight="400" font-style="normal" 
>
<path vector-effect="none" fill-rule="evenodd" d="M1.77871e+06,180000 L1.77871e+06,2.19e+06 L1.93549e+06,2.19e+06 L1.93549e+06,180000 L1.77871e+06,180000"/>
</g>

<g fill="#000000" fill-opacity="1" stroke="none" transform="matrix(7.5e-05,0,0,7.5e-05,-20.75,-7.5)"
font-family="MS Shell Dlg 2" font-size="8.25" font-weight="400" font-style="normal" 
>
<path vector-effect="none" fill-rule="evenodd" d="M2.66063e+06,984000 L2.66063e+06,2.19e+06 L2.81741e+06,2.19e+06 L2.81741e+06,984000 L2.66063e+06,984000"/>
</g>

<g fill="#000000" fill-opacity="1" stroke="none" transform="matrix(7.5e-05,0,0,7.5e-05,-20.75,-7.5)"
font-family="MS Shell Dlg 2" font-size="8.25" font-weight="400" font-style="normal" 
>
<path vector-effect="none" fill-rule="evenodd" d="M3.54254e+06,180000 L3.54254e+06,2.19e+06 L3.69933e+06,2.19e+06 L3.69933e+06,180000 L3.54254e+06,180000"/>
</g>

<g fill="#000000" fill-opacity="1" stroke="none" transform="matrix(7.5e-05,0,0,7.5e-05,-20.75,-7.5)"
font-family="MS Shell Dlg 2" font-size="8.25" font-weight="400" font-style="normal" 
>
<path vector-effect="none" fill-rule="evenodd" d="M4.42446e+06,381000 L4.42446e+06,2.19e+06 L4.58125e+06,2.19e+06 L4.58125e+06,381000 L4.42446e+06,381000"/>
</g>

<g fill="none" stroke="#212121" stroke-opacity="1" stroke-width="0.666667" stroke-linecap="butt" stroke-linejoin="miter" stroke-miterlimit="2" transform="matrix(0.75,0,0,0.75,-20.75,-7.5)"
font-family="MS Shell Dlg 2" font-size="8.25" font-weight="400" font-style="normal" 
>
<path vector-effect="none" fill-rule="evenodd" d="M89.6786,219 L89.6786,18 L105.357,18 L105.357,219 L89.6786,219"/>
<path vector-effect="none" fill-rule="evenodd" d="M177.871,219 L177.871,18 L193.549,18 L193.549,219 L177.871,219"/>
<path vector-effect="none" fill-rule="evenodd" d="M266.063,219 L266.063,98.4 L281.741,98.4 L281.741,219 L266.063,219"/>
<path vector-effect="none" fill-rule="evenodd" d="M354.254,219 L354.254,18 L369.933,18 L369.933,219 L354.254,219"/>
<path vector-effect="none" fill-rule="evenodd" d="M442.446,219 L442.446,38.1 L458.125,38.1 L458.125,219 L442.446,219"/>
</g>

<g fill="#999999" fill-opacity="1" stroke="none" transform="matrix(7.5e-05,0,0,7.5e-05,-20.75,-7.5)"
font-family="MS Shell Dlg 2" font-size="8.25" font-weight="400" font-style="normal" 
>
<path vector-effect="none" fill-rule="evenodd" d="M1.09277e+06,180000 L1.09277e+06,2.19e+06 L1.24955e+06,2.19e+06 L1.24955e+06,180000 L1.09277e+06,180000"/>
</g>

<g fill="#999999" fill-opacity="1" stroke="none" transform="matrix(7.5e-05,0,0,7.5e-05,-20.75,-7.5)"
font-family="MS Shell Dlg 2" font-size="8.25" font-weight="400" font-style="normal" 
>
<path vector-effect="none" fill-rule="evenodd" d="M1.97469e+06,180000 L1.97469e+06,2.19e+06 L2.13147e+06,2.19e+06 L2.13147e+06,180000 L1.97469e+06,180000"/>
</g>

<g fill="#999999" fill-opacity="1" stroke="none" transform="matrix(7.5e-05,0,0,7.5e-05,-20.75,-7.5)"
font-family="MS Shell Dlg 2" font-size="8.25" font-weight="400" font-style="normal" 
>
<path vector-effect="none" fill-rule="evenodd" d="M2.85661e+06,381000 L2.85661e+06,2.19e+06 L3.01339e+06,2.19e+06 L3.01339e+06,381000 L2.85661e+06,381000"/>
</g>

<g fill="#999999" fill-opacity="1" stroke="none" transform="matrix(7.5e-05,0,0,7.5e-05,-20.75,-7.5)"
font-family="MS Shell Dlg 2" font-size="8.25" font-weight="400" font-style="normal" 
>
<path vector-effect="none" fill-rule="evenodd" d="M3.73853e+06,180000 L3.73853e+06,2.19e+06 L3.89531e+06,2.19e+06 L3.89531e+06,180000 L3.73853e+06,180000"/>
</g>

<g fill="#999999" fill-opacity="1" stroke="none" transform="matrix(7.5e-05,0,0,7.5e-05,-20.75,-7.5)"
font-family="MS Shell Dlg 2" font-size="8.25" font-weight="400" font-style="normal" 
>
<path vector-effect="none" fill-rule="evenodd" d="M4.62045e+06,582000 L4.62045e+06,2.19e+06 L4.77723e+06,2.19e+06 L4.77723e+06,582000 L4.62045e+06,582000"/>
</g>

<g fill="none" stroke="#212121" stroke-opacity="1" stroke-width="0.666667" stroke-linecap="butt" stroke-linejoin="miter" stroke-miterlimit="2" transform="matrix(0.75,0,0,0.75,-20.75,-7.5)"
font-family="MS Shell Dlg 2" font-size="8.25" font-weight="400" font-style="normal" 
>
<path vector-effect="none" fill-rule="evenodd" d="M109.277,219 L109.277,18 L124.955,18 L124.955,219 L109.277,219"/>
<path vector-effect="none" fill-rule="evenodd" d="M197.469,219 L197.469,18 L213.147,18 L213.147,219 L197.469,219"/>
<path vector-effect="none" fill-rule="evenodd" d="M285.661,219 L285.661,38.1 L301.339,38.1 L301.339,219 L285.661,219"/>
<path vector-effect="none" fill-rule="evenodd" d="M373.853,219 L373.853,18 L389.531,18 L389.531,219 L373.853,219"/>
<path vector-effect="none" fill-rule="evenodd" d="M462.045,219 L462.045,58.2 L477.723,58.2 L477.723,219 L462.045,219"/>
</g>

<g fill="#4d4d4d" fill-opacity="1" stroke="none" transform="matrix(7.5e-05,0,0,7.5e-05,-20.75,-7.5)"
font-family="MS Shell Dlg 2" font-size="8.25" font-weight="400" font-style="normal" 
>
<path vector-effect="none" fill-rule="evenodd" d="M1.28875e+06,180000 L1.28875e+06,2.19e+06 L1.44554e+06,2.19e+06 L1.44554e+06,180000 L1.28875e+06,180000"/>
</g>

<g fill="#4d4d4d" fill-opacity="1" stroke="none" transform="matrix(7.5e-05,0,0,7.5e-05,-20.75,-7.5)"
font-family="MS Shell Dlg 2" font-size="8.25" font-weight="400" font-style="normal" 
>
<path vector-effect="none" fill-rule="evenodd" d="M2.17067e+06,783000 L2.17067e+06,2.19e+06 L2.32746e+06,2.19e+06 L2.32746e+06,783000 L2.17067e+06,783000"/>
</g>

<g fill="#4d4d4d" fill-opacity="1" stroke="none" transform="matrix(7.5e-05,0,0,7.5e-05,-20.75,-7.5)"
font-family="MS Shell Dlg 2" font-size="8.25" font-weight="400" font-style="normal" 
>
<path vector-effect="none" fill-rule="evenodd" d="M3.05259e+06,180000 L3.05259e+06,2.19e+06 L3.20938e+06,2.19e+06 L3.20938e+06,180000 L3.05259e+06,180000"/>
</g>

<g fill="#4d4d4d" fill-opacity="1" stroke="none" transform="matrix(7.5e-05,0,0,7.5e-05,-20.75,-7.5)"
font-family="MS Shell Dlg 2" font-size="8.25" font-weight="400" font-style="normal" 
>
<path vector-effect="none" fill-rule="evenodd" d="M3.93451e+06,180000 L3.93451e+06,2.19e+06 L4.09129e+06,2.19e+06 L4.09129e+06,180000 L3.93451e+06,180000"/>
</g>

<g fill="#4d4d4d" fill-opacity="1" stroke="none" transform="matrix(7.5e-05,0,0,7.5e-05,-20.75,-7.5)"
font-family="MS Shell Dlg 2" font-size="8.25" font-weight="400" font-style="normal" 
>
<path vector-effect="none" fill-rule="evenodd" d="M4.81643e+06,984000 L4.81643e+06,2.19e+06 L4.97321e+06,2.19e+06 L4.97321e+06,984000 L4.81643e+06,984000"/>
</g>

<g fill="none" stroke="#212121" stroke-opacity="1" stroke-width="0.666667" stroke-linecap="butt" stroke-linejoin="miter" stroke-miterlimit="2" transform="matrix(0.75,0,0,0.75,-20.75,-7.5)"
font-family="MS Shell Dlg 2" font-size="8.25" font-weight="400" font-style="normal" 
>
<path vector-effect="none" fill-rule="evenodd" d="M128.875,219 L128.875,18 L144.554,18 L144.554,219 L128.875,219"/>
<path vector-effect="none" fill-rule="evenodd" d="M217.067,219 L217.067,78.3 L232.746,78.3 L232.746,219 L217.067,219"/>
<path vector-effect="none" fill-rule="evenodd" d="M305.259,219 L305.259,18 L320.938,18 L320.938,219 L305.259,219"/>
<path vector-effect="none" fill-rule="evenodd" d="M393.451,219 L393.451,18 L409.129,18 L409.129,219 L393.451,219"/>
<path vector-effect="none" fill-rule="evenodd" d="M481.643,219 L481.643,98.4 L497.321,98.4 L497.321,219 L481.643,219"/>
</g>

<g fill="#000000" fill-opacity="1" stroke="#000000" stroke-opacity="1" stroke-width="0.533333" stroke-linecap="butt" stroke-linejoin="round" transform="matrix(0.75,0,0,0.75,-20.75,-7.5)"
font-family="MS Shell Dlg 2" font-size="8.25" font-weight="400" font-style="normal" 
>
<polyline fill="none" vector-effect="none" points="273.902,98.4 273.902,159.432 " />
<polyline fill="none" vector-effect="none" points="450.286,38.1 450.286,75.4743 " />
<polyline fill="none" vector-effect="none" points="273.902,98.4 273.902,37.368 " />
<polyline fill="none" vector-effect="none" points="450.286,38.1 450.286,18 " />
</g>

<g fill="#000000" fill-opacity="1" stroke="#000000" stroke-opacity="1" stroke-width="0.533333" stroke-linecap="butt" stroke-linejoin="miter" stroke-miterlimit="2" transform="matrix(0.75,0,0,0.75,-20.75,-7.5)"
font-family="MS Shell Dlg 2" font-size="8.25" font-weight="400" font-style="normal" 
>
<polyline fill="none" vector-effect="none" points="93.5179,18 101.518,18 " />
<polyline fill="none" vector-effect="none" points="181.71,18 189.71,18 " />
<polyline fill="none" vector-effect="none" points="269.902,159.432 277.902,159.432 " />
<polyline fill="none" vector-effect="none" points="358.094,18 366.094,18 " />
<polyline fill="none" vector-effect="none" points="446.286,75.4743 454.286,75.4743 " />
<polyline fill="none" vector-effect="none" points="93.5179,18 101.518,18 " />
<polyline fill="none" vector-effect="none" points="181.71,18 189.71,18 " />
<polyline fill="none" vector-effect="none" points="269.902,37.368 277.902,37.368 " />
<polyline fill="none" vector-effect="none" points="358.094,18 366.094,18 " />
</g>

<g fill="#000000" fill-opacity="1" stroke="#000000" stroke-opacity="1" stroke-width="0.533333" stroke-linecap="butt" stroke-linejoin="round" transform="matrix(0.75,0,0,0.75,-20.75,-7.5)"
font-family="MS Shell Dlg 2" font-size="8.25" font-weight="400" font-style="normal" 
>
<polyline fill="none" vector-effect="none" points="293.5,38.1 293.5,75.4743 " />
<polyline fill="none" vector-effect="none" points="469.884,58.2 469.884,108.032 " />
<polyline fill="none" vector-effect="none" points="293.5,38.1 293.5,18 " />
<polyline fill="none" vector-effect="none" points="469.884,58.2 469.884,18 " />
</g>

<g fill="#000000" fill-opacity="1" stroke="#000000" stroke-opacity="1" stroke-width="0.533333" stroke-linecap="butt" stroke-linejoin="miter" stroke-miterlimit="2" transform="matrix(0.75,0,0,0.75,-20.75,-7.5)"
font-family="MS Shell Dlg 2" font-size="8.25" font-weight="400" font-style="normal" 
>
<polyline fill="none" vector-effect="none" points="113.116,18 121.116,18 " />
<polyline fill="none" vector-effect="none" points="201.308,18 209.308,18 " />
<polyline fill="none" vector-effect="none" points="289.5,75.4743 297.5,75.4743 " />
<polyline fill="none" vector-effect="none" points="377.692,18 385.692,18 " />
<polyline fill="none" vector-effect="none" points="465.884,108.032 473.884,108.032 " />
<polyline fill="none" vector-effect="none" points="113.116,18 121.116,18 " />
<polyline fill="none" vector-effect="none" points="201.308,18 209.308,18 " />
<polyline fill="none" vector-effect="none" points="377.692,18 385.692,18 " />
</g>

<g fill="#000000" fill-opacity="1" stroke="#000000" stroke-opacity="1" stroke-width="0.533333" stroke-linecap="butt" stroke-linejoin="round" transform="matrix(0.75,0,0,0.75,-20.75,-7.5)"
font-family="MS Shell Dlg 2" font-size="8.25" font-weight="400" font-style="normal" 
>
<polyline fill="none" vector-effect="none" points="224.906,78.3 224.906,135.39 " />
<polyline fill="none" vector-effect="none" points="489.482,98.4 489.482,159.432 " />
<polyline fill="none" vector-effect="none" points="224.906,78.3 224.906,21.2098 " />
<polyline fill="none" vector-effect="none" points="489.482,98.4 489.482,37.368 " />
</g>

<g fill="#000000" fill-opacity="1" stroke="#000000" stroke-opacity="1" stroke-width="0.533333" stroke-linecap="butt" stroke-linejoin="miter" stroke-miterlimit="2" transform="matrix(0.75,0,0,0.75,-20.75,-7.5)"
font-family="MS Shell Dlg 2" font-size="8.25" font-weight="400" font-style="normal" 
>
<polyline fill="none" vector-effect="none" points="132.714,18 140.714,18 " />
<polyline fill="none" vector-effect="none" points="220.906,135.39 228.906,135.39 " />
<polyline fill="none" vector-effect="none" points="309.098,18 317.098,18 " />
<polyline fill="none" vector-effect="none" points="397.29,18 405.29,18 " />
<polyline fill="none" vector-effect="none" points="485.482,159.432 493.482,159.432 " />
<polyline fill="none" vector-effect="none" points="132.714,18 140.714,18 " />
<polyline fill="none" vector-effect="none" points="220.906,21.2098 228.906,21.2098 " />
<polyline fill="none" vector-effect="none" points="309.098,18 317.098,18 " />
<polyline fill="none" vector-effect="none" points="397.29,18 405.29,18 " />
<polyline fill="none" vector-effect="none" points="485.482,37.368 493.482,37.368 " />
</g>

<g fill="#212121" fill-opacity="1" stroke="#212121" stroke-opacity="1" stroke-width="1.06667" stroke-linecap="square" stroke-linejoin="round" transform="matrix(0.75,0,0,0.75,-20.75,-7.5)"
font-family="MS Shell Dlg 2" font-size="8.25" font-weight="400" font-style="normal" 
>
<polyline fill="none" vector-effect="none" points="74,219 513,219 " />
<polyline fill="none" vector-effect="none" points="74,18 513,18 " />
<polyline fill="none" vector-effect="none" points="117.116,219 117.116,214.61 " />
<polyline fill="none" vector-effect="none" points="117.116,22.39 117.116,18 " />
<polyline fill="none" vector-effect="none" points="205.308,219 205.308,214.61 " />
<polyline fill="none" vector-effect="none" points="205.308,22.39 205.308,18 " />
<polyline fill="none" vector-effect="none" points="293.5,219 293.5,214.61 " />
<polyline fill="none" vector-effect="none" points="293.5,22.39 293.5,18 " />
<polyline fill="none" vector-effect="none" points="381.692,219 381.692,214.61 " />
<polyline fill="none" vector-effect="none" points="381.692,22.39 381.692,18 " />
<polyline fill="none" vector-effect="none" points="469.884,219 469.884,214.61 " />
<polyline fill="none" vector-effect="none" points="469.884,22.39 469.884,18 " />
</g>

<g fill="#212121" fill-opacity="1" stroke="#212121" stroke-opacity="1" stroke-width="1" stroke-linecap="square" stroke-linejoin="bevel" transform="matrix(0.75,0,0,0.75,32.5871,168.25)"
font-family="Palatino Linotype" font-size="13" font-weight="400" font-style="normal" 
>
<text fill="#212121" fill-opacity="1" stroke="none" xml:space="preserve" x="0" y="0" font-family="Palatino Linotype" font-size="13" font-weight="400" font-style="normal" 
 >$\sym{beta}_1$</text>
</g>

<g fill="#212121" fill-opacity="1" stroke="#212121" stroke-opacity="1" stroke-width="1" stroke-linecap="square" stroke-linejoin="bevel" transform="matrix(0.75,0,0,0.75,98.731,168.25)"
font-family="Palatino Linotype" font-size="13" font-weight="400" font-style="normal" 
>
<text fill="#212121" fill-opacity="1" stroke="none" xml:space="preserve" x="0" y="0" font-family="Palatino Linotype" font-size="13" font-weight="400" font-style="normal" 
 >$\sym{beta}_2$</text>
</g>

<g fill="#212121" fill-opacity="1" stroke="#212121" stroke-opacity="1" stroke-width="1" stroke-linecap="square" stroke-linejoin="bevel" transform="matrix(0.75,0,0,0.75,159.25,168.25)"
font-family="Palatino Linotype" font-size="13" font-weight="400" font-style="normal" 
>
<text fill="#212121" fill-opacity="1" stroke="none" xml:space="preserve" x="0" y="0" font-family="Palatino Linotype" font-size="13" font-weight="400" font-style="normal" 
 >$\sym{beta}_{12}$</text>
</g>

<g fill="#212121" fill-opacity="1" stroke="#212121" stroke-opacity="1" stroke-width="1" stroke-linecap="square" stroke-linejoin="bevel" transform="matrix(0.75,0,0,0.75,225.394,168.25)"
font-family="Palatino Linotype" font-size="13" font-weight="400" font-style="normal" 
>
<text fill="#212121" fill-opacity="1" stroke="none" xml:space="preserve" x="0" y="0" font-family="Palatino Linotype" font-size="13" font-weight="400" font-style="normal" 
 >$\sym{beta}_{11}$</text>
</g>

<g fill="#212121" fill-opacity="1" stroke="#212121" stroke-opacity="1" stroke-width="1" stroke-linecap="square" stroke-linejoin="bevel" transform="matrix(0.75,0,0,0.75,291.538,168.25)"
font-family="Palatino Linotype" font-size="13" font-weight="400" font-style="normal" 
>
<text fill="#212121" fill-opacity="1" stroke="none" xml:space="preserve" x="0" y="0" font-family="Palatino Linotype" font-size="13" font-weight="400" font-style="normal" 
 >$\sym{beta}_{22}$</text>
</g>

<g fill="#212121" fill-opacity="1" stroke="#212121" stroke-opacity="1" stroke-width="1" stroke-linecap="square" stroke-linejoin="bevel" transform="matrix(0,-0.75,0.75,0,9,131.25)"
font-family="Palatino Linotype" font-size="14" font-weight="400" font-style="normal" 
>
<text fill="#212121" fill-opacity="1" stroke="none" xml:space="preserve" x="0" y="0" font-family="Palatino Linotype" font-size="14" font-weight="400" font-style="normal" 
 >$\sym{power} [\%]$</text>
</g>

<g fill="#212121" fill-opacity="1" stroke="#212121" stroke-opacity="1" stroke-width="1.06667" stroke-linecap="square" stroke-linejoin="round" transform="matrix(0.75,0,0,0.75,-20.75,-7.5)"
font-family="Palatino Linotype" font-size="14" font-weight="400" font-style="normal" 
>
<polyline fill="none" vector-effect="none" points="74,219 74,18 " />
<polyline fill="none" vector-effect="none" points="513,219 513,18 " />
<polyline fill="none" vector-effect="none" points="74,219 78.39,219 " />
<polyline fill="none" vector-effect="none" points="508.61,219 513,219 " />
<polyline fill="none" vector-effect="none" points="74,178.8 78.39,178.8 " />
<polyline fill="none" vector-effect="none" points="508.61,178.8 513,178.8 " />
<polyline fill="none" vector-effect="none" points="74,138.6 78.39,138.6 " />
<polyline fill="none" vector-effect="none" points="508.61,138.6 513,138.6 " />
<polyline fill="none" vector-effect="none" points="74,98.4 78.39,98.4 " />
<polyline fill="none" vector-effect="none" points="508.61,98.4 513,98.4 " />
<polyline fill="none" vector-effect="none" points="74,58.2 78.39,58.2 " />
<polyline fill="none" vector-effect="none" points="508.61,58.2 513,58.2 " />
<polyline fill="none" vector-effect="none" points="74,18 78.39,18 " />
<polyline fill="none" vector-effect="none" points="508.61,18 513,18 " />
</g>

<g fill="#212121" fill-opacity="1" stroke="#212121" stroke-opacity="1" stroke-width="1" stroke-linecap="square" stroke-linejoin="bevel" transform="matrix(0.75,0,0,0.75,25.5,159)"
font-family="Palatino Linotype" font-size="13" font-weight="400" font-style="normal" 
>
<text fill="#212121" fill-opacity="1" stroke="none" xml:space="preserve" x="0" y="0" font-family="Palatino Linotype" font-size="13" font-weight="400" font-style="normal" 
 >0</text>
</g>

<g fill="#212121" fill-opacity="1" stroke="#212121" stroke-opacity="1" stroke-width="1" stroke-linecap="square" stroke-linejoin="bevel" transform="matrix(0.75,0,0,0.75,20.25,128.85)"
font-family="Palatino Linotype" font-size="13" font-weight="400" font-style="normal" 
>
<text fill="#212121" fill-opacity="1" stroke="none" xml:space="preserve" x="0" y="0" font-family="Palatino Linotype" font-size="13" font-weight="400" font-style="normal" 
 >20</text>
</g>

<g fill="#212121" fill-opacity="1" stroke="#212121" stroke-opacity="1" stroke-width="1" stroke-linecap="square" stroke-linejoin="bevel" transform="matrix(0.75,0,0,0.75,20.25,98.7)"
font-family="Palatino Linotype" font-size="13" font-weight="400" font-style="normal" 
>
<text fill="#212121" fill-opacity="1" stroke="none" xml:space="preserve" x="0" y="0" font-family="Palatino Linotype" font-size="13" font-weight="400" font-style="normal" 
 >40</text>
</g>

<g fill="#212121" fill-opacity="1" stroke="#212121" stroke-opacity="1" stroke-width="1" stroke-linecap="square" stroke-linejoin="bevel" transform="matrix(0.75,0,0,0.75,20.25,68.55)"
font-family="Palatino Linotype" font-size="13" font-weight="400" font-style="normal" 
>
<text fill="#212121" fill-opacity="1" stroke="none" xml:space="preserve" x="0" y="0" font-family="Palatino Linotype" font-size="13" font-weight="400" font-style="normal" 
 >60</text>
</g>

<g fill="#212121" fill-opacity="1" stroke="#212121" stroke-opacity="1" stroke-width="1" stroke-linecap="square" stroke-linejoin="bevel" transform="matrix(0.75,0,0,0.75,20.25,38.4)"
font-family="Palatino Linotype" font-size="13" font-weight="400" font-style="normal" 
>
<text fill="#212121" fill-opacity="1" stroke="none" xml:space="preserve" x="0" y="0" font-family="Palatino Linotype" font-size="13" font-weight="400" font-style="normal" 
 >80</text>
</g>

<g fill="#212121" fill-opacity="1" stroke="#212121" stroke-opacity="1" stroke-width="1" stroke-linecap="square" stroke-linejoin="bevel" transform="matrix(0.75,0,0,0.75,15,8.25)"
font-family="Palatino Linotype" font-size="13" font-weight="400" font-style="normal" 
>
<text fill="#212121" fill-opacity="1" stroke="none" xml:space="preserve" x="0" y="0" font-family="Palatino Linotype" font-size="13" font-weight="400" font-style="normal" 
 >100</text>
</g>

<g fill="#ffffff" fill-opacity="1" stroke="none" transform="matrix(7.5e-05,0,0,7.5e-05,-20.75,-7.5)"
font-family="Palatino Linotype" font-size="13" font-weight="400" font-style="normal" 
>
<path vector-effect="none" fill-rule="evenodd" d="M1.47e+06,270000 L1.47e+06,860000 L5.02e+06,860000 L5.02e+06,270000 L1.47e+06,270000"/>
</g>

<g fill="#000000" fill-opacity="1" stroke="none" transform="matrix(7.5e-05,0,0,7.5e-05,-20.75,-7.5)"
font-family="Palatino Linotype" font-size="13" font-weight="400" font-style="normal" 
>
<path vector-effect="none" fill-rule="evenodd" d="M1.51e+06,312500 L1.51e+06,447500 L1.91e+06,447500 L1.91e+06,312500 L1.51e+06,312500"/>
</g>

<g fill="none" stroke="#212121" stroke-opacity="1" stroke-width="0.666667" stroke-linecap="butt" stroke-linejoin="miter" stroke-miterlimit="2" transform="matrix(0.75,0,0,0.75,-20.75,-7.5)"
font-family="Palatino Linotype" font-size="13" font-weight="400" font-style="normal" 
>
<path vector-effect="none" fill-rule="evenodd" d="M151,44.75 L151,31.25 L191,31.25 L191,44.75 L151,44.75"/>
</g>

<g fill="#999999" fill-opacity="1" stroke="none" transform="matrix(7.5e-05,0,0,7.5e-05,-20.75,-7.5)"
font-family="Palatino Linotype" font-size="13" font-weight="400" font-style="normal" 
>
<path vector-effect="none" fill-rule="evenodd" d="M1.51e+06,497500 L1.51e+06,632500 L1.91e+06,632500 L1.91e+06,497500 L1.51e+06,497500"/>
</g>

<g fill="none" stroke="#212121" stroke-opacity="1" stroke-width="0.666667" stroke-linecap="butt" stroke-linejoin="miter" stroke-miterlimit="2" transform="matrix(0.75,0,0,0.75,-20.75,-7.5)"
font-family="Palatino Linotype" font-size="13" font-weight="400" font-style="normal" 
>
<path vector-effect="none" fill-rule="evenodd" d="M151,63.25 L151,49.75 L191,49.75 L191,63.25 L151,63.25"/>
</g>

<g fill="#4d4d4d" fill-opacity="1" stroke="none" transform="matrix(7.5e-05,0,0,7.5e-05,-20.75,-7.5)"
font-family="Palatino Linotype" font-size="13" font-weight="400" font-style="normal" 
>
<path vector-effect="none" fill-rule="evenodd" d="M1.51e+06,682500 L1.51e+06,817500 L1.91e+06,817500 L1.91e+06,682500 L1.51e+06,682500"/>
</g>

<g fill="none" stroke="#212121" stroke-opacity="1" stroke-width="0.666667" stroke-linecap="butt" stroke-linejoin="miter" stroke-miterlimit="2" transform="matrix(0.75,0,0,0.75,-20.75,-7.5)"
font-family="Palatino Linotype" font-size="13" font-weight="400" font-style="normal" 
>
<path vector-effect="none" fill-rule="evenodd" d="M151,81.75 L151,68.25 L191,68.25 L191,81.75 L151,81.75"/>
</g>

<g fill="#212121" fill-opacity="1" stroke="#212121" stroke-opacity="1" stroke-width="1" stroke-linecap="square" stroke-linejoin="bevel" transform="matrix(0.75,0,0,0.75,124.75,23.25)"
font-family="Palatino Linotype" font-size="13" font-weight="400" font-style="normal" 
>
<text fill="#212121" fill-opacity="1" stroke="none" xml:space="preserve" x="0" y="0" font-family="Palatino Linotype" font-size="13" font-weight="400" font-style="normal" 
 >Basis \ac{CCD}</text>
</g>

<g fill="#212121" fill-opacity="1" stroke="#212121" stroke-opacity="1" stroke-width="1" stroke-linecap="square" stroke-linejoin="bevel" transform="matrix(0.75,0,0,0.75,124.75,37.125)"
font-family="Palatino Linotype" font-size="13" font-weight="400" font-style="normal" 
>
<text fill="#212121" fill-opacity="1" stroke="none" xml:space="preserve" x="0" y="0" font-family="Palatino Linotype" font-size="13" font-weight="400" font-style="normal" 
 >$\textnormal{\ac{CCD}}_{-\textnormal{\ac{AP}}}$</text>
</g>

<g fill="#212121" fill-opacity="1" stroke="#212121" stroke-opacity="1" stroke-width="1" stroke-linecap="square" stroke-linejoin="bevel" transform="matrix(0.75,0,0,0.75,124.75,51)"
font-family="Palatino Linotype" font-size="13" font-weight="400" font-style="normal" 
>
<text fill="#212121" fill-opacity="1" stroke="none" xml:space="preserve" x="0" y="0" font-family="Palatino Linotype" font-size="13" font-weight="400" font-style="normal" 
 >\ac{EmALT}</text>
</g>

<g fill="none" stroke="#212121" stroke-opacity="1" stroke-width="1.06667" stroke-linecap="butt" stroke-linejoin="miter" stroke-miterlimit="2" transform="matrix(0.75,0,0,0.75,-20.75,-7.5)"
font-family="Palatino Linotype" font-size="13" font-weight="400" font-style="normal" 
>
<path vector-effect="none" fill-rule="evenodd" d="M147,86 L147,27 L502,27 L502,86 L147,86"/>
</g>
</g>
</svg>
