<?xml version="1.0" encoding="UTF-8" standalone="no"?>
<svg width="138.642mm" height="57.8556mm"
 viewBox="0 0 393 164"
 xmlns="http://www.w3.org/2000/svg" xmlns:xlink="http://www.w3.org/1999/xlink"  version="1.2" baseProfile="tiny">
<title>Qt SVG Document</title>
<desc>MATLAB, The MathWorks, Inc. Version 25.2.0.3055257 R2025b Update 2</desc>
<defs>
</defs>
<g fill="none" stroke="black" stroke-width="1" fill-rule="evenodd" stroke-linecap="square" stroke-linejoin="bevel" >

<g fill="#ffffff" fill-opacity="1" stroke="none" transform="matrix(0.75,0,0,0.75,-21.4875,-7.13996)"
font-family="MS Shell Dlg 2" font-size="8.25" font-weight="400" font-style="normal" 
>
<path vector-effect="none" fill-rule="evenodd" d="M27,8 L552,8 L552,227 L27,227 L27,8"/>
</g>

<g fill="#ffffff" fill-opacity="1" stroke="none" transform="matrix(7.5e-05,0,0,7.5e-05,-21.4875,-7.13996)"
font-family="MS Shell Dlg 2" font-size="8.25" font-weight="400" font-style="normal" 
>
<path vector-effect="none" fill-rule="evenodd" d="M790000,170000 L790000,1.83e+06 L5.48e+06,1.83e+06 L5.48e+06,170000 L790000,170000"/>
</g>

<g fill="#212121" fill-opacity="0.25098" stroke="#212121" stroke-opacity="0.25098" stroke-dasharray="1,3" stroke-dashoffset="0" stroke-width="1.06667" stroke-linecap="butt" stroke-linejoin="round" transform="matrix(0.75,0,0,0.75,-21.4875,-7.13996)"
font-family="MS Shell Dlg 2" font-size="8.25" font-weight="400" font-style="normal" 
>
<polyline fill="none" vector-effect="none" points="79,17 79,183 " />
<polyline fill="none" vector-effect="none" points="172.8,17 172.8,183 " />
<polyline fill="none" vector-effect="none" points="266.6,17 266.6,183 " />
<polyline fill="none" vector-effect="none" points="360.4,17 360.4,183 " />
<polyline fill="none" vector-effect="none" points="454.2,17 454.2,183 " />
<polyline fill="none" vector-effect="none" points="548,17 548,183 " />
<polyline fill="none" vector-effect="none" points="79,183 548,183 " />
<polyline fill="none" vector-effect="none" points="79,100 548,100 " />
<polyline fill="none" vector-effect="none" points="79,17 548,17 " />
</g>

<g fill="#212121" fill-opacity="1" stroke="none" transform="matrix(0.75,0,0,0.75,170.513,157.81)"
font-family="MS Shell Dlg 2" font-size="8.25" font-weight="400" font-style="normal" 
>
<path vector-effect="none" fill-rule="evenodd" d="M0.453125,-0.46875 C0.546875,-1.04167 0.619792,-1.78646 0.671875,-2.70313 L0.75,-2.76563 L1.09375,-2.76563 L1.15625,-2.6875 C1.17708,-1.88542 1.19271,-1.42188 1.20313,-1.29688 C1.52604,-0.984375 1.85677,-0.744792 2.19531,-0.578125 C2.53385,-0.411458 2.96875,-0.328125 3.5,-0.328125 L3.5,-4.75 C2.95833,-4.82292 2.51563,-4.90625 2.17188,-5 C1.82813,-5.09375 1.52083,-5.2526 1.25,-5.47656 C0.979167,-5.70052 0.778646,-5.97135 0.648438,-6.28906 C0.518229,-6.60677 0.453125,-6.96875 0.453125,-7.375 C0.453125,-8.15625 0.700521,-8.85417 1.19531,-9.46875 C1.6901,-10.0833 2.45833,-10.4688 3.5,-10.625 C3.48958,-11.125 3.47917,-11.4531 3.46875,-11.6094 L3.54688,-11.6875 L4.09375,-11.6875 L4.17188,-11.6094 C4.16146,-11.5677 4.15104,-11.25 4.14063,-10.6563 C5.40104,-10.5625 6.27083,-10.349 6.75,-10.0156 L6.78125,-9.92188 C6.73958,-9.75521 6.70833,-9.60156 6.6875,-9.46094 C6.66667,-9.32031 6.64583,-9.11979 6.625,-8.85938 L6.5625,-8.04688 L6.5,-7.98438 L6.1875,-7.98438 L6.125,-8.04688 C6.10417,-8.55729 6.05729,-8.98438 5.98438,-9.32813 C5.55729,-9.81771 4.94271,-10.0729 4.14063,-10.0938 L4.14063,-5.96875 C4.78646,-5.875 5.29688,-5.77865 5.67188,-5.67969 C6.04688,-5.58073 6.375,-5.42448 6.65625,-5.21094 C6.9375,-4.9974 7.14583,-4.73698 7.28125,-4.42969 C7.41667,-4.1224 7.48438,-3.77083 7.48438,-3.375 C7.48438,-2.75 7.34896,-2.18229 7.07813,-1.67188 C6.80729,-1.16146 6.45052,-0.755208 6.00781,-0.453125 C5.5651,-0.151042 4.94271,0.0833333 4.14063,0.25 C4.15104,1.04167 4.16667,1.55729 4.1875,1.79688 L4.125,1.85938 L3.54688,1.85938 L3.46875,1.79688 C3.47917,1.61979 3.48958,1.11458 3.5,0.28125 C2.39583,0.260417 1.40104,0.046875 0.515625,-0.359375 L0.453125,-0.46875 M3.5,-10.0625 C3.16667,-10.0208 2.875,-9.93229 2.625,-9.79688 C2.375,-9.66146 2.15365,-9.42969 1.96094,-9.10156 C1.76823,-8.77344 1.67188,-8.36458 1.67188,-7.875 C1.67188,-7.20833 1.85156,-6.75 2.21094,-6.5 C2.57031,-6.25 3,-6.09896 3.5,-6.04688 L3.5,-10.0625 M4.14063,-0.359375 C4.74479,-0.380208 5.24479,-0.619792 5.64063,-1.07813 C6.03646,-1.53646 6.23438,-2.09896 6.23438,-2.76563 C6.23438,-3.28646 6.08854,-3.70313 5.79688,-4.01563 C5.50521,-4.32813 4.95313,-4.54688 4.14063,-4.67188 L4.14063,-0.359375 M15.2344,1.84375 L15.1875,1.92188 L14.4219,1.92188 L14.3281,1.85938 L10.1094,-11.5625 L10.1719,-11.6406 L10.9375,-11.6406 L11.0156,-11.5781 L15.2344,1.84375 M18.7969,-2.29688 L19.125,-2.29688 L19.2031,-2.23438 C19.2135,-1.79688 19.2396,-1.42188 19.2813,-1.10938 C19.4375,-0.859375 19.7135,-0.658854 20.1094,-0.507813 C20.5052,-0.356771 20.8958,-0.28125 21.2813,-0.28125 C21.8333,-0.28125 22.276,-0.429688 22.6094,-0.726563 C22.9427,-1.02344 23.1094,-1.375 23.1094,-1.78125 C23.1094,-2.01042 23.0495,-2.20573 22.9297,-2.36719 C22.8099,-2.52865 22.6276,-2.66406 22.3828,-2.77344 C22.138,-2.88281 21.7031,-3.01042 21.0781,-3.15625 C20.5469,-3.28125 20.1745,-3.3776 19.9609,-3.44531 C19.7474,-3.51302 19.5417,-3.63021 19.3438,-3.79688 C19.1458,-3.96354 18.9948,-4.16927 18.8906,-4.41406 C18.7865,-4.65885 18.7344,-4.92708 18.7344,-5.21875 C18.7344,-5.91667 19.0104,-6.47396 19.5625,-6.89063 C20.1146,-7.30729 20.8073,-7.51563 21.6406,-7.51563 C21.9844,-7.51563 22.362,-7.46875 22.7734,-7.375 C23.1849,-7.28125 23.5,-7.1875 23.7188,-7.09375 L23.7813,-6.98438 C23.7396,-6.77604 23.7135,-6.22917 23.7031,-5.34375 L23.6406,-5.28125 L23.3281,-5.28125 L23.25,-5.34375 C23.2292,-5.66667 23.2005,-5.89063 23.1641,-6.01563 C23.1276,-6.14063 23.0339,-6.27865 22.8828,-6.42969 C22.7318,-6.58073 22.5182,-6.70573 22.2422,-6.80469 C21.9661,-6.90365 21.6771,-6.95313 21.375,-6.95313 C21.0521,-6.95313 20.7839,-6.90625 20.5703,-6.8125 C20.3568,-6.71875 20.1823,-6.57813 20.0469,-6.39063 C19.9115,-6.20313 19.8438,-5.97396 19.8438,-5.70313 C19.8438,-5.50521 19.8854,-5.32813 19.9688,-5.17188 C20.0521,-5.01563 20.1771,-4.88802 20.3438,-4.78906 C20.5104,-4.6901 20.6823,-4.61979 20.8594,-4.57813 L21.7188,-4.35938 C22.4479,-4.18229 22.9688,-4.02865 23.2813,-3.89844 C23.5938,-3.76823 23.8359,-3.57292 24.0078,-3.3125 C24.1797,-3.05208 24.2656,-2.73438 24.2656,-2.35938 C24.2656,-1.64063 23.9688,-1.02083 23.375,-0.5 C22.7813,0.0208333 22.0208,0.28125 21.0938,0.28125 C20.7604,0.28125 20.3516,0.244792 19.8672,0.171875 C19.3828,0.0989583 18.9688,0.015625 18.625,-0.078125 L18.5781,-0.1875 L18.6563,-0.703125 C18.6875,-0.869792 18.7057,-1.03385 18.7109,-1.19531 C18.7161,-1.35677 18.7188,-1.70313 18.7188,-2.23438 L18.7969,-2.29688 M25.3594,4.25 C25.5365,3.8125 25.6667,3.41146 25.75,3.04688 L25.9375,3.04688 C26.1979,3.31771 26.474,3.45313 26.7656,3.45313 C27.1406,3.45313 27.4635,3.27083 27.7344,2.90625 C28.0052,2.54167 28.3906,1.72917 28.8906,0.46875 C28.6927,-0.09375 28.4948,-0.619792 28.2969,-1.10938 L27.0469,-4.1875 C26.9219,-4.51042 26.7318,-4.96615 26.4766,-5.55469 C26.2214,-6.14323 26.0677,-6.46875 26.0156,-6.53125 C25.9635,-6.59375 25.8984,-6.65104 25.8203,-6.70313 C25.7422,-6.75521 25.5313,-6.80208 25.1875,-6.84375 L25.125,-6.90625 L25.125,-7.21875 L25.2031,-7.28125 C25.7969,-7.25 26.4115,-7.23438 27.0469,-7.23438 C27.7865,-7.23438 28.3542,-7.25 28.75,-7.28125 L28.8125,-7.21875 L28.8125,-6.90625 L28.7656,-6.84375 C28.7031,-6.84375 28.5417,-6.83333 28.2813,-6.8125 C28.0208,-6.79167 27.8568,-6.75 27.7891,-6.6875 C27.7214,-6.625 27.6875,-6.55208 27.6875,-6.46875 C27.6875,-6.375 27.7682,-6.08594 27.9297,-5.60156 C28.0911,-5.11719 28.25,-4.6875 28.4063,-4.3125 L28.8906,-3.09375 C29.2135,-2.29167 29.4635,-1.69792 29.6406,-1.3125 L30.0625,-2.23438 C30.2083,-2.56771 30.4167,-3.07292 30.6875,-3.75 L31.3281,-5.40625 C31.4948,-5.83333 31.5911,-6.09896 31.6172,-6.20313 C31.6432,-6.30729 31.6563,-6.38021 31.6563,-6.42188 C31.6563,-6.53646 31.6146,-6.61458 31.5313,-6.65625 C31.4479,-6.69792 31.2604,-6.73438 30.9688,-6.76563 L30.6406,-6.8125 L30.5938,-6.875 L30.5938,-7.21875 L30.6563,-7.28125 C31.0938,-7.25 31.6094,-7.23438 32.2031,-7.23438 C32.7552,-7.23438 33.1927,-7.25 33.5156,-7.28125 L33.5781,-7.21875 L33.5781,-6.875 L33.5156,-6.8125 C33.3281,-6.8125 33.1771,-6.78906 33.0625,-6.74219 C32.9479,-6.69531 32.8385,-6.61198 32.7344,-6.49219 C32.6302,-6.3724 32.4427,-6.03385 32.1719,-5.47656 C31.901,-4.91927 31.6302,-4.34375 31.3594,-3.75 L30.5938,-2.07813 L28.7813,2.15625 C28.625,2.52083 28.4323,2.91146 28.2031,3.32813 C27.974,3.74479 27.6901,4.04427 27.3516,4.22656 C27.013,4.40885 26.6563,4.5 26.2813,4.5 C25.9583,4.5 25.651,4.41667 25.3594,4.25 M36.875,-7.45313 L37.0313,-7.34375 C37,-7 36.9792,-6.58854 36.9688,-6.10938 L37.7031,-6.79688 C37.9115,-6.98438 38.0495,-7.10677 38.1172,-7.16406 C38.1849,-7.22135 38.3438,-7.28646 38.5938,-7.35938 C38.8438,-7.43229 39.1094,-7.46875 39.3906,-7.46875 C39.9115,-7.46875 40.3672,-7.33854 40.7578,-7.07813 C41.1484,-6.81771 41.4375,-6.46354 41.625,-6.01563 C42.3229,-6.68229 42.7318,-7.05208 42.8516,-7.125 C42.9714,-7.19792 43.1589,-7.27083 43.4141,-7.34375 C43.6693,-7.41667 43.9219,-7.45313 44.1719,-7.45313 C44.5885,-7.45313 44.9688,-7.36458 45.3125,-7.1875 C45.6563,-7.01042 45.9297,-6.77865 46.1328,-6.49219 C46.3359,-6.20573 46.4531,-5.89583 46.4844,-5.5625 C46.5156,-5.22917 46.5313,-4.77083 46.5313,-4.1875 L46.5313,-3.375 C46.5313,-3.28125 46.5469,-2.63021 46.5781,-1.42188 C46.5885,-0.932292 46.6432,-0.640625 46.7422,-0.546875 C46.8411,-0.453125 47.1615,-0.40625 47.7031,-0.40625 L47.7656,-0.34375 L47.7656,0 L47.7031,0.0625 C47.0469,0.0208333 46.599,0 46.3594,0 C46.2344,0 45.8594,0.0208333 45.2344,0.0625 L45.125,-0.03125 C45.1979,-0.708333 45.2344,-1.58854 45.2344,-2.67188 L45.2344,-3.60938 C45.2344,-4.44271 45.1953,-5.02344 45.1172,-5.35156 C45.0391,-5.67969 44.8568,-5.95052 44.5703,-6.16406 C44.2839,-6.3776 43.9427,-6.48438 43.5469,-6.48438 C43.2656,-6.48438 43.0026,-6.42708 42.7578,-6.3125 C42.513,-6.19792 42.2917,-6.03125 42.0938,-5.8125 C41.8958,-5.59375 41.7865,-5.38802 41.7656,-5.19531 C41.7448,-5.0026 41.7344,-4.65104 41.7344,-4.14063 L41.7344,-3.17188 C41.7344,-2.94271 41.7448,-2.51302 41.7656,-1.88281 C41.7865,-1.2526 41.8099,-0.885417 41.8359,-0.78125 C41.862,-0.677083 41.8984,-0.601563 41.9453,-0.554688 C41.9922,-0.507813 42.0495,-0.479167 42.1172,-0.46875 C42.1849,-0.458333 42.4635,-0.4375 42.9531,-0.40625 L43.0313,-0.34375 L43.0313,-0.015625 L42.9688,0.0625 C42.3125,0.0208333 41.6823,0 41.0781,0 C40.526,0 39.901,0.0208333 39.2031,0.0625 L39.1406,-0.015625 L39.1406,-0.34375 L39.2031,-0.40625 C39.7135,-0.4375 40,-0.460938 40.0625,-0.476563 C40.125,-0.492188 40.1823,-0.523438 40.2344,-0.570313 C40.2865,-0.617188 40.3203,-0.692708 40.3359,-0.796875 C40.3516,-0.901042 40.3724,-1.23698 40.3984,-1.80469 C40.4245,-2.3724 40.4375,-2.80208 40.4375,-3.09375 L40.4375,-3.98438 C40.4375,-4.57813 40.3958,-5.03385 40.3125,-5.35156 C40.2292,-5.66927 40.0547,-5.9375 39.7891,-6.15625 C39.5234,-6.375 39.1927,-6.48438 38.7969,-6.48438 C38.4844,-6.48438 38.1979,-6.42188 37.9375,-6.29688 C37.6771,-6.17188 37.4661,-6.02083 37.3047,-5.84375 C37.1432,-5.66667 37.0417,-5.5 37,-5.34375 C36.9583,-5.1875 36.9375,-4.84896 36.9375,-4.32813 L36.9375,-3.17188 C36.9375,-2.94271 36.9479,-2.51302 36.9688,-1.88281 C36.9896,-1.2526 37.013,-0.885417 37.0391,-0.78125 C37.0651,-0.677083 37.1016,-0.601563 37.1484,-0.554688 C37.1953,-0.507813 37.2526,-0.479167 37.3203,-0.46875 C37.388,-0.458333 37.6667,-0.4375 38.1563,-0.40625 L38.2344,-0.34375 L38.2344,-0.015625 L38.1719,0.0625 C37.5156,0.0208333 36.8854,0 36.2813,0 C35.6875,0 35.0625,0.0208333 34.4063,0.0625 L34.3438,-0.015625 L34.3438,-0.34375 L34.4063,-0.40625 C34.9167,-0.4375 35.2031,-0.460938 35.2656,-0.476563 C35.3281,-0.492188 35.3854,-0.523438 35.4375,-0.570313 C35.4896,-0.617188 35.5234,-0.692708 35.5391,-0.796875 C35.5547,-0.901042 35.5755,-1.23698 35.6016,-1.80469 C35.6276,-2.3724 35.6406,-2.80208 35.6406,-3.09375 L35.6406,-4.64063 C35.6406,-4.84896 35.6302,-5.13281 35.6094,-5.49219 C35.5885,-5.85156 35.5703,-6.07292 35.5547,-6.15625 C35.5391,-6.23958 35.4974,-6.29948 35.4297,-6.33594 C35.362,-6.3724 35.2292,-6.39063 35.0313,-6.39063 L34.375,-6.40625 L34.2969,-6.46875 L34.2969,-6.79688 L34.3594,-6.85938 C35.3594,-6.98438 36.1979,-7.18229 36.875,-7.45313 M52.625,2.78125 C51.6146,2.78125 50.9479,2.60938 50.625,2.26563 C50.3229,1.94271 50.1719,1.27604 50.1719,0.265625 L50.1719,-2.4375 C50.1719,-2.89583 50.138,-3.23438 50.0703,-3.45313 C50.0026,-3.67188 49.8802,-3.85938 49.7031,-4.01563 C49.4844,-4.20313 49.2292,-4.29688 48.9375,-4.29688 L48.9375,-4.5 C49.4167,-4.5 49.7552,-4.69792 49.9531,-5.09375 C50.099,-5.38542 50.1719,-5.78646 50.1719,-6.29688 L50.1719,-9.26563 C50.1719,-9.71354 50.2135,-10.0938 50.2969,-10.4063 C50.4427,-10.9167 50.7448,-11.2604 51.2031,-11.4375 C51.526,-11.5625 52,-11.625 52.625,-11.625 L52.625,-11.4375 C52.1771,-11.4375 51.849,-11.2891 51.6406,-10.9922 C51.4323,-10.6953 51.3281,-10.2031 51.3281,-9.51563 L51.3281,-6.5625 C51.3281,-5.94792 51.25,-5.48958 51.0938,-5.1875 C50.8958,-4.8125 50.5313,-4.54688 50,-4.39063 C50.5521,-4.23438 50.9219,-3.96875 51.1094,-3.59375 C51.2552,-3.30208 51.3281,-2.83854 51.3281,-2.20313 L51.3281,0.703125 C51.3281,1.69271 51.5573,2.29167 52.0156,2.5 C52.151,2.5625 52.3542,2.59375 52.625,2.59375 L52.625,2.78125 M55.8906,-7.54688 L56.0469,-7.45313 C55.9948,-6.85938 55.9635,-6.33333 55.9531,-5.875 C56.6615,-6.52083 57.1563,-6.94792 57.4375,-7.15625 C57.7188,-7.36458 58.1979,-7.46875 58.875,-7.46875 C59.3021,-7.46875 59.6901,-7.40885 60.0391,-7.28906 C60.388,-7.16927 60.7109,-6.97656 61.0078,-6.71094 C61.3047,-6.44531 61.5391,-6.10938 61.7109,-5.70313 C61.8828,-5.29688 61.9688,-4.82813 61.9688,-4.29688 C61.9688,-3.92188 61.9089,-3.54167 61.7891,-3.15625 C61.6693,-2.77083 61.513,-2.41406 61.3203,-2.08594 C61.1276,-1.75781 60.9714,-1.54167 60.8516,-1.4375 C60.7318,-1.33333 60.4896,-1.17188 60.125,-0.953125 C59.8021,-0.755208 59.4792,-0.541667 59.1563,-0.3125 C58.9271,-0.15625 58.7682,-0.0520833 58.6797,0 C58.5911,0.0520833 58.4427,0.101563 58.2344,0.148438 C58.026,0.195313 57.8073,0.21875 57.5781,0.21875 C57.0365,0.21875 56.4948,0.078125 55.9531,-0.203125 L55.9531,1.46875 C55.9531,1.58333 55.9635,1.95052 55.9844,2.57031 C56.0052,3.1901 56.0286,3.55208 56.0547,3.65625 C56.0807,3.76042 56.1172,3.83594 56.1641,3.88281 C56.2109,3.92969 56.2682,3.96094 56.3359,3.97656 C56.4036,3.99219 56.6823,4.01563 57.1719,4.04688 L57.25,4.10938 L57.25,4.4375 L57.1875,4.5 C56.5313,4.45833 55.9063,4.4375 55.3125,4.4375 C54.7083,4.4375 54.0833,4.45833 53.4375,4.5 L53.3594,4.4375 L53.3594,4.10938 L53.4375,4.04688 C53.9375,4.01563 54.2214,3.99219 54.2891,3.97656 C54.3568,3.96094 54.4141,3.92708 54.4609,3.875 C54.5078,3.82292 54.5417,3.74219 54.5625,3.63281 C54.5833,3.52344 54.6042,3.17448 54.625,2.58594 C54.6458,1.9974 54.6563,1.55729 54.6563,1.26563 L54.6563,-4.73438 C54.6563,-5.00521 54.6458,-5.31771 54.625,-5.67188 C54.6042,-6.02604 54.5859,-6.23177 54.5703,-6.28906 C54.5547,-6.34635 54.5156,-6.39323 54.4531,-6.42969 C54.3906,-6.46615 54.2552,-6.48438 54.0469,-6.48438 L53.3906,-6.5 L53.3281,-6.5625 L53.3281,-6.89063 L53.3906,-6.95313 C54.3802,-7.07813 55.2135,-7.27604 55.8906,-7.54688 M55.9531,-1.54688 C56.1927,-1.30729 56.4896,-1.09635 56.8438,-0.914063 C57.1979,-0.731771 57.5885,-0.640625 58.0156,-0.640625 C58.526,-0.640625 58.974,-0.768229 59.3594,-1.02344 C59.7448,-1.27865 60.0443,-1.65365 60.2578,-2.14844 C60.4714,-2.64323 60.5781,-3.1875 60.5781,-3.78125 C60.5781,-4.27083 60.4844,-4.72396 60.2969,-5.14063 C60.1094,-5.55729 59.8151,-5.88542 59.4141,-6.125 C59.013,-6.36458 58.5885,-6.48438 58.1406,-6.48438 C57.8698,-6.48438 57.6042,-6.4349 57.3438,-6.33594 C57.0833,-6.23698 56.8385,-6.09375 56.6094,-5.90625 C56.3802,-5.71875 56.2161,-5.54167 56.1172,-5.375 C56.0182,-5.20833 55.9661,-5.06771 55.9609,-4.95313 C55.9557,-4.83854 55.9531,-4.71354 55.9531,-4.57813 L55.9531,-1.54688 M63.3594,-3.35938 L63.3594,-3.46875 L63.7031,-4.51563 L67.8906,-4.51563 L67.8906,-4.40625 L67.5156,-3.35938 L63.3594,-3.35938 M71.6875,0.15625 L70.9688,-3.10938 L69.4688,-9.54688 C69.3438,-10.0573 69.2161,-10.3411 69.0859,-10.3984 C68.9557,-10.4557 68.6771,-10.5104 68.25,-10.5625 L68.1875,-10.625 L68.1875,-10.9688 L68.25,-11.0469 C69,-11.0052 69.6615,-10.9844 70.2344,-10.9844 C70.6719,-10.9844 71.3021,-11.0052 72.125,-11.0469 L72.2031,-10.9688 L72.2031,-10.625 L72.1406,-10.5625 C71.5573,-10.5417 71.2083,-10.513 71.0938,-10.4766 C70.9792,-10.4401 70.9219,-10.3542 70.9219,-10.2188 C70.9219,-10.1146 70.974,-9.77083 71.0781,-9.1875 C71.1823,-8.60417 71.276,-8.13021 71.3594,-7.76563 L72.5781,-2.35938 L74.5156,-7.15625 C75.0156,-8.42708 75.5104,-9.76042 76,-11.1563 L76.5,-11.1563 C76.9167,-9.84375 77.349,-8.57292 77.7969,-7.34375 L79.625,-2.25 L80.9531,-6.92188 C81.0885,-7.41146 81.2552,-8.05469 81.4531,-8.85156 C81.651,-9.64844 81.75,-10.1094 81.75,-10.2344 C81.75,-10.3698 81.6849,-10.4557 81.5547,-10.4922 C81.4245,-10.5286 81.0521,-10.5521 80.4375,-10.5625 L80.375,-10.6406 L80.375,-10.9844 L80.4375,-11.0469 C81.3229,-11.0052 81.8542,-10.9844 82.0313,-10.9844 C82.1979,-10.9844 82.7396,-11.0052 83.6563,-11.0469 L83.7188,-10.9844 L83.7188,-10.625 L83.6563,-10.5781 C83.3646,-10.5677 83.1693,-10.5391 83.0703,-10.4922 C82.9714,-10.4453 82.8854,-10.3776 82.8125,-10.2891 C82.7396,-10.2005 82.6354,-9.93229 82.5,-9.48438 L82.0469,-8.03125 L81.2344,-5.40625 C81.1198,-5.02083 80.9115,-4.25 80.6094,-3.09375 L79.7344,0.15625 L78.9375,0.15625 C78.3958,-1.46875 77.9479,-2.76563 77.5938,-3.73438 L75.8125,-8.54688 L74.2656,-4.6875 L73.4219,-2.5 C73.2031,-1.92708 73.0313,-1.45833 72.9063,-1.09375 L72.4688,0.15625 L71.6875,0.15625 M89.9063,-1.15625 L89.6563,-0.59375 C89.1146,-0.239583 88.6328,-0.0104167 88.2109,0.09375 C87.7891,0.197917 87.4115,0.25 87.0781,0.25 C86.4531,0.25 85.8594,0.127604 85.2969,-0.117188 C84.7344,-0.361979 84.2786,-0.776042 83.9297,-1.35938 C83.5807,-1.94271 83.4063,-2.64583 83.4063,-3.46875 C83.4063,-4.02083 83.474,-4.51563 83.6094,-4.95313 C83.7448,-5.39063 83.8854,-5.71615 84.0313,-5.92969 C84.1771,-6.14323 84.4271,-6.38021 84.7813,-6.64063 C85.1354,-6.90104 85.5104,-7.10938 85.9063,-7.26563 C86.3021,-7.42188 86.7292,-7.5 87.1875,-7.5 C87.8125,-7.5 88.3646,-7.35417 88.8438,-7.0625 C89.3229,-6.77083 89.6589,-6.39583 89.8516,-5.9375 C90.0443,-5.47917 90.1406,-4.98958 90.1406,-4.46875 C90.1406,-4.3125 90.1302,-4.15625 90.1094,-4 L90.0313,-3.92188 C89.6771,-3.83854 89.2005,-3.78385 88.6016,-3.75781 C88.0026,-3.73177 87.6042,-3.71875 87.4063,-3.71875 L84.9063,-3.71875 C84.9167,-2.64583 85.1875,-1.85417 85.7188,-1.34375 C86.25,-0.833333 86.901,-0.578125 87.6719,-0.578125 C88.0365,-0.578125 88.3854,-0.640625 88.7188,-0.765625 C89.0521,-0.890625 89.4063,-1.0625 89.7813,-1.28125 L89.9063,-1.15625 M84.9063,-4.34375 C85,-4.33333 85.3594,-4.31771 85.9844,-4.29688 C86.6094,-4.27604 87.0729,-4.26563 87.375,-4.26563 C88.1042,-4.26563 88.5469,-4.27604 88.7031,-4.29688 C88.7031,-4.42188 88.7031,-4.52083 88.7031,-4.59375 C88.7031,-5.39583 88.5391,-5.99479 88.2109,-6.39063 C87.8828,-6.78646 87.4375,-6.98438 86.875,-6.98438 C86.25,-6.98438 85.7656,-6.76302 85.4219,-6.32031 C85.0781,-5.8776 84.9063,-5.21875 84.9063,-4.34375 M94,-7.45313 L94.1563,-7.34375 C94.125,-7.04167 94.099,-6.50521 94.0781,-5.73438 L94.6719,-6.48438 C94.8594,-6.72396 95.0286,-6.91146 95.1797,-7.04688 C95.3307,-7.18229 95.5052,-7.28646 95.7031,-7.35938 C95.901,-7.43229 96.1042,-7.46875 96.3125,-7.46875 C96.5417,-7.46875 96.7552,-7.42188 96.9531,-7.32813 L97.0156,-7.21875 C96.9323,-6.52083 96.8854,-5.91146 96.875,-5.39063 L96.5156,-5.39063 C96.3073,-5.86979 95.974,-6.10938 95.5156,-6.10938 C95.1927,-6.10938 94.9115,-6.00521 94.6719,-5.79688 C94.4323,-5.58854 94.2708,-5.33073 94.1875,-5.02344 C94.1042,-4.71615 94.0625,-4.32292 94.0625,-3.84375 L94.0625,-2.98438 C94.0625,-2.82813 94.0729,-2.44531 94.0938,-1.83594 C94.1146,-1.22656 94.138,-0.875 94.1641,-0.78125 C94.1901,-0.6875 94.2266,-0.617188 94.2734,-0.570313 C94.3203,-0.523438 94.3854,-0.492188 94.4688,-0.476563 C94.5521,-0.460938 94.9219,-0.4375 95.5781,-0.40625 L95.6563,-0.34375 L95.6563,-0.015625 L95.5781,0.0625 C94.8906,0.0208333 94.1667,0 93.4063,0 C92.8125,0 92.1875,0.0208333 91.5313,0.0625 L91.4688,-0.015625 L91.4688,-0.34375 L91.5313,-0.40625 C92.0417,-0.4375 92.3281,-0.460938 92.3906,-0.476563 C92.4531,-0.492188 92.5104,-0.523438 92.5625,-0.570313 C92.6146,-0.617188 92.6484,-0.692708 92.6641,-0.796875 C92.6797,-0.901042 92.7005,-1.23698 92.7266,-1.80469 C92.7526,-2.3724 92.7656,-2.80208 92.7656,-3.09375 L92.7656,-4.64063 C92.7656,-4.84896 92.7552,-5.13281 92.7344,-5.49219 C92.7135,-5.85156 92.6953,-6.07292 92.6797,-6.15625 C92.6641,-6.23958 92.6224,-6.29948 92.5547,-6.33594 C92.487,-6.3724 92.3542,-6.39063 92.1563,-6.39063 L91.5,-6.40625 L91.4219,-6.46875 L91.4219,-6.79688 L91.4844,-6.85938 C92.4844,-6.98438 93.3229,-7.18229 94,-7.45313 M97.3594,-6.14063 L97.3594,-6.34375 L97.4219,-6.42188 C97.9115,-6.59896 98.3073,-6.76563 98.6094,-6.92188 C98.6094,-8.28646 98.5938,-9.07813 98.5625,-9.29688 C99.0938,-9.48438 99.5313,-9.6875 99.875,-9.90625 L100.063,-9.75 C100.01,-9.41667 99.9479,-8.46354 99.875,-6.89063 C100.135,-6.88021 100.417,-6.875 100.719,-6.875 C101.333,-6.875 101.776,-6.89063 102.047,-6.92188 L102.094,-6.875 L101.953,-6.21875 L101.891,-6.14063 C101.62,-6.15104 101.323,-6.15625 101,-6.15625 C100.708,-6.15625 100.333,-6.15104 99.875,-6.14063 L99.8281,-2.96875 C99.8281,-2.22917 99.8464,-1.7474 99.8828,-1.52344 C99.9193,-1.29948 100.013,-1.1224 100.164,-0.992188 C100.315,-0.861979 100.542,-0.796875 100.844,-0.796875 C101.198,-0.796875 101.521,-0.890625 101.813,-1.07813 L102,-0.796875 C101.875,-0.703125 101.578,-0.442708 101.109,-0.015625 C100.839,0.119792 100.563,0.1875 100.281,0.1875 C99.1042,0.1875 98.5156,-0.385417 98.5156,-1.53125 C98.5156,-1.94792 98.526,-2.30208 98.5469,-2.59375 C98.5573,-2.67708 98.5625,-2.76563 98.5625,-2.85938 L98.5625,-6.10938 L98.2344,-6.10938 C98.0052,-6.10938 97.7396,-6.09896 97.4375,-6.07813 L97.3594,-6.14063 M106.406,-4.29688 C106.115,-4.29688 105.859,-4.20313 105.641,-4.01563 C105.464,-3.85938 105.341,-3.67188 105.273,-3.45313 C105.206,-3.23438 105.172,-2.89583 105.172,-2.4375 L105.172,0.265625 C105.172,1.27604 105.021,1.94271 104.719,2.26563 C104.396,2.60938 103.729,2.78125 102.719,2.78125 L102.719,2.59375 C103.188,2.59375 103.516,2.44792 103.703,2.15625 C103.911,1.82292 104.016,1.33854 104.016,0.703125 L104.016,-2.20313 C104.016,-2.83854 104.089,-3.30208 104.234,-3.59375 C104.422,-3.96875 104.792,-4.23438 105.344,-4.39063 C104.813,-4.54688 104.448,-4.8125 104.25,-5.1875 C104.094,-5.48958 104.016,-5.94792 104.016,-6.5625 L104.016,-9.51563 C104.016,-10.2031 103.911,-10.6953 103.703,-10.9922 C103.495,-11.2891 103.167,-11.4375 102.719,-11.4375 L102.719,-11.625 C103.344,-11.625 103.818,-11.5625 104.141,-11.4375 C104.599,-11.2604 104.901,-10.9167 105.047,-10.4063 C105.13,-10.0938 105.172,-9.71354 105.172,-9.26563 L105.172,-6.29688 C105.172,-5.78646 105.245,-5.38542 105.391,-5.09375 C105.589,-4.69792 105.927,-4.5 106.406,-4.5 L106.406,-4.29688 M107.453,-0.46875 C107.547,-1.04167 107.62,-1.78646 107.672,-2.70313 L107.75,-2.76563 L108.094,-2.76563 L108.156,-2.6875 C108.177,-1.88542 108.193,-1.42188 108.203,-1.29688 C108.526,-0.984375 108.857,-0.744792 109.195,-0.578125 C109.534,-0.411458 109.969,-0.328125 110.5,-0.328125 L110.5,-4.75 C109.958,-4.82292 109.516,-4.90625 109.172,-5 C108.828,-5.09375 108.521,-5.2526 108.25,-5.47656 C107.979,-5.70052 107.779,-5.97135 107.648,-6.28906 C107.518,-6.60677 107.453,-6.96875 107.453,-7.375 C107.453,-8.15625 107.701,-8.85417 108.195,-9.46875 C108.69,-10.0833 109.458,-10.4688 110.5,-10.625 C110.49,-11.125 110.479,-11.4531 110.469,-11.6094 L110.547,-11.6875 L111.094,-11.6875 L111.172,-11.6094 C111.161,-11.5677 111.151,-11.25 111.141,-10.6563 C112.401,-10.5625 113.271,-10.349 113.75,-10.0156 L113.781,-9.92188 C113.74,-9.75521 113.708,-9.60156 113.688,-9.46094 C113.667,-9.32031 113.646,-9.11979 113.625,-8.85938 L113.563,-8.04688 L113.5,-7.98438 L113.188,-7.98438 L113.125,-8.04688 C113.104,-8.55729 113.057,-8.98438 112.984,-9.32813 C112.557,-9.81771 111.943,-10.0729 111.141,-10.0938 L111.141,-5.96875 C111.786,-5.875 112.297,-5.77865 112.672,-5.67969 C113.047,-5.58073 113.375,-5.42448 113.656,-5.21094 C113.938,-4.9974 114.146,-4.73698 114.281,-4.42969 C114.417,-4.1224 114.484,-3.77083 114.484,-3.375 C114.484,-2.75 114.349,-2.18229 114.078,-1.67188 C113.807,-1.16146 113.451,-0.755208 113.008,-0.453125 C112.565,-0.151042 111.943,0.0833333 111.141,0.25 C111.151,1.04167 111.167,1.55729 111.188,1.79688 L111.125,1.85938 L110.547,1.85938 L110.469,1.79688 C110.479,1.61979 110.49,1.11458 110.5,0.28125 C109.396,0.260417 108.401,0.046875 107.516,-0.359375 L107.453,-0.46875 M110.5,-10.0625 C110.167,-10.0208 109.875,-9.93229 109.625,-9.79688 C109.375,-9.66146 109.154,-9.42969 108.961,-9.10156 C108.768,-8.77344 108.672,-8.36458 108.672,-7.875 C108.672,-7.20833 108.852,-6.75 109.211,-6.5 C109.57,-6.25 110,-6.09896 110.5,-6.04688 L110.5,-10.0625 M111.141,-0.359375 C111.745,-0.380208 112.245,-0.619792 112.641,-1.07813 C113.036,-1.53646 113.234,-2.09896 113.234,-2.76563 C113.234,-3.28646 113.089,-3.70313 112.797,-4.01563 C112.505,-4.32813 111.953,-4.54688 111.141,-4.67188 L111.141,-0.359375"/>
</g>

<g fill="#212121" fill-opacity="1" stroke="#212121" stroke-opacity="1" stroke-width="1.06667" stroke-linecap="square" stroke-linejoin="round" transform="matrix(0.75,0,0,0.75,-21.4875,-7.13996)"
font-family="MS Shell Dlg 2" font-size="8.25" font-weight="400" font-style="normal" 
>
<polyline fill="none" vector-effect="none" points="79,183 548,183 " />
<polyline fill="none" vector-effect="none" points="79,17 548,17 " />
<polyline fill="none" vector-effect="none" points="79,183 79,178.31 " />
<polyline fill="none" vector-effect="none" points="79,21.69 79,17 " />
<polyline fill="none" vector-effect="none" points="172.8,183 172.8,178.31 " />
<polyline fill="none" vector-effect="none" points="172.8,21.69 172.8,17 " />
<polyline fill="none" vector-effect="none" points="266.6,183 266.6,178.31 " />
<polyline fill="none" vector-effect="none" points="266.6,21.69 266.6,17 " />
<polyline fill="none" vector-effect="none" points="360.4,183 360.4,178.31 " />
<polyline fill="none" vector-effect="none" points="360.4,21.69 360.4,17 " />
<polyline fill="none" vector-effect="none" points="454.2,183 454.2,178.31 " />
<polyline fill="none" vector-effect="none" points="454.2,21.69 454.2,17 " />
<polyline fill="none" vector-effect="none" points="548,183 548,178.31 " />
<polyline fill="none" vector-effect="none" points="548,21.69 548,17 " />
</g>

<g fill="#212121" fill-opacity="1" stroke="none" transform="matrix(0.75,0,0,0.75,35.0125,143.55)"
font-family="MS Shell Dlg 2" font-size="8.25" font-weight="400" font-style="normal" 
>
<path vector-effect="none" fill-rule="evenodd" d="M3.5,0.3125 C2.35417,0.3125 1.57552,-0.158854 1.16406,-1.10156 C0.752604,-2.04427 0.546875,-3.16667 0.546875,-4.46875 C0.546875,-5.28125 0.619792,-6.04427 0.765625,-6.75781 C0.911458,-7.47135 1.20573,-8.07813 1.64844,-8.57813 C2.09115,-9.07813 2.70833,-9.32813 3.5,-9.32813 C4.11458,-9.32813 4.61719,-9.17708 5.00781,-8.875 C5.39844,-8.57292 5.69792,-8.1849 5.90625,-7.71094 C6.11458,-7.23698 6.25521,-6.72656 6.32813,-6.17969 C6.40104,-5.63281 6.4375,-5.0625 6.4375,-4.46875 C6.4375,-3.66667 6.36458,-2.91406 6.21875,-2.21094 C6.07292,-1.50781 5.78385,-0.911458 5.35156,-0.421875 C4.91927,0.0677083 4.30208,0.3125 3.5,0.3125 M3.5,-0.0625 C4.02083,-0.0625 4.40885,-0.328125 4.66406,-0.859375 C4.91927,-1.39063 5.07552,-1.97917 5.13281,-2.625 C5.1901,-3.27083 5.21875,-3.95833 5.21875,-4.6875 C5.21875,-5.39583 5.1901,-6.04427 5.13281,-6.63281 C5.07552,-7.22135 4.91927,-7.75781 4.66406,-8.24219 C4.40885,-8.72656 4.02083,-8.96875 3.5,-8.96875 C2.96875,-8.96875 2.57552,-8.72656 2.32031,-8.24219 C2.0651,-7.75781 1.90885,-7.22135 1.85156,-6.63281 C1.79427,-6.04427 1.76563,-5.39583 1.76563,-4.6875 C1.76563,-4.16667 1.77865,-3.67708 1.80469,-3.21875 C1.83073,-2.76042 1.89844,-2.28646 2.00781,-1.79688 C2.11719,-1.30729 2.29427,-0.895833 2.53906,-0.5625 C2.78385,-0.229167 3.10417,-0.0625 3.5,-0.0625 "/>
</g>

<g fill="#212121" fill-opacity="1" stroke="none" transform="matrix(0.75,0,0,0.75,101.085,143.55)"
font-family="MS Shell Dlg 2" font-size="8.25" font-weight="400" font-style="normal" 
>
<path vector-effect="none" fill-rule="evenodd" d="M3.5,0.3125 C2.35417,0.3125 1.57552,-0.158854 1.16406,-1.10156 C0.752604,-2.04427 0.546875,-3.16667 0.546875,-4.46875 C0.546875,-5.28125 0.619792,-6.04427 0.765625,-6.75781 C0.911458,-7.47135 1.20573,-8.07813 1.64844,-8.57813 C2.09115,-9.07813 2.70833,-9.32813 3.5,-9.32813 C4.11458,-9.32813 4.61719,-9.17708 5.00781,-8.875 C5.39844,-8.57292 5.69792,-8.1849 5.90625,-7.71094 C6.11458,-7.23698 6.25521,-6.72656 6.32813,-6.17969 C6.40104,-5.63281 6.4375,-5.0625 6.4375,-4.46875 C6.4375,-3.66667 6.36458,-2.91406 6.21875,-2.21094 C6.07292,-1.50781 5.78385,-0.911458 5.35156,-0.421875 C4.91927,0.0677083 4.30208,0.3125 3.5,0.3125 M3.5,-0.0625 C4.02083,-0.0625 4.40885,-0.328125 4.66406,-0.859375 C4.91927,-1.39063 5.07552,-1.97917 5.13281,-2.625 C5.1901,-3.27083 5.21875,-3.95833 5.21875,-4.6875 C5.21875,-5.39583 5.1901,-6.04427 5.13281,-6.63281 C5.07552,-7.22135 4.91927,-7.75781 4.66406,-8.24219 C4.40885,-8.72656 4.02083,-8.96875 3.5,-8.96875 C2.96875,-8.96875 2.57552,-8.72656 2.32031,-8.24219 C2.0651,-7.75781 1.90885,-7.22135 1.85156,-6.63281 C1.79427,-6.04427 1.76563,-5.39583 1.76563,-4.6875 C1.76563,-4.16667 1.77865,-3.67708 1.80469,-3.21875 C1.83073,-2.76042 1.89844,-2.28646 2.00781,-1.79688 C2.11719,-1.30729 2.29427,-0.895833 2.53906,-0.5625 C2.78385,-0.229167 3.10417,-0.0625 3.5,-0.0625 "/>
</g>

<g fill="#212121" fill-opacity="1" stroke="none" transform="matrix(0.75,0,0,0.75,106.585,143.55)"
font-family="MS Shell Dlg 2" font-size="8.25" font-weight="400" font-style="normal" 
>
<path vector-effect="none" fill-rule="evenodd" d="M1.17188,-0.765625 C1.17188,-0.984375 1.25,-1.16667 1.40625,-1.3125 C1.5625,-1.45833 1.74479,-1.53125 1.95313,-1.53125 C2.07813,-1.53125 2.20313,-1.4974 2.32813,-1.42969 C2.45313,-1.36198 2.54948,-1.26823 2.61719,-1.14844 C2.6849,-1.02865 2.71875,-0.901042 2.71875,-0.765625 C2.71875,-0.567708 2.64323,-0.390625 2.49219,-0.234375 C2.34115,-0.078125 2.16146,0 1.95313,0 C1.74479,0 1.5625,-0.078125 1.40625,-0.234375 C1.25,-0.390625 1.17188,-0.567708 1.17188,-0.765625 "/>
</g>

<g fill="#212121" fill-opacity="1" stroke="none" transform="matrix(0.75,0,0,0.75,109.64,143.55)"
font-family="MS Shell Dlg 2" font-size="8.25" font-weight="400" font-style="normal" 
>
<path vector-effect="none" fill-rule="evenodd" d="M0.703125,0 L0.703125,-0.375 C0.703125,-0.395833 0.708333,-0.421875 0.71875,-0.453125 L2.90625,-2.85938 C3.22917,-3.21354 3.49219,-3.51042 3.69531,-3.75 C3.89844,-3.98958 4.10156,-4.26823 4.30469,-4.58594 C4.50781,-4.90365 4.66667,-5.22396 4.78125,-5.54688 C4.89583,-5.86979 4.95313,-6.21354 4.95313,-6.57813 C4.95313,-6.96354 4.88281,-7.33073 4.74219,-7.67969 C4.60156,-8.02865 4.39063,-8.30729 4.10938,-8.51563 C3.82813,-8.72396 3.48958,-8.82813 3.09375,-8.82813 C2.6875,-8.82813 2.32292,-8.70573 2,-8.46094 C1.67708,-8.21615 1.44792,-7.90104 1.3125,-7.51563 C1.35417,-7.52604 1.40625,-7.53125 1.46875,-7.53125 C1.67708,-7.53125 1.85677,-7.46094 2.00781,-7.32031 C2.15885,-7.17969 2.23438,-7 2.23438,-6.78125 C2.23438,-6.5625 2.15885,-6.38021 2.00781,-6.23438 C1.85677,-6.08854 1.67708,-6.01563 1.46875,-6.01563 C1.25,-6.01563 1.06771,-6.09115 0.921875,-6.24219 C0.776042,-6.39323 0.703125,-6.57292 0.703125,-6.78125 C0.703125,-7.125 0.768229,-7.45052 0.898438,-7.75781 C1.02865,-8.0651 1.21875,-8.33854 1.46875,-8.57813 C1.71875,-8.81771 2,-9.0026 2.3125,-9.13281 C2.625,-9.26302 2.95313,-9.32813 3.29688,-9.32813 C3.83854,-9.32813 4.33854,-9.21354 4.79688,-8.98438 C5.25521,-8.75521 5.61979,-8.4349 5.89063,-8.02344 C6.16146,-7.61198 6.29688,-7.13021 6.29688,-6.57813 C6.29688,-6.17188 6.20573,-5.78646 6.02344,-5.42188 C5.84115,-5.05729 5.61198,-4.72656 5.33594,-4.42969 C5.0599,-4.13281 4.70573,-3.79427 4.27344,-3.41406 C3.84115,-3.03385 3.55729,-2.78125 3.42188,-2.65625 L1.82813,-1.14063 L3.17188,-1.14063 C3.83854,-1.14063 4.39323,-1.14583 4.83594,-1.15625 C5.27865,-1.16667 5.51563,-1.18229 5.54688,-1.20313 C5.65104,-1.31771 5.76042,-1.75 5.875,-2.5 L6.29688,-2.5 L5.89063,0 L0.703125,0"/>
</g>

<g fill="#212121" fill-opacity="1" stroke="none" transform="matrix(0.75,0,0,0.75,171.435,143.55)"
font-family="MS Shell Dlg 2" font-size="8.25" font-weight="400" font-style="normal" 
>
<path vector-effect="none" fill-rule="evenodd" d="M3.5,0.3125 C2.35417,0.3125 1.57552,-0.158854 1.16406,-1.10156 C0.752604,-2.04427 0.546875,-3.16667 0.546875,-4.46875 C0.546875,-5.28125 0.619792,-6.04427 0.765625,-6.75781 C0.911458,-7.47135 1.20573,-8.07813 1.64844,-8.57813 C2.09115,-9.07813 2.70833,-9.32813 3.5,-9.32813 C4.11458,-9.32813 4.61719,-9.17708 5.00781,-8.875 C5.39844,-8.57292 5.69792,-8.1849 5.90625,-7.71094 C6.11458,-7.23698 6.25521,-6.72656 6.32813,-6.17969 C6.40104,-5.63281 6.4375,-5.0625 6.4375,-4.46875 C6.4375,-3.66667 6.36458,-2.91406 6.21875,-2.21094 C6.07292,-1.50781 5.78385,-0.911458 5.35156,-0.421875 C4.91927,0.0677083 4.30208,0.3125 3.5,0.3125 M3.5,-0.0625 C4.02083,-0.0625 4.40885,-0.328125 4.66406,-0.859375 C4.91927,-1.39063 5.07552,-1.97917 5.13281,-2.625 C5.1901,-3.27083 5.21875,-3.95833 5.21875,-4.6875 C5.21875,-5.39583 5.1901,-6.04427 5.13281,-6.63281 C5.07552,-7.22135 4.91927,-7.75781 4.66406,-8.24219 C4.40885,-8.72656 4.02083,-8.96875 3.5,-8.96875 C2.96875,-8.96875 2.57552,-8.72656 2.32031,-8.24219 C2.0651,-7.75781 1.90885,-7.22135 1.85156,-6.63281 C1.79427,-6.04427 1.76563,-5.39583 1.76563,-4.6875 C1.76563,-4.16667 1.77865,-3.67708 1.80469,-3.21875 C1.83073,-2.76042 1.89844,-2.28646 2.00781,-1.79688 C2.11719,-1.30729 2.29427,-0.895833 2.53906,-0.5625 C2.78385,-0.229167 3.10417,-0.0625 3.5,-0.0625 "/>
</g>

<g fill="#212121" fill-opacity="1" stroke="none" transform="matrix(0.75,0,0,0.75,176.935,143.55)"
font-family="MS Shell Dlg 2" font-size="8.25" font-weight="400" font-style="normal" 
>
<path vector-effect="none" fill-rule="evenodd" d="M1.17188,-0.765625 C1.17188,-0.984375 1.25,-1.16667 1.40625,-1.3125 C1.5625,-1.45833 1.74479,-1.53125 1.95313,-1.53125 C2.07813,-1.53125 2.20313,-1.4974 2.32813,-1.42969 C2.45313,-1.36198 2.54948,-1.26823 2.61719,-1.14844 C2.6849,-1.02865 2.71875,-0.901042 2.71875,-0.765625 C2.71875,-0.567708 2.64323,-0.390625 2.49219,-0.234375 C2.34115,-0.078125 2.16146,0 1.95313,0 C1.74479,0 1.5625,-0.078125 1.40625,-0.234375 C1.25,-0.390625 1.17188,-0.567708 1.17188,-0.765625 "/>
</g>

<g fill="#212121" fill-opacity="1" stroke="none" transform="matrix(0.75,0,0,0.75,179.99,143.55)"
font-family="MS Shell Dlg 2" font-size="8.25" font-weight="400" font-style="normal" 
>
<path vector-effect="none" fill-rule="evenodd" d="M0.390625,-2.3125 L0.390625,-2.79688 L4.71875,-9.25 C4.75,-9.30208 4.79688,-9.32813 4.85938,-9.32813 L5.0625,-9.32813 C5.16667,-9.32813 5.21875,-9.27604 5.21875,-9.17188 L5.21875,-2.79688 L6.59375,-2.79688 L6.59375,-2.3125 L5.21875,-2.3125 L5.21875,-0.9375 C5.21875,-0.75 5.35677,-0.630208 5.63281,-0.578125 C5.90885,-0.526042 6.22396,-0.5 6.57813,-0.5 L6.57813,0 L2.73438,0 L2.73438,-0.5 C3.08854,-0.5 3.40365,-0.526042 3.67969,-0.578125 C3.95573,-0.630208 4.09375,-0.75 4.09375,-0.9375 L4.09375,-2.3125 L0.390625,-2.3125 M0.859375,-2.79688 L4.17188,-2.79688 L4.17188,-7.76563 L0.859375,-2.79688"/>
</g>

<g fill="#212121" fill-opacity="1" stroke="none" transform="matrix(0.75,0,0,0.75,241.785,143.55)"
font-family="MS Shell Dlg 2" font-size="8.25" font-weight="400" font-style="normal" 
>
<path vector-effect="none" fill-rule="evenodd" d="M3.5,0.3125 C2.35417,0.3125 1.57552,-0.158854 1.16406,-1.10156 C0.752604,-2.04427 0.546875,-3.16667 0.546875,-4.46875 C0.546875,-5.28125 0.619792,-6.04427 0.765625,-6.75781 C0.911458,-7.47135 1.20573,-8.07813 1.64844,-8.57813 C2.09115,-9.07813 2.70833,-9.32813 3.5,-9.32813 C4.11458,-9.32813 4.61719,-9.17708 5.00781,-8.875 C5.39844,-8.57292 5.69792,-8.1849 5.90625,-7.71094 C6.11458,-7.23698 6.25521,-6.72656 6.32813,-6.17969 C6.40104,-5.63281 6.4375,-5.0625 6.4375,-4.46875 C6.4375,-3.66667 6.36458,-2.91406 6.21875,-2.21094 C6.07292,-1.50781 5.78385,-0.911458 5.35156,-0.421875 C4.91927,0.0677083 4.30208,0.3125 3.5,0.3125 M3.5,-0.0625 C4.02083,-0.0625 4.40885,-0.328125 4.66406,-0.859375 C4.91927,-1.39063 5.07552,-1.97917 5.13281,-2.625 C5.1901,-3.27083 5.21875,-3.95833 5.21875,-4.6875 C5.21875,-5.39583 5.1901,-6.04427 5.13281,-6.63281 C5.07552,-7.22135 4.91927,-7.75781 4.66406,-8.24219 C4.40885,-8.72656 4.02083,-8.96875 3.5,-8.96875 C2.96875,-8.96875 2.57552,-8.72656 2.32031,-8.24219 C2.0651,-7.75781 1.90885,-7.22135 1.85156,-6.63281 C1.79427,-6.04427 1.76563,-5.39583 1.76563,-4.6875 C1.76563,-4.16667 1.77865,-3.67708 1.80469,-3.21875 C1.83073,-2.76042 1.89844,-2.28646 2.00781,-1.79688 C2.11719,-1.30729 2.29427,-0.895833 2.53906,-0.5625 C2.78385,-0.229167 3.10417,-0.0625 3.5,-0.0625 "/>
</g>

<g fill="#212121" fill-opacity="1" stroke="none" transform="matrix(0.75,0,0,0.75,247.285,143.55)"
font-family="MS Shell Dlg 2" font-size="8.25" font-weight="400" font-style="normal" 
>
<path vector-effect="none" fill-rule="evenodd" d="M1.17188,-0.765625 C1.17188,-0.984375 1.25,-1.16667 1.40625,-1.3125 C1.5625,-1.45833 1.74479,-1.53125 1.95313,-1.53125 C2.07813,-1.53125 2.20313,-1.4974 2.32813,-1.42969 C2.45313,-1.36198 2.54948,-1.26823 2.61719,-1.14844 C2.6849,-1.02865 2.71875,-0.901042 2.71875,-0.765625 C2.71875,-0.567708 2.64323,-0.390625 2.49219,-0.234375 C2.34115,-0.078125 2.16146,0 1.95313,0 C1.74479,0 1.5625,-0.078125 1.40625,-0.234375 C1.25,-0.390625 1.17188,-0.567708 1.17188,-0.765625 "/>
</g>

<g fill="#212121" fill-opacity="1" stroke="none" transform="matrix(0.75,0,0,0.75,250.34,143.55)"
font-family="MS Shell Dlg 2" font-size="8.25" font-weight="400" font-style="normal" 
>
<path vector-effect="none" fill-rule="evenodd" d="M3.5,0.3125 C2.91667,0.3125 2.43229,0.158854 2.04688,-0.148438 C1.66146,-0.455729 1.36198,-0.854167 1.14844,-1.34375 C0.934896,-1.83333 0.789063,-2.34896 0.710938,-2.89063 C0.632813,-3.43229 0.59375,-3.97917 0.59375,-4.53125 C0.59375,-5.27083 0.736979,-6.01042 1.02344,-6.75 C1.3099,-7.48958 1.73177,-8.10417 2.28906,-8.59375 C2.84635,-9.08333 3.50521,-9.32813 4.26563,-9.32813 C4.58854,-9.32813 4.88802,-9.26823 5.16406,-9.14844 C5.4401,-9.02865 5.65625,-8.85156 5.8125,-8.61719 C5.96875,-8.38281 6.04688,-8.09896 6.04688,-7.76563 C6.04688,-7.56771 5.98177,-7.40365 5.85156,-7.27344 C5.72135,-7.14323 5.5625,-7.07813 5.375,-7.07813 C5.1875,-7.07813 5.02865,-7.14583 4.89844,-7.28125 C4.76823,-7.41667 4.70313,-7.57813 4.70313,-7.76563 C4.70313,-7.94271 4.76823,-8.09635 4.89844,-8.22656 C5.02865,-8.35677 5.1875,-8.42188 5.375,-8.42188 L5.45313,-8.42188 C5.32813,-8.59896 5.15885,-8.72656 4.94531,-8.80469 C4.73177,-8.88281 4.50521,-8.92188 4.26563,-8.92188 C3.98438,-8.92188 3.72396,-8.85938 3.48438,-8.73438 C3.24479,-8.60938 3.03125,-8.44271 2.84375,-8.23438 C2.65625,-8.02604 2.4974,-7.79427 2.36719,-7.53906 C2.23698,-7.28385 2.13802,-6.99479 2.07031,-6.67188 C2.0026,-6.34896 1.95833,-6.04688 1.9375,-5.76563 C1.91667,-5.48438 1.90625,-5.13021 1.90625,-4.70313 C2.07292,-5.08854 2.30729,-5.40365 2.60938,-5.64844 C2.91146,-5.89323 3.25,-6.01563 3.625,-6.01563 C4.04167,-6.01563 4.41927,-5.92969 4.75781,-5.75781 C5.09635,-5.58594 5.39063,-5.35156 5.64063,-5.05469 C5.89063,-4.75781 6.08073,-4.41667 6.21094,-4.03125 C6.34115,-3.64583 6.40625,-3.26042 6.40625,-2.875 C6.40625,-2.32292 6.28385,-1.79948 6.03906,-1.30469 C5.79427,-0.809896 5.45052,-0.416667 5.00781,-0.125 C4.5651,0.166667 4.0625,0.3125 3.5,0.3125 M3.5,-0.140625 C3.86458,-0.140625 4.15625,-0.223958 4.375,-0.390625 C4.59375,-0.557292 4.7526,-0.776042 4.85156,-1.04688 C4.95052,-1.31771 5.01302,-1.58854 5.03906,-1.85938 C5.0651,-2.13021 5.07813,-2.46875 5.07813,-2.875 C5.07813,-3.39583 5.05208,-3.84375 5,-4.21875 C4.94792,-4.59375 4.8125,-4.92448 4.59375,-5.21094 C4.375,-5.4974 4.03125,-5.64063 3.5625,-5.64063 C3.1875,-5.64063 2.8776,-5.51302 2.63281,-5.25781 C2.38802,-5.0026 2.21094,-4.67969 2.10156,-4.28906 C1.99219,-3.89844 1.9375,-3.52604 1.9375,-3.17188 C1.9375,-3.04688 1.94271,-2.95313 1.95313,-2.89063 C1.95313,-2.86979 1.95052,-2.85677 1.94531,-2.85156 C1.9401,-2.84635 1.9375,-2.83333 1.9375,-2.8125 C1.9375,-2.41667 1.97917,-2.01302 2.0625,-1.60156 C2.14583,-1.1901 2.30208,-0.84375 2.53125,-0.5625 C2.76042,-0.28125 3.08333,-0.140625 3.5,-0.140625 "/>
</g>

<g fill="#212121" fill-opacity="1" stroke="none" transform="matrix(0.75,0,0,0.75,312.135,143.55)"
font-family="MS Shell Dlg 2" font-size="8.25" font-weight="400" font-style="normal" 
>
<path vector-effect="none" fill-rule="evenodd" d="M3.5,0.3125 C2.35417,0.3125 1.57552,-0.158854 1.16406,-1.10156 C0.752604,-2.04427 0.546875,-3.16667 0.546875,-4.46875 C0.546875,-5.28125 0.619792,-6.04427 0.765625,-6.75781 C0.911458,-7.47135 1.20573,-8.07813 1.64844,-8.57813 C2.09115,-9.07813 2.70833,-9.32813 3.5,-9.32813 C4.11458,-9.32813 4.61719,-9.17708 5.00781,-8.875 C5.39844,-8.57292 5.69792,-8.1849 5.90625,-7.71094 C6.11458,-7.23698 6.25521,-6.72656 6.32813,-6.17969 C6.40104,-5.63281 6.4375,-5.0625 6.4375,-4.46875 C6.4375,-3.66667 6.36458,-2.91406 6.21875,-2.21094 C6.07292,-1.50781 5.78385,-0.911458 5.35156,-0.421875 C4.91927,0.0677083 4.30208,0.3125 3.5,0.3125 M3.5,-0.0625 C4.02083,-0.0625 4.40885,-0.328125 4.66406,-0.859375 C4.91927,-1.39063 5.07552,-1.97917 5.13281,-2.625 C5.1901,-3.27083 5.21875,-3.95833 5.21875,-4.6875 C5.21875,-5.39583 5.1901,-6.04427 5.13281,-6.63281 C5.07552,-7.22135 4.91927,-7.75781 4.66406,-8.24219 C4.40885,-8.72656 4.02083,-8.96875 3.5,-8.96875 C2.96875,-8.96875 2.57552,-8.72656 2.32031,-8.24219 C2.0651,-7.75781 1.90885,-7.22135 1.85156,-6.63281 C1.79427,-6.04427 1.76563,-5.39583 1.76563,-4.6875 C1.76563,-4.16667 1.77865,-3.67708 1.80469,-3.21875 C1.83073,-2.76042 1.89844,-2.28646 2.00781,-1.79688 C2.11719,-1.30729 2.29427,-0.895833 2.53906,-0.5625 C2.78385,-0.229167 3.10417,-0.0625 3.5,-0.0625 "/>
</g>

<g fill="#212121" fill-opacity="1" stroke="none" transform="matrix(0.75,0,0,0.75,317.635,143.55)"
font-family="MS Shell Dlg 2" font-size="8.25" font-weight="400" font-style="normal" 
>
<path vector-effect="none" fill-rule="evenodd" d="M1.17188,-0.765625 C1.17188,-0.984375 1.25,-1.16667 1.40625,-1.3125 C1.5625,-1.45833 1.74479,-1.53125 1.95313,-1.53125 C2.07813,-1.53125 2.20313,-1.4974 2.32813,-1.42969 C2.45313,-1.36198 2.54948,-1.26823 2.61719,-1.14844 C2.6849,-1.02865 2.71875,-0.901042 2.71875,-0.765625 C2.71875,-0.567708 2.64323,-0.390625 2.49219,-0.234375 C2.34115,-0.078125 2.16146,0 1.95313,0 C1.74479,0 1.5625,-0.078125 1.40625,-0.234375 C1.25,-0.390625 1.17188,-0.567708 1.17188,-0.765625 "/>
</g>

<g fill="#212121" fill-opacity="1" stroke="none" transform="matrix(0.75,0,0,0.75,320.69,143.55)"
font-family="MS Shell Dlg 2" font-size="8.25" font-weight="400" font-style="normal" 
>
<path vector-effect="none" fill-rule="evenodd" d="M0.59375,-2.125 C0.59375,-2.6875 0.778646,-3.1849 1.14844,-3.61719 C1.51823,-4.04948 1.98958,-4.40625 2.5625,-4.6875 L2.04688,-5.03125 C1.72396,-5.23958 1.46354,-5.51823 1.26563,-5.86719 C1.06771,-6.21615 0.96875,-6.57813 0.96875,-6.95313 C0.96875,-7.40104 1.08594,-7.80469 1.32031,-8.16406 C1.55469,-8.52344 1.86719,-8.80729 2.25781,-9.01563 C2.64844,-9.22396 3.0625,-9.32813 3.5,-9.32813 C3.91667,-9.32813 4.31771,-9.24219 4.70313,-9.07031 C5.08854,-8.89844 5.40365,-8.65625 5.64844,-8.34375 C5.89323,-8.03125 6.01563,-7.66146 6.01563,-7.23438 C6.01563,-6.91146 5.94271,-6.61719 5.79688,-6.35156 C5.65104,-6.08594 5.45052,-5.84635 5.19531,-5.63281 C4.9401,-5.41927 4.66667,-5.23438 4.375,-5.07813 L5.17188,-4.5625 C5.53646,-4.32292 5.83333,-4.00781 6.0625,-3.61719 C6.29167,-3.22656 6.40625,-2.8125 6.40625,-2.375 C6.40625,-1.875 6.26823,-1.41667 5.99219,-1 C5.71615,-0.583333 5.35677,-0.260417 4.91406,-0.03125 C4.47135,0.197917 4,0.3125 3.5,0.3125 C3.02083,0.3125 2.55469,0.213542 2.10156,0.015625 C1.64844,-0.182292 1.28385,-0.466146 1.00781,-0.835938 C0.731771,-1.20573 0.59375,-1.63542 0.59375,-2.125 M1.34375,-2.125 C1.34375,-1.76042 1.44531,-1.42448 1.64844,-1.11719 C1.85156,-0.809896 2.11979,-0.570313 2.45313,-0.398438 C2.78646,-0.226563 3.13542,-0.140625 3.5,-0.140625 C4.04167,-0.140625 4.53385,-0.299479 4.97656,-0.617188 C5.41927,-0.934896 5.64063,-1.35417 5.64063,-1.875 C5.64063,-2.05208 5.60417,-2.22917 5.53125,-2.40625 C5.45833,-2.58333 5.35938,-2.74219 5.23438,-2.88281 C5.10938,-3.02344 4.96875,-3.14063 4.8125,-3.23438 L2.9375,-4.45313 C2.64583,-4.29688 2.3776,-4.10156 2.13281,-3.86719 C1.88802,-3.63281 1.69531,-3.36719 1.55469,-3.07031 C1.41406,-2.77344 1.34375,-2.45833 1.34375,-2.125 M2.3125,-6.40625 L4,-5.3125 C4.39583,-5.54167 4.71875,-5.81771 4.96875,-6.14063 C5.21875,-6.46354 5.34375,-6.82813 5.34375,-7.23438 C5.34375,-7.54688 5.25521,-7.83333 5.07813,-8.09375 C4.90104,-8.35417 4.67188,-8.55729 4.39063,-8.70313 C4.10938,-8.84896 3.80729,-8.92188 3.48438,-8.92188 C3.20313,-8.92188 2.91927,-8.86719 2.63281,-8.75781 C2.34635,-8.64844 2.10938,-8.48438 1.92188,-8.26563 C1.73438,-8.04688 1.64063,-7.79167 1.64063,-7.5 C1.64063,-7.0625 1.86458,-6.69792 2.3125,-6.40625 "/>
</g>

<g fill="#212121" fill-opacity="1" stroke="none" transform="matrix(0.75,0,0,0.75,386.762,143.55)"
font-family="MS Shell Dlg 2" font-size="8.25" font-weight="400" font-style="normal" 
>
<path vector-effect="none" fill-rule="evenodd" d="M1.29688,0 L1.29688,-0.5 C2.46354,-0.5 3.04688,-0.645833 3.04688,-0.9375 L3.04688,-8.28125 C2.56771,-8.05208 1.95833,-7.9375 1.21875,-7.9375 L1.21875,-8.42188 C2.36458,-8.42188 3.22917,-8.72396 3.8125,-9.32813 L4,-9.32813 C4.03125,-9.32813 4.0625,-9.3151 4.09375,-9.28906 C4.125,-9.26302 4.14063,-9.23438 4.14063,-9.20313 L4.14063,-0.9375 C4.14063,-0.645833 4.72396,-0.5 5.89063,-0.5 L5.89063,0 L1.29688,0"/>
</g>

<g fill="#212121" fill-opacity="1" stroke="none" transform="matrix(0,-0.75,0.75,0,10.5,120.36)"
font-family="MS Shell Dlg 2" font-size="8.25" font-weight="400" font-style="normal" 
>
<path vector-effect="none" fill-rule="evenodd" d="M0.328125,-10.9844 L0.390625,-11.0469 C1.34896,-11.0052 2.09375,-10.9844 2.625,-10.9844 C3.20833,-10.9844 4,-11 5,-11.0313 C5.375,-11.0417 5.64583,-11.0469 5.8125,-11.0469 C7.125,-11.0469 8.01563,-10.8073 8.48438,-10.3281 C8.95313,-9.84896 9.1875,-9.28125 9.1875,-8.625 C9.1875,-8.1875 9.07292,-7.75781 8.84375,-7.33594 C8.61458,-6.91406 8.27604,-6.55469 7.82813,-6.25781 C7.38021,-5.96094 6.76563,-5.73438 5.98438,-5.57813 C6.13021,-5.38021 6.39063,-5.03125 6.76563,-4.53125 L7.875,-3.0625 C8.23958,-2.57292 8.6276,-2.0599 9.03906,-1.52344 C9.45052,-0.986979 9.71615,-0.682292 9.83594,-0.609375 C9.95573,-0.536458 10.0573,-0.492188 10.1406,-0.476563 C10.224,-0.460938 10.3594,-0.453125 10.5469,-0.453125 L10.6094,-0.390625 L10.6094,-0.03125 L10.5469,0.046875 C10.2969,0.015625 10,0 9.65625,0 C9.28125,0 8.875,0.015625 8.4375,0.046875 C8.08333,-0.390625 7.52083,-1.15104 6.75,-2.23438 C5.85417,-3.48438 4.9375,-4.64063 4,-5.70313 L4.07813,-5.95313 C4.34896,-5.93229 4.55729,-5.92188 4.70313,-5.92188 C5.60938,-5.92188 6.31771,-6.13802 6.82813,-6.57031 C7.33854,-7.0026 7.59375,-7.60417 7.59375,-8.375 C7.59375,-9.0625 7.36458,-9.58073 6.90625,-9.92969 C6.44792,-10.2786 5.82813,-10.4531 5.04688,-10.4531 C4.49479,-10.4531 3.97917,-10.3802 3.5,-10.2344 C3.41667,-10.1198 3.375,-9.14063 3.375,-7.29688 L3.375,-3.6875 L3.39063,-2.15625 C3.39063,-1.57292 3.40365,-1.19531 3.42969,-1.02344 C3.45573,-0.851563 3.49479,-0.736979 3.54688,-0.679688 C3.59896,-0.622396 3.69531,-0.572917 3.83594,-0.53125 C3.97656,-0.489583 4.32292,-0.458333 4.875,-0.4375 L4.9375,-0.390625 L4.9375,0 L4.875,0.0625 C4.84375,0.0625 4.38542,0.046875 3.5,0.015625 C3.125,0.00520833 2.83333,0 2.625,0 C2.46875,0 1.72396,0.0208333 0.390625,0.0625 L0.328125,0 L0.328125,-0.390625 L0.390625,-0.4375 C0.880208,-0.458333 1.20573,-0.484375 1.36719,-0.515625 C1.52865,-0.546875 1.63542,-0.588542 1.6875,-0.640625 C1.73958,-0.692708 1.78385,-0.799479 1.82031,-0.960938 C1.85677,-1.1224 1.875,-1.47917 1.875,-2.03125 L1.89063,-3.6875 L1.89063,-7.29688 L1.875,-8.82813 C1.86458,-9.42188 1.84896,-9.80469 1.82813,-9.97656 C1.80729,-10.1484 1.77083,-10.263 1.71875,-10.3203 C1.66667,-10.3776 1.57031,-10.4245 1.42969,-10.4609 C1.28906,-10.4974 0.942708,-10.526 0.390625,-10.5469 L0.328125,-10.5938 L0.328125,-10.9844 M17.9063,-1.15625 L17.6563,-0.59375 C17.1146,-0.239583 16.6328,-0.0104167 16.2109,0.09375 C15.7891,0.197917 15.4115,0.25 15.0781,0.25 C14.4531,0.25 13.8594,0.127604 13.2969,-0.117188 C12.7344,-0.361979 12.2786,-0.776042 11.9297,-1.35938 C11.5807,-1.94271 11.4063,-2.64583 11.4063,-3.46875 C11.4063,-4.02083 11.474,-4.51563 11.6094,-4.95313 C11.7448,-5.39063 11.8854,-5.71615 12.0313,-5.92969 C12.1771,-6.14323 12.4271,-6.38021 12.7813,-6.64063 C13.1354,-6.90104 13.5104,-7.10938 13.9063,-7.26563 C14.3021,-7.42188 14.7292,-7.5 15.1875,-7.5 C15.8125,-7.5 16.3646,-7.35417 16.8438,-7.0625 C17.3229,-6.77083 17.6589,-6.39583 17.8516,-5.9375 C18.0443,-5.47917 18.1406,-4.98958 18.1406,-4.46875 C18.1406,-4.3125 18.1302,-4.15625 18.1094,-4 L18.0313,-3.92188 C17.6771,-3.83854 17.2005,-3.78385 16.6016,-3.75781 C16.0026,-3.73177 15.6042,-3.71875 15.4063,-3.71875 L12.9063,-3.71875 C12.9167,-2.64583 13.1875,-1.85417 13.7188,-1.34375 C14.25,-0.833333 14.901,-0.578125 15.6719,-0.578125 C16.0365,-0.578125 16.3854,-0.640625 16.7188,-0.765625 C17.0521,-0.890625 17.4063,-1.0625 17.7813,-1.28125 L17.9063,-1.15625 M12.9063,-4.34375 C13,-4.33333 13.3594,-4.31771 13.9844,-4.29688 C14.6094,-4.27604 15.0729,-4.26563 15.375,-4.26563 C16.1042,-4.26563 16.5469,-4.27604 16.7031,-4.29688 C16.7031,-4.42188 16.7031,-4.52083 16.7031,-4.59375 C16.7031,-5.39583 16.5391,-5.99479 16.2109,-6.39063 C15.8828,-6.78646 15.4375,-6.98438 14.875,-6.98438 C14.25,-6.98438 13.7656,-6.76302 13.4219,-6.32031 C13.0781,-5.8776 12.9063,-5.21875 12.9063,-4.34375 M21.9219,-11.5781 L22.0781,-11.4844 C22.0156,-10.8802 21.9844,-9.67708 21.9844,-7.875 L21.9844,-2.98438 C21.9844,-2.86979 21.9948,-2.5 22.0156,-1.875 C22.0365,-1.25 22.0599,-0.885417 22.0859,-0.78125 C22.112,-0.677083 22.1484,-0.601563 22.1953,-0.554688 C22.2422,-0.507813 22.2995,-0.479167 22.3672,-0.46875 C22.4349,-0.458333 22.7135,-0.4375 23.2031,-0.40625 L23.2813,-0.34375 L23.2813,-0.015625 L23.2188,0.0625 C22.5625,0.0208333 21.9323,0 21.3281,0 C20.7344,0 20.1094,0.0208333 19.4531,0.0625 L19.3906,-0.015625 L19.3906,-0.34375 L19.4531,-0.40625 C19.9635,-0.4375 20.25,-0.460938 20.3125,-0.476563 C20.375,-0.492188 20.4323,-0.523438 20.4844,-0.570313 C20.5365,-0.617188 20.5703,-0.692708 20.5859,-0.796875 C20.6016,-0.901042 20.6224,-1.23698 20.6484,-1.80469 C20.6745,-2.3724 20.6875,-2.80208 20.6875,-3.09375 L20.6875,-7.14063 L20.6563,-8.79688 C20.6354,-9.38021 20.6172,-9.78385 20.6016,-10.0078 C20.5859,-10.2318 20.5625,-10.3646 20.5313,-10.4063 C20.5,-10.4479 20.4453,-10.4792 20.3672,-10.5 C20.2891,-10.5208 19.974,-10.5313 19.4219,-10.5313 L19.3438,-10.5938 L19.3438,-10.9219 L19.4063,-11 C20.4063,-11.1146 21.2448,-11.3073 21.9219,-11.5781 M25.6563,-5.29688 L25.3594,-5.375 L25.2969,-5.45313 L25.2969,-6.42188 C26.224,-7.10938 27.125,-7.45313 28,-7.45313 C28.5938,-7.45313 29.0885,-7.34115 29.4844,-7.11719 C29.8802,-6.89323 30.1667,-6.61458 30.3438,-6.28125 C30.5208,-5.94792 30.6094,-5.55729 30.6094,-5.10938 L30.5781,-3.53125 L30.5781,-1.20313 C30.5781,-0.890625 30.599,-0.700521 30.6406,-0.632813 C30.6823,-0.565104 30.7318,-0.518229 30.7891,-0.492188 C30.8464,-0.466146 30.9531,-0.447917 31.1094,-0.4375 L31.5625,-0.390625 L31.625,-0.328125 L31.625,-0.015625 L31.5625,0.0625 C31.1771,0.03125 30.8229,0.015625 30.5,0.015625 C30.1875,0.015625 29.8125,0.03125 29.375,0.0625 L29.25,-0.0625 L29.2813,-1.3125 L27.5781,0.015625 C27.2969,0.140625 26.9844,0.203125 26.6406,0.203125 C26.224,0.203125 25.8672,0.125 25.5703,-0.03125 C25.2734,-0.1875 25.0443,-0.401042 24.8828,-0.671875 C24.7214,-0.942708 24.6406,-1.27083 24.6406,-1.65625 C24.6406,-2.41667 24.8802,-3.01302 25.3594,-3.44531 C25.8385,-3.8776 27.1458,-4.24479 29.2813,-4.54688 C29.2813,-5.31771 29.1094,-5.85938 28.7656,-6.17188 C28.4219,-6.48438 27.9635,-6.64063 27.3906,-6.64063 C27.0885,-6.64063 26.8125,-6.59635 26.5625,-6.50781 C26.3125,-6.41927 26.1693,-6.34896 26.1328,-6.29688 C26.0964,-6.24479 25.9583,-5.92708 25.7188,-5.34375 L25.6563,-5.29688 M29.2813,-4.0625 C27.8229,-3.82292 26.9141,-3.5625 26.5547,-3.28125 C26.1953,-3 26.0156,-2.5625 26.0156,-1.96875 C26.0156,-1.15625 26.4219,-0.75 27.2344,-0.75 C27.9219,-0.75 28.6042,-1.15104 29.2813,-1.95313 L29.2813,-4.0625 M32.3594,-6.14063 L32.3594,-6.34375 L32.4219,-6.42188 C32.9115,-6.59896 33.3073,-6.76563 33.6094,-6.92188 C33.6094,-8.28646 33.5938,-9.07813 33.5625,-9.29688 C34.0938,-9.48438 34.5313,-9.6875 34.875,-9.90625 L35.0625,-9.75 C35.0104,-9.41667 34.9479,-8.46354 34.875,-6.89063 C35.1354,-6.88021 35.4167,-6.875 35.7188,-6.875 C36.3333,-6.875 36.776,-6.89063 37.0469,-6.92188 L37.0938,-6.875 L36.9531,-6.21875 L36.8906,-6.14063 C36.6198,-6.15104 36.3229,-6.15625 36,-6.15625 C35.7083,-6.15625 35.3333,-6.15104 34.875,-6.14063 L34.8281,-2.96875 C34.8281,-2.22917 34.8464,-1.7474 34.8828,-1.52344 C34.9193,-1.29948 35.013,-1.1224 35.1641,-0.992188 C35.3151,-0.861979 35.5417,-0.796875 35.8438,-0.796875 C36.1979,-0.796875 36.5208,-0.890625 36.8125,-1.07813 L37,-0.796875 C36.875,-0.703125 36.5781,-0.442708 36.1094,-0.015625 C35.8385,0.119792 35.5625,0.1875 35.2813,0.1875 C34.1042,0.1875 33.5156,-0.385417 33.5156,-1.53125 C33.5156,-1.94792 33.526,-2.30208 33.5469,-2.59375 C33.5573,-2.67708 33.5625,-2.76563 33.5625,-2.85938 L33.5625,-6.10938 L33.2344,-6.10938 C33.0052,-6.10938 32.7396,-6.09896 32.4375,-6.07813 L32.3594,-6.14063 M39.25,-10.9375 C39.5,-10.9375 39.7109,-10.8516 39.8828,-10.6797 C40.0547,-10.5078 40.1406,-10.3021 40.1406,-10.0625 C40.1406,-9.82292 40.0547,-9.61719 39.8828,-9.44531 C39.7109,-9.27344 39.5,-9.1875 39.25,-9.1875 C39.0104,-9.1875 38.8047,-9.27083 38.6328,-9.4375 C38.4609,-9.60417 38.375,-9.8125 38.375,-10.0625 C38.375,-10.3021 38.4609,-10.5078 38.6328,-10.6797 C38.8047,-10.8516 39.0104,-10.9375 39.25,-10.9375 M39.9219,-7.45313 L40.0625,-7.34375 C40.0104,-6.66667 39.9844,-5.80208 39.9844,-4.75 L39.9844,-2.98438 C39.9844,-2.86979 39.9948,-2.5 40.0156,-1.875 C40.0365,-1.25 40.0573,-0.885417 40.0781,-0.78125 C40.099,-0.677083 40.1328,-0.601563 40.1797,-0.554688 C40.2266,-0.507813 40.2839,-0.479167 40.3516,-0.46875 C40.4193,-0.458333 40.7031,-0.4375 41.2031,-0.40625 L41.2656,-0.34375 L41.2656,-0.015625 L41.2031,0.0625 C40.5573,0.0208333 39.9323,0 39.3281,0 C38.724,0 38.099,0.0208333 37.4531,0.0625 L37.375,-0.015625 L37.375,-0.34375 L37.4531,-0.40625 C37.9531,-0.4375 38.237,-0.460938 38.3047,-0.476563 C38.3724,-0.492188 38.4297,-0.523438 38.4766,-0.570313 C38.5234,-0.617188 38.5573,-0.692708 38.5781,-0.796875 C38.599,-0.901042 38.6198,-1.23698 38.6406,-1.80469 C38.6615,-2.3724 38.6719,-2.80208 38.6719,-3.09375 L38.6719,-4.64063 C38.6719,-4.84896 38.6615,-5.13281 38.6406,-5.49219 C38.6198,-5.85156 38.6042,-6.07292 38.5938,-6.15625 C38.5833,-6.23958 38.5443,-6.29948 38.4766,-6.33594 C38.4089,-6.3724 38.2708,-6.39063 38.0625,-6.39063 L37.4063,-6.40625 L37.3438,-6.46875 L37.3438,-6.79688 L37.4063,-6.85938 C38.3958,-6.98438 39.2344,-7.18229 39.9219,-7.45313 M45.9844,0.140625 L45.5,-1.09375 L44.9219,-2.42188 L43.3281,-6.15625 C43.224,-6.39583 43.1302,-6.55469 43.0469,-6.63281 C42.9635,-6.71094 42.8802,-6.75781 42.7969,-6.77344 C42.7135,-6.78906 42.5469,-6.80208 42.2969,-6.8125 L42.2344,-6.875 L42.2344,-7.21875 L42.3125,-7.28125 C43.0417,-7.25 43.6198,-7.23438 44.0469,-7.23438 C44.651,-7.23438 45.2552,-7.25 45.8594,-7.28125 L45.9219,-7.21875 L45.9219,-6.875 L45.8594,-6.8125 C45.3177,-6.80208 45.0026,-6.76563 44.9141,-6.70313 C44.8255,-6.64063 44.7813,-6.5625 44.7813,-6.46875 C44.7813,-6.3125 44.8854,-5.97917 45.0938,-5.46875 L46.0469,-3.09375 L46.7969,-1.3125 L47.5781,-3.09375 L48.2344,-4.70313 C48.4844,-5.30729 48.6458,-5.73698 48.7188,-5.99219 C48.7917,-6.2474 48.8281,-6.41667 48.8281,-6.5 C48.8281,-6.60417 48.7708,-6.67708 48.6563,-6.71875 C48.5417,-6.76042 48.25,-6.79167 47.7813,-6.8125 L47.7188,-6.875 L47.7188,-7.21875 L47.7969,-7.28125 C48.4427,-7.25 48.9271,-7.23438 49.25,-7.23438 C49.5208,-7.23438 49.9844,-7.25 50.6406,-7.28125 L50.7031,-7.21875 L50.7031,-6.875 L50.6406,-6.8125 C50.3385,-6.79167 50.1354,-6.75 50.0313,-6.6875 C49.9271,-6.625 49.8281,-6.5026 49.7344,-6.32031 C49.6406,-6.13802 49.3646,-5.57813 48.9063,-4.64063 L48.1563,-3.04688 C48.0313,-2.77604 47.5781,-1.71354 46.7969,0.140625 L45.9844,0.140625 M57.9063,-1.15625 L57.6563,-0.59375 C57.1146,-0.239583 56.6328,-0.0104167 56.2109,0.09375 C55.7891,0.197917 55.4115,0.25 55.0781,0.25 C54.4531,0.25 53.8594,0.127604 53.2969,-0.117188 C52.7344,-0.361979 52.2786,-0.776042 51.9297,-1.35938 C51.5807,-1.94271 51.4063,-2.64583 51.4063,-3.46875 C51.4063,-4.02083 51.474,-4.51563 51.6094,-4.95313 C51.7448,-5.39063 51.8854,-5.71615 52.0313,-5.92969 C52.1771,-6.14323 52.4271,-6.38021 52.7813,-6.64063 C53.1354,-6.90104 53.5104,-7.10938 53.9063,-7.26563 C54.3021,-7.42188 54.7292,-7.5 55.1875,-7.5 C55.8125,-7.5 56.3646,-7.35417 56.8438,-7.0625 C57.3229,-6.77083 57.6589,-6.39583 57.8516,-5.9375 C58.0443,-5.47917 58.1406,-4.98958 58.1406,-4.46875 C58.1406,-4.3125 58.1302,-4.15625 58.1094,-4 L58.0313,-3.92188 C57.6771,-3.83854 57.2005,-3.78385 56.6016,-3.75781 C56.0026,-3.73177 55.6042,-3.71875 55.4063,-3.71875 L52.9063,-3.71875 C52.9167,-2.64583 53.1875,-1.85417 53.7188,-1.34375 C54.25,-0.833333 54.901,-0.578125 55.6719,-0.578125 C56.0365,-0.578125 56.3854,-0.640625 56.7188,-0.765625 C57.0521,-0.890625 57.4063,-1.0625 57.7813,-1.28125 L57.9063,-1.15625 M52.9063,-4.34375 C53,-4.33333 53.3594,-4.31771 53.9844,-4.29688 C54.6094,-4.27604 55.0729,-4.26563 55.375,-4.26563 C56.1042,-4.26563 56.5469,-4.27604 56.7031,-4.29688 C56.7031,-4.42188 56.7031,-4.52083 56.7031,-4.59375 C56.7031,-5.39583 56.5391,-5.99479 56.2109,-6.39063 C55.8828,-6.78646 55.4375,-6.98438 54.875,-6.98438 C54.25,-6.98438 53.7656,-6.76302 53.4219,-6.32031 C53.0781,-5.8776 52.9063,-5.21875 52.9063,-4.34375 M63.4688,-11.0469 C64.7917,-11.0052 65.5365,-10.9844 65.7031,-10.9844 C65.8698,-10.9844 66.6146,-11.0052 67.9375,-11.0469 L68,-10.9844 L68,-10.5938 L67.9375,-10.5469 C67.5833,-10.5365 67.3073,-10.5208 67.1094,-10.5 C66.9115,-10.4792 66.7682,-10.4401 66.6797,-10.3828 C66.5911,-10.3255 66.5339,-10.1901 66.5078,-9.97656 C66.4818,-9.76302 66.4688,-9.46875 66.4688,-9.09375 L66.4531,-7.29688 L66.4531,-6.20313 C67.5885,-6.17188 68.6667,-6.15625 69.6875,-6.15625 C71.0833,-6.15625 72.1458,-6.17188 72.875,-6.20313 L72.875,-7.29688 L72.8594,-8.82813 C72.8594,-9.42188 72.8464,-9.80469 72.8203,-9.97656 C72.7943,-10.1484 72.7578,-10.263 72.7109,-10.3203 C72.6641,-10.3776 72.5703,-10.4245 72.4297,-10.4609 C72.2891,-10.4974 71.9375,-10.526 71.375,-10.5469 L71.3281,-10.5938 L71.3281,-10.9844 L71.375,-11.0469 C72.7083,-11.0052 73.4583,-10.9844 73.625,-10.9844 C73.8021,-10.9844 74.5469,-11.0052 75.8594,-11.0469 L75.9219,-10.9844 L75.9219,-10.5938 L75.8594,-10.5469 C75.4948,-10.5365 75.2161,-10.5208 75.0234,-10.5 C74.8307,-10.4792 74.6901,-10.4401 74.6016,-10.3828 C74.513,-10.3255 74.4557,-10.1901 74.4297,-9.97656 C74.4036,-9.76302 74.3854,-9.46875 74.375,-9.09375 L74.3594,-7.29688 L74.3594,-3.6875 L74.375,-2.15625 C74.3854,-1.57292 74.4036,-1.19531 74.4297,-1.02344 C74.4557,-0.851563 74.4922,-0.736979 74.5391,-0.679688 C74.5859,-0.622396 74.6797,-0.572917 74.8203,-0.53125 C74.9609,-0.489583 75.3073,-0.458333 75.8594,-0.4375 L75.9219,-0.390625 L75.9219,0 L75.8594,0.0625 C74.526,0.0208333 73.7813,0 73.625,0 C73.4583,0 72.7083,0.0208333 71.375,0.0625 L71.3281,0 L71.3281,-0.390625 L71.375,-0.4375 C71.8646,-0.458333 72.1901,-0.484375 72.3516,-0.515625 C72.513,-0.546875 72.6198,-0.588542 72.6719,-0.640625 C72.724,-0.692708 72.7682,-0.799479 72.8047,-0.960938 C72.8411,-1.1224 72.8594,-1.47917 72.8594,-2.03125 L72.875,-3.6875 L72.875,-5.46875 C71.3333,-5.5 70.2552,-5.51563 69.6406,-5.51563 C69.0052,-5.51563 67.9427,-5.5 66.4531,-5.46875 L66.4531,-3.6875 L66.4531,-2.15625 C66.4635,-1.57292 66.4818,-1.19531 66.5078,-1.02344 C66.5339,-0.851563 66.5703,-0.736979 66.6172,-0.679688 C66.6641,-0.622396 66.7578,-0.572917 66.8984,-0.53125 C67.0391,-0.489583 67.3854,-0.458333 67.9375,-0.4375 L68,-0.390625 L68,0 L67.9375,0.0625 C66.6146,0.0208333 65.8698,0 65.7031,0 C65.5365,0 64.7917,0.0208333 63.4688,0.0625 L63.4063,0 L63.4063,-0.390625 L63.4688,-0.4375 C63.9479,-0.458333 64.2682,-0.484375 64.4297,-0.515625 C64.5911,-0.546875 64.7005,-0.588542 64.7578,-0.640625 C64.8151,-0.692708 64.8594,-0.799479 64.8906,-0.960938 C64.9219,-1.1224 64.9427,-1.47917 64.9531,-2.03125 L64.9531,-3.6875 L64.9531,-7.29688 L64.9375,-8.82813 C64.9375,-9.42188 64.9245,-9.80469 64.8984,-9.97656 C64.8724,-10.1484 64.8359,-10.263 64.7891,-10.3203 C64.7422,-10.3776 64.6484,-10.4245 64.5078,-10.4609 C64.3672,-10.4974 64.0208,-10.526 63.4688,-10.5469 L63.4063,-10.5938 L63.4063,-10.9844 L63.4688,-11.0469 M77.6563,-5.29688 L77.3594,-5.375 L77.2969,-5.45313 L77.2969,-6.42188 C78.224,-7.10938 79.125,-7.45313 80,-7.45313 C80.5938,-7.45313 81.0885,-7.34115 81.4844,-7.11719 C81.8802,-6.89323 82.1667,-6.61458 82.3438,-6.28125 C82.5208,-5.94792 82.6094,-5.55729 82.6094,-5.10938 L82.5781,-3.53125 L82.5781,-1.20313 C82.5781,-0.890625 82.599,-0.700521 82.6406,-0.632813 C82.6823,-0.565104 82.7318,-0.518229 82.7891,-0.492188 C82.8464,-0.466146 82.9531,-0.447917 83.1094,-0.4375 L83.5625,-0.390625 L83.625,-0.328125 L83.625,-0.015625 L83.5625,0.0625 C83.1771,0.03125 82.8229,0.015625 82.5,0.015625 C82.1875,0.015625 81.8125,0.03125 81.375,0.0625 L81.25,-0.0625 L81.2813,-1.3125 L79.5781,0.015625 C79.2969,0.140625 78.9844,0.203125 78.6406,0.203125 C78.224,0.203125 77.8672,0.125 77.5703,-0.03125 C77.2734,-0.1875 77.0443,-0.401042 76.8828,-0.671875 C76.7214,-0.942708 76.6406,-1.27083 76.6406,-1.65625 C76.6406,-2.41667 76.8802,-3.01302 77.3594,-3.44531 C77.8385,-3.8776 79.1458,-4.24479 81.2813,-4.54688 C81.2813,-5.31771 81.1094,-5.85938 80.7656,-6.17188 C80.4219,-6.48438 79.9635,-6.64063 79.3906,-6.64063 C79.0885,-6.64063 78.8125,-6.59635 78.5625,-6.50781 C78.3125,-6.41927 78.1693,-6.34896 78.1328,-6.29688 C78.0964,-6.24479 77.9583,-5.92708 77.7188,-5.34375 L77.6563,-5.29688 M81.2813,-4.0625 C79.8229,-3.82292 78.9141,-3.5625 78.5547,-3.28125 C78.1953,-3 78.0156,-2.5625 78.0156,-1.96875 C78.0156,-1.15625 78.4219,-0.75 79.2344,-0.75 C79.9219,-0.75 80.6042,-1.15104 81.2813,-1.95313 L81.2813,-4.0625 M81.6094,-9.09375 C81.3698,-9.09375 81.1667,-9.17708 81,-9.34375 C80.8333,-9.51042 80.75,-9.70833 80.75,-9.9375 C80.75,-10.1771 80.8333,-10.3802 81,-10.5469 C81.1667,-10.7135 81.3698,-10.7969 81.6094,-10.7969 C81.849,-10.7969 82.0495,-10.7135 82.2109,-10.5469 C82.3724,-10.3802 82.4531,-10.1771 82.4531,-9.9375 C82.4531,-9.70833 82.3698,-9.51042 82.2031,-9.34375 C82.0365,-9.17708 81.8385,-9.09375 81.6094,-9.09375 M78.2969,-9.09375 C78.0677,-9.09375 77.8698,-9.17708 77.7031,-9.34375 C77.5365,-9.51042 77.4531,-9.70833 77.4531,-9.9375 C77.4531,-10.1771 77.5365,-10.3802 77.7031,-10.5469 C77.8698,-10.7135 78.0677,-10.7969 78.2969,-10.7969 C78.5365,-10.7969 78.7396,-10.7135 78.9063,-10.5469 C79.0729,-10.3802 79.1563,-10.1771 79.1563,-9.9375 C79.1563,-9.70833 79.0729,-9.51042 78.9063,-9.34375 C78.7396,-9.17708 78.5365,-9.09375 78.2969,-9.09375 M86.7031,-7.45313 L86.8594,-7.34375 C86.7969,-6.66667 86.7656,-5.80208 86.7656,-4.75 L86.7656,-2.92188 C86.7656,-2.25521 86.8177,-1.79167 86.9219,-1.53125 C87.026,-1.27083 87.2031,-1.07292 87.4531,-0.9375 C87.7031,-0.802083 88,-0.734375 88.3438,-0.734375 C88.7188,-0.734375 89.0625,-0.807292 89.375,-0.953125 C89.6875,-1.09896 89.9505,-1.30729 90.1641,-1.57813 C90.3776,-1.84896 90.5,-2.03125 90.5313,-2.125 C90.5625,-2.21875 90.5833,-2.48438 90.5938,-2.92188 L90.6094,-3.79688 L90.6094,-4.64063 C90.6094,-4.84896 90.599,-5.13281 90.5781,-5.49219 C90.5573,-5.85156 90.5417,-6.07292 90.5313,-6.15625 C90.5208,-6.23958 90.4818,-6.29948 90.4141,-6.33594 C90.3464,-6.3724 90.2083,-6.39063 90,-6.39063 L89.3438,-6.40625 L89.2813,-6.46875 L89.2813,-6.79688 L89.3438,-6.85938 C90.3333,-6.98438 91.1719,-7.18229 91.8594,-7.45313 L92,-7.34375 C91.9479,-6.66667 91.9219,-5.80208 91.9219,-4.75 L91.9219,-3.375 C91.9219,-3.29167 91.9323,-2.65104 91.9531,-1.45313 C91.9635,-1.01563 91.9922,-0.747396 92.0391,-0.648438 C92.0859,-0.549479 92.1484,-0.481771 92.2266,-0.445313 C92.3047,-0.408854 92.5365,-0.390625 92.9219,-0.390625 L93.1406,-0.390625 L93.2031,-0.328125 L93.2031,-0.015625 L93.1406,0.0625 C92.4115,0.0208333 91.9219,0 91.6719,0 C91.349,0 90.9792,0.0208333 90.5625,0.0625 L90.5,-0.015625 C90.5313,-0.546875 90.5521,-0.994792 90.5625,-1.35938 C90.2396,-1.10938 89.8646,-0.770833 89.4375,-0.34375 C89.2813,-0.177083 89.0521,-0.0390625 88.75,0.0703125 C88.4479,0.179688 88.1042,0.234375 87.7188,0.234375 C87.1354,0.234375 86.6797,0.140625 86.3516,-0.046875 C86.0234,-0.234375 85.7917,-0.489583 85.6563,-0.8125 C85.5208,-1.13542 85.4531,-1.69792 85.4531,-2.5 L85.4688,-3.10938 L85.4688,-4.64063 C85.4688,-4.84896 85.4583,-5.13281 85.4375,-5.49219 C85.4167,-5.85156 85.3984,-6.07292 85.3828,-6.15625 C85.3672,-6.23958 85.3255,-6.29948 85.2578,-6.33594 C85.1901,-6.3724 85.0573,-6.39063 84.8594,-6.39063 L84.2031,-6.40625 L84.125,-6.46875 L84.125,-6.79688 L84.1875,-6.85938 C85.1875,-6.98438 86.026,-7.18229 86.7031,-7.45313 M96.9844,-6.92188 L98.9219,-6.92188 C99.5781,-6.92188 100.109,-6.95833 100.516,-7.03125 C100.922,-7.10417 101.396,-7.24479 101.938,-7.45313 L102.078,-7.34375 C102.026,-6.66667 102,-5.80208 102,-4.75 L102,-2.98438 C102,-2.86979 102.01,-2.5 102.031,-1.875 C102.052,-1.25 102.076,-0.885417 102.102,-0.78125 C102.128,-0.677083 102.164,-0.601563 102.211,-0.554688 C102.258,-0.507813 102.315,-0.479167 102.383,-0.46875 C102.451,-0.458333 102.729,-0.4375 103.219,-0.40625 L103.297,-0.34375 L103.297,-0.015625 L103.219,0.0625 C102.573,0.0208333 101.948,0 101.344,0 C100.781,0 100.156,0.0208333 99.4688,0.0625 L99.4063,-0.015625 L99.4063,-0.34375 L99.4688,-0.40625 C99.9688,-0.4375 100.253,-0.460938 100.32,-0.476563 C100.388,-0.492188 100.448,-0.523438 100.5,-0.570313 C100.552,-0.617188 100.586,-0.692708 100.602,-0.796875 C100.617,-0.901042 100.635,-1.23698 100.656,-1.80469 C100.677,-2.3724 100.688,-2.80208 100.688,-3.09375 L100.688,-4.64063 C100.688,-4.84896 100.677,-5.16146 100.656,-5.57813 C100.635,-5.99479 100.609,-6.22135 100.578,-6.25781 C100.547,-6.29427 100.505,-6.32813 100.453,-6.35938 C100.401,-6.39063 100.177,-6.40625 99.7813,-6.40625 L99.0313,-6.39063 L98.9844,-6.17188 L98.9063,-6.125 L96.9844,-6.125 L96.9844,-2.98438 C96.9844,-2.81771 96.9948,-2.4349 97.0156,-1.83594 C97.0365,-1.23698 97.0573,-0.885417 97.0781,-0.78125 C97.099,-0.677083 97.1354,-0.601563 97.1875,-0.554688 C97.2396,-0.507813 97.3203,-0.473958 97.4297,-0.453125 C97.5391,-0.432292 97.8333,-0.416667 98.3125,-0.40625 L98.375,-0.34375 L98.375,-0.015625 L98.3125,0.0625 C98.1354,0.0625 97.8958,0.0520833 97.5938,0.03125 C97.1875,0.0104167 96.7656,0 96.3281,0 C95.7656,0 95.1406,0.0208333 94.4531,0.0625 L94.3906,-0.015625 L94.3906,-0.34375 L94.4531,-0.40625 C94.9531,-0.4375 95.237,-0.460938 95.3047,-0.476563 C95.3724,-0.492188 95.4297,-0.523438 95.4766,-0.570313 C95.5234,-0.617188 95.5573,-0.692708 95.5781,-0.796875 C95.599,-0.901042 95.6198,-1.23698 95.6406,-1.80469 C95.6615,-2.3724 95.6719,-2.80208 95.6719,-3.09375 L95.6719,-6.10938 L94.6719,-6.0625 L94.5938,-6.125 L94.5938,-6.3125 L94.6563,-6.39063 L95.6719,-6.92188 L95.6719,-7.39063 C95.6719,-7.91146 95.6953,-8.30469 95.7422,-8.57031 C95.7891,-8.83594 95.8776,-9.08333 96.0078,-9.3125 C96.138,-9.54167 96.362,-9.82813 96.6797,-10.1719 C96.9974,-10.5156 97.276,-10.7995 97.5156,-11.0234 C97.7552,-11.2474 97.9635,-11.3958 98.1406,-11.4688 C98.3177,-11.5417 98.526,-11.5781 98.7656,-11.5781 C98.9635,-11.5781 99.1771,-11.5417 99.4063,-11.4688 L99.3906,-10.1875 L99.2188,-10.1094 C98.9271,-10.3698 98.5885,-10.5 98.2031,-10.5 C97.9323,-10.5 97.6979,-10.4453 97.5,-10.3359 C97.3021,-10.2266 97.1667,-10.0443 97.0938,-9.78906 C97.0208,-9.53385 96.9844,-9.11458 96.9844,-8.53125 L96.9844,-6.92188 M101.281,-10.9375 C101.521,-10.9375 101.727,-10.8542 101.898,-10.6875 C102.07,-10.5208 102.156,-10.3125 102.156,-10.0625 C102.156,-9.82292 102.07,-9.61719 101.898,-9.44531 C101.727,-9.27344 101.521,-9.1875 101.281,-9.1875 C101.031,-9.1875 100.82,-9.27083 100.648,-9.4375 C100.477,-9.60417 100.391,-9.8125 100.391,-10.0625 C100.391,-10.3021 100.479,-10.5078 100.656,-10.6797 C100.833,-10.8516 101.042,-10.9375 101.281,-10.9375 M112.625,-6.90625 L112.688,-6.76563 C112.469,-6.44271 112.333,-6.22917 112.281,-6.125 L110.828,-6.125 C110.974,-5.84375 111.047,-5.54688 111.047,-5.23438 C111.047,-4.85938 110.964,-4.4974 110.797,-4.14844 C110.63,-3.79948 110.396,-3.5026 110.094,-3.25781 C109.792,-3.01302 109.448,-2.81771 109.063,-2.67188 C108.677,-2.52604 108.24,-2.45313 107.75,-2.45313 L107.391,-2.45313 C107.089,-2.21354 106.893,-2.03385 106.805,-1.91406 C106.716,-1.79427 106.672,-1.67188 106.672,-1.54688 C106.672,-1.31771 106.776,-1.15625 106.984,-1.0625 C107.193,-0.96875 107.63,-0.921875 108.297,-0.921875 L110.047,-0.9375 C110.599,-0.9375 111.021,-0.872396 111.313,-0.742188 C111.604,-0.611979 111.841,-0.377604 112.023,-0.0390625 C112.206,0.299479 112.297,0.65625 112.297,1.03125 C112.297,1.60417 112.112,2.17448 111.742,2.74219 C111.372,3.3099 110.836,3.74219 110.133,4.03906 C109.43,4.33594 108.677,4.48438 107.875,4.48438 C107.427,4.48438 107.003,4.4349 106.602,4.33594 C106.201,4.23698 105.852,4.08854 105.555,3.89063 C105.258,3.69271 105.018,3.43229 104.836,3.10938 C104.654,2.78646 104.563,2.44792 104.563,2.09375 C104.563,1.90625 104.591,1.70573 104.648,1.49219 C104.706,1.27865 104.813,1.05208 104.969,0.8125 L106.391,0.015625 C105.932,-0.130208 105.646,-0.270833 105.531,-0.40625 C105.417,-0.541667 105.359,-0.708333 105.359,-0.90625 C105.359,-1.10417 105.422,-1.33854 105.547,-1.60938 L106.813,-2.51563 C106.073,-2.70313 105.573,-2.98958 105.313,-3.375 C105.052,-3.76042 104.922,-4.18229 104.922,-4.64063 C104.922,-5.06771 105.013,-5.47135 105.195,-5.85156 C105.378,-6.23177 105.654,-6.53646 106.023,-6.76563 C106.393,-6.99479 106.805,-7.17708 107.258,-7.3125 C107.711,-7.44792 108.125,-7.51563 108.5,-7.51563 C109.156,-7.51563 109.776,-7.30208 110.359,-6.875 C111.307,-6.875 112.063,-6.88542 112.625,-6.90625 M106.266,-5.09375 C106.266,-4.78125 106.328,-4.44271 106.453,-4.07813 C106.578,-3.71354 106.781,-3.4375 107.063,-3.25 C107.344,-3.0625 107.656,-2.96875 108,-2.96875 C108.469,-2.96875 108.87,-3.11979 109.203,-3.42188 C109.536,-3.72396 109.703,-4.19271 109.703,-4.82813 C109.703,-5.36979 109.549,-5.85677 109.242,-6.28906 C108.935,-6.72135 108.5,-6.9375 107.938,-6.9375 C107.469,-6.9375 107.073,-6.78385 106.75,-6.47656 C106.427,-6.16927 106.266,-5.70833 106.266,-5.09375 M108.563,0.15625 C107.719,0.15625 107.234,0.166667 107.109,0.1875 C106.984,0.208333 106.805,0.296875 106.57,0.453125 C106.336,0.609375 106.143,0.820313 105.992,1.08594 C105.841,1.35156 105.766,1.65104 105.766,1.98438 C105.766,2.57813 105.984,3.0599 106.422,3.42969 C106.859,3.79948 107.443,3.98438 108.172,3.98438 C108.724,3.98438 109.232,3.86979 109.695,3.64063 C110.159,3.41146 110.5,3.10417 110.719,2.71875 C110.938,2.33333 111.047,1.96354 111.047,1.60938 C111.047,1.25521 110.956,0.950521 110.773,0.695313 C110.591,0.440104 110.352,0.286458 110.055,0.234375 C109.758,0.182292 109.26,0.15625 108.563,0.15625 M115.844,-11.5781 L116,-11.4844 C115.938,-10.8802 115.906,-9.67708 115.906,-7.875 L115.906,-4.21875 C116.083,-4.32292 116.432,-4.58333 116.953,-5 C117.474,-5.41667 118.026,-5.89583 118.609,-6.4375 C119.193,-6.97917 119.49,-7.27083 119.5,-7.3125 C119.948,-7.30208 120.214,-7.29688 120.297,-7.29688 C120.422,-7.29688 120.667,-7.30208 121.031,-7.3125 L121.094,-7.25 L121.094,-6.9375 L121.031,-6.875 C120.771,-6.85417 120.573,-6.81771 120.438,-6.76563 C120.302,-6.71354 120.021,-6.54167 119.594,-6.25 C119.167,-5.95833 118.667,-5.57813 118.094,-5.10938 L117.328,-4.48438 C117.609,-4.16146 118.094,-3.65625 118.781,-2.96875 C119.469,-2.28125 120.026,-1.7474 120.453,-1.36719 C120.88,-0.986979 121.159,-0.768229 121.289,-0.710938 C121.419,-0.653646 121.557,-0.625 121.703,-0.625 L121.703,-0.296875 C121.516,-0.255208 121.021,-0.09375 120.219,0.1875 C119.677,-0.28125 119.333,-0.59375 119.188,-0.75 L118.609,-1.34375 L117.922,-2.03125 C117.703,-2.25 117.417,-2.52083 117.063,-2.84375 L115.906,-3.90625 L115.906,-2.98438 C115.906,-2.86979 115.917,-2.5 115.938,-1.875 C115.958,-1.25 115.982,-0.885417 116.008,-0.78125 C116.034,-0.677083 116.07,-0.601563 116.117,-0.554688 C116.164,-0.507813 116.221,-0.479167 116.289,-0.46875 C116.357,-0.458333 116.635,-0.4375 117.125,-0.40625 L117.203,-0.34375 L117.203,-0.015625 L117.141,0.0625 C116.484,0.0208333 115.854,0 115.25,0 C114.656,0 114.031,0.0208333 113.375,0.0625 L113.313,-0.015625 L113.313,-0.34375 L113.375,-0.40625 C113.885,-0.4375 114.172,-0.460938 114.234,-0.476563 C114.297,-0.492188 114.354,-0.523438 114.406,-0.570313 C114.458,-0.617188 114.492,-0.692708 114.508,-0.796875 C114.523,-0.901042 114.544,-1.23698 114.57,-1.80469 C114.596,-2.3724 114.609,-2.80208 114.609,-3.09375 L114.609,-7.14063 L114.578,-8.79688 C114.557,-9.38021 114.539,-9.78385 114.523,-10.0078 C114.508,-10.2318 114.484,-10.3646 114.453,-10.4063 C114.422,-10.4479 114.367,-10.4792 114.289,-10.5 C114.211,-10.5208 113.896,-10.5313 113.344,-10.5313 L113.266,-10.5938 L113.266,-10.9219 L113.328,-11 C114.328,-11.1146 115.167,-11.3073 115.844,-11.5781 M128.906,-1.15625 L128.656,-0.59375 C128.115,-0.239583 127.633,-0.0104167 127.211,0.09375 C126.789,0.197917 126.411,0.25 126.078,0.25 C125.453,0.25 124.859,0.127604 124.297,-0.117188 C123.734,-0.361979 123.279,-0.776042 122.93,-1.35938 C122.581,-1.94271 122.406,-2.64583 122.406,-3.46875 C122.406,-4.02083 122.474,-4.51563 122.609,-4.95313 C122.745,-5.39063 122.885,-5.71615 123.031,-5.92969 C123.177,-6.14323 123.427,-6.38021 123.781,-6.64063 C124.135,-6.90104 124.51,-7.10938 124.906,-7.26563 C125.302,-7.42188 125.729,-7.5 126.188,-7.5 C126.813,-7.5 127.365,-7.35417 127.844,-7.0625 C128.323,-6.77083 128.659,-6.39583 128.852,-5.9375 C129.044,-5.47917 129.141,-4.98958 129.141,-4.46875 C129.141,-4.3125 129.13,-4.15625 129.109,-4 L129.031,-3.92188 C128.677,-3.83854 128.201,-3.78385 127.602,-3.75781 C127.003,-3.73177 126.604,-3.71875 126.406,-3.71875 L123.906,-3.71875 C123.917,-2.64583 124.188,-1.85417 124.719,-1.34375 C125.25,-0.833333 125.901,-0.578125 126.672,-0.578125 C127.036,-0.578125 127.385,-0.640625 127.719,-0.765625 C128.052,-0.890625 128.406,-1.0625 128.781,-1.28125 L128.906,-1.15625 M123.906,-4.34375 C124,-4.33333 124.359,-4.31771 124.984,-4.29688 C125.609,-4.27604 126.073,-4.26563 126.375,-4.26563 C127.104,-4.26563 127.547,-4.27604 127.703,-4.29688 C127.703,-4.42188 127.703,-4.52083 127.703,-4.59375 C127.703,-5.39583 127.539,-5.99479 127.211,-6.39063 C126.883,-6.78646 126.438,-6.98438 125.875,-6.98438 C125.25,-6.98438 124.766,-6.76302 124.422,-6.32031 C124.078,-5.8776 123.906,-5.21875 123.906,-4.34375 M132.25,-10.9375 C132.5,-10.9375 132.711,-10.8516 132.883,-10.6797 C133.055,-10.5078 133.141,-10.3021 133.141,-10.0625 C133.141,-9.82292 133.055,-9.61719 132.883,-9.44531 C132.711,-9.27344 132.5,-9.1875 132.25,-9.1875 C132.01,-9.1875 131.805,-9.27083 131.633,-9.4375 C131.461,-9.60417 131.375,-9.8125 131.375,-10.0625 C131.375,-10.3021 131.461,-10.5078 131.633,-10.6797 C131.805,-10.8516 132.01,-10.9375 132.25,-10.9375 M132.922,-7.45313 L133.063,-7.34375 C133.01,-6.66667 132.984,-5.80208 132.984,-4.75 L132.984,-2.98438 C132.984,-2.86979 132.995,-2.5 133.016,-1.875 C133.036,-1.25 133.057,-0.885417 133.078,-0.78125 C133.099,-0.677083 133.133,-0.601563 133.18,-0.554688 C133.227,-0.507813 133.284,-0.479167 133.352,-0.46875 C133.419,-0.458333 133.703,-0.4375 134.203,-0.40625 L134.266,-0.34375 L134.266,-0.015625 L134.203,0.0625 C133.557,0.0208333 132.932,0 132.328,0 C131.724,0 131.099,0.0208333 130.453,0.0625 L130.375,-0.015625 L130.375,-0.34375 L130.453,-0.40625 C130.953,-0.4375 131.237,-0.460938 131.305,-0.476563 C131.372,-0.492188 131.43,-0.523438 131.477,-0.570313 C131.523,-0.617188 131.557,-0.692708 131.578,-0.796875 C131.599,-0.901042 131.62,-1.23698 131.641,-1.80469 C131.661,-2.3724 131.672,-2.80208 131.672,-3.09375 L131.672,-4.64063 C131.672,-4.84896 131.661,-5.13281 131.641,-5.49219 C131.62,-5.85156 131.604,-6.07292 131.594,-6.15625 C131.583,-6.23958 131.544,-6.29948 131.477,-6.33594 C131.409,-6.3724 131.271,-6.39063 131.063,-6.39063 L130.406,-6.40625 L130.344,-6.46875 L130.344,-6.79688 L130.406,-6.85938 C131.396,-6.98438 132.234,-7.18229 132.922,-7.45313 M135.359,-6.14063 L135.359,-6.34375 L135.422,-6.42188 C135.911,-6.59896 136.307,-6.76563 136.609,-6.92188 C136.609,-8.28646 136.594,-9.07813 136.563,-9.29688 C137.094,-9.48438 137.531,-9.6875 137.875,-9.90625 L138.063,-9.75 C138.01,-9.41667 137.948,-8.46354 137.875,-6.89063 C138.135,-6.88021 138.417,-6.875 138.719,-6.875 C139.333,-6.875 139.776,-6.89063 140.047,-6.92188 L140.094,-6.875 L139.953,-6.21875 L139.891,-6.14063 C139.62,-6.15104 139.323,-6.15625 139,-6.15625 C138.708,-6.15625 138.333,-6.15104 137.875,-6.14063 L137.828,-2.96875 C137.828,-2.22917 137.846,-1.7474 137.883,-1.52344 C137.919,-1.29948 138.013,-1.1224 138.164,-0.992188 C138.315,-0.861979 138.542,-0.796875 138.844,-0.796875 C139.198,-0.796875 139.521,-0.890625 139.813,-1.07813 L140,-0.796875 C139.875,-0.703125 139.578,-0.442708 139.109,-0.015625 C138.839,0.119792 138.563,0.1875 138.281,0.1875 C137.104,0.1875 136.516,-0.385417 136.516,-1.53125 C136.516,-1.94792 136.526,-2.30208 136.547,-2.59375 C136.557,-2.67708 136.563,-2.76563 136.563,-2.85938 L136.563,-6.10938 L136.234,-6.10938 C136.005,-6.10938 135.74,-6.09896 135.438,-6.07813 L135.359,-6.14063"/>
</g>

<g fill="#212121" fill-opacity="1" stroke="#212121" stroke-opacity="1" stroke-width="1.06667" stroke-linecap="square" stroke-linejoin="round" transform="matrix(0.75,0,0,0.75,-21.4875,-7.13996)"
font-family="MS Shell Dlg 2" font-size="8.25" font-weight="400" font-style="normal" 
>
<polyline fill="none" vector-effect="none" points="79,183 79,17 " />
<polyline fill="none" vector-effect="none" points="548,183 548,17 " />
<polyline fill="none" vector-effect="none" points="79,183 83.69,183 " />
<polyline fill="none" vector-effect="none" points="543.31,183 548,183 " />
<polyline fill="none" vector-effect="none" points="79,100 83.69,100 " />
<polyline fill="none" vector-effect="none" points="543.31,100 548,100 " />
<polyline fill="none" vector-effect="none" points="79,17 83.69,17 " />
<polyline fill="none" vector-effect="none" points="543.31,17 548,17 " />
</g>

<g fill="#212121" fill-opacity="1" stroke="none" transform="matrix(0.75,0,0,0.75,28.0625,132.75)"
font-family="MS Shell Dlg 2" font-size="8.25" font-weight="400" font-style="normal" 
>
<path vector-effect="none" fill-rule="evenodd" d="M3.5,0.3125 C2.35417,0.3125 1.57552,-0.158854 1.16406,-1.10156 C0.752604,-2.04427 0.546875,-3.16667 0.546875,-4.46875 C0.546875,-5.28125 0.619792,-6.04427 0.765625,-6.75781 C0.911458,-7.47135 1.20573,-8.07813 1.64844,-8.57813 C2.09115,-9.07813 2.70833,-9.32813 3.5,-9.32813 C4.11458,-9.32813 4.61719,-9.17708 5.00781,-8.875 C5.39844,-8.57292 5.69792,-8.1849 5.90625,-7.71094 C6.11458,-7.23698 6.25521,-6.72656 6.32813,-6.17969 C6.40104,-5.63281 6.4375,-5.0625 6.4375,-4.46875 C6.4375,-3.66667 6.36458,-2.91406 6.21875,-2.21094 C6.07292,-1.50781 5.78385,-0.911458 5.35156,-0.421875 C4.91927,0.0677083 4.30208,0.3125 3.5,0.3125 M3.5,-0.0625 C4.02083,-0.0625 4.40885,-0.328125 4.66406,-0.859375 C4.91927,-1.39063 5.07552,-1.97917 5.13281,-2.625 C5.1901,-3.27083 5.21875,-3.95833 5.21875,-4.6875 C5.21875,-5.39583 5.1901,-6.04427 5.13281,-6.63281 C5.07552,-7.22135 4.91927,-7.75781 4.66406,-8.24219 C4.40885,-8.72656 4.02083,-8.96875 3.5,-8.96875 C2.96875,-8.96875 2.57552,-8.72656 2.32031,-8.24219 C2.0651,-7.75781 1.90885,-7.22135 1.85156,-6.63281 C1.79427,-6.04427 1.76563,-5.39583 1.76563,-4.6875 C1.76563,-4.16667 1.77865,-3.67708 1.80469,-3.21875 C1.83073,-2.76042 1.89844,-2.28646 2.00781,-1.79688 C2.11719,-1.30729 2.29427,-0.895833 2.53906,-0.5625 C2.78385,-0.229167 3.10417,-0.0625 3.5,-0.0625 "/>
</g>

<g fill="#212121" fill-opacity="1" stroke="none" transform="matrix(0.75,0,0,0.75,19.5069,70.5)"
font-family="MS Shell Dlg 2" font-size="8.25" font-weight="400" font-style="normal" 
>
<path vector-effect="none" fill-rule="evenodd" d="M3.5,0.3125 C2.35417,0.3125 1.57552,-0.158854 1.16406,-1.10156 C0.752604,-2.04427 0.546875,-3.16667 0.546875,-4.46875 C0.546875,-5.28125 0.619792,-6.04427 0.765625,-6.75781 C0.911458,-7.47135 1.20573,-8.07813 1.64844,-8.57813 C2.09115,-9.07813 2.70833,-9.32813 3.5,-9.32813 C4.11458,-9.32813 4.61719,-9.17708 5.00781,-8.875 C5.39844,-8.57292 5.69792,-8.1849 5.90625,-7.71094 C6.11458,-7.23698 6.25521,-6.72656 6.32813,-6.17969 C6.40104,-5.63281 6.4375,-5.0625 6.4375,-4.46875 C6.4375,-3.66667 6.36458,-2.91406 6.21875,-2.21094 C6.07292,-1.50781 5.78385,-0.911458 5.35156,-0.421875 C4.91927,0.0677083 4.30208,0.3125 3.5,0.3125 M3.5,-0.0625 C4.02083,-0.0625 4.40885,-0.328125 4.66406,-0.859375 C4.91927,-1.39063 5.07552,-1.97917 5.13281,-2.625 C5.1901,-3.27083 5.21875,-3.95833 5.21875,-4.6875 C5.21875,-5.39583 5.1901,-6.04427 5.13281,-6.63281 C5.07552,-7.22135 4.91927,-7.75781 4.66406,-8.24219 C4.40885,-8.72656 4.02083,-8.96875 3.5,-8.96875 C2.96875,-8.96875 2.57552,-8.72656 2.32031,-8.24219 C2.0651,-7.75781 1.90885,-7.22135 1.85156,-6.63281 C1.79427,-6.04427 1.76563,-5.39583 1.76563,-4.6875 C1.76563,-4.16667 1.77865,-3.67708 1.80469,-3.21875 C1.83073,-2.76042 1.89844,-2.28646 2.00781,-1.79688 C2.11719,-1.30729 2.29427,-0.895833 2.53906,-0.5625 C2.78385,-0.229167 3.10417,-0.0625 3.5,-0.0625 "/>
</g>

<g fill="#212121" fill-opacity="1" stroke="none" transform="matrix(0.75,0,0,0.75,25.0069,70.5)"
font-family="MS Shell Dlg 2" font-size="8.25" font-weight="400" font-style="normal" 
>
<path vector-effect="none" fill-rule="evenodd" d="M1.17188,-0.765625 C1.17188,-0.984375 1.25,-1.16667 1.40625,-1.3125 C1.5625,-1.45833 1.74479,-1.53125 1.95313,-1.53125 C2.07813,-1.53125 2.20313,-1.4974 2.32813,-1.42969 C2.45313,-1.36198 2.54948,-1.26823 2.61719,-1.14844 C2.6849,-1.02865 2.71875,-0.901042 2.71875,-0.765625 C2.71875,-0.567708 2.64323,-0.390625 2.49219,-0.234375 C2.34115,-0.078125 2.16146,0 1.95313,0 C1.74479,0 1.5625,-0.078125 1.40625,-0.234375 C1.25,-0.390625 1.17188,-0.567708 1.17188,-0.765625 "/>
</g>

<g fill="#212121" fill-opacity="1" stroke="none" transform="matrix(0.75,0,0,0.75,28.0625,70.5)"
font-family="MS Shell Dlg 2" font-size="8.25" font-weight="400" font-style="normal" 
>
<path vector-effect="none" fill-rule="evenodd" d="M1.21875,-1.59375 C1.3125,-1.32292 1.45833,-1.07552 1.65625,-0.851563 C1.85417,-0.627604 2.08854,-0.453125 2.35938,-0.328125 C2.63021,-0.203125 2.91146,-0.140625 3.20313,-0.140625 C3.88021,-0.140625 4.34635,-0.403646 4.60156,-0.929688 C4.85677,-1.45573 4.98438,-2.08854 4.98438,-2.82813 C4.98438,-3.15104 4.97917,-3.42448 4.96875,-3.64844 C4.95833,-3.8724 4.92708,-4.08333 4.875,-4.28125 C4.79167,-4.61458 4.64063,-4.90365 4.42188,-5.14844 C4.20313,-5.39323 3.9375,-5.51563 3.625,-5.51563 C3.3125,-5.51563 3.04167,-5.46875 2.8125,-5.375 C2.58333,-5.28125 2.39844,-5.16927 2.25781,-5.03906 C2.11719,-4.90885 1.99219,-4.77344 1.88281,-4.63281 C1.77344,-4.49219 1.70833,-4.41667 1.6875,-4.40625 L1.53125,-4.40625 C1.5,-4.40625 1.46875,-4.42188 1.4375,-4.45313 C1.40625,-4.48438 1.39063,-4.51563 1.39063,-4.54688 L1.39063,-9.21875 C1.39063,-9.23958 1.40625,-9.26302 1.4375,-9.28906 C1.46875,-9.3151 1.5,-9.32813 1.53125,-9.32813 L1.5625,-9.32813 C2.19792,-9.02604 2.86458,-8.875 3.5625,-8.875 C4.26042,-8.875 4.93229,-9.02604 5.57813,-9.32813 L5.60938,-9.32813 C5.64063,-9.32813 5.67188,-9.3151 5.70313,-9.28906 C5.73438,-9.26302 5.75,-9.23958 5.75,-9.21875 L5.75,-9.07813 C5.75,-9.03646 5.73958,-9.01563 5.71875,-9.01563 C5.39583,-8.58854 4.99479,-8.25781 4.51563,-8.02344 C4.03646,-7.78906 3.53646,-7.67188 3.01563,-7.67188 C2.65104,-7.67188 2.27083,-7.72396 1.875,-7.82813 L1.875,-5.1875 C2.1875,-5.4375 2.46354,-5.61458 2.70313,-5.71875 C2.94271,-5.82292 3.25521,-5.875 3.64063,-5.875 C4.15104,-5.875 4.61198,-5.72656 5.02344,-5.42969 C5.4349,-5.13281 5.75,-4.7474 5.96875,-4.27344 C6.1875,-3.79948 6.29688,-3.3125 6.29688,-2.8125 C6.29688,-2.25 6.15885,-1.73177 5.88281,-1.25781 C5.60677,-0.783854 5.23177,-0.403646 4.75781,-0.117188 C4.28385,0.169271 3.76563,0.3125 3.20313,0.3125 C2.74479,0.3125 2.32292,0.192708 1.9375,-0.046875 C1.55208,-0.286458 1.25,-0.606771 1.03125,-1.00781 C0.8125,-1.40885 0.703125,-1.83333 0.703125,-2.28125 C0.703125,-2.48958 0.770833,-2.66146 0.90625,-2.79688 C1.04167,-2.93229 1.21354,-3 1.42188,-3 C1.61979,-3 1.78906,-2.93229 1.92969,-2.79688 C2.07031,-2.66146 2.14063,-2.48958 2.14063,-2.28125 C2.14063,-2.08333 2.07031,-1.91667 1.92969,-1.78125 C1.78906,-1.64583 1.61979,-1.57813 1.42188,-1.57813 C1.39063,-1.57813 1.35417,-1.58073 1.3125,-1.58594 C1.27083,-1.59115 1.23958,-1.59375 1.21875,-1.59375 "/>
</g>

<g fill="#212121" fill-opacity="1" stroke="none" transform="matrix(0.75,0,0,0.75,28.0625,8.25)"
font-family="MS Shell Dlg 2" font-size="8.25" font-weight="400" font-style="normal" 
>
<path vector-effect="none" fill-rule="evenodd" d="M1.29688,0 L1.29688,-0.5 C2.46354,-0.5 3.04688,-0.645833 3.04688,-0.9375 L3.04688,-8.28125 C2.56771,-8.05208 1.95833,-7.9375 1.21875,-7.9375 L1.21875,-8.42188 C2.36458,-8.42188 3.22917,-8.72396 3.8125,-9.32813 L4,-9.32813 C4.03125,-9.32813 4.0625,-9.3151 4.09375,-9.28906 C4.125,-9.26302 4.14063,-9.23438 4.14063,-9.20313 L4.14063,-0.9375 C4.14063,-0.645833 4.72396,-0.5 5.89063,-0.5 L5.89063,0 L1.29688,0"/>
</g>

<g fill="none" stroke="#000000" stroke-opacity="1" stroke-width="2" stroke-linecap="butt" stroke-linejoin="miter" stroke-miterlimit="2" transform="matrix(0.75,0,0,0.75,-21.4875,-7.13996)"
font-family="MS Shell Dlg 2" font-size="8.25" font-weight="400" font-style="normal" 
>
<polyline fill="none" vector-effect="none" points="79,17 91.0256,17 91.0256,183 103.051,183 103.051,183 115.077,183 115.077,183 127.103,183 127.103,183 139.128,183 139.128,183 151.154,183 151.154,183 163.179,183 163.179,183 175.205,183 175.205,183 187.231,183 187.231,183 199.256,183 199.256,183 211.282,183 211.282,183 223.308,183 223.308,183 235.333,183 235.333,183 247.359,183 247.359,183 259.385,183 259.385,183 271.41,183 271.41,183 283.436,183 283.436,183 295.462,183 295.462,183 307.487,183 307.487,183 319.513,183 319.513,183 331.538,183 331.538,183 343.564,183 343.564,183 355.59,183 355.59,183 367.615,183 367.615,183 379.641,183 379.641,183 391.667,183 391.667,183 403.692,183 403.692,183 415.718,183 415.718,183 427.744,183 427.744,183 439.769,183 439.769,183 451.795,183 451.795,183 463.821,183 463.821,183 475.846,183 475.846,183 487.872,183 487.872,183 499.897,183 499.897,183 511.923,183 511.923,183 523.949,183 523.949,183 535.974,183 535.974,183 548,183 548,183 " />
</g>

<g fill="none" stroke="#999999" stroke-opacity="1" stroke-dasharray="2,2" stroke-dashoffset="0" stroke-width="2" stroke-linecap="butt" stroke-linejoin="miter" stroke-miterlimit="2" transform="matrix(0.75,0,0,0.75,-21.4875,-7.13996)"
font-family="MS Shell Dlg 2" font-size="8.25" font-weight="400" font-style="normal" 
>
<polyline fill="none" vector-effect="none" points="79,17 91.0256,17 91.0256,183 103.051,183 103.051,183 115.077,183 115.077,183 127.103,183 127.103,183 139.128,183 139.128,183 151.154,183 151.154,183 163.179,183 163.179,183 175.205,183 175.205,183 187.231,183 187.231,183 199.256,183 199.256,183 211.282,183 211.282,183 223.308,183 223.308,183 235.333,183 235.333,183 247.359,183 247.359,183 259.385,183 259.385,183 271.41,183 271.41,183 283.436,183 283.436,183 295.462,183 295.462,183 307.487,183 307.487,183 319.513,183 319.513,183 331.538,183 331.538,183 343.564,183 343.564,183 355.59,183 355.59,183 367.615,183 367.615,183 379.641,183 379.641,183 391.667,183 391.667,183 403.692,183 403.692,183 415.718,183 415.718,183 427.744,183 427.744,183 439.769,183 439.769,183 451.795,183 451.795,183 463.821,183 463.821,183 475.846,183 475.846,183 487.872,183 487.872,183 499.897,183 499.897,183 511.923,183 511.923,183 523.949,183 523.949,183 535.974,183 535.974,183 548,183 548,183 " />
</g>

<g fill="none" stroke="#4d4d4d" stroke-opacity="1" stroke-dasharray="8,8" stroke-dashoffset="0" stroke-width="2" stroke-linecap="butt" stroke-linejoin="miter" stroke-miterlimit="2" transform="matrix(0.75,0,0,0.75,-21.4875,-7.13996)"
font-family="MS Shell Dlg 2" font-size="8.25" font-weight="400" font-style="normal" 
>
<polyline fill="none" vector-effect="none" points="79,17 91.0256,17 91.0256,183 103.051,183 103.051,183 115.077,183 115.077,183 127.103,183 127.103,183 139.128,183 139.128,183 151.154,183 151.154,183 163.179,183 163.179,183 175.205,183 175.205,183 187.231,183 187.231,183 199.256,183 199.256,183 211.282,183 211.282,183 223.308,183 223.308,183 235.333,183 235.333,183 247.359,183 247.359,183 259.385,183 259.385,183 271.41,183 271.41,183 283.436,183 283.436,183 295.462,183 295.462,183 307.487,183 307.487,183 319.513,183 319.513,183 331.538,183 331.538,183 343.564,183 343.564,183 355.59,183 355.59,183 367.615,183 367.615,183 379.641,183 379.641,183 391.667,183 391.667,183 403.692,183 403.692,183 415.718,183 415.718,183 427.744,183 427.744,183 439.769,183 439.769,183 451.795,183 451.795,183 463.821,183 463.821,183 475.846,183 475.846,183 487.872,183 487.872,183 499.897,183 499.897,183 511.923,183 511.923,183 523.949,183 523.949,183 535.974,183 535.974,183 548,183 548,183 " />
</g>

<g fill="#000000" fill-opacity="0.701961" stroke="#000000" stroke-opacity="0.701961" stroke-width="2" stroke-linecap="butt" stroke-linejoin="round" transform="matrix(0.75,0,0,0.75,-21.4875,-7.13996)"
font-family="MS Shell Dlg 2" font-size="8.25" font-weight="400" font-style="normal" 
>
<polyline fill="none" vector-effect="none" points="102.45,183 102.45,17 " />
</g>

<g fill="#ffffff" fill-opacity="1" stroke="none" transform="matrix(7.5e-05,0,0,7.5e-05,-21.4875,-7.13996)"
font-family="MS Shell Dlg 2" font-size="8.25" font-weight="400" font-style="normal" 
>
<path vector-effect="none" fill-rule="evenodd" d="M2.71e+06,260000 L2.71e+06,1.06e+06 L5.37e+06,1.06e+06 L5.37e+06,260000 L2.71e+06,260000"/>
</g>

<g fill="#000000" fill-opacity="1" stroke="#000000" stroke-opacity="1" stroke-width="2" stroke-linecap="butt" stroke-linejoin="round" transform="matrix(0.75,0,0,0.75,-21.4875,-7.13996)"
font-family="MS Shell Dlg 2" font-size="8.25" font-weight="400" font-style="normal" 
>
<polyline fill="none" vector-effect="none" points="275,37.4286 315,37.4286 " />
</g>

<g fill="#999999" fill-opacity="1" stroke="#999999" stroke-opacity="1" stroke-dasharray="2,2" stroke-dashoffset="0" stroke-width="2" stroke-linecap="butt" stroke-linejoin="round" transform="matrix(0.75,0,0,0.75,-21.4875,-7.13996)"
font-family="MS Shell Dlg 2" font-size="8.25" font-weight="400" font-style="normal" 
>
<polyline fill="none" vector-effect="none" points="275,56.8075 315,56.8075 " />
</g>

<g fill="#4d4d4d" fill-opacity="1" stroke="#4d4d4d" stroke-opacity="1" stroke-dasharray="8,8" stroke-dashoffset="0" stroke-width="2" stroke-linecap="butt" stroke-linejoin="round" transform="matrix(0.75,0,0,0.75,-21.4875,-7.13996)"
font-family="MS Shell Dlg 2" font-size="8.25" font-weight="400" font-style="normal" 
>
<polyline fill="none" vector-effect="none" points="275,75.6894 315,75.6894 " />
</g>

<g fill="#000000" fill-opacity="0.701961" stroke="#000000" stroke-opacity="0.701961" stroke-width="2" stroke-linecap="butt" stroke-linejoin="round" transform="matrix(0.75,0,0,0.75,-21.4875,-7.13996)"
font-family="MS Shell Dlg 2" font-size="8.25" font-weight="400" font-style="normal" 
>
<polyline fill="none" vector-effect="none" points="275,94.5714 315,94.5714 " />
</g>

<g fill="#212121" fill-opacity="1" stroke="none" transform="matrix(0.75,0,0,0.75,217.012,52.2671)"
font-family="MS Shell Dlg 2" font-size="8.25" font-weight="400" font-style="normal" 
>
<path vector-effect="none" fill-rule="evenodd" d="M0.4375,0 L0.4375,-0.5 C1.39583,-0.5 1.875,-0.645833 1.875,-0.9375 L1.875,-8.625 C1.875,-8.92708 1.39583,-9.07813 0.4375,-9.07813 L0.4375,-9.5625 L8.34375,-9.5625 L8.73438,-6.35938 L8.32813,-6.35938 C8.23438,-7.16146 8.09635,-7.74479 7.91406,-8.10938 C7.73177,-8.47396 7.44271,-8.72656 7.04688,-8.86719 C6.65104,-9.00781 6.05729,-9.07813 5.26563,-9.07813 L3.89063,-9.07813 C3.72396,-9.07813 3.59375,-9.07031 3.5,-9.05469 C3.40625,-9.03906 3.32813,-8.9974 3.26563,-8.92969 C3.20313,-8.86198 3.17188,-8.76042 3.17188,-8.625 L3.17188,-5.20313 L4.21875,-5.20313 C4.6875,-5.20313 5.03906,-5.24479 5.27344,-5.32813 C5.50781,-5.41146 5.66927,-5.5651 5.75781,-5.78906 C5.84635,-6.01302 5.89063,-6.36458 5.89063,-6.84375 L6.29688,-6.84375 L6.29688,-3.07813 L5.89063,-3.07813 C5.89063,-3.55729 5.84635,-3.91146 5.75781,-4.14063 C5.66927,-4.36979 5.50781,-4.52344 5.27344,-4.60156 C5.03906,-4.67969 4.6875,-4.71875 4.21875,-4.71875 L3.17188,-4.71875 L3.17188,-0.9375 C3.17188,-0.739583 3.22917,-0.617188 3.34375,-0.570313 C3.45833,-0.523438 3.64063,-0.5 3.89063,-0.5 L5.375,-0.5 C6.02083,-0.5 6.54427,-0.549479 6.94531,-0.648438 C7.34635,-0.747396 7.65625,-0.916667 7.875,-1.15625 C8.09375,-1.39583 8.26302,-1.70573 8.38281,-2.08594 C8.5026,-2.46615 8.61458,-2.99479 8.71875,-3.67188 L9.125,-3.67188 L8.53125,0 L0.4375,0"/>
</g>

<g fill="#212121" fill-opacity="1" stroke="none" transform="matrix(0.75,0,0,0.75,224.499,52.2671)"
font-family="MS Shell Dlg 2" font-size="8.25" font-weight="400" font-style="normal" 
>
<path vector-effect="none" fill-rule="evenodd" d="M0.421875,0 L0.421875,-0.5 C0.734375,-0.5 0.994792,-0.523438 1.20313,-0.570313 C1.41146,-0.617188 1.51563,-0.739583 1.51563,-0.9375 L1.51563,-4.76563 C1.51563,-5.01563 1.47656,-5.19531 1.39844,-5.30469 C1.32031,-5.41406 1.21094,-5.48177 1.07031,-5.50781 C0.929688,-5.53385 0.713542,-5.54688 0.421875,-5.54688 L0.421875,-6.03125 L2.45313,-6.1875 L2.45313,-4.8125 C2.64063,-5.21875 2.91667,-5.54948 3.28125,-5.80469 C3.64583,-6.0599 4.04688,-6.1875 4.48438,-6.1875 C5.55729,-6.1875 6.1875,-5.75 6.375,-4.875 C6.5625,-5.27083 6.83594,-5.58854 7.19531,-5.82813 C7.55469,-6.06771 7.94792,-6.1875 8.375,-6.1875 C8.80208,-6.1875 9.15885,-6.11979 9.44531,-5.98438 C9.73177,-5.84896 9.94792,-5.64063 10.0938,-5.35938 C10.2396,-5.07813 10.3125,-4.72396 10.3125,-4.29688 L10.3125,-0.9375 C10.3125,-0.739583 10.4167,-0.617188 10.625,-0.570313 C10.8333,-0.523438 11.0938,-0.5 11.4063,-0.5 L11.4063,0 L8.20313,0 L8.20313,-0.5 C8.52604,-0.5 8.78906,-0.523438 8.99219,-0.570313 C9.19531,-0.617188 9.29688,-0.739583 9.29688,-0.9375 L9.29688,-4.26563 C9.29688,-4.73438 9.23177,-5.11198 9.10156,-5.39844 C8.97135,-5.6849 8.69792,-5.82813 8.28125,-5.82813 C7.75,-5.82813 7.30729,-5.61198 6.95313,-5.17969 C6.59896,-4.7474 6.42188,-4.25521 6.42188,-3.70313 L6.42188,-0.9375 C6.42188,-0.739583 6.52604,-0.617188 6.73438,-0.570313 C6.94271,-0.523438 7.20313,-0.5 7.51563,-0.5 L7.51563,0 L4.3125,0 L4.3125,-0.5 C4.63542,-0.5 4.89844,-0.523438 5.10156,-0.570313 C5.30469,-0.617188 5.40625,-0.739583 5.40625,-0.9375 L5.40625,-4.26563 C5.40625,-4.71354 5.34115,-5.08594 5.21094,-5.38281 C5.08073,-5.67969 4.80729,-5.82813 4.39063,-5.82813 C3.84896,-5.82813 3.40365,-5.61198 3.05469,-5.17969 C2.70573,-4.7474 2.53125,-4.25521 2.53125,-3.70313 L2.53125,-0.9375 C2.53125,-0.739583 2.63542,-0.617188 2.84375,-0.570313 C3.05208,-0.523438 3.3125,-0.5 3.625,-0.5 L3.625,0 L0.421875,0"/>
</g>

<g fill="#212121" fill-opacity="1" stroke="none" transform="matrix(0.75,0,0,0.75,233.665,52.2671)"
font-family="MS Shell Dlg 2" font-size="8.25" font-weight="400" font-style="normal" 
>
<path vector-effect="none" fill-rule="evenodd" d="M0.453125,0 L0.453125,-0.5 C1.28646,-0.5 1.79688,-0.770833 1.98438,-1.3125 L4.92188,-9.875 C4.95313,-9.96875 5.03125,-10.0156 5.15625,-10.0156 L5.32813,-10.0156 C5.45313,-10.0156 5.53125,-9.96875 5.5625,-9.875 L8.625,-0.9375 C8.70833,-0.739583 8.8724,-0.617188 9.11719,-0.570313 C9.36198,-0.523438 9.66667,-0.5 10.0313,-0.5 L10.0313,0 L6.125,0 L6.125,-0.5 C6.90625,-0.5 7.29688,-0.625 7.29688,-0.875 L7.29688,-0.9375 L6.53125,-3.125 L3.14063,-3.125 L2.51563,-1.3125 C2.50521,-1.28125 2.5,-1.23438 2.5,-1.17188 C2.5,-0.942708 2.60938,-0.773438 2.82813,-0.664063 C3.04688,-0.554688 3.28646,-0.5 3.54688,-0.5 L3.54688,0 L0.453125,0 M3.29688,-3.60938 L6.375,-3.60938 L4.82813,-8.07813 L3.29688,-3.60938"/>
</g>

<g fill="#212121" fill-opacity="1" stroke="none" transform="matrix(0.75,0,0,0.75,241.915,52.2671)"
font-family="MS Shell Dlg 2" font-size="8.25" font-weight="400" font-style="normal" 
>
<path vector-effect="none" fill-rule="evenodd" d="M0.4375,0 L0.4375,-0.5 C1.39583,-0.5 1.875,-0.645833 1.875,-0.9375 L1.875,-8.625 C1.875,-8.92708 1.39583,-9.07813 0.4375,-9.07813 L0.4375,-9.5625 L4.96875,-9.5625 L4.96875,-9.07813 C3.77083,-9.07813 3.17188,-8.92708 3.17188,-8.625 L3.17188,-0.9375 C3.17188,-0.739583 3.22917,-0.617188 3.34375,-0.570313 C3.45833,-0.523438 3.64063,-0.5 3.89063,-0.5 L4.96875,-0.5 C5.66667,-0.5 6.20573,-0.627604 6.58594,-0.882813 C6.96615,-1.13802 7.23438,-1.48438 7.39063,-1.92188 C7.54688,-2.35938 7.66667,-2.94271 7.75,-3.67188 L8.15625,-3.67188 L7.76563,0 L0.4375,0"/>
</g>

<g fill="#212121" fill-opacity="1" stroke="none" transform="matrix(0.75,0,0,0.75,247.874,52.2671)"
font-family="MS Shell Dlg 2" font-size="8.25" font-weight="400" font-style="normal" 
>
<path vector-effect="none" fill-rule="evenodd" d="M2.35938,0 L2.35938,-0.5 C2.82813,-0.5 3.28385,-0.526042 3.72656,-0.578125 C4.16927,-0.630208 4.39063,-0.75 4.39063,-0.9375 L4.39063,-8.625 C4.39063,-8.82292 4.33594,-8.94792 4.22656,-9 C4.11719,-9.05208 3.9375,-9.07813 3.6875,-9.07813 L3.09375,-9.07813 C2.32292,-9.07813 1.77604,-8.90625 1.45313,-8.5625 C1.28646,-8.39583 1.16667,-8.1276 1.09375,-7.75781 C1.02083,-7.38802 0.958333,-6.92188 0.90625,-6.35938 L0.5,-6.35938 L0.765625,-9.5625 L9.32813,-9.5625 L9.59375,-6.35938 L9.1875,-6.35938 C9.125,-6.96354 9.0625,-7.4401 9,-7.78906 C8.9375,-8.13802 8.81771,-8.39583 8.64063,-8.5625 C8.31771,-8.90625 7.77083,-9.07813 7,-9.07813 L6.40625,-9.07813 C6.23958,-9.07813 6.10938,-9.07031 6.01563,-9.05469 C5.92188,-9.03906 5.84635,-8.9974 5.78906,-8.92969 C5.73177,-8.86198 5.70313,-8.76042 5.70313,-8.625 L5.70313,-0.9375 C5.70313,-0.75 5.92448,-0.630208 6.36719,-0.578125 C6.8099,-0.526042 7.26042,-0.5 7.71875,-0.5 L7.71875,0 L2.35938,0"/>
</g>

<g fill="none" stroke="#212121" stroke-opacity="1" stroke-width="1.06667" stroke-linecap="butt" stroke-linejoin="miter" stroke-miterlimit="2" transform="matrix(0.75,0,0,0.75,-21.4875,-7.13996)"
font-family="MS Shell Dlg 2" font-size="8.25" font-weight="400" font-style="normal" 
>
<path vector-effect="none" fill-rule="evenodd" d="M271,106 L271,26 L537,26 L537,106 L271,106"/>
</g>
</g>
</svg>
