<?xml version="1.0" encoding="UTF-8" standalone="no"?>
<svg width="151.694mm" height="95.25mm"
 viewBox="0 0 430 270"
 xmlns="http://www.w3.org/2000/svg" xmlns:xlink="http://www.w3.org/1999/xlink"  version="1.2" baseProfile="tiny">
<title>Qt SVG Document</title>
<desc>MATLAB, The MathWorks, Inc. Version 25.2.0.3055257 R2025b Update 2</desc>
<defs>
</defs>
<g fill="none" stroke="black" stroke-width="1" fill-rule="evenodd" stroke-linecap="square" stroke-linejoin="bevel" >

<g fill="#ffffff" fill-opacity="1" stroke="none" transform="matrix(0.75,0,0,0.75,1.9,-10.1438)"
font-family="MS Shell Dlg 2" font-size="8.25" font-weight="400" font-style="normal" 
>
<path vector-effect="none" fill-rule="evenodd" d="M-3,12 L572,12 L572,373 L-3,373 L-3,12"/>
</g>

<g fill="#ffffff" fill-opacity="1" stroke="none" transform="matrix(7.5e-05,0,0,7.5e-05,1.9,-10.1438)"
font-family="MS Shell Dlg 2" font-size="8.25" font-weight="400" font-style="normal" 
>
<path vector-effect="none" fill-rule="evenodd" d="M760000,320000 L760000,1.57e+06 L1.95e+06,1.57e+06 L1.95e+06,320000 L760000,320000"/>
</g>

<g fill="#212121" fill-opacity="0.25098" stroke="#212121" stroke-opacity="0.25098" stroke-dasharray="1,3" stroke-dashoffset="0" stroke-width="1.06667" stroke-linecap="butt" stroke-linejoin="round" transform="matrix(0.75,0,0,0.75,1.9,-10.1438)"
font-family="MS Shell Dlg 2" font-size="8.25" font-weight="400" font-style="normal" 
>
<polyline fill="none" vector-effect="none" points="92.1856,32 92.1856,157 " />
<polyline fill="none" vector-effect="none" points="137.106,32 137.106,157 " />
<polyline fill="none" vector-effect="none" points="182.027,32 182.027,157 " />
<polyline fill="none" vector-effect="none" points="76,157 195,157 " />
<polyline fill="none" vector-effect="none" points="76,98.805 195,98.805 " />
<polyline fill="none" vector-effect="none" points="76,40.61 195,40.61 " />
</g>

<g fill="#212121" fill-opacity="1" stroke="#212121" stroke-opacity="1" stroke-width="1.06667" stroke-linecap="square" stroke-linejoin="round" transform="matrix(0.75,0,0,0.75,1.9,-10.1438)"
font-family="MS Shell Dlg 2" font-size="8.25" font-weight="400" font-style="normal" 
>
<polyline fill="none" vector-effect="none" points="76,157 195,157 " />
<polyline fill="none" vector-effect="none" points="76,32 195,32 " />
<polyline fill="none" vector-effect="none" points="92.1856,157 92.1856,155.75 " />
<polyline fill="none" vector-effect="none" points="92.1856,33.25 92.1856,32 " />
<polyline fill="none" vector-effect="none" points="137.106,157 137.106,155.75 " />
<polyline fill="none" vector-effect="none" points="137.106,33.25 137.106,32 " />
<polyline fill="none" vector-effect="none" points="182.027,157 182.027,155.75 " />
<polyline fill="none" vector-effect="none" points="182.027,33.25 182.027,32 " />
</g>

<g fill="#212121" fill-opacity="1" stroke="#212121" stroke-opacity="1" stroke-width="1" stroke-linecap="square" stroke-linejoin="bevel" transform="matrix(0.75,0,0,0.75,66.5392,117.156)"
font-family="Palatino Linotype" font-size="12" font-weight="400" font-style="normal" 
>
<text fill="#212121" fill-opacity="1" stroke="none" xml:space="preserve" x="0" y="0" font-family="Palatino Linotype" font-size="12" font-weight="400" font-style="normal" 
 >50</text>
</g>

<g fill="#212121" fill-opacity="1" stroke="#212121" stroke-opacity="1" stroke-width="1" stroke-linecap="square" stroke-linejoin="bevel" transform="matrix(0.75,0,0,0.75,100.23,117.156)"
font-family="Palatino Linotype" font-size="12" font-weight="400" font-style="normal" 
>
<text fill="#212121" fill-opacity="1" stroke="none" xml:space="preserve" x="0" y="0" font-family="Palatino Linotype" font-size="12" font-weight="400" font-style="normal" 
 >60</text>
</g>

<g fill="#212121" fill-opacity="1" stroke="#212121" stroke-opacity="1" stroke-width="1" stroke-linecap="square" stroke-linejoin="bevel" transform="matrix(0.75,0,0,0.75,133.92,117.156)"
font-family="Palatino Linotype" font-size="12" font-weight="400" font-style="normal" 
>
<text fill="#212121" fill-opacity="1" stroke="none" xml:space="preserve" x="0" y="0" font-family="Palatino Linotype" font-size="12" font-weight="400" font-style="normal" 
 >70</text>
</g>

<g fill="#212121" fill-opacity="1" stroke="#212121" stroke-opacity="1" stroke-width="1" stroke-linecap="square" stroke-linejoin="bevel" transform="matrix(0,-0.75,0.75,0,28.6,119.981)"
font-family="Palatino Linotype" font-size="13" font-weight="400" font-style="normal" 
>
<text fill="#212121" fill-opacity="1" stroke="none" xml:space="preserve" x="0" y="0" font-family="Palatino Linotype" font-size="13" font-weight="400" font-style="normal" 
 >$\Xi_{\textnormal{eco}, i}$</text>
</g>

<g fill="#212121" fill-opacity="1" stroke="#212121" stroke-opacity="1" stroke-width="1.06667" stroke-linecap="square" stroke-linejoin="round" transform="matrix(0.75,0,0,0.75,1.9,-10.1438)"
font-family="Palatino Linotype" font-size="13" font-weight="400" font-style="normal" 
>
<polyline fill="none" vector-effect="none" points="76,157 76,32 " />
<polyline fill="none" vector-effect="none" points="195,157 195,32 " />
<polyline fill="none" vector-effect="none" points="76,157 77.25,157 " />
<polyline fill="none" vector-effect="none" points="193.75,157 195,157 " />
<polyline fill="none" vector-effect="none" points="76,98.805 77.25,98.805 " />
<polyline fill="none" vector-effect="none" points="193.75,98.805 195,98.805 " />
<polyline fill="none" vector-effect="none" points="76,40.61 77.25,40.61 " />
<polyline fill="none" vector-effect="none" points="193.75,40.61 195,40.61 " />
</g>

<g fill="#212121" fill-opacity="1" stroke="#212121" stroke-opacity="1" stroke-width="1" stroke-linecap="square" stroke-linejoin="bevel" transform="matrix(0.75,0,0,0.75,51.6,109.481)"
font-family="Palatino Linotype" font-size="12" font-weight="400" font-style="normal" 
>
<text fill="#212121" fill-opacity="1" stroke="none" xml:space="preserve" x="0" y="0" font-family="Palatino Linotype" font-size="12" font-weight="400" font-style="normal" 
 >0</text>
</g>

<g fill="#212121" fill-opacity="1" stroke="#212121" stroke-opacity="1" stroke-width="1" stroke-linecap="square" stroke-linejoin="bevel" transform="matrix(0.75,0,0,0.75,38.1,65.835)"
font-family="Palatino Linotype" font-size="12" font-weight="400" font-style="normal" 
>
<text fill="#212121" fill-opacity="1" stroke="none" xml:space="preserve" x="0" y="0" font-family="Palatino Linotype" font-size="12" font-weight="400" font-style="normal" 
 >5000</text>
</g>

<g fill="#212121" fill-opacity="1" stroke="#212121" stroke-opacity="1" stroke-width="1" stroke-linecap="square" stroke-linejoin="bevel" transform="matrix(0.75,0,0,0.75,33.6,22.1888)"
font-family="Palatino Linotype" font-size="12" font-weight="400" font-style="normal" 
>
<text fill="#212121" fill-opacity="1" stroke="none" xml:space="preserve" x="0" y="0" font-family="Palatino Linotype" font-size="12" font-weight="400" font-style="normal" 
 >10000</text>
</g>

<g fill="#212121" fill-opacity="1" stroke="#212121" stroke-opacity="1" stroke-width="1" stroke-linecap="square" stroke-linejoin="bevel" transform="matrix(0.75,0,0,0.75,22.9001,9)"
font-family="Palatino Linotype" font-size="13" font-weight="700" font-style="normal" 
>
<text fill="#212121" fill-opacity="1" stroke="none" xml:space="preserve" x="0" y="0" font-family="Palatino Linotype" font-size="13" font-weight="700" font-style="normal" 
 >\textbf{Effizienz für $\sym{beta}_1$}</text>
</g>

<g fill="#000000" fill-opacity="1" stroke="none" transform="matrix(0.75,0,0,0.75,1.9,-10.1438)"
font-family="Palatino Linotype" font-size="13" font-weight="700" font-style="normal" 
>
<circle cx="123.189" cy="149.156" r="4.33333"/>
</g>

<g fill="none" stroke="#000000" stroke-opacity="1" stroke-width="1.33333" stroke-linecap="butt" stroke-linejoin="miter" stroke-miterlimit="2" transform="matrix(0.75,0,0,0.75,1.9,-10.1438)"
font-family="Palatino Linotype" font-size="13" font-weight="700" font-style="normal" 
>
<path vector-effect="none" fill-rule="evenodd" d="M127.523,149.156 C127.523,146.763 125.583,144.823 123.189,144.823 C120.796,144.823 118.856,146.763 118.856,149.156 C118.856,151.549 120.796,153.489 123.189,153.489 C125.583,153.489 127.523,151.549 127.523,149.156 "/>
</g>

<g fill="#808080" fill-opacity="1" stroke="none" transform="matrix(7.5e-05,0,0,7.5e-05,1.9,-10.1438)"
font-family="Palatino Linotype" font-size="13" font-weight="700" font-style="normal" 
>
<path vector-effect="none" fill-rule="evenodd" d="M911082,1.45319e+06 L911082,1.51039e+06 L968282,1.51039e+06 L968282,1.45319e+06 L911082,1.45319e+06"/>
</g>

<g fill="none" stroke="#000000" stroke-opacity="1" stroke-width="1.33333" stroke-linecap="butt" stroke-linejoin="miter" stroke-miterlimit="2" transform="matrix(0.75,0,0,0.75,1.9,-10.1438)"
font-family="Palatino Linotype" font-size="13" font-weight="700" font-style="normal" 
>
<path vector-effect="none" fill-rule="evenodd" d="M91.1083,145.319 L91.1083,151.039 L96.8283,151.039 L96.8283,145.319 L91.1083,145.319"/>
</g>

<g fill="#333333" fill-opacity="1" stroke="none" transform="matrix(7.5e-05,0,0,7.5e-05,1.9,-10.1438)"
font-family="Palatino Linotype" font-size="13" font-weight="700" font-style="normal" 
>
<path vector-effect="none" fill-rule="evenodd" d="M1.73365e+06,569999 L1.77032e+06,618766 L1.80698e+06,569999 L1.77032e+06,521233 L1.73365e+06,569999"/>
</g>

<g fill="none" stroke="#000000" stroke-opacity="1" stroke-width="1.33333" stroke-linecap="butt" stroke-linejoin="miter" stroke-miterlimit="2" transform="matrix(0.75,0,0,0.75,1.9,-10.1438)"
font-family="Palatino Linotype" font-size="13" font-weight="700" font-style="normal" 
>
<path vector-effect="none" fill-rule="evenodd" d="M173.365,57 L177.032,61.8767 L180.698,57 L177.032,52.1233 L173.365,57"/>
</g>

<g fill="#ffffff" fill-opacity="1" stroke="none" transform="matrix(7.5e-05,0,0,7.5e-05,1.9,-10.1438)"
font-family="Palatino Linotype" font-size="13" font-weight="700" font-style="normal" 
>
<path vector-effect="none" fill-rule="evenodd" d="M0,374511 L0,910000 L2.84e+06,910000 L2.84e+06,350000 L0,350000 L0,374511"/>
</g>

<g fill="#212121" fill-opacity="1" stroke="#212121" stroke-opacity="1" stroke-width="1" stroke-linecap="square" stroke-linejoin="bevel" transform="matrix(0.75,0,0,0.75,6.97498,25.8562)"
font-family="Palatino Linotype" font-size="12" font-weight="400" font-style="normal" 
>
<text fill="#212121" fill-opacity="1" stroke="none" xml:space="preserve" x="0" y="0" font-family="Palatino Linotype" font-size="12" font-weight="400" font-style="normal" 
 >Basis \ac{CCD}</text>
</g>

<g fill="#212121" fill-opacity="1" stroke="#212121" stroke-opacity="1" stroke-width="1" stroke-linecap="square" stroke-linejoin="bevel" transform="matrix(0.75,0,0,0.75,6.97498,38.9812)"
font-family="Palatino Linotype" font-size="12" font-weight="400" font-style="normal" 
>
<text fill="#212121" fill-opacity="1" stroke="none" xml:space="preserve" x="0" y="0" font-family="Palatino Linotype" font-size="12" font-weight="400" font-style="normal" 
 >$\textnormal{\ac{CCD}}_{-\textnormal{\ac{AP}}}$</text>
</g>

<g fill="#212121" fill-opacity="1" stroke="#212121" stroke-opacity="1" stroke-width="1" stroke-linecap="square" stroke-linejoin="bevel" transform="matrix(0.75,0,0,0.75,6.97498,52.1062)"
font-family="Palatino Linotype" font-size="12" font-weight="400" font-style="normal" 
>
<text fill="#212121" fill-opacity="1" stroke="none" xml:space="preserve" x="0" y="0" font-family="Palatino Linotype" font-size="12" font-weight="400" font-style="normal" 
 >\ac{EmALT}</text>
</g>

<g fill="none" stroke="#212121" stroke-opacity="1" stroke-width="1.06667" stroke-linecap="butt" stroke-linejoin="miter" stroke-miterlimit="2" transform="matrix(0.75,0,0,0.75,1.9,-10.1438)"
font-family="Palatino Linotype" font-size="12" font-weight="400" font-style="normal" 
>
<polyline fill="none" vector-effect="none" points="0,35 284,35 284,91 0,91 " />
</g>

<g fill="#ffffff" fill-opacity="1" stroke="none" transform="matrix(7.5e-05,0,0,7.5e-05,1.9,-10.1438)"
font-family="Palatino Linotype" font-size="12" font-weight="400" font-style="normal" 
>
<path vector-effect="none" fill-rule="evenodd" d="M2.35e+06,320000 L2.35e+06,1.57e+06 L3.54e+06,1.57e+06 L3.54e+06,320000 L2.35e+06,320000"/>
</g>

<g fill="#212121" fill-opacity="0.25098" stroke="#212121" stroke-opacity="0.25098" stroke-dasharray="1,3" stroke-dashoffset="0" stroke-width="1.06667" stroke-linecap="butt" stroke-linejoin="round" transform="matrix(0.75,0,0,0.75,1.9,-10.1438)"
font-family="Palatino Linotype" font-size="12" font-weight="400" font-style="normal" 
>
<polyline fill="none" vector-effect="none" points="251.186,32 251.186,157 " />
<polyline fill="none" vector-effect="none" points="296.106,32 296.106,157 " />
<polyline fill="none" vector-effect="none" points="341.027,32 341.027,157 " />
<polyline fill="none" vector-effect="none" points="235,157 354,157 " />
<polyline fill="none" vector-effect="none" points="235,123.746 354,123.746 " />
<polyline fill="none" vector-effect="none" points="235,90.4914 354,90.4914 " />
<polyline fill="none" vector-effect="none" points="235,57.2372 354,57.2372 " />
</g>

<g fill="#212121" fill-opacity="1" stroke="#212121" stroke-opacity="1" stroke-width="1.06667" stroke-linecap="square" stroke-linejoin="round" transform="matrix(0.75,0,0,0.75,1.9,-10.1438)"
font-family="Palatino Linotype" font-size="12" font-weight="400" font-style="normal" 
>
<polyline fill="none" vector-effect="none" points="235,157 354,157 " />
<polyline fill="none" vector-effect="none" points="235,32 354,32 " />
<polyline fill="none" vector-effect="none" points="251.186,157 251.186,155.75 " />
<polyline fill="none" vector-effect="none" points="251.186,33.25 251.186,32 " />
<polyline fill="none" vector-effect="none" points="296.106,157 296.106,155.75 " />
<polyline fill="none" vector-effect="none" points="296.106,33.25 296.106,32 " />
<polyline fill="none" vector-effect="none" points="341.027,157 341.027,155.75 " />
<polyline fill="none" vector-effect="none" points="341.027,33.25 341.027,32 " />
</g>

<g fill="#212121" fill-opacity="1" stroke="#212121" stroke-opacity="1" stroke-width="1" stroke-linecap="square" stroke-linejoin="bevel" transform="matrix(0.75,0,0,0.75,185.789,117.156)"
font-family="Palatino Linotype" font-size="12" font-weight="400" font-style="normal" 
>
<text fill="#212121" fill-opacity="1" stroke="none" xml:space="preserve" x="0" y="0" font-family="Palatino Linotype" font-size="12" font-weight="400" font-style="normal" 
 >50</text>
</g>

<g fill="#212121" fill-opacity="1" stroke="#212121" stroke-opacity="1" stroke-width="1" stroke-linecap="square" stroke-linejoin="bevel" transform="matrix(0.75,0,0,0.75,219.48,117.156)"
font-family="Palatino Linotype" font-size="12" font-weight="400" font-style="normal" 
>
<text fill="#212121" fill-opacity="1" stroke="none" xml:space="preserve" x="0" y="0" font-family="Palatino Linotype" font-size="12" font-weight="400" font-style="normal" 
 >60</text>
</g>

<g fill="#212121" fill-opacity="1" stroke="#212121" stroke-opacity="1" stroke-width="1" stroke-linecap="square" stroke-linejoin="bevel" transform="matrix(0.75,0,0,0.75,253.17,117.156)"
font-family="Palatino Linotype" font-size="12" font-weight="400" font-style="normal" 
>
<text fill="#212121" fill-opacity="1" stroke="none" xml:space="preserve" x="0" y="0" font-family="Palatino Linotype" font-size="12" font-weight="400" font-style="normal" 
 >70</text>
</g>

<g fill="#212121" fill-opacity="1" stroke="#212121" stroke-opacity="1" stroke-width="1.06667" stroke-linecap="square" stroke-linejoin="round" transform="matrix(0.75,0,0,0.75,1.9,-10.1438)"
font-family="Palatino Linotype" font-size="12" font-weight="400" font-style="normal" 
>
<polyline fill="none" vector-effect="none" points="235,157 235,32 " />
<polyline fill="none" vector-effect="none" points="354,157 354,32 " />
<polyline fill="none" vector-effect="none" points="235,157 236.25,157 " />
<polyline fill="none" vector-effect="none" points="352.75,157 354,157 " />
<polyline fill="none" vector-effect="none" points="235,123.746 236.25,123.746 " />
<polyline fill="none" vector-effect="none" points="352.75,123.746 354,123.746 " />
<polyline fill="none" vector-effect="none" points="235,90.4914 236.25,90.4914 " />
<polyline fill="none" vector-effect="none" points="352.75,90.4914 354,90.4914 " />
<polyline fill="none" vector-effect="none" points="235,57.2372 236.25,57.2372 " />
<polyline fill="none" vector-effect="none" points="352.75,57.2372 354,57.2372 " />
</g>

<g fill="#212121" fill-opacity="1" stroke="#212121" stroke-opacity="1" stroke-width="1" stroke-linecap="square" stroke-linejoin="bevel" transform="matrix(0.75,0,0,0.75,170.85,109.481)"
font-family="Palatino Linotype" font-size="12" font-weight="400" font-style="normal" 
>
<text fill="#212121" fill-opacity="1" stroke="none" xml:space="preserve" x="0" y="0" font-family="Palatino Linotype" font-size="12" font-weight="400" font-style="normal" 
 >0</text>
</g>

<g fill="#212121" fill-opacity="1" stroke="#212121" stroke-opacity="1" stroke-width="1" stroke-linecap="square" stroke-linejoin="bevel" transform="matrix(0.75,0,0,0.75,157.35,84.5405)"
font-family="Palatino Linotype" font-size="12" font-weight="400" font-style="normal" 
>
<text fill="#212121" fill-opacity="1" stroke="none" xml:space="preserve" x="0" y="0" font-family="Palatino Linotype" font-size="12" font-weight="400" font-style="normal" 
 >2000</text>
</g>

<g fill="#212121" fill-opacity="1" stroke="#212121" stroke-opacity="1" stroke-width="1" stroke-linecap="square" stroke-linejoin="bevel" transform="matrix(0.75,0,0,0.75,157.35,59.5998)"
font-family="Palatino Linotype" font-size="12" font-weight="400" font-style="normal" 
>
<text fill="#212121" fill-opacity="1" stroke="none" xml:space="preserve" x="0" y="0" font-family="Palatino Linotype" font-size="12" font-weight="400" font-style="normal" 
 >4000</text>
</g>

<g fill="#212121" fill-opacity="1" stroke="#212121" stroke-opacity="1" stroke-width="1" stroke-linecap="square" stroke-linejoin="bevel" transform="matrix(0.75,0,0,0.75,157.35,34.6591)"
font-family="Palatino Linotype" font-size="12" font-weight="400" font-style="normal" 
>
<text fill="#212121" fill-opacity="1" stroke="none" xml:space="preserve" x="0" y="0" font-family="Palatino Linotype" font-size="12" font-weight="400" font-style="normal" 
 >6000</text>
</g>

<g fill="#212121" fill-opacity="1" stroke="#212121" stroke-opacity="1" stroke-width="1" stroke-linecap="square" stroke-linejoin="bevel" transform="matrix(0.75,0,0,0.75,142.15,9)"
font-family="Palatino Linotype" font-size="13" font-weight="700" font-style="normal" 
>
<text fill="#212121" fill-opacity="1" stroke="none" xml:space="preserve" x="0" y="0" font-family="Palatino Linotype" font-size="13" font-weight="700" font-style="normal" 
 >\textbf{Effizienz für $\sym{beta}_2$}</text>
</g>

<g fill="#000000" fill-opacity="1" stroke="none" transform="matrix(0.75,0,0,0.75,1.9,-10.1438)"
font-family="Palatino Linotype" font-size="13" font-weight="700" font-style="normal" 
>
<circle cx="282.189" cy="145.794" r="4.33333"/>
</g>

<g fill="none" stroke="#000000" stroke-opacity="1" stroke-width="1.33333" stroke-linecap="butt" stroke-linejoin="miter" stroke-miterlimit="2" transform="matrix(0.75,0,0,0.75,1.9,-10.1438)"
font-family="Palatino Linotype" font-size="13" font-weight="700" font-style="normal" 
>
<path vector-effect="none" fill-rule="evenodd" d="M286.523,145.794 C286.523,143.401 284.583,141.461 282.189,141.461 C279.796,141.461 277.856,143.401 277.856,145.794 C277.856,148.187 279.796,150.127 282.189,150.127 C284.583,150.127 286.523,148.187 286.523,145.794 "/>
</g>

<g fill="#808080" fill-opacity="1" stroke="none" transform="matrix(7.5e-05,0,0,7.5e-05,1.9,-10.1438)"
font-family="Palatino Linotype" font-size="13" font-weight="700" font-style="normal" 
>
<path vector-effect="none" fill-rule="evenodd" d="M2.50108e+06,1.41538e+06 L2.50108e+06,1.47258e+06 L2.55828e+06,1.47258e+06 L2.55828e+06,1.41538e+06 L2.50108e+06,1.41538e+06"/>
</g>

<g fill="none" stroke="#000000" stroke-opacity="1" stroke-width="1.33333" stroke-linecap="butt" stroke-linejoin="miter" stroke-miterlimit="2" transform="matrix(0.75,0,0,0.75,1.9,-10.1438)"
font-family="Palatino Linotype" font-size="13" font-weight="700" font-style="normal" 
>
<path vector-effect="none" fill-rule="evenodd" d="M250.108,141.538 L250.108,147.258 L255.828,147.258 L255.828,141.538 L250.108,141.538"/>
</g>

<g fill="#333333" fill-opacity="1" stroke="none" transform="matrix(7.5e-05,0,0,7.5e-05,1.9,-10.1438)"
font-family="Palatino Linotype" font-size="13" font-weight="700" font-style="normal" 
>
<path vector-effect="none" fill-rule="evenodd" d="M3.32365e+06,569999 L3.36032e+06,618766 L3.39698e+06,569999 L3.36032e+06,521233 L3.32365e+06,569999"/>
</g>

<g fill="none" stroke="#000000" stroke-opacity="1" stroke-width="1.33333" stroke-linecap="butt" stroke-linejoin="miter" stroke-miterlimit="2" transform="matrix(0.75,0,0,0.75,1.9,-10.1438)"
font-family="Palatino Linotype" font-size="13" font-weight="700" font-style="normal" 
>
<path vector-effect="none" fill-rule="evenodd" d="M332.365,57 L336.032,61.8767 L339.698,57 L336.032,52.1233 L332.365,57"/>
</g>

<g fill="#ffffff" fill-opacity="1" stroke="none" transform="matrix(7.5e-05,0,0,7.5e-05,1.9,-10.1438)"
font-family="Palatino Linotype" font-size="13" font-weight="700" font-style="normal" 
>
<path vector-effect="none" fill-rule="evenodd" d="M3.94e+06,320000 L3.94e+06,1.57e+06 L5.13e+06,1.57e+06 L5.13e+06,320000 L3.94e+06,320000"/>
</g>

<g fill="#212121" fill-opacity="0.25098" stroke="#212121" stroke-opacity="0.25098" stroke-dasharray="1,3" stroke-dashoffset="0" stroke-width="1.06667" stroke-linecap="butt" stroke-linejoin="round" transform="matrix(0.75,0,0,0.75,1.9,-10.1438)"
font-family="Palatino Linotype" font-size="13" font-weight="700" font-style="normal" 
>
<polyline fill="none" vector-effect="none" points="410.186,32 410.186,157 " />
<polyline fill="none" vector-effect="none" points="455.106,32 455.106,157 " />
<polyline fill="none" vector-effect="none" points="500.027,32 500.027,157 " />
<polyline fill="none" vector-effect="none" points="394,157 513,157 " />
<polyline fill="none" vector-effect="none" points="394,98.805 513,98.805 " />
<polyline fill="none" vector-effect="none" points="394,40.61 513,40.61 " />
</g>

<g fill="#212121" fill-opacity="1" stroke="#212121" stroke-opacity="1" stroke-width="1.06667" stroke-linecap="square" stroke-linejoin="round" transform="matrix(0.75,0,0,0.75,1.9,-10.1438)"
font-family="Palatino Linotype" font-size="13" font-weight="700" font-style="normal" 
>
<polyline fill="none" vector-effect="none" points="394,157 513,157 " />
<polyline fill="none" vector-effect="none" points="394,32 513,32 " />
<polyline fill="none" vector-effect="none" points="410.186,157 410.186,155.75 " />
<polyline fill="none" vector-effect="none" points="410.186,33.25 410.186,32 " />
<polyline fill="none" vector-effect="none" points="455.106,157 455.106,155.75 " />
<polyline fill="none" vector-effect="none" points="455.106,33.25 455.106,32 " />
<polyline fill="none" vector-effect="none" points="500.027,157 500.027,155.75 " />
<polyline fill="none" vector-effect="none" points="500.027,33.25 500.027,32 " />
</g>

<g fill="#212121" fill-opacity="1" stroke="#212121" stroke-opacity="1" stroke-width="1" stroke-linecap="square" stroke-linejoin="bevel" transform="matrix(0.75,0,0,0.75,305.039,117.156)"
font-family="Palatino Linotype" font-size="12" font-weight="400" font-style="normal" 
>
<text fill="#212121" fill-opacity="1" stroke="none" xml:space="preserve" x="0" y="0" font-family="Palatino Linotype" font-size="12" font-weight="400" font-style="normal" 
 >50</text>
</g>

<g fill="#212121" fill-opacity="1" stroke="#212121" stroke-opacity="1" stroke-width="1" stroke-linecap="square" stroke-linejoin="bevel" transform="matrix(0.75,0,0,0.75,338.73,117.156)"
font-family="Palatino Linotype" font-size="12" font-weight="400" font-style="normal" 
>
<text fill="#212121" fill-opacity="1" stroke="none" xml:space="preserve" x="0" y="0" font-family="Palatino Linotype" font-size="12" font-weight="400" font-style="normal" 
 >60</text>
</g>

<g fill="#212121" fill-opacity="1" stroke="#212121" stroke-opacity="1" stroke-width="1" stroke-linecap="square" stroke-linejoin="bevel" transform="matrix(0.75,0,0,0.75,372.42,117.156)"
font-family="Palatino Linotype" font-size="12" font-weight="400" font-style="normal" 
>
<text fill="#212121" fill-opacity="1" stroke="none" xml:space="preserve" x="0" y="0" font-family="Palatino Linotype" font-size="12" font-weight="400" font-style="normal" 
 >70</text>
</g>

<g fill="#212121" fill-opacity="1" stroke="#212121" stroke-opacity="1" stroke-width="1.06667" stroke-linecap="square" stroke-linejoin="round" transform="matrix(0.75,0,0,0.75,1.9,-10.1438)"
font-family="Palatino Linotype" font-size="12" font-weight="400" font-style="normal" 
>
<polyline fill="none" vector-effect="none" points="394,157 394,32 " />
<polyline fill="none" vector-effect="none" points="513,157 513,32 " />
<polyline fill="none" vector-effect="none" points="394,157 395.25,157 " />
<polyline fill="none" vector-effect="none" points="511.75,157 513,157 " />
<polyline fill="none" vector-effect="none" points="394,98.805 395.25,98.805 " />
<polyline fill="none" vector-effect="none" points="511.75,98.805 513,98.805 " />
<polyline fill="none" vector-effect="none" points="394,40.61 395.25,40.61 " />
<polyline fill="none" vector-effect="none" points="511.75,40.61 513,40.61 " />
</g>

<g fill="#212121" fill-opacity="1" stroke="#212121" stroke-opacity="1" stroke-width="1" stroke-linecap="square" stroke-linejoin="bevel" transform="matrix(0.75,0,0,0.75,290.1,109.481)"
font-family="Palatino Linotype" font-size="12" font-weight="400" font-style="normal" 
>
<text fill="#212121" fill-opacity="1" stroke="none" xml:space="preserve" x="0" y="0" font-family="Palatino Linotype" font-size="12" font-weight="400" font-style="normal" 
 >0</text>
</g>

<g fill="#212121" fill-opacity="1" stroke="#212121" stroke-opacity="1" stroke-width="1" stroke-linecap="square" stroke-linejoin="bevel" transform="matrix(0.75,0,0,0.75,276.6,65.835)"
font-family="Palatino Linotype" font-size="12" font-weight="400" font-style="normal" 
>
<text fill="#212121" fill-opacity="1" stroke="none" xml:space="preserve" x="0" y="0" font-family="Palatino Linotype" font-size="12" font-weight="400" font-style="normal" 
 >5000</text>
</g>

<g fill="#212121" fill-opacity="1" stroke="#212121" stroke-opacity="1" stroke-width="1" stroke-linecap="square" stroke-linejoin="bevel" transform="matrix(0.75,0,0,0.75,272.1,22.1888)"
font-family="Palatino Linotype" font-size="12" font-weight="400" font-style="normal" 
>
<text fill="#212121" fill-opacity="1" stroke="none" xml:space="preserve" x="0" y="0" font-family="Palatino Linotype" font-size="12" font-weight="400" font-style="normal" 
 >10000</text>
</g>

<g fill="#212121" fill-opacity="1" stroke="#212121" stroke-opacity="1" stroke-width="1" stroke-linecap="square" stroke-linejoin="bevel" transform="matrix(0.75,0,0,0.75,255.775,9)"
font-family="Palatino Linotype" font-size="13" font-weight="700" font-style="normal" 
>
<text fill="#212121" fill-opacity="1" stroke="none" xml:space="preserve" x="0" y="0" font-family="Palatino Linotype" font-size="13" font-weight="700" font-style="normal" 
 >\textbf{Effizienz für $\sym{beta}_{12}$}</text>
</g>

<g fill="#000000" fill-opacity="1" stroke="none" transform="matrix(0.75,0,0,0.75,1.9,-10.1438)"
font-family="Palatino Linotype" font-size="13" font-weight="700" font-style="normal" 
>
<circle cx="441.189" cy="152.294" r="4.33333"/>
</g>

<g fill="none" stroke="#000000" stroke-opacity="1" stroke-width="1.33333" stroke-linecap="butt" stroke-linejoin="miter" stroke-miterlimit="2" transform="matrix(0.75,0,0,0.75,1.9,-10.1438)"
font-family="Palatino Linotype" font-size="13" font-weight="700" font-style="normal" 
>
<path vector-effect="none" fill-rule="evenodd" d="M445.523,152.294 C445.523,149.9 443.583,147.96 441.189,147.96 C438.796,147.96 436.856,149.9 436.856,152.294 C436.856,154.687 438.796,156.627 441.189,156.627 C443.583,156.627 445.523,154.687 445.523,152.294 "/>
</g>

<g fill="#808080" fill-opacity="1" stroke="none" transform="matrix(7.5e-05,0,0,7.5e-05,1.9,-10.1438)"
font-family="Palatino Linotype" font-size="13" font-weight="700" font-style="normal" 
>
<path vector-effect="none" fill-rule="evenodd" d="M4.09108e+06,1.46201e+06 L4.09108e+06,1.51921e+06 L4.14828e+06,1.51921e+06 L4.14828e+06,1.46201e+06 L4.09108e+06,1.46201e+06"/>
</g>

<g fill="none" stroke="#000000" stroke-opacity="1" stroke-width="1.33333" stroke-linecap="butt" stroke-linejoin="miter" stroke-miterlimit="2" transform="matrix(0.75,0,0,0.75,1.9,-10.1438)"
font-family="Palatino Linotype" font-size="13" font-weight="700" font-style="normal" 
>
<path vector-effect="none" fill-rule="evenodd" d="M409.108,146.201 L409.108,151.921 L414.828,151.921 L414.828,146.201 L409.108,146.201"/>
</g>

<g fill="#333333" fill-opacity="1" stroke="none" transform="matrix(7.5e-05,0,0,7.5e-05,1.9,-10.1438)"
font-family="Palatino Linotype" font-size="13" font-weight="700" font-style="normal" 
>
<path vector-effect="none" fill-rule="evenodd" d="M4.91365e+06,569999 L4.95032e+06,618766 L4.98698e+06,569999 L4.95032e+06,521233 L4.91365e+06,569999"/>
</g>

<g fill="none" stroke="#000000" stroke-opacity="1" stroke-width="1.33333" stroke-linecap="butt" stroke-linejoin="miter" stroke-miterlimit="2" transform="matrix(0.75,0,0,0.75,1.9,-10.1438)"
font-family="Palatino Linotype" font-size="13" font-weight="700" font-style="normal" 
>
<path vector-effect="none" fill-rule="evenodd" d="M491.365,57 L495.032,61.8767 L498.698,57 L495.032,52.1233 L491.365,57"/>
</g>

<g fill="#ffffff" fill-opacity="1" stroke="none" transform="matrix(7.5e-05,0,0,7.5e-05,1.9,-10.1438)"
font-family="Palatino Linotype" font-size="13" font-weight="700" font-style="normal" 
>
<path vector-effect="none" fill-rule="evenodd" d="M760000,2.11e+06 L760000,3.36e+06 L1.95e+06,3.36e+06 L1.95e+06,2.11e+06 L760000,2.11e+06"/>
</g>

<g fill="#212121" fill-opacity="0.25098" stroke="#212121" stroke-opacity="0.25098" stroke-dasharray="1,3" stroke-dashoffset="0" stroke-width="1.06667" stroke-linecap="butt" stroke-linejoin="round" transform="matrix(0.75,0,0,0.75,1.9,-10.1438)"
font-family="Palatino Linotype" font-size="13" font-weight="700" font-style="normal" 
>
<polyline fill="none" vector-effect="none" points="92.1856,211 92.1856,336 " />
<polyline fill="none" vector-effect="none" points="137.106,211 137.106,336 " />
<polyline fill="none" vector-effect="none" points="182.027,211 182.027,336 " />
<polyline fill="none" vector-effect="none" points="76,336 195,336 " />
<polyline fill="none" vector-effect="none" points="76,277.805 195,277.805 " />
<polyline fill="none" vector-effect="none" points="76,219.61 195,219.61 " />
</g>

<g fill="#212121" fill-opacity="1" stroke="#212121" stroke-opacity="1" stroke-width="1" stroke-linecap="square" stroke-linejoin="bevel" transform="matrix(0.75,0,0,0.75,27.775,265.406)"
font-family="Palatino Linotype" font-size="13" font-weight="400" font-style="normal" 
>
<text fill="#212121" fill-opacity="1" stroke="none" xml:space="preserve" x="0" y="0" font-family="Palatino Linotype" font-size="13" font-weight="400" font-style="normal" 
 >$\sym{D}_{\textnormal{eff}}$ [\%]</text>
</g>

<g fill="#212121" fill-opacity="1" stroke="#212121" stroke-opacity="1" stroke-width="1.06667" stroke-linecap="square" stroke-linejoin="round" transform="matrix(0.75,0,0,0.75,1.9,-10.1438)"
font-family="Palatino Linotype" font-size="13" font-weight="400" font-style="normal" 
>
<polyline fill="none" vector-effect="none" points="76,336 195,336 " />
<polyline fill="none" vector-effect="none" points="76,211 195,211 " />
<polyline fill="none" vector-effect="none" points="92.1856,336 92.1856,334.75 " />
<polyline fill="none" vector-effect="none" points="92.1856,212.25 92.1856,211 " />
<polyline fill="none" vector-effect="none" points="137.106,336 137.106,334.75 " />
<polyline fill="none" vector-effect="none" points="137.106,212.25 137.106,211 " />
<polyline fill="none" vector-effect="none" points="182.027,336 182.027,334.75 " />
<polyline fill="none" vector-effect="none" points="182.027,212.25 182.027,211 " />
</g>

<g fill="#212121" fill-opacity="1" stroke="#212121" stroke-opacity="1" stroke-width="1" stroke-linecap="square" stroke-linejoin="bevel" transform="matrix(0.75,0,0,0.75,66.5392,251.406)"
font-family="Palatino Linotype" font-size="12" font-weight="400" font-style="normal" 
>
<text fill="#212121" fill-opacity="1" stroke="none" xml:space="preserve" x="0" y="0" font-family="Palatino Linotype" font-size="12" font-weight="400" font-style="normal" 
 >50</text>
</g>

<g fill="#212121" fill-opacity="1" stroke="#212121" stroke-opacity="1" stroke-width="1" stroke-linecap="square" stroke-linejoin="bevel" transform="matrix(0.75,0,0,0.75,100.23,251.406)"
font-family="Palatino Linotype" font-size="12" font-weight="400" font-style="normal" 
>
<text fill="#212121" fill-opacity="1" stroke="none" xml:space="preserve" x="0" y="0" font-family="Palatino Linotype" font-size="12" font-weight="400" font-style="normal" 
 >60</text>
</g>

<g fill="#212121" fill-opacity="1" stroke="#212121" stroke-opacity="1" stroke-width="1" stroke-linecap="square" stroke-linejoin="bevel" transform="matrix(0.75,0,0,0.75,133.92,251.406)"
font-family="Palatino Linotype" font-size="12" font-weight="400" font-style="normal" 
>
<text fill="#212121" fill-opacity="1" stroke="none" xml:space="preserve" x="0" y="0" font-family="Palatino Linotype" font-size="12" font-weight="400" font-style="normal" 
 >70</text>
</g>

<g fill="#212121" fill-opacity="1" stroke="#212121" stroke-opacity="1" stroke-width="1" stroke-linecap="square" stroke-linejoin="bevel" transform="matrix(0,-0.75,0.75,0,28.6,254.231)"
font-family="Palatino Linotype" font-size="13" font-weight="400" font-style="normal" 
>
<text fill="#212121" fill-opacity="1" stroke="none" xml:space="preserve" x="0" y="0" font-family="Palatino Linotype" font-size="13" font-weight="400" font-style="normal" 
 >$\Xi_{\textnormal{eco}, i}$</text>
</g>

<g fill="#212121" fill-opacity="1" stroke="#212121" stroke-opacity="1" stroke-width="1.06667" stroke-linecap="square" stroke-linejoin="round" transform="matrix(0.75,0,0,0.75,1.9,-10.1438)"
font-family="Palatino Linotype" font-size="13" font-weight="400" font-style="normal" 
>
<polyline fill="none" vector-effect="none" points="76,336 76,211 " />
<polyline fill="none" vector-effect="none" points="195,336 195,211 " />
<polyline fill="none" vector-effect="none" points="76,336 77.25,336 " />
<polyline fill="none" vector-effect="none" points="193.75,336 195,336 " />
<polyline fill="none" vector-effect="none" points="76,277.805 77.25,277.805 " />
<polyline fill="none" vector-effect="none" points="193.75,277.805 195,277.805 " />
<polyline fill="none" vector-effect="none" points="76,219.61 77.25,219.61 " />
<polyline fill="none" vector-effect="none" points="193.75,219.61 195,219.61 " />
</g>

<g fill="#212121" fill-opacity="1" stroke="#212121" stroke-opacity="1" stroke-width="1" stroke-linecap="square" stroke-linejoin="bevel" transform="matrix(0.75,0,0,0.75,51.6,243.731)"
font-family="Palatino Linotype" font-size="12" font-weight="400" font-style="normal" 
>
<text fill="#212121" fill-opacity="1" stroke="none" xml:space="preserve" x="0" y="0" font-family="Palatino Linotype" font-size="12" font-weight="400" font-style="normal" 
 >0</text>
</g>

<g fill="#212121" fill-opacity="1" stroke="#212121" stroke-opacity="1" stroke-width="1" stroke-linecap="square" stroke-linejoin="bevel" transform="matrix(0.75,0,0,0.75,38.1,200.085)"
font-family="Palatino Linotype" font-size="12" font-weight="400" font-style="normal" 
>
<text fill="#212121" fill-opacity="1" stroke="none" xml:space="preserve" x="0" y="0" font-family="Palatino Linotype" font-size="12" font-weight="400" font-style="normal" 
 >5000</text>
</g>

<g fill="#212121" fill-opacity="1" stroke="#212121" stroke-opacity="1" stroke-width="1" stroke-linecap="square" stroke-linejoin="bevel" transform="matrix(0.75,0,0,0.75,33.6,156.439)"
font-family="Palatino Linotype" font-size="12" font-weight="400" font-style="normal" 
>
<text fill="#212121" fill-opacity="1" stroke="none" xml:space="preserve" x="0" y="0" font-family="Palatino Linotype" font-size="12" font-weight="400" font-style="normal" 
 >10000</text>
</g>

<g fill="#212121" fill-opacity="1" stroke="#212121" stroke-opacity="1" stroke-width="1" stroke-linecap="square" stroke-linejoin="bevel" transform="matrix(0.75,0,0,0.75,17.2751,143.25)"
font-family="Palatino Linotype" font-size="13" font-weight="700" font-style="normal" 
>
<text fill="#212121" fill-opacity="1" stroke="none" xml:space="preserve" x="0" y="0" font-family="Palatino Linotype" font-size="13" font-weight="700" font-style="normal" 
 >\textbf{Effizienz für $\sym{beta}_{11}$}</text>
</g>

<g fill="#000000" fill-opacity="1" stroke="none" transform="matrix(0.75,0,0,0.75,1.9,-10.1438)"
font-family="Palatino Linotype" font-size="13" font-weight="700" font-style="normal" 
>
<circle cx="123.189" cy="328.156" r="4.33333"/>
</g>

<g fill="none" stroke="#000000" stroke-opacity="1" stroke-width="1.33333" stroke-linecap="butt" stroke-linejoin="miter" stroke-miterlimit="2" transform="matrix(0.75,0,0,0.75,1.9,-10.1438)"
font-family="Palatino Linotype" font-size="13" font-weight="700" font-style="normal" 
>
<path vector-effect="none" fill-rule="evenodd" d="M127.523,328.156 C127.523,325.763 125.583,323.823 123.189,323.823 C120.796,323.823 118.856,325.763 118.856,328.156 C118.856,330.549 120.796,332.489 123.189,332.489 C125.583,332.489 127.523,330.549 127.523,328.156 "/>
</g>

<g fill="#808080" fill-opacity="1" stroke="none" transform="matrix(7.5e-05,0,0,7.5e-05,1.9,-10.1438)"
font-family="Palatino Linotype" font-size="13" font-weight="700" font-style="normal" 
>
<path vector-effect="none" fill-rule="evenodd" d="M911082,3.24319e+06 L911082,3.30039e+06 L968282,3.30039e+06 L968282,3.24319e+06 L911082,3.24319e+06"/>
</g>

<g fill="none" stroke="#000000" stroke-opacity="1" stroke-width="1.33333" stroke-linecap="butt" stroke-linejoin="miter" stroke-miterlimit="2" transform="matrix(0.75,0,0,0.75,1.9,-10.1438)"
font-family="Palatino Linotype" font-size="13" font-weight="700" font-style="normal" 
>
<path vector-effect="none" fill-rule="evenodd" d="M91.1083,324.319 L91.1083,330.039 L96.8283,330.039 L96.8283,324.319 L91.1083,324.319"/>
</g>

<g fill="#333333" fill-opacity="1" stroke="none" transform="matrix(7.5e-05,0,0,7.5e-05,1.9,-10.1438)"
font-family="Palatino Linotype" font-size="13" font-weight="700" font-style="normal" 
>
<path vector-effect="none" fill-rule="evenodd" d="M1.73365e+06,2.36e+06 L1.77032e+06,2.40877e+06 L1.80698e+06,2.36e+06 L1.77032e+06,2.31123e+06 L1.73365e+06,2.36e+06"/>
</g>

<g fill="none" stroke="#000000" stroke-opacity="1" stroke-width="1.33333" stroke-linecap="butt" stroke-linejoin="miter" stroke-miterlimit="2" transform="matrix(0.75,0,0,0.75,1.9,-10.1438)"
font-family="Palatino Linotype" font-size="13" font-weight="700" font-style="normal" 
>
<path vector-effect="none" fill-rule="evenodd" d="M173.365,236 L177.032,240.877 L180.698,236 L177.032,231.123 L173.365,236"/>
</g>

<g fill="#ffffff" fill-opacity="1" stroke="none" transform="matrix(7.5e-05,0,0,7.5e-05,1.9,-10.1438)"
font-family="Palatino Linotype" font-size="13" font-weight="700" font-style="normal" 
>
<path vector-effect="none" fill-rule="evenodd" d="M2.35e+06,2.11e+06 L2.35e+06,3.36e+06 L3.54e+06,3.36e+06 L3.54e+06,2.11e+06 L2.35e+06,2.11e+06"/>
</g>

<g fill="#212121" fill-opacity="0.25098" stroke="#212121" stroke-opacity="0.25098" stroke-dasharray="1,3" stroke-dashoffset="0" stroke-width="1.06667" stroke-linecap="butt" stroke-linejoin="round" transform="matrix(0.75,0,0,0.75,1.9,-10.1438)"
font-family="Palatino Linotype" font-size="13" font-weight="700" font-style="normal" 
>
<polyline fill="none" vector-effect="none" points="251.186,211 251.186,336 " />
<polyline fill="none" vector-effect="none" points="296.106,211 296.106,336 " />
<polyline fill="none" vector-effect="none" points="341.027,211 341.027,336 " />
<polyline fill="none" vector-effect="none" points="235,336 354,336 " />
<polyline fill="none" vector-effect="none" points="235,297.203 354,297.203 " />
<polyline fill="none" vector-effect="none" points="235,258.407 354,258.407 " />
<polyline fill="none" vector-effect="none" points="235,219.61 354,219.61 " />
</g>

<g fill="#212121" fill-opacity="1" stroke="#212121" stroke-opacity="1" stroke-width="1" stroke-linecap="square" stroke-linejoin="bevel" transform="matrix(0.75,0,0,0.75,147.025,265.406)"
font-family="Palatino Linotype" font-size="13" font-weight="400" font-style="normal" 
>
<text fill="#212121" fill-opacity="1" stroke="none" xml:space="preserve" x="0" y="0" font-family="Palatino Linotype" font-size="13" font-weight="400" font-style="normal" 
 >$\sym{D}_{\textnormal{eff}}$ [\%]</text>
</g>

<g fill="#212121" fill-opacity="1" stroke="#212121" stroke-opacity="1" stroke-width="1.06667" stroke-linecap="square" stroke-linejoin="round" transform="matrix(0.75,0,0,0.75,1.9,-10.1438)"
font-family="Palatino Linotype" font-size="13" font-weight="400" font-style="normal" 
>
<polyline fill="none" vector-effect="none" points="235,336 354,336 " />
<polyline fill="none" vector-effect="none" points="235,211 354,211 " />
<polyline fill="none" vector-effect="none" points="251.186,336 251.186,334.75 " />
<polyline fill="none" vector-effect="none" points="251.186,212.25 251.186,211 " />
<polyline fill="none" vector-effect="none" points="296.106,336 296.106,334.75 " />
<polyline fill="none" vector-effect="none" points="296.106,212.25 296.106,211 " />
<polyline fill="none" vector-effect="none" points="341.027,336 341.027,334.75 " />
<polyline fill="none" vector-effect="none" points="341.027,212.25 341.027,211 " />
</g>

<g fill="#212121" fill-opacity="1" stroke="#212121" stroke-opacity="1" stroke-width="1" stroke-linecap="square" stroke-linejoin="bevel" transform="matrix(0.75,0,0,0.75,185.789,251.406)"
font-family="Palatino Linotype" font-size="12" font-weight="400" font-style="normal" 
>
<text fill="#212121" fill-opacity="1" stroke="none" xml:space="preserve" x="0" y="0" font-family="Palatino Linotype" font-size="12" font-weight="400" font-style="normal" 
 >50</text>
</g>

<g fill="#212121" fill-opacity="1" stroke="#212121" stroke-opacity="1" stroke-width="1" stroke-linecap="square" stroke-linejoin="bevel" transform="matrix(0.75,0,0,0.75,219.48,251.406)"
font-family="Palatino Linotype" font-size="12" font-weight="400" font-style="normal" 
>
<text fill="#212121" fill-opacity="1" stroke="none" xml:space="preserve" x="0" y="0" font-family="Palatino Linotype" font-size="12" font-weight="400" font-style="normal" 
 >60</text>
</g>

<g fill="#212121" fill-opacity="1" stroke="#212121" stroke-opacity="1" stroke-width="1" stroke-linecap="square" stroke-linejoin="bevel" transform="matrix(0.75,0,0,0.75,253.17,251.406)"
font-family="Palatino Linotype" font-size="12" font-weight="400" font-style="normal" 
>
<text fill="#212121" fill-opacity="1" stroke="none" xml:space="preserve" x="0" y="0" font-family="Palatino Linotype" font-size="12" font-weight="400" font-style="normal" 
 >70</text>
</g>

<g fill="#212121" fill-opacity="1" stroke="#212121" stroke-opacity="1" stroke-width="1.06667" stroke-linecap="square" stroke-linejoin="round" transform="matrix(0.75,0,0,0.75,1.9,-10.1438)"
font-family="Palatino Linotype" font-size="12" font-weight="400" font-style="normal" 
>
<polyline fill="none" vector-effect="none" points="235,336 235,211 " />
<polyline fill="none" vector-effect="none" points="354,336 354,211 " />
<polyline fill="none" vector-effect="none" points="235,336 236.25,336 " />
<polyline fill="none" vector-effect="none" points="352.75,336 354,336 " />
<polyline fill="none" vector-effect="none" points="235,297.203 236.25,297.203 " />
<polyline fill="none" vector-effect="none" points="352.75,297.203 354,297.203 " />
<polyline fill="none" vector-effect="none" points="235,258.407 236.25,258.407 " />
<polyline fill="none" vector-effect="none" points="352.75,258.407 354,258.407 " />
<polyline fill="none" vector-effect="none" points="235,219.61 236.25,219.61 " />
<polyline fill="none" vector-effect="none" points="352.75,219.61 354,219.61 " />
</g>

<g fill="#212121" fill-opacity="1" stroke="#212121" stroke-opacity="1" stroke-width="1" stroke-linecap="square" stroke-linejoin="bevel" transform="matrix(0.75,0,0,0.75,170.85,243.731)"
font-family="Palatino Linotype" font-size="12" font-weight="400" font-style="normal" 
>
<text fill="#212121" fill-opacity="1" stroke="none" xml:space="preserve" x="0" y="0" font-family="Palatino Linotype" font-size="12" font-weight="400" font-style="normal" 
 >0</text>
</g>

<g fill="#212121" fill-opacity="1" stroke="#212121" stroke-opacity="1" stroke-width="1" stroke-linecap="square" stroke-linejoin="bevel" transform="matrix(0.75,0,0,0.75,157.35,214.634)"
font-family="Palatino Linotype" font-size="12" font-weight="400" font-style="normal" 
>
<text fill="#212121" fill-opacity="1" stroke="none" xml:space="preserve" x="0" y="0" font-family="Palatino Linotype" font-size="12" font-weight="400" font-style="normal" 
 >2000</text>
</g>

<g fill="#212121" fill-opacity="1" stroke="#212121" stroke-opacity="1" stroke-width="1" stroke-linecap="square" stroke-linejoin="bevel" transform="matrix(0.75,0,0,0.75,157.35,185.536)"
font-family="Palatino Linotype" font-size="12" font-weight="400" font-style="normal" 
>
<text fill="#212121" fill-opacity="1" stroke="none" xml:space="preserve" x="0" y="0" font-family="Palatino Linotype" font-size="12" font-weight="400" font-style="normal" 
 >4000</text>
</g>

<g fill="#212121" fill-opacity="1" stroke="#212121" stroke-opacity="1" stroke-width="1" stroke-linecap="square" stroke-linejoin="bevel" transform="matrix(0.75,0,0,0.75,157.35,156.439)"
font-family="Palatino Linotype" font-size="12" font-weight="400" font-style="normal" 
>
<text fill="#212121" fill-opacity="1" stroke="none" xml:space="preserve" x="0" y="0" font-family="Palatino Linotype" font-size="12" font-weight="400" font-style="normal" 
 >6000</text>
</g>

<g fill="#212121" fill-opacity="1" stroke="#212121" stroke-opacity="1" stroke-width="1" stroke-linecap="square" stroke-linejoin="bevel" transform="matrix(0.75,0,0,0.75,136.525,143.25)"
font-family="Palatino Linotype" font-size="13" font-weight="700" font-style="normal" 
>
<text fill="#212121" fill-opacity="1" stroke="none" xml:space="preserve" x="0" y="0" font-family="Palatino Linotype" font-size="13" font-weight="700" font-style="normal" 
 >\textbf{Effizienz für $\sym{beta}_{22}$}</text>
</g>

<g fill="#000000" fill-opacity="1" stroke="none" transform="matrix(0.75,0,0,0.75,1.9,-10.1438)"
font-family="Palatino Linotype" font-size="13" font-weight="700" font-style="normal" 
>
<circle cx="282.189" cy="324.234" r="4.33333"/>
</g>

<g fill="none" stroke="#000000" stroke-opacity="1" stroke-width="1.33333" stroke-linecap="butt" stroke-linejoin="miter" stroke-miterlimit="2" transform="matrix(0.75,0,0,0.75,1.9,-10.1438)"
font-family="Palatino Linotype" font-size="13" font-weight="700" font-style="normal" 
>
<path vector-effect="none" fill-rule="evenodd" d="M286.523,324.234 C286.523,321.841 284.583,319.9 282.189,319.9 C279.796,319.9 277.856,321.841 277.856,324.234 C277.856,326.627 279.796,328.567 282.189,328.567 C284.583,328.567 286.523,326.627 286.523,324.234 "/>
</g>

<g fill="#808080" fill-opacity="1" stroke="none" transform="matrix(7.5e-05,0,0,7.5e-05,1.9,-10.1438)"
font-family="Palatino Linotype" font-size="13" font-weight="700" font-style="normal" 
>
<path vector-effect="none" fill-rule="evenodd" d="M2.50108e+06,3.21378e+06 L2.50108e+06,3.27098e+06 L2.55828e+06,3.27098e+06 L2.55828e+06,3.21378e+06 L2.50108e+06,3.21378e+06"/>
</g>

<g fill="none" stroke="#000000" stroke-opacity="1" stroke-width="1.33333" stroke-linecap="butt" stroke-linejoin="miter" stroke-miterlimit="2" transform="matrix(0.75,0,0,0.75,1.9,-10.1438)"
font-family="Palatino Linotype" font-size="13" font-weight="700" font-style="normal" 
>
<path vector-effect="none" fill-rule="evenodd" d="M250.108,321.378 L250.108,327.098 L255.828,327.098 L255.828,321.378 L250.108,321.378"/>
</g>

<g fill="#333333" fill-opacity="1" stroke="none" transform="matrix(7.5e-05,0,0,7.5e-05,1.9,-10.1438)"
font-family="Palatino Linotype" font-size="13" font-weight="700" font-style="normal" 
>
<path vector-effect="none" fill-rule="evenodd" d="M3.32365e+06,2.36e+06 L3.36032e+06,2.40877e+06 L3.39698e+06,2.36e+06 L3.36032e+06,2.31123e+06 L3.32365e+06,2.36e+06"/>
</g>

<g fill="none" stroke="#000000" stroke-opacity="1" stroke-width="1.33333" stroke-linecap="butt" stroke-linejoin="miter" stroke-miterlimit="2" transform="matrix(0.75,0,0,0.75,1.9,-10.1438)"
font-family="Palatino Linotype" font-size="13" font-weight="700" font-style="normal" 
>
<path vector-effect="none" fill-rule="evenodd" d="M332.365,236 L336.032,240.877 L339.698,236 L336.032,231.123 L332.365,236"/>
</g>
</g>
</svg>
