<?xml version="1.0" encoding="UTF-8" standalone="no"?>
<svg width="68.0861mm" height="64.9111mm"
 viewBox="0 0 193 184"
 xmlns="http://www.w3.org/2000/svg" xmlns:xlink="http://www.w3.org/1999/xlink"  version="1.2" baseProfile="tiny">
<title>Qt SVG Document</title>
<desc>MATLAB, The MathWorks, Inc. Version 25.2.0.3042426 R2025b Update 1</desc>
<defs>
</defs>
<g fill="none" stroke="black" stroke-width="1" fill-rule="evenodd" stroke-linecap="square" stroke-linejoin="bevel" >

<g fill="#ffffff" fill-opacity="1" stroke="none" transform="matrix(0.75,0,0,0.75,-13.944,-13.1)"
font-family="MS Shell Dlg 2" font-size="8.25" font-weight="400" font-style="normal" 
>
<path vector-effect="none" fill-rule="evenodd" d="M17,16 L275,16 L275,262 L17,262 L17,16"/>
</g>

<g fill="#ffffff" fill-opacity="1" stroke="none" transform="matrix(7.5e-05,0,0,7.5e-05,-13.944,-13.1)"
font-family="MS Shell Dlg 2" font-size="8.25" font-weight="400" font-style="normal" 
>
<path vector-effect="none" fill-rule="evenodd" d="M390000,200000 L390000,2.19e+06 L2.73e+06,2.19e+06 L2.73e+06,200000 L390000,200000"/>
</g>

<g fill="#212121" fill-opacity="1" stroke="none" transform="matrix(0.75,0,0,0.75,97.1784,180.014)"
font-family="MS Shell Dlg 2" font-size="8.25" font-weight="400" font-style="normal" 
>
<path vector-effect="none" fill-rule="evenodd" d="M1.25,-0.46875 C1.4375,-0.322917 1.70313,-0.25 2.04688,-0.25 C2.38021,-0.25 2.67448,-0.408854 2.92969,-0.726563 C3.1849,-1.04427 3.35938,-1.39583 3.45313,-1.78125 L4.1875,-4.60938 C4.30208,-5.13021 4.35938,-5.48438 4.35938,-5.67188 C4.35938,-5.93229 4.28385,-6.16146 4.13281,-6.35938 C3.98177,-6.55729 3.77604,-6.65625 3.51563,-6.65625 C3.17188,-6.65625 2.85156,-6.55208 2.55469,-6.34375 C2.25781,-6.13542 2.00781,-5.86719 1.80469,-5.53906 C1.60156,-5.21094 1.45833,-4.88021 1.375,-4.54688 C1.35417,-4.48438 1.3125,-4.45313 1.25,-4.45313 L1.0625,-4.45313 C0.979167,-4.45313 0.9375,-4.5 0.9375,-4.59375 L0.9375,-4.64063 C1.04167,-5.03646 1.21875,-5.42448 1.46875,-5.80469 C1.71875,-6.1849 2.02344,-6.49219 2.38281,-6.72656 C2.74219,-6.96094 3.13021,-7.07813 3.54688,-7.07813 C3.93229,-7.07813 4.28385,-6.97396 4.60156,-6.76563 C4.91927,-6.55729 5.14063,-6.27083 5.26563,-5.90625 C5.45313,-6.23958 5.6875,-6.51823 5.96875,-6.74219 C6.25,-6.96615 6.5625,-7.07813 6.90625,-7.07813 C7.13542,-7.07813 7.36979,-7.03646 7.60938,-6.95313 C7.84896,-6.86979 8.04427,-6.74479 8.19531,-6.57813 C8.34635,-6.41146 8.42188,-6.20313 8.42188,-5.95313 C8.42188,-5.68229 8.33333,-5.45052 8.15625,-5.25781 C7.97917,-5.0651 7.75521,-4.96875 7.48438,-4.96875 C7.31771,-4.96875 7.17708,-5.02344 7.0625,-5.13281 C6.94792,-5.24219 6.89063,-5.38021 6.89063,-5.54688 C6.89063,-5.76563 6.96615,-5.96094 7.11719,-6.13281 C7.26823,-6.30469 7.45313,-6.40625 7.67188,-6.4375 C7.47396,-6.58333 7.20833,-6.65625 6.875,-6.65625 C6.53125,-6.65625 6.23177,-6.4974 5.97656,-6.17969 C5.72135,-5.86198 5.54167,-5.51042 5.4375,-5.125 L4.73438,-2.29688 C4.61979,-1.86979 4.5625,-1.51563 4.5625,-1.23438 C4.5625,-0.963542 4.64063,-0.731771 4.79688,-0.539063 C4.95313,-0.346354 5.15625,-0.25 5.40625,-0.25 C5.90625,-0.25 6.35417,-0.46875 6.75,-0.90625 C7.14583,-1.34375 7.40625,-1.82813 7.53125,-2.35938 C7.55208,-2.42188 7.59375,-2.45313 7.65625,-2.45313 L7.84375,-2.45313 C7.88542,-2.45313 7.91927,-2.4375 7.94531,-2.40625 C7.97135,-2.375 7.98438,-2.34375 7.98438,-2.3125 C7.98438,-2.30208 7.97917,-2.28646 7.96875,-2.26563 C7.82292,-1.63021 7.50781,-1.0625 7.02344,-0.5625 C6.53906,-0.0625 5.98958,0.1875 5.375,0.1875 C4.98958,0.1875 4.63802,0.0807292 4.32031,-0.132813 C4.0026,-0.346354 3.78125,-0.635417 3.65625,-1 C3.48958,-0.6875 3.25781,-0.411458 2.96094,-0.171875 C2.66406,0.0677083 2.34896,0.1875 2.01563,0.1875 C1.78646,0.1875 1.55208,0.145833 1.3125,0.0625 C1.07292,-0.0208333 0.877604,-0.145833 0.726563,-0.3125 C0.575521,-0.479167 0.5,-0.692708 0.5,-0.953125 C0.5,-1.20313 0.585938,-1.42969 0.757813,-1.63281 C0.929688,-1.83594 1.14583,-1.9375 1.40625,-1.9375 C1.58333,-1.9375 1.73177,-1.88542 1.85156,-1.78125 C1.97135,-1.67708 2.03125,-1.53646 2.03125,-1.35938 C2.03125,-1.14063 1.95833,-0.947917 1.8125,-0.78125 C1.66667,-0.614583 1.47917,-0.510417 1.25,-0.46875 "/>
</g>

<g fill="#212121" fill-opacity="1" stroke="none" transform="matrix(0.75,0,0,0.75,104.094,181.829)"
font-family="MS Shell Dlg 2" font-size="8.25" font-weight="400" font-style="normal" 
>
<path vector-effect="none" fill-rule="evenodd" d="M1.01563,0 L1.01563,-0.390625 C1.93229,-0.390625 2.39063,-0.505208 2.39063,-0.734375 L2.39063,-6.51563 C2.01563,-6.32813 1.53646,-6.23438 0.953125,-6.23438 L0.953125,-6.625 C1.84896,-6.625 2.52604,-6.85938 2.98438,-7.32813 L3.14063,-7.32813 C3.17188,-7.32813 3.19792,-7.31771 3.21875,-7.29688 C3.23958,-7.27604 3.25,-7.25521 3.25,-7.23438 L3.25,-0.734375 C3.25,-0.505208 3.70833,-0.390625 4.625,-0.390625 L4.625,0 L1.01563,0"/>
</g>

<g fill="#212121" fill-opacity="1" stroke="#212121" stroke-opacity="1" stroke-width="1.06667" stroke-linecap="square" stroke-linejoin="round" transform="matrix(0.75,0,0,0.75,-13.944,-13.1)"
font-family="MS Shell Dlg 2" font-size="8.25" font-weight="400" font-style="normal" 
>
<polyline fill="none" vector-effect="none" points="39,219 273,219 " />
<polyline fill="none" vector-effect="none" points="39,20 273,20 " />
<polyline fill="none" vector-effect="none" points="78,219 78,216.66 " />
<polyline fill="none" vector-effect="none" points="78,22.34 78,20 " />
<polyline fill="none" vector-effect="none" points="234,219 234,216.66 " />
<polyline fill="none" vector-effect="none" points="234,22.34 234,20 " />
</g>

<g fill="#212121" fill-opacity="1" stroke="none" transform="matrix(0.75,0,0,0.75,39.9727,164.59)"
font-family="MS Shell Dlg 2" font-size="8.25" font-weight="400" font-style="normal" 
>
<path vector-effect="none" fill-rule="evenodd" d="M0.15625,-2.59375 L0.15625,-3.45313 L3.85938,-3.45313 L3.85938,-2.59375 L0.15625,-2.59375"/>
</g>

<g fill="#212121" fill-opacity="1" stroke="none" transform="matrix(0.75,0,0,0.75,43.6394,164.59)"
font-family="MS Shell Dlg 2" font-size="8.25" font-weight="400" font-style="normal" 
>
<path vector-effect="none" fill-rule="evenodd" d="M1.29688,0 L1.29688,-0.5 C2.46354,-0.5 3.04688,-0.645833 3.04688,-0.9375 L3.04688,-8.28125 C2.56771,-8.05208 1.95833,-7.9375 1.21875,-7.9375 L1.21875,-8.42188 C2.36458,-8.42188 3.22917,-8.72396 3.8125,-9.32813 L4,-9.32813 C4.03125,-9.32813 4.0625,-9.3151 4.09375,-9.28906 C4.125,-9.26302 4.14063,-9.23438 4.14063,-9.20313 L4.14063,-0.9375 C4.14063,-0.645833 4.72396,-0.5 5.89063,-0.5 L5.89063,0 L1.29688,0"/>
</g>

<g fill="#212121" fill-opacity="1" stroke="none" transform="matrix(0.75,0,0,0.75,154.528,164.59)"
font-family="MS Shell Dlg 2" font-size="8.25" font-weight="400" font-style="normal" 
>
<path vector-effect="none" fill-rule="evenodd" d="M1.04688,-3.21875 C0.973958,-3.21875 0.911458,-3.2474 0.859375,-3.30469 C0.807292,-3.36198 0.78125,-3.42708 0.78125,-3.5 C0.78125,-3.57292 0.807292,-3.63802 0.859375,-3.69531 C0.911458,-3.7526 0.973958,-3.78125 1.04688,-3.78125 L5.17188,-3.78125 L5.17188,-7.90625 C5.17188,-7.97917 5.19792,-8.03906 5.25,-8.08594 C5.30208,-8.13281 5.36979,-8.15625 5.45313,-8.15625 C5.51563,-8.15625 5.57813,-8.13281 5.64063,-8.08594 C5.70313,-8.03906 5.73438,-7.97917 5.73438,-7.90625 L5.73438,-3.78125 L9.84375,-3.78125 C9.91667,-3.78125 9.97656,-3.7526 10.0234,-3.69531 C10.0703,-3.63802 10.0938,-3.57292 10.0938,-3.5 C10.0938,-3.42708 10.0703,-3.36198 10.0234,-3.30469 C9.97656,-3.2474 9.91667,-3.21875 9.84375,-3.21875 L5.73438,-3.21875 L5.73438,0.90625 C5.73438,0.979167 5.70313,1.03906 5.64063,1.08594 C5.57813,1.13281 5.51563,1.15625 5.45313,1.15625 C5.36979,1.15625 5.30208,1.13281 5.25,1.08594 C5.19792,1.03906 5.17188,0.979167 5.17188,0.90625 L5.17188,-3.21875 L1.04688,-3.21875"/>
</g>

<g fill="#212121" fill-opacity="1" stroke="none" transform="matrix(0.75,0,0,0.75,163.084,164.59)"
font-family="MS Shell Dlg 2" font-size="8.25" font-weight="400" font-style="normal" 
>
<path vector-effect="none" fill-rule="evenodd" d="M1.29688,0 L1.29688,-0.5 C2.46354,-0.5 3.04688,-0.645833 3.04688,-0.9375 L3.04688,-8.28125 C2.56771,-8.05208 1.95833,-7.9375 1.21875,-7.9375 L1.21875,-8.42188 C2.36458,-8.42188 3.22917,-8.72396 3.8125,-9.32813 L4,-9.32813 C4.03125,-9.32813 4.0625,-9.3151 4.09375,-9.28906 C4.125,-9.26302 4.14063,-9.23438 4.14063,-9.20313 L4.14063,-0.9375 C4.14063,-0.645833 4.72396,-0.5 5.89063,-0.5 L5.89063,0 L1.29688,0"/>
</g>

<g fill="#212121" fill-opacity="1" stroke="none" transform="matrix(0,-0.75,0.75,0,6.75,79.7082)"
font-family="MS Shell Dlg 2" font-size="8.25" font-weight="400" font-style="normal" 
>
<path vector-effect="none" fill-rule="evenodd" d="M1.34375,2.29688 C1.57292,2.68229 1.96354,2.875 2.51563,2.875 C3.02604,2.875 3.46615,2.69531 3.83594,2.33594 C4.20573,1.97656 4.5026,1.54688 4.72656,1.04688 C4.95052,0.546875 5.125,0.03125 5.25,-0.5 C4.78125,-0.0416667 4.27083,0.1875 3.71875,0.1875 C3.29167,0.1875 2.92969,0.111979 2.63281,-0.0390625 C2.33594,-0.190104 2.10677,-0.408854 1.94531,-0.695313 C1.78385,-0.981771 1.70313,-1.33333 1.70313,-1.75 C1.70313,-2.09375 1.75,-2.45052 1.84375,-2.82031 C1.9375,-3.1901 2.06771,-3.59896 2.23438,-4.04688 C2.40104,-4.49479 2.54688,-4.88542 2.67188,-5.21875 C2.81771,-5.61458 2.89063,-5.9375 2.89063,-6.1875 C2.89063,-6.5 2.77083,-6.65625 2.53125,-6.65625 C2.11458,-6.65625 1.76823,-6.4401 1.49219,-6.00781 C1.21615,-5.57552 1.01563,-5.08854 0.890625,-4.54688 C0.869792,-4.48438 0.822917,-4.45313 0.75,-4.45313 L0.5625,-4.45313 C0.479167,-4.45313 0.4375,-4.5 0.4375,-4.59375 L0.4375,-4.64063 C0.604167,-5.27604 0.864583,-5.84115 1.21875,-6.33594 C1.57292,-6.83073 2.02083,-7.07813 2.5625,-7.07813 C2.94792,-7.07813 3.27083,-6.95313 3.53125,-6.70313 C3.79167,-6.45313 3.92188,-6.13542 3.92188,-5.75 C3.92188,-5.55208 3.88021,-5.34375 3.79688,-5.125 C3.74479,-4.98958 3.63542,-4.70313 3.46875,-4.26563 C3.30208,-3.82813 3.17448,-3.46615 3.08594,-3.17969 C2.9974,-2.89323 2.92448,-2.61198 2.86719,-2.33594 C2.8099,-2.0599 2.78125,-1.78646 2.78125,-1.51563 C2.78125,-1.16146 2.85677,-0.861979 3.00781,-0.617188 C3.15885,-0.372396 3.40104,-0.25 3.73438,-0.25 C4.39063,-0.25 4.98438,-0.651042 5.51563,-1.45313 L6.71875,-6.39063 C6.76042,-6.52604 6.84635,-6.64583 6.97656,-6.75 C7.10677,-6.85417 7.24479,-6.90625 7.39063,-6.90625 C7.52604,-6.90625 7.64063,-6.86458 7.73438,-6.78125 C7.82813,-6.69792 7.875,-6.58854 7.875,-6.45313 C7.875,-6.39063 7.86979,-6.34896 7.85938,-6.32813 L6.28125,0.046875 C6.13542,0.588542 5.875,1.11198 5.5,1.61719 C5.125,2.1224 4.67448,2.52604 4.14844,2.82813 C3.6224,3.13021 3.07292,3.28125 2.5,3.28125 C2.21875,3.28125 1.94271,3.22917 1.67188,3.125 C1.40104,3.02083 1.18229,2.86198 1.01563,2.64844 C0.848958,2.4349 0.765625,2.18229 0.765625,1.89063 C0.765625,1.59896 0.851563,1.34635 1.02344,1.13281 C1.19531,0.919271 1.42708,0.8125 1.71875,0.8125 C1.88542,0.8125 2.02865,0.867188 2.14844,0.976563 C2.26823,1.08594 2.32813,1.22396 2.32813,1.39063 C2.32813,1.64063 2.23698,1.85677 2.05469,2.03906 C1.8724,2.22135 1.65625,2.3125 1.40625,2.3125 C1.39583,2.30208 1.38542,2.29688 1.375,2.29688 C1.36458,2.29688 1.35417,2.29688 1.34375,2.29688 "/>
</g>

<g fill="#212121" fill-opacity="1" stroke="#212121" stroke-opacity="1" stroke-width="1.06667" stroke-linecap="square" stroke-linejoin="round" transform="matrix(0.75,0,0,0.75,-13.944,-13.1)"
font-family="MS Shell Dlg 2" font-size="8.25" font-weight="400" font-style="normal" 
>
<polyline fill="none" vector-effect="none" points="39,219 39,20 " />
<polyline fill="none" vector-effect="none" points="273,219 273,20 " />
</g>

<g fill="#000000" fill-opacity="1" stroke="#000000" stroke-opacity="1" stroke-width="2" stroke-linecap="butt" stroke-linejoin="round" transform="matrix(0.75,0,0,0.75,-13.944,-13.1)"
font-family="MS Shell Dlg 2" font-size="8.25" font-weight="400" font-style="normal" 
>
<polyline fill="none" vector-effect="none" points="78,139.4 234,59.8 " />
</g>

<g fill="#000000" fill-opacity="1" stroke="none" transform="matrix(0.75,0,0,0.75,-13.944,-13.1)"
font-family="MS Shell Dlg 2" font-size="8.25" font-weight="400" font-style="normal" 
>
<circle cx="78" cy="139.4" r="4"/>
</g>

<g fill="none" stroke="#000000" stroke-opacity="1" stroke-width="2" stroke-linecap="butt" stroke-linejoin="miter" stroke-miterlimit="2" transform="matrix(0.75,0,0,0.75,-13.944,-13.1)"
font-family="MS Shell Dlg 2" font-size="8.25" font-weight="400" font-style="normal" 
>
<path vector-effect="none" fill-rule="evenodd" d="M82,139.4 C82,137.191 80.2091,135.4 78,135.4 C75.7909,135.4 74,137.191 74,139.4 C74,141.609 75.7909,143.4 78,143.4 C80.2091,143.4 82,141.609 82,139.4 "/>
</g>

<g fill="#000000" fill-opacity="1" stroke="none" transform="matrix(0.75,0,0,0.75,-13.944,-13.1)"
font-family="MS Shell Dlg 2" font-size="8.25" font-weight="400" font-style="normal" 
>
<circle cx="234" cy="59.8" r="4"/>
</g>

<g fill="none" stroke="#000000" stroke-opacity="1" stroke-width="2" stroke-linecap="butt" stroke-linejoin="miter" stroke-miterlimit="2" transform="matrix(0.75,0,0,0.75,-13.944,-13.1)"
font-family="MS Shell Dlg 2" font-size="8.25" font-weight="400" font-style="normal" 
>
<path vector-effect="none" fill-rule="evenodd" d="M238,59.8 C238,57.5909 236.209,55.8 234,55.8 C231.791,55.8 230,57.5909 230,59.8 C230,62.0091 231.791,63.8 234,63.8 C236.209,63.8 238,62.0091 238,59.8 "/>
</g>

<g fill="#212121" fill-opacity="1" stroke="none" transform="matrix(0.662211,-0.352104,0.352104,0.662211,57.3828,69.689)"
font-family="MS Shell Dlg 2" font-size="8.25" font-weight="400" font-style="normal" 
>
<path vector-effect="none" fill-rule="evenodd" d="M1.01563,-0.375 C1.17188,-0.260417 1.38542,-0.203125 1.65625,-0.203125 C1.92708,-0.203125 2.16667,-0.333333 2.375,-0.59375 C2.58333,-0.854167 2.72917,-1.14063 2.8125,-1.45313 L3.39063,-3.75 C3.48438,-4.16667 3.53125,-4.45313 3.53125,-4.60938 C3.53125,-4.81771 3.47135,-5.0026 3.35156,-5.16406 C3.23177,-5.32552 3.0625,-5.40625 2.84375,-5.40625 C2.57292,-5.40625 2.31771,-5.32031 2.07813,-5.14844 C1.83854,-4.97656 1.63542,-4.76042 1.46875,-4.5 C1.30208,-4.23958 1.1875,-3.97396 1.125,-3.70313 C1.10417,-3.64063 1.06771,-3.60938 1.01563,-3.60938 L0.859375,-3.60938 C0.786458,-3.60938 0.75,-3.65104 0.75,-3.73438 L0.75,-3.76563 C0.833333,-4.08854 0.976563,-4.40365 1.17969,-4.71094 C1.38281,-5.01823 1.63281,-5.26823 1.92969,-5.46094 C2.22656,-5.65365 2.54167,-5.75 2.875,-5.75 C3.19792,-5.75 3.48698,-5.66406 3.74219,-5.49219 C3.9974,-5.32031 4.17708,-5.08854 4.28125,-4.79688 C4.42708,-5.06771 4.61458,-5.29427 4.84375,-5.47656 C5.07292,-5.65885 5.32813,-5.75 5.60938,-5.75 C5.79688,-5.75 5.98698,-5.71615 6.17969,-5.64844 C6.3724,-5.58073 6.53125,-5.47917 6.65625,-5.34375 C6.78125,-5.20833 6.84375,-5.04167 6.84375,-4.84375 C6.84375,-4.625 6.77083,-4.4349 6.625,-4.27344 C6.47917,-4.11198 6.29688,-4.03125 6.07813,-4.03125 C5.94271,-4.03125 5.82813,-4.07552 5.73438,-4.16406 C5.64063,-4.2526 5.59375,-4.36458 5.59375,-4.5 C5.59375,-4.6875 5.65625,-4.84896 5.78125,-4.98438 C5.90625,-5.11979 6.05729,-5.19792 6.23438,-5.21875 C6.07813,-5.34375 5.85938,-5.40625 5.57813,-5.40625 C5.29688,-5.40625 5.05469,-5.27865 4.85156,-5.02344 C4.64844,-4.76823 4.50521,-4.47917 4.42188,-4.15625 L3.84375,-1.85938 C3.75,-1.51563 3.70313,-1.23438 3.70313,-1.01563 C3.70313,-0.786458 3.76563,-0.59375 3.89063,-0.4375 C4.01563,-0.28125 4.18229,-0.203125 4.39063,-0.203125 C4.79688,-0.203125 5.15885,-0.382813 5.47656,-0.742188 C5.79427,-1.10156 6.00521,-1.49479 6.10938,-1.92188 C6.13021,-1.96354 6.16667,-1.98438 6.21875,-1.98438 L6.375,-1.98438 C6.40625,-1.98438 6.43229,-1.97396 6.45313,-1.95313 C6.47396,-1.93229 6.48438,-1.90625 6.48438,-1.875 C6.48438,-1.86458 6.47917,-1.85417 6.46875,-1.84375 C6.35417,-1.32292 6.09896,-0.861979 5.70313,-0.460938 C5.30729,-0.0598958 4.86458,0.140625 4.375,0.140625 C4.05208,0.140625 3.76302,0.0546875 3.50781,-0.117188 C3.2526,-0.289063 3.07292,-0.520833 2.96875,-0.8125 C2.83333,-0.552083 2.64583,-0.328125 2.40625,-0.140625 C2.16667,0.046875 1.91146,0.140625 1.64063,0.140625 C1.45313,0.140625 1.26042,0.109375 1.0625,0.046875 C0.864583,-0.015625 0.705729,-0.114583 0.585938,-0.25 C0.466146,-0.385417 0.40625,-0.557292 0.40625,-0.765625 C0.40625,-0.973958 0.476563,-1.16146 0.617188,-1.32813 C0.757813,-1.49479 0.932292,-1.57813 1.14063,-1.57813 C1.28646,-1.57813 1.40885,-1.53385 1.50781,-1.44531 C1.60677,-1.35677 1.65625,-1.24479 1.65625,-1.10938 C1.65625,-0.932292 1.59375,-0.776042 1.46875,-0.640625 C1.34375,-0.505208 1.19271,-0.416667 1.01563,-0.375 "/>
</g>

<g fill="#212121" fill-opacity="1" stroke="none" transform="matrix(0.662211,-0.352104,0.352104,0.662211,63.1332,68.3303)"
font-family="MS Shell Dlg 2" font-size="8.25" font-weight="400" font-style="normal" 
>
<path vector-effect="none" fill-rule="evenodd" d="M0.453125,0 L0.453125,-0.234375 C0.453125,-0.255208 0.458333,-0.276042 0.46875,-0.296875 L1.85938,-1.84375 C2.07813,-2.07292 2.2526,-2.26302 2.38281,-2.41406 C2.51302,-2.5651 2.64323,-2.74219 2.77344,-2.94531 C2.90365,-3.14844 3.00521,-3.35417 3.07813,-3.5625 C3.15104,-3.77083 3.1875,-3.99479 3.1875,-4.23438 C3.1875,-4.47396 3.14063,-4.70833 3.04688,-4.9375 C2.95313,-5.16667 2.81771,-5.34635 2.64063,-5.47656 C2.46354,-5.60677 2.24479,-5.67188 1.98438,-5.67188 C1.72396,-5.67188 1.48958,-5.59375 1.28125,-5.4375 C1.07292,-5.28125 0.927083,-5.07813 0.84375,-4.82813 C0.875,-4.83854 0.90625,-4.84375 0.9375,-4.84375 C1.07292,-4.84375 1.1901,-4.79948 1.28906,-4.71094 C1.38802,-4.6224 1.4375,-4.50521 1.4375,-4.35938 C1.4375,-4.22396 1.38802,-4.10677 1.28906,-4.00781 C1.1901,-3.90885 1.07292,-3.85938 0.9375,-3.85938 C0.802083,-3.85938 0.6875,-3.90885 0.59375,-4.00781 C0.5,-4.10677 0.453125,-4.22396 0.453125,-4.35938 C0.453125,-4.57813 0.494792,-4.78646 0.578125,-4.98438 C0.661458,-5.18229 0.783854,-5.35938 0.945313,-5.51563 C1.10677,-5.67188 1.28646,-5.79167 1.48438,-5.875 C1.68229,-5.95833 1.89583,-6 2.125,-6 C2.46875,-6 2.78906,-5.92708 3.08594,-5.78125 C3.38281,-5.63542 3.61719,-5.42969 3.78906,-5.16406 C3.96094,-4.89844 4.04688,-4.58854 4.04688,-4.23438 C4.04688,-3.97396 3.98958,-3.72656 3.875,-3.49219 C3.76042,-3.25781 3.61458,-3.04427 3.4375,-2.85156 C3.26042,-2.65885 3.03125,-2.4401 2.75,-2.19531 C2.46875,-1.95052 2.28646,-1.78646 2.20313,-1.70313 L1.17188,-0.734375 L2.04688,-0.734375 C2.47396,-0.734375 2.82813,-0.736979 3.10938,-0.742188 C3.39063,-0.747396 3.54167,-0.760417 3.5625,-0.78125 C3.63542,-0.854167 3.70833,-1.13021 3.78125,-1.60938 L4.04688,-1.60938 L3.78125,0 L0.453125,0"/>
</g>

<g fill="#212121" fill-opacity="1" stroke="none" transform="matrix(0.662211,-0.352104,0.352104,0.662211,68.4134,63.8239)"
font-family="MS Shell Dlg 2" font-size="8.25" font-weight="400" font-style="normal" 
>
<path vector-effect="none" fill-rule="evenodd" d="M0.984375,-1.73438 C0.911458,-1.73438 0.851563,-1.76042 0.804688,-1.8125 C0.757813,-1.86458 0.734375,-1.92188 0.734375,-1.98438 C0.734375,-2.05729 0.757813,-2.11979 0.804688,-2.17188 C0.851563,-2.22396 0.911458,-2.25 0.984375,-2.25 L9.14063,-2.25 C9.20313,-2.25 9.25781,-2.22396 9.30469,-2.17188 C9.35156,-2.11979 9.375,-2.05729 9.375,-1.98438 C9.375,-1.92188 9.35156,-1.86458 9.30469,-1.8125 C9.25781,-1.76042 9.20313,-1.73438 9.14063,-1.73438 L0.984375,-1.73438 M0.984375,-4.25 C0.911458,-4.25 0.851563,-4.27604 0.804688,-4.32813 C0.757813,-4.38021 0.734375,-4.44271 0.734375,-4.51563 C0.734375,-4.57813 0.757813,-4.63802 0.804688,-4.69531 C0.851563,-4.7526 0.911458,-4.78125 0.984375,-4.78125 L9.14063,-4.78125 C9.20313,-4.78125 9.25781,-4.7526 9.30469,-4.69531 C9.35156,-4.63802 9.375,-4.57813 9.375,-4.51563 C9.375,-4.44271 9.35156,-4.38021 9.30469,-4.32813 C9.25781,-4.27604 9.20313,-4.25 9.14063,-4.25 L0.984375,-4.25"/>
</g>

<g fill="#212121" fill-opacity="1" stroke="none" transform="matrix(0.662211,-0.352104,0.352104,0.662211,77.7334,58.8684)"
font-family="MS Shell Dlg 2" font-size="8.25" font-weight="400" font-style="normal" 
>
<path vector-effect="none" fill-rule="evenodd" d="M0.984375,-2.98438 C0.911458,-2.98438 0.851563,-3.01302 0.804688,-3.07031 C0.757813,-3.1276 0.734375,-3.1875 0.734375,-3.25 C0.734375,-3.3125 0.757813,-3.3724 0.804688,-3.42969 C0.851563,-3.48698 0.911458,-3.51563 0.984375,-3.51563 L4.79688,-3.51563 L4.79688,-7.34375 C4.79688,-7.41667 4.82292,-7.47396 4.875,-7.51563 C4.92708,-7.55729 4.98958,-7.57813 5.0625,-7.57813 C5.125,-7.57813 5.18229,-7.55729 5.23438,-7.51563 C5.28646,-7.47396 5.3125,-7.41667 5.3125,-7.34375 L5.3125,-3.51563 L9.14063,-3.51563 C9.20313,-3.51563 9.25781,-3.48698 9.30469,-3.42969 C9.35156,-3.3724 9.375,-3.3125 9.375,-3.25 C9.375,-3.1875 9.35156,-3.1276 9.30469,-3.07031 C9.25781,-3.01302 9.20313,-2.98438 9.14063,-2.98438 L5.3125,-2.98438 L5.3125,0.84375 C5.3125,0.916667 5.28646,0.973958 5.23438,1.01563 C5.18229,1.05729 5.125,1.07813 5.0625,1.07813 C4.98958,1.07813 4.92708,1.05729 4.875,1.01563 C4.82292,0.973958 4.79688,0.916667 4.79688,0.84375 L4.79688,-2.98438 L0.984375,-2.98438"/>
</g>

<g fill="#212121" fill-opacity="1" stroke="none" transform="matrix(0.662211,-0.352104,0.352104,0.662211,84.6008,55.217)"
font-family="MS Shell Dlg 2" font-size="8.25" font-weight="400" font-style="normal" 
>
<path vector-effect="none" fill-rule="evenodd" d="M1.20313,0 L1.20313,-0.453125 C2.28646,-0.453125 2.82813,-0.59375 2.82813,-0.875 L2.82813,-7.6875 C2.38021,-7.47917 1.8125,-7.375 1.125,-7.375 L1.125,-7.82813 C2.1875,-7.82813 2.98958,-8.10417 3.53125,-8.65625 L3.71875,-8.65625 C3.75,-8.65625 3.77865,-8.64583 3.80469,-8.625 C3.83073,-8.60417 3.84375,-8.57813 3.84375,-8.54688 L3.84375,-0.875 C3.84375,-0.59375 4.38542,-0.453125 5.46875,-0.453125 L5.46875,0 L1.20313,0"/>
</g>

<g fill="#000000" fill-opacity="1" stroke="#000000" stroke-opacity="1" stroke-dasharray="8,8" stroke-dashoffset="0" stroke-width="2" stroke-linecap="butt" stroke-linejoin="round" transform="matrix(0.75,0,0,0.75,-13.944,-13.1)"
font-family="MS Shell Dlg 2" font-size="8.25" font-weight="400" font-style="normal" 
>
<polyline fill="none" vector-effect="none" points="78,179.2 234,159.3 " />
</g>

<g fill="#000000" fill-opacity="1" stroke="none" transform="matrix(0.75,0,0,0.75,-13.944,-13.1)"
font-family="MS Shell Dlg 2" font-size="8.25" font-weight="400" font-style="normal" 
>
<circle cx="78" cy="179.2" r="4"/>
</g>

<g fill="none" stroke="#000000" stroke-opacity="1" stroke-width="2" stroke-linecap="butt" stroke-linejoin="miter" stroke-miterlimit="2" transform="matrix(0.75,0,0,0.75,-13.944,-13.1)"
font-family="MS Shell Dlg 2" font-size="8.25" font-weight="400" font-style="normal" 
>
<path vector-effect="none" fill-rule="evenodd" d="M82,179.2 C82,176.991 80.2091,175.2 78,175.2 C75.7909,175.2 74,176.991 74,179.2 C74,181.409 75.7909,183.2 78,183.2 C80.2091,183.2 82,181.409 82,179.2 "/>
</g>

<g fill="#000000" fill-opacity="1" stroke="none" transform="matrix(0.75,0,0,0.75,-13.944,-13.1)"
font-family="MS Shell Dlg 2" font-size="8.25" font-weight="400" font-style="normal" 
>
<circle cx="234" cy="159.3" r="4"/>
</g>

<g fill="none" stroke="#000000" stroke-opacity="1" stroke-width="2" stroke-linecap="butt" stroke-linejoin="miter" stroke-miterlimit="2" transform="matrix(0.75,0,0,0.75,-13.944,-13.1)"
font-family="MS Shell Dlg 2" font-size="8.25" font-weight="400" font-style="normal" 
>
<path vector-effect="none" fill-rule="evenodd" d="M238,159.3 C238,157.091 236.209,155.3 234,155.3 C231.791,155.3 230,157.091 230,159.3 C230,161.509 231.791,163.3 234,163.3 C236.209,163.3 238,161.509 238,159.3 "/>
</g>

<g fill="#212121" fill-opacity="1" stroke="none" transform="matrix(0.740766,-0.117326,0.117326,0.740766,56.6315,111.73)"
font-family="MS Shell Dlg 2" font-size="8.25" font-weight="400" font-style="normal" 
>
<path vector-effect="none" fill-rule="evenodd" d="M1.01563,-0.375 C1.17188,-0.260417 1.38542,-0.203125 1.65625,-0.203125 C1.92708,-0.203125 2.16667,-0.333333 2.375,-0.59375 C2.58333,-0.854167 2.72917,-1.14063 2.8125,-1.45313 L3.39063,-3.75 C3.48438,-4.16667 3.53125,-4.45313 3.53125,-4.60938 C3.53125,-4.81771 3.47135,-5.0026 3.35156,-5.16406 C3.23177,-5.32552 3.0625,-5.40625 2.84375,-5.40625 C2.57292,-5.40625 2.31771,-5.32031 2.07813,-5.14844 C1.83854,-4.97656 1.63542,-4.76042 1.46875,-4.5 C1.30208,-4.23958 1.1875,-3.97396 1.125,-3.70313 C1.10417,-3.64063 1.06771,-3.60938 1.01563,-3.60938 L0.859375,-3.60938 C0.786458,-3.60938 0.75,-3.65104 0.75,-3.73438 L0.75,-3.76563 C0.833333,-4.08854 0.976563,-4.40365 1.17969,-4.71094 C1.38281,-5.01823 1.63281,-5.26823 1.92969,-5.46094 C2.22656,-5.65365 2.54167,-5.75 2.875,-5.75 C3.19792,-5.75 3.48698,-5.66406 3.74219,-5.49219 C3.9974,-5.32031 4.17708,-5.08854 4.28125,-4.79688 C4.42708,-5.06771 4.61458,-5.29427 4.84375,-5.47656 C5.07292,-5.65885 5.32813,-5.75 5.60938,-5.75 C5.79688,-5.75 5.98698,-5.71615 6.17969,-5.64844 C6.3724,-5.58073 6.53125,-5.47917 6.65625,-5.34375 C6.78125,-5.20833 6.84375,-5.04167 6.84375,-4.84375 C6.84375,-4.625 6.77083,-4.4349 6.625,-4.27344 C6.47917,-4.11198 6.29688,-4.03125 6.07813,-4.03125 C5.94271,-4.03125 5.82813,-4.07552 5.73438,-4.16406 C5.64063,-4.2526 5.59375,-4.36458 5.59375,-4.5 C5.59375,-4.6875 5.65625,-4.84896 5.78125,-4.98438 C5.90625,-5.11979 6.05729,-5.19792 6.23438,-5.21875 C6.07813,-5.34375 5.85938,-5.40625 5.57813,-5.40625 C5.29688,-5.40625 5.05469,-5.27865 4.85156,-5.02344 C4.64844,-4.76823 4.50521,-4.47917 4.42188,-4.15625 L3.84375,-1.85938 C3.75,-1.51563 3.70313,-1.23438 3.70313,-1.01563 C3.70313,-0.786458 3.76563,-0.59375 3.89063,-0.4375 C4.01563,-0.28125 4.18229,-0.203125 4.39063,-0.203125 C4.79688,-0.203125 5.15885,-0.382813 5.47656,-0.742188 C5.79427,-1.10156 6.00521,-1.49479 6.10938,-1.92188 C6.13021,-1.96354 6.16667,-1.98438 6.21875,-1.98438 L6.375,-1.98438 C6.40625,-1.98438 6.43229,-1.97396 6.45313,-1.95313 C6.47396,-1.93229 6.48438,-1.90625 6.48438,-1.875 C6.48438,-1.86458 6.47917,-1.85417 6.46875,-1.84375 C6.35417,-1.32292 6.09896,-0.861979 5.70313,-0.460938 C5.30729,-0.0598958 4.86458,0.140625 4.375,0.140625 C4.05208,0.140625 3.76302,0.0546875 3.50781,-0.117188 C3.2526,-0.289063 3.07292,-0.520833 2.96875,-0.8125 C2.83333,-0.552083 2.64583,-0.328125 2.40625,-0.140625 C2.16667,0.046875 1.91146,0.140625 1.64063,0.140625 C1.45313,0.140625 1.26042,0.109375 1.0625,0.046875 C0.864583,-0.015625 0.705729,-0.114583 0.585938,-0.25 C0.466146,-0.385417 0.40625,-0.557292 0.40625,-0.765625 C0.40625,-0.973958 0.476563,-1.16146 0.617188,-1.32813 C0.757813,-1.49479 0.932292,-1.57813 1.14063,-1.57813 C1.28646,-1.57813 1.40885,-1.53385 1.50781,-1.44531 C1.60677,-1.35677 1.65625,-1.24479 1.65625,-1.10938 C1.65625,-0.932292 1.59375,-0.776042 1.46875,-0.640625 C1.34375,-0.505208 1.19271,-0.416667 1.01563,-0.375 "/>
</g>

<g fill="#212121" fill-opacity="1" stroke="none" transform="matrix(0.740766,-0.117326,0.117326,0.740766,62.511,112.318)"
font-family="MS Shell Dlg 2" font-size="8.25" font-weight="400" font-style="normal" 
>
<path vector-effect="none" fill-rule="evenodd" d="M0.453125,0 L0.453125,-0.234375 C0.453125,-0.255208 0.458333,-0.276042 0.46875,-0.296875 L1.85938,-1.84375 C2.07813,-2.07292 2.2526,-2.26302 2.38281,-2.41406 C2.51302,-2.5651 2.64323,-2.74219 2.77344,-2.94531 C2.90365,-3.14844 3.00521,-3.35417 3.07813,-3.5625 C3.15104,-3.77083 3.1875,-3.99479 3.1875,-4.23438 C3.1875,-4.47396 3.14063,-4.70833 3.04688,-4.9375 C2.95313,-5.16667 2.81771,-5.34635 2.64063,-5.47656 C2.46354,-5.60677 2.24479,-5.67188 1.98438,-5.67188 C1.72396,-5.67188 1.48958,-5.59375 1.28125,-5.4375 C1.07292,-5.28125 0.927083,-5.07813 0.84375,-4.82813 C0.875,-4.83854 0.90625,-4.84375 0.9375,-4.84375 C1.07292,-4.84375 1.1901,-4.79948 1.28906,-4.71094 C1.38802,-4.6224 1.4375,-4.50521 1.4375,-4.35938 C1.4375,-4.22396 1.38802,-4.10677 1.28906,-4.00781 C1.1901,-3.90885 1.07292,-3.85938 0.9375,-3.85938 C0.802083,-3.85938 0.6875,-3.90885 0.59375,-4.00781 C0.5,-4.10677 0.453125,-4.22396 0.453125,-4.35938 C0.453125,-4.57813 0.494792,-4.78646 0.578125,-4.98438 C0.661458,-5.18229 0.783854,-5.35938 0.945313,-5.51563 C1.10677,-5.67188 1.28646,-5.79167 1.48438,-5.875 C1.68229,-5.95833 1.89583,-6 2.125,-6 C2.46875,-6 2.78906,-5.92708 3.08594,-5.78125 C3.38281,-5.63542 3.61719,-5.42969 3.78906,-5.16406 C3.96094,-4.89844 4.04688,-4.58854 4.04688,-4.23438 C4.04688,-3.97396 3.98958,-3.72656 3.875,-3.49219 C3.76042,-3.25781 3.61458,-3.04427 3.4375,-2.85156 C3.26042,-2.65885 3.03125,-2.4401 2.75,-2.19531 C2.46875,-1.95052 2.28646,-1.78646 2.20313,-1.70313 L1.17188,-0.734375 L2.04688,-0.734375 C2.47396,-0.734375 2.82813,-0.736979 3.10938,-0.742188 C3.39063,-0.747396 3.54167,-0.760417 3.5625,-0.78125 C3.63542,-0.854167 3.70833,-1.13021 3.78125,-1.60938 L4.04688,-1.60938 L3.78125,0 L0.453125,0"/>
</g>

<g fill="#212121" fill-opacity="1" stroke="none" transform="matrix(0.740766,-0.117326,0.117326,0.740766,68.9707,109.776)"
font-family="MS Shell Dlg 2" font-size="8.25" font-weight="400" font-style="normal" 
>
<path vector-effect="none" fill-rule="evenodd" d="M0.984375,-1.73438 C0.911458,-1.73438 0.851563,-1.76042 0.804688,-1.8125 C0.757813,-1.86458 0.734375,-1.92188 0.734375,-1.98438 C0.734375,-2.05729 0.757813,-2.11979 0.804688,-2.17188 C0.851563,-2.22396 0.911458,-2.25 0.984375,-2.25 L9.14063,-2.25 C9.20313,-2.25 9.25781,-2.22396 9.30469,-2.17188 C9.35156,-2.11979 9.375,-2.05729 9.375,-1.98438 C9.375,-1.92188 9.35156,-1.86458 9.30469,-1.8125 C9.25781,-1.76042 9.20313,-1.73438 9.14063,-1.73438 L0.984375,-1.73438 M0.984375,-4.25 C0.911458,-4.25 0.851563,-4.27604 0.804688,-4.32813 C0.757813,-4.38021 0.734375,-4.44271 0.734375,-4.51563 C0.734375,-4.57813 0.757813,-4.63802 0.804688,-4.69531 C0.851563,-4.7526 0.911458,-4.78125 0.984375,-4.78125 L9.14063,-4.78125 C9.20313,-4.78125 9.25781,-4.7526 9.30469,-4.69531 C9.35156,-4.63802 9.375,-4.57813 9.375,-4.51563 C9.375,-4.44271 9.35156,-4.38021 9.30469,-4.32813 C9.25781,-4.27604 9.20313,-4.25 9.14063,-4.25 L0.984375,-4.25"/>
</g>

<g fill="#212121" fill-opacity="1" stroke="none" transform="matrix(0.740766,-0.117326,0.117326,0.740766,79.3962,108.125)"
font-family="MS Shell Dlg 2" font-size="8.25" font-weight="400" font-style="normal" 
>
<path vector-effect="none" fill-rule="evenodd" d="M1.32813,-2.98438 C1.25521,-2.98438 1.19531,-3.01302 1.14844,-3.07031 C1.10156,-3.1276 1.07813,-3.1875 1.07813,-3.25 C1.07813,-3.3125 1.10156,-3.3724 1.14844,-3.42969 C1.19531,-3.48698 1.25521,-3.51563 1.32813,-3.51563 L8.78125,-3.51563 C8.85417,-3.51563 8.91146,-3.48698 8.95313,-3.42969 C8.99479,-3.3724 9.01563,-3.3125 9.01563,-3.25 C9.01563,-3.1875 8.99479,-3.1276 8.95313,-3.07031 C8.91146,-3.01302 8.85417,-2.98438 8.78125,-2.98438 L1.32813,-2.98438"/>
</g>

<g fill="#212121" fill-opacity="1" stroke="none" transform="matrix(0.740766,-0.117326,0.117326,0.740766,87.0782,106.908)"
font-family="MS Shell Dlg 2" font-size="8.25" font-weight="400" font-style="normal" 
>
<path vector-effect="none" fill-rule="evenodd" d="M1.20313,0 L1.20313,-0.453125 C2.28646,-0.453125 2.82813,-0.59375 2.82813,-0.875 L2.82813,-7.6875 C2.38021,-7.47917 1.8125,-7.375 1.125,-7.375 L1.125,-7.82813 C2.1875,-7.82813 2.98958,-8.10417 3.53125,-8.65625 L3.71875,-8.65625 C3.75,-8.65625 3.77865,-8.64583 3.80469,-8.625 C3.83073,-8.60417 3.84375,-8.57813 3.84375,-8.54688 L3.84375,-0.875 C3.84375,-0.59375 4.38542,-0.453125 5.46875,-0.453125 L5.46875,0 L1.20313,0"/>
</g>

<g fill="#000000" fill-opacity="1" stroke="#000000" stroke-opacity="1" stroke-dasharray="1,3" stroke-dashoffset="0" stroke-width="1.33333" stroke-linecap="butt" stroke-linejoin="round" transform="matrix(0.75,0,0,0.75,-13.944,-13.1)"
font-family="MS Shell Dlg 2" font-size="8.25" font-weight="400" font-style="normal" 
>
<polyline fill="none" vector-effect="none" points="234,139.4 249.6,139.4 " />
<polyline fill="none" vector-effect="none" points="234,59.8 249.6,59.8 " />
</g>

<g fill="#212121" fill-opacity="1" stroke="none" transform="matrix(0.75,0,0,0.75,167.406,64)"
font-family="MS Shell Dlg 2" font-size="8.25" font-weight="400" font-style="normal" 
>
<path vector-effect="none" fill-rule="evenodd" d="M0.984375,-2.98438 C0.911458,-2.98438 0.851563,-3.01302 0.804688,-3.07031 C0.757813,-3.1276 0.734375,-3.1875 0.734375,-3.25 C0.734375,-3.3125 0.757813,-3.3724 0.804688,-3.42969 C0.851563,-3.48698 0.911458,-3.51563 0.984375,-3.51563 L4.79688,-3.51563 L4.79688,-7.34375 C4.79688,-7.41667 4.82292,-7.47396 4.875,-7.51563 C4.92708,-7.55729 4.98958,-7.57813 5.0625,-7.57813 C5.125,-7.57813 5.18229,-7.55729 5.23438,-7.51563 C5.28646,-7.47396 5.3125,-7.41667 5.3125,-7.34375 L5.3125,-3.51563 L9.14063,-3.51563 C9.20313,-3.51563 9.25781,-3.48698 9.30469,-3.42969 C9.35156,-3.3724 9.375,-3.3125 9.375,-3.25 C9.375,-3.1875 9.35156,-3.1276 9.30469,-3.07031 C9.25781,-3.01302 9.20313,-2.98438 9.14063,-2.98438 L5.3125,-2.98438 L5.3125,0.84375 C5.3125,0.916667 5.28646,0.973958 5.23438,1.01563 C5.18229,1.05729 5.125,1.07813 5.0625,1.07813 C4.98958,1.07813 4.92708,1.05729 4.875,1.01563 C4.82292,0.973958 4.79688,0.916667 4.79688,0.84375 L4.79688,-2.98438 L0.984375,-2.98438"/>
</g>

<g fill="#212121" fill-opacity="1" stroke="none" transform="matrix(0.75,0,0,0.75,175.184,64)"
font-family="MS Shell Dlg 2" font-size="8.25" font-weight="400" font-style="normal" 
>
<path vector-effect="none" fill-rule="evenodd" d="M0.609375,0 C0.526042,0 0.484375,-0.0572917 0.484375,-0.171875 C0.484375,-0.192708 0.492188,-0.229167 0.507813,-0.28125 C0.523438,-0.333333 0.541667,-0.375 0.5625,-0.40625 C0.583333,-0.4375 0.609375,-0.453125 0.640625,-0.453125 C1.17188,-0.453125 1.54167,-0.484375 1.75,-0.546875 C1.86458,-0.588542 1.94792,-0.703125 2,-0.890625 L3.78125,-8.03125 C3.80208,-8.11458 3.8125,-8.17708 3.8125,-8.21875 C3.8125,-8.3125 3.76042,-8.36458 3.65625,-8.375 C3.48958,-8.40625 3.17708,-8.42188 2.71875,-8.42188 C2.63542,-8.42188 2.59375,-8.47917 2.59375,-8.59375 C2.59375,-8.61458 2.60156,-8.65104 2.61719,-8.70313 C2.63281,-8.75521 2.65104,-8.79688 2.67188,-8.82813 C2.69271,-8.85938 2.71875,-8.875 2.75,-8.875 L9.79688,-8.875 C9.89063,-8.875 9.9375,-8.81771 9.9375,-8.70313 L9.625,-6.01563 C9.625,-5.99479 9.60938,-5.97135 9.57813,-5.94531 C9.54688,-5.91927 9.51563,-5.90625 9.48438,-5.90625 L9.375,-5.90625 C9.29167,-5.90625 9.25,-5.95833 9.25,-6.0625 C9.29167,-6.48958 9.3125,-6.80729 9.3125,-7.01563 C9.3125,-7.35938 9.25521,-7.6276 9.14063,-7.82031 C9.02604,-8.01302 8.86979,-8.15104 8.67188,-8.23438 C8.47396,-8.31771 8.25521,-8.36979 8.01563,-8.39063 C7.77604,-8.41146 7.46354,-8.42188 7.07813,-8.42188 L5.59375,-8.42188 C5.35417,-8.42188 5.19792,-8.40104 5.125,-8.35938 C5.05208,-8.31771 4.97917,-8.19271 4.90625,-7.98438 L4.125,-4.84375 L5.14063,-4.84375 C5.58854,-4.84375 5.92448,-4.8724 6.14844,-4.92969 C6.3724,-4.98698 6.54948,-5.11458 6.67969,-5.3125 C6.8099,-5.51042 6.92708,-5.81771 7.03125,-6.23438 C7.04167,-6.26563 7.05729,-6.29427 7.07813,-6.32031 C7.09896,-6.34635 7.125,-6.35938 7.15625,-6.35938 L7.28125,-6.35938 C7.36458,-6.35938 7.40625,-6.30208 7.40625,-6.1875 L6.60938,-2.98438 C6.58854,-2.90104 6.54167,-2.85938 6.46875,-2.85938 L6.35938,-2.85938 C6.27604,-2.85938 6.23438,-2.91667 6.23438,-3.03125 C6.31771,-3.375 6.35938,-3.63021 6.35938,-3.79688 C6.35938,-4.04688 6.24479,-4.20573 6.01563,-4.27344 C5.78646,-4.34115 5.47917,-4.375 5.09375,-4.375 L4.01563,-4.375 L3.14063,-0.84375 C3.09896,-0.739583 3.07813,-0.645833 3.07813,-0.5625 C3.07813,-0.489583 3.22396,-0.453125 3.51563,-0.453125 L5.09375,-0.453125 C5.71875,-0.453125 6.22656,-0.502604 6.61719,-0.601563 C7.00781,-0.700521 7.33073,-0.856771 7.58594,-1.07031 C7.84115,-1.28385 8.0625,-1.55469 8.25,-1.88281 C8.4375,-2.21094 8.66667,-2.69271 8.9375,-3.32813 C8.94792,-3.38021 8.98438,-3.40625 9.04688,-3.40625 L9.17188,-3.40625 C9.20313,-3.40625 9.23177,-3.39063 9.25781,-3.35938 C9.28385,-3.32813 9.29688,-3.29688 9.29688,-3.26563 C9.29688,-3.24479 9.29167,-3.22917 9.28125,-3.21875 L7.9375,-0.078125 C7.92708,-0.0260417 7.89583,0 7.84375,0 L0.609375,0"/>
</g>

<g fill="#212121" fill-opacity="1" stroke="none" transform="matrix(0.75,0,0,0.75,182.566,65.4999)"
font-family="MS Shell Dlg 2" font-size="8.25" font-weight="400" font-style="normal" 
>
<path vector-effect="none" fill-rule="evenodd" d="M0.453125,0 L0.453125,-0.234375 C0.453125,-0.255208 0.458333,-0.276042 0.46875,-0.296875 L1.85938,-1.84375 C2.07813,-2.07292 2.2526,-2.26302 2.38281,-2.41406 C2.51302,-2.5651 2.64323,-2.74219 2.77344,-2.94531 C2.90365,-3.14844 3.00521,-3.35417 3.07813,-3.5625 C3.15104,-3.77083 3.1875,-3.99479 3.1875,-4.23438 C3.1875,-4.47396 3.14063,-4.70833 3.04688,-4.9375 C2.95313,-5.16667 2.81771,-5.34635 2.64063,-5.47656 C2.46354,-5.60677 2.24479,-5.67188 1.98438,-5.67188 C1.72396,-5.67188 1.48958,-5.59375 1.28125,-5.4375 C1.07292,-5.28125 0.927083,-5.07813 0.84375,-4.82813 C0.875,-4.83854 0.90625,-4.84375 0.9375,-4.84375 C1.07292,-4.84375 1.1901,-4.79948 1.28906,-4.71094 C1.38802,-4.6224 1.4375,-4.50521 1.4375,-4.35938 C1.4375,-4.22396 1.38802,-4.10677 1.28906,-4.00781 C1.1901,-3.90885 1.07292,-3.85938 0.9375,-3.85938 C0.802083,-3.85938 0.6875,-3.90885 0.59375,-4.00781 C0.5,-4.10677 0.453125,-4.22396 0.453125,-4.35938 C0.453125,-4.57813 0.494792,-4.78646 0.578125,-4.98438 C0.661458,-5.18229 0.783854,-5.35938 0.945313,-5.51563 C1.10677,-5.67188 1.28646,-5.79167 1.48438,-5.875 C1.68229,-5.95833 1.89583,-6 2.125,-6 C2.46875,-6 2.78906,-5.92708 3.08594,-5.78125 C3.38281,-5.63542 3.61719,-5.42969 3.78906,-5.16406 C3.96094,-4.89844 4.04688,-4.58854 4.04688,-4.23438 C4.04688,-3.97396 3.98958,-3.72656 3.875,-3.49219 C3.76042,-3.25781 3.61458,-3.04427 3.4375,-2.85156 C3.26042,-2.65885 3.03125,-2.4401 2.75,-2.19531 C2.46875,-1.95052 2.28646,-1.78646 2.20313,-1.70313 L1.17188,-0.734375 L2.04688,-0.734375 C2.47396,-0.734375 2.82813,-0.736979 3.10938,-0.742188 C3.39063,-0.747396 3.54167,-0.760417 3.5625,-0.78125 C3.63542,-0.854167 3.70833,-1.13021 3.78125,-1.60938 L4.04688,-1.60938 L3.78125,0 L0.453125,0"/>
</g>

<g fill="#000000" fill-opacity="1" stroke="#000000" stroke-opacity="1" stroke-dasharray="1,3" stroke-dashoffset="0" stroke-width="1.33333" stroke-linecap="butt" stroke-linejoin="round" transform="matrix(0.75,0,0,0.75,-13.944,-13.1)"
font-family="MS Shell Dlg 2" font-size="8.25" font-weight="400" font-style="normal" 
>
<polyline fill="none" vector-effect="none" points="234,179.2 249.6,179.2 " />
<polyline fill="none" vector-effect="none" points="234,159.3 249.6,159.3 " />
</g>

<g fill="#212121" fill-opacity="1" stroke="none" transform="matrix(0.75,0,0,0.75,167.406,116.237)"
font-family="MS Shell Dlg 2" font-size="8.25" font-weight="400" font-style="normal" 
>
<path vector-effect="none" fill-rule="evenodd" d="M0.984375,-2.98438 C0.911458,-2.98438 0.851563,-3.01302 0.804688,-3.07031 C0.757813,-3.1276 0.734375,-3.1875 0.734375,-3.25 C0.734375,-3.3125 0.757813,-3.3724 0.804688,-3.42969 C0.851563,-3.48698 0.911458,-3.51563 0.984375,-3.51563 L4.79688,-3.51563 L4.79688,-7.34375 C4.79688,-7.41667 4.82292,-7.47396 4.875,-7.51563 C4.92708,-7.55729 4.98958,-7.57813 5.0625,-7.57813 C5.125,-7.57813 5.18229,-7.55729 5.23438,-7.51563 C5.28646,-7.47396 5.3125,-7.41667 5.3125,-7.34375 L5.3125,-3.51563 L9.14063,-3.51563 C9.20313,-3.51563 9.25781,-3.48698 9.30469,-3.42969 C9.35156,-3.3724 9.375,-3.3125 9.375,-3.25 C9.375,-3.1875 9.35156,-3.1276 9.30469,-3.07031 C9.25781,-3.01302 9.20313,-2.98438 9.14063,-2.98438 L5.3125,-2.98438 L5.3125,0.84375 C5.3125,0.916667 5.28646,0.973958 5.23438,1.01563 C5.18229,1.05729 5.125,1.07813 5.0625,1.07813 C4.98958,1.07813 4.92708,1.05729 4.875,1.01563 C4.82292,0.973958 4.79688,0.916667 4.79688,0.84375 L4.79688,-2.98438 L0.984375,-2.98438"/>
</g>

<g fill="#212121" fill-opacity="1" stroke="none" transform="matrix(0.75,0,0,0.75,175.184,116.237)"
font-family="MS Shell Dlg 2" font-size="8.25" font-weight="400" font-style="normal" 
>
<path vector-effect="none" fill-rule="evenodd" d="M0.609375,0 C0.526042,0 0.484375,-0.0572917 0.484375,-0.171875 C0.484375,-0.192708 0.492188,-0.229167 0.507813,-0.28125 C0.523438,-0.333333 0.541667,-0.375 0.5625,-0.40625 C0.583333,-0.4375 0.609375,-0.453125 0.640625,-0.453125 C1.17188,-0.453125 1.54167,-0.484375 1.75,-0.546875 C1.86458,-0.588542 1.94792,-0.703125 2,-0.890625 L3.78125,-8.03125 C3.80208,-8.11458 3.8125,-8.17708 3.8125,-8.21875 C3.8125,-8.3125 3.76042,-8.36458 3.65625,-8.375 C3.48958,-8.40625 3.17708,-8.42188 2.71875,-8.42188 C2.63542,-8.42188 2.59375,-8.47917 2.59375,-8.59375 C2.59375,-8.61458 2.60156,-8.65104 2.61719,-8.70313 C2.63281,-8.75521 2.65104,-8.79688 2.67188,-8.82813 C2.69271,-8.85938 2.71875,-8.875 2.75,-8.875 L9.79688,-8.875 C9.89063,-8.875 9.9375,-8.81771 9.9375,-8.70313 L9.625,-6.01563 C9.625,-5.99479 9.60938,-5.97135 9.57813,-5.94531 C9.54688,-5.91927 9.51563,-5.90625 9.48438,-5.90625 L9.375,-5.90625 C9.29167,-5.90625 9.25,-5.95833 9.25,-6.0625 C9.29167,-6.48958 9.3125,-6.80729 9.3125,-7.01563 C9.3125,-7.35938 9.25521,-7.6276 9.14063,-7.82031 C9.02604,-8.01302 8.86979,-8.15104 8.67188,-8.23438 C8.47396,-8.31771 8.25521,-8.36979 8.01563,-8.39063 C7.77604,-8.41146 7.46354,-8.42188 7.07813,-8.42188 L5.59375,-8.42188 C5.35417,-8.42188 5.19792,-8.40104 5.125,-8.35938 C5.05208,-8.31771 4.97917,-8.19271 4.90625,-7.98438 L4.125,-4.84375 L5.14063,-4.84375 C5.58854,-4.84375 5.92448,-4.8724 6.14844,-4.92969 C6.3724,-4.98698 6.54948,-5.11458 6.67969,-5.3125 C6.8099,-5.51042 6.92708,-5.81771 7.03125,-6.23438 C7.04167,-6.26563 7.05729,-6.29427 7.07813,-6.32031 C7.09896,-6.34635 7.125,-6.35938 7.15625,-6.35938 L7.28125,-6.35938 C7.36458,-6.35938 7.40625,-6.30208 7.40625,-6.1875 L6.60938,-2.98438 C6.58854,-2.90104 6.54167,-2.85938 6.46875,-2.85938 L6.35938,-2.85938 C6.27604,-2.85938 6.23438,-2.91667 6.23438,-3.03125 C6.31771,-3.375 6.35938,-3.63021 6.35938,-3.79688 C6.35938,-4.04688 6.24479,-4.20573 6.01563,-4.27344 C5.78646,-4.34115 5.47917,-4.375 5.09375,-4.375 L4.01563,-4.375 L3.14063,-0.84375 C3.09896,-0.739583 3.07813,-0.645833 3.07813,-0.5625 C3.07813,-0.489583 3.22396,-0.453125 3.51563,-0.453125 L5.09375,-0.453125 C5.71875,-0.453125 6.22656,-0.502604 6.61719,-0.601563 C7.00781,-0.700521 7.33073,-0.856771 7.58594,-1.07031 C7.84115,-1.28385 8.0625,-1.55469 8.25,-1.88281 C8.4375,-2.21094 8.66667,-2.69271 8.9375,-3.32813 C8.94792,-3.38021 8.98438,-3.40625 9.04688,-3.40625 L9.17188,-3.40625 C9.20313,-3.40625 9.23177,-3.39063 9.25781,-3.35938 C9.28385,-3.32813 9.29688,-3.29688 9.29688,-3.26563 C9.29688,-3.24479 9.29167,-3.22917 9.28125,-3.21875 L7.9375,-0.078125 C7.92708,-0.0260417 7.89583,0 7.84375,0 L0.609375,0"/>
</g>

<g fill="#212121" fill-opacity="1" stroke="none" transform="matrix(0.75,0,0,0.75,182.566,117.737)"
font-family="MS Shell Dlg 2" font-size="8.25" font-weight="400" font-style="normal" 
>
<path vector-effect="none" fill-rule="evenodd" d="M0.859375,-0.703125 C0.994792,-0.494792 1.18229,-0.341146 1.42188,-0.242188 C1.66146,-0.143229 1.91667,-0.09375 2.1875,-0.09375 C2.54167,-0.09375 2.79167,-0.242188 2.9375,-0.539063 C3.08333,-0.835938 3.15625,-1.17188 3.15625,-1.54688 C3.15625,-1.72396 3.14063,-1.89583 3.10938,-2.0625 C3.07813,-2.22917 3.02604,-2.38542 2.95313,-2.53125 C2.88021,-2.67708 2.77865,-2.79427 2.64844,-2.88281 C2.51823,-2.97135 2.36458,-3.01563 2.1875,-3.01563 L1.57813,-3.01563 C1.52604,-3.01563 1.5,-3.04167 1.5,-3.09375 L1.5,-3.17188 C1.5,-3.22396 1.52604,-3.25 1.57813,-3.25 L2.07813,-3.28125 C2.28646,-3.28125 2.46094,-3.36198 2.60156,-3.52344 C2.74219,-3.6849 2.84375,-3.8776 2.90625,-4.10156 C2.96875,-4.32552 3,-4.54167 3,-4.75 C3,-5.04167 2.9349,-5.27865 2.80469,-5.46094 C2.67448,-5.64323 2.46875,-5.73438 2.1875,-5.73438 C1.95833,-5.73438 1.73958,-5.6901 1.53125,-5.60156 C1.32292,-5.51302 1.15625,-5.38542 1.03125,-5.21875 C1.05208,-5.21875 1.0651,-5.21875 1.07031,-5.21875 C1.07552,-5.21875 1.08333,-5.21875 1.09375,-5.21875 C1.22917,-5.21875 1.34375,-5.17188 1.4375,-5.07813 C1.53125,-4.98438 1.57813,-4.86979 1.57813,-4.73438 C1.57813,-4.60938 1.53125,-4.5 1.4375,-4.40625 C1.34375,-4.3125 1.22917,-4.26563 1.09375,-4.26563 C0.96875,-4.26563 0.859375,-4.3125 0.765625,-4.40625 C0.671875,-4.5 0.625,-4.60938 0.625,-4.73438 C0.625,-4.99479 0.700521,-5.22135 0.851563,-5.41406 C1.0026,-5.60677 1.20052,-5.7526 1.44531,-5.85156 C1.6901,-5.95052 1.9375,-6 2.1875,-6 C2.375,-6 2.56771,-5.97135 2.76563,-5.91406 C2.96354,-5.85677 3.14583,-5.77865 3.3125,-5.67969 C3.47917,-5.58073 3.61458,-5.45052 3.71875,-5.28906 C3.82292,-5.1276 3.875,-4.94792 3.875,-4.75 C3.875,-4.5 3.81771,-4.26823 3.70313,-4.05469 C3.58854,-3.84115 3.43229,-3.65625 3.23438,-3.5 C3.03646,-3.34375 2.82292,-3.22917 2.59375,-3.15625 C2.85417,-3.10417 3.10156,-3.00521 3.33594,-2.85938 C3.57031,-2.71354 3.75781,-2.52604 3.89844,-2.29688 C4.03906,-2.06771 4.10938,-1.82292 4.10938,-1.5625 C4.10938,-1.22917 4.01823,-0.927083 3.83594,-0.65625 C3.65365,-0.385417 3.41667,-0.174479 3.125,-0.0234375 C2.83333,0.127604 2.52083,0.203125 2.1875,0.203125 C1.90625,0.203125 1.625,0.148438 1.34375,0.0390625 C1.0625,-0.0703125 0.830729,-0.231771 0.648438,-0.445313 C0.466146,-0.658854 0.375,-0.916667 0.375,-1.21875 C0.375,-1.36458 0.424479,-1.48698 0.523438,-1.58594 C0.622396,-1.6849 0.75,-1.73438 0.90625,-1.73438 C1,-1.73438 1.08594,-1.71354 1.16406,-1.67188 C1.24219,-1.63021 1.30469,-1.56771 1.35156,-1.48438 C1.39844,-1.40104 1.42188,-1.3125 1.42188,-1.21875 C1.42188,-1.07292 1.36979,-0.950521 1.26563,-0.851563 C1.16146,-0.752604 1.04167,-0.703125 0.90625,-0.703125 L0.859375,-0.703125"/>
</g>
</g>
</svg>
