<?xml version="1.0" encoding="UTF-8" standalone="no"?>
<svg width="137.583mm" height="94.1917mm"
 viewBox="0 0 390 267"
 xmlns="http://www.w3.org/2000/svg" xmlns:xlink="http://www.w3.org/1999/xlink"  version="1.2" baseProfile="tiny">
<title>Qt SVG Document</title>
<desc>MATLAB, The MathWorks, Inc. Version 25.2.0.3055257 R2025b Update 2</desc>
<defs>
</defs>
<g fill="none" stroke="black" stroke-width="1" fill-rule="evenodd" stroke-linecap="square" stroke-linejoin="bevel" >

<g fill="#ffffff" fill-opacity="1" stroke="none" transform="matrix(0.75,0,0,0.75,-26,44.2501)"
font-family="MS Shell Dlg 2" font-size="8.25" font-weight="400" font-style="normal" 
>
<path vector-effect="none" fill-rule="evenodd" d="M33,-60 L554,-60 L554,297 L33,297 L33,-60"/>
</g>

<g fill="#ffffff" fill-opacity="1" stroke="none" transform="matrix(7.5e-05,0,0,7.5e-05,-26,44.2501)"
font-family="MS Shell Dlg 2" font-size="8.25" font-weight="400" font-style="normal" 
>
<path vector-effect="none" fill-rule="evenodd" d="M740000,180000 L740000,2.19e+06 L5.13e+06,2.19e+06 L5.13e+06,180000 L740000,180000"/>
</g>

<g fill="#212121" fill-opacity="0.25098" stroke="#212121" stroke-opacity="0.25098" stroke-dasharray="1,3" stroke-dashoffset="0" stroke-width="1.06667" stroke-linecap="butt" stroke-linejoin="round" transform="matrix(0.75,0,0,0.75,-26,44.2501)"
font-family="MS Shell Dlg 2" font-size="8.25" font-weight="400" font-style="normal" 
>
<polyline fill="none" vector-effect="none" points="104.758,18 104.758,219 " />
<polyline fill="none" vector-effect="none" points="167.672,18 167.672,219 " />
<polyline fill="none" vector-effect="none" points="230.586,18 230.586,219 " />
<polyline fill="none" vector-effect="none" points="293.5,18 293.5,219 " />
<polyline fill="none" vector-effect="none" points="356.414,18 356.414,219 " />
<polyline fill="none" vector-effect="none" points="419.328,18 419.328,219 " />
<polyline fill="none" vector-effect="none" points="482.242,18 482.242,219 " />
<polyline fill="none" vector-effect="none" points="74,204.062 513,204.062 " />
<polyline fill="none" vector-effect="none" points="74,171.765 513,171.765 " />
<polyline fill="none" vector-effect="none" points="74,139.467 513,139.467 " />
<polyline fill="none" vector-effect="none" points="74,107.169 513,107.169 " />
<polyline fill="none" vector-effect="none" points="74,74.8717 513,74.8717 " />
<polyline fill="none" vector-effect="none" points="74,42.574 513,42.574 " />
</g>

<g fill="#212121" fill-opacity="1" stroke="#212121" stroke-opacity="1" stroke-width="0.666667" stroke-linecap="butt" stroke-linejoin="round" transform="matrix(0.75,0,0,0.75,-26,44.2501)"
font-family="MS Shell Dlg 2" font-size="8.25" font-weight="400" font-style="normal" 
>
<polyline fill="none" vector-effect="none" points="74,204.062 513,204.062 " />
</g>

<g fill="#000000" fill-opacity="1" stroke="none" transform="matrix(7.5e-05,0,0,7.5e-05,-26,44.2501)"
font-family="MS Shell Dlg 2" font-size="8.25" font-weight="400" font-style="normal" 
>
<path vector-effect="none" fill-rule="evenodd" d="M851847,1.34526e+06 L851847,2.04062e+06 L963694,2.04062e+06 L963694,1.34526e+06 L851847,1.34526e+06"/>
</g>

<g fill="#000000" fill-opacity="1" stroke="none" transform="matrix(7.5e-05,0,0,7.5e-05,-26,44.2501)"
font-family="MS Shell Dlg 2" font-size="8.25" font-weight="400" font-style="normal" 
>
<path vector-effect="none" fill-rule="evenodd" d="M1.48099e+06,185354 L1.48099e+06,2.04062e+06 L1.59283e+06,2.04062e+06 L1.59283e+06,185354 L1.48099e+06,185354"/>
</g>

<g fill="#000000" fill-opacity="1" stroke="none" transform="matrix(7.5e-05,0,0,7.5e-05,-26,44.2501)"
font-family="MS Shell Dlg 2" font-size="8.25" font-weight="400" font-style="normal" 
>
<path vector-effect="none" fill-rule="evenodd" d="M2.11013e+06,2.04062e+06 L2.11013e+06,2.16294e+06 L2.22197e+06,2.16294e+06 L2.22197e+06,2.04062e+06 L2.11013e+06,2.04062e+06"/>
</g>

<g fill="#000000" fill-opacity="1" stroke="none" transform="matrix(7.5e-05,0,0,7.5e-05,-26,44.2501)"
font-family="MS Shell Dlg 2" font-size="8.25" font-weight="400" font-style="normal" 
>
<path vector-effect="none" fill-rule="evenodd" d="M2.73927e+06,2.04062e+06 L2.73927e+06,2.1706e+06 L2.85111e+06,2.1706e+06 L2.85111e+06,2.04062e+06 L2.73927e+06,2.04062e+06"/>
</g>

<g fill="#000000" fill-opacity="1" stroke="none" transform="matrix(7.5e-05,0,0,7.5e-05,-26,44.2501)"
font-family="MS Shell Dlg 2" font-size="8.25" font-weight="400" font-style="normal" 
>
<path vector-effect="none" fill-rule="evenodd" d="M3.36841e+06,2.04062e+06 L3.36841e+06,2.10257e+06 L3.48025e+06,2.10257e+06 L3.48025e+06,2.04062e+06 L3.36841e+06,2.04062e+06"/>
</g>

<g fill="#000000" fill-opacity="1" stroke="none" transform="matrix(7.5e-05,0,0,7.5e-05,-26,44.2501)"
font-family="MS Shell Dlg 2" font-size="8.25" font-weight="400" font-style="normal" 
>
<path vector-effect="none" fill-rule="evenodd" d="M3.99755e+06,2.04062e+06 L3.99755e+06,2.10947e+06 L4.10939e+06,2.10947e+06 L4.10939e+06,2.04062e+06 L3.99755e+06,2.04062e+06"/>
</g>

<g fill="#000000" fill-opacity="1" stroke="none" transform="matrix(7.5e-05,0,0,7.5e-05,-26,44.2501)"
font-family="MS Shell Dlg 2" font-size="8.25" font-weight="400" font-style="normal" 
>
<path vector-effect="none" fill-rule="evenodd" d="M4.62669e+06,2.04062e+06 L4.62669e+06,2.09788e+06 L4.73854e+06,2.09788e+06 L4.73854e+06,2.04062e+06 L4.62669e+06,2.04062e+06"/>
</g>

<g fill="none" stroke="#212121" stroke-opacity="1" stroke-width="0.666667" stroke-linecap="butt" stroke-linejoin="miter" stroke-miterlimit="2" transform="matrix(0.75,0,0,0.75,-26,44.2501)"
font-family="MS Shell Dlg 2" font-size="8.25" font-weight="400" font-style="normal" 
>
<path vector-effect="none" fill-rule="evenodd" d="M85.1847,204.062 L85.1847,134.526 L96.3694,134.526 L96.3694,204.062 L85.1847,204.062"/>
<path vector-effect="none" fill-rule="evenodd" d="M148.099,204.062 L148.099,18.5354 L159.283,18.5354 L159.283,204.062 L148.099,204.062"/>
<path vector-effect="none" fill-rule="evenodd" d="M211.013,204.062 L211.013,216.294 L222.197,216.294 L222.197,204.062 L211.013,204.062"/>
<path vector-effect="none" fill-rule="evenodd" d="M273.927,204.062 L273.927,217.06 L285.111,217.06 L285.111,204.062 L273.927,204.062"/>
<path vector-effect="none" fill-rule="evenodd" d="M336.841,204.062 L336.841,210.257 L348.025,210.257 L348.025,204.062 L336.841,204.062"/>
<path vector-effect="none" fill-rule="evenodd" d="M399.755,204.062 L399.755,210.947 L410.939,210.947 L410.939,204.062 L399.755,204.062"/>
<path vector-effect="none" fill-rule="evenodd" d="M462.669,204.062 L462.669,209.788 L473.854,209.788 L473.854,204.062 L462.669,204.062"/>
</g>

<g fill="#999999" fill-opacity="1" stroke="none" transform="matrix(7.5e-05,0,0,7.5e-05,-26,44.2501)"
font-family="MS Shell Dlg 2" font-size="8.25" font-weight="400" font-style="normal" 
>
<path vector-effect="none" fill-rule="evenodd" d="M991656,996850 L991656,2.04062e+06 L1.1035e+06,2.04062e+06 L1.1035e+06,996850 L991656,996850"/>
</g>

<g fill="#999999" fill-opacity="1" stroke="none" transform="matrix(7.5e-05,0,0,7.5e-05,-26,44.2501)"
font-family="MS Shell Dlg 2" font-size="8.25" font-weight="400" font-style="normal" 
>
<path vector-effect="none" fill-rule="evenodd" d="M1.6208e+06,179999 L1.6208e+06,2.04062e+06 L1.73264e+06,2.04062e+06 L1.73264e+06,179999 L1.6208e+06,179999"/>
</g>

<g fill="#999999" fill-opacity="1" stroke="none" transform="matrix(7.5e-05,0,0,7.5e-05,-26,44.2501)"
font-family="MS Shell Dlg 2" font-size="8.25" font-weight="400" font-style="normal" 
>
<path vector-effect="none" fill-rule="evenodd" d="M2.24994e+06,2.04062e+06 L2.24994e+06,2.17685e+06 L2.36178e+06,2.17685e+06 L2.36178e+06,2.04062e+06 L2.24994e+06,2.04062e+06"/>
</g>

<g fill="#999999" fill-opacity="1" stroke="none" transform="matrix(7.5e-05,0,0,7.5e-05,-26,44.2501)"
font-family="MS Shell Dlg 2" font-size="8.25" font-weight="400" font-style="normal" 
>
<path vector-effect="none" fill-rule="evenodd" d="M2.87908e+06,2.04062e+06 L2.87908e+06,2.16609e+06 L2.99092e+06,2.16609e+06 L2.99092e+06,2.04062e+06 L2.87908e+06,2.04062e+06"/>
</g>

<g fill="#999999" fill-opacity="1" stroke="none" transform="matrix(7.5e-05,0,0,7.5e-05,-26,44.2501)"
font-family="MS Shell Dlg 2" font-size="8.25" font-weight="400" font-style="normal" 
>
<path vector-effect="none" fill-rule="evenodd" d="M3.50822e+06,2.04062e+06 L3.50822e+06,2.11155e+06 L3.62006e+06,2.11155e+06 L3.62006e+06,2.04062e+06 L3.50822e+06,2.04062e+06"/>
</g>

<g fill="#999999" fill-opacity="1" stroke="none" transform="matrix(7.5e-05,0,0,7.5e-05,-26,44.2501)"
font-family="MS Shell Dlg 2" font-size="8.25" font-weight="400" font-style="normal" 
>
<path vector-effect="none" fill-rule="evenodd" d="M4.13736e+06,2.04062e+06 L4.13736e+06,2.13169e+06 L4.2492e+06,2.13169e+06 L4.2492e+06,2.04062e+06 L4.13736e+06,2.04062e+06"/>
</g>

<g fill="#999999" fill-opacity="1" stroke="none" transform="matrix(7.5e-05,0,0,7.5e-05,-26,44.2501)"
font-family="MS Shell Dlg 2" font-size="8.25" font-weight="400" font-style="normal" 
>
<path vector-effect="none" fill-rule="evenodd" d="M4.7665e+06,2.04062e+06 L4.7665e+06,2.0966e+06 L4.87834e+06,2.0966e+06 L4.87834e+06,2.04062e+06 L4.7665e+06,2.04062e+06"/>
</g>

<g fill="none" stroke="#212121" stroke-opacity="1" stroke-width="0.666667" stroke-linecap="butt" stroke-linejoin="miter" stroke-miterlimit="2" transform="matrix(0.75,0,0,0.75,-26,44.2501)"
font-family="MS Shell Dlg 2" font-size="8.25" font-weight="400" font-style="normal" 
>
<path vector-effect="none" fill-rule="evenodd" d="M99.1656,204.062 L99.1656,99.685 L110.35,99.685 L110.35,204.062 L99.1656,204.062"/>
<path vector-effect="none" fill-rule="evenodd" d="M162.08,204.062 L162.08,18 L173.264,18 L173.264,204.062 L162.08,204.062"/>
<path vector-effect="none" fill-rule="evenodd" d="M224.994,204.062 L224.994,217.685 L236.178,217.685 L236.178,204.062 L224.994,204.062"/>
<path vector-effect="none" fill-rule="evenodd" d="M287.908,204.062 L287.908,216.609 L299.092,216.609 L299.092,204.062 L287.908,204.062"/>
<path vector-effect="none" fill-rule="evenodd" d="M350.822,204.062 L350.822,211.155 L362.006,211.155 L362.006,204.062 L350.822,204.062"/>
<path vector-effect="none" fill-rule="evenodd" d="M413.736,204.062 L413.736,213.169 L424.92,213.169 L424.92,204.062 L413.736,204.062"/>
<path vector-effect="none" fill-rule="evenodd" d="M476.65,204.062 L476.65,209.66 L487.834,209.66 L487.834,204.062 L476.65,204.062"/>
</g>

<g fill="#4d4d4d" fill-opacity="1" stroke="none" transform="matrix(7.5e-05,0,0,7.5e-05,-26,44.2501)"
font-family="MS Shell Dlg 2" font-size="8.25" font-weight="400" font-style="normal" 
>
<path vector-effect="none" fill-rule="evenodd" d="M1.13147e+06,1.50231e+06 L1.13147e+06,2.04062e+06 L1.24331e+06,2.04062e+06 L1.24331e+06,1.50231e+06 L1.13147e+06,1.50231e+06"/>
</g>

<g fill="#4d4d4d" fill-opacity="1" stroke="none" transform="matrix(7.5e-05,0,0,7.5e-05,-26,44.2501)"
font-family="MS Shell Dlg 2" font-size="8.25" font-weight="400" font-style="normal" 
>
<path vector-effect="none" fill-rule="evenodd" d="M1.76061e+06,181892 L1.76061e+06,2.04062e+06 L1.87245e+06,2.04062e+06 L1.87245e+06,181892 L1.76061e+06,181892"/>
</g>

<g fill="#4d4d4d" fill-opacity="1" stroke="none" transform="matrix(7.5e-05,0,0,7.5e-05,-26,44.2501)"
font-family="MS Shell Dlg 2" font-size="8.25" font-weight="400" font-style="normal" 
>
<path vector-effect="none" fill-rule="evenodd" d="M2.38975e+06,2.04062e+06 L2.38975e+06,2.19e+06 L2.50159e+06,2.19e+06 L2.50159e+06,2.04062e+06 L2.38975e+06,2.04062e+06"/>
</g>

<g fill="#4d4d4d" fill-opacity="1" stroke="none" transform="matrix(7.5e-05,0,0,7.5e-05,-26,44.2501)"
font-family="MS Shell Dlg 2" font-size="8.25" font-weight="400" font-style="normal" 
>
<path vector-effect="none" fill-rule="evenodd" d="M3.01889e+06,2.04062e+06 L3.01889e+06,2.11278e+06 L3.13073e+06,2.11278e+06 L3.13073e+06,2.04062e+06 L3.01889e+06,2.04062e+06"/>
</g>

<g fill="#4d4d4d" fill-opacity="1" stroke="none" transform="matrix(7.5e-05,0,0,7.5e-05,-26,44.2501)"
font-family="MS Shell Dlg 2" font-size="8.25" font-weight="400" font-style="normal" 
>
<path vector-effect="none" fill-rule="evenodd" d="M3.64803e+06,2.04062e+06 L3.64803e+06,2.12742e+06 L3.75987e+06,2.12742e+06 L3.75987e+06,2.04062e+06 L3.64803e+06,2.04062e+06"/>
</g>

<g fill="#4d4d4d" fill-opacity="1" stroke="none" transform="matrix(7.5e-05,0,0,7.5e-05,-26,44.2501)"
font-family="MS Shell Dlg 2" font-size="8.25" font-weight="400" font-style="normal" 
>
<path vector-effect="none" fill-rule="evenodd" d="M4.27717e+06,2.04062e+06 L4.27717e+06,2.13247e+06 L4.38901e+06,2.13247e+06 L4.38901e+06,2.04062e+06 L4.27717e+06,2.04062e+06"/>
</g>

<g fill="#4d4d4d" fill-opacity="1" stroke="none" transform="matrix(7.5e-05,0,0,7.5e-05,-26,44.2501)"
font-family="MS Shell Dlg 2" font-size="8.25" font-weight="400" font-style="normal" 
>
<path vector-effect="none" fill-rule="evenodd" d="M4.90631e+06,2.04062e+06 L4.90631e+06,2.07292e+06 L5.01815e+06,2.07292e+06 L5.01815e+06,2.04062e+06 L4.90631e+06,2.04062e+06"/>
</g>

<g fill="none" stroke="#212121" stroke-opacity="1" stroke-width="0.666667" stroke-linecap="butt" stroke-linejoin="miter" stroke-miterlimit="2" transform="matrix(0.75,0,0,0.75,-26,44.2501)"
font-family="MS Shell Dlg 2" font-size="8.25" font-weight="400" font-style="normal" 
>
<path vector-effect="none" fill-rule="evenodd" d="M113.146,204.062 L113.146,150.231 L124.331,150.231 L124.331,204.062 L113.146,204.062"/>
<path vector-effect="none" fill-rule="evenodd" d="M176.061,204.062 L176.061,18.1892 L187.245,18.1892 L187.245,204.062 L176.061,204.062"/>
<path vector-effect="none" fill-rule="evenodd" d="M238.975,204.062 L238.975,219 L250.159,219 L250.159,204.062 L238.975,204.062"/>
<path vector-effect="none" fill-rule="evenodd" d="M301.889,204.062 L301.889,211.278 L313.073,211.278 L313.073,204.062 L301.889,204.062"/>
<path vector-effect="none" fill-rule="evenodd" d="M364.803,204.062 L364.803,212.742 L375.987,212.742 L375.987,204.062 L364.803,204.062"/>
<path vector-effect="none" fill-rule="evenodd" d="M427.717,204.062 L427.717,213.247 L438.901,213.247 L438.901,204.062 L427.717,204.062"/>
<path vector-effect="none" fill-rule="evenodd" d="M490.631,204.062 L490.631,207.292 L501.815,207.292 L501.815,204.062 L490.631,204.062"/>
</g>

<g fill="#000000" fill-opacity="1" stroke="#000000" stroke-opacity="1" stroke-width="2.66667" stroke-linecap="butt" stroke-linejoin="round" transform="matrix(0.75,0,0,0.75,-26,44.2501)"
font-family="MS Shell Dlg 2" font-size="8.25" font-weight="400" font-style="normal" 
>
<polyline fill="none" vector-effect="none" points="82.7381,155.126 126.778,155.126 " />
<polyline fill="none" vector-effect="none" points="145.652,18.1892 189.692,18.1892 " />
<polyline fill="none" vector-effect="none" points="208.566,216.981 252.606,216.981 " />
<polyline fill="none" vector-effect="none" points="271.48,216.981 315.52,216.981 " />
<polyline fill="none" vector-effect="none" points="334.394,210.522 378.434,210.522 " />
<polyline fill="none" vector-effect="none" points="397.308,210.522 441.348,210.522 " />
<polyline fill="none" vector-effect="none" points="460.222,210.522 504.262,210.522 " />
</g>

<g fill="#212121" fill-opacity="1" stroke="#212121" stroke-opacity="1" stroke-width="1.06667" stroke-linecap="square" stroke-linejoin="round" transform="matrix(0.75,0,0,0.75,-26,44.2501)"
font-family="MS Shell Dlg 2" font-size="8.25" font-weight="400" font-style="normal" 
>
<polyline fill="none" vector-effect="none" points="74,219 513,219 " />
<polyline fill="none" vector-effect="none" points="74,18 513,18 " />
<polyline fill="none" vector-effect="none" points="104.758,219 104.758,214.61 " />
<polyline fill="none" vector-effect="none" points="104.758,22.39 104.758,18 " />
<polyline fill="none" vector-effect="none" points="167.672,219 167.672,214.61 " />
<polyline fill="none" vector-effect="none" points="167.672,22.39 167.672,18 " />
<polyline fill="none" vector-effect="none" points="230.586,219 230.586,214.61 " />
<polyline fill="none" vector-effect="none" points="230.586,22.39 230.586,18 " />
<polyline fill="none" vector-effect="none" points="293.5,219 293.5,214.61 " />
<polyline fill="none" vector-effect="none" points="293.5,22.39 293.5,18 " />
<polyline fill="none" vector-effect="none" points="356.414,219 356.414,214.61 " />
<polyline fill="none" vector-effect="none" points="356.414,22.39 356.414,18 " />
<polyline fill="none" vector-effect="none" points="419.328,219 419.328,214.61 " />
<polyline fill="none" vector-effect="none" points="419.328,22.39 419.328,18 " />
<polyline fill="none" vector-effect="none" points="482.242,219 482.242,214.61 " />
<polyline fill="none" vector-effect="none" points="482.242,22.39 482.242,18 " />
</g>

<g fill="#212121" fill-opacity="1" stroke="#212121" stroke-opacity="1" stroke-width="1" stroke-linecap="square" stroke-linejoin="bevel" transform="matrix(0.75,0,0,0.75,16.5685,220)"
font-family="Palatino Linotype" font-size="13" font-weight="400" font-style="normal" 
>
<text fill="#212121" fill-opacity="1" stroke="none" xml:space="preserve" x="0" y="0" font-family="Palatino Linotype" font-size="13" font-weight="400" font-style="normal" 
 >$\hat{\sym{b}}$</text>
</g>

<g fill="#212121" fill-opacity="1" stroke="#212121" stroke-opacity="1" stroke-width="1" stroke-linecap="square" stroke-linejoin="bevel" transform="matrix(0.75,0,0,0.75,52.129,220)"
font-family="Palatino Linotype" font-size="13" font-weight="400" font-style="normal" 
>
<text fill="#212121" fill-opacity="1" stroke="none" xml:space="preserve" x="0" y="0" font-family="Palatino Linotype" font-size="13" font-weight="400" font-style="normal" 
 >$\hat{\sym{beta}}_0$</text>
</g>

<g fill="#212121" fill-opacity="1" stroke="#212121" stroke-opacity="1" stroke-width="1" stroke-linecap="square" stroke-linejoin="bevel" transform="matrix(0.75,0,0,0.75,99.3145,220)"
font-family="Palatino Linotype" font-size="13" font-weight="400" font-style="normal" 
>
<text fill="#212121" fill-opacity="1" stroke="none" xml:space="preserve" x="0" y="0" font-family="Palatino Linotype" font-size="13" font-weight="400" font-style="normal" 
 >$\hat{\sym{beta}}_1$</text>
</g>

<g fill="#212121" fill-opacity="1" stroke="#212121" stroke-opacity="1" stroke-width="1" stroke-linecap="square" stroke-linejoin="bevel" transform="matrix(0.75,0,0,0.75,146.5,220)"
font-family="Palatino Linotype" font-size="13" font-weight="400" font-style="normal" 
>
<text fill="#212121" fill-opacity="1" stroke="none" xml:space="preserve" x="0" y="0" font-family="Palatino Linotype" font-size="13" font-weight="400" font-style="normal" 
 >$\hat{\sym{beta}}_2$</text>
</g>

<g fill="#212121" fill-opacity="1" stroke="#212121" stroke-opacity="1" stroke-width="1" stroke-linecap="square" stroke-linejoin="bevel" transform="matrix(0.75,0,0,0.75,188.06,220)"
font-family="Palatino Linotype" font-size="13" font-weight="400" font-style="normal" 
>
<text fill="#212121" fill-opacity="1" stroke="none" xml:space="preserve" x="0" y="0" font-family="Palatino Linotype" font-size="13" font-weight="400" font-style="normal" 
 >$\hat{\sym{beta}}_{12}$</text>
</g>

<g fill="#212121" fill-opacity="1" stroke="#212121" stroke-opacity="1" stroke-width="1" stroke-linecap="square" stroke-linejoin="bevel" transform="matrix(0.75,0,0,0.75,235.246,220)"
font-family="Palatino Linotype" font-size="13" font-weight="400" font-style="normal" 
>
<text fill="#212121" fill-opacity="1" stroke="none" xml:space="preserve" x="0" y="0" font-family="Palatino Linotype" font-size="13" font-weight="400" font-style="normal" 
 >$\hat{\sym{beta}}_{11}$</text>
</g>

<g fill="#212121" fill-opacity="1" stroke="#212121" stroke-opacity="1" stroke-width="1" stroke-linecap="square" stroke-linejoin="bevel" transform="matrix(0.75,0,0,0.75,282.432,220)"
font-family="Palatino Linotype" font-size="13" font-weight="400" font-style="normal" 
>
<text fill="#212121" fill-opacity="1" stroke="none" xml:space="preserve" x="0" y="0" font-family="Palatino Linotype" font-size="13" font-weight="400" font-style="normal" 
 >$\hat{\sym{beta}}_{22}$</text>
</g>

<g fill="#212121" fill-opacity="1" stroke="#212121" stroke-opacity="1" stroke-width="1" stroke-linecap="square" stroke-linejoin="bevel" transform="matrix(0,-0.75,0.75,0,9.00001,265.5)"
font-family="Palatino Linotype" font-size="14" font-weight="400" font-style="normal" 
>
<text fill="#212121" fill-opacity="1" stroke="none" xml:space="preserve" x="0" y="0" font-family="Palatino Linotype" font-size="14" font-weight="400" font-style="normal" 
 >Absoluter Schätzwert $\hat{\sym{thet}}_{\sym{idx_i}}$</text>
</g>

<g fill="#212121" fill-opacity="1" stroke="#212121" stroke-opacity="1" stroke-width="1.06667" stroke-linecap="square" stroke-linejoin="round" transform="matrix(0.75,0,0,0.75,-26,44.2501)"
font-family="Palatino Linotype" font-size="14" font-weight="400" font-style="normal" 
>
<polyline fill="none" vector-effect="none" points="74,219 74,18 " />
<polyline fill="none" vector-effect="none" points="513,219 513,18 " />
<polyline fill="none" vector-effect="none" points="74,204.062 78.39,204.062 " />
<polyline fill="none" vector-effect="none" points="508.61,204.062 513,204.062 " />
<polyline fill="none" vector-effect="none" points="74,171.765 78.39,171.765 " />
<polyline fill="none" vector-effect="none" points="508.61,171.765 513,171.765 " />
<polyline fill="none" vector-effect="none" points="74,139.467 78.39,139.467 " />
<polyline fill="none" vector-effect="none" points="508.61,139.467 513,139.467 " />
<polyline fill="none" vector-effect="none" points="74,107.169 78.39,107.169 " />
<polyline fill="none" vector-effect="none" points="508.61,107.169 513,107.169 " />
<polyline fill="none" vector-effect="none" points="74,74.8717 78.39,74.8717 " />
<polyline fill="none" vector-effect="none" points="508.61,74.8717 513,74.8717 " />
<polyline fill="none" vector-effect="none" points="74,42.574 78.39,42.574 " />
<polyline fill="none" vector-effect="none" points="508.61,42.574 513,42.574 " />
</g>

<g fill="#212121" fill-opacity="1" stroke="#212121" stroke-opacity="1" stroke-width="1" stroke-linecap="square" stroke-linejoin="bevel" transform="matrix(0.75,0,0,0.75,20.25,199.547)"
font-family="Palatino Linotype" font-size="13" font-weight="400" font-style="normal" 
>
<text fill="#212121" fill-opacity="1" stroke="none" xml:space="preserve" x="0" y="0" font-family="Palatino Linotype" font-size="13" font-weight="400" font-style="normal" 
 >0</text>
</g>

<g fill="#212121" fill-opacity="1" stroke="#212121" stroke-opacity="1" stroke-width="1" stroke-linecap="square" stroke-linejoin="bevel" transform="matrix(0.75,0,0,0.75,20.25,175.324)"
font-family="Palatino Linotype" font-size="13" font-weight="400" font-style="normal" 
>
<text fill="#212121" fill-opacity="1" stroke="none" xml:space="preserve" x="0" y="0" font-family="Palatino Linotype" font-size="13" font-weight="400" font-style="normal" 
 >2</text>
</g>

<g fill="#212121" fill-opacity="1" stroke="#212121" stroke-opacity="1" stroke-width="1" stroke-linecap="square" stroke-linejoin="bevel" transform="matrix(0.75,0,0,0.75,20.25,151.1)"
font-family="Palatino Linotype" font-size="13" font-weight="400" font-style="normal" 
>
<text fill="#212121" fill-opacity="1" stroke="none" xml:space="preserve" x="0" y="0" font-family="Palatino Linotype" font-size="13" font-weight="400" font-style="normal" 
 >4</text>
</g>

<g fill="#212121" fill-opacity="1" stroke="#212121" stroke-opacity="1" stroke-width="1" stroke-linecap="square" stroke-linejoin="bevel" transform="matrix(0.75,0,0,0.75,20.25,126.877)"
font-family="Palatino Linotype" font-size="13" font-weight="400" font-style="normal" 
>
<text fill="#212121" fill-opacity="1" stroke="none" xml:space="preserve" x="0" y="0" font-family="Palatino Linotype" font-size="13" font-weight="400" font-style="normal" 
 >6</text>
</g>

<g fill="#212121" fill-opacity="1" stroke="#212121" stroke-opacity="1" stroke-width="1" stroke-linecap="square" stroke-linejoin="bevel" transform="matrix(0.75,0,0,0.75,20.25,102.654)"
font-family="Palatino Linotype" font-size="13" font-weight="400" font-style="normal" 
>
<text fill="#212121" fill-opacity="1" stroke="none" xml:space="preserve" x="0" y="0" font-family="Palatino Linotype" font-size="13" font-weight="400" font-style="normal" 
 >8</text>
</g>

<g fill="#212121" fill-opacity="1" stroke="#212121" stroke-opacity="1" stroke-width="1" stroke-linecap="square" stroke-linejoin="bevel" transform="matrix(0.75,0,0,0.75,15,78.4306)"
font-family="Palatino Linotype" font-size="13" font-weight="400" font-style="normal" 
>
<text fill="#212121" fill-opacity="1" stroke="none" xml:space="preserve" x="0" y="0" font-family="Palatino Linotype" font-size="13" font-weight="400" font-style="normal" 
 >10</text>
</g>

<g fill="#ffffff" fill-opacity="1" stroke="none" transform="matrix(7.5e-05,0,0,7.5e-05,-26,44.2501)"
font-family="Palatino Linotype" font-size="13" font-weight="400" font-style="normal" 
>
<path vector-effect="none" fill-rule="evenodd" d="M1.47e+06,270000 L1.47e+06,1.05e+06 L5.02e+06,1.05e+06 L5.02e+06,270000 L1.47e+06,270000"/>
</g>

<g fill="#000000" fill-opacity="1" stroke="none" transform="matrix(7.5e-05,0,0,7.5e-05,-26,44.2501)"
font-family="Palatino Linotype" font-size="13" font-weight="400" font-style="normal" 
>
<path vector-effect="none" fill-rule="evenodd" d="M1.51e+06,312774 L1.51e+06,448645 L1.91e+06,448645 L1.91e+06,312774 L1.51e+06,312774"/>
</g>

<g fill="none" stroke="#212121" stroke-opacity="1" stroke-width="0.666667" stroke-linecap="butt" stroke-linejoin="miter" stroke-miterlimit="2" transform="matrix(0.75,0,0,0.75,-26,44.2501)"
font-family="Palatino Linotype" font-size="13" font-weight="400" font-style="normal" 
>
<path vector-effect="none" fill-rule="evenodd" d="M151,44.8645 L151,31.2774 L191,31.2774 L191,44.8645 L151,44.8645"/>
</g>

<g fill="#999999" fill-opacity="1" stroke="none" transform="matrix(7.5e-05,0,0,7.5e-05,-26,44.2501)"
font-family="Palatino Linotype" font-size="13" font-weight="400" font-style="normal" 
>
<path vector-effect="none" fill-rule="evenodd" d="M1.51e+06,498967 L1.51e+06,634838 L1.91e+06,634838 L1.91e+06,498967 L1.51e+06,498967"/>
</g>

<g fill="none" stroke="#212121" stroke-opacity="1" stroke-width="0.666667" stroke-linecap="butt" stroke-linejoin="miter" stroke-miterlimit="2" transform="matrix(0.75,0,0,0.75,-26,44.2501)"
font-family="Palatino Linotype" font-size="13" font-weight="400" font-style="normal" 
>
<path vector-effect="none" fill-rule="evenodd" d="M151,63.4839 L151,49.8968 L191,49.8968 L191,63.4839 L151,63.4839"/>
</g>

<g fill="#4d4d4d" fill-opacity="1" stroke="none" transform="matrix(7.5e-05,0,0,7.5e-05,-26,44.2501)"
font-family="Palatino Linotype" font-size="13" font-weight="400" font-style="normal" 
>
<path vector-effect="none" fill-rule="evenodd" d="M1.51e+06,685161 L1.51e+06,821032 L1.91e+06,821032 L1.91e+06,685161 L1.51e+06,685161"/>
</g>

<g fill="none" stroke="#212121" stroke-opacity="1" stroke-width="0.666667" stroke-linecap="butt" stroke-linejoin="miter" stroke-miterlimit="2" transform="matrix(0.75,0,0,0.75,-26,44.2501)"
font-family="Palatino Linotype" font-size="13" font-weight="400" font-style="normal" 
>
<path vector-effect="none" fill-rule="evenodd" d="M151,82.1032 L151,68.5161 L191,68.5161 L191,82.1032 L151,82.1032"/>
</g>

<g fill="#000000" fill-opacity="1" stroke="#000000" stroke-opacity="1" stroke-width="2.66667" stroke-linecap="butt" stroke-linejoin="round" transform="matrix(0.75,0,0,0.75,-26,44.2501)"
font-family="Palatino Linotype" font-size="13" font-weight="400" font-style="normal" 
>
<polyline fill="none" vector-effect="none" points="151,93.929 191,93.929 " />
</g>

<g fill="#212121" fill-opacity="1" stroke="#212121" stroke-opacity="1" stroke-width="1" stroke-linecap="square" stroke-linejoin="bevel" transform="matrix(0.75,0,0,0.75,119.5,75.0533)"
font-family="Palatino Linotype" font-size="13" font-weight="400" font-style="normal" 
>
<text fill="#212121" fill-opacity="1" stroke="none" xml:space="preserve" x="0" y="0" font-family="Palatino Linotype" font-size="13" font-weight="400" font-style="normal" 
 >Basis \ac{CCD}</text>
</g>

<g fill="#212121" fill-opacity="1" stroke="#212121" stroke-opacity="1" stroke-width="1" stroke-linecap="square" stroke-linejoin="bevel" transform="matrix(0.75,0,0,0.75,119.5,89.0178)"
font-family="Palatino Linotype" font-size="13" font-weight="400" font-style="normal" 
>
<text fill="#212121" fill-opacity="1" stroke="none" xml:space="preserve" x="0" y="0" font-family="Palatino Linotype" font-size="13" font-weight="400" font-style="normal" 
 >$\textnormal{\ac{CCD}}_{-\textnormal{\ac{AP}}}$</text>
</g>

<g fill="#212121" fill-opacity="1" stroke="#212121" stroke-opacity="1" stroke-width="1" stroke-linecap="square" stroke-linejoin="bevel" transform="matrix(0.75,0,0,0.75,119.5,102.982)"
font-family="Palatino Linotype" font-size="13" font-weight="400" font-style="normal" 
>
<text fill="#212121" fill-opacity="1" stroke="none" xml:space="preserve" x="0" y="0" font-family="Palatino Linotype" font-size="13" font-weight="400" font-style="normal" 
 >\ac{EmALT}</text>
</g>

<g fill="#212121" fill-opacity="1" stroke="#212121" stroke-opacity="1" stroke-width="1" stroke-linecap="square" stroke-linejoin="bevel" transform="matrix(0.75,0,0,0.75,119.5,116.947)"
font-family="Palatino Linotype" font-size="13" font-weight="400" font-style="normal" 
>
<text fill="#212121" fill-opacity="1" stroke="none" xml:space="preserve" x="0" y="0" font-family="Palatino Linotype" font-size="13" font-weight="400" font-style="normal" 
 >Wahrer Nomineller Wert</text>
</g>

<g fill="none" stroke="#212121" stroke-opacity="1" stroke-width="1.06667" stroke-linecap="butt" stroke-linejoin="miter" stroke-miterlimit="2" transform="matrix(0.75,0,0,0.75,-26,44.2501)"
font-family="Palatino Linotype" font-size="13" font-weight="400" font-style="normal" 
>
<path vector-effect="none" fill-rule="evenodd" d="M147,105 L147,27 L502,27 L502,105 L147,105"/>
</g>
</g>
</svg>
