<?xml version="1.0" encoding="UTF-8" standalone="no"?>
<svg width="117.122mm" height="86.4306mm"
 viewBox="0 0 332 245"
 xmlns="http://www.w3.org/2000/svg" xmlns:xlink="http://www.w3.org/1999/xlink"  version="1.2" baseProfile="tiny">
<title>Qt SVG Document</title>
<desc>MATLAB, The MathWorks, Inc. Version 25.2.0.3055257 R2025b Update 2</desc>
<defs>
</defs>
<g fill="none" stroke="black" stroke-width="1" fill-rule="evenodd" stroke-linecap="square" stroke-linejoin="bevel" >

<g fill="#ffffff" fill-opacity="1" stroke="none" transform="matrix(0.75,0,0,0.75,-10.8,-13.14)"
font-family="MS Shell Dlg 2" font-size="8.25" font-weight="400" font-style="normal" 
>
<path vector-effect="none" fill-rule="evenodd" d="M13,16 L457,16 L457,343 L13,343 L13,16"/>
</g>

<g fill="#ffffff" fill-opacity="1" stroke="none" transform="matrix(7.5e-05,0,0,7.5e-05,-10.8,-13.14)"
font-family="MS Shell Dlg 2" font-size="8.25" font-weight="400" font-style="normal" 
>
<path vector-effect="none" fill-rule="evenodd" d="M590000,250000 L590000,2.95e+06 L4.11e+06,2.95e+06 L4.11e+06,250000 L590000,250000"/>
</g>

<g fill="#212121" fill-opacity="0.25098" stroke="#212121" stroke-opacity="0.25098" stroke-dasharray="1,3" stroke-dashoffset="0" stroke-width="1.06667" stroke-linecap="butt" stroke-linejoin="round" transform="matrix(0.75,0,0,0.75,-10.8,-13.14)"
font-family="MS Shell Dlg 2" font-size="8.25" font-weight="400" font-style="normal" 
>
<polyline fill="none" vector-effect="none" points="59,25 59,295 " />
<polyline fill="none" vector-effect="none" points="129.4,25 129.4,295 " />
<polyline fill="none" vector-effect="none" points="199.8,25 199.8,295 " />
<polyline fill="none" vector-effect="none" points="270.2,25 270.2,295 " />
<polyline fill="none" vector-effect="none" points="340.6,25 340.6,295 " />
<polyline fill="none" vector-effect="none" points="411,25 411,295 " />
<polyline fill="none" vector-effect="none" points="59,295 411,295 " />
<polyline fill="none" vector-effect="none" points="59,241 411,241 " />
<polyline fill="none" vector-effect="none" points="59,187 411,187 " />
<polyline fill="none" vector-effect="none" points="59,133 411,133 " />
<polyline fill="none" vector-effect="none" points="59,79 411,79 " />
<polyline fill="none" vector-effect="none" points="59,25 411,25 " />
</g>

<g fill="#212121" fill-opacity="1" stroke="none" transform="matrix(0.75,0,0,0.75,141.075,240.31)"
font-family="MS Shell Dlg 2" font-size="8.25" font-weight="400" font-style="normal" 
>
<path vector-effect="none" fill-rule="evenodd" d="M0.65625,-11.1094 L4.48438,0.21875 L3.85938,0.21875 L0.03125,-11.1094 L0.65625,-11.1094 M8.5625,-1.03125 C7.82292,-0.46875 7.35938,-0.140625 7.17188,-0.046875 C6.89063,0.0885417 6.59375,0.15625 6.28125,0.15625 C5.78125,0.15625 5.3724,-0.015625 5.05469,-0.359375 C4.73698,-0.703125 4.57813,-1.15104 4.57813,-1.70313 C4.57813,-2.04688 4.65625,-2.34896 4.8125,-2.60938 C5.02083,-2.96354 5.39063,-3.29688 5.92188,-3.60938 C6.45313,-3.92188 7.33333,-4.30208 8.5625,-4.75 L8.5625,-5.03125 C8.5625,-5.73958 8.44792,-6.22656 8.21875,-6.49219 C7.98958,-6.75781 7.66146,-6.89063 7.23438,-6.89063 C6.90104,-6.89063 6.64063,-6.80208 6.45313,-6.625 C6.25521,-6.44792 6.15625,-6.24479 6.15625,-6.01563 L6.17188,-5.5625 C6.17188,-5.32292 6.10938,-5.13802 5.98438,-5.00781 C5.85938,-4.8776 5.69792,-4.8125 5.5,-4.8125 C5.3125,-4.8125 5.15625,-4.88021 5.03125,-5.01563 C4.90625,-5.15104 4.84375,-5.33854 4.84375,-5.57813 C4.84375,-6.02604 5.07292,-6.4375 5.53125,-6.8125 C5.98958,-7.1875 6.63542,-7.375 7.46875,-7.375 C8.10417,-7.375 8.625,-7.26563 9.03125,-7.04688 C9.33333,-6.89063 9.55729,-6.64063 9.70313,-6.29688 C9.79688,-6.06771 9.84375,-5.60938 9.84375,-4.92188 L9.84375,-2.48438 C9.84375,-1.80729 9.85677,-1.39063 9.88281,-1.23438 C9.90885,-1.07813 9.95313,-0.973958 10.0156,-0.921875 C10.0781,-0.869792 10.1458,-0.84375 10.2188,-0.84375 C10.3021,-0.84375 10.375,-0.864583 10.4375,-0.90625 C10.5521,-0.96875 10.7656,-1.15625 11.0781,-1.46875 L11.0781,-1.03125 C10.4948,-0.25 9.9375,0.140625 9.40625,0.140625 C9.14583,0.140625 8.9401,0.0520833 8.78906,-0.125 C8.63802,-0.302083 8.5625,-0.604167 8.5625,-1.03125 M8.5625,-1.54688 L8.5625,-4.26563 C7.77083,-3.95313 7.26042,-3.73438 7.03125,-3.60938 C6.625,-3.38021 6.33333,-3.14063 6.15625,-2.89063 C5.97917,-2.64063 5.89063,-2.36458 5.89063,-2.0625 C5.89063,-1.6875 6.0026,-1.3776 6.22656,-1.13281 C6.45052,-0.888021 6.70833,-0.765625 7,-0.765625 C7.39583,-0.765625 7.91667,-1.02604 8.5625,-1.54688 M17.5781,-2.71875 C17.3906,-1.78125 17.0156,-1.05729 16.4531,-0.546875 C15.8906,-0.0364583 15.2656,0.21875 14.5781,0.21875 C13.7656,0.21875 13.0573,-0.122396 12.4531,-0.804688 C11.849,-1.48698 11.5469,-2.41146 11.5469,-3.57813 C11.5469,-4.70313 11.8828,-5.61719 12.5547,-6.32031 C13.2266,-7.02344 14.0313,-7.375 14.9688,-7.375 C15.6667,-7.375 16.2422,-7.1875 16.6953,-6.8125 C17.1484,-6.4375 17.375,-6.05208 17.375,-5.65625 C17.375,-5.45833 17.3125,-5.29688 17.1875,-5.17188 C17.0625,-5.04688 16.8854,-4.98438 16.6563,-4.98438 C16.3438,-4.98438 16.1094,-5.08333 15.9531,-5.28125 C15.8698,-5.39583 15.8125,-5.60677 15.7813,-5.91406 C15.75,-6.22135 15.6458,-6.45313 15.4688,-6.60938 C15.2813,-6.76563 15.026,-6.84375 14.7031,-6.84375 C14.1823,-6.84375 13.7656,-6.65104 13.4531,-6.26563 C13.026,-5.75521 12.8125,-5.08333 12.8125,-4.25 C12.8125,-3.39583 13.0234,-2.64063 13.4453,-1.98438 C13.8672,-1.32813 14.4323,-1 15.1406,-1 C15.651,-1 16.1094,-1.17708 16.5156,-1.53125 C16.8073,-1.77083 17.0885,-2.20313 17.3594,-2.82813 L17.5781,-2.71875 M24.5781,3.1875 L24.5781,3.45313 C23.7031,3.33854 22.9948,2.98698 22.4531,2.39844 C21.9115,1.8099 21.6406,1.16146 21.6406,0.453125 C21.6406,0.0677083 21.7005,-0.372396 21.8203,-0.867188 C21.9401,-1.36198 22,-1.75 22,-2.03125 C22,-2.40625 21.8411,-2.75521 21.5234,-3.07813 C21.2057,-3.40104 20.7708,-3.59896 20.2188,-3.67188 L20.2188,-4 C20.7708,-4.07292 21.2057,-4.27083 21.5234,-4.59375 C21.8411,-4.91667 22,-5.26563 22,-5.64063 C22,-5.92188 21.9401,-6.3099 21.8203,-6.80469 C21.7005,-7.29948 21.6406,-7.73438 21.6406,-8.10938 C21.6406,-8.81771 21.9115,-9.46615 22.4531,-10.0547 C22.9948,-10.6432 23.7031,-10.9948 24.5781,-11.1094 L24.5781,-10.8438 C23.9635,-10.6979 23.5156,-10.4583 23.2344,-10.125 C22.9531,-9.79167 22.8125,-9.42708 22.8125,-9.03125 C22.8125,-8.72917 22.8698,-8.32552 22.9844,-7.82031 C23.099,-7.3151 23.1563,-6.88542 23.1563,-6.53125 C23.1563,-6.01042 22.9635,-5.5026 22.5781,-5.00781 C22.1927,-4.51302 21.6198,-4.13021 20.8594,-3.85938 C21.6094,-3.57813 22.1797,-3.1849 22.5703,-2.67969 C22.9609,-2.17448 23.1563,-1.66146 23.1563,-1.14063 C23.1563,-0.786458 23.099,-0.356771 22.9844,0.148438 C22.8698,0.653646 22.8125,1.0625 22.8125,1.375 C22.8125,1.77083 22.9531,2.13281 23.2344,2.46094 C23.5156,2.78906 23.9635,3.03125 24.5781,3.1875 M29.2813,-10.0156 L29.2813,-5.85938 L31.2031,-5.85938 C31.651,-5.85938 31.9766,-5.95573 32.1797,-6.14844 C32.3828,-6.34115 32.5208,-6.72917 32.5938,-7.3125 L32.875,-7.3125 L32.875,-3.71875 L32.5938,-3.71875 C32.5833,-4.13542 32.5286,-4.4401 32.4297,-4.63281 C32.3307,-4.82552 32.1901,-4.96875 32.0078,-5.0625 C31.8255,-5.15625 31.5573,-5.20313 31.2031,-5.20313 L29.2813,-5.20313 L29.2813,-1.875 C29.2813,-1.34375 29.3125,-0.989583 29.375,-0.8125 C29.4271,-0.6875 29.5365,-0.578125 29.7031,-0.484375 C29.9323,-0.359375 30.1719,-0.296875 30.4219,-0.296875 L30.8125,-0.296875 L30.8125,0 L26.2656,0 L26.2656,-0.296875 L26.6406,-0.296875 C27.0781,-0.296875 27.3958,-0.421875 27.5938,-0.671875 C27.7188,-0.838542 27.7813,-1.23958 27.7813,-1.875 L27.7813,-8.71875 C27.7813,-9.26042 27.7448,-9.61458 27.6719,-9.78125 C27.6198,-9.91667 27.5156,-10.0313 27.3594,-10.125 C27.1302,-10.25 26.8906,-10.3125 26.6406,-10.3125 L26.2656,-10.3125 L26.2656,-10.5938 L34.1406,-10.5938 L34.25,-8.26563 L33.9688,-8.26563 C33.8333,-8.76563 33.6771,-9.13021 33.5,-9.35938 C33.3229,-9.58854 33.1016,-9.75521 32.8359,-9.85938 C32.5703,-9.96354 32.1615,-10.0156 31.6094,-10.0156 L29.2813,-10.0156 M35.2813,0 L35.2813,-0.296875 L35.6719,-0.296875 C36.1198,-0.296875 36.4375,-0.4375 36.625,-0.71875 C36.7396,-0.895833 36.7969,-1.28125 36.7969,-1.875 L36.7969,-8.71875 C36.7969,-9.38542 36.724,-9.80208 36.5781,-9.96875 C36.3802,-10.1979 36.0781,-10.3125 35.6719,-10.3125 L35.2813,-10.3125 L35.2813,-10.5938 L39.5938,-10.5938 C41.1771,-10.5938 42.3802,-10.4141 43.2031,-10.0547 C44.026,-9.69531 44.6901,-9.09635 45.1953,-8.25781 C45.7005,-7.41927 45.9531,-6.45313 45.9531,-5.35938 C45.9531,-3.88021 45.5052,-2.64583 44.6094,-1.65625 C43.599,-0.552083 42.0677,0 40.0156,0 L35.2813,0 M38.2969,-0.765625 C38.9635,-0.619792 39.5208,-0.546875 39.9688,-0.546875 C41.1771,-0.546875 42.1797,-0.971354 42.9766,-1.82031 C43.7734,-2.66927 44.1719,-3.82292 44.1719,-5.28125 C44.1719,-6.73958 43.7734,-7.89063 42.9766,-8.73438 C42.1797,-9.57813 41.1563,-10 39.9063,-10 C39.4375,-10 38.901,-9.92708 38.2969,-9.78125 L38.2969,-0.765625 M54.3438,-10.8438 L54.3438,-7.17188 L54.0469,-7.17188 C53.9531,-7.88021 53.7865,-8.44271 53.5469,-8.85938 C53.3073,-9.27604 52.9635,-9.60677 52.5156,-9.85156 C52.0677,-10.0964 51.6042,-10.2188 51.125,-10.2188 C50.5833,-10.2188 50.1354,-10.0521 49.7813,-9.71875 C49.4271,-9.38542 49.25,-9.01042 49.25,-8.59375 C49.25,-8.27083 49.3594,-7.97396 49.5781,-7.70313 C49.901,-7.31771 50.6719,-6.79688 51.8906,-6.14063 C52.8802,-5.60938 53.5547,-5.20313 53.9141,-4.92188 C54.2734,-4.64063 54.5521,-4.30729 54.75,-3.92188 C54.9479,-3.53646 55.0469,-3.13021 55.0469,-2.70313 C55.0469,-1.90104 54.7344,-1.20833 54.1094,-0.625 C53.4844,-0.0416667 52.6823,0.25 51.7031,0.25 C51.401,0.25 51.1146,0.223958 50.8438,0.171875 C50.6771,0.151042 50.3411,0.0572917 49.8359,-0.109375 C49.3307,-0.276042 49.0104,-0.359375 48.875,-0.359375 C48.7396,-0.359375 48.6354,-0.320313 48.5625,-0.242188 C48.4896,-0.164063 48.4323,0 48.3906,0.25 L48.1094,0.25 L48.1094,-3.39063 L48.3906,-3.39063 C48.526,-2.63021 48.7083,-2.0625 48.9375,-1.6875 C49.1667,-1.3125 49.5182,-1 49.9922,-0.75 C50.4661,-0.5 50.9844,-0.375 51.5469,-0.375 C52.1927,-0.375 52.7057,-0.546875 53.0859,-0.890625 C53.4661,-1.23438 53.6563,-1.64063 53.6563,-2.10938 C53.6563,-2.36979 53.5833,-2.63281 53.4375,-2.89844 C53.2917,-3.16406 53.0677,-3.41146 52.7656,-3.64063 C52.5677,-3.79688 52.0156,-4.1276 51.1094,-4.63281 C50.2031,-5.13802 49.5573,-5.54167 49.1719,-5.84375 C48.7865,-6.14583 48.4948,-6.47917 48.2969,-6.84375 C48.099,-7.20833 48,-7.60938 48,-8.04688 C48,-8.80729 48.2917,-9.46354 48.875,-10.0156 C49.4583,-10.5677 50.2031,-10.8438 51.1094,-10.8438 C51.6719,-10.8438 52.2656,-10.7031 52.8906,-10.4219 C53.1823,-10.2969 53.3906,-10.2344 53.5156,-10.2344 C53.651,-10.2344 53.7604,-10.2734 53.8438,-10.3516 C53.9271,-10.4297 53.9948,-10.5938 54.0469,-10.8438 L54.3438,-10.8438 M57.3906,-10.8438 L57.3906,-11.1094 C58.2552,-10.9948 58.9609,-10.6458 59.5078,-10.0625 C60.0547,-9.47917 60.3281,-8.82813 60.3281,-8.10938 C60.3281,-7.73438 60.2682,-7.29948 60.1484,-6.80469 C60.0286,-6.3099 59.9688,-5.92188 59.9688,-5.64063 C59.9688,-5.26563 60.125,-4.91667 60.4375,-4.59375 C60.75,-4.27083 61.1875,-4.07292 61.75,-4 L61.75,-3.67188 C61.1875,-3.59896 60.75,-3.40104 60.4375,-3.07813 C60.125,-2.75521 59.9688,-2.40625 59.9688,-2.03125 C59.9688,-1.75 60.0286,-1.36198 60.1484,-0.867188 C60.2682,-0.372396 60.3281,0.0677083 60.3281,0.453125 C60.3281,1.16146 60.0547,1.8099 59.5078,2.39844 C58.9609,2.98698 58.2552,3.33854 57.3906,3.45313 L57.3906,3.1875 C57.9948,3.03125 58.4401,2.78906 58.7266,2.46094 C59.013,2.13281 59.1563,1.77083 59.1563,1.375 C59.1563,1.0625 59.0964,0.653646 58.9766,0.148438 C58.8568,-0.356771 58.7969,-0.78125 58.7969,-1.125 C58.7969,-1.65625 58.9896,-2.16927 59.375,-2.66406 C59.7604,-3.15885 60.3385,-3.54167 61.1094,-3.8125 C60.3594,-4.09375 59.7865,-4.48698 59.3906,-4.99219 C58.9948,-5.4974 58.7969,-6.01042 58.7969,-6.53125 C58.7969,-6.88542 58.8568,-7.3151 58.9766,-7.82031 C59.0964,-8.32552 59.1563,-8.72917 59.1563,-9.03125 C59.1563,-9.42708 59.013,-9.79167 58.7266,-10.125 C58.4401,-10.4583 57.9948,-10.6979 57.3906,-10.8438 "/>
</g>

<g fill="#212121" fill-opacity="1" stroke="#212121" stroke-opacity="1" stroke-width="1.06667" stroke-linecap="square" stroke-linejoin="round" transform="matrix(0.75,0,0,0.75,-10.8,-13.14)"
font-family="MS Shell Dlg 2" font-size="8.25" font-weight="400" font-style="normal" 
>
<polyline fill="none" vector-effect="none" points="59,295 411,295 " />
<polyline fill="none" vector-effect="none" points="59,25 411,25 " />
<polyline fill="none" vector-effect="none" points="59,295 59,291.48 " />
<polyline fill="none" vector-effect="none" points="59,28.52 59,25 " />
<polyline fill="none" vector-effect="none" points="129.4,295 129.4,291.48 " />
<polyline fill="none" vector-effect="none" points="129.4,28.52 129.4,25 " />
<polyline fill="none" vector-effect="none" points="199.8,295 199.8,291.48 " />
<polyline fill="none" vector-effect="none" points="199.8,28.52 199.8,25 " />
<polyline fill="none" vector-effect="none" points="270.2,295 270.2,291.48 " />
<polyline fill="none" vector-effect="none" points="270.2,28.52 270.2,25 " />
<polyline fill="none" vector-effect="none" points="340.6,295 340.6,291.48 " />
<polyline fill="none" vector-effect="none" points="340.6,28.52 340.6,25 " />
<polyline fill="none" vector-effect="none" points="411,295 411,291.48 " />
<polyline fill="none" vector-effect="none" points="411,28.52 411,25 " />
</g>

<g fill="#212121" fill-opacity="1" stroke="none" transform="matrix(0.75,0,0,0.75,30.7,221.55)"
font-family="MS Shell Dlg 2" font-size="8.25" font-weight="400" font-style="normal" 
>
<path vector-effect="none" fill-rule="evenodd" d="M3.5,0.3125 C2.35417,0.3125 1.57552,-0.158854 1.16406,-1.10156 C0.752604,-2.04427 0.546875,-3.16667 0.546875,-4.46875 C0.546875,-5.28125 0.619792,-6.04427 0.765625,-6.75781 C0.911458,-7.47135 1.20573,-8.07813 1.64844,-8.57813 C2.09115,-9.07813 2.70833,-9.32813 3.5,-9.32813 C4.11458,-9.32813 4.61719,-9.17708 5.00781,-8.875 C5.39844,-8.57292 5.69792,-8.1849 5.90625,-7.71094 C6.11458,-7.23698 6.25521,-6.72656 6.32813,-6.17969 C6.40104,-5.63281 6.4375,-5.0625 6.4375,-4.46875 C6.4375,-3.66667 6.36458,-2.91406 6.21875,-2.21094 C6.07292,-1.50781 5.78385,-0.911458 5.35156,-0.421875 C4.91927,0.0677083 4.30208,0.3125 3.5,0.3125 M3.5,-0.0625 C4.02083,-0.0625 4.40885,-0.328125 4.66406,-0.859375 C4.91927,-1.39063 5.07552,-1.97917 5.13281,-2.625 C5.1901,-3.27083 5.21875,-3.95833 5.21875,-4.6875 C5.21875,-5.39583 5.1901,-6.04427 5.13281,-6.63281 C5.07552,-7.22135 4.91927,-7.75781 4.66406,-8.24219 C4.40885,-8.72656 4.02083,-8.96875 3.5,-8.96875 C2.96875,-8.96875 2.57552,-8.72656 2.32031,-8.24219 C2.0651,-7.75781 1.90885,-7.22135 1.85156,-6.63281 C1.79427,-6.04427 1.76563,-5.39583 1.76563,-4.6875 C1.76563,-4.16667 1.77865,-3.67708 1.80469,-3.21875 C1.83073,-2.76042 1.89844,-2.28646 2.00781,-1.79688 C2.11719,-1.30729 2.29427,-0.895833 2.53906,-0.5625 C2.78385,-0.229167 3.10417,-0.0625 3.5,-0.0625 "/>
</g>

<g fill="#212121" fill-opacity="1" stroke="none" transform="matrix(0.75,0,0,0.75,79.2222,221.55)"
font-family="MS Shell Dlg 2" font-size="8.25" font-weight="400" font-style="normal" 
>
<path vector-effect="none" fill-rule="evenodd" d="M3.5,0.3125 C2.35417,0.3125 1.57552,-0.158854 1.16406,-1.10156 C0.752604,-2.04427 0.546875,-3.16667 0.546875,-4.46875 C0.546875,-5.28125 0.619792,-6.04427 0.765625,-6.75781 C0.911458,-7.47135 1.20573,-8.07813 1.64844,-8.57813 C2.09115,-9.07813 2.70833,-9.32813 3.5,-9.32813 C4.11458,-9.32813 4.61719,-9.17708 5.00781,-8.875 C5.39844,-8.57292 5.69792,-8.1849 5.90625,-7.71094 C6.11458,-7.23698 6.25521,-6.72656 6.32813,-6.17969 C6.40104,-5.63281 6.4375,-5.0625 6.4375,-4.46875 C6.4375,-3.66667 6.36458,-2.91406 6.21875,-2.21094 C6.07292,-1.50781 5.78385,-0.911458 5.35156,-0.421875 C4.91927,0.0677083 4.30208,0.3125 3.5,0.3125 M3.5,-0.0625 C4.02083,-0.0625 4.40885,-0.328125 4.66406,-0.859375 C4.91927,-1.39063 5.07552,-1.97917 5.13281,-2.625 C5.1901,-3.27083 5.21875,-3.95833 5.21875,-4.6875 C5.21875,-5.39583 5.1901,-6.04427 5.13281,-6.63281 C5.07552,-7.22135 4.91927,-7.75781 4.66406,-8.24219 C4.40885,-8.72656 4.02083,-8.96875 3.5,-8.96875 C2.96875,-8.96875 2.57552,-8.72656 2.32031,-8.24219 C2.0651,-7.75781 1.90885,-7.22135 1.85156,-6.63281 C1.79427,-6.04427 1.76563,-5.39583 1.76563,-4.6875 C1.76563,-4.16667 1.77865,-3.67708 1.80469,-3.21875 C1.83073,-2.76042 1.89844,-2.28646 2.00781,-1.79688 C2.11719,-1.30729 2.29427,-0.895833 2.53906,-0.5625 C2.78385,-0.229167 3.10417,-0.0625 3.5,-0.0625 "/>
</g>

<g fill="#212121" fill-opacity="1" stroke="none" transform="matrix(0.75,0,0,0.75,84.7222,221.55)"
font-family="MS Shell Dlg 2" font-size="8.25" font-weight="400" font-style="normal" 
>
<path vector-effect="none" fill-rule="evenodd" d="M1.17188,-0.765625 C1.17188,-0.984375 1.25,-1.16667 1.40625,-1.3125 C1.5625,-1.45833 1.74479,-1.53125 1.95313,-1.53125 C2.07813,-1.53125 2.20313,-1.4974 2.32813,-1.42969 C2.45313,-1.36198 2.54948,-1.26823 2.61719,-1.14844 C2.6849,-1.02865 2.71875,-0.901042 2.71875,-0.765625 C2.71875,-0.567708 2.64323,-0.390625 2.49219,-0.234375 C2.34115,-0.078125 2.16146,0 1.95313,0 C1.74479,0 1.5625,-0.078125 1.40625,-0.234375 C1.25,-0.390625 1.17188,-0.567708 1.17188,-0.765625 "/>
</g>

<g fill="#212121" fill-opacity="1" stroke="none" transform="matrix(0.75,0,0,0.75,87.7778,221.55)"
font-family="MS Shell Dlg 2" font-size="8.25" font-weight="400" font-style="normal" 
>
<path vector-effect="none" fill-rule="evenodd" d="M0.703125,0 L0.703125,-0.375 C0.703125,-0.395833 0.708333,-0.421875 0.71875,-0.453125 L2.90625,-2.85938 C3.22917,-3.21354 3.49219,-3.51042 3.69531,-3.75 C3.89844,-3.98958 4.10156,-4.26823 4.30469,-4.58594 C4.50781,-4.90365 4.66667,-5.22396 4.78125,-5.54688 C4.89583,-5.86979 4.95313,-6.21354 4.95313,-6.57813 C4.95313,-6.96354 4.88281,-7.33073 4.74219,-7.67969 C4.60156,-8.02865 4.39063,-8.30729 4.10938,-8.51563 C3.82813,-8.72396 3.48958,-8.82813 3.09375,-8.82813 C2.6875,-8.82813 2.32292,-8.70573 2,-8.46094 C1.67708,-8.21615 1.44792,-7.90104 1.3125,-7.51563 C1.35417,-7.52604 1.40625,-7.53125 1.46875,-7.53125 C1.67708,-7.53125 1.85677,-7.46094 2.00781,-7.32031 C2.15885,-7.17969 2.23438,-7 2.23438,-6.78125 C2.23438,-6.5625 2.15885,-6.38021 2.00781,-6.23438 C1.85677,-6.08854 1.67708,-6.01563 1.46875,-6.01563 C1.25,-6.01563 1.06771,-6.09115 0.921875,-6.24219 C0.776042,-6.39323 0.703125,-6.57292 0.703125,-6.78125 C0.703125,-7.125 0.768229,-7.45052 0.898438,-7.75781 C1.02865,-8.0651 1.21875,-8.33854 1.46875,-8.57813 C1.71875,-8.81771 2,-9.0026 2.3125,-9.13281 C2.625,-9.26302 2.95313,-9.32813 3.29688,-9.32813 C3.83854,-9.32813 4.33854,-9.21354 4.79688,-8.98438 C5.25521,-8.75521 5.61979,-8.4349 5.89063,-8.02344 C6.16146,-7.61198 6.29688,-7.13021 6.29688,-6.57813 C6.29688,-6.17188 6.20573,-5.78646 6.02344,-5.42188 C5.84115,-5.05729 5.61198,-4.72656 5.33594,-4.42969 C5.0599,-4.13281 4.70573,-3.79427 4.27344,-3.41406 C3.84115,-3.03385 3.55729,-2.78125 3.42188,-2.65625 L1.82813,-1.14063 L3.17188,-1.14063 C3.83854,-1.14063 4.39323,-1.14583 4.83594,-1.15625 C5.27865,-1.16667 5.51563,-1.18229 5.54688,-1.20313 C5.65104,-1.31771 5.76042,-1.75 5.875,-2.5 L6.29688,-2.5 L5.89063,0 L0.703125,0"/>
</g>

<g fill="#212121" fill-opacity="1" stroke="none" transform="matrix(0.75,0,0,0.75,132.022,221.55)"
font-family="MS Shell Dlg 2" font-size="8.25" font-weight="400" font-style="normal" 
>
<path vector-effect="none" fill-rule="evenodd" d="M3.5,0.3125 C2.35417,0.3125 1.57552,-0.158854 1.16406,-1.10156 C0.752604,-2.04427 0.546875,-3.16667 0.546875,-4.46875 C0.546875,-5.28125 0.619792,-6.04427 0.765625,-6.75781 C0.911458,-7.47135 1.20573,-8.07813 1.64844,-8.57813 C2.09115,-9.07813 2.70833,-9.32813 3.5,-9.32813 C4.11458,-9.32813 4.61719,-9.17708 5.00781,-8.875 C5.39844,-8.57292 5.69792,-8.1849 5.90625,-7.71094 C6.11458,-7.23698 6.25521,-6.72656 6.32813,-6.17969 C6.40104,-5.63281 6.4375,-5.0625 6.4375,-4.46875 C6.4375,-3.66667 6.36458,-2.91406 6.21875,-2.21094 C6.07292,-1.50781 5.78385,-0.911458 5.35156,-0.421875 C4.91927,0.0677083 4.30208,0.3125 3.5,0.3125 M3.5,-0.0625 C4.02083,-0.0625 4.40885,-0.328125 4.66406,-0.859375 C4.91927,-1.39063 5.07552,-1.97917 5.13281,-2.625 C5.1901,-3.27083 5.21875,-3.95833 5.21875,-4.6875 C5.21875,-5.39583 5.1901,-6.04427 5.13281,-6.63281 C5.07552,-7.22135 4.91927,-7.75781 4.66406,-8.24219 C4.40885,-8.72656 4.02083,-8.96875 3.5,-8.96875 C2.96875,-8.96875 2.57552,-8.72656 2.32031,-8.24219 C2.0651,-7.75781 1.90885,-7.22135 1.85156,-6.63281 C1.79427,-6.04427 1.76563,-5.39583 1.76563,-4.6875 C1.76563,-4.16667 1.77865,-3.67708 1.80469,-3.21875 C1.83073,-2.76042 1.89844,-2.28646 2.00781,-1.79688 C2.11719,-1.30729 2.29427,-0.895833 2.53906,-0.5625 C2.78385,-0.229167 3.10417,-0.0625 3.5,-0.0625 "/>
</g>

<g fill="#212121" fill-opacity="1" stroke="none" transform="matrix(0.75,0,0,0.75,137.522,221.55)"
font-family="MS Shell Dlg 2" font-size="8.25" font-weight="400" font-style="normal" 
>
<path vector-effect="none" fill-rule="evenodd" d="M1.17188,-0.765625 C1.17188,-0.984375 1.25,-1.16667 1.40625,-1.3125 C1.5625,-1.45833 1.74479,-1.53125 1.95313,-1.53125 C2.07813,-1.53125 2.20313,-1.4974 2.32813,-1.42969 C2.45313,-1.36198 2.54948,-1.26823 2.61719,-1.14844 C2.6849,-1.02865 2.71875,-0.901042 2.71875,-0.765625 C2.71875,-0.567708 2.64323,-0.390625 2.49219,-0.234375 C2.34115,-0.078125 2.16146,0 1.95313,0 C1.74479,0 1.5625,-0.078125 1.40625,-0.234375 C1.25,-0.390625 1.17188,-0.567708 1.17188,-0.765625 "/>
</g>

<g fill="#212121" fill-opacity="1" stroke="none" transform="matrix(0.75,0,0,0.75,140.578,221.55)"
font-family="MS Shell Dlg 2" font-size="8.25" font-weight="400" font-style="normal" 
>
<path vector-effect="none" fill-rule="evenodd" d="M0.390625,-2.3125 L0.390625,-2.79688 L4.71875,-9.25 C4.75,-9.30208 4.79688,-9.32813 4.85938,-9.32813 L5.0625,-9.32813 C5.16667,-9.32813 5.21875,-9.27604 5.21875,-9.17188 L5.21875,-2.79688 L6.59375,-2.79688 L6.59375,-2.3125 L5.21875,-2.3125 L5.21875,-0.9375 C5.21875,-0.75 5.35677,-0.630208 5.63281,-0.578125 C5.90885,-0.526042 6.22396,-0.5 6.57813,-0.5 L6.57813,0 L2.73438,0 L2.73438,-0.5 C3.08854,-0.5 3.40365,-0.526042 3.67969,-0.578125 C3.95573,-0.630208 4.09375,-0.75 4.09375,-0.9375 L4.09375,-2.3125 L0.390625,-2.3125 M0.859375,-2.79688 L4.17188,-2.79688 L4.17188,-7.76563 L0.859375,-2.79688"/>
</g>

<g fill="#212121" fill-opacity="1" stroke="none" transform="matrix(0.75,0,0,0.75,184.822,221.55)"
font-family="MS Shell Dlg 2" font-size="8.25" font-weight="400" font-style="normal" 
>
<path vector-effect="none" fill-rule="evenodd" d="M3.5,0.3125 C2.35417,0.3125 1.57552,-0.158854 1.16406,-1.10156 C0.752604,-2.04427 0.546875,-3.16667 0.546875,-4.46875 C0.546875,-5.28125 0.619792,-6.04427 0.765625,-6.75781 C0.911458,-7.47135 1.20573,-8.07813 1.64844,-8.57813 C2.09115,-9.07813 2.70833,-9.32813 3.5,-9.32813 C4.11458,-9.32813 4.61719,-9.17708 5.00781,-8.875 C5.39844,-8.57292 5.69792,-8.1849 5.90625,-7.71094 C6.11458,-7.23698 6.25521,-6.72656 6.32813,-6.17969 C6.40104,-5.63281 6.4375,-5.0625 6.4375,-4.46875 C6.4375,-3.66667 6.36458,-2.91406 6.21875,-2.21094 C6.07292,-1.50781 5.78385,-0.911458 5.35156,-0.421875 C4.91927,0.0677083 4.30208,0.3125 3.5,0.3125 M3.5,-0.0625 C4.02083,-0.0625 4.40885,-0.328125 4.66406,-0.859375 C4.91927,-1.39063 5.07552,-1.97917 5.13281,-2.625 C5.1901,-3.27083 5.21875,-3.95833 5.21875,-4.6875 C5.21875,-5.39583 5.1901,-6.04427 5.13281,-6.63281 C5.07552,-7.22135 4.91927,-7.75781 4.66406,-8.24219 C4.40885,-8.72656 4.02083,-8.96875 3.5,-8.96875 C2.96875,-8.96875 2.57552,-8.72656 2.32031,-8.24219 C2.0651,-7.75781 1.90885,-7.22135 1.85156,-6.63281 C1.79427,-6.04427 1.76563,-5.39583 1.76563,-4.6875 C1.76563,-4.16667 1.77865,-3.67708 1.80469,-3.21875 C1.83073,-2.76042 1.89844,-2.28646 2.00781,-1.79688 C2.11719,-1.30729 2.29427,-0.895833 2.53906,-0.5625 C2.78385,-0.229167 3.10417,-0.0625 3.5,-0.0625 "/>
</g>

<g fill="#212121" fill-opacity="1" stroke="none" transform="matrix(0.75,0,0,0.75,190.322,221.55)"
font-family="MS Shell Dlg 2" font-size="8.25" font-weight="400" font-style="normal" 
>
<path vector-effect="none" fill-rule="evenodd" d="M1.17188,-0.765625 C1.17188,-0.984375 1.25,-1.16667 1.40625,-1.3125 C1.5625,-1.45833 1.74479,-1.53125 1.95313,-1.53125 C2.07813,-1.53125 2.20313,-1.4974 2.32813,-1.42969 C2.45313,-1.36198 2.54948,-1.26823 2.61719,-1.14844 C2.6849,-1.02865 2.71875,-0.901042 2.71875,-0.765625 C2.71875,-0.567708 2.64323,-0.390625 2.49219,-0.234375 C2.34115,-0.078125 2.16146,0 1.95313,0 C1.74479,0 1.5625,-0.078125 1.40625,-0.234375 C1.25,-0.390625 1.17188,-0.567708 1.17188,-0.765625 "/>
</g>

<g fill="#212121" fill-opacity="1" stroke="none" transform="matrix(0.75,0,0,0.75,193.378,221.55)"
font-family="MS Shell Dlg 2" font-size="8.25" font-weight="400" font-style="normal" 
>
<path vector-effect="none" fill-rule="evenodd" d="M3.5,0.3125 C2.91667,0.3125 2.43229,0.158854 2.04688,-0.148438 C1.66146,-0.455729 1.36198,-0.854167 1.14844,-1.34375 C0.934896,-1.83333 0.789063,-2.34896 0.710938,-2.89063 C0.632813,-3.43229 0.59375,-3.97917 0.59375,-4.53125 C0.59375,-5.27083 0.736979,-6.01042 1.02344,-6.75 C1.3099,-7.48958 1.73177,-8.10417 2.28906,-8.59375 C2.84635,-9.08333 3.50521,-9.32813 4.26563,-9.32813 C4.58854,-9.32813 4.88802,-9.26823 5.16406,-9.14844 C5.4401,-9.02865 5.65625,-8.85156 5.8125,-8.61719 C5.96875,-8.38281 6.04688,-8.09896 6.04688,-7.76563 C6.04688,-7.56771 5.98177,-7.40365 5.85156,-7.27344 C5.72135,-7.14323 5.5625,-7.07813 5.375,-7.07813 C5.1875,-7.07813 5.02865,-7.14583 4.89844,-7.28125 C4.76823,-7.41667 4.70313,-7.57813 4.70313,-7.76563 C4.70313,-7.94271 4.76823,-8.09635 4.89844,-8.22656 C5.02865,-8.35677 5.1875,-8.42188 5.375,-8.42188 L5.45313,-8.42188 C5.32813,-8.59896 5.15885,-8.72656 4.94531,-8.80469 C4.73177,-8.88281 4.50521,-8.92188 4.26563,-8.92188 C3.98438,-8.92188 3.72396,-8.85938 3.48438,-8.73438 C3.24479,-8.60938 3.03125,-8.44271 2.84375,-8.23438 C2.65625,-8.02604 2.4974,-7.79427 2.36719,-7.53906 C2.23698,-7.28385 2.13802,-6.99479 2.07031,-6.67188 C2.0026,-6.34896 1.95833,-6.04688 1.9375,-5.76563 C1.91667,-5.48438 1.90625,-5.13021 1.90625,-4.70313 C2.07292,-5.08854 2.30729,-5.40365 2.60938,-5.64844 C2.91146,-5.89323 3.25,-6.01563 3.625,-6.01563 C4.04167,-6.01563 4.41927,-5.92969 4.75781,-5.75781 C5.09635,-5.58594 5.39063,-5.35156 5.64063,-5.05469 C5.89063,-4.75781 6.08073,-4.41667 6.21094,-4.03125 C6.34115,-3.64583 6.40625,-3.26042 6.40625,-2.875 C6.40625,-2.32292 6.28385,-1.79948 6.03906,-1.30469 C5.79427,-0.809896 5.45052,-0.416667 5.00781,-0.125 C4.5651,0.166667 4.0625,0.3125 3.5,0.3125 M3.5,-0.140625 C3.86458,-0.140625 4.15625,-0.223958 4.375,-0.390625 C4.59375,-0.557292 4.7526,-0.776042 4.85156,-1.04688 C4.95052,-1.31771 5.01302,-1.58854 5.03906,-1.85938 C5.0651,-2.13021 5.07813,-2.46875 5.07813,-2.875 C5.07813,-3.39583 5.05208,-3.84375 5,-4.21875 C4.94792,-4.59375 4.8125,-4.92448 4.59375,-5.21094 C4.375,-5.4974 4.03125,-5.64063 3.5625,-5.64063 C3.1875,-5.64063 2.8776,-5.51302 2.63281,-5.25781 C2.38802,-5.0026 2.21094,-4.67969 2.10156,-4.28906 C1.99219,-3.89844 1.9375,-3.52604 1.9375,-3.17188 C1.9375,-3.04688 1.94271,-2.95313 1.95313,-2.89063 C1.95313,-2.86979 1.95052,-2.85677 1.94531,-2.85156 C1.9401,-2.84635 1.9375,-2.83333 1.9375,-2.8125 C1.9375,-2.41667 1.97917,-2.01302 2.0625,-1.60156 C2.14583,-1.1901 2.30208,-0.84375 2.53125,-0.5625 C2.76042,-0.28125 3.08333,-0.140625 3.5,-0.140625 "/>
</g>

<g fill="#212121" fill-opacity="1" stroke="none" transform="matrix(0.75,0,0,0.75,237.622,221.55)"
font-family="MS Shell Dlg 2" font-size="8.25" font-weight="400" font-style="normal" 
>
<path vector-effect="none" fill-rule="evenodd" d="M3.5,0.3125 C2.35417,0.3125 1.57552,-0.158854 1.16406,-1.10156 C0.752604,-2.04427 0.546875,-3.16667 0.546875,-4.46875 C0.546875,-5.28125 0.619792,-6.04427 0.765625,-6.75781 C0.911458,-7.47135 1.20573,-8.07813 1.64844,-8.57813 C2.09115,-9.07813 2.70833,-9.32813 3.5,-9.32813 C4.11458,-9.32813 4.61719,-9.17708 5.00781,-8.875 C5.39844,-8.57292 5.69792,-8.1849 5.90625,-7.71094 C6.11458,-7.23698 6.25521,-6.72656 6.32813,-6.17969 C6.40104,-5.63281 6.4375,-5.0625 6.4375,-4.46875 C6.4375,-3.66667 6.36458,-2.91406 6.21875,-2.21094 C6.07292,-1.50781 5.78385,-0.911458 5.35156,-0.421875 C4.91927,0.0677083 4.30208,0.3125 3.5,0.3125 M3.5,-0.0625 C4.02083,-0.0625 4.40885,-0.328125 4.66406,-0.859375 C4.91927,-1.39063 5.07552,-1.97917 5.13281,-2.625 C5.1901,-3.27083 5.21875,-3.95833 5.21875,-4.6875 C5.21875,-5.39583 5.1901,-6.04427 5.13281,-6.63281 C5.07552,-7.22135 4.91927,-7.75781 4.66406,-8.24219 C4.40885,-8.72656 4.02083,-8.96875 3.5,-8.96875 C2.96875,-8.96875 2.57552,-8.72656 2.32031,-8.24219 C2.0651,-7.75781 1.90885,-7.22135 1.85156,-6.63281 C1.79427,-6.04427 1.76563,-5.39583 1.76563,-4.6875 C1.76563,-4.16667 1.77865,-3.67708 1.80469,-3.21875 C1.83073,-2.76042 1.89844,-2.28646 2.00781,-1.79688 C2.11719,-1.30729 2.29427,-0.895833 2.53906,-0.5625 C2.78385,-0.229167 3.10417,-0.0625 3.5,-0.0625 "/>
</g>

<g fill="#212121" fill-opacity="1" stroke="none" transform="matrix(0.75,0,0,0.75,243.122,221.55)"
font-family="MS Shell Dlg 2" font-size="8.25" font-weight="400" font-style="normal" 
>
<path vector-effect="none" fill-rule="evenodd" d="M1.17188,-0.765625 C1.17188,-0.984375 1.25,-1.16667 1.40625,-1.3125 C1.5625,-1.45833 1.74479,-1.53125 1.95313,-1.53125 C2.07813,-1.53125 2.20313,-1.4974 2.32813,-1.42969 C2.45313,-1.36198 2.54948,-1.26823 2.61719,-1.14844 C2.6849,-1.02865 2.71875,-0.901042 2.71875,-0.765625 C2.71875,-0.567708 2.64323,-0.390625 2.49219,-0.234375 C2.34115,-0.078125 2.16146,0 1.95313,0 C1.74479,0 1.5625,-0.078125 1.40625,-0.234375 C1.25,-0.390625 1.17188,-0.567708 1.17188,-0.765625 "/>
</g>

<g fill="#212121" fill-opacity="1" stroke="none" transform="matrix(0.75,0,0,0.75,246.178,221.55)"
font-family="MS Shell Dlg 2" font-size="8.25" font-weight="400" font-style="normal" 
>
<path vector-effect="none" fill-rule="evenodd" d="M0.59375,-2.125 C0.59375,-2.6875 0.778646,-3.1849 1.14844,-3.61719 C1.51823,-4.04948 1.98958,-4.40625 2.5625,-4.6875 L2.04688,-5.03125 C1.72396,-5.23958 1.46354,-5.51823 1.26563,-5.86719 C1.06771,-6.21615 0.96875,-6.57813 0.96875,-6.95313 C0.96875,-7.40104 1.08594,-7.80469 1.32031,-8.16406 C1.55469,-8.52344 1.86719,-8.80729 2.25781,-9.01563 C2.64844,-9.22396 3.0625,-9.32813 3.5,-9.32813 C3.91667,-9.32813 4.31771,-9.24219 4.70313,-9.07031 C5.08854,-8.89844 5.40365,-8.65625 5.64844,-8.34375 C5.89323,-8.03125 6.01563,-7.66146 6.01563,-7.23438 C6.01563,-6.91146 5.94271,-6.61719 5.79688,-6.35156 C5.65104,-6.08594 5.45052,-5.84635 5.19531,-5.63281 C4.9401,-5.41927 4.66667,-5.23438 4.375,-5.07813 L5.17188,-4.5625 C5.53646,-4.32292 5.83333,-4.00781 6.0625,-3.61719 C6.29167,-3.22656 6.40625,-2.8125 6.40625,-2.375 C6.40625,-1.875 6.26823,-1.41667 5.99219,-1 C5.71615,-0.583333 5.35677,-0.260417 4.91406,-0.03125 C4.47135,0.197917 4,0.3125 3.5,0.3125 C3.02083,0.3125 2.55469,0.213542 2.10156,0.015625 C1.64844,-0.182292 1.28385,-0.466146 1.00781,-0.835938 C0.731771,-1.20573 0.59375,-1.63542 0.59375,-2.125 M1.34375,-2.125 C1.34375,-1.76042 1.44531,-1.42448 1.64844,-1.11719 C1.85156,-0.809896 2.11979,-0.570313 2.45313,-0.398438 C2.78646,-0.226563 3.13542,-0.140625 3.5,-0.140625 C4.04167,-0.140625 4.53385,-0.299479 4.97656,-0.617188 C5.41927,-0.934896 5.64063,-1.35417 5.64063,-1.875 C5.64063,-2.05208 5.60417,-2.22917 5.53125,-2.40625 C5.45833,-2.58333 5.35938,-2.74219 5.23438,-2.88281 C5.10938,-3.02344 4.96875,-3.14063 4.8125,-3.23438 L2.9375,-4.45313 C2.64583,-4.29688 2.3776,-4.10156 2.13281,-3.86719 C1.88802,-3.63281 1.69531,-3.36719 1.55469,-3.07031 C1.41406,-2.77344 1.34375,-2.45833 1.34375,-2.125 M2.3125,-6.40625 L4,-5.3125 C4.39583,-5.54167 4.71875,-5.81771 4.96875,-6.14063 C5.21875,-6.46354 5.34375,-6.82813 5.34375,-7.23438 C5.34375,-7.54688 5.25521,-7.83333 5.07813,-8.09375 C4.90104,-8.35417 4.67188,-8.55729 4.39063,-8.70313 C4.10938,-8.84896 3.80729,-8.92188 3.48438,-8.92188 C3.20313,-8.92188 2.91927,-8.86719 2.63281,-8.75781 C2.34635,-8.64844 2.10938,-8.48438 1.92188,-8.26563 C1.73438,-8.04688 1.64063,-7.79167 1.64063,-7.5 C1.64063,-7.0625 1.86458,-6.69792 2.3125,-6.40625 "/>
</g>

<g fill="#212121" fill-opacity="1" stroke="none" transform="matrix(0.75,0,0,0.75,294.7,221.55)"
font-family="MS Shell Dlg 2" font-size="8.25" font-weight="400" font-style="normal" 
>
<path vector-effect="none" fill-rule="evenodd" d="M1.29688,0 L1.29688,-0.5 C2.46354,-0.5 3.04688,-0.645833 3.04688,-0.9375 L3.04688,-8.28125 C2.56771,-8.05208 1.95833,-7.9375 1.21875,-7.9375 L1.21875,-8.42188 C2.36458,-8.42188 3.22917,-8.72396 3.8125,-9.32813 L4,-9.32813 C4.03125,-9.32813 4.0625,-9.3151 4.09375,-9.28906 C4.125,-9.26302 4.14063,-9.23438 4.14063,-9.20313 L4.14063,-0.9375 C4.14063,-0.645833 4.72396,-0.5 5.89063,-0.5 L5.89063,0 L1.29688,0"/>
</g>

<g fill="#212121" fill-opacity="1" stroke="none" transform="matrix(0,-0.75,0.75,0,9.75,172.86)"
font-family="MS Shell Dlg 2" font-size="8.25" font-weight="400" font-style="normal" 
>
<path vector-effect="none" fill-rule="evenodd" d="M0.84375,-2.60938 L1.1875,-2.60938 C1.25,-1.90104 1.47656,-1.35677 1.86719,-0.976563 C2.25781,-0.596354 2.83854,-0.369792 3.60938,-0.296875 L3.60938,-4.85938 C2.44271,-5.57813 1.66146,-6.21875 1.26563,-6.78125 C0.994792,-7.17708 0.859375,-7.65625 0.859375,-8.21875 C0.859375,-8.86458 1.09635,-9.42708 1.57031,-9.90625 C2.04427,-10.3854 2.72396,-10.6719 3.60938,-10.7656 L3.60938,-11.4844 L4.10938,-11.4844 L4.10938,-10.7656 C4.53646,-10.7448 4.89583,-10.6979 5.1875,-10.625 C5.34375,-10.5833 5.84375,-10.401 6.6875,-10.0781 L6.6875,-7.75 L6.39063,-7.75 C6.31771,-8.57292 6.10156,-9.17708 5.74219,-9.5625 C5.38281,-9.94792 4.83854,-10.1771 4.10938,-10.25 L4.10938,-6.28125 C5.42188,-5.36458 6.26563,-4.6875 6.64063,-4.25 C7.01563,-3.8125 7.20313,-3.27083 7.20313,-2.625 C7.20313,-1.90625 6.92969,-1.27344 6.38281,-0.726563 C5.83594,-0.179688 5.07813,0.135417 4.10938,0.21875 L4.10938,1.21875 L3.60938,1.21875 L3.60938,0.21875 C3.11979,0.197917 2.66406,0.140625 2.24219,0.046875 C1.82031,-0.046875 1.35417,-0.197917 0.84375,-0.40625 L0.84375,-2.60938 M3.60938,-6.60938 L3.60938,-10.2344 C3.08854,-10.1719 2.70313,-10.0078 2.45313,-9.74219 C2.20313,-9.47656 2.07813,-9.14063 2.07813,-8.73438 C2.07813,-8.34896 2.19271,-7.99219 2.42188,-7.66406 C2.65104,-7.33594 3.04688,-6.98438 3.60938,-6.60938 M4.10938,-0.296875 C4.50521,-0.359375 4.80729,-0.453125 5.01563,-0.578125 C5.30729,-0.765625 5.53646,-1.00521 5.70313,-1.29688 C5.86979,-1.58854 5.95313,-1.90104 5.95313,-2.23438 C5.95313,-2.57813 5.85156,-2.90365 5.64844,-3.21094 C5.44531,-3.51823 4.93229,-3.95313 4.10938,-4.51563 L4.10938,-0.296875 M8.65625,-11.1094 L12.4844,0.21875 L11.8594,0.21875 L8.03125,-11.1094 L8.65625,-11.1094 M17.125,-7.375 L17.125,-4.9375 L16.875,-4.9375 C16.6771,-5.69792 16.4219,-6.21615 16.1094,-6.49219 C15.7969,-6.76823 15.401,-6.90625 14.9219,-6.90625 C14.5573,-6.90625 14.263,-6.8099 14.0391,-6.61719 C13.8151,-6.42448 13.7031,-6.21354 13.7031,-5.98438 C13.7031,-5.69271 13.7865,-5.44271 13.9531,-5.23438 C14.1198,-5.01563 14.4479,-4.78646 14.9375,-4.54688 L16.0781,-4 C17.1406,-3.47917 17.6719,-2.79688 17.6719,-1.95313 C17.6719,-1.30729 17.4245,-0.783854 16.9297,-0.382813 C16.4349,0.0182292 15.8854,0.21875 15.2813,0.21875 C14.8438,0.21875 14.3438,0.140625 13.7813,-0.015625 C13.6042,-0.0677083 13.4635,-0.09375 13.3594,-0.09375 C13.2344,-0.09375 13.1406,-0.0260417 13.0781,0.109375 L12.8125,0.109375 L12.8125,-2.45313 L13.0781,-2.45313 C13.224,-1.72396 13.5026,-1.17448 13.9141,-0.804688 C14.3255,-0.434896 14.7865,-0.25 15.2969,-0.25 C15.651,-0.25 15.9427,-0.354167 16.1719,-0.5625 C16.401,-0.770833 16.5156,-1.02604 16.5156,-1.32813 C16.5156,-1.68229 16.388,-1.98177 16.1328,-2.22656 C15.8776,-2.47135 15.3724,-2.78125 14.6172,-3.15625 C13.862,-3.53125 13.3698,-3.86979 13.1406,-4.17188 C12.901,-4.47396 12.7813,-4.84896 12.7813,-5.29688 C12.7813,-5.89063 12.9844,-6.38542 13.3906,-6.78125 C13.7969,-7.17708 14.3177,-7.375 14.9531,-7.375 C15.2344,-7.375 15.5781,-7.3125 15.9844,-7.1875 C16.2448,-7.11458 16.4219,-7.07813 16.5156,-7.07813 C16.599,-7.07813 16.6641,-7.09635 16.7109,-7.13281 C16.7578,-7.16927 16.8125,-7.25 16.875,-7.375 L17.125,-7.375 M18.0938,-7.15625 L21.4375,-7.15625 L21.4375,-6.875 L21.2656,-6.875 C21.0365,-6.875 20.862,-6.82292 20.7422,-6.71875 C20.6224,-6.61458 20.5625,-6.48958 20.5625,-6.34375 C20.5625,-6.13542 20.651,-5.85417 20.8281,-5.5 L22.5625,-1.89063 L24.1719,-5.84375 C24.2552,-6.05208 24.2969,-6.26042 24.2969,-6.46875 C24.2969,-6.5625 24.2813,-6.63542 24.25,-6.6875 C24.2083,-6.73958 24.1432,-6.78385 24.0547,-6.82031 C23.9661,-6.85677 23.8073,-6.875 23.5781,-6.875 L23.5781,-7.15625 L25.9063,-7.15625 L25.9063,-6.875 C25.7188,-6.85417 25.5729,-6.8125 25.4688,-6.75 C25.3646,-6.6875 25.25,-6.56771 25.125,-6.39063 C25.0729,-6.31771 24.9844,-6.11979 24.8594,-5.79688 L21.9375,1.35938 C21.6563,2.04688 21.2891,2.56771 20.8359,2.92188 C20.3828,3.27604 19.9427,3.45313 19.5156,3.45313 C19.2135,3.45313 18.9635,3.36458 18.7656,3.1875 C18.5677,3.01042 18.4688,2.80729 18.4688,2.57813 C18.4688,2.35938 18.5391,2.1849 18.6797,2.05469 C18.8203,1.92448 19.0156,1.85938 19.2656,1.85938 C19.4427,1.85938 19.6771,1.91667 19.9688,2.03125 C20.1771,2.10417 20.3073,2.14063 20.3594,2.14063 C20.5156,2.14063 20.6875,2.0599 20.875,1.89844 C21.0625,1.73698 21.25,1.42708 21.4375,0.96875 L21.9375,-0.28125 L19.375,-5.6875 C19.2917,-5.84375 19.1667,-6.04167 19,-6.28125 C18.8646,-6.46875 18.7552,-6.59375 18.6719,-6.65625 C18.5573,-6.73958 18.3646,-6.8125 18.0938,-6.875 L18.0938,-7.15625 M28.625,-5.84375 C29.1458,-6.36458 29.4531,-6.66667 29.5469,-6.75 C29.7865,-6.94792 30.0417,-7.10156 30.3125,-7.21094 C30.5833,-7.32031 30.849,-7.375 31.1094,-7.375 C31.5573,-7.375 31.9427,-7.24479 32.2656,-6.98438 C32.5885,-6.72396 32.8073,-6.34375 32.9219,-5.84375 C33.4531,-6.46875 33.9036,-6.88021 34.2734,-7.07813 C34.6432,-7.27604 35.026,-7.375 35.4219,-7.375 C35.7969,-7.375 36.1328,-7.27604 36.4297,-7.07813 C36.7266,-6.88021 36.9583,-6.5625 37.125,-6.125 C37.2396,-5.82292 37.2969,-5.34896 37.2969,-4.70313 L37.2969,-1.625 C37.2969,-1.17708 37.3333,-0.869792 37.4063,-0.703125 C37.4583,-0.588542 37.5547,-0.489583 37.6953,-0.40625 C37.8359,-0.322917 38.0625,-0.28125 38.375,-0.28125 L38.375,0 L34.8438,0 L34.8438,-0.28125 L35,-0.28125 C35.3021,-0.28125 35.5417,-0.34375 35.7188,-0.46875 C35.8333,-0.552083 35.9167,-0.682292 35.9688,-0.859375 C35.9896,-0.953125 36,-1.20833 36,-1.625 L36,-4.70313 C36,-5.28646 35.9323,-5.69792 35.7969,-5.9375 C35.5885,-6.27083 35.2604,-6.4375 34.8125,-6.4375 C34.5417,-6.4375 34.2656,-6.36719 33.9844,-6.22656 C33.7031,-6.08594 33.3646,-5.82813 32.9688,-5.45313 L32.9531,-5.375 L32.9688,-5.03125 L32.9688,-1.625 C32.9688,-1.13542 32.9974,-0.830729 33.0547,-0.710938 C33.112,-0.591146 33.2161,-0.489583 33.3672,-0.40625 C33.5182,-0.322917 33.776,-0.28125 34.1406,-0.28125 L34.1406,0 L30.5156,0 L30.5156,-0.28125 C30.9115,-0.28125 31.1849,-0.328125 31.3359,-0.421875 C31.487,-0.515625 31.5885,-0.65625 31.6406,-0.84375 C31.6719,-0.9375 31.6875,-1.19792 31.6875,-1.625 L31.6875,-4.70313 C31.6875,-5.28646 31.599,-5.70313 31.4219,-5.95313 C31.1927,-6.28646 30.875,-6.45313 30.4688,-6.45313 C30.1875,-6.45313 29.9063,-6.38021 29.625,-6.23438 C29.1979,-6.00521 28.8646,-5.74479 28.625,-5.45313 L28.625,-1.625 C28.625,-1.15625 28.6589,-0.851563 28.7266,-0.710938 C28.7943,-0.570313 28.8906,-0.463542 29.0156,-0.390625 C29.1406,-0.317708 29.401,-0.28125 29.7969,-0.28125 L29.7969,0 L26.25,0 L26.25,-0.28125 C26.5833,-0.28125 26.8151,-0.317708 26.9453,-0.390625 C27.0755,-0.463542 27.1745,-0.575521 27.2422,-0.726563 C27.3099,-0.877604 27.3438,-1.17708 27.3438,-1.625 L27.3438,-4.35938 C27.3438,-5.14063 27.3177,-5.64583 27.2656,-5.875 C27.2344,-6.05208 27.1797,-6.17188 27.1016,-6.23438 C27.0234,-6.29688 26.9167,-6.32813 26.7813,-6.32813 C26.6354,-6.32813 26.4583,-6.29167 26.25,-6.21875 L26.1406,-6.5 L28.2969,-7.375 L28.625,-7.375 L28.625,-5.84375 M44.5781,3.1875 L44.5781,3.45313 C43.7031,3.33854 42.9948,2.98698 42.4531,2.39844 C41.9115,1.8099 41.6406,1.16146 41.6406,0.453125 C41.6406,0.0677083 41.7005,-0.372396 41.8203,-0.867188 C41.9401,-1.36198 42,-1.75 42,-2.03125 C42,-2.40625 41.8411,-2.75521 41.5234,-3.07813 C41.2057,-3.40104 40.7708,-3.59896 40.2188,-3.67188 L40.2188,-4 C40.7708,-4.07292 41.2057,-4.27083 41.5234,-4.59375 C41.8411,-4.91667 42,-5.26563 42,-5.64063 C42,-5.92188 41.9401,-6.3099 41.8203,-6.80469 C41.7005,-7.29948 41.6406,-7.73438 41.6406,-8.10938 C41.6406,-8.81771 41.9115,-9.46615 42.4531,-10.0547 C42.9948,-10.6432 43.7031,-10.9948 44.5781,-11.1094 L44.5781,-10.8438 C43.9635,-10.6979 43.5156,-10.4583 43.2344,-10.125 C42.9531,-9.79167 42.8125,-9.42708 42.8125,-9.03125 C42.8125,-8.72917 42.8698,-8.32552 42.9844,-7.82031 C43.099,-7.3151 43.1563,-6.88542 43.1563,-6.53125 C43.1563,-6.01042 42.9635,-5.5026 42.5781,-5.00781 C42.1927,-4.51302 41.6198,-4.13021 40.8594,-3.85938 C41.6094,-3.57813 42.1797,-3.1849 42.5703,-2.67969 C42.9609,-2.17448 43.1563,-1.66146 43.1563,-1.14063 C43.1563,-0.786458 43.099,-0.356771 42.9844,0.148438 C42.8698,0.653646 42.8125,1.0625 42.8125,1.375 C42.8125,1.77083 42.9531,2.13281 43.2344,2.46094 C43.5156,2.78906 43.9635,3.03125 44.5781,3.1875 M45.9844,-6.45313 L48.1875,-7.34375 L48.4844,-7.34375 L48.4844,-5.67188 C48.8594,-6.29688 49.2318,-6.73698 49.6016,-6.99219 C49.9714,-7.2474 50.3646,-7.375 50.7813,-7.375 C51.5,-7.375 52.099,-7.09375 52.5781,-6.53125 C53.1615,-5.84375 53.4531,-4.94792 53.4531,-3.84375 C53.4531,-2.60417 53.099,-1.58333 52.3906,-0.78125 C51.8073,-0.114583 51.0729,0.21875 50.1875,0.21875 C49.8021,0.21875 49.4688,0.166667 49.1875,0.0625 C48.9792,-0.0208333 48.7448,-0.182292 48.4844,-0.421875 L48.4844,1.76563 C48.4844,2.25521 48.5156,2.56771 48.5781,2.70313 C48.6406,2.83854 48.7448,2.94531 48.8906,3.02344 C49.0365,3.10156 49.3073,3.14063 49.7031,3.14063 L49.7031,3.42188 L45.9375,3.42188 L45.9375,3.14063 L46.1406,3.14063 C46.4323,3.14063 46.6771,3.08333 46.875,2.96875 C46.9792,2.91667 47.0573,2.82552 47.1094,2.69531 C47.1615,2.5651 47.1875,2.23958 47.1875,1.71875 L47.1875,-5.04688 C47.1875,-5.51563 47.1667,-5.8125 47.125,-5.9375 C47.0833,-6.0625 47.0182,-6.15625 46.9297,-6.21875 C46.8411,-6.28125 46.7188,-6.3125 46.5625,-6.3125 C46.4375,-6.3125 46.276,-6.27604 46.0781,-6.20313 L45.9844,-6.45313 M48.4844,-5.20313 L48.4844,-2.53125 C48.4844,-1.95833 48.5104,-1.57813 48.5625,-1.39063 C48.6354,-1.08854 48.8125,-0.822917 49.0938,-0.59375 C49.375,-0.364583 49.7344,-0.25 50.1719,-0.25 C50.6927,-0.25 51.1146,-0.453125 51.4375,-0.859375 C51.8542,-1.39063 52.0625,-2.14063 52.0625,-3.10938 C52.0625,-4.20313 51.8229,-5.04167 51.3438,-5.625 C51.0104,-6.03125 50.6146,-6.23438 50.1563,-6.23438 C49.9063,-6.23438 49.6615,-6.17188 49.4219,-6.04688 C49.2344,-5.95313 48.9219,-5.67188 48.4844,-5.20313 M56.5938,-7.375 L56.5938,-5.76563 C57.1979,-6.83854 57.8125,-7.375 58.4375,-7.375 C58.7292,-7.375 58.9688,-7.28646 59.1563,-7.10938 C59.3438,-6.93229 59.4375,-6.72917 59.4375,-6.5 C59.4375,-6.30208 59.3698,-6.13281 59.2344,-5.99219 C59.099,-5.85156 58.9375,-5.78125 58.75,-5.78125 C58.5625,-5.78125 58.3568,-5.86979 58.1328,-6.04688 C57.9089,-6.22396 57.7396,-6.3125 57.625,-6.3125 C57.5313,-6.3125 57.4323,-6.26042 57.3281,-6.15625 C57.0885,-5.94792 56.8438,-5.59896 56.5938,-5.10938 L56.5938,-1.67188 C56.5938,-1.27604 56.6458,-0.979167 56.75,-0.78125 C56.8125,-0.635417 56.9297,-0.515625 57.1016,-0.421875 C57.2734,-0.328125 57.5208,-0.28125 57.8438,-0.28125 L57.8438,0 L54.1875,0 L54.1875,-0.28125 C54.5521,-0.28125 54.8229,-0.338542 55,-0.453125 C55.125,-0.536458 55.2135,-0.671875 55.2656,-0.859375 C55.2969,-0.942708 55.3125,-1.19271 55.3125,-1.60938 L55.3125,-4.39063 C55.3125,-5.22396 55.2943,-5.71875 55.2578,-5.875 C55.2214,-6.03125 55.1589,-6.14583 55.0703,-6.21875 C54.9818,-6.29167 54.8698,-6.32813 54.7344,-6.32813 C54.5677,-6.32813 54.3854,-6.29167 54.1875,-6.21875 L54.1094,-6.5 L56.2656,-7.375 L56.5938,-7.375 M60.7031,-4.46875 C60.7031,-3.40625 60.9635,-2.57292 61.4844,-1.96875 C62.0052,-1.36458 62.6146,-1.0625 63.3125,-1.0625 C63.7813,-1.0625 64.1901,-1.1901 64.5391,-1.44531 C64.888,-1.70052 65.1771,-2.14063 65.4063,-2.76563 L65.6563,-2.60938 C65.5417,-1.90104 65.2214,-1.2526 64.6953,-0.664063 C64.1693,-0.0755208 63.5104,0.21875 62.7188,0.21875 C61.8646,0.21875 61.1302,-0.117188 60.5156,-0.789063 C59.901,-1.46094 59.5938,-2.35938 59.5938,-3.48438 C59.5938,-4.71354 59.9089,-5.66927 60.5391,-6.35156 C61.1693,-7.03385 61.9583,-7.375 62.9063,-7.375 C63.7083,-7.375 64.3672,-7.11198 64.8828,-6.58594 C65.3984,-6.0599 65.6563,-5.35417 65.6563,-4.46875 L60.7031,-4.46875 M60.7031,-4.92188 L64.0156,-4.92188 C63.9948,-5.38021 63.9427,-5.70313 63.8594,-5.89063 C63.724,-6.18229 63.5286,-6.41146 63.2734,-6.57813 C63.0182,-6.74479 62.75,-6.82813 62.4688,-6.82813 C62.0313,-6.82813 61.6432,-6.65885 61.3047,-6.32031 C60.9661,-5.98177 60.7656,-5.51563 60.7031,-4.92188 M71.5625,-0.8125 C71.2083,-0.447917 70.8646,-0.184896 70.5313,-0.0234375 C70.1979,0.138021 69.8385,0.21875 69.4531,0.21875 C68.6719,0.21875 67.9896,-0.109375 67.4063,-0.765625 C66.8229,-1.42188 66.5313,-2.26042 66.5313,-3.28125 C66.5313,-4.3125 66.8542,-5.2526 67.5,-6.10156 C68.1458,-6.95052 68.9792,-7.375 70,-7.375 C70.625,-7.375 71.1458,-7.17708 71.5625,-6.78125 L71.5625,-8.09375 C71.5625,-8.91667 71.5417,-9.42188 71.5,-9.60938 C71.4583,-9.79688 71.3958,-9.92448 71.3125,-9.99219 C71.2292,-10.0599 71.125,-10.0938 71,-10.0938 C70.8646,-10.0938 70.6875,-10.0521 70.4688,-9.96875 L70.3594,-10.2344 L72.5,-11.1094 L72.8438,-11.1094 L72.8438,-2.84375 C72.8438,-2 72.8646,-1.48698 72.9063,-1.30469 C72.9479,-1.1224 73.0104,-0.994792 73.0938,-0.921875 C73.1771,-0.848958 73.276,-0.8125 73.3906,-0.8125 C73.5365,-0.8125 73.724,-0.854167 73.9531,-0.9375 L74.0469,-0.671875 L71.9219,0.21875 L71.5625,0.21875 L71.5625,-0.8125 M71.5625,-1.35938 L71.5625,-5.04688 C71.5313,-5.40104 71.4375,-5.72396 71.2813,-6.01563 C71.125,-6.30729 70.9167,-6.52604 70.6563,-6.67188 C70.3958,-6.81771 70.1458,-6.89063 69.9063,-6.89063 C69.4479,-6.89063 69.0365,-6.6875 68.6719,-6.28125 C68.2031,-5.73958 67.9688,-4.94792 67.9688,-3.90625 C67.9688,-2.85417 68.1979,-2.04688 68.6563,-1.48438 C69.1146,-0.921875 69.625,-0.640625 70.1875,-0.640625 C70.6563,-0.640625 71.1146,-0.880208 71.5625,-1.35938 M82.1406,3.45313 L73.8594,3.45313 L73.8594,2.79688 L82.1406,2.79688 L82.1406,3.45313 M82.1406,-7.15625 L85.5,-7.15625 L85.5,-6.875 L85.2813,-6.875 C85.0833,-6.875 84.9297,-6.82552 84.8203,-6.72656 C84.7109,-6.6276 84.6563,-6.49479 84.6563,-6.32813 C84.6563,-6.14063 84.7135,-5.92188 84.8281,-5.67188 L86.4844,-1.71875 L88.1563,-5.82813 C88.2813,-6.11979 88.3438,-6.33854 88.3438,-6.48438 C88.3438,-6.55729 88.3229,-6.61979 88.2813,-6.67188 C88.2188,-6.74479 88.1432,-6.79688 88.0547,-6.82813 C87.9661,-6.85938 87.7865,-6.875 87.5156,-6.875 L87.5156,-7.15625 L89.8594,-7.15625 L89.8594,-6.875 C89.5885,-6.85417 89.401,-6.79688 89.2969,-6.70313 C89.1094,-6.54688 88.9427,-6.28646 88.7969,-5.92188 L86.2656,0.21875 L85.9375,0.21875 L83.3906,-5.82813 C83.276,-6.10938 83.1667,-6.3099 83.0625,-6.42969 C82.9583,-6.54948 82.8229,-6.65104 82.6563,-6.73438 C82.5729,-6.78646 82.401,-6.83333 82.1406,-6.875 L82.1406,-7.15625 M94.5625,-1.03125 C93.8229,-0.46875 93.3594,-0.140625 93.1719,-0.046875 C92.8906,0.0885417 92.5938,0.15625 92.2813,0.15625 C91.7813,0.15625 91.3724,-0.015625 91.0547,-0.359375 C90.737,-0.703125 90.5781,-1.15104 90.5781,-1.70313 C90.5781,-2.04688 90.6563,-2.34896 90.8125,-2.60938 C91.0208,-2.96354 91.3906,-3.29688 91.9219,-3.60938 C92.4531,-3.92188 93.3333,-4.30208 94.5625,-4.75 L94.5625,-5.03125 C94.5625,-5.73958 94.4479,-6.22656 94.2188,-6.49219 C93.9896,-6.75781 93.6615,-6.89063 93.2344,-6.89063 C92.901,-6.89063 92.6406,-6.80208 92.4531,-6.625 C92.2552,-6.44792 92.1563,-6.24479 92.1563,-6.01563 L92.1719,-5.5625 C92.1719,-5.32292 92.1094,-5.13802 91.9844,-5.00781 C91.8594,-4.8776 91.6979,-4.8125 91.5,-4.8125 C91.3125,-4.8125 91.1563,-4.88021 91.0313,-5.01563 C90.9063,-5.15104 90.8438,-5.33854 90.8438,-5.57813 C90.8438,-6.02604 91.0729,-6.4375 91.5313,-6.8125 C91.9896,-7.1875 92.6354,-7.375 93.4688,-7.375 C94.1042,-7.375 94.625,-7.26563 95.0313,-7.04688 C95.3333,-6.89063 95.5573,-6.64063 95.7031,-6.29688 C95.7969,-6.06771 95.8438,-5.60938 95.8438,-4.92188 L95.8438,-2.48438 C95.8438,-1.80729 95.8568,-1.39063 95.8828,-1.23438 C95.9089,-1.07813 95.9531,-0.973958 96.0156,-0.921875 C96.0781,-0.869792 96.1458,-0.84375 96.2188,-0.84375 C96.3021,-0.84375 96.375,-0.864583 96.4375,-0.90625 C96.5521,-0.96875 96.7656,-1.15625 97.0781,-1.46875 L97.0781,-1.03125 C96.4948,-0.25 95.9375,0.140625 95.4063,0.140625 C95.1458,0.140625 94.9401,0.0520833 94.7891,-0.125 C94.638,-0.302083 94.5625,-0.604167 94.5625,-1.03125 M94.5625,-1.54688 L94.5625,-4.26563 C93.7708,-3.95313 93.2604,-3.73438 93.0313,-3.60938 C92.625,-3.38021 92.3333,-3.14063 92.1563,-2.89063 C91.9792,-2.64063 91.8906,-2.36458 91.8906,-2.0625 C91.8906,-1.6875 92.0026,-1.3776 92.2266,-1.13281 C92.4505,-0.888021 92.7083,-0.765625 93,-0.765625 C93.3958,-0.765625 93.9167,-1.02604 94.5625,-1.54688 M99.5938,-7.375 L99.5938,-5.76563 C100.198,-6.83854 100.813,-7.375 101.438,-7.375 C101.729,-7.375 101.969,-7.28646 102.156,-7.10938 C102.344,-6.93229 102.438,-6.72917 102.438,-6.5 C102.438,-6.30208 102.37,-6.13281 102.234,-5.99219 C102.099,-5.85156 101.938,-5.78125 101.75,-5.78125 C101.563,-5.78125 101.357,-5.86979 101.133,-6.04688 C100.909,-6.22396 100.74,-6.3125 100.625,-6.3125 C100.531,-6.3125 100.432,-6.26042 100.328,-6.15625 C100.089,-5.94792 99.8438,-5.59896 99.5938,-5.10938 L99.5938,-1.67188 C99.5938,-1.27604 99.6458,-0.979167 99.75,-0.78125 C99.8125,-0.635417 99.9297,-0.515625 100.102,-0.421875 C100.273,-0.328125 100.521,-0.28125 100.844,-0.28125 L100.844,0 L97.1875,0 L97.1875,-0.28125 C97.5521,-0.28125 97.8229,-0.338542 98,-0.453125 C98.125,-0.536458 98.2135,-0.671875 98.2656,-0.859375 C98.2969,-0.942708 98.3125,-1.19271 98.3125,-1.60938 L98.3125,-4.39063 C98.3125,-5.22396 98.2943,-5.71875 98.2578,-5.875 C98.2214,-6.03125 98.1589,-6.14583 98.0703,-6.21875 C97.9818,-6.29167 97.8698,-6.32813 97.7344,-6.32813 C97.5677,-6.32813 97.3854,-6.29167 97.1875,-6.21875 L97.1094,-6.5 L99.2656,-7.375 L99.5938,-7.375 M103.391,-10.8438 L103.391,-11.1094 C104.255,-10.9948 104.961,-10.6458 105.508,-10.0625 C106.055,-9.47917 106.328,-8.82813 106.328,-8.10938 C106.328,-7.73438 106.268,-7.29948 106.148,-6.80469 C106.029,-6.3099 105.969,-5.92188 105.969,-5.64063 C105.969,-5.26563 106.125,-4.91667 106.438,-4.59375 C106.75,-4.27083 107.188,-4.07292 107.75,-4 L107.75,-3.67188 C107.188,-3.59896 106.75,-3.40104 106.438,-3.07813 C106.125,-2.75521 105.969,-2.40625 105.969,-2.03125 C105.969,-1.75 106.029,-1.36198 106.148,-0.867188 C106.268,-0.372396 106.328,0.0677083 106.328,0.453125 C106.328,1.16146 106.055,1.8099 105.508,2.39844 C104.961,2.98698 104.255,3.33854 103.391,3.45313 L103.391,3.1875 C103.995,3.03125 104.44,2.78906 104.727,2.46094 C105.013,2.13281 105.156,1.77083 105.156,1.375 C105.156,1.0625 105.096,0.653646 104.977,0.148438 C104.857,-0.356771 104.797,-0.78125 104.797,-1.125 C104.797,-1.65625 104.99,-2.16927 105.375,-2.66406 C105.76,-3.15885 106.339,-3.54167 107.109,-3.8125 C106.359,-4.09375 105.786,-4.48698 105.391,-4.99219 C104.995,-5.4974 104.797,-6.01042 104.797,-6.53125 C104.797,-6.88542 104.857,-7.3151 104.977,-7.82031 C105.096,-8.32552 105.156,-8.72917 105.156,-9.03125 C105.156,-9.42708 105.013,-9.79167 104.727,-10.125 C104.44,-10.4583 103.995,-10.6979 103.391,-10.8438 M110.844,-2.60938 L111.188,-2.60938 C111.25,-1.90104 111.477,-1.35677 111.867,-0.976563 C112.258,-0.596354 112.839,-0.369792 113.609,-0.296875 L113.609,-4.85938 C112.443,-5.57813 111.661,-6.21875 111.266,-6.78125 C110.995,-7.17708 110.859,-7.65625 110.859,-8.21875 C110.859,-8.86458 111.096,-9.42708 111.57,-9.90625 C112.044,-10.3854 112.724,-10.6719 113.609,-10.7656 L113.609,-11.4844 L114.109,-11.4844 L114.109,-10.7656 C114.536,-10.7448 114.896,-10.6979 115.188,-10.625 C115.344,-10.5833 115.844,-10.401 116.688,-10.0781 L116.688,-7.75 L116.391,-7.75 C116.318,-8.57292 116.102,-9.17708 115.742,-9.5625 C115.383,-9.94792 114.839,-10.1771 114.109,-10.25 L114.109,-6.28125 C115.422,-5.36458 116.266,-4.6875 116.641,-4.25 C117.016,-3.8125 117.203,-3.27083 117.203,-2.625 C117.203,-1.90625 116.93,-1.27344 116.383,-0.726563 C115.836,-0.179688 115.078,0.135417 114.109,0.21875 L114.109,1.21875 L113.609,1.21875 L113.609,0.21875 C113.12,0.197917 112.664,0.140625 112.242,0.046875 C111.82,-0.046875 111.354,-0.197917 110.844,-0.40625 L110.844,-2.60938 M113.609,-6.60938 L113.609,-10.2344 C113.089,-10.1719 112.703,-10.0078 112.453,-9.74219 C112.203,-9.47656 112.078,-9.14063 112.078,-8.73438 C112.078,-8.34896 112.193,-7.99219 112.422,-7.66406 C112.651,-7.33594 113.047,-6.98438 113.609,-6.60938 M114.109,-0.296875 C114.505,-0.359375 114.807,-0.453125 115.016,-0.578125 C115.307,-0.765625 115.536,-1.00521 115.703,-1.29688 C115.87,-1.58854 115.953,-1.90104 115.953,-2.23438 C115.953,-2.57813 115.852,-2.90365 115.648,-3.21094 C115.445,-3.51823 114.932,-3.95313 114.109,-4.51563 L114.109,-0.296875 M126.969,3.14063 L126.969,3.42188 C126.188,3.02604 125.531,2.5625 125,2.03125 C124.25,1.28125 123.672,0.390625 123.266,-0.640625 C122.859,-1.67188 122.656,-2.73958 122.656,-3.84375 C122.656,-5.45833 123.055,-6.92969 123.852,-8.25781 C124.648,-9.58594 125.688,-10.5365 126.969,-11.1094 L126.969,-10.7813 C126.333,-10.4271 125.81,-9.94271 125.398,-9.32813 C124.987,-8.71354 124.68,-7.9349 124.477,-6.99219 C124.273,-6.04948 124.172,-5.06771 124.172,-4.04688 C124.172,-2.93229 124.255,-1.91667 124.422,-1 C124.557,-0.28125 124.721,0.296875 124.914,0.734375 C125.107,1.17188 125.367,1.59115 125.695,1.99219 C126.023,2.39323 126.448,2.77604 126.969,3.14063 M134.344,-10.8438 L134.344,-7.17188 L134.047,-7.17188 C133.953,-7.88021 133.786,-8.44271 133.547,-8.85938 C133.307,-9.27604 132.964,-9.60677 132.516,-9.85156 C132.068,-10.0964 131.604,-10.2188 131.125,-10.2188 C130.583,-10.2188 130.135,-10.0521 129.781,-9.71875 C129.427,-9.38542 129.25,-9.01042 129.25,-8.59375 C129.25,-8.27083 129.359,-7.97396 129.578,-7.70313 C129.901,-7.31771 130.672,-6.79688 131.891,-6.14063 C132.88,-5.60938 133.555,-5.20313 133.914,-4.92188 C134.273,-4.64063 134.552,-4.30729 134.75,-3.92188 C134.948,-3.53646 135.047,-3.13021 135.047,-2.70313 C135.047,-1.90104 134.734,-1.20833 134.109,-0.625 C133.484,-0.0416667 132.682,0.25 131.703,0.25 C131.401,0.25 131.115,0.223958 130.844,0.171875 C130.677,0.151042 130.341,0.0572917 129.836,-0.109375 C129.331,-0.276042 129.01,-0.359375 128.875,-0.359375 C128.74,-0.359375 128.635,-0.320313 128.563,-0.242188 C128.49,-0.164063 128.432,0 128.391,0.25 L128.109,0.25 L128.109,-3.39063 L128.391,-3.39063 C128.526,-2.63021 128.708,-2.0625 128.938,-1.6875 C129.167,-1.3125 129.518,-1 129.992,-0.75 C130.466,-0.5 130.984,-0.375 131.547,-0.375 C132.193,-0.375 132.706,-0.546875 133.086,-0.890625 C133.466,-1.23438 133.656,-1.64063 133.656,-2.10938 C133.656,-2.36979 133.583,-2.63281 133.438,-2.89844 C133.292,-3.16406 133.068,-3.41146 132.766,-3.64063 C132.568,-3.79688 132.016,-4.1276 131.109,-4.63281 C130.203,-5.13802 129.557,-5.54167 129.172,-5.84375 C128.786,-6.14583 128.495,-6.47917 128.297,-6.84375 C128.099,-7.20833 128,-7.60938 128,-8.04688 C128,-8.80729 128.292,-9.46354 128.875,-10.0156 C129.458,-10.5677 130.203,-10.8438 131.109,-10.8438 C131.672,-10.8438 132.266,-10.7031 132.891,-10.4219 C133.182,-10.2969 133.391,-10.2344 133.516,-10.2344 C133.651,-10.2344 133.76,-10.2734 133.844,-10.3516 C133.927,-10.4297 133.995,-10.5938 134.047,-10.8438 L134.344,-10.8438 M139.281,-4.96875 L139.281,-1.875 C139.281,-1.20833 139.354,-0.796875 139.5,-0.640625 C139.698,-0.411458 140,-0.296875 140.406,-0.296875 L140.813,-0.296875 L140.813,0 L136.266,0 L136.266,-0.296875 L136.672,-0.296875 C137.12,-0.296875 137.438,-0.442708 137.625,-0.734375 C137.729,-0.890625 137.781,-1.27083 137.781,-1.875 L137.781,-8.71875 C137.781,-9.38542 137.714,-9.80208 137.578,-9.96875 C137.37,-10.1979 137.068,-10.3125 136.672,-10.3125 L136.266,-10.3125 L136.266,-10.5938 L140.156,-10.5938 C141.104,-10.5938 141.852,-10.4974 142.398,-10.3047 C142.945,-10.112 143.406,-9.78385 143.781,-9.32031 C144.156,-8.85677 144.344,-8.30729 144.344,-7.67188 C144.344,-6.80729 144.057,-6.10417 143.484,-5.5625 C142.911,-5.02083 142.104,-4.75 141.063,-4.75 C140.813,-4.75 140.539,-4.76823 140.242,-4.80469 C139.945,-4.84115 139.625,-4.89583 139.281,-4.96875 M139.281,-5.40625 C139.563,-5.35417 139.81,-5.3151 140.023,-5.28906 C140.237,-5.26302 140.417,-5.25 140.563,-5.25 C141.104,-5.25 141.573,-5.46094 141.969,-5.88281 C142.365,-6.30469 142.563,-6.84896 142.563,-7.51563 C142.563,-7.97396 142.469,-8.39844 142.281,-8.78906 C142.094,-9.17969 141.828,-9.47396 141.484,-9.67188 C141.141,-9.86979 140.75,-9.96875 140.313,-9.96875 C140.042,-9.96875 139.698,-9.91667 139.281,-9.8125 L139.281,-5.40625 M156.359,-10.5938 L156.359,-10.3125 C155.984,-10.2396 155.703,-10.1198 155.516,-9.95313 C155.234,-9.69271 154.99,-9.30208 154.781,-8.78125 L151.078,0.25 L150.797,0.25 L146.828,-8.89063 C146.62,-9.35938 146.474,-9.64583 146.391,-9.75 C146.266,-9.91667 146.107,-10.0443 145.914,-10.1328 C145.721,-10.2214 145.464,-10.2813 145.141,-10.3125 L145.141,-10.5938 L149.469,-10.5938 L149.469,-10.3125 C148.979,-10.2604 148.661,-10.1745 148.516,-10.0547 C148.37,-9.9349 148.297,-9.78125 148.297,-9.59375 C148.297,-9.33333 148.417,-8.92708 148.656,-8.375 L151.359,-2.17188 L153.859,-8.29688 C154.099,-8.90104 154.219,-9.32292 154.219,-9.5625 C154.219,-9.70833 154.143,-9.85156 153.992,-9.99219 C153.841,-10.1328 153.589,-10.2292 153.234,-10.2813 C153.203,-10.2917 153.156,-10.3021 153.094,-10.3125 L153.094,-10.5938 L156.359,-10.5938 M157.359,-10.7813 L157.359,-11.1094 C158.151,-10.724 158.813,-10.2656 159.344,-9.73438 C160.083,-8.97396 160.656,-8.08073 161.063,-7.05469 C161.469,-6.02865 161.672,-4.96354 161.672,-3.85938 C161.672,-2.24479 161.276,-0.770833 160.484,0.5625 C159.693,1.89583 158.651,2.84896 157.359,3.42188 L157.359,3.14063 C158.005,2.77604 158.534,2.28906 158.945,1.67969 C159.357,1.07031 159.664,0.291667 159.867,-0.65625 C160.07,-1.60417 160.172,-2.59375 160.172,-3.625 C160.172,-4.72917 160.083,-5.73958 159.906,-6.65625 C159.781,-7.375 159.62,-7.95052 159.422,-8.38281 C159.224,-8.8151 158.964,-9.23177 158.641,-9.63281 C158.318,-10.0339 157.891,-10.4167 157.359,-10.7813 "/>
</g>

<g fill="#212121" fill-opacity="1" stroke="#212121" stroke-opacity="1" stroke-width="1.06667" stroke-linecap="square" stroke-linejoin="round" transform="matrix(0.75,0,0,0.75,-10.8,-13.14)"
font-family="MS Shell Dlg 2" font-size="8.25" font-weight="400" font-style="normal" 
>
<polyline fill="none" vector-effect="none" points="59,295 59,25 " />
<polyline fill="none" vector-effect="none" points="411,295 411,25 " />
<polyline fill="none" vector-effect="none" points="59,295 62.52,295 " />
<polyline fill="none" vector-effect="none" points="407.48,295 411,295 " />
<polyline fill="none" vector-effect="none" points="59,241 62.52,241 " />
<polyline fill="none" vector-effect="none" points="407.48,241 411,241 " />
<polyline fill="none" vector-effect="none" points="59,187 62.52,187 " />
<polyline fill="none" vector-effect="none" points="407.48,187 411,187 " />
<polyline fill="none" vector-effect="none" points="59,133 62.52,133 " />
<polyline fill="none" vector-effect="none" points="407.48,133 411,133 " />
<polyline fill="none" vector-effect="none" points="59,79 62.52,79 " />
<polyline fill="none" vector-effect="none" points="407.48,79 411,79 " />
<polyline fill="none" vector-effect="none" points="59,25 62.52,25 " />
<polyline fill="none" vector-effect="none" points="407.48,25 411,25 " />
</g>

<g fill="#212121" fill-opacity="1" stroke="none" transform="matrix(0.75,0,0,0.75,23.75,210.75)"
font-family="MS Shell Dlg 2" font-size="8.25" font-weight="400" font-style="normal" 
>
<path vector-effect="none" fill-rule="evenodd" d="M3.5,0.3125 C2.35417,0.3125 1.57552,-0.158854 1.16406,-1.10156 C0.752604,-2.04427 0.546875,-3.16667 0.546875,-4.46875 C0.546875,-5.28125 0.619792,-6.04427 0.765625,-6.75781 C0.911458,-7.47135 1.20573,-8.07813 1.64844,-8.57813 C2.09115,-9.07813 2.70833,-9.32813 3.5,-9.32813 C4.11458,-9.32813 4.61719,-9.17708 5.00781,-8.875 C5.39844,-8.57292 5.69792,-8.1849 5.90625,-7.71094 C6.11458,-7.23698 6.25521,-6.72656 6.32813,-6.17969 C6.40104,-5.63281 6.4375,-5.0625 6.4375,-4.46875 C6.4375,-3.66667 6.36458,-2.91406 6.21875,-2.21094 C6.07292,-1.50781 5.78385,-0.911458 5.35156,-0.421875 C4.91927,0.0677083 4.30208,0.3125 3.5,0.3125 M3.5,-0.0625 C4.02083,-0.0625 4.40885,-0.328125 4.66406,-0.859375 C4.91927,-1.39063 5.07552,-1.97917 5.13281,-2.625 C5.1901,-3.27083 5.21875,-3.95833 5.21875,-4.6875 C5.21875,-5.39583 5.1901,-6.04427 5.13281,-6.63281 C5.07552,-7.22135 4.91927,-7.75781 4.66406,-8.24219 C4.40885,-8.72656 4.02083,-8.96875 3.5,-8.96875 C2.96875,-8.96875 2.57552,-8.72656 2.32031,-8.24219 C2.0651,-7.75781 1.90885,-7.22135 1.85156,-6.63281 C1.79427,-6.04427 1.76563,-5.39583 1.76563,-4.6875 C1.76563,-4.16667 1.77865,-3.67708 1.80469,-3.21875 C1.83073,-2.76042 1.89844,-2.28646 2.00781,-1.79688 C2.11719,-1.30729 2.29427,-0.895833 2.53906,-0.5625 C2.78385,-0.229167 3.10417,-0.0625 3.5,-0.0625 "/>
</g>

<g fill="#212121" fill-opacity="1" stroke="none" transform="matrix(0.75,0,0,0.75,23.75,170.25)"
font-family="MS Shell Dlg 2" font-size="8.25" font-weight="400" font-style="normal" 
>
<path vector-effect="none" fill-rule="evenodd" d="M0.703125,0 L0.703125,-0.375 C0.703125,-0.395833 0.708333,-0.421875 0.71875,-0.453125 L2.90625,-2.85938 C3.22917,-3.21354 3.49219,-3.51042 3.69531,-3.75 C3.89844,-3.98958 4.10156,-4.26823 4.30469,-4.58594 C4.50781,-4.90365 4.66667,-5.22396 4.78125,-5.54688 C4.89583,-5.86979 4.95313,-6.21354 4.95313,-6.57813 C4.95313,-6.96354 4.88281,-7.33073 4.74219,-7.67969 C4.60156,-8.02865 4.39063,-8.30729 4.10938,-8.51563 C3.82813,-8.72396 3.48958,-8.82813 3.09375,-8.82813 C2.6875,-8.82813 2.32292,-8.70573 2,-8.46094 C1.67708,-8.21615 1.44792,-7.90104 1.3125,-7.51563 C1.35417,-7.52604 1.40625,-7.53125 1.46875,-7.53125 C1.67708,-7.53125 1.85677,-7.46094 2.00781,-7.32031 C2.15885,-7.17969 2.23438,-7 2.23438,-6.78125 C2.23438,-6.5625 2.15885,-6.38021 2.00781,-6.23438 C1.85677,-6.08854 1.67708,-6.01563 1.46875,-6.01563 C1.25,-6.01563 1.06771,-6.09115 0.921875,-6.24219 C0.776042,-6.39323 0.703125,-6.57292 0.703125,-6.78125 C0.703125,-7.125 0.768229,-7.45052 0.898438,-7.75781 C1.02865,-8.0651 1.21875,-8.33854 1.46875,-8.57813 C1.71875,-8.81771 2,-9.0026 2.3125,-9.13281 C2.625,-9.26302 2.95313,-9.32813 3.29688,-9.32813 C3.83854,-9.32813 4.33854,-9.21354 4.79688,-8.98438 C5.25521,-8.75521 5.61979,-8.4349 5.89063,-8.02344 C6.16146,-7.61198 6.29688,-7.13021 6.29688,-6.57813 C6.29688,-6.17188 6.20573,-5.78646 6.02344,-5.42188 C5.84115,-5.05729 5.61198,-4.72656 5.33594,-4.42969 C5.0599,-4.13281 4.70573,-3.79427 4.27344,-3.41406 C3.84115,-3.03385 3.55729,-2.78125 3.42188,-2.65625 L1.82813,-1.14063 L3.17188,-1.14063 C3.83854,-1.14063 4.39323,-1.14583 4.83594,-1.15625 C5.27865,-1.16667 5.51563,-1.18229 5.54688,-1.20313 C5.65104,-1.31771 5.76042,-1.75 5.875,-2.5 L6.29688,-2.5 L5.89063,0 L0.703125,0"/>
</g>

<g fill="#212121" fill-opacity="1" stroke="none" transform="matrix(0.75,0,0,0.75,23.75,129.75)"
font-family="MS Shell Dlg 2" font-size="8.25" font-weight="400" font-style="normal" 
>
<path vector-effect="none" fill-rule="evenodd" d="M0.390625,-2.3125 L0.390625,-2.79688 L4.71875,-9.25 C4.75,-9.30208 4.79688,-9.32813 4.85938,-9.32813 L5.0625,-9.32813 C5.16667,-9.32813 5.21875,-9.27604 5.21875,-9.17188 L5.21875,-2.79688 L6.59375,-2.79688 L6.59375,-2.3125 L5.21875,-2.3125 L5.21875,-0.9375 C5.21875,-0.75 5.35677,-0.630208 5.63281,-0.578125 C5.90885,-0.526042 6.22396,-0.5 6.57813,-0.5 L6.57813,0 L2.73438,0 L2.73438,-0.5 C3.08854,-0.5 3.40365,-0.526042 3.67969,-0.578125 C3.95573,-0.630208 4.09375,-0.75 4.09375,-0.9375 L4.09375,-2.3125 L0.390625,-2.3125 M0.859375,-2.79688 L4.17188,-2.79688 L4.17188,-7.76563 L0.859375,-2.79688"/>
</g>

<g fill="#212121" fill-opacity="1" stroke="none" transform="matrix(0.75,0,0,0.75,23.75,89.25)"
font-family="MS Shell Dlg 2" font-size="8.25" font-weight="400" font-style="normal" 
>
<path vector-effect="none" fill-rule="evenodd" d="M3.5,0.3125 C2.91667,0.3125 2.43229,0.158854 2.04688,-0.148438 C1.66146,-0.455729 1.36198,-0.854167 1.14844,-1.34375 C0.934896,-1.83333 0.789063,-2.34896 0.710938,-2.89063 C0.632813,-3.43229 0.59375,-3.97917 0.59375,-4.53125 C0.59375,-5.27083 0.736979,-6.01042 1.02344,-6.75 C1.3099,-7.48958 1.73177,-8.10417 2.28906,-8.59375 C2.84635,-9.08333 3.50521,-9.32813 4.26563,-9.32813 C4.58854,-9.32813 4.88802,-9.26823 5.16406,-9.14844 C5.4401,-9.02865 5.65625,-8.85156 5.8125,-8.61719 C5.96875,-8.38281 6.04688,-8.09896 6.04688,-7.76563 C6.04688,-7.56771 5.98177,-7.40365 5.85156,-7.27344 C5.72135,-7.14323 5.5625,-7.07813 5.375,-7.07813 C5.1875,-7.07813 5.02865,-7.14583 4.89844,-7.28125 C4.76823,-7.41667 4.70313,-7.57813 4.70313,-7.76563 C4.70313,-7.94271 4.76823,-8.09635 4.89844,-8.22656 C5.02865,-8.35677 5.1875,-8.42188 5.375,-8.42188 L5.45313,-8.42188 C5.32813,-8.59896 5.15885,-8.72656 4.94531,-8.80469 C4.73177,-8.88281 4.50521,-8.92188 4.26563,-8.92188 C3.98438,-8.92188 3.72396,-8.85938 3.48438,-8.73438 C3.24479,-8.60938 3.03125,-8.44271 2.84375,-8.23438 C2.65625,-8.02604 2.4974,-7.79427 2.36719,-7.53906 C2.23698,-7.28385 2.13802,-6.99479 2.07031,-6.67188 C2.0026,-6.34896 1.95833,-6.04688 1.9375,-5.76563 C1.91667,-5.48438 1.90625,-5.13021 1.90625,-4.70313 C2.07292,-5.08854 2.30729,-5.40365 2.60938,-5.64844 C2.91146,-5.89323 3.25,-6.01563 3.625,-6.01563 C4.04167,-6.01563 4.41927,-5.92969 4.75781,-5.75781 C5.09635,-5.58594 5.39063,-5.35156 5.64063,-5.05469 C5.89063,-4.75781 6.08073,-4.41667 6.21094,-4.03125 C6.34115,-3.64583 6.40625,-3.26042 6.40625,-2.875 C6.40625,-2.32292 6.28385,-1.79948 6.03906,-1.30469 C5.79427,-0.809896 5.45052,-0.416667 5.00781,-0.125 C4.5651,0.166667 4.0625,0.3125 3.5,0.3125 M3.5,-0.140625 C3.86458,-0.140625 4.15625,-0.223958 4.375,-0.390625 C4.59375,-0.557292 4.7526,-0.776042 4.85156,-1.04688 C4.95052,-1.31771 5.01302,-1.58854 5.03906,-1.85938 C5.0651,-2.13021 5.07813,-2.46875 5.07813,-2.875 C5.07813,-3.39583 5.05208,-3.84375 5,-4.21875 C4.94792,-4.59375 4.8125,-4.92448 4.59375,-5.21094 C4.375,-5.4974 4.03125,-5.64063 3.5625,-5.64063 C3.1875,-5.64063 2.8776,-5.51302 2.63281,-5.25781 C2.38802,-5.0026 2.21094,-4.67969 2.10156,-4.28906 C1.99219,-3.89844 1.9375,-3.52604 1.9375,-3.17188 C1.9375,-3.04688 1.94271,-2.95313 1.95313,-2.89063 C1.95313,-2.86979 1.95052,-2.85677 1.94531,-2.85156 C1.9401,-2.84635 1.9375,-2.83333 1.9375,-2.8125 C1.9375,-2.41667 1.97917,-2.01302 2.0625,-1.60156 C2.14583,-1.1901 2.30208,-0.84375 2.53125,-0.5625 C2.76042,-0.28125 3.08333,-0.140625 3.5,-0.140625 "/>
</g>

<g fill="#212121" fill-opacity="1" stroke="none" transform="matrix(0.75,0,0,0.75,23.75,48.75)"
font-family="MS Shell Dlg 2" font-size="8.25" font-weight="400" font-style="normal" 
>
<path vector-effect="none" fill-rule="evenodd" d="M0.59375,-2.125 C0.59375,-2.6875 0.778646,-3.1849 1.14844,-3.61719 C1.51823,-4.04948 1.98958,-4.40625 2.5625,-4.6875 L2.04688,-5.03125 C1.72396,-5.23958 1.46354,-5.51823 1.26563,-5.86719 C1.06771,-6.21615 0.96875,-6.57813 0.96875,-6.95313 C0.96875,-7.40104 1.08594,-7.80469 1.32031,-8.16406 C1.55469,-8.52344 1.86719,-8.80729 2.25781,-9.01563 C2.64844,-9.22396 3.0625,-9.32813 3.5,-9.32813 C3.91667,-9.32813 4.31771,-9.24219 4.70313,-9.07031 C5.08854,-8.89844 5.40365,-8.65625 5.64844,-8.34375 C5.89323,-8.03125 6.01563,-7.66146 6.01563,-7.23438 C6.01563,-6.91146 5.94271,-6.61719 5.79688,-6.35156 C5.65104,-6.08594 5.45052,-5.84635 5.19531,-5.63281 C4.9401,-5.41927 4.66667,-5.23438 4.375,-5.07813 L5.17188,-4.5625 C5.53646,-4.32292 5.83333,-4.00781 6.0625,-3.61719 C6.29167,-3.22656 6.40625,-2.8125 6.40625,-2.375 C6.40625,-1.875 6.26823,-1.41667 5.99219,-1 C5.71615,-0.583333 5.35677,-0.260417 4.91406,-0.03125 C4.47135,0.197917 4,0.3125 3.5,0.3125 C3.02083,0.3125 2.55469,0.213542 2.10156,0.015625 C1.64844,-0.182292 1.28385,-0.466146 1.00781,-0.835938 C0.731771,-1.20573 0.59375,-1.63542 0.59375,-2.125 M1.34375,-2.125 C1.34375,-1.76042 1.44531,-1.42448 1.64844,-1.11719 C1.85156,-0.809896 2.11979,-0.570313 2.45313,-0.398438 C2.78646,-0.226563 3.13542,-0.140625 3.5,-0.140625 C4.04167,-0.140625 4.53385,-0.299479 4.97656,-0.617188 C5.41927,-0.934896 5.64063,-1.35417 5.64063,-1.875 C5.64063,-2.05208 5.60417,-2.22917 5.53125,-2.40625 C5.45833,-2.58333 5.35938,-2.74219 5.23438,-2.88281 C5.10938,-3.02344 4.96875,-3.14063 4.8125,-3.23438 L2.9375,-4.45313 C2.64583,-4.29688 2.3776,-4.10156 2.13281,-3.86719 C1.88802,-3.63281 1.69531,-3.36719 1.55469,-3.07031 C1.41406,-2.77344 1.34375,-2.45833 1.34375,-2.125 M2.3125,-6.40625 L4,-5.3125 C4.39583,-5.54167 4.71875,-5.81771 4.96875,-6.14063 C5.21875,-6.46354 5.34375,-6.82813 5.34375,-7.23438 C5.34375,-7.54688 5.25521,-7.83333 5.07813,-8.09375 C4.90104,-8.35417 4.67188,-8.55729 4.39063,-8.70313 C4.10938,-8.84896 3.80729,-8.92188 3.48438,-8.92188 C3.20313,-8.92188 2.91927,-8.86719 2.63281,-8.75781 C2.34635,-8.64844 2.10938,-8.48438 1.92188,-8.26563 C1.73438,-8.04688 1.64063,-7.79167 1.64063,-7.5 C1.64063,-7.0625 1.86458,-6.69792 2.3125,-6.40625 "/>
</g>

<g fill="#212121" fill-opacity="1" stroke="none" transform="matrix(0.75,0,0,0.75,18.25,8.25)"
font-family="MS Shell Dlg 2" font-size="8.25" font-weight="400" font-style="normal" 
>
<path vector-effect="none" fill-rule="evenodd" d="M1.29688,0 L1.29688,-0.5 C2.46354,-0.5 3.04688,-0.645833 3.04688,-0.9375 L3.04688,-8.28125 C2.56771,-8.05208 1.95833,-7.9375 1.21875,-7.9375 L1.21875,-8.42188 C2.36458,-8.42188 3.22917,-8.72396 3.8125,-9.32813 L4,-9.32813 C4.03125,-9.32813 4.0625,-9.3151 4.09375,-9.28906 C4.125,-9.26302 4.14063,-9.23438 4.14063,-9.20313 L4.14063,-0.9375 C4.14063,-0.645833 4.72396,-0.5 5.89063,-0.5 L5.89063,0 L1.29688,0"/>
</g>

<g fill="#212121" fill-opacity="1" stroke="none" transform="matrix(0.75,0,0,0.75,23.75,8.25)"
font-family="MS Shell Dlg 2" font-size="8.25" font-weight="400" font-style="normal" 
>
<path vector-effect="none" fill-rule="evenodd" d="M3.5,0.3125 C2.35417,0.3125 1.57552,-0.158854 1.16406,-1.10156 C0.752604,-2.04427 0.546875,-3.16667 0.546875,-4.46875 C0.546875,-5.28125 0.619792,-6.04427 0.765625,-6.75781 C0.911458,-7.47135 1.20573,-8.07813 1.64844,-8.57813 C2.09115,-9.07813 2.70833,-9.32813 3.5,-9.32813 C4.11458,-9.32813 4.61719,-9.17708 5.00781,-8.875 C5.39844,-8.57292 5.69792,-8.1849 5.90625,-7.71094 C6.11458,-7.23698 6.25521,-6.72656 6.32813,-6.17969 C6.40104,-5.63281 6.4375,-5.0625 6.4375,-4.46875 C6.4375,-3.66667 6.36458,-2.91406 6.21875,-2.21094 C6.07292,-1.50781 5.78385,-0.911458 5.35156,-0.421875 C4.91927,0.0677083 4.30208,0.3125 3.5,0.3125 M3.5,-0.0625 C4.02083,-0.0625 4.40885,-0.328125 4.66406,-0.859375 C4.91927,-1.39063 5.07552,-1.97917 5.13281,-2.625 C5.1901,-3.27083 5.21875,-3.95833 5.21875,-4.6875 C5.21875,-5.39583 5.1901,-6.04427 5.13281,-6.63281 C5.07552,-7.22135 4.91927,-7.75781 4.66406,-8.24219 C4.40885,-8.72656 4.02083,-8.96875 3.5,-8.96875 C2.96875,-8.96875 2.57552,-8.72656 2.32031,-8.24219 C2.0651,-7.75781 1.90885,-7.22135 1.85156,-6.63281 C1.79427,-6.04427 1.76563,-5.39583 1.76563,-4.6875 C1.76563,-4.16667 1.77865,-3.67708 1.80469,-3.21875 C1.83073,-2.76042 1.89844,-2.28646 2.00781,-1.79688 C2.11719,-1.30729 2.29427,-0.895833 2.53906,-0.5625 C2.78385,-0.229167 3.10417,-0.0625 3.5,-0.0625 "/>
</g>

<g fill="none" stroke="#000000" stroke-opacity="1" stroke-width="0.666667" stroke-linecap="butt" stroke-linejoin="round" transform="matrix(0.75,0,0,0.75,-10.8,-13.14)"
font-family="MS Shell Dlg 2" font-size="8.25" font-weight="400" font-style="normal" 
>
<polyline fill="none" vector-effect="none" points="59.055,233.362 60.21,233.281 61.42,233.183 62.575,233.083 63.785,232.998 64.94,232.897 66.095,232.814 67.305,232.748 68.46,232.651 69.67,232.56 70.825,232.482 71.98,232.423 73.19,232.342 74.345,232.276 75.555,232.186 76.71,232.112 77.865,232.036 79.075,232.004 80.23,231.934 81.44,231.886 82.595,231.862 83.75,231.835 84.96,231.789 86.115,231.77 87.325,231.746 88.48,231.702 89.635,231.686 90.845,231.65 92,231.626 93.21,231.612 94.365,231.586 95.52,231.571 96.73,231.548 97.885,231.538 99.095,231.519 100.25,231.486 101.405,231.465 102.615,231.443 103.77,231.426 104.98,231.398 106.135,231.377 107.29,231.361 108.5,231.314 109.655,231.286 110.865,231.266 112.02,231.228 113.175,231.184 114.385,231.149 115.54,231.123 116.75,231.096 117.905,231.054 119.06,231.018 120.27,230.98 121.425,230.943 122.635,230.887 123.79,230.865 124.945,230.82 126.155,230.788 127.31,230.749 128.52,230.703 129.675,230.663 130.83,230.636 132.04,230.611 133.195,230.583 134.405,230.508 135.56,230.49 136.715,230.458 137.925,230.4 139.08,230.38 140.29,230.329 141.445,230.292 142.6,230.259 143.81,230.233 144.965,230.177 146.175,230.137 147.33,230.077 148.54,230.001 149.695,229.941 150.85,229.858 152.06,229.814 153.215,229.722 154.425,229.629 155.58,229.536 156.735,229.445 157.945,229.343 159.1,229.24 160.31,229.16 161.465,229.02 162.62,228.935 163.83,228.825 164.985,228.722 166.195,228.594 167.35,228.525 168.505,228.432 169.715,228.288 170.87,228.173 172.08,228.001 173.235,227.875 174.39,227.75 175.6,227.652 176.755,227.519 177.965,227.407 179.12,227.267 180.275,227.156 181.485,226.937 182.64,226.795 183.85,226.622 185.005,226.508 186.16,226.387 187.37,226.253 188.525,226.098 189.735,225.927 190.89,225.786 192.045,225.627 193.255,225.496 194.41,225.22 195.62,225.072 196.775,224.939 197.93,224.757 199.14,224.581 200.295,224.48 201.505,224.355 202.66,224.153 203.815,223.851 205.025,223.637 206.18,223.457 207.39,223.357 208.545,223.208 209.7,223.015 210.91,222.802 212.065,222.528 213.275,222.392 214.43,222.174 215.585,221.982 216.795,221.728 217.95,221.514 219.16,221.354 220.315,221.195 221.47,220.973 222.68,220.713 223.835,220.474 225.045,220.236 226.2,220.049 227.355,219.869 228.565,219.567 229.72,219.324 230.93,219.178 232.085,218.959 233.24,218.714 234.45,218.476 235.605,218.203 236.815,218.009 237.97,217.792 239.125,217.463 240.335,217.035 241.49,216.906 242.7,216.759 243.855,216.543 245.01,216.332 246.22,215.995 247.375,215.82 248.585,215.44 249.74,215.217 250.895,214.913 252.105,214.543 253.26,214.258 254.47,214.097 255.625,213.817 256.78,213.634 257.99,213.428 259.145,213.175 260.355,212.761 261.51,212.411 262.665,212.077 263.875,211.627 265.03,211.344 266.24,211.212 267.395,211.054 268.55,210.802 269.76,210.639 270.915,210.242 272.125,209.808 273.28,209.441 274.435,209.116 275.645,208.786 276.8,208.469 278.01,208.021 279.165,207.892 280.32,207.676 281.53,207.393 282.685,207.04 283.895,206.763 285.05,206.481 286.205,205.992 287.415,205.482 288.57,205.242 289.78,204.774 290.935,204.41 292.09,204.289 293.3,204.106 294.455,203.785 295.665,203.342 296.82,202.823 297.975,202.3 299.185,201.833 300.34,201.439 301.55,200.657 302.705,200.468 303.86,200.324 305.07,199.868 306.225,199.266 307.435,198.828 308.59,198.357 309.745,197.686 310.955,196.931 312.11,196.295 313.32,196.132 314.475,195.773 315.63,195.115 316.84,194.783 317.995,193.687 319.205,193.082 320.36,192.602 321.515,191.591 322.725,191.398 323.88,191.001 325.09,190.359 326.245,189.633 327.455,188.688 328.61,188.009 329.765,186.773 330.975,186.422 332.13,186.108 333.34,185.338 334.495,184.375 335.65,183.751 336.86,182.58 338.015,181.634 339.225,180.845 340.38,180.507 341.535,179.463 342.745,178.92 343.9,177.608 345.11,176.363 346.265,174.995 347.42,174.712 348.63,174.134 349.785,172.951 350.995,171.551 352.15,170.788 353.305,169.174 354.515,168.175 355.67,167.449 356.88,166.287 358.035,165.356 359.19,163.704 360.4,161.904 361.555,161.017 362.765,160.44 363.92,159.357 365.075,156.995 366.285,155.865 367.44,154.051 368.65,153.148 369.805,151.811 370.96,150.449 372.17,148.961 373.325,145.962 374.535,145.013 375.69,144.128 376.845,142.683 378.055,139.855 379.21,138.425 380.42,136.167 381.575,134.757 382.73,133.594 383.94,130.893 385.095,128.49 386.305,126.327 387.46,125.258 388.615,122.531 389.825,120.3 390.98,116.808 392.19,115.581 393.345,113.355 394.5,111.395 395.71,107.247 396.865,104.955 398.075,102.56 399.23,99.9103 400.385,96.7369 401.595,93.0396 402.75,91.3442 403.96,87.7246 405.115,83.1743 406.27,77.8985 407.48,69.8743 408.635,60.3588 409.845,46.2079 410.601,25 " />
</g>

<g fill="none" stroke="#000000" stroke-opacity="1" stroke-dasharray="8,2,4,2" stroke-dashoffset="0" stroke-width="2" stroke-linecap="butt" stroke-linejoin="round" transform="matrix(0.75,0,0,0.75,-10.8,-13.14)"
font-family="MS Shell Dlg 2" font-size="8.25" font-weight="400" font-style="normal" 
>
<polyline fill="none" vector-effect="none" points="59.055,237.154 60.21,237.068 61.42,237.01 62.575,236.921 63.785,236.854 64.94,236.776 66.095,236.717 67.305,236.658 68.46,236.596 69.67,236.54 70.825,236.468 71.98,236.425 73.19,236.374 74.345,236.323 75.555,236.296 76.71,236.234 77.865,236.203 79.075,236.179 80.23,236.148 81.44,236.119 82.595,236.078 83.75,236.039 84.96,235.993 86.115,235.951 87.325,235.908 88.48,235.878 89.635,235.826 90.845,235.779 92,235.722 93.21,235.686 94.365,235.642 95.52,235.612 96.73,235.597 97.885,235.573 99.095,235.542 100.25,235.51 101.405,235.463 102.615,235.431 103.77,235.383 104.98,235.335 106.135,235.262 107.29,235.213 108.5,235.17 109.655,235.085 110.865,235.026 112.02,234.956 113.175,234.902 114.385,234.81 115.54,234.715 116.75,234.658 117.905,234.582 119.06,234.489 120.27,234.365 121.425,234.321 122.635,234.215 123.79,234.132 124.945,234.036 126.155,233.91 127.31,233.834 128.52,233.687 129.675,233.577 130.83,233.508 132.04,233.413 133.195,233.269 134.405,233.186 135.56,233.011 136.715,232.894 137.925,232.782 139.08,232.637 140.29,232.533 141.445,232.399 142.6,232.299 143.81,232.127 144.965,231.967 146.175,231.817 147.33,231.683 148.54,231.59 149.695,231.34 150.85,231.229 152.06,231.124 153.215,230.972 154.425,230.779 155.58,230.681 156.735,230.41 157.945,230.224 159.1,230.027 160.31,229.924 161.465,229.758 162.62,229.622 163.83,229.494 164.985,229.337 166.195,228.938 167.35,228.744 168.505,228.559 169.715,228.436 170.87,228.289 172.08,228.16 173.235,228.03 174.39,227.731 175.6,227.424 176.755,227.14 177.965,226.938 179.12,226.704 180.275,226.596 181.485,226.494 182.64,226.369 183.85,226.048 185.005,225.749 186.16,225.497 187.37,225.197 188.525,224.981 189.735,224.707 190.89,224.624 192.045,224.424 193.255,224.219 194.41,223.913 195.62,223.623 196.775,223.354 197.93,223.02 199.14,222.759 200.295,222.48 201.505,222.427 202.66,222.194 203.815,221.89 205.025,221.569 206.18,221.33 207.39,221.007 208.545,220.643 209.7,220.488 210.91,220.194 212.065,219.941 213.275,219.778 214.43,219.391 215.585,219.101 216.795,218.74 217.95,218.43 219.16,218.175 220.315,217.909 221.47,217.635 222.68,217.311 223.835,217.015 225.045,216.766 226.2,216.372 227.355,216.103 228.565,215.678 229.72,215.385 230.93,215.103 232.085,214.71 233.24,214.478 234.45,214.261 235.605,213.969 236.815,213.547 237.97,213.227 239.125,212.684 240.335,212.398 241.49,212.144 242.7,211.817 243.855,211.46 245.01,211.151 246.22,210.833 247.375,210.346 248.585,210.103 249.74,209.755 250.895,209.415 252.105,208.737 253.26,208.298 254.47,207.954 255.625,207.647 256.78,207.242 257.99,206.797 259.145,206.335 260.355,206.017 261.51,205.253 262.665,204.951 263.875,204.465 265.03,203.957 266.24,203.451 267.395,203.032 268.55,202.65 269.76,202.145 270.915,201.686 272.125,200.993 273.28,200.542 274.435,199.667 275.645,199.3 276.8,198.978 278.01,198.337 279.165,197.905 280.32,197.326 281.53,196.67 282.685,196.038 283.895,195.375 285.05,194.603 286.205,194.094 287.415,193.547 288.57,192.963 289.78,192.514 290.935,191.687 292.09,191.144 293.3,190.199 294.455,189.382 295.665,188.801 296.82,188.21 297.975,187.57 299.185,186.935 300.34,186.332 301.55,185.526 302.705,184.582 303.86,183.877 305.07,182.862 306.225,182.319 307.435,181.53 308.59,180.882 309.745,180.008 310.955,179.12 312.11,178.346 313.32,177.341 314.475,176.404 315.63,175.799 316.84,174.995 317.995,174.284 319.205,173.28 320.36,172.206 321.515,171.166 322.725,170.204 323.88,169.12 325.09,168.468 326.245,167.723 327.455,166.531 328.61,165.751 329.765,164.609 330.975,163.465 332.13,162.359 333.34,161.211 334.495,160.326 335.65,159.463 336.86,158.638 338.015,157.269 339.225,156.146 340.38,155.083 341.535,153.73 342.745,152.456 343.9,151.821 345.11,150.688 346.265,149.414 347.42,148.204 348.63,146.61 349.785,145.407 350.995,144.08 352.15,143.098 353.305,142.11 354.515,140.768 355.67,139.463 356.88,138.12 358.035,136.674 359.19,135.106 360.4,133.57 361.555,132.708 362.765,131.462 363.92,130.265 365.075,128.745 366.285,126.923 367.44,125.848 368.65,123.514 369.805,122.528 370.96,121.691 372.17,120.073 373.325,118.351 374.535,116.844 375.69,114.997 376.845,113.346 378.055,111.445 379.21,110.548 380.42,109.084 381.575,107.466 382.73,105.597 383.94,103.777 385.095,102.014 386.305,99.6601 387.46,98.773 388.615,97.2482 389.825,95.4379 390.98,93.4573 392.19,91.5836 393.345,89.577 394.5,87.9141 395.71,85.1317 396.865,83.1507 398.075,80.3201 399.23,77.766 400.385,74.6918 401.595,72.064 402.75,68.8876 403.96,65.2227 405.115,61.417 406.27,56.7097 407.48,51.3311 408.635,45.2031 409.845,33.3298 410.144,25 " />
</g>

<g fill="none" stroke="#000000" stroke-opacity="1" stroke-dasharray="8,8" stroke-dashoffset="0" stroke-width="2" stroke-linecap="butt" stroke-linejoin="round" transform="matrix(0.75,0,0,0.75,-10.8,-13.14)"
font-family="MS Shell Dlg 2" font-size="8.25" font-weight="400" font-style="normal" 
>
<polyline fill="none" vector-effect="none" points="59.055,242.378 60.21,242.225 61.42,242.048 62.575,241.901 63.785,241.684 64.94,241.556 66.095,241.388 67.305,241.256 68.46,241.138 69.67,241.013 70.825,240.965 71.98,240.94 73.19,240.915 74.345,240.878 75.555,240.82 76.71,240.776 77.865,240.718 79.075,240.649 80.23,240.602 81.44,240.498 82.595,240.44 83.75,240.4 84.96,240.318 86.115,240.223 87.325,240.143 88.48,240.1 89.635,239.955 90.845,239.809 92,239.781 93.21,239.706 94.365,239.594 95.52,239.483 96.73,239.344 97.885,239.251 99.095,239.122 100.25,239.008 101.405,238.842 102.615,238.772 103.77,238.68 104.98,238.513 106.135,238.288 107.29,238.193 108.5,238.118 109.655,237.989 110.865,237.755 112.02,237.55 113.175,237.438 114.385,237.332 115.54,237.186 116.75,236.999 117.905,236.795 119.06,236.653 120.27,236.485 121.425,236.341 122.635,236.061 123.79,235.917 124.945,235.715 126.155,235.517 127.31,235.389 128.52,235.203 129.675,235.047 130.83,234.636 132.04,234.447 133.195,234.283 134.405,234.124 135.56,234.016 136.715,233.783 137.925,233.439 139.08,233.188 140.29,232.848 141.445,232.68 142.6,232.482 143.81,232.364 144.965,232.168 146.175,231.966 147.33,231.565 148.54,231.151 149.695,230.929 150.85,230.74 152.06,230.534 153.215,230.339 154.425,230.085 155.58,229.761 156.735,229.485 157.945,229.006 159.1,228.783 160.31,228.553 161.465,228.309 162.62,228.143 163.83,227.782 164.985,227.462 166.195,227.138 167.35,226.766 168.505,226.465 169.715,226.144 170.87,225.873 172.08,225.669 173.235,225.387 174.39,224.989 175.6,224.476 176.755,224.275 177.965,223.856 179.12,223.434 180.275,223.22 181.485,222.975 182.64,222.73 183.85,222.334 185.005,221.862 186.16,221.403 187.37,221.088 188.525,220.738 189.735,220.298 190.89,219.97 192.045,219.691 193.255,219.488 194.41,219.288 195.62,218.634 196.775,218.211 197.93,217.7 199.14,217.278 200.295,216.857 201.505,216.458 202.66,216.207 203.815,215.881 205.025,215.603 206.18,215.288 207.39,214.78 208.545,214.122 209.7,213.64 210.91,213.002 212.065,212.671 213.275,212.278 214.43,212.061 215.585,211.717 216.795,211.546 217.95,210.935 219.16,210.5 220.315,209.975 221.47,209.243 222.68,208.436 223.835,208.08 225.045,207.74 226.2,207.429 227.355,207.18 228.565,206.975 229.72,206.594 230.93,205.997 232.085,205.224 233.24,204.493 234.45,203.89 235.605,202.955 236.815,202.493 237.97,202.248 239.125,201.898 240.335,201.624 241.49,201.178 242.7,200.462 243.855,199.489 245.01,198.617 246.22,197.668 247.375,196.929 248.585,196.633 249.74,196.338 250.895,196.055 252.105,195.522 253.26,194.79 254.47,194.024 255.625,192.881 256.78,192.027 257.99,190.657 259.145,190.503 260.355,190.181 261.51,189.847 262.665,189.597 263.875,188.775 265.03,187.87 266.24,186.523 267.395,185.404 268.55,184.512 269.76,183.713 270.915,183.407 272.125,182.996 273.28,182.759 274.435,181.901 275.645,180.866 276.8,179.937 278.01,178.703 279.165,177.323 280.32,176.569 281.53,176.048 282.685,175.704 283.895,175.264 285.05,174.823 286.205,173.993 287.415,172.565 288.57,171.435 289.78,169.906 290.935,168.894 292.09,168.239 293.3,167.612 294.455,167.171 295.665,166.682 296.82,166.151 297.975,164.928 299.185,163.687 300.34,162.462 301.55,161.013 302.705,159.738 303.86,159.043 305.07,158.385 306.225,157.871 307.435,157.354 308.59,156.735 309.745,155.366 310.955,153.85 312.11,152.469 313.32,151.362 314.475,150.09 315.63,149.041 316.84,148.442 317.995,147.846 319.205,147.24 320.36,146.495 321.515,145.776 322.725,143.516 323.88,142.304 325.09,141.224 326.245,139.658 327.455,138.256 328.61,137.718 329.765,136.983 330.975,136.145 332.13,135.441 333.34,134.533 334.495,132.326 335.65,131.56 336.86,130.002 338.015,128.424 339.225,126.988 340.38,126.122 341.535,125.403 342.745,124.539 343.9,123.799 345.11,123.058 346.265,121.459 347.42,120.013 348.63,118.53 349.785,116.584 350.995,114.864 352.15,113.985 353.305,112.718 354.515,112.055 355.67,111.19 356.88,110.229 358.035,109.268 359.19,107.998 360.4,106.39 361.555,104.403 362.765,102.23 363.92,101.052 365.075,99.7989 366.285,98.5766 367.44,97.7005 368.65,96.5257 369.805,95.7677 370.96,95.3374 372.17,93.6187 373.325,91.5133 374.535,89.5055 375.69,87.7058 376.845,86.1351 378.055,83.5372 379.21,82.534 380.42,81.3754 381.575,80.518 382.73,79.9201 383.94,77.8572 385.095,75.6967 386.305,72.8926 387.46,70.6441 388.615,67.4937 389.825,66.7757 390.98,65.6107 392.19,64.4386 393.345,63.1645 394.5,62.3641 395.71,58.8696 396.865,55.2338 398.075,52.6328 399.23,49.9466 400.385,48.0326 401.595,46.3677 402.75,44.8878 403.96,41.7662 405.115,36.4822 406.27,31.2252 407.48,29.3871 408.635,26.8107 409.845,25.3281 409.892,25 " />
</g>

<g fill="none" stroke="#000000" stroke-opacity="1" stroke-dasharray="2,2" stroke-dashoffset="0" stroke-width="2" stroke-linecap="butt" stroke-linejoin="round" transform="matrix(0.75,0,0,0.75,-10.8,-13.14)"
font-family="MS Shell Dlg 2" font-size="8.25" font-weight="400" font-style="normal" 
>
<polyline fill="none" vector-effect="none" points="59.055,246.396 60.21,246.349 61.42,246.3 62.575,246.236 63.785,246.183 64.94,246.129 66.095,246.048 67.305,245.989 68.46,245.929 69.67,245.861 70.825,245.797 71.98,245.745 73.19,245.64 74.345,245.6 75.555,245.53 76.71,245.456 77.865,245.376 79.075,245.303 80.23,245.23 81.44,245.142 82.595,245.085 83.75,245 84.96,244.891 86.115,244.835 87.325,244.738 88.48,244.637 89.635,244.571 90.845,244.505 92,244.406 93.21,244.27 94.365,244.226 95.52,244.139 96.73,244.047 97.885,243.894 99.095,243.834 100.25,243.753 101.405,243.648 102.615,243.488 103.77,243.442 104.98,243.362 106.135,243.232 107.29,243.097 108.5,243.024 109.655,242.912 110.865,242.811 112.02,242.687 113.175,242.553 114.385,242.437 115.54,242.277 116.75,242.248 117.905,242.124 119.06,241.999 120.27,241.809 121.425,241.722 122.635,241.653 123.79,241.497 124.945,241.292 126.155,241.218 127.31,241.082 128.52,241.029 129.675,240.857 130.83,240.657 132.04,240.61 133.195,240.393 134.405,240.327 135.56,240.215 136.715,240.013 137.925,239.94 139.08,239.795 140.29,239.55 141.445,239.492 142.6,239.352 143.81,239.189 144.965,239.083 146.175,238.832 147.33,238.625 148.54,238.598 149.695,238.462 150.85,238.257 152.06,238.196 153.215,237.827 154.425,237.756 155.58,237.637 156.735,237.507 157.945,237.283 159.1,237.219 160.31,236.954 161.465,236.737 162.62,236.619 163.83,236.54 164.985,236.276 166.195,236.113 167.35,236.002 168.505,235.802 169.715,235.517 170.87,235.41 172.08,235.179 173.235,235.049 174.39,234.936 175.6,234.821 176.755,234.557 177.965,234.317 179.12,234.078 180.275,233.985 181.485,233.815 182.64,233.659 183.85,233.547 185.005,233.092 186.16,233.011 187.37,232.758 188.525,232.654 189.735,232.399 190.89,232.224 192.045,232.11 193.255,231.724 194.41,231.598 195.62,231.481 196.775,231.255 197.93,231.008 199.14,230.811 200.295,230.69 201.505,230.344 202.66,230.121 203.815,230.026 205.025,229.764 206.18,229.425 207.39,229.177 208.545,229.113 209.7,228.919 210.91,228.7 212.065,228.396 213.275,228.323 214.43,227.858 215.585,227.533 216.795,227.482 217.95,227.384 219.16,227.218 220.315,226.943 221.47,226.6 222.68,226.346 223.835,225.934 225.045,225.761 226.2,225.63 227.355,225.516 228.565,225.28 229.72,224.936 230.93,224.497 232.085,224.435 233.24,224.236 234.45,223.885 235.605,223.596 236.815,223.38 237.97,223.181 239.125,222.955 240.335,222.485 241.49,222.415 242.7,222.278 243.855,221.806 245.01,221.662 246.22,221.374 247.375,221.055 248.585,220.894 249.74,220.572 250.895,220.332 252.105,220.169 253.26,220.017 254.47,219.607 255.625,219.13 256.78,218.775 257.99,218.599 259.145,218.489 260.355,218.147 261.51,217.922 262.665,217.797 263.875,217.378 265.03,216.932 266.24,216.523 267.395,216.337 268.55,216.145 269.76,215.934 270.915,215.65 272.125,215.335 273.28,215.223 274.435,214.727 275.645,214.237 276.8,214.005 278.01,213.812 279.165,213.712 280.32,213.223 281.53,213.016 282.685,212.564 283.895,212.328 285.05,212.028 286.205,211.836 287.415,211.514 288.57,211.095 289.78,210.913 290.935,210.362 292.09,210.076 293.3,209.771 294.455,209.599 295.665,209.227 296.82,209.115 297.975,208.864 299.185,208.215 300.34,208.081 301.55,207.803 302.705,206.892 303.86,206.867 305.07,206.561 306.225,206.43 307.435,206.078 308.59,205.909 309.745,205.646 310.955,205.142 312.11,204.525 313.32,204.429 314.475,203.845 315.63,203.438 316.84,203.198 317.995,202.905 319.205,202.278 320.36,201.876 321.515,201.326 322.725,200.946 323.88,200.606 325.09,199.87 326.245,199.53 327.455,199.298 328.61,197.927 329.765,197.811 330.975,197.63 332.13,197.013 333.34,196.497 334.495,195.9 335.65,194.704 336.86,194.476 338.015,193.91 339.225,193.472 340.38,192.922 341.535,191.638 342.745,191.229 343.9,190.781 345.11,190.263 346.265,189.384 347.42,188.383 348.63,187.602 349.785,187.213 350.995,186.441 352.15,185.831 353.305,184.292 354.515,183.77 355.67,183.303 356.88,182.33 358.035,180.895 359.19,179.965 360.4,179.726 361.555,178.876 362.765,177.613 363.92,176.421 365.075,175.46 366.285,174.713 367.44,174.163 368.65,171.699 369.805,171.233 370.96,170.567 372.17,168.694 373.325,166.889 374.535,166.563 375.69,165.207 376.845,163.647 378.055,161.929 379.21,161.25 380.42,159.279 381.575,157.056 382.73,156.481 383.94,154.673 385.095,151.936 386.305,151.052 387.46,149.824 388.615,146.441 389.825,145.35 390.98,143.954 392.19,140.37 393.345,139.366 394.5,134.882 395.71,133.742 396.865,128.809 398.075,127.845 399.23,122.45 400.385,121.666 401.595,115.73 402.75,114.724 403.96,108.702 405.115,101.563 406.27,101.008 407.48,93.6817 408.635,86.0318 409.845,69.797 411,52 " />
</g>

<g fill="none" stroke="#000000" stroke-opacity="1" stroke-width="2" stroke-linecap="butt" stroke-linejoin="round" transform="matrix(0.75,0,0,0.75,-10.8,-13.14)"
font-family="MS Shell Dlg 2" font-size="8.25" font-weight="400" font-style="normal" 
>
<polyline fill="none" vector-effect="none" points="59.055,228.234 60.21,228.233 61.42,228.232 62.575,228.23 63.785,228.229 64.94,228.229 66.095,228.225 67.305,228.221 68.46,228.22 69.67,228.217 70.825,228.21 71.98,228.209 73.19,228.195 74.345,228.193 75.555,228.191 76.71,228.17 77.865,228.17 79.075,228.163 80.23,228.153 81.44,228.15 82.595,228.139 83.75,228.134 84.96,228.116 86.115,228.106 87.325,228.096 88.48,228.082 89.635,228.06 90.845,228.056 92,228.049 93.21,228.029 94.365,228.012 95.52,228.003 96.73,227.999 97.885,227.976 99.095,227.962 100.25,227.943 101.405,227.918 102.615,227.897 103.77,227.886 104.98,227.859 106.135,227.842 107.29,227.824 108.5,227.795 109.655,227.795 110.865,227.783 112.02,227.739 113.175,227.733 114.385,227.7 115.54,227.673 116.75,227.659 117.905,227.645 119.06,227.624 120.27,227.588 121.425,227.543 122.635,227.528 123.79,227.505 124.945,227.458 126.155,227.449 127.31,227.442 128.52,227.392 129.675,227.359 130.83,227.341 132.04,227.324 133.195,227.289 134.405,227.244 135.56,227.226 136.715,227.199 137.925,227.17 139.08,227.113 140.29,227.065 141.445,227.035 142.6,226.994 143.81,226.985 144.965,226.954 146.175,226.933 147.33,226.891 148.54,226.881 149.695,226.805 150.85,226.773 152.06,226.739 153.215,226.672 154.425,226.649 155.58,226.626 156.735,226.568 157.945,226.545 159.1,226.484 160.31,226.424 161.465,226.411 162.62,226.375 163.83,226.325 164.985,226.312 166.195,226.249 167.35,226.183 168.505,226.171 169.715,226.118 170.87,226.078 172.08,226.011 173.235,225.969 174.39,225.929 175.6,225.873 176.755,225.774 177.965,225.716 179.12,225.702 180.275,225.673 181.485,225.644 182.64,225.615 183.85,225.525 185.005,225.51 186.16,225.449 187.37,225.388 188.525,225.326 189.735,225.295 190.89,225.233 192.045,225.154 193.255,225.105 194.41,225.025 195.62,224.959 196.775,224.909 197.93,224.842 199.14,224.826 200.295,224.792 201.505,224.621 202.66,224.482 203.815,224.339 205.025,224.303 206.18,224.194 207.39,224.009 208.545,223.82 209.7,223.743 210.91,223.548 212.065,223.508 213.275,223.389 214.43,223.308 215.585,223.063 216.795,222.938 217.95,222.726 219.16,222.64 220.315,222.511 221.47,222.291 222.68,222.291 223.835,222.112 225.045,221.884 226.2,221.699 227.355,221.606 228.565,221.417 229.72,221.129 230.93,221.08 232.085,220.884 233.24,220.835 234.45,220.585 235.605,220.433 236.815,220.28 237.97,220.073 239.125,219.811 240.335,219.598 241.49,219.437 242.7,219.329 243.855,219.274 245.01,218.944 246.22,218.777 247.375,218.664 248.585,218.323 249.74,218.093 250.895,217.918 252.105,217.742 253.26,217.564 254.47,217.445 255.625,217.204 256.78,217.022 257.99,216.715 259.145,216.653 260.355,216.341 261.51,216.025 262.665,215.962 263.875,215.511 265.03,215.381 266.24,215.118 267.395,215.118 268.55,214.853 269.76,214.786 270.915,214.11 272.125,214.11 273.28,213.904 274.435,213.488 275.645,213.348 276.8,213.065 278.01,212.923 279.165,212.708 280.32,212.492 281.53,212.056 282.685,211.835 283.895,211.613 285.05,211.539 286.205,211.09 287.415,210.634 288.57,210.481 289.78,210.404 290.935,210.018 292.09,209.784 293.3,209.706 294.455,209.312 295.665,209.232 296.82,208.913 297.975,208.268 299.185,208.105 300.34,207.777 301.55,207.529 302.705,207.279 303.86,207.279 305.07,206.861 306.225,206.607 307.435,206.267 308.59,206.01 309.745,205.492 310.955,205.144 312.11,205.056 313.32,204.792 314.475,204.26 315.63,204.171 316.84,203.722 317.995,203.542 319.205,203.36 320.36,202.904 321.515,202.721 322.725,202.351 323.88,201.979 325.09,201.699 326.245,201.417 327.455,200.561 328.61,200.561 329.765,200.273 330.975,200.08 332.13,200.08 333.34,199.497 334.495,199.105 335.65,198.612 336.86,198.314 338.015,197.914 339.225,197.411 340.38,197.107 341.535,196.801 342.745,196.391 343.9,196.082 345.11,195.146 346.265,194.726 347.42,194.515 348.63,193.984 349.785,193.234 350.995,192.693 352.15,192.367 353.305,191.268 354.515,190.935 355.67,190.601 356.88,189.927 358.035,188.792 359.19,188.333 360.4,187.987 361.555,187.291 362.765,186.471 363.92,185.762 365.075,184.326 366.285,184.085 367.44,183.356 368.65,181.88 369.805,181.382 370.96,180.38 372.17,179.494 373.325,179.112 374.535,176.918 375.69,176.526 376.845,175.473 378.055,174.142 379.21,173.336 380.42,171.841 381.575,170.742 382.73,169.632 383.94,167.947 385.095,166.668 386.305,164.506 387.46,163.191 388.615,162.307 389.825,160.221 390.98,158.102 392.19,156.876 393.345,154.394 394.5,152.663 395.71,149.786 396.865,147.348 398.075,144.873 399.23,141.684 400.385,139.639 401.595,135.477 402.75,132.828 403.96,128.875 405.115,122.42 406.27,120.916 407.48,114.406 408.635,107.504 409.845,92.6678 411,75.625 " />
</g>

<g fill="#ffffff" fill-opacity="1" stroke="none" transform="matrix(7.5e-05,0,0,7.5e-05,-10.8,-13.14)"
font-family="MS Shell Dlg 2" font-size="8.25" font-weight="400" font-style="normal" 
>
<path vector-effect="none" fill-rule="evenodd" d="M700000,360000 L700000,1.22e+06 L4.54e+06,1.22e+06 L4.54e+06,880063 L4.54e+06,360000 L700000,360000"/>
</g>

<g fill="#000000" fill-opacity="1" stroke="#000000" stroke-opacity="1" stroke-width="0.666667" stroke-linecap="butt" stroke-linejoin="round" transform="matrix(0.75,0,0,0.75,-10.8,-13.14)"
font-family="MS Shell Dlg 2" font-size="8.25" font-weight="400" font-style="normal" 
>
<polyline fill="none" vector-effect="none" points="74,46 114,46 " />
</g>

<g fill="#000000" fill-opacity="1" stroke="#000000" stroke-opacity="1" stroke-dasharray="8,2,4,2" stroke-dashoffset="0" stroke-width="2" stroke-linecap="butt" stroke-linejoin="round" transform="matrix(0.75,0,0,0.75,-10.8,-13.14)"
font-family="MS Shell Dlg 2" font-size="8.25" font-weight="400" font-style="normal" 
>
<polyline fill="none" vector-effect="none" points="74,62.5 114,62.5 " />
</g>

<g fill="#000000" fill-opacity="1" stroke="#000000" stroke-opacity="1" stroke-dasharray="8,8" stroke-dashoffset="0" stroke-width="2" stroke-linecap="butt" stroke-linejoin="round" transform="matrix(0.75,0,0,0.75,-10.8,-13.14)"
font-family="MS Shell Dlg 2" font-size="8.25" font-weight="400" font-style="normal" 
>
<polyline fill="none" vector-effect="none" points="74,79 114,79 " />
</g>

<g fill="#000000" fill-opacity="1" stroke="#000000" stroke-opacity="1" stroke-dasharray="2,2" stroke-dashoffset="0" stroke-width="2" stroke-linecap="butt" stroke-linejoin="round" transform="matrix(0.75,0,0,0.75,-10.8,-13.14)"
font-family="MS Shell Dlg 2" font-size="8.25" font-weight="400" font-style="normal" 
>
<polyline fill="none" vector-effect="none" points="74,95.5 114,95.5 " />
</g>

<g fill="#000000" fill-opacity="1" stroke="#000000" stroke-opacity="1" stroke-width="2" stroke-linecap="butt" stroke-linejoin="round" transform="matrix(0.75,0,0,0.75,-10.8,-13.14)"
font-family="MS Shell Dlg 2" font-size="8.25" font-weight="400" font-style="normal" 
>
<polyline fill="none" vector-effect="none" points="74,112 114,112 " />
</g>

<g fill="none" stroke="#212121" stroke-opacity="1" stroke-width="1.06667" stroke-linecap="butt" stroke-linejoin="miter" stroke-miterlimit="2" transform="matrix(0.75,0,0,0.75,-10.8,-13.14)"
font-family="MS Shell Dlg 2" font-size="8.25" font-weight="400" font-style="normal" 
>
<polyline fill="none" vector-effect="none" points="454,122 70,122 70,36 454,36 " />
</g>
</g>
</svg>
