<?xml version="1.0" encoding="UTF-8" standalone="no"?>
<svg width="106.186mm" height="86.4306mm"
 viewBox="0 0 301 245"
 xmlns="http://www.w3.org/2000/svg" xmlns:xlink="http://www.w3.org/1999/xlink"  version="1.2" baseProfile="tiny">
<title>Qt SVG Document</title>
<desc>MATLAB, The MathWorks, Inc. Version 25.2.0.3055257 R2025b Update 2</desc>
<defs>
</defs>
<g fill="none" stroke="black" stroke-width="1" fill-rule="evenodd" stroke-linecap="square" stroke-linejoin="bevel" >

<g fill="#ffffff" fill-opacity="1" stroke="none" transform="matrix(0.75,0,0,0.75,-10.8,-13.14)"
font-family="MS Shell Dlg 2" font-size="8.25" font-weight="400" font-style="normal" 
>
<path vector-effect="none" fill-rule="evenodd" d="M13,16 L415,16 L415,343 L13,343 L13,16"/>
</g>

<g fill="#ffffff" fill-opacity="1" stroke="none" transform="matrix(7.5e-05,0,0,7.5e-05,-10.8,-13.14)"
font-family="MS Shell Dlg 2" font-size="8.25" font-weight="400" font-style="normal" 
>
<path vector-effect="none" fill-rule="evenodd" d="M590000,250000 L590000,2.95e+06 L4.11e+06,2.95e+06 L4.11e+06,250000 L590000,250000"/>
</g>

<g fill="#212121" fill-opacity="0.25098" stroke="#212121" stroke-opacity="0.25098" stroke-dasharray="1,3" stroke-dashoffset="0" stroke-width="1.06667" stroke-linecap="butt" stroke-linejoin="round" transform="matrix(0.75,0,0,0.75,-10.8,-13.14)"
font-family="MS Shell Dlg 2" font-size="8.25" font-weight="400" font-style="normal" 
>
<polyline fill="none" vector-effect="none" points="59,25 59,295 " />
<polyline fill="none" vector-effect="none" points="129.4,25 129.4,295 " />
<polyline fill="none" vector-effect="none" points="199.8,25 199.8,295 " />
<polyline fill="none" vector-effect="none" points="270.2,25 270.2,295 " />
<polyline fill="none" vector-effect="none" points="340.6,25 340.6,295 " />
<polyline fill="none" vector-effect="none" points="411,25 411,295 " />
<polyline fill="none" vector-effect="none" points="59,295 411,295 " />
<polyline fill="none" vector-effect="none" points="59,241 411,241 " />
<polyline fill="none" vector-effect="none" points="59,187 411,187 " />
<polyline fill="none" vector-effect="none" points="59,133 411,133 " />
<polyline fill="none" vector-effect="none" points="59,79 411,79 " />
<polyline fill="none" vector-effect="none" points="59,25 411,25 " />
</g>

<g fill="#212121" fill-opacity="1" stroke="none" transform="matrix(0.75,0,0,0.75,141.075,240.31)"
font-family="MS Shell Dlg 2" font-size="8.25" font-weight="400" font-style="normal" 
>
<path vector-effect="none" fill-rule="evenodd" d="M0.65625,-11.1094 L4.48438,0.21875 L3.85938,0.21875 L0.03125,-11.1094 L0.65625,-11.1094 M8.5625,-1.03125 C7.82292,-0.46875 7.35938,-0.140625 7.17188,-0.046875 C6.89063,0.0885417 6.59375,0.15625 6.28125,0.15625 C5.78125,0.15625 5.3724,-0.015625 5.05469,-0.359375 C4.73698,-0.703125 4.57813,-1.15104 4.57813,-1.70313 C4.57813,-2.04688 4.65625,-2.34896 4.8125,-2.60938 C5.02083,-2.96354 5.39063,-3.29688 5.92188,-3.60938 C6.45313,-3.92188 7.33333,-4.30208 8.5625,-4.75 L8.5625,-5.03125 C8.5625,-5.73958 8.44792,-6.22656 8.21875,-6.49219 C7.98958,-6.75781 7.66146,-6.89063 7.23438,-6.89063 C6.90104,-6.89063 6.64063,-6.80208 6.45313,-6.625 C6.25521,-6.44792 6.15625,-6.24479 6.15625,-6.01563 L6.17188,-5.5625 C6.17188,-5.32292 6.10938,-5.13802 5.98438,-5.00781 C5.85938,-4.8776 5.69792,-4.8125 5.5,-4.8125 C5.3125,-4.8125 5.15625,-4.88021 5.03125,-5.01563 C4.90625,-5.15104 4.84375,-5.33854 4.84375,-5.57813 C4.84375,-6.02604 5.07292,-6.4375 5.53125,-6.8125 C5.98958,-7.1875 6.63542,-7.375 7.46875,-7.375 C8.10417,-7.375 8.625,-7.26563 9.03125,-7.04688 C9.33333,-6.89063 9.55729,-6.64063 9.70313,-6.29688 C9.79688,-6.06771 9.84375,-5.60938 9.84375,-4.92188 L9.84375,-2.48438 C9.84375,-1.80729 9.85677,-1.39063 9.88281,-1.23438 C9.90885,-1.07813 9.95313,-0.973958 10.0156,-0.921875 C10.0781,-0.869792 10.1458,-0.84375 10.2188,-0.84375 C10.3021,-0.84375 10.375,-0.864583 10.4375,-0.90625 C10.5521,-0.96875 10.7656,-1.15625 11.0781,-1.46875 L11.0781,-1.03125 C10.4948,-0.25 9.9375,0.140625 9.40625,0.140625 C9.14583,0.140625 8.9401,0.0520833 8.78906,-0.125 C8.63802,-0.302083 8.5625,-0.604167 8.5625,-1.03125 M8.5625,-1.54688 L8.5625,-4.26563 C7.77083,-3.95313 7.26042,-3.73438 7.03125,-3.60938 C6.625,-3.38021 6.33333,-3.14063 6.15625,-2.89063 C5.97917,-2.64063 5.89063,-2.36458 5.89063,-2.0625 C5.89063,-1.6875 6.0026,-1.3776 6.22656,-1.13281 C6.45052,-0.888021 6.70833,-0.765625 7,-0.765625 C7.39583,-0.765625 7.91667,-1.02604 8.5625,-1.54688 M17.5781,-2.71875 C17.3906,-1.78125 17.0156,-1.05729 16.4531,-0.546875 C15.8906,-0.0364583 15.2656,0.21875 14.5781,0.21875 C13.7656,0.21875 13.0573,-0.122396 12.4531,-0.804688 C11.849,-1.48698 11.5469,-2.41146 11.5469,-3.57813 C11.5469,-4.70313 11.8828,-5.61719 12.5547,-6.32031 C13.2266,-7.02344 14.0313,-7.375 14.9688,-7.375 C15.6667,-7.375 16.2422,-7.1875 16.6953,-6.8125 C17.1484,-6.4375 17.375,-6.05208 17.375,-5.65625 C17.375,-5.45833 17.3125,-5.29688 17.1875,-5.17188 C17.0625,-5.04688 16.8854,-4.98438 16.6563,-4.98438 C16.3438,-4.98438 16.1094,-5.08333 15.9531,-5.28125 C15.8698,-5.39583 15.8125,-5.60677 15.7813,-5.91406 C15.75,-6.22135 15.6458,-6.45313 15.4688,-6.60938 C15.2813,-6.76563 15.026,-6.84375 14.7031,-6.84375 C14.1823,-6.84375 13.7656,-6.65104 13.4531,-6.26563 C13.026,-5.75521 12.8125,-5.08333 12.8125,-4.25 C12.8125,-3.39583 13.0234,-2.64063 13.4453,-1.98438 C13.8672,-1.32813 14.4323,-1 15.1406,-1 C15.651,-1 16.1094,-1.17708 16.5156,-1.53125 C16.8073,-1.77083 17.0885,-2.20313 17.3594,-2.82813 L17.5781,-2.71875 M24.5781,3.1875 L24.5781,3.45313 C23.7031,3.33854 22.9948,2.98698 22.4531,2.39844 C21.9115,1.8099 21.6406,1.16146 21.6406,0.453125 C21.6406,0.0677083 21.7005,-0.372396 21.8203,-0.867188 C21.9401,-1.36198 22,-1.75 22,-2.03125 C22,-2.40625 21.8411,-2.75521 21.5234,-3.07813 C21.2057,-3.40104 20.7708,-3.59896 20.2188,-3.67188 L20.2188,-4 C20.7708,-4.07292 21.2057,-4.27083 21.5234,-4.59375 C21.8411,-4.91667 22,-5.26563 22,-5.64063 C22,-5.92188 21.9401,-6.3099 21.8203,-6.80469 C21.7005,-7.29948 21.6406,-7.73438 21.6406,-8.10938 C21.6406,-8.81771 21.9115,-9.46615 22.4531,-10.0547 C22.9948,-10.6432 23.7031,-10.9948 24.5781,-11.1094 L24.5781,-10.8438 C23.9635,-10.6979 23.5156,-10.4583 23.2344,-10.125 C22.9531,-9.79167 22.8125,-9.42708 22.8125,-9.03125 C22.8125,-8.72917 22.8698,-8.32552 22.9844,-7.82031 C23.099,-7.3151 23.1563,-6.88542 23.1563,-6.53125 C23.1563,-6.01042 22.9635,-5.5026 22.5781,-5.00781 C22.1927,-4.51302 21.6198,-4.13021 20.8594,-3.85938 C21.6094,-3.57813 22.1797,-3.1849 22.5703,-2.67969 C22.9609,-2.17448 23.1563,-1.66146 23.1563,-1.14063 C23.1563,-0.786458 23.099,-0.356771 22.9844,0.148438 C22.8698,0.653646 22.8125,1.0625 22.8125,1.375 C22.8125,1.77083 22.9531,2.13281 23.2344,2.46094 C23.5156,2.78906 23.9635,3.03125 24.5781,3.1875 M29.2813,-10.0156 L29.2813,-5.85938 L31.2031,-5.85938 C31.651,-5.85938 31.9766,-5.95573 32.1797,-6.14844 C32.3828,-6.34115 32.5208,-6.72917 32.5938,-7.3125 L32.875,-7.3125 L32.875,-3.71875 L32.5938,-3.71875 C32.5833,-4.13542 32.5286,-4.4401 32.4297,-4.63281 C32.3307,-4.82552 32.1901,-4.96875 32.0078,-5.0625 C31.8255,-5.15625 31.5573,-5.20313 31.2031,-5.20313 L29.2813,-5.20313 L29.2813,-1.875 C29.2813,-1.34375 29.3125,-0.989583 29.375,-0.8125 C29.4271,-0.6875 29.5365,-0.578125 29.7031,-0.484375 C29.9323,-0.359375 30.1719,-0.296875 30.4219,-0.296875 L30.8125,-0.296875 L30.8125,0 L26.2656,0 L26.2656,-0.296875 L26.6406,-0.296875 C27.0781,-0.296875 27.3958,-0.421875 27.5938,-0.671875 C27.7188,-0.838542 27.7813,-1.23958 27.7813,-1.875 L27.7813,-8.71875 C27.7813,-9.26042 27.7448,-9.61458 27.6719,-9.78125 C27.6198,-9.91667 27.5156,-10.0313 27.3594,-10.125 C27.1302,-10.25 26.8906,-10.3125 26.6406,-10.3125 L26.2656,-10.3125 L26.2656,-10.5938 L34.1406,-10.5938 L34.25,-8.26563 L33.9688,-8.26563 C33.8333,-8.76563 33.6771,-9.13021 33.5,-9.35938 C33.3229,-9.58854 33.1016,-9.75521 32.8359,-9.85938 C32.5703,-9.96354 32.1615,-10.0156 31.6094,-10.0156 L29.2813,-10.0156 M35.2813,0 L35.2813,-0.296875 L35.6719,-0.296875 C36.1198,-0.296875 36.4375,-0.4375 36.625,-0.71875 C36.7396,-0.895833 36.7969,-1.28125 36.7969,-1.875 L36.7969,-8.71875 C36.7969,-9.38542 36.724,-9.80208 36.5781,-9.96875 C36.3802,-10.1979 36.0781,-10.3125 35.6719,-10.3125 L35.2813,-10.3125 L35.2813,-10.5938 L39.5938,-10.5938 C41.1771,-10.5938 42.3802,-10.4141 43.2031,-10.0547 C44.026,-9.69531 44.6901,-9.09635 45.1953,-8.25781 C45.7005,-7.41927 45.9531,-6.45313 45.9531,-5.35938 C45.9531,-3.88021 45.5052,-2.64583 44.6094,-1.65625 C43.599,-0.552083 42.0677,0 40.0156,0 L35.2813,0 M38.2969,-0.765625 C38.9635,-0.619792 39.5208,-0.546875 39.9688,-0.546875 C41.1771,-0.546875 42.1797,-0.971354 42.9766,-1.82031 C43.7734,-2.66927 44.1719,-3.82292 44.1719,-5.28125 C44.1719,-6.73958 43.7734,-7.89063 42.9766,-8.73438 C42.1797,-9.57813 41.1563,-10 39.9063,-10 C39.4375,-10 38.901,-9.92708 38.2969,-9.78125 L38.2969,-0.765625 M54.3438,-10.8438 L54.3438,-7.17188 L54.0469,-7.17188 C53.9531,-7.88021 53.7865,-8.44271 53.5469,-8.85938 C53.3073,-9.27604 52.9635,-9.60677 52.5156,-9.85156 C52.0677,-10.0964 51.6042,-10.2188 51.125,-10.2188 C50.5833,-10.2188 50.1354,-10.0521 49.7813,-9.71875 C49.4271,-9.38542 49.25,-9.01042 49.25,-8.59375 C49.25,-8.27083 49.3594,-7.97396 49.5781,-7.70313 C49.901,-7.31771 50.6719,-6.79688 51.8906,-6.14063 C52.8802,-5.60938 53.5547,-5.20313 53.9141,-4.92188 C54.2734,-4.64063 54.5521,-4.30729 54.75,-3.92188 C54.9479,-3.53646 55.0469,-3.13021 55.0469,-2.70313 C55.0469,-1.90104 54.7344,-1.20833 54.1094,-0.625 C53.4844,-0.0416667 52.6823,0.25 51.7031,0.25 C51.401,0.25 51.1146,0.223958 50.8438,0.171875 C50.6771,0.151042 50.3411,0.0572917 49.8359,-0.109375 C49.3307,-0.276042 49.0104,-0.359375 48.875,-0.359375 C48.7396,-0.359375 48.6354,-0.320313 48.5625,-0.242188 C48.4896,-0.164063 48.4323,0 48.3906,0.25 L48.1094,0.25 L48.1094,-3.39063 L48.3906,-3.39063 C48.526,-2.63021 48.7083,-2.0625 48.9375,-1.6875 C49.1667,-1.3125 49.5182,-1 49.9922,-0.75 C50.4661,-0.5 50.9844,-0.375 51.5469,-0.375 C52.1927,-0.375 52.7057,-0.546875 53.0859,-0.890625 C53.4661,-1.23438 53.6563,-1.64063 53.6563,-2.10938 C53.6563,-2.36979 53.5833,-2.63281 53.4375,-2.89844 C53.2917,-3.16406 53.0677,-3.41146 52.7656,-3.64063 C52.5677,-3.79688 52.0156,-4.1276 51.1094,-4.63281 C50.2031,-5.13802 49.5573,-5.54167 49.1719,-5.84375 C48.7865,-6.14583 48.4948,-6.47917 48.2969,-6.84375 C48.099,-7.20833 48,-7.60938 48,-8.04688 C48,-8.80729 48.2917,-9.46354 48.875,-10.0156 C49.4583,-10.5677 50.2031,-10.8438 51.1094,-10.8438 C51.6719,-10.8438 52.2656,-10.7031 52.8906,-10.4219 C53.1823,-10.2969 53.3906,-10.2344 53.5156,-10.2344 C53.651,-10.2344 53.7604,-10.2734 53.8438,-10.3516 C53.9271,-10.4297 53.9948,-10.5938 54.0469,-10.8438 L54.3438,-10.8438 M57.3906,-10.8438 L57.3906,-11.1094 C58.2552,-10.9948 58.9609,-10.6458 59.5078,-10.0625 C60.0547,-9.47917 60.3281,-8.82813 60.3281,-8.10938 C60.3281,-7.73438 60.2682,-7.29948 60.1484,-6.80469 C60.0286,-6.3099 59.9688,-5.92188 59.9688,-5.64063 C59.9688,-5.26563 60.125,-4.91667 60.4375,-4.59375 C60.75,-4.27083 61.1875,-4.07292 61.75,-4 L61.75,-3.67188 C61.1875,-3.59896 60.75,-3.40104 60.4375,-3.07813 C60.125,-2.75521 59.9688,-2.40625 59.9688,-2.03125 C59.9688,-1.75 60.0286,-1.36198 60.1484,-0.867188 C60.2682,-0.372396 60.3281,0.0677083 60.3281,0.453125 C60.3281,1.16146 60.0547,1.8099 59.5078,2.39844 C58.9609,2.98698 58.2552,3.33854 57.3906,3.45313 L57.3906,3.1875 C57.9948,3.03125 58.4401,2.78906 58.7266,2.46094 C59.013,2.13281 59.1563,1.77083 59.1563,1.375 C59.1563,1.0625 59.0964,0.653646 58.9766,0.148438 C58.8568,-0.356771 58.7969,-0.78125 58.7969,-1.125 C58.7969,-1.65625 58.9896,-2.16927 59.375,-2.66406 C59.7604,-3.15885 60.3385,-3.54167 61.1094,-3.8125 C60.3594,-4.09375 59.7865,-4.48698 59.3906,-4.99219 C58.9948,-5.4974 58.7969,-6.01042 58.7969,-6.53125 C58.7969,-6.88542 58.8568,-7.3151 58.9766,-7.82031 C59.0964,-8.32552 59.1563,-8.72917 59.1563,-9.03125 C59.1563,-9.42708 59.013,-9.79167 58.7266,-10.125 C58.4401,-10.4583 57.9948,-10.6979 57.3906,-10.8438 "/>
</g>

<g fill="#212121" fill-opacity="1" stroke="#212121" stroke-opacity="1" stroke-width="1.06667" stroke-linecap="square" stroke-linejoin="round" transform="matrix(0.75,0,0,0.75,-10.8,-13.14)"
font-family="MS Shell Dlg 2" font-size="8.25" font-weight="400" font-style="normal" 
>
<polyline fill="none" vector-effect="none" points="59,295 411,295 " />
<polyline fill="none" vector-effect="none" points="59,25 411,25 " />
<polyline fill="none" vector-effect="none" points="59,295 59,291.48 " />
<polyline fill="none" vector-effect="none" points="59,28.52 59,25 " />
<polyline fill="none" vector-effect="none" points="129.4,295 129.4,291.48 " />
<polyline fill="none" vector-effect="none" points="129.4,28.52 129.4,25 " />
<polyline fill="none" vector-effect="none" points="199.8,295 199.8,291.48 " />
<polyline fill="none" vector-effect="none" points="199.8,28.52 199.8,25 " />
<polyline fill="none" vector-effect="none" points="270.2,295 270.2,291.48 " />
<polyline fill="none" vector-effect="none" points="270.2,28.52 270.2,25 " />
<polyline fill="none" vector-effect="none" points="340.6,295 340.6,291.48 " />
<polyline fill="none" vector-effect="none" points="340.6,28.52 340.6,25 " />
<polyline fill="none" vector-effect="none" points="411,295 411,291.48 " />
<polyline fill="none" vector-effect="none" points="411,28.52 411,25 " />
</g>

<g fill="#212121" fill-opacity="1" stroke="none" transform="matrix(0.75,0,0,0.75,30.7,221.55)"
font-family="MS Shell Dlg 2" font-size="8.25" font-weight="400" font-style="normal" 
>
<path vector-effect="none" fill-rule="evenodd" d="M3.5,0.3125 C2.35417,0.3125 1.57552,-0.158854 1.16406,-1.10156 C0.752604,-2.04427 0.546875,-3.16667 0.546875,-4.46875 C0.546875,-5.28125 0.619792,-6.04427 0.765625,-6.75781 C0.911458,-7.47135 1.20573,-8.07813 1.64844,-8.57813 C2.09115,-9.07813 2.70833,-9.32813 3.5,-9.32813 C4.11458,-9.32813 4.61719,-9.17708 5.00781,-8.875 C5.39844,-8.57292 5.69792,-8.1849 5.90625,-7.71094 C6.11458,-7.23698 6.25521,-6.72656 6.32813,-6.17969 C6.40104,-5.63281 6.4375,-5.0625 6.4375,-4.46875 C6.4375,-3.66667 6.36458,-2.91406 6.21875,-2.21094 C6.07292,-1.50781 5.78385,-0.911458 5.35156,-0.421875 C4.91927,0.0677083 4.30208,0.3125 3.5,0.3125 M3.5,-0.0625 C4.02083,-0.0625 4.40885,-0.328125 4.66406,-0.859375 C4.91927,-1.39063 5.07552,-1.97917 5.13281,-2.625 C5.1901,-3.27083 5.21875,-3.95833 5.21875,-4.6875 C5.21875,-5.39583 5.1901,-6.04427 5.13281,-6.63281 C5.07552,-7.22135 4.91927,-7.75781 4.66406,-8.24219 C4.40885,-8.72656 4.02083,-8.96875 3.5,-8.96875 C2.96875,-8.96875 2.57552,-8.72656 2.32031,-8.24219 C2.0651,-7.75781 1.90885,-7.22135 1.85156,-6.63281 C1.79427,-6.04427 1.76563,-5.39583 1.76563,-4.6875 C1.76563,-4.16667 1.77865,-3.67708 1.80469,-3.21875 C1.83073,-2.76042 1.89844,-2.28646 2.00781,-1.79688 C2.11719,-1.30729 2.29427,-0.895833 2.53906,-0.5625 C2.78385,-0.229167 3.10417,-0.0625 3.5,-0.0625 "/>
</g>

<g fill="#212121" fill-opacity="1" stroke="none" transform="matrix(0.75,0,0,0.75,79.2222,221.55)"
font-family="MS Shell Dlg 2" font-size="8.25" font-weight="400" font-style="normal" 
>
<path vector-effect="none" fill-rule="evenodd" d="M3.5,0.3125 C2.35417,0.3125 1.57552,-0.158854 1.16406,-1.10156 C0.752604,-2.04427 0.546875,-3.16667 0.546875,-4.46875 C0.546875,-5.28125 0.619792,-6.04427 0.765625,-6.75781 C0.911458,-7.47135 1.20573,-8.07813 1.64844,-8.57813 C2.09115,-9.07813 2.70833,-9.32813 3.5,-9.32813 C4.11458,-9.32813 4.61719,-9.17708 5.00781,-8.875 C5.39844,-8.57292 5.69792,-8.1849 5.90625,-7.71094 C6.11458,-7.23698 6.25521,-6.72656 6.32813,-6.17969 C6.40104,-5.63281 6.4375,-5.0625 6.4375,-4.46875 C6.4375,-3.66667 6.36458,-2.91406 6.21875,-2.21094 C6.07292,-1.50781 5.78385,-0.911458 5.35156,-0.421875 C4.91927,0.0677083 4.30208,0.3125 3.5,0.3125 M3.5,-0.0625 C4.02083,-0.0625 4.40885,-0.328125 4.66406,-0.859375 C4.91927,-1.39063 5.07552,-1.97917 5.13281,-2.625 C5.1901,-3.27083 5.21875,-3.95833 5.21875,-4.6875 C5.21875,-5.39583 5.1901,-6.04427 5.13281,-6.63281 C5.07552,-7.22135 4.91927,-7.75781 4.66406,-8.24219 C4.40885,-8.72656 4.02083,-8.96875 3.5,-8.96875 C2.96875,-8.96875 2.57552,-8.72656 2.32031,-8.24219 C2.0651,-7.75781 1.90885,-7.22135 1.85156,-6.63281 C1.79427,-6.04427 1.76563,-5.39583 1.76563,-4.6875 C1.76563,-4.16667 1.77865,-3.67708 1.80469,-3.21875 C1.83073,-2.76042 1.89844,-2.28646 2.00781,-1.79688 C2.11719,-1.30729 2.29427,-0.895833 2.53906,-0.5625 C2.78385,-0.229167 3.10417,-0.0625 3.5,-0.0625 "/>
</g>

<g fill="#212121" fill-opacity="1" stroke="none" transform="matrix(0.75,0,0,0.75,84.7222,221.55)"
font-family="MS Shell Dlg 2" font-size="8.25" font-weight="400" font-style="normal" 
>
<path vector-effect="none" fill-rule="evenodd" d="M1.17188,-0.765625 C1.17188,-0.984375 1.25,-1.16667 1.40625,-1.3125 C1.5625,-1.45833 1.74479,-1.53125 1.95313,-1.53125 C2.07813,-1.53125 2.20313,-1.4974 2.32813,-1.42969 C2.45313,-1.36198 2.54948,-1.26823 2.61719,-1.14844 C2.6849,-1.02865 2.71875,-0.901042 2.71875,-0.765625 C2.71875,-0.567708 2.64323,-0.390625 2.49219,-0.234375 C2.34115,-0.078125 2.16146,0 1.95313,0 C1.74479,0 1.5625,-0.078125 1.40625,-0.234375 C1.25,-0.390625 1.17188,-0.567708 1.17188,-0.765625 "/>
</g>

<g fill="#212121" fill-opacity="1" stroke="none" transform="matrix(0.75,0,0,0.75,87.7778,221.55)"
font-family="MS Shell Dlg 2" font-size="8.25" font-weight="400" font-style="normal" 
>
<path vector-effect="none" fill-rule="evenodd" d="M0.703125,0 L0.703125,-0.375 C0.703125,-0.395833 0.708333,-0.421875 0.71875,-0.453125 L2.90625,-2.85938 C3.22917,-3.21354 3.49219,-3.51042 3.69531,-3.75 C3.89844,-3.98958 4.10156,-4.26823 4.30469,-4.58594 C4.50781,-4.90365 4.66667,-5.22396 4.78125,-5.54688 C4.89583,-5.86979 4.95313,-6.21354 4.95313,-6.57813 C4.95313,-6.96354 4.88281,-7.33073 4.74219,-7.67969 C4.60156,-8.02865 4.39063,-8.30729 4.10938,-8.51563 C3.82813,-8.72396 3.48958,-8.82813 3.09375,-8.82813 C2.6875,-8.82813 2.32292,-8.70573 2,-8.46094 C1.67708,-8.21615 1.44792,-7.90104 1.3125,-7.51563 C1.35417,-7.52604 1.40625,-7.53125 1.46875,-7.53125 C1.67708,-7.53125 1.85677,-7.46094 2.00781,-7.32031 C2.15885,-7.17969 2.23438,-7 2.23438,-6.78125 C2.23438,-6.5625 2.15885,-6.38021 2.00781,-6.23438 C1.85677,-6.08854 1.67708,-6.01563 1.46875,-6.01563 C1.25,-6.01563 1.06771,-6.09115 0.921875,-6.24219 C0.776042,-6.39323 0.703125,-6.57292 0.703125,-6.78125 C0.703125,-7.125 0.768229,-7.45052 0.898438,-7.75781 C1.02865,-8.0651 1.21875,-8.33854 1.46875,-8.57813 C1.71875,-8.81771 2,-9.0026 2.3125,-9.13281 C2.625,-9.26302 2.95313,-9.32813 3.29688,-9.32813 C3.83854,-9.32813 4.33854,-9.21354 4.79688,-8.98438 C5.25521,-8.75521 5.61979,-8.4349 5.89063,-8.02344 C6.16146,-7.61198 6.29688,-7.13021 6.29688,-6.57813 C6.29688,-6.17188 6.20573,-5.78646 6.02344,-5.42188 C5.84115,-5.05729 5.61198,-4.72656 5.33594,-4.42969 C5.0599,-4.13281 4.70573,-3.79427 4.27344,-3.41406 C3.84115,-3.03385 3.55729,-2.78125 3.42188,-2.65625 L1.82813,-1.14063 L3.17188,-1.14063 C3.83854,-1.14063 4.39323,-1.14583 4.83594,-1.15625 C5.27865,-1.16667 5.51563,-1.18229 5.54688,-1.20313 C5.65104,-1.31771 5.76042,-1.75 5.875,-2.5 L6.29688,-2.5 L5.89063,0 L0.703125,0"/>
</g>

<g fill="#212121" fill-opacity="1" stroke="none" transform="matrix(0.75,0,0,0.75,132.022,221.55)"
font-family="MS Shell Dlg 2" font-size="8.25" font-weight="400" font-style="normal" 
>
<path vector-effect="none" fill-rule="evenodd" d="M3.5,0.3125 C2.35417,0.3125 1.57552,-0.158854 1.16406,-1.10156 C0.752604,-2.04427 0.546875,-3.16667 0.546875,-4.46875 C0.546875,-5.28125 0.619792,-6.04427 0.765625,-6.75781 C0.911458,-7.47135 1.20573,-8.07813 1.64844,-8.57813 C2.09115,-9.07813 2.70833,-9.32813 3.5,-9.32813 C4.11458,-9.32813 4.61719,-9.17708 5.00781,-8.875 C5.39844,-8.57292 5.69792,-8.1849 5.90625,-7.71094 C6.11458,-7.23698 6.25521,-6.72656 6.32813,-6.17969 C6.40104,-5.63281 6.4375,-5.0625 6.4375,-4.46875 C6.4375,-3.66667 6.36458,-2.91406 6.21875,-2.21094 C6.07292,-1.50781 5.78385,-0.911458 5.35156,-0.421875 C4.91927,0.0677083 4.30208,0.3125 3.5,0.3125 M3.5,-0.0625 C4.02083,-0.0625 4.40885,-0.328125 4.66406,-0.859375 C4.91927,-1.39063 5.07552,-1.97917 5.13281,-2.625 C5.1901,-3.27083 5.21875,-3.95833 5.21875,-4.6875 C5.21875,-5.39583 5.1901,-6.04427 5.13281,-6.63281 C5.07552,-7.22135 4.91927,-7.75781 4.66406,-8.24219 C4.40885,-8.72656 4.02083,-8.96875 3.5,-8.96875 C2.96875,-8.96875 2.57552,-8.72656 2.32031,-8.24219 C2.0651,-7.75781 1.90885,-7.22135 1.85156,-6.63281 C1.79427,-6.04427 1.76563,-5.39583 1.76563,-4.6875 C1.76563,-4.16667 1.77865,-3.67708 1.80469,-3.21875 C1.83073,-2.76042 1.89844,-2.28646 2.00781,-1.79688 C2.11719,-1.30729 2.29427,-0.895833 2.53906,-0.5625 C2.78385,-0.229167 3.10417,-0.0625 3.5,-0.0625 "/>
</g>

<g fill="#212121" fill-opacity="1" stroke="none" transform="matrix(0.75,0,0,0.75,137.522,221.55)"
font-family="MS Shell Dlg 2" font-size="8.25" font-weight="400" font-style="normal" 
>
<path vector-effect="none" fill-rule="evenodd" d="M1.17188,-0.765625 C1.17188,-0.984375 1.25,-1.16667 1.40625,-1.3125 C1.5625,-1.45833 1.74479,-1.53125 1.95313,-1.53125 C2.07813,-1.53125 2.20313,-1.4974 2.32813,-1.42969 C2.45313,-1.36198 2.54948,-1.26823 2.61719,-1.14844 C2.6849,-1.02865 2.71875,-0.901042 2.71875,-0.765625 C2.71875,-0.567708 2.64323,-0.390625 2.49219,-0.234375 C2.34115,-0.078125 2.16146,0 1.95313,0 C1.74479,0 1.5625,-0.078125 1.40625,-0.234375 C1.25,-0.390625 1.17188,-0.567708 1.17188,-0.765625 "/>
</g>

<g fill="#212121" fill-opacity="1" stroke="none" transform="matrix(0.75,0,0,0.75,140.578,221.55)"
font-family="MS Shell Dlg 2" font-size="8.25" font-weight="400" font-style="normal" 
>
<path vector-effect="none" fill-rule="evenodd" d="M0.390625,-2.3125 L0.390625,-2.79688 L4.71875,-9.25 C4.75,-9.30208 4.79688,-9.32813 4.85938,-9.32813 L5.0625,-9.32813 C5.16667,-9.32813 5.21875,-9.27604 5.21875,-9.17188 L5.21875,-2.79688 L6.59375,-2.79688 L6.59375,-2.3125 L5.21875,-2.3125 L5.21875,-0.9375 C5.21875,-0.75 5.35677,-0.630208 5.63281,-0.578125 C5.90885,-0.526042 6.22396,-0.5 6.57813,-0.5 L6.57813,0 L2.73438,0 L2.73438,-0.5 C3.08854,-0.5 3.40365,-0.526042 3.67969,-0.578125 C3.95573,-0.630208 4.09375,-0.75 4.09375,-0.9375 L4.09375,-2.3125 L0.390625,-2.3125 M0.859375,-2.79688 L4.17188,-2.79688 L4.17188,-7.76563 L0.859375,-2.79688"/>
</g>

<g fill="#212121" fill-opacity="1" stroke="none" transform="matrix(0.75,0,0,0.75,184.822,221.55)"
font-family="MS Shell Dlg 2" font-size="8.25" font-weight="400" font-style="normal" 
>
<path vector-effect="none" fill-rule="evenodd" d="M3.5,0.3125 C2.35417,0.3125 1.57552,-0.158854 1.16406,-1.10156 C0.752604,-2.04427 0.546875,-3.16667 0.546875,-4.46875 C0.546875,-5.28125 0.619792,-6.04427 0.765625,-6.75781 C0.911458,-7.47135 1.20573,-8.07813 1.64844,-8.57813 C2.09115,-9.07813 2.70833,-9.32813 3.5,-9.32813 C4.11458,-9.32813 4.61719,-9.17708 5.00781,-8.875 C5.39844,-8.57292 5.69792,-8.1849 5.90625,-7.71094 C6.11458,-7.23698 6.25521,-6.72656 6.32813,-6.17969 C6.40104,-5.63281 6.4375,-5.0625 6.4375,-4.46875 C6.4375,-3.66667 6.36458,-2.91406 6.21875,-2.21094 C6.07292,-1.50781 5.78385,-0.911458 5.35156,-0.421875 C4.91927,0.0677083 4.30208,0.3125 3.5,0.3125 M3.5,-0.0625 C4.02083,-0.0625 4.40885,-0.328125 4.66406,-0.859375 C4.91927,-1.39063 5.07552,-1.97917 5.13281,-2.625 C5.1901,-3.27083 5.21875,-3.95833 5.21875,-4.6875 C5.21875,-5.39583 5.1901,-6.04427 5.13281,-6.63281 C5.07552,-7.22135 4.91927,-7.75781 4.66406,-8.24219 C4.40885,-8.72656 4.02083,-8.96875 3.5,-8.96875 C2.96875,-8.96875 2.57552,-8.72656 2.32031,-8.24219 C2.0651,-7.75781 1.90885,-7.22135 1.85156,-6.63281 C1.79427,-6.04427 1.76563,-5.39583 1.76563,-4.6875 C1.76563,-4.16667 1.77865,-3.67708 1.80469,-3.21875 C1.83073,-2.76042 1.89844,-2.28646 2.00781,-1.79688 C2.11719,-1.30729 2.29427,-0.895833 2.53906,-0.5625 C2.78385,-0.229167 3.10417,-0.0625 3.5,-0.0625 "/>
</g>

<g fill="#212121" fill-opacity="1" stroke="none" transform="matrix(0.75,0,0,0.75,190.322,221.55)"
font-family="MS Shell Dlg 2" font-size="8.25" font-weight="400" font-style="normal" 
>
<path vector-effect="none" fill-rule="evenodd" d="M1.17188,-0.765625 C1.17188,-0.984375 1.25,-1.16667 1.40625,-1.3125 C1.5625,-1.45833 1.74479,-1.53125 1.95313,-1.53125 C2.07813,-1.53125 2.20313,-1.4974 2.32813,-1.42969 C2.45313,-1.36198 2.54948,-1.26823 2.61719,-1.14844 C2.6849,-1.02865 2.71875,-0.901042 2.71875,-0.765625 C2.71875,-0.567708 2.64323,-0.390625 2.49219,-0.234375 C2.34115,-0.078125 2.16146,0 1.95313,0 C1.74479,0 1.5625,-0.078125 1.40625,-0.234375 C1.25,-0.390625 1.17188,-0.567708 1.17188,-0.765625 "/>
</g>

<g fill="#212121" fill-opacity="1" stroke="none" transform="matrix(0.75,0,0,0.75,193.378,221.55)"
font-family="MS Shell Dlg 2" font-size="8.25" font-weight="400" font-style="normal" 
>
<path vector-effect="none" fill-rule="evenodd" d="M3.5,0.3125 C2.91667,0.3125 2.43229,0.158854 2.04688,-0.148438 C1.66146,-0.455729 1.36198,-0.854167 1.14844,-1.34375 C0.934896,-1.83333 0.789063,-2.34896 0.710938,-2.89063 C0.632813,-3.43229 0.59375,-3.97917 0.59375,-4.53125 C0.59375,-5.27083 0.736979,-6.01042 1.02344,-6.75 C1.3099,-7.48958 1.73177,-8.10417 2.28906,-8.59375 C2.84635,-9.08333 3.50521,-9.32813 4.26563,-9.32813 C4.58854,-9.32813 4.88802,-9.26823 5.16406,-9.14844 C5.4401,-9.02865 5.65625,-8.85156 5.8125,-8.61719 C5.96875,-8.38281 6.04688,-8.09896 6.04688,-7.76563 C6.04688,-7.56771 5.98177,-7.40365 5.85156,-7.27344 C5.72135,-7.14323 5.5625,-7.07813 5.375,-7.07813 C5.1875,-7.07813 5.02865,-7.14583 4.89844,-7.28125 C4.76823,-7.41667 4.70313,-7.57813 4.70313,-7.76563 C4.70313,-7.94271 4.76823,-8.09635 4.89844,-8.22656 C5.02865,-8.35677 5.1875,-8.42188 5.375,-8.42188 L5.45313,-8.42188 C5.32813,-8.59896 5.15885,-8.72656 4.94531,-8.80469 C4.73177,-8.88281 4.50521,-8.92188 4.26563,-8.92188 C3.98438,-8.92188 3.72396,-8.85938 3.48438,-8.73438 C3.24479,-8.60938 3.03125,-8.44271 2.84375,-8.23438 C2.65625,-8.02604 2.4974,-7.79427 2.36719,-7.53906 C2.23698,-7.28385 2.13802,-6.99479 2.07031,-6.67188 C2.0026,-6.34896 1.95833,-6.04688 1.9375,-5.76563 C1.91667,-5.48438 1.90625,-5.13021 1.90625,-4.70313 C2.07292,-5.08854 2.30729,-5.40365 2.60938,-5.64844 C2.91146,-5.89323 3.25,-6.01563 3.625,-6.01563 C4.04167,-6.01563 4.41927,-5.92969 4.75781,-5.75781 C5.09635,-5.58594 5.39063,-5.35156 5.64063,-5.05469 C5.89063,-4.75781 6.08073,-4.41667 6.21094,-4.03125 C6.34115,-3.64583 6.40625,-3.26042 6.40625,-2.875 C6.40625,-2.32292 6.28385,-1.79948 6.03906,-1.30469 C5.79427,-0.809896 5.45052,-0.416667 5.00781,-0.125 C4.5651,0.166667 4.0625,0.3125 3.5,0.3125 M3.5,-0.140625 C3.86458,-0.140625 4.15625,-0.223958 4.375,-0.390625 C4.59375,-0.557292 4.7526,-0.776042 4.85156,-1.04688 C4.95052,-1.31771 5.01302,-1.58854 5.03906,-1.85938 C5.0651,-2.13021 5.07813,-2.46875 5.07813,-2.875 C5.07813,-3.39583 5.05208,-3.84375 5,-4.21875 C4.94792,-4.59375 4.8125,-4.92448 4.59375,-5.21094 C4.375,-5.4974 4.03125,-5.64063 3.5625,-5.64063 C3.1875,-5.64063 2.8776,-5.51302 2.63281,-5.25781 C2.38802,-5.0026 2.21094,-4.67969 2.10156,-4.28906 C1.99219,-3.89844 1.9375,-3.52604 1.9375,-3.17188 C1.9375,-3.04688 1.94271,-2.95313 1.95313,-2.89063 C1.95313,-2.86979 1.95052,-2.85677 1.94531,-2.85156 C1.9401,-2.84635 1.9375,-2.83333 1.9375,-2.8125 C1.9375,-2.41667 1.97917,-2.01302 2.0625,-1.60156 C2.14583,-1.1901 2.30208,-0.84375 2.53125,-0.5625 C2.76042,-0.28125 3.08333,-0.140625 3.5,-0.140625 "/>
</g>

<g fill="#212121" fill-opacity="1" stroke="none" transform="matrix(0.75,0,0,0.75,237.622,221.55)"
font-family="MS Shell Dlg 2" font-size="8.25" font-weight="400" font-style="normal" 
>
<path vector-effect="none" fill-rule="evenodd" d="M3.5,0.3125 C2.35417,0.3125 1.57552,-0.158854 1.16406,-1.10156 C0.752604,-2.04427 0.546875,-3.16667 0.546875,-4.46875 C0.546875,-5.28125 0.619792,-6.04427 0.765625,-6.75781 C0.911458,-7.47135 1.20573,-8.07813 1.64844,-8.57813 C2.09115,-9.07813 2.70833,-9.32813 3.5,-9.32813 C4.11458,-9.32813 4.61719,-9.17708 5.00781,-8.875 C5.39844,-8.57292 5.69792,-8.1849 5.90625,-7.71094 C6.11458,-7.23698 6.25521,-6.72656 6.32813,-6.17969 C6.40104,-5.63281 6.4375,-5.0625 6.4375,-4.46875 C6.4375,-3.66667 6.36458,-2.91406 6.21875,-2.21094 C6.07292,-1.50781 5.78385,-0.911458 5.35156,-0.421875 C4.91927,0.0677083 4.30208,0.3125 3.5,0.3125 M3.5,-0.0625 C4.02083,-0.0625 4.40885,-0.328125 4.66406,-0.859375 C4.91927,-1.39063 5.07552,-1.97917 5.13281,-2.625 C5.1901,-3.27083 5.21875,-3.95833 5.21875,-4.6875 C5.21875,-5.39583 5.1901,-6.04427 5.13281,-6.63281 C5.07552,-7.22135 4.91927,-7.75781 4.66406,-8.24219 C4.40885,-8.72656 4.02083,-8.96875 3.5,-8.96875 C2.96875,-8.96875 2.57552,-8.72656 2.32031,-8.24219 C2.0651,-7.75781 1.90885,-7.22135 1.85156,-6.63281 C1.79427,-6.04427 1.76563,-5.39583 1.76563,-4.6875 C1.76563,-4.16667 1.77865,-3.67708 1.80469,-3.21875 C1.83073,-2.76042 1.89844,-2.28646 2.00781,-1.79688 C2.11719,-1.30729 2.29427,-0.895833 2.53906,-0.5625 C2.78385,-0.229167 3.10417,-0.0625 3.5,-0.0625 "/>
</g>

<g fill="#212121" fill-opacity="1" stroke="none" transform="matrix(0.75,0,0,0.75,243.122,221.55)"
font-family="MS Shell Dlg 2" font-size="8.25" font-weight="400" font-style="normal" 
>
<path vector-effect="none" fill-rule="evenodd" d="M1.17188,-0.765625 C1.17188,-0.984375 1.25,-1.16667 1.40625,-1.3125 C1.5625,-1.45833 1.74479,-1.53125 1.95313,-1.53125 C2.07813,-1.53125 2.20313,-1.4974 2.32813,-1.42969 C2.45313,-1.36198 2.54948,-1.26823 2.61719,-1.14844 C2.6849,-1.02865 2.71875,-0.901042 2.71875,-0.765625 C2.71875,-0.567708 2.64323,-0.390625 2.49219,-0.234375 C2.34115,-0.078125 2.16146,0 1.95313,0 C1.74479,0 1.5625,-0.078125 1.40625,-0.234375 C1.25,-0.390625 1.17188,-0.567708 1.17188,-0.765625 "/>
</g>

<g fill="#212121" fill-opacity="1" stroke="none" transform="matrix(0.75,0,0,0.75,246.178,221.55)"
font-family="MS Shell Dlg 2" font-size="8.25" font-weight="400" font-style="normal" 
>
<path vector-effect="none" fill-rule="evenodd" d="M0.59375,-2.125 C0.59375,-2.6875 0.778646,-3.1849 1.14844,-3.61719 C1.51823,-4.04948 1.98958,-4.40625 2.5625,-4.6875 L2.04688,-5.03125 C1.72396,-5.23958 1.46354,-5.51823 1.26563,-5.86719 C1.06771,-6.21615 0.96875,-6.57813 0.96875,-6.95313 C0.96875,-7.40104 1.08594,-7.80469 1.32031,-8.16406 C1.55469,-8.52344 1.86719,-8.80729 2.25781,-9.01563 C2.64844,-9.22396 3.0625,-9.32813 3.5,-9.32813 C3.91667,-9.32813 4.31771,-9.24219 4.70313,-9.07031 C5.08854,-8.89844 5.40365,-8.65625 5.64844,-8.34375 C5.89323,-8.03125 6.01563,-7.66146 6.01563,-7.23438 C6.01563,-6.91146 5.94271,-6.61719 5.79688,-6.35156 C5.65104,-6.08594 5.45052,-5.84635 5.19531,-5.63281 C4.9401,-5.41927 4.66667,-5.23438 4.375,-5.07813 L5.17188,-4.5625 C5.53646,-4.32292 5.83333,-4.00781 6.0625,-3.61719 C6.29167,-3.22656 6.40625,-2.8125 6.40625,-2.375 C6.40625,-1.875 6.26823,-1.41667 5.99219,-1 C5.71615,-0.583333 5.35677,-0.260417 4.91406,-0.03125 C4.47135,0.197917 4,0.3125 3.5,0.3125 C3.02083,0.3125 2.55469,0.213542 2.10156,0.015625 C1.64844,-0.182292 1.28385,-0.466146 1.00781,-0.835938 C0.731771,-1.20573 0.59375,-1.63542 0.59375,-2.125 M1.34375,-2.125 C1.34375,-1.76042 1.44531,-1.42448 1.64844,-1.11719 C1.85156,-0.809896 2.11979,-0.570313 2.45313,-0.398438 C2.78646,-0.226563 3.13542,-0.140625 3.5,-0.140625 C4.04167,-0.140625 4.53385,-0.299479 4.97656,-0.617188 C5.41927,-0.934896 5.64063,-1.35417 5.64063,-1.875 C5.64063,-2.05208 5.60417,-2.22917 5.53125,-2.40625 C5.45833,-2.58333 5.35938,-2.74219 5.23438,-2.88281 C5.10938,-3.02344 4.96875,-3.14063 4.8125,-3.23438 L2.9375,-4.45313 C2.64583,-4.29688 2.3776,-4.10156 2.13281,-3.86719 C1.88802,-3.63281 1.69531,-3.36719 1.55469,-3.07031 C1.41406,-2.77344 1.34375,-2.45833 1.34375,-2.125 M2.3125,-6.40625 L4,-5.3125 C4.39583,-5.54167 4.71875,-5.81771 4.96875,-6.14063 C5.21875,-6.46354 5.34375,-6.82813 5.34375,-7.23438 C5.34375,-7.54688 5.25521,-7.83333 5.07813,-8.09375 C4.90104,-8.35417 4.67188,-8.55729 4.39063,-8.70313 C4.10938,-8.84896 3.80729,-8.92188 3.48438,-8.92188 C3.20313,-8.92188 2.91927,-8.86719 2.63281,-8.75781 C2.34635,-8.64844 2.10938,-8.48438 1.92188,-8.26563 C1.73438,-8.04688 1.64063,-7.79167 1.64063,-7.5 C1.64063,-7.0625 1.86458,-6.69792 2.3125,-6.40625 "/>
</g>

<g fill="#212121" fill-opacity="1" stroke="none" transform="matrix(0.75,0,0,0.75,294.7,221.55)"
font-family="MS Shell Dlg 2" font-size="8.25" font-weight="400" font-style="normal" 
>
<path vector-effect="none" fill-rule="evenodd" d="M1.29688,0 L1.29688,-0.5 C2.46354,-0.5 3.04688,-0.645833 3.04688,-0.9375 L3.04688,-8.28125 C2.56771,-8.05208 1.95833,-7.9375 1.21875,-7.9375 L1.21875,-8.42188 C2.36458,-8.42188 3.22917,-8.72396 3.8125,-9.32813 L4,-9.32813 C4.03125,-9.32813 4.0625,-9.3151 4.09375,-9.28906 C4.125,-9.26302 4.14063,-9.23438 4.14063,-9.20313 L4.14063,-0.9375 C4.14063,-0.645833 4.72396,-0.5 5.89063,-0.5 L5.89063,0 L1.29688,0"/>
</g>

<g fill="#212121" fill-opacity="1" stroke="none" transform="matrix(0,-0.75,0.75,0,9.75,172.86)"
font-family="MS Shell Dlg 2" font-size="8.25" font-weight="400" font-style="normal" 
>
<path vector-effect="none" fill-rule="evenodd" d="M0.84375,-2.60938 L1.1875,-2.60938 C1.25,-1.90104 1.47656,-1.35677 1.86719,-0.976563 C2.25781,-0.596354 2.83854,-0.369792 3.60938,-0.296875 L3.60938,-4.85938 C2.44271,-5.57813 1.66146,-6.21875 1.26563,-6.78125 C0.994792,-7.17708 0.859375,-7.65625 0.859375,-8.21875 C0.859375,-8.86458 1.09635,-9.42708 1.57031,-9.90625 C2.04427,-10.3854 2.72396,-10.6719 3.60938,-10.7656 L3.60938,-11.4844 L4.10938,-11.4844 L4.10938,-10.7656 C4.53646,-10.7448 4.89583,-10.6979 5.1875,-10.625 C5.34375,-10.5833 5.84375,-10.401 6.6875,-10.0781 L6.6875,-7.75 L6.39063,-7.75 C6.31771,-8.57292 6.10156,-9.17708 5.74219,-9.5625 C5.38281,-9.94792 4.83854,-10.1771 4.10938,-10.25 L4.10938,-6.28125 C5.42188,-5.36458 6.26563,-4.6875 6.64063,-4.25 C7.01563,-3.8125 7.20313,-3.27083 7.20313,-2.625 C7.20313,-1.90625 6.92969,-1.27344 6.38281,-0.726563 C5.83594,-0.179688 5.07813,0.135417 4.10938,0.21875 L4.10938,1.21875 L3.60938,1.21875 L3.60938,0.21875 C3.11979,0.197917 2.66406,0.140625 2.24219,0.046875 C1.82031,-0.046875 1.35417,-0.197917 0.84375,-0.40625 L0.84375,-2.60938 M3.60938,-6.60938 L3.60938,-10.2344 C3.08854,-10.1719 2.70313,-10.0078 2.45313,-9.74219 C2.20313,-9.47656 2.07813,-9.14063 2.07813,-8.73438 C2.07813,-8.34896 2.19271,-7.99219 2.42188,-7.66406 C2.65104,-7.33594 3.04688,-6.98438 3.60938,-6.60938 M4.10938,-0.296875 C4.50521,-0.359375 4.80729,-0.453125 5.01563,-0.578125 C5.30729,-0.765625 5.53646,-1.00521 5.70313,-1.29688 C5.86979,-1.58854 5.95313,-1.90104 5.95313,-2.23438 C5.95313,-2.57813 5.85156,-2.90365 5.64844,-3.21094 C5.44531,-3.51823 4.93229,-3.95313 4.10938,-4.51563 L4.10938,-0.296875 M8.65625,-11.1094 L12.4844,0.21875 L11.8594,0.21875 L8.03125,-11.1094 L8.65625,-11.1094 M17.125,-7.375 L17.125,-4.9375 L16.875,-4.9375 C16.6771,-5.69792 16.4219,-6.21615 16.1094,-6.49219 C15.7969,-6.76823 15.401,-6.90625 14.9219,-6.90625 C14.5573,-6.90625 14.263,-6.8099 14.0391,-6.61719 C13.8151,-6.42448 13.7031,-6.21354 13.7031,-5.98438 C13.7031,-5.69271 13.7865,-5.44271 13.9531,-5.23438 C14.1198,-5.01563 14.4479,-4.78646 14.9375,-4.54688 L16.0781,-4 C17.1406,-3.47917 17.6719,-2.79688 17.6719,-1.95313 C17.6719,-1.30729 17.4245,-0.783854 16.9297,-0.382813 C16.4349,0.0182292 15.8854,0.21875 15.2813,0.21875 C14.8438,0.21875 14.3438,0.140625 13.7813,-0.015625 C13.6042,-0.0677083 13.4635,-0.09375 13.3594,-0.09375 C13.2344,-0.09375 13.1406,-0.0260417 13.0781,0.109375 L12.8125,0.109375 L12.8125,-2.45313 L13.0781,-2.45313 C13.224,-1.72396 13.5026,-1.17448 13.9141,-0.804688 C14.3255,-0.434896 14.7865,-0.25 15.2969,-0.25 C15.651,-0.25 15.9427,-0.354167 16.1719,-0.5625 C16.401,-0.770833 16.5156,-1.02604 16.5156,-1.32813 C16.5156,-1.68229 16.388,-1.98177 16.1328,-2.22656 C15.8776,-2.47135 15.3724,-2.78125 14.6172,-3.15625 C13.862,-3.53125 13.3698,-3.86979 13.1406,-4.17188 C12.901,-4.47396 12.7813,-4.84896 12.7813,-5.29688 C12.7813,-5.89063 12.9844,-6.38542 13.3906,-6.78125 C13.7969,-7.17708 14.3177,-7.375 14.9531,-7.375 C15.2344,-7.375 15.5781,-7.3125 15.9844,-7.1875 C16.2448,-7.11458 16.4219,-7.07813 16.5156,-7.07813 C16.599,-7.07813 16.6641,-7.09635 16.7109,-7.13281 C16.7578,-7.16927 16.8125,-7.25 16.875,-7.375 L17.125,-7.375 M18.0938,-7.15625 L21.4375,-7.15625 L21.4375,-6.875 L21.2656,-6.875 C21.0365,-6.875 20.862,-6.82292 20.7422,-6.71875 C20.6224,-6.61458 20.5625,-6.48958 20.5625,-6.34375 C20.5625,-6.13542 20.651,-5.85417 20.8281,-5.5 L22.5625,-1.89063 L24.1719,-5.84375 C24.2552,-6.05208 24.2969,-6.26042 24.2969,-6.46875 C24.2969,-6.5625 24.2813,-6.63542 24.25,-6.6875 C24.2083,-6.73958 24.1432,-6.78385 24.0547,-6.82031 C23.9661,-6.85677 23.8073,-6.875 23.5781,-6.875 L23.5781,-7.15625 L25.9063,-7.15625 L25.9063,-6.875 C25.7188,-6.85417 25.5729,-6.8125 25.4688,-6.75 C25.3646,-6.6875 25.25,-6.56771 25.125,-6.39063 C25.0729,-6.31771 24.9844,-6.11979 24.8594,-5.79688 L21.9375,1.35938 C21.6563,2.04688 21.2891,2.56771 20.8359,2.92188 C20.3828,3.27604 19.9427,3.45313 19.5156,3.45313 C19.2135,3.45313 18.9635,3.36458 18.7656,3.1875 C18.5677,3.01042 18.4688,2.80729 18.4688,2.57813 C18.4688,2.35938 18.5391,2.1849 18.6797,2.05469 C18.8203,1.92448 19.0156,1.85938 19.2656,1.85938 C19.4427,1.85938 19.6771,1.91667 19.9688,2.03125 C20.1771,2.10417 20.3073,2.14063 20.3594,2.14063 C20.5156,2.14063 20.6875,2.0599 20.875,1.89844 C21.0625,1.73698 21.25,1.42708 21.4375,0.96875 L21.9375,-0.28125 L19.375,-5.6875 C19.2917,-5.84375 19.1667,-6.04167 19,-6.28125 C18.8646,-6.46875 18.7552,-6.59375 18.6719,-6.65625 C18.5573,-6.73958 18.3646,-6.8125 18.0938,-6.875 L18.0938,-7.15625 M28.625,-5.84375 C29.1458,-6.36458 29.4531,-6.66667 29.5469,-6.75 C29.7865,-6.94792 30.0417,-7.10156 30.3125,-7.21094 C30.5833,-7.32031 30.849,-7.375 31.1094,-7.375 C31.5573,-7.375 31.9427,-7.24479 32.2656,-6.98438 C32.5885,-6.72396 32.8073,-6.34375 32.9219,-5.84375 C33.4531,-6.46875 33.9036,-6.88021 34.2734,-7.07813 C34.6432,-7.27604 35.026,-7.375 35.4219,-7.375 C35.7969,-7.375 36.1328,-7.27604 36.4297,-7.07813 C36.7266,-6.88021 36.9583,-6.5625 37.125,-6.125 C37.2396,-5.82292 37.2969,-5.34896 37.2969,-4.70313 L37.2969,-1.625 C37.2969,-1.17708 37.3333,-0.869792 37.4063,-0.703125 C37.4583,-0.588542 37.5547,-0.489583 37.6953,-0.40625 C37.8359,-0.322917 38.0625,-0.28125 38.375,-0.28125 L38.375,0 L34.8438,0 L34.8438,-0.28125 L35,-0.28125 C35.3021,-0.28125 35.5417,-0.34375 35.7188,-0.46875 C35.8333,-0.552083 35.9167,-0.682292 35.9688,-0.859375 C35.9896,-0.953125 36,-1.20833 36,-1.625 L36,-4.70313 C36,-5.28646 35.9323,-5.69792 35.7969,-5.9375 C35.5885,-6.27083 35.2604,-6.4375 34.8125,-6.4375 C34.5417,-6.4375 34.2656,-6.36719 33.9844,-6.22656 C33.7031,-6.08594 33.3646,-5.82813 32.9688,-5.45313 L32.9531,-5.375 L32.9688,-5.03125 L32.9688,-1.625 C32.9688,-1.13542 32.9974,-0.830729 33.0547,-0.710938 C33.112,-0.591146 33.2161,-0.489583 33.3672,-0.40625 C33.5182,-0.322917 33.776,-0.28125 34.1406,-0.28125 L34.1406,0 L30.5156,0 L30.5156,-0.28125 C30.9115,-0.28125 31.1849,-0.328125 31.3359,-0.421875 C31.487,-0.515625 31.5885,-0.65625 31.6406,-0.84375 C31.6719,-0.9375 31.6875,-1.19792 31.6875,-1.625 L31.6875,-4.70313 C31.6875,-5.28646 31.599,-5.70313 31.4219,-5.95313 C31.1927,-6.28646 30.875,-6.45313 30.4688,-6.45313 C30.1875,-6.45313 29.9063,-6.38021 29.625,-6.23438 C29.1979,-6.00521 28.8646,-5.74479 28.625,-5.45313 L28.625,-1.625 C28.625,-1.15625 28.6589,-0.851563 28.7266,-0.710938 C28.7943,-0.570313 28.8906,-0.463542 29.0156,-0.390625 C29.1406,-0.317708 29.401,-0.28125 29.7969,-0.28125 L29.7969,0 L26.25,0 L26.25,-0.28125 C26.5833,-0.28125 26.8151,-0.317708 26.9453,-0.390625 C27.0755,-0.463542 27.1745,-0.575521 27.2422,-0.726563 C27.3099,-0.877604 27.3438,-1.17708 27.3438,-1.625 L27.3438,-4.35938 C27.3438,-5.14063 27.3177,-5.64583 27.2656,-5.875 C27.2344,-6.05208 27.1797,-6.17188 27.1016,-6.23438 C27.0234,-6.29688 26.9167,-6.32813 26.7813,-6.32813 C26.6354,-6.32813 26.4583,-6.29167 26.25,-6.21875 L26.1406,-6.5 L28.2969,-7.375 L28.625,-7.375 L28.625,-5.84375 M44.5781,3.1875 L44.5781,3.45313 C43.7031,3.33854 42.9948,2.98698 42.4531,2.39844 C41.9115,1.8099 41.6406,1.16146 41.6406,0.453125 C41.6406,0.0677083 41.7005,-0.372396 41.8203,-0.867188 C41.9401,-1.36198 42,-1.75 42,-2.03125 C42,-2.40625 41.8411,-2.75521 41.5234,-3.07813 C41.2057,-3.40104 40.7708,-3.59896 40.2188,-3.67188 L40.2188,-4 C40.7708,-4.07292 41.2057,-4.27083 41.5234,-4.59375 C41.8411,-4.91667 42,-5.26563 42,-5.64063 C42,-5.92188 41.9401,-6.3099 41.8203,-6.80469 C41.7005,-7.29948 41.6406,-7.73438 41.6406,-8.10938 C41.6406,-8.81771 41.9115,-9.46615 42.4531,-10.0547 C42.9948,-10.6432 43.7031,-10.9948 44.5781,-11.1094 L44.5781,-10.8438 C43.9635,-10.6979 43.5156,-10.4583 43.2344,-10.125 C42.9531,-9.79167 42.8125,-9.42708 42.8125,-9.03125 C42.8125,-8.72917 42.8698,-8.32552 42.9844,-7.82031 C43.099,-7.3151 43.1563,-6.88542 43.1563,-6.53125 C43.1563,-6.01042 42.9635,-5.5026 42.5781,-5.00781 C42.1927,-4.51302 41.6198,-4.13021 40.8594,-3.85938 C41.6094,-3.57813 42.1797,-3.1849 42.5703,-2.67969 C42.9609,-2.17448 43.1563,-1.66146 43.1563,-1.14063 C43.1563,-0.786458 43.099,-0.356771 42.9844,0.148438 C42.8698,0.653646 42.8125,1.0625 42.8125,1.375 C42.8125,1.77083 42.9531,2.13281 43.2344,2.46094 C43.5156,2.78906 43.9635,3.03125 44.5781,3.1875 M45.9844,-6.45313 L48.1875,-7.34375 L48.4844,-7.34375 L48.4844,-5.67188 C48.8594,-6.29688 49.2318,-6.73698 49.6016,-6.99219 C49.9714,-7.2474 50.3646,-7.375 50.7813,-7.375 C51.5,-7.375 52.099,-7.09375 52.5781,-6.53125 C53.1615,-5.84375 53.4531,-4.94792 53.4531,-3.84375 C53.4531,-2.60417 53.099,-1.58333 52.3906,-0.78125 C51.8073,-0.114583 51.0729,0.21875 50.1875,0.21875 C49.8021,0.21875 49.4688,0.166667 49.1875,0.0625 C48.9792,-0.0208333 48.7448,-0.182292 48.4844,-0.421875 L48.4844,1.76563 C48.4844,2.25521 48.5156,2.56771 48.5781,2.70313 C48.6406,2.83854 48.7448,2.94531 48.8906,3.02344 C49.0365,3.10156 49.3073,3.14063 49.7031,3.14063 L49.7031,3.42188 L45.9375,3.42188 L45.9375,3.14063 L46.1406,3.14063 C46.4323,3.14063 46.6771,3.08333 46.875,2.96875 C46.9792,2.91667 47.0573,2.82552 47.1094,2.69531 C47.1615,2.5651 47.1875,2.23958 47.1875,1.71875 L47.1875,-5.04688 C47.1875,-5.51563 47.1667,-5.8125 47.125,-5.9375 C47.0833,-6.0625 47.0182,-6.15625 46.9297,-6.21875 C46.8411,-6.28125 46.7188,-6.3125 46.5625,-6.3125 C46.4375,-6.3125 46.276,-6.27604 46.0781,-6.20313 L45.9844,-6.45313 M48.4844,-5.20313 L48.4844,-2.53125 C48.4844,-1.95833 48.5104,-1.57813 48.5625,-1.39063 C48.6354,-1.08854 48.8125,-0.822917 49.0938,-0.59375 C49.375,-0.364583 49.7344,-0.25 50.1719,-0.25 C50.6927,-0.25 51.1146,-0.453125 51.4375,-0.859375 C51.8542,-1.39063 52.0625,-2.14063 52.0625,-3.10938 C52.0625,-4.20313 51.8229,-5.04167 51.3438,-5.625 C51.0104,-6.03125 50.6146,-6.23438 50.1563,-6.23438 C49.9063,-6.23438 49.6615,-6.17188 49.4219,-6.04688 C49.2344,-5.95313 48.9219,-5.67188 48.4844,-5.20313 M56.5938,-7.375 L56.5938,-5.76563 C57.1979,-6.83854 57.8125,-7.375 58.4375,-7.375 C58.7292,-7.375 58.9688,-7.28646 59.1563,-7.10938 C59.3438,-6.93229 59.4375,-6.72917 59.4375,-6.5 C59.4375,-6.30208 59.3698,-6.13281 59.2344,-5.99219 C59.099,-5.85156 58.9375,-5.78125 58.75,-5.78125 C58.5625,-5.78125 58.3568,-5.86979 58.1328,-6.04688 C57.9089,-6.22396 57.7396,-6.3125 57.625,-6.3125 C57.5313,-6.3125 57.4323,-6.26042 57.3281,-6.15625 C57.0885,-5.94792 56.8438,-5.59896 56.5938,-5.10938 L56.5938,-1.67188 C56.5938,-1.27604 56.6458,-0.979167 56.75,-0.78125 C56.8125,-0.635417 56.9297,-0.515625 57.1016,-0.421875 C57.2734,-0.328125 57.5208,-0.28125 57.8438,-0.28125 L57.8438,0 L54.1875,0 L54.1875,-0.28125 C54.5521,-0.28125 54.8229,-0.338542 55,-0.453125 C55.125,-0.536458 55.2135,-0.671875 55.2656,-0.859375 C55.2969,-0.942708 55.3125,-1.19271 55.3125,-1.60938 L55.3125,-4.39063 C55.3125,-5.22396 55.2943,-5.71875 55.2578,-5.875 C55.2214,-6.03125 55.1589,-6.14583 55.0703,-6.21875 C54.9818,-6.29167 54.8698,-6.32813 54.7344,-6.32813 C54.5677,-6.32813 54.3854,-6.29167 54.1875,-6.21875 L54.1094,-6.5 L56.2656,-7.375 L56.5938,-7.375 M60.7031,-4.46875 C60.7031,-3.40625 60.9635,-2.57292 61.4844,-1.96875 C62.0052,-1.36458 62.6146,-1.0625 63.3125,-1.0625 C63.7813,-1.0625 64.1901,-1.1901 64.5391,-1.44531 C64.888,-1.70052 65.1771,-2.14063 65.4063,-2.76563 L65.6563,-2.60938 C65.5417,-1.90104 65.2214,-1.2526 64.6953,-0.664063 C64.1693,-0.0755208 63.5104,0.21875 62.7188,0.21875 C61.8646,0.21875 61.1302,-0.117188 60.5156,-0.789063 C59.901,-1.46094 59.5938,-2.35938 59.5938,-3.48438 C59.5938,-4.71354 59.9089,-5.66927 60.5391,-6.35156 C61.1693,-7.03385 61.9583,-7.375 62.9063,-7.375 C63.7083,-7.375 64.3672,-7.11198 64.8828,-6.58594 C65.3984,-6.0599 65.6563,-5.35417 65.6563,-4.46875 L60.7031,-4.46875 M60.7031,-4.92188 L64.0156,-4.92188 C63.9948,-5.38021 63.9427,-5.70313 63.8594,-5.89063 C63.724,-6.18229 63.5286,-6.41146 63.2734,-6.57813 C63.0182,-6.74479 62.75,-6.82813 62.4688,-6.82813 C62.0313,-6.82813 61.6432,-6.65885 61.3047,-6.32031 C60.9661,-5.98177 60.7656,-5.51563 60.7031,-4.92188 M71.5625,-0.8125 C71.2083,-0.447917 70.8646,-0.184896 70.5313,-0.0234375 C70.1979,0.138021 69.8385,0.21875 69.4531,0.21875 C68.6719,0.21875 67.9896,-0.109375 67.4063,-0.765625 C66.8229,-1.42188 66.5313,-2.26042 66.5313,-3.28125 C66.5313,-4.3125 66.8542,-5.2526 67.5,-6.10156 C68.1458,-6.95052 68.9792,-7.375 70,-7.375 C70.625,-7.375 71.1458,-7.17708 71.5625,-6.78125 L71.5625,-8.09375 C71.5625,-8.91667 71.5417,-9.42188 71.5,-9.60938 C71.4583,-9.79688 71.3958,-9.92448 71.3125,-9.99219 C71.2292,-10.0599 71.125,-10.0938 71,-10.0938 C70.8646,-10.0938 70.6875,-10.0521 70.4688,-9.96875 L70.3594,-10.2344 L72.5,-11.1094 L72.8438,-11.1094 L72.8438,-2.84375 C72.8438,-2 72.8646,-1.48698 72.9063,-1.30469 C72.9479,-1.1224 73.0104,-0.994792 73.0938,-0.921875 C73.1771,-0.848958 73.276,-0.8125 73.3906,-0.8125 C73.5365,-0.8125 73.724,-0.854167 73.9531,-0.9375 L74.0469,-0.671875 L71.9219,0.21875 L71.5625,0.21875 L71.5625,-0.8125 M71.5625,-1.35938 L71.5625,-5.04688 C71.5313,-5.40104 71.4375,-5.72396 71.2813,-6.01563 C71.125,-6.30729 70.9167,-6.52604 70.6563,-6.67188 C70.3958,-6.81771 70.1458,-6.89063 69.9063,-6.89063 C69.4479,-6.89063 69.0365,-6.6875 68.6719,-6.28125 C68.2031,-5.73958 67.9688,-4.94792 67.9688,-3.90625 C67.9688,-2.85417 68.1979,-2.04688 68.6563,-1.48438 C69.1146,-0.921875 69.625,-0.640625 70.1875,-0.640625 C70.6563,-0.640625 71.1146,-0.880208 71.5625,-1.35938 M82.1406,3.45313 L73.8594,3.45313 L73.8594,2.79688 L82.1406,2.79688 L82.1406,3.45313 M82.1406,-7.15625 L85.5,-7.15625 L85.5,-6.875 L85.2813,-6.875 C85.0833,-6.875 84.9297,-6.82552 84.8203,-6.72656 C84.7109,-6.6276 84.6563,-6.49479 84.6563,-6.32813 C84.6563,-6.14063 84.7135,-5.92188 84.8281,-5.67188 L86.4844,-1.71875 L88.1563,-5.82813 C88.2813,-6.11979 88.3438,-6.33854 88.3438,-6.48438 C88.3438,-6.55729 88.3229,-6.61979 88.2813,-6.67188 C88.2188,-6.74479 88.1432,-6.79688 88.0547,-6.82813 C87.9661,-6.85938 87.7865,-6.875 87.5156,-6.875 L87.5156,-7.15625 L89.8594,-7.15625 L89.8594,-6.875 C89.5885,-6.85417 89.401,-6.79688 89.2969,-6.70313 C89.1094,-6.54688 88.9427,-6.28646 88.7969,-5.92188 L86.2656,0.21875 L85.9375,0.21875 L83.3906,-5.82813 C83.276,-6.10938 83.1667,-6.3099 83.0625,-6.42969 C82.9583,-6.54948 82.8229,-6.65104 82.6563,-6.73438 C82.5729,-6.78646 82.401,-6.83333 82.1406,-6.875 L82.1406,-7.15625 M94.5625,-1.03125 C93.8229,-0.46875 93.3594,-0.140625 93.1719,-0.046875 C92.8906,0.0885417 92.5938,0.15625 92.2813,0.15625 C91.7813,0.15625 91.3724,-0.015625 91.0547,-0.359375 C90.737,-0.703125 90.5781,-1.15104 90.5781,-1.70313 C90.5781,-2.04688 90.6563,-2.34896 90.8125,-2.60938 C91.0208,-2.96354 91.3906,-3.29688 91.9219,-3.60938 C92.4531,-3.92188 93.3333,-4.30208 94.5625,-4.75 L94.5625,-5.03125 C94.5625,-5.73958 94.4479,-6.22656 94.2188,-6.49219 C93.9896,-6.75781 93.6615,-6.89063 93.2344,-6.89063 C92.901,-6.89063 92.6406,-6.80208 92.4531,-6.625 C92.2552,-6.44792 92.1563,-6.24479 92.1563,-6.01563 L92.1719,-5.5625 C92.1719,-5.32292 92.1094,-5.13802 91.9844,-5.00781 C91.8594,-4.8776 91.6979,-4.8125 91.5,-4.8125 C91.3125,-4.8125 91.1563,-4.88021 91.0313,-5.01563 C90.9063,-5.15104 90.8438,-5.33854 90.8438,-5.57813 C90.8438,-6.02604 91.0729,-6.4375 91.5313,-6.8125 C91.9896,-7.1875 92.6354,-7.375 93.4688,-7.375 C94.1042,-7.375 94.625,-7.26563 95.0313,-7.04688 C95.3333,-6.89063 95.5573,-6.64063 95.7031,-6.29688 C95.7969,-6.06771 95.8438,-5.60938 95.8438,-4.92188 L95.8438,-2.48438 C95.8438,-1.80729 95.8568,-1.39063 95.8828,-1.23438 C95.9089,-1.07813 95.9531,-0.973958 96.0156,-0.921875 C96.0781,-0.869792 96.1458,-0.84375 96.2188,-0.84375 C96.3021,-0.84375 96.375,-0.864583 96.4375,-0.90625 C96.5521,-0.96875 96.7656,-1.15625 97.0781,-1.46875 L97.0781,-1.03125 C96.4948,-0.25 95.9375,0.140625 95.4063,0.140625 C95.1458,0.140625 94.9401,0.0520833 94.7891,-0.125 C94.638,-0.302083 94.5625,-0.604167 94.5625,-1.03125 M94.5625,-1.54688 L94.5625,-4.26563 C93.7708,-3.95313 93.2604,-3.73438 93.0313,-3.60938 C92.625,-3.38021 92.3333,-3.14063 92.1563,-2.89063 C91.9792,-2.64063 91.8906,-2.36458 91.8906,-2.0625 C91.8906,-1.6875 92.0026,-1.3776 92.2266,-1.13281 C92.4505,-0.888021 92.7083,-0.765625 93,-0.765625 C93.3958,-0.765625 93.9167,-1.02604 94.5625,-1.54688 M99.5938,-7.375 L99.5938,-5.76563 C100.198,-6.83854 100.813,-7.375 101.438,-7.375 C101.729,-7.375 101.969,-7.28646 102.156,-7.10938 C102.344,-6.93229 102.438,-6.72917 102.438,-6.5 C102.438,-6.30208 102.37,-6.13281 102.234,-5.99219 C102.099,-5.85156 101.938,-5.78125 101.75,-5.78125 C101.563,-5.78125 101.357,-5.86979 101.133,-6.04688 C100.909,-6.22396 100.74,-6.3125 100.625,-6.3125 C100.531,-6.3125 100.432,-6.26042 100.328,-6.15625 C100.089,-5.94792 99.8438,-5.59896 99.5938,-5.10938 L99.5938,-1.67188 C99.5938,-1.27604 99.6458,-0.979167 99.75,-0.78125 C99.8125,-0.635417 99.9297,-0.515625 100.102,-0.421875 C100.273,-0.328125 100.521,-0.28125 100.844,-0.28125 L100.844,0 L97.1875,0 L97.1875,-0.28125 C97.5521,-0.28125 97.8229,-0.338542 98,-0.453125 C98.125,-0.536458 98.2135,-0.671875 98.2656,-0.859375 C98.2969,-0.942708 98.3125,-1.19271 98.3125,-1.60938 L98.3125,-4.39063 C98.3125,-5.22396 98.2943,-5.71875 98.2578,-5.875 C98.2214,-6.03125 98.1589,-6.14583 98.0703,-6.21875 C97.9818,-6.29167 97.8698,-6.32813 97.7344,-6.32813 C97.5677,-6.32813 97.3854,-6.29167 97.1875,-6.21875 L97.1094,-6.5 L99.2656,-7.375 L99.5938,-7.375 M103.391,-10.8438 L103.391,-11.1094 C104.255,-10.9948 104.961,-10.6458 105.508,-10.0625 C106.055,-9.47917 106.328,-8.82813 106.328,-8.10938 C106.328,-7.73438 106.268,-7.29948 106.148,-6.80469 C106.029,-6.3099 105.969,-5.92188 105.969,-5.64063 C105.969,-5.26563 106.125,-4.91667 106.438,-4.59375 C106.75,-4.27083 107.188,-4.07292 107.75,-4 L107.75,-3.67188 C107.188,-3.59896 106.75,-3.40104 106.438,-3.07813 C106.125,-2.75521 105.969,-2.40625 105.969,-2.03125 C105.969,-1.75 106.029,-1.36198 106.148,-0.867188 C106.268,-0.372396 106.328,0.0677083 106.328,0.453125 C106.328,1.16146 106.055,1.8099 105.508,2.39844 C104.961,2.98698 104.255,3.33854 103.391,3.45313 L103.391,3.1875 C103.995,3.03125 104.44,2.78906 104.727,2.46094 C105.013,2.13281 105.156,1.77083 105.156,1.375 C105.156,1.0625 105.096,0.653646 104.977,0.148438 C104.857,-0.356771 104.797,-0.78125 104.797,-1.125 C104.797,-1.65625 104.99,-2.16927 105.375,-2.66406 C105.76,-3.15885 106.339,-3.54167 107.109,-3.8125 C106.359,-4.09375 105.786,-4.48698 105.391,-4.99219 C104.995,-5.4974 104.797,-6.01042 104.797,-6.53125 C104.797,-6.88542 104.857,-7.3151 104.977,-7.82031 C105.096,-8.32552 105.156,-8.72917 105.156,-9.03125 C105.156,-9.42708 105.013,-9.79167 104.727,-10.125 C104.44,-10.4583 103.995,-10.6979 103.391,-10.8438 M110.844,-2.60938 L111.188,-2.60938 C111.25,-1.90104 111.477,-1.35677 111.867,-0.976563 C112.258,-0.596354 112.839,-0.369792 113.609,-0.296875 L113.609,-4.85938 C112.443,-5.57813 111.661,-6.21875 111.266,-6.78125 C110.995,-7.17708 110.859,-7.65625 110.859,-8.21875 C110.859,-8.86458 111.096,-9.42708 111.57,-9.90625 C112.044,-10.3854 112.724,-10.6719 113.609,-10.7656 L113.609,-11.4844 L114.109,-11.4844 L114.109,-10.7656 C114.536,-10.7448 114.896,-10.6979 115.188,-10.625 C115.344,-10.5833 115.844,-10.401 116.688,-10.0781 L116.688,-7.75 L116.391,-7.75 C116.318,-8.57292 116.102,-9.17708 115.742,-9.5625 C115.383,-9.94792 114.839,-10.1771 114.109,-10.25 L114.109,-6.28125 C115.422,-5.36458 116.266,-4.6875 116.641,-4.25 C117.016,-3.8125 117.203,-3.27083 117.203,-2.625 C117.203,-1.90625 116.93,-1.27344 116.383,-0.726563 C115.836,-0.179688 115.078,0.135417 114.109,0.21875 L114.109,1.21875 L113.609,1.21875 L113.609,0.21875 C113.12,0.197917 112.664,0.140625 112.242,0.046875 C111.82,-0.046875 111.354,-0.197917 110.844,-0.40625 L110.844,-2.60938 M113.609,-6.60938 L113.609,-10.2344 C113.089,-10.1719 112.703,-10.0078 112.453,-9.74219 C112.203,-9.47656 112.078,-9.14063 112.078,-8.73438 C112.078,-8.34896 112.193,-7.99219 112.422,-7.66406 C112.651,-7.33594 113.047,-6.98438 113.609,-6.60938 M114.109,-0.296875 C114.505,-0.359375 114.807,-0.453125 115.016,-0.578125 C115.307,-0.765625 115.536,-1.00521 115.703,-1.29688 C115.87,-1.58854 115.953,-1.90104 115.953,-2.23438 C115.953,-2.57813 115.852,-2.90365 115.648,-3.21094 C115.445,-3.51823 114.932,-3.95313 114.109,-4.51563 L114.109,-0.296875 M126.969,3.14063 L126.969,3.42188 C126.188,3.02604 125.531,2.5625 125,2.03125 C124.25,1.28125 123.672,0.390625 123.266,-0.640625 C122.859,-1.67188 122.656,-2.73958 122.656,-3.84375 C122.656,-5.45833 123.055,-6.92969 123.852,-8.25781 C124.648,-9.58594 125.688,-10.5365 126.969,-11.1094 L126.969,-10.7813 C126.333,-10.4271 125.81,-9.94271 125.398,-9.32813 C124.987,-8.71354 124.68,-7.9349 124.477,-6.99219 C124.273,-6.04948 124.172,-5.06771 124.172,-4.04688 C124.172,-2.93229 124.255,-1.91667 124.422,-1 C124.557,-0.28125 124.721,0.296875 124.914,0.734375 C125.107,1.17188 125.367,1.59115 125.695,1.99219 C126.023,2.39323 126.448,2.77604 126.969,3.14063 M134.344,-10.8438 L134.344,-7.17188 L134.047,-7.17188 C133.953,-7.88021 133.786,-8.44271 133.547,-8.85938 C133.307,-9.27604 132.964,-9.60677 132.516,-9.85156 C132.068,-10.0964 131.604,-10.2188 131.125,-10.2188 C130.583,-10.2188 130.135,-10.0521 129.781,-9.71875 C129.427,-9.38542 129.25,-9.01042 129.25,-8.59375 C129.25,-8.27083 129.359,-7.97396 129.578,-7.70313 C129.901,-7.31771 130.672,-6.79688 131.891,-6.14063 C132.88,-5.60938 133.555,-5.20313 133.914,-4.92188 C134.273,-4.64063 134.552,-4.30729 134.75,-3.92188 C134.948,-3.53646 135.047,-3.13021 135.047,-2.70313 C135.047,-1.90104 134.734,-1.20833 134.109,-0.625 C133.484,-0.0416667 132.682,0.25 131.703,0.25 C131.401,0.25 131.115,0.223958 130.844,0.171875 C130.677,0.151042 130.341,0.0572917 129.836,-0.109375 C129.331,-0.276042 129.01,-0.359375 128.875,-0.359375 C128.74,-0.359375 128.635,-0.320313 128.563,-0.242188 C128.49,-0.164063 128.432,0 128.391,0.25 L128.109,0.25 L128.109,-3.39063 L128.391,-3.39063 C128.526,-2.63021 128.708,-2.0625 128.938,-1.6875 C129.167,-1.3125 129.518,-1 129.992,-0.75 C130.466,-0.5 130.984,-0.375 131.547,-0.375 C132.193,-0.375 132.706,-0.546875 133.086,-0.890625 C133.466,-1.23438 133.656,-1.64063 133.656,-2.10938 C133.656,-2.36979 133.583,-2.63281 133.438,-2.89844 C133.292,-3.16406 133.068,-3.41146 132.766,-3.64063 C132.568,-3.79688 132.016,-4.1276 131.109,-4.63281 C130.203,-5.13802 129.557,-5.54167 129.172,-5.84375 C128.786,-6.14583 128.495,-6.47917 128.297,-6.84375 C128.099,-7.20833 128,-7.60938 128,-8.04688 C128,-8.80729 128.292,-9.46354 128.875,-10.0156 C129.458,-10.5677 130.203,-10.8438 131.109,-10.8438 C131.672,-10.8438 132.266,-10.7031 132.891,-10.4219 C133.182,-10.2969 133.391,-10.2344 133.516,-10.2344 C133.651,-10.2344 133.76,-10.2734 133.844,-10.3516 C133.927,-10.4297 133.995,-10.5938 134.047,-10.8438 L134.344,-10.8438 M139.281,-4.96875 L139.281,-1.875 C139.281,-1.20833 139.354,-0.796875 139.5,-0.640625 C139.698,-0.411458 140,-0.296875 140.406,-0.296875 L140.813,-0.296875 L140.813,0 L136.266,0 L136.266,-0.296875 L136.672,-0.296875 C137.12,-0.296875 137.438,-0.442708 137.625,-0.734375 C137.729,-0.890625 137.781,-1.27083 137.781,-1.875 L137.781,-8.71875 C137.781,-9.38542 137.714,-9.80208 137.578,-9.96875 C137.37,-10.1979 137.068,-10.3125 136.672,-10.3125 L136.266,-10.3125 L136.266,-10.5938 L140.156,-10.5938 C141.104,-10.5938 141.852,-10.4974 142.398,-10.3047 C142.945,-10.112 143.406,-9.78385 143.781,-9.32031 C144.156,-8.85677 144.344,-8.30729 144.344,-7.67188 C144.344,-6.80729 144.057,-6.10417 143.484,-5.5625 C142.911,-5.02083 142.104,-4.75 141.063,-4.75 C140.813,-4.75 140.539,-4.76823 140.242,-4.80469 C139.945,-4.84115 139.625,-4.89583 139.281,-4.96875 M139.281,-5.40625 C139.563,-5.35417 139.81,-5.3151 140.023,-5.28906 C140.237,-5.26302 140.417,-5.25 140.563,-5.25 C141.104,-5.25 141.573,-5.46094 141.969,-5.88281 C142.365,-6.30469 142.563,-6.84896 142.563,-7.51563 C142.563,-7.97396 142.469,-8.39844 142.281,-8.78906 C142.094,-9.17969 141.828,-9.47396 141.484,-9.67188 C141.141,-9.86979 140.75,-9.96875 140.313,-9.96875 C140.042,-9.96875 139.698,-9.91667 139.281,-9.8125 L139.281,-5.40625 M156.359,-10.5938 L156.359,-10.3125 C155.984,-10.2396 155.703,-10.1198 155.516,-9.95313 C155.234,-9.69271 154.99,-9.30208 154.781,-8.78125 L151.078,0.25 L150.797,0.25 L146.828,-8.89063 C146.62,-9.35938 146.474,-9.64583 146.391,-9.75 C146.266,-9.91667 146.107,-10.0443 145.914,-10.1328 C145.721,-10.2214 145.464,-10.2813 145.141,-10.3125 L145.141,-10.5938 L149.469,-10.5938 L149.469,-10.3125 C148.979,-10.2604 148.661,-10.1745 148.516,-10.0547 C148.37,-9.9349 148.297,-9.78125 148.297,-9.59375 C148.297,-9.33333 148.417,-8.92708 148.656,-8.375 L151.359,-2.17188 L153.859,-8.29688 C154.099,-8.90104 154.219,-9.32292 154.219,-9.5625 C154.219,-9.70833 154.143,-9.85156 153.992,-9.99219 C153.841,-10.1328 153.589,-10.2292 153.234,-10.2813 C153.203,-10.2917 153.156,-10.3021 153.094,-10.3125 L153.094,-10.5938 L156.359,-10.5938 M157.359,-10.7813 L157.359,-11.1094 C158.151,-10.724 158.813,-10.2656 159.344,-9.73438 C160.083,-8.97396 160.656,-8.08073 161.063,-7.05469 C161.469,-6.02865 161.672,-4.96354 161.672,-3.85938 C161.672,-2.24479 161.276,-0.770833 160.484,0.5625 C159.693,1.89583 158.651,2.84896 157.359,3.42188 L157.359,3.14063 C158.005,2.77604 158.534,2.28906 158.945,1.67969 C159.357,1.07031 159.664,0.291667 159.867,-0.65625 C160.07,-1.60417 160.172,-2.59375 160.172,-3.625 C160.172,-4.72917 160.083,-5.73958 159.906,-6.65625 C159.781,-7.375 159.62,-7.95052 159.422,-8.38281 C159.224,-8.8151 158.964,-9.23177 158.641,-9.63281 C158.318,-10.0339 157.891,-10.4167 157.359,-10.7813 "/>
</g>

<g fill="#212121" fill-opacity="1" stroke="#212121" stroke-opacity="1" stroke-width="1.06667" stroke-linecap="square" stroke-linejoin="round" transform="matrix(0.75,0,0,0.75,-10.8,-13.14)"
font-family="MS Shell Dlg 2" font-size="8.25" font-weight="400" font-style="normal" 
>
<polyline fill="none" vector-effect="none" points="59,295 59,25 " />
<polyline fill="none" vector-effect="none" points="411,295 411,25 " />
<polyline fill="none" vector-effect="none" points="59,295 62.52,295 " />
<polyline fill="none" vector-effect="none" points="407.48,295 411,295 " />
<polyline fill="none" vector-effect="none" points="59,241 62.52,241 " />
<polyline fill="none" vector-effect="none" points="407.48,241 411,241 " />
<polyline fill="none" vector-effect="none" points="59,187 62.52,187 " />
<polyline fill="none" vector-effect="none" points="407.48,187 411,187 " />
<polyline fill="none" vector-effect="none" points="59,133 62.52,133 " />
<polyline fill="none" vector-effect="none" points="407.48,133 411,133 " />
<polyline fill="none" vector-effect="none" points="59,79 62.52,79 " />
<polyline fill="none" vector-effect="none" points="407.48,79 411,79 " />
<polyline fill="none" vector-effect="none" points="59,25 62.52,25 " />
<polyline fill="none" vector-effect="none" points="407.48,25 411,25 " />
</g>

<g fill="#212121" fill-opacity="1" stroke="none" transform="matrix(0.75,0,0,0.75,23.75,210.75)"
font-family="MS Shell Dlg 2" font-size="8.25" font-weight="400" font-style="normal" 
>
<path vector-effect="none" fill-rule="evenodd" d="M3.5,0.3125 C2.35417,0.3125 1.57552,-0.158854 1.16406,-1.10156 C0.752604,-2.04427 0.546875,-3.16667 0.546875,-4.46875 C0.546875,-5.28125 0.619792,-6.04427 0.765625,-6.75781 C0.911458,-7.47135 1.20573,-8.07813 1.64844,-8.57813 C2.09115,-9.07813 2.70833,-9.32813 3.5,-9.32813 C4.11458,-9.32813 4.61719,-9.17708 5.00781,-8.875 C5.39844,-8.57292 5.69792,-8.1849 5.90625,-7.71094 C6.11458,-7.23698 6.25521,-6.72656 6.32813,-6.17969 C6.40104,-5.63281 6.4375,-5.0625 6.4375,-4.46875 C6.4375,-3.66667 6.36458,-2.91406 6.21875,-2.21094 C6.07292,-1.50781 5.78385,-0.911458 5.35156,-0.421875 C4.91927,0.0677083 4.30208,0.3125 3.5,0.3125 M3.5,-0.0625 C4.02083,-0.0625 4.40885,-0.328125 4.66406,-0.859375 C4.91927,-1.39063 5.07552,-1.97917 5.13281,-2.625 C5.1901,-3.27083 5.21875,-3.95833 5.21875,-4.6875 C5.21875,-5.39583 5.1901,-6.04427 5.13281,-6.63281 C5.07552,-7.22135 4.91927,-7.75781 4.66406,-8.24219 C4.40885,-8.72656 4.02083,-8.96875 3.5,-8.96875 C2.96875,-8.96875 2.57552,-8.72656 2.32031,-8.24219 C2.0651,-7.75781 1.90885,-7.22135 1.85156,-6.63281 C1.79427,-6.04427 1.76563,-5.39583 1.76563,-4.6875 C1.76563,-4.16667 1.77865,-3.67708 1.80469,-3.21875 C1.83073,-2.76042 1.89844,-2.28646 2.00781,-1.79688 C2.11719,-1.30729 2.29427,-0.895833 2.53906,-0.5625 C2.78385,-0.229167 3.10417,-0.0625 3.5,-0.0625 "/>
</g>

<g fill="#212121" fill-opacity="1" stroke="none" transform="matrix(0.75,0,0,0.75,23.75,170.25)"
font-family="MS Shell Dlg 2" font-size="8.25" font-weight="400" font-style="normal" 
>
<path vector-effect="none" fill-rule="evenodd" d="M0.703125,0 L0.703125,-0.375 C0.703125,-0.395833 0.708333,-0.421875 0.71875,-0.453125 L2.90625,-2.85938 C3.22917,-3.21354 3.49219,-3.51042 3.69531,-3.75 C3.89844,-3.98958 4.10156,-4.26823 4.30469,-4.58594 C4.50781,-4.90365 4.66667,-5.22396 4.78125,-5.54688 C4.89583,-5.86979 4.95313,-6.21354 4.95313,-6.57813 C4.95313,-6.96354 4.88281,-7.33073 4.74219,-7.67969 C4.60156,-8.02865 4.39063,-8.30729 4.10938,-8.51563 C3.82813,-8.72396 3.48958,-8.82813 3.09375,-8.82813 C2.6875,-8.82813 2.32292,-8.70573 2,-8.46094 C1.67708,-8.21615 1.44792,-7.90104 1.3125,-7.51563 C1.35417,-7.52604 1.40625,-7.53125 1.46875,-7.53125 C1.67708,-7.53125 1.85677,-7.46094 2.00781,-7.32031 C2.15885,-7.17969 2.23438,-7 2.23438,-6.78125 C2.23438,-6.5625 2.15885,-6.38021 2.00781,-6.23438 C1.85677,-6.08854 1.67708,-6.01563 1.46875,-6.01563 C1.25,-6.01563 1.06771,-6.09115 0.921875,-6.24219 C0.776042,-6.39323 0.703125,-6.57292 0.703125,-6.78125 C0.703125,-7.125 0.768229,-7.45052 0.898438,-7.75781 C1.02865,-8.0651 1.21875,-8.33854 1.46875,-8.57813 C1.71875,-8.81771 2,-9.0026 2.3125,-9.13281 C2.625,-9.26302 2.95313,-9.32813 3.29688,-9.32813 C3.83854,-9.32813 4.33854,-9.21354 4.79688,-8.98438 C5.25521,-8.75521 5.61979,-8.4349 5.89063,-8.02344 C6.16146,-7.61198 6.29688,-7.13021 6.29688,-6.57813 C6.29688,-6.17188 6.20573,-5.78646 6.02344,-5.42188 C5.84115,-5.05729 5.61198,-4.72656 5.33594,-4.42969 C5.0599,-4.13281 4.70573,-3.79427 4.27344,-3.41406 C3.84115,-3.03385 3.55729,-2.78125 3.42188,-2.65625 L1.82813,-1.14063 L3.17188,-1.14063 C3.83854,-1.14063 4.39323,-1.14583 4.83594,-1.15625 C5.27865,-1.16667 5.51563,-1.18229 5.54688,-1.20313 C5.65104,-1.31771 5.76042,-1.75 5.875,-2.5 L6.29688,-2.5 L5.89063,0 L0.703125,0"/>
</g>

<g fill="#212121" fill-opacity="1" stroke="none" transform="matrix(0.75,0,0,0.75,23.75,129.75)"
font-family="MS Shell Dlg 2" font-size="8.25" font-weight="400" font-style="normal" 
>
<path vector-effect="none" fill-rule="evenodd" d="M0.390625,-2.3125 L0.390625,-2.79688 L4.71875,-9.25 C4.75,-9.30208 4.79688,-9.32813 4.85938,-9.32813 L5.0625,-9.32813 C5.16667,-9.32813 5.21875,-9.27604 5.21875,-9.17188 L5.21875,-2.79688 L6.59375,-2.79688 L6.59375,-2.3125 L5.21875,-2.3125 L5.21875,-0.9375 C5.21875,-0.75 5.35677,-0.630208 5.63281,-0.578125 C5.90885,-0.526042 6.22396,-0.5 6.57813,-0.5 L6.57813,0 L2.73438,0 L2.73438,-0.5 C3.08854,-0.5 3.40365,-0.526042 3.67969,-0.578125 C3.95573,-0.630208 4.09375,-0.75 4.09375,-0.9375 L4.09375,-2.3125 L0.390625,-2.3125 M0.859375,-2.79688 L4.17188,-2.79688 L4.17188,-7.76563 L0.859375,-2.79688"/>
</g>

<g fill="#212121" fill-opacity="1" stroke="none" transform="matrix(0.75,0,0,0.75,23.75,89.25)"
font-family="MS Shell Dlg 2" font-size="8.25" font-weight="400" font-style="normal" 
>
<path vector-effect="none" fill-rule="evenodd" d="M3.5,0.3125 C2.91667,0.3125 2.43229,0.158854 2.04688,-0.148438 C1.66146,-0.455729 1.36198,-0.854167 1.14844,-1.34375 C0.934896,-1.83333 0.789063,-2.34896 0.710938,-2.89063 C0.632813,-3.43229 0.59375,-3.97917 0.59375,-4.53125 C0.59375,-5.27083 0.736979,-6.01042 1.02344,-6.75 C1.3099,-7.48958 1.73177,-8.10417 2.28906,-8.59375 C2.84635,-9.08333 3.50521,-9.32813 4.26563,-9.32813 C4.58854,-9.32813 4.88802,-9.26823 5.16406,-9.14844 C5.4401,-9.02865 5.65625,-8.85156 5.8125,-8.61719 C5.96875,-8.38281 6.04688,-8.09896 6.04688,-7.76563 C6.04688,-7.56771 5.98177,-7.40365 5.85156,-7.27344 C5.72135,-7.14323 5.5625,-7.07813 5.375,-7.07813 C5.1875,-7.07813 5.02865,-7.14583 4.89844,-7.28125 C4.76823,-7.41667 4.70313,-7.57813 4.70313,-7.76563 C4.70313,-7.94271 4.76823,-8.09635 4.89844,-8.22656 C5.02865,-8.35677 5.1875,-8.42188 5.375,-8.42188 L5.45313,-8.42188 C5.32813,-8.59896 5.15885,-8.72656 4.94531,-8.80469 C4.73177,-8.88281 4.50521,-8.92188 4.26563,-8.92188 C3.98438,-8.92188 3.72396,-8.85938 3.48438,-8.73438 C3.24479,-8.60938 3.03125,-8.44271 2.84375,-8.23438 C2.65625,-8.02604 2.4974,-7.79427 2.36719,-7.53906 C2.23698,-7.28385 2.13802,-6.99479 2.07031,-6.67188 C2.0026,-6.34896 1.95833,-6.04688 1.9375,-5.76563 C1.91667,-5.48438 1.90625,-5.13021 1.90625,-4.70313 C2.07292,-5.08854 2.30729,-5.40365 2.60938,-5.64844 C2.91146,-5.89323 3.25,-6.01563 3.625,-6.01563 C4.04167,-6.01563 4.41927,-5.92969 4.75781,-5.75781 C5.09635,-5.58594 5.39063,-5.35156 5.64063,-5.05469 C5.89063,-4.75781 6.08073,-4.41667 6.21094,-4.03125 C6.34115,-3.64583 6.40625,-3.26042 6.40625,-2.875 C6.40625,-2.32292 6.28385,-1.79948 6.03906,-1.30469 C5.79427,-0.809896 5.45052,-0.416667 5.00781,-0.125 C4.5651,0.166667 4.0625,0.3125 3.5,0.3125 M3.5,-0.140625 C3.86458,-0.140625 4.15625,-0.223958 4.375,-0.390625 C4.59375,-0.557292 4.7526,-0.776042 4.85156,-1.04688 C4.95052,-1.31771 5.01302,-1.58854 5.03906,-1.85938 C5.0651,-2.13021 5.07813,-2.46875 5.07813,-2.875 C5.07813,-3.39583 5.05208,-3.84375 5,-4.21875 C4.94792,-4.59375 4.8125,-4.92448 4.59375,-5.21094 C4.375,-5.4974 4.03125,-5.64063 3.5625,-5.64063 C3.1875,-5.64063 2.8776,-5.51302 2.63281,-5.25781 C2.38802,-5.0026 2.21094,-4.67969 2.10156,-4.28906 C1.99219,-3.89844 1.9375,-3.52604 1.9375,-3.17188 C1.9375,-3.04688 1.94271,-2.95313 1.95313,-2.89063 C1.95313,-2.86979 1.95052,-2.85677 1.94531,-2.85156 C1.9401,-2.84635 1.9375,-2.83333 1.9375,-2.8125 C1.9375,-2.41667 1.97917,-2.01302 2.0625,-1.60156 C2.14583,-1.1901 2.30208,-0.84375 2.53125,-0.5625 C2.76042,-0.28125 3.08333,-0.140625 3.5,-0.140625 "/>
</g>

<g fill="#212121" fill-opacity="1" stroke="none" transform="matrix(0.75,0,0,0.75,23.75,48.75)"
font-family="MS Shell Dlg 2" font-size="8.25" font-weight="400" font-style="normal" 
>
<path vector-effect="none" fill-rule="evenodd" d="M0.59375,-2.125 C0.59375,-2.6875 0.778646,-3.1849 1.14844,-3.61719 C1.51823,-4.04948 1.98958,-4.40625 2.5625,-4.6875 L2.04688,-5.03125 C1.72396,-5.23958 1.46354,-5.51823 1.26563,-5.86719 C1.06771,-6.21615 0.96875,-6.57813 0.96875,-6.95313 C0.96875,-7.40104 1.08594,-7.80469 1.32031,-8.16406 C1.55469,-8.52344 1.86719,-8.80729 2.25781,-9.01563 C2.64844,-9.22396 3.0625,-9.32813 3.5,-9.32813 C3.91667,-9.32813 4.31771,-9.24219 4.70313,-9.07031 C5.08854,-8.89844 5.40365,-8.65625 5.64844,-8.34375 C5.89323,-8.03125 6.01563,-7.66146 6.01563,-7.23438 C6.01563,-6.91146 5.94271,-6.61719 5.79688,-6.35156 C5.65104,-6.08594 5.45052,-5.84635 5.19531,-5.63281 C4.9401,-5.41927 4.66667,-5.23438 4.375,-5.07813 L5.17188,-4.5625 C5.53646,-4.32292 5.83333,-4.00781 6.0625,-3.61719 C6.29167,-3.22656 6.40625,-2.8125 6.40625,-2.375 C6.40625,-1.875 6.26823,-1.41667 5.99219,-1 C5.71615,-0.583333 5.35677,-0.260417 4.91406,-0.03125 C4.47135,0.197917 4,0.3125 3.5,0.3125 C3.02083,0.3125 2.55469,0.213542 2.10156,0.015625 C1.64844,-0.182292 1.28385,-0.466146 1.00781,-0.835938 C0.731771,-1.20573 0.59375,-1.63542 0.59375,-2.125 M1.34375,-2.125 C1.34375,-1.76042 1.44531,-1.42448 1.64844,-1.11719 C1.85156,-0.809896 2.11979,-0.570313 2.45313,-0.398438 C2.78646,-0.226563 3.13542,-0.140625 3.5,-0.140625 C4.04167,-0.140625 4.53385,-0.299479 4.97656,-0.617188 C5.41927,-0.934896 5.64063,-1.35417 5.64063,-1.875 C5.64063,-2.05208 5.60417,-2.22917 5.53125,-2.40625 C5.45833,-2.58333 5.35938,-2.74219 5.23438,-2.88281 C5.10938,-3.02344 4.96875,-3.14063 4.8125,-3.23438 L2.9375,-4.45313 C2.64583,-4.29688 2.3776,-4.10156 2.13281,-3.86719 C1.88802,-3.63281 1.69531,-3.36719 1.55469,-3.07031 C1.41406,-2.77344 1.34375,-2.45833 1.34375,-2.125 M2.3125,-6.40625 L4,-5.3125 C4.39583,-5.54167 4.71875,-5.81771 4.96875,-6.14063 C5.21875,-6.46354 5.34375,-6.82813 5.34375,-7.23438 C5.34375,-7.54688 5.25521,-7.83333 5.07813,-8.09375 C4.90104,-8.35417 4.67188,-8.55729 4.39063,-8.70313 C4.10938,-8.84896 3.80729,-8.92188 3.48438,-8.92188 C3.20313,-8.92188 2.91927,-8.86719 2.63281,-8.75781 C2.34635,-8.64844 2.10938,-8.48438 1.92188,-8.26563 C1.73438,-8.04688 1.64063,-7.79167 1.64063,-7.5 C1.64063,-7.0625 1.86458,-6.69792 2.3125,-6.40625 "/>
</g>

<g fill="#212121" fill-opacity="1" stroke="none" transform="matrix(0.75,0,0,0.75,18.25,8.25)"
font-family="MS Shell Dlg 2" font-size="8.25" font-weight="400" font-style="normal" 
>
<path vector-effect="none" fill-rule="evenodd" d="M1.29688,0 L1.29688,-0.5 C2.46354,-0.5 3.04688,-0.645833 3.04688,-0.9375 L3.04688,-8.28125 C2.56771,-8.05208 1.95833,-7.9375 1.21875,-7.9375 L1.21875,-8.42188 C2.36458,-8.42188 3.22917,-8.72396 3.8125,-9.32813 L4,-9.32813 C4.03125,-9.32813 4.0625,-9.3151 4.09375,-9.28906 C4.125,-9.26302 4.14063,-9.23438 4.14063,-9.20313 L4.14063,-0.9375 C4.14063,-0.645833 4.72396,-0.5 5.89063,-0.5 L5.89063,0 L1.29688,0"/>
</g>

<g fill="#212121" fill-opacity="1" stroke="none" transform="matrix(0.75,0,0,0.75,23.75,8.25)"
font-family="MS Shell Dlg 2" font-size="8.25" font-weight="400" font-style="normal" 
>
<path vector-effect="none" fill-rule="evenodd" d="M3.5,0.3125 C2.35417,0.3125 1.57552,-0.158854 1.16406,-1.10156 C0.752604,-2.04427 0.546875,-3.16667 0.546875,-4.46875 C0.546875,-5.28125 0.619792,-6.04427 0.765625,-6.75781 C0.911458,-7.47135 1.20573,-8.07813 1.64844,-8.57813 C2.09115,-9.07813 2.70833,-9.32813 3.5,-9.32813 C4.11458,-9.32813 4.61719,-9.17708 5.00781,-8.875 C5.39844,-8.57292 5.69792,-8.1849 5.90625,-7.71094 C6.11458,-7.23698 6.25521,-6.72656 6.32813,-6.17969 C6.40104,-5.63281 6.4375,-5.0625 6.4375,-4.46875 C6.4375,-3.66667 6.36458,-2.91406 6.21875,-2.21094 C6.07292,-1.50781 5.78385,-0.911458 5.35156,-0.421875 C4.91927,0.0677083 4.30208,0.3125 3.5,0.3125 M3.5,-0.0625 C4.02083,-0.0625 4.40885,-0.328125 4.66406,-0.859375 C4.91927,-1.39063 5.07552,-1.97917 5.13281,-2.625 C5.1901,-3.27083 5.21875,-3.95833 5.21875,-4.6875 C5.21875,-5.39583 5.1901,-6.04427 5.13281,-6.63281 C5.07552,-7.22135 4.91927,-7.75781 4.66406,-8.24219 C4.40885,-8.72656 4.02083,-8.96875 3.5,-8.96875 C2.96875,-8.96875 2.57552,-8.72656 2.32031,-8.24219 C2.0651,-7.75781 1.90885,-7.22135 1.85156,-6.63281 C1.79427,-6.04427 1.76563,-5.39583 1.76563,-4.6875 C1.76563,-4.16667 1.77865,-3.67708 1.80469,-3.21875 C1.83073,-2.76042 1.89844,-2.28646 2.00781,-1.79688 C2.11719,-1.30729 2.29427,-0.895833 2.53906,-0.5625 C2.78385,-0.229167 3.10417,-0.0625 3.5,-0.0625 "/>
</g>

<g fill="none" stroke="#000000" stroke-opacity="1" stroke-dasharray="10,6" stroke-dashoffset="0" stroke-width="1.6" stroke-linecap="butt" stroke-linejoin="round" transform="matrix(0.75,0,0,0.75,-10.8,-13.14)"
font-family="MS Shell Dlg 2" font-size="8.25" font-weight="400" font-style="normal" 
>
<polyline fill="none" vector-effect="none" points="59.0352,214.199 60.1968,214.198 61.3936,214.197 62.5552,214.195 63.752,214.194 64.9136,214.191 66.1104,214.189 67.272,214.187 68.4688,214.184 69.6304,214.179 70.792,214.174 71.9888,214.17 73.1504,214.162 74.3472,214.155 75.5088,214.149 76.7056,214.144 77.8672,214.135 79.064,214.126 80.2256,214.116 81.3872,214.109 82.584,214.099 83.7456,214.095 84.9424,214.07 86.104,214.062 87.3008,214.052 88.4624,214.048 89.624,214.03 90.8208,214.025 91.9824,214.009 93.1792,213.998 94.3408,213.971 95.5376,213.954 96.6992,213.936 97.896,213.93 99.0576,213.918 100.219,213.893 101.416,213.878 102.578,213.858 103.774,213.844 104.936,213.817 106.133,213.815 107.294,213.778 108.491,213.74 109.653,213.738 110.814,213.722 112.011,213.699 113.173,213.689 114.37,213.656 115.531,213.639 116.728,213.593 117.89,213.575 119.086,213.554 120.248,213.527 121.41,213.496 122.606,213.468 123.768,213.446 124.965,213.406 126.126,213.404 127.323,213.372 128.485,213.341 129.646,213.319 130.843,213.284 132.005,213.251 133.202,213.238 134.363,213.169 135.56,213.13 136.722,213.096 137.918,213.071 139.08,213.043 140.242,212.994 141.438,212.981 142.6,212.941 143.797,212.915 144.958,212.901 146.155,212.874 147.317,212.819 148.514,212.749 149.675,212.706 150.837,212.662 152.034,212.645 153.195,212.603 154.392,212.557 155.554,212.524 156.75,212.481 157.912,212.45 159.109,212.415 160.27,212.338 161.432,212.319 162.629,212.273 163.79,212.254 164.987,212.221 166.149,212.17 167.346,212.085 168.507,212.033 169.669,212.019 170.866,211.966 172.027,211.931 173.224,211.859 174.386,211.819 175.582,211.749 176.744,211.652 177.941,211.633 179.102,211.595 180.264,211.541 181.461,211.521 182.622,211.482 183.819,211.44 184.981,211.364 186.178,211.304 187.339,211.243 188.536,211.223 189.698,211.12 190.859,211.095 192.056,210.99 193.218,210.951 194.414,210.909 195.576,210.84 196.773,210.757 197.934,210.735 199.131,210.709 200.293,210.664 201.454,210.597 202.651,210.511 203.813,210.396 205.01,210.369 206.171,210.303 207.368,210.252 208.53,210.229 209.726,210.158 210.888,210.09 212.05,210.014 213.246,209.945 214.408,209.867 215.605,209.797 216.766,209.672 217.963,209.642 219.125,209.617 220.286,209.52 221.483,209.468 222.645,209.412 223.842,209.36 225.003,209.282 226.2,209.255 227.362,209.176 228.558,209.096 229.72,208.993 230.882,208.885 232.078,208.803 233.24,208.748 234.437,208.687 235.598,208.608 236.795,208.519 237.957,208.434 239.154,208.354 240.315,208.291 241.477,208.239 242.674,208.181 243.835,208.117 245.032,208.035 246.194,207.941 247.39,207.882 248.552,207.762 249.749,207.677 250.91,207.58 252.072,207.489 253.269,207.433 254.43,207.371 255.627,207.278 256.789,207.215 257.986,207.084 259.147,207.021 260.309,206.925 261.506,206.829 262.667,206.738 263.864,206.641 265.026,206.603 266.222,206.576 267.384,206.439 268.581,206.339 269.742,206.245 270.904,206.173 272.101,206.105 273.262,206.01 274.459,205.936 275.621,205.805 276.818,205.668 277.979,205.598 279.176,205.424 280.338,205.383 281.499,205.277 282.696,205.212 283.858,205.17 285.054,205.07 286.216,204.998 287.413,204.92 288.574,204.775 289.771,204.666 290.933,204.562 292.094,204.519 293.291,204.377 294.453,204.297 295.65,204.191 296.811,204.003 298.008,203.958 299.17,203.775 300.366,203.737 301.528,203.66 302.69,203.615 303.886,203.389 305.048,203.226 306.245,203.187 307.406,203.036 308.603,202.917 309.765,202.797 310.926,202.637 312.123,202.589 313.285,202.475 314.482,202.346 315.643,202.231 316.84,202.1 318.002,201.935 319.198,201.818 320.36,201.692 321.522,201.609 322.718,201.433 323.88,201.22 325.077,201.142 326.238,200.971 327.435,200.927 328.597,200.798 329.794,200.667 330.955,200.449 332.117,200.361 333.314,200.184 334.475,199.998 335.672,199.872 336.834,199.782 338.03,199.594 339.192,199.466 340.389,199.329 341.55,199.184 342.712,198.962 343.909,198.908 345.07,198.73 346.267,198.535 347.429,198.355 348.626,198.205 349.787,198.063 350.949,197.824 352.146,197.728 353.307,197.544 354.504,197.447 355.666,197.293 356.862,197.057 358.024,196.91 359.221,196.663 360.382,196.564 361.544,196.455 362.741,196.214 363.902,196.004 365.099,195.546 366.261,195.238 367.458,194.299 368.619,193.874 369.816,193.391 370.978,192.848 372.139,191.907 373.336,191.402 374.498,191.004 375.694,189.85 376.856,189.321 378.053,188.548 379.214,187.334 380.411,186.717 381.573,185.841 382.734,184.502 383.931,183.984 385.093,182.934 386.29,181.731 387.451,181.053 388.648,179.046 389.81,178.412 390.971,176.837 392.168,175.523 393.33,173.811 394.526,172.598 395.688,170.119 396.885,169.091 398.046,166.183 399.243,164.778 400.405,162.25 401.566,159.833 402.763,157.183 403.925,154.011 405.122,149.997 406.283,145.755 407.48,141.277 408.642,135.925 409.838,126.325 411,109.375 " />
</g>

<g fill="none" stroke="#000000" stroke-opacity="1" stroke-width="1.6" stroke-linecap="butt" stroke-linejoin="round" transform="matrix(0.75,0,0,0.75,-10.8,-13.14)"
font-family="MS Shell Dlg 2" font-size="8.25" font-weight="400" font-style="normal" 
>
<polyline fill="none" vector-effect="none" points="59.0352,228.234 60.1968,228.233 61.3936,228.232 62.5552,228.231 63.752,228.23 64.9136,228.229 66.1104,228.225 67.272,228.222 68.4688,228.217 69.6304,228.215 70.792,228.21 71.9888,228.203 73.1504,228.198 74.3472,228.193 75.5088,228.186 76.7056,228.179 77.8672,228.173 79.064,228.17 80.2256,228.161 81.3872,228.147 82.584,228.137 83.7456,228.118 84.9424,228.111 86.104,228.106 87.3008,228.099 88.4624,228.093 89.624,228.08 90.8208,228.061 91.9824,228.048 93.1792,228.027 94.3408,228.015 95.5376,227.998 96.6992,227.981 97.896,227.977 99.0576,227.971 100.219,227.945 101.416,227.933 102.578,227.902 103.774,227.888 104.936,227.873 106.133,227.844 107.294,227.832 108.491,227.817 109.653,227.792 110.814,227.771 112.011,227.739 113.173,227.728 114.37,227.711 115.531,227.689 116.728,227.671 117.89,227.636 119.086,227.606 120.248,227.59 121.41,227.553 122.606,227.524 123.768,227.511 124.965,227.494 126.126,227.464 127.323,227.45 128.485,227.412 129.646,227.366 130.843,227.337 132.005,227.322 133.202,227.3 134.363,227.255 135.56,227.224 136.722,227.185 137.918,227.164 139.08,227.124 140.242,227.104 141.438,227.066 142.6,227.05 143.797,226.999 144.958,226.973 146.155,226.938 147.317,226.898 148.514,226.853 149.675,226.798 150.837,226.77 152.034,226.732 153.195,226.728 154.392,226.689 155.554,226.631 156.75,226.597 157.912,226.567 159.109,226.527 160.27,226.465 161.432,226.43 162.629,226.367 163.79,226.351 164.987,226.303 166.149,226.271 167.346,226.222 168.507,226.177 169.669,226.127 170.866,226.076 172.027,226.054 173.224,226.002 174.386,225.938 175.582,225.902 176.744,225.861 177.941,225.807 179.102,225.759 180.264,225.679 181.461,225.648 182.622,225.592 183.819,225.567 184.981,225.535 186.178,225.471 187.339,225.419 188.536,225.38 189.698,225.275 190.859,225.241 192.056,225.215 193.218,225.12 194.414,225.058 195.576,225.017 196.773,224.969 197.934,224.933 199.131,224.863 200.293,224.827 201.454,224.669 202.651,224.558 203.813,224.469 205.01,224.31 206.171,224.194 207.368,224.124 208.53,223.982 209.726,223.837 210.888,223.714 212.05,223.515 213.246,223.388 214.408,223.286 215.605,223.208 216.766,223.077 217.963,222.891 219.125,222.729 220.286,222.537 221.483,222.426 222.645,222.257 223.842,222.172 225.003,222.028 226.2,221.824 227.362,221.736 228.558,221.527 229.72,221.376 230.882,221.069 232.078,221.007 233.24,220.913 234.437,220.787 235.598,220.596 236.795,220.338 237.957,220.207 239.154,219.942 240.315,219.808 241.477,219.706 242.674,219.536 243.835,219.295 245.032,219.086 246.194,218.91 247.39,218.66 248.552,218.48 249.749,218.371 250.91,218.151 252.072,218.003 253.269,217.817 254.43,217.591 255.627,217.325 256.789,217.016 257.986,216.9 259.147,216.664 260.309,216.546 261.506,216.386 262.667,216.146 263.864,215.821 265.026,215.657 266.222,215.326 267.384,215.201 268.581,214.948 269.742,214.779 270.904,214.608 272.101,214.307 273.262,214.133 274.459,213.871 275.621,213.517 276.818,213.114 277.979,213.069 279.176,212.933 280.338,212.797 281.499,212.43 282.696,212.152 283.858,211.872 285.054,211.542 286.216,211.352 287.413,211.017 288.574,210.92 289.771,210.727 290.933,210.287 292.094,210.09 293.291,209.991 294.453,209.543 295.65,209.241 296.811,209.089 298.008,208.732 299.17,208.424 300.366,208.217 301.528,208.009 302.69,207.8 303.886,207.272 305.048,207.059 306.245,206.738 307.406,206.36 308.603,206.197 309.765,205.924 310.926,205.759 312.123,205.428 313.285,205.206 314.482,204.702 315.643,204.533 316.84,204.25 318.002,203.794 319.198,203.506 320.36,203.217 321.522,202.985 322.718,202.693 323.88,202.281 325.077,202.103 326.238,201.806 327.435,201.267 328.597,200.904 329.794,200.6 330.955,200.478 332.117,200.172 333.314,199.802 334.475,199.43 335.672,199.243 336.834,198.804 338.03,198.235 339.192,198.044 340.389,197.789 341.55,197.146 342.712,196.561 343.909,196.168 345.07,195.971 346.267,195.176 347.429,194.842 348.626,194.168 349.787,193.625 350.949,193.351 352.146,192.732 353.307,192.038 354.504,191.407 355.666,191.055 356.862,190.344 358.024,189.771 359.221,188.685 360.382,188.246 361.544,187.878 362.741,186.841 363.902,185.94 365.099,185.259 366.261,184.802 367.458,183.415 368.619,182.792 369.816,182.086 370.978,181.295 372.139,179.934 373.336,179.206 374.498,178.636 375.694,176.99 376.856,176.24 378.053,175.147 379.214,173.444 380.411,172.582 381.573,171.365 382.734,169.513 383.931,168.8 385.093,167.361 386.29,165.722 387.451,164.802 388.648,162.095 389.81,161.244 390.971,159.139 392.168,157.394 393.33,155.131 394.526,153.536 395.688,150.295 396.885,148.958 398.046,145.198 399.243,143.392 400.405,140.157 401.566,137.083 402.763,133.732 403.925,129.745 405.122,124.735 406.283,119.479 407.48,113.969 408.642,107.432 409.838,95.823 411,75.625 " />
</g>

<g fill="none" stroke="#000000" stroke-opacity="1" stroke-dasharray="8,3,2,3" stroke-dashoffset="0" stroke-width="1.6" stroke-linecap="butt" stroke-linejoin="round" transform="matrix(0.75,0,0,0.75,-10.8,-13.14)"
font-family="MS Shell Dlg 2" font-size="8.25" font-weight="400" font-style="normal" 
>
<polyline fill="none" vector-effect="none" points="59.0352,237.392 60.1968,237.392 61.3936,237.391 62.5552,237.39 63.752,237.389 64.9136,237.387 66.1104,237.382 67.272,237.381 68.4688,237.376 69.6304,237.373 70.792,237.367 71.9888,237.362 73.1504,237.354 74.3472,237.348 75.5088,237.345 76.7056,237.34 77.8672,237.331 79.064,237.319 80.2256,237.311 81.3872,237.302 82.584,237.293 83.7456,237.282 84.9424,237.276 86.104,237.259 87.3008,237.253 88.4624,237.237 89.624,237.225 90.8208,237.212 91.9824,237.2 93.1792,237.184 94.3408,237.17 95.5376,237.15 96.6992,237.129 97.896,237.111 99.0576,237.065 100.219,237.031 101.416,236.994 102.578,236.956 103.774,236.924 104.936,236.84 106.133,236.831 107.294,236.786 108.491,236.7 109.653,236.64 110.814,236.609 112.011,236.566 113.173,236.489 114.37,236.409 115.531,236.362 116.728,236.325 117.89,236.225 119.086,236.148 120.248,236.108 121.41,236.04 122.606,235.942 123.768,235.899 124.965,235.796 126.126,235.72 127.323,235.643 128.485,235.58 129.646,235.434 130.843,235.35 132.005,235.282 133.202,235.196 134.363,235.071 135.56,234.999 136.722,234.888 137.918,234.831 139.08,234.716 140.242,234.619 141.438,234.479 142.6,234.357 143.797,234.316 144.958,234.169 146.155,234.062 147.317,233.909 148.514,233.776 149.675,233.753 150.837,233.547 152.034,233.454 153.195,233.36 154.392,233.143 155.554,233.07 156.75,232.921 157.912,232.846 159.109,232.693 160.27,232.434 161.432,232.381 162.629,232.248 163.79,232.167 164.987,231.921 166.149,231.81 167.346,231.641 168.507,231.469 169.669,231.383 170.866,231.178 172.027,231.06 173.224,230.91 174.386,230.637 175.582,230.482 176.744,230.42 177.941,230.294 179.102,230.104 180.264,229.847 181.461,229.65 182.622,229.518 183.819,229.352 184.981,229.149 186.178,229.013 187.339,228.876 188.536,228.632 189.698,228.315 190.859,228.207 192.056,228.064 193.218,227.882 194.414,227.736 195.576,227.514 196.773,227.177 197.934,226.987 199.131,226.872 200.293,226.719 201.454,226.407 202.651,226.211 203.813,226.052 205.01,225.772 206.171,225.569 207.368,225.447 208.53,225.201 209.726,224.952 210.888,224.742 212.05,224.404 213.246,224.19 214.408,224.017 215.605,223.887 216.766,223.669 217.963,223.361 219.125,223.094 220.286,222.78 221.483,222.598 222.645,222.324 223.842,222.186 225.003,221.955 226.2,221.628 227.362,221.487 228.558,221.155 229.72,220.916 230.882,220.433 232.078,220.335 233.24,220.189 234.437,219.992 235.598,219.695 236.795,219.295 237.957,219.093 239.154,218.686 240.315,218.481 241.477,218.327 242.674,218.068 243.835,217.702 245.032,217.386 246.194,217.121 247.39,216.747 248.552,216.477 249.749,216.315 250.91,215.988 252.072,215.769 253.269,215.493 254.43,215.16 255.627,214.768 256.789,214.316 257.986,214.145 259.147,213.802 260.309,213.629 261.506,213.398 262.667,213.05 263.864,212.581 265.026,212.345 266.222,211.869 267.384,211.69 268.581,211.329 269.742,211.087 270.904,210.844 272.101,210.416 273.262,210.17 274.459,209.798 275.621,209.299 276.818,208.733 277.979,208.669 279.176,208.479 280.338,208.288 281.499,207.776 282.696,207.388 283.858,206.999 285.054,206.541 286.216,206.278 287.413,205.814 288.574,205.681 289.771,205.414 290.933,204.81 292.094,204.54 293.291,204.404 294.453,203.79 295.65,203.378 296.811,203.17 298.008,202.685 299.17,202.266 300.366,201.985 301.528,201.703 302.69,201.42 303.886,200.707 305.048,200.42 306.245,199.988 307.406,199.48 308.603,199.261 309.765,198.896 310.926,198.675 312.123,198.233 313.285,197.936 314.482,197.265 315.643,197.04 316.84,196.664 318.002,196.058 319.198,195.677 320.36,195.295 321.522,194.987 322.718,194.601 323.88,194.058 325.077,193.825 326.238,193.434 327.435,192.726 328.597,192.25 329.794,191.852 330.955,191.693 332.117,191.292 333.314,190.809 334.475,190.324 335.672,190.08 336.834,189.51 338.03,188.77 339.192,188.523 340.389,188.192 341.55,187.359 342.712,186.604 343.909,186.097 345.07,185.843 346.267,184.819 347.429,184.39 348.626,183.526 349.787,182.829 350.949,182.48 352.146,181.688 353.307,180.803 354.504,180 355.666,179.551 356.862,178.648 358.024,177.921 359.221,176.546 360.382,175.992 361.544,175.528 362.741,174.219 363.902,173.087 365.099,172.231 366.261,171.657 367.458,169.92 368.619,169.141 369.816,168.26 370.978,167.273 372.139,165.58 373.336,164.676 374.498,163.969 375.694,161.929 376.856,161.002 378.053,159.653 379.214,157.554 380.411,156.495 381.573,154.999 382.734,152.731 383.931,151.858 385.093,150.1 386.29,148.101 387.451,146.98 388.648,143.691 389.81,142.659 390.971,140.111 392.168,138.001 393.33,135.272 394.526,133.351 395.688,129.457 396.885,127.855 398.046,123.356 399.243,121.2 400.405,117.345 401.566,113.692 402.763,109.716 403.925,104.998 405.122,99.085 406.283,92.9005 407.48,86.4356 408.642,78.7887 409.838,65.2626 411,41.875 " />
</g>

<g fill="#ffffff" fill-opacity="1" stroke="none" transform="matrix(7.5e-05,0,0,7.5e-05,-10.8,-13.14)"
font-family="MS Shell Dlg 2" font-size="8.25" font-weight="400" font-style="normal" 
>
<path vector-effect="none" fill-rule="evenodd" d="M1.61e+06,360000 L1.61e+06,890000 L4e+06,890000 L4e+06,360000 L1.61e+06,360000"/>
</g>

<g fill="#000000" fill-opacity="1" stroke="#000000" stroke-opacity="1" stroke-dasharray="10,6" stroke-dashoffset="0" stroke-width="1.6" stroke-linecap="butt" stroke-linejoin="round" transform="matrix(0.75,0,0,0.75,-10.8,-13.14)"
font-family="MS Shell Dlg 2" font-size="8.25" font-weight="400" font-style="normal" 
>
<polyline fill="none" vector-effect="none" points="165,46 205,46 " />
</g>

<g fill="#000000" fill-opacity="1" stroke="#000000" stroke-opacity="1" stroke-width="1.6" stroke-linecap="butt" stroke-linejoin="round" transform="matrix(0.75,0,0,0.75,-10.8,-13.14)"
font-family="MS Shell Dlg 2" font-size="8.25" font-weight="400" font-style="normal" 
>
<polyline fill="none" vector-effect="none" points="165,62.5 205,62.5 " />
</g>

<g fill="#000000" fill-opacity="1" stroke="#000000" stroke-opacity="1" stroke-dasharray="8,3,2,3" stroke-dashoffset="0" stroke-width="1.6" stroke-linecap="butt" stroke-linejoin="round" transform="matrix(0.75,0,0,0.75,-10.8,-13.14)"
font-family="MS Shell Dlg 2" font-size="8.25" font-weight="400" font-style="normal" 
>
<polyline fill="none" vector-effect="none" points="165,79 205,79 " />
</g>

<g fill="none" stroke="#212121" stroke-opacity="1" stroke-width="1.06667" stroke-linecap="butt" stroke-linejoin="miter" stroke-miterlimit="2" transform="matrix(0.75,0,0,0.75,-10.8,-13.14)"
font-family="MS Shell Dlg 2" font-size="8.25" font-weight="400" font-style="normal" 
>
<path vector-effect="none" fill-rule="evenodd" d="M161,89 L161,36 L400,36 L400,89 L161,89"/>
</g>
</g>
</svg>
