<?xml version="1.0" encoding="UTF-8" standalone="no"?>
<svg width="178.506mm" height="67.3806mm"
 viewBox="0 0 506 191"
 xmlns="http://www.w3.org/2000/svg" xmlns:xlink="http://www.w3.org/1999/xlink"  version="1.2" baseProfile="tiny">
<title>Qt SVG Document</title>
<desc>MATLAB, The MathWorks, Inc. Version 25.2.0.3055257 R2025b Update 2</desc>
<defs>
</defs>
<g fill="none" stroke="black" stroke-width="1" fill-rule="evenodd" stroke-linecap="square" stroke-linejoin="bevel" >

<g fill="#ffffff" fill-opacity="1" stroke="none" transform="matrix(0.75,0,0,0.75,-22.8,-15.35)"
font-family="MS Shell Dlg 2" font-size="8.25" font-weight="400" font-style="normal" 
>
<path vector-effect="none" fill-rule="evenodd" d="M29,19 L705,19 L705,275 L29,275 L29,19"/>
</g>

<g fill="#ffffff" fill-opacity="1" stroke="none" transform="matrix(7.5e-05,0,0,7.5e-05,-22.8,-15.35)"
font-family="MS Shell Dlg 2" font-size="8.25" font-weight="400" font-style="normal" 
>
<path vector-effect="none" fill-rule="evenodd" d="M770000,230000 L770000,2.69e+06 L5.35e+06,2.69e+06 L5.35e+06,230000 L770000,230000"/>
</g>

<g fill="#212121" fill-opacity="0.25098" stroke="#212121" stroke-opacity="0.25098" stroke-dasharray="1,3" stroke-dashoffset="0" stroke-width="1.06667" stroke-linecap="butt" stroke-linejoin="round" transform="matrix(0.75,0,0,0.75,-22.8,-15.35)"
font-family="MS Shell Dlg 2" font-size="8.25" font-weight="400" font-style="normal" 
>
<polyline fill="none" vector-effect="none" points="109.089,23 109.089,269 " />
<polyline fill="none" vector-effect="none" points="174.726,23 174.726,269 " />
<polyline fill="none" vector-effect="none" points="240.363,23 240.363,269 " />
<polyline fill="none" vector-effect="none" points="306,23 306,269 " />
<polyline fill="none" vector-effect="none" points="371.637,23 371.637,269 " />
<polyline fill="none" vector-effect="none" points="437.274,23 437.274,269 " />
<polyline fill="none" vector-effect="none" points="502.911,23 502.911,269 " />
<polyline fill="none" vector-effect="none" points="77,269 535,269 " />
<polyline fill="none" vector-effect="none" points="77,191.759 535,191.759 " />
<polyline fill="none" vector-effect="none" points="77,114.517 535,114.517 " />
<polyline fill="none" vector-effect="none" points="77,37.2757 535,37.2757 " />
</g>

<g fill="#212121" fill-opacity="1" stroke="#212121" stroke-opacity="1" stroke-width="0.666667" stroke-linecap="butt" stroke-linejoin="round" transform="matrix(0.75,0,0,0.75,-22.8,-15.35)"
font-family="MS Shell Dlg 2" font-size="8.25" font-weight="400" font-style="normal" 
>
<polyline fill="none" vector-effect="none" points="77,191.759 535,191.759 " />
</g>

<g fill="#000000" fill-opacity="1" stroke="none" transform="matrix(7.5e-05,0,0,7.5e-05,-22.8,-15.35)"
font-family="MS Shell Dlg 2" font-size="8.25" font-weight="400" font-style="normal" 
>
<path vector-effect="none" fill-rule="evenodd" d="M886687,1.2627e+06 L886687,1.91759e+06 L1.00338e+06,1.91759e+06 L1.00338e+06,1.2627e+06 L886687,1.2627e+06"/>
</g>

<g fill="#000000" fill-opacity="1" stroke="none" transform="matrix(7.5e-05,0,0,7.5e-05,-22.8,-15.35)"
font-family="MS Shell Dlg 2" font-size="8.25" font-weight="400" font-style="normal" 
>
<path vector-effect="none" fill-rule="evenodd" d="M1.54306e+06,236540 L1.54306e+06,1.91759e+06 L1.65975e+06,1.91759e+06 L1.65975e+06,236540 L1.54306e+06,236540"/>
</g>

<g fill="#000000" fill-opacity="1" stroke="none" transform="matrix(7.5e-05,0,0,7.5e-05,-22.8,-15.35)"
font-family="MS Shell Dlg 2" font-size="8.25" font-weight="400" font-style="normal" 
>
<path vector-effect="none" fill-rule="evenodd" d="M2.19943e+06,1.91759e+06 L2.19943e+06,2.24865e+06 L2.31611e+06,2.24865e+06 L2.31611e+06,1.91759e+06 L2.19943e+06,1.91759e+06"/>
</g>

<g fill="#000000" fill-opacity="1" stroke="none" transform="matrix(7.5e-05,0,0,7.5e-05,-22.8,-15.35)"
font-family="MS Shell Dlg 2" font-size="8.25" font-weight="400" font-style="normal" 
>
<path vector-effect="none" fill-rule="evenodd" d="M2.8558e+06,1.86705e+06 L2.8558e+06,1.91759e+06 L2.97248e+06,1.91759e+06 L2.97248e+06,1.86705e+06 L2.8558e+06,1.86705e+06"/>
</g>

<g fill="#000000" fill-opacity="1" stroke="none" transform="matrix(7.5e-05,0,0,7.5e-05,-22.8,-15.35)"
font-family="MS Shell Dlg 2" font-size="8.25" font-weight="400" font-style="normal" 
>
<path vector-effect="none" fill-rule="evenodd" d="M3.51217e+06,1.91759e+06 L3.51217e+06,1.91879e+06 L3.62885e+06,1.91879e+06 L3.62885e+06,1.91759e+06 L3.51217e+06,1.91759e+06"/>
</g>

<g fill="#000000" fill-opacity="1" stroke="none" transform="matrix(7.5e-05,0,0,7.5e-05,-22.8,-15.35)"
font-family="MS Shell Dlg 2" font-size="8.25" font-weight="400" font-style="normal" 
>
<path vector-effect="none" fill-rule="evenodd" d="M4.16854e+06,1.91759e+06 L4.16854e+06,1.92325e+06 L4.28522e+06,1.92325e+06 L4.28522e+06,1.91759e+06 L4.16854e+06,1.91759e+06"/>
</g>

<g fill="#000000" fill-opacity="1" stroke="none" transform="matrix(7.5e-05,0,0,7.5e-05,-22.8,-15.35)"
font-family="MS Shell Dlg 2" font-size="8.25" font-weight="400" font-style="normal" 
>
<path vector-effect="none" fill-rule="evenodd" d="M4.8249e+06,1.91759e+06 L4.8249e+06,1.92676e+06 L4.94159e+06,1.92676e+06 L4.94159e+06,1.91759e+06 L4.8249e+06,1.91759e+06"/>
</g>

<g fill="none" stroke="#212121" stroke-opacity="1" stroke-width="0.666667" stroke-linecap="butt" stroke-linejoin="miter" stroke-miterlimit="2" transform="matrix(0.75,0,0,0.75,-22.8,-15.35)"
font-family="MS Shell Dlg 2" font-size="8.25" font-weight="400" font-style="normal" 
>
<path vector-effect="none" fill-rule="evenodd" d="M88.6688,191.759 L88.6688,126.27 L100.338,126.27 L100.338,191.759 L88.6688,191.759"/>
<path vector-effect="none" fill-rule="evenodd" d="M154.306,191.759 L154.306,23.654 L165.975,23.654 L165.975,191.759 L154.306,191.759"/>
<path vector-effect="none" fill-rule="evenodd" d="M219.943,191.759 L219.943,224.865 L231.611,224.865 L231.611,191.759 L219.943,191.759"/>
<path vector-effect="none" fill-rule="evenodd" d="M285.58,191.759 L285.58,186.705 L297.248,186.705 L297.248,191.759 L285.58,191.759"/>
<path vector-effect="none" fill-rule="evenodd" d="M351.217,191.759 L351.217,191.879 L362.885,191.879 L362.885,191.759 L351.217,191.759"/>
<path vector-effect="none" fill-rule="evenodd" d="M416.854,191.759 L416.854,192.325 L428.522,192.325 L428.522,191.759 L416.854,191.759"/>
<path vector-effect="none" fill-rule="evenodd" d="M482.49,191.759 L482.49,192.676 L494.159,192.676 L494.159,191.759 L482.49,191.759"/>
</g>

<g fill="#808080" fill-opacity="1" stroke="none" transform="matrix(7.5e-05,0,0,7.5e-05,-22.8,-15.35)"
font-family="MS Shell Dlg 2" font-size="8.25" font-weight="400" font-style="normal" 
>
<path vector-effect="none" fill-rule="evenodd" d="M1.03255e+06,1.26552e+06 L1.03255e+06,1.91759e+06 L1.14924e+06,1.91759e+06 L1.14924e+06,1.26552e+06 L1.03255e+06,1.26552e+06"/>
</g>

<g fill="#808080" fill-opacity="1" stroke="none" transform="matrix(7.5e-05,0,0,7.5e-05,-22.8,-15.35)"
font-family="MS Shell Dlg 2" font-size="8.25" font-weight="400" font-style="normal" 
>
<path vector-effect="none" fill-rule="evenodd" d="M1.68892e+06,231688 L1.68892e+06,1.91759e+06 L1.80561e+06,1.91759e+06 L1.80561e+06,231688 L1.68892e+06,231688"/>
</g>

<g fill="#808080" fill-opacity="1" stroke="none" transform="matrix(7.5e-05,0,0,7.5e-05,-22.8,-15.35)"
font-family="MS Shell Dlg 2" font-size="8.25" font-weight="400" font-style="normal" 
>
<path vector-effect="none" fill-rule="evenodd" d="M2.34529e+06,1.91759e+06 L2.34529e+06,2.26958e+06 L2.46197e+06,2.26958e+06 L2.46197e+06,1.91759e+06 L2.34529e+06,1.91759e+06"/>
</g>

<g fill="#808080" fill-opacity="1" stroke="none" transform="matrix(7.5e-05,0,0,7.5e-05,-22.8,-15.35)"
font-family="MS Shell Dlg 2" font-size="8.25" font-weight="400" font-style="normal" 
>
<path vector-effect="none" fill-rule="evenodd" d="M3.00166e+06,1.88921e+06 L3.00166e+06,1.91759e+06 L3.11834e+06,1.91759e+06 L3.11834e+06,1.88921e+06 L3.00166e+06,1.88921e+06"/>
</g>

<g fill="#808080" fill-opacity="1" stroke="none" transform="matrix(7.5e-05,0,0,7.5e-05,-22.8,-15.35)"
font-family="MS Shell Dlg 2" font-size="8.25" font-weight="400" font-style="normal" 
>
<path vector-effect="none" fill-rule="evenodd" d="M3.65803e+06,1.91759e+06 L3.65803e+06,1.92989e+06 L3.77471e+06,1.92989e+06 L3.77471e+06,1.91759e+06 L3.65803e+06,1.91759e+06"/>
</g>

<g fill="#808080" fill-opacity="1" stroke="none" transform="matrix(7.5e-05,0,0,7.5e-05,-22.8,-15.35)"
font-family="MS Shell Dlg 2" font-size="8.25" font-weight="400" font-style="normal" 
>
<path vector-effect="none" fill-rule="evenodd" d="M4.3144e+06,1.90741e+06 L4.3144e+06,1.91759e+06 L4.43108e+06,1.91759e+06 L4.43108e+06,1.90741e+06 L4.3144e+06,1.90741e+06"/>
</g>

<g fill="#808080" fill-opacity="1" stroke="none" transform="matrix(7.5e-05,0,0,7.5e-05,-22.8,-15.35)"
font-family="MS Shell Dlg 2" font-size="8.25" font-weight="400" font-style="normal" 
>
<path vector-effect="none" fill-rule="evenodd" d="M4.97076e+06,1.91759e+06 L4.97076e+06,1.95029e+06 L5.08745e+06,1.95029e+06 L5.08745e+06,1.91759e+06 L4.97076e+06,1.91759e+06"/>
</g>

<g fill="none" stroke="#212121" stroke-opacity="1" stroke-width="0.666667" stroke-linecap="butt" stroke-linejoin="miter" stroke-miterlimit="2" transform="matrix(0.75,0,0,0.75,-22.8,-15.35)"
font-family="MS Shell Dlg 2" font-size="8.25" font-weight="400" font-style="normal" 
>
<path vector-effect="none" fill-rule="evenodd" d="M103.255,191.759 L103.255,126.552 L114.924,126.552 L114.924,191.759 L103.255,191.759"/>
<path vector-effect="none" fill-rule="evenodd" d="M168.892,191.759 L168.892,23.1688 L180.561,23.1688 L180.561,191.759 L168.892,191.759"/>
<path vector-effect="none" fill-rule="evenodd" d="M234.529,191.759 L234.529,226.958 L246.197,226.958 L246.197,191.759 L234.529,191.759"/>
<path vector-effect="none" fill-rule="evenodd" d="M300.166,191.759 L300.166,188.921 L311.834,188.921 L311.834,191.759 L300.166,191.759"/>
<path vector-effect="none" fill-rule="evenodd" d="M365.803,191.759 L365.803,192.989 L377.471,192.989 L377.471,191.759 L365.803,191.759"/>
<path vector-effect="none" fill-rule="evenodd" d="M431.439,191.759 L431.439,190.741 L443.108,190.741 L443.108,191.759 L431.439,191.759"/>
<path vector-effect="none" fill-rule="evenodd" d="M497.076,191.759 L497.076,195.029 L508.745,195.029 L508.745,191.759 L497.076,191.759"/>
</g>

<g fill="#cccccc" fill-opacity="1" stroke="none" transform="matrix(7.5e-05,0,0,7.5e-05,-22.8,-15.35)"
font-family="MS Shell Dlg 2" font-size="8.25" font-weight="400" font-style="normal" 
>
<path vector-effect="none" fill-rule="evenodd" d="M1.17841e+06,1.5254e+06 L1.17841e+06,1.91759e+06 L1.2951e+06,1.91759e+06 L1.2951e+06,1.5254e+06 L1.17841e+06,1.5254e+06"/>
</g>

<g fill="#cccccc" fill-opacity="1" stroke="none" transform="matrix(7.5e-05,0,0,7.5e-05,-22.8,-15.35)"
font-family="MS Shell Dlg 2" font-size="8.25" font-weight="400" font-style="normal" 
>
<path vector-effect="none" fill-rule="evenodd" d="M1.83478e+06,230000 L1.83478e+06,1.91759e+06 L1.95147e+06,1.91759e+06 L1.95147e+06,230000 L1.83478e+06,230000"/>
</g>

<g fill="#cccccc" fill-opacity="1" stroke="none" transform="matrix(7.5e-05,0,0,7.5e-05,-22.8,-15.35)"
font-family="MS Shell Dlg 2" font-size="8.25" font-weight="400" font-style="normal" 
>
<path vector-effect="none" fill-rule="evenodd" d="M2.49115e+06,1.91759e+06 L2.49115e+06,2.25944e+06 L2.60783e+06,2.25944e+06 L2.60783e+06,1.91759e+06 L2.49115e+06,1.91759e+06"/>
</g>

<g fill="#cccccc" fill-opacity="1" stroke="none" transform="matrix(7.5e-05,0,0,7.5e-05,-22.8,-15.35)"
font-family="MS Shell Dlg 2" font-size="8.25" font-weight="400" font-style="normal" 
>
<path vector-effect="none" fill-rule="evenodd" d="M3.14752e+06,1.88251e+06 L3.14752e+06,1.91759e+06 L3.2642e+06,1.91759e+06 L3.2642e+06,1.88251e+06 L3.14752e+06,1.88251e+06"/>
</g>

<g fill="#cccccc" fill-opacity="1" stroke="none" transform="matrix(7.5e-05,0,0,7.5e-05,-22.8,-15.35)"
font-family="MS Shell Dlg 2" font-size="8.25" font-weight="400" font-style="normal" 
>
<path vector-effect="none" fill-rule="evenodd" d="M3.80389e+06,1.91759e+06 L3.80389e+06,1.94723e+06 L3.92057e+06,1.94723e+06 L3.92057e+06,1.91759e+06 L3.80389e+06,1.91759e+06"/>
</g>

<g fill="#cccccc" fill-opacity="1" stroke="none" transform="matrix(7.5e-05,0,0,7.5e-05,-22.8,-15.35)"
font-family="MS Shell Dlg 2" font-size="8.25" font-weight="400" font-style="normal" 
>
<path vector-effect="none" fill-rule="evenodd" d="M5.11662e+06,1.91759e+06 L5.11662e+06,1.95492e+06 L5.23331e+06,1.95492e+06 L5.23331e+06,1.91759e+06 L5.11662e+06,1.91759e+06"/>
</g>

<g fill="none" stroke="#212121" stroke-opacity="1" stroke-width="0.666667" stroke-linecap="butt" stroke-linejoin="miter" stroke-miterlimit="2" transform="matrix(0.75,0,0,0.75,-22.8,-15.35)"
font-family="MS Shell Dlg 2" font-size="8.25" font-weight="400" font-style="normal" 
>
<path vector-effect="none" fill-rule="evenodd" d="M117.841,191.759 L117.841,152.54 L129.51,152.54 L129.51,191.759 L117.841,191.759"/>
<path vector-effect="none" fill-rule="evenodd" d="M183.478,191.759 L183.478,23 L195.146,23 L195.146,191.759 L183.478,191.759"/>
<path vector-effect="none" fill-rule="evenodd" d="M249.115,191.759 L249.115,225.944 L260.783,225.944 L260.783,191.759 L249.115,191.759"/>
<path vector-effect="none" fill-rule="evenodd" d="M314.752,191.759 L314.752,188.251 L326.42,188.251 L326.42,191.759 L314.752,191.759"/>
<path vector-effect="none" fill-rule="evenodd" d="M380.389,191.759 L380.389,194.723 L392.057,194.723 L392.057,191.759 L380.389,191.759"/>
<path vector-effect="none" fill-rule="evenodd" d="M446.025,191.759 L457.694,191.759 L446.025,191.759"/>
<path vector-effect="none" fill-rule="evenodd" d="M511.662,191.759 L511.662,195.492 L523.331,195.492 L523.331,191.759 L511.662,191.759"/>
</g>

<g fill="#212121" fill-opacity="1" stroke="#212121" stroke-opacity="1" stroke-width="1.06667" stroke-linecap="square" stroke-linejoin="round" transform="matrix(0.75,0,0,0.75,-22.8,-15.35)"
font-family="MS Shell Dlg 2" font-size="8.25" font-weight="400" font-style="normal" 
>
<polyline fill="none" vector-effect="none" points="77,269 535,269 " />
<polyline fill="none" vector-effect="none" points="77,23 535,23 " />
<polyline fill="none" vector-effect="none" points="109.089,269 109.089,264.42 " />
<polyline fill="none" vector-effect="none" points="109.089,27.58 109.089,23 " />
<polyline fill="none" vector-effect="none" points="174.726,269 174.726,264.42 " />
<polyline fill="none" vector-effect="none" points="174.726,27.58 174.726,23 " />
<polyline fill="none" vector-effect="none" points="240.363,269 240.363,264.42 " />
<polyline fill="none" vector-effect="none" points="240.363,27.58 240.363,23 " />
<polyline fill="none" vector-effect="none" points="306,269 306,264.42 " />
<polyline fill="none" vector-effect="none" points="306,27.58 306,23 " />
<polyline fill="none" vector-effect="none" points="371.637,269 371.637,264.42 " />
<polyline fill="none" vector-effect="none" points="371.637,27.58 371.637,23 " />
<polyline fill="none" vector-effect="none" points="437.274,269 437.274,264.42 " />
<polyline fill="none" vector-effect="none" points="437.274,27.58 437.274,23 " />
<polyline fill="none" vector-effect="none" points="502.911,269 502.911,264.42 " />
<polyline fill="none" vector-effect="none" points="502.911,27.58 502.911,23 " />
</g>

<g fill="#212121" fill-opacity="1" stroke="none" transform="matrix(0,-0.75,0.75,0,10.5,151.15)"
font-family="MS Shell Dlg 2" font-size="8.25" font-weight="400" font-style="normal" 
>
<path vector-effect="none" fill-rule="evenodd" d="M0.625,-2.6875 L0.6875,-2.75 L1.0625,-2.75 L1.125,-2.6875 C1.15625,-2.02083 1.19271,-1.61458 1.23438,-1.46875 C1.27604,-1.32292 1.41667,-1.16667 1.65625,-1 C1.89583,-0.833333 2.21094,-0.697917 2.60156,-0.59375 C2.99219,-0.489583 3.39063,-0.4375 3.79688,-0.4375 C4.34896,-0.4375 4.84375,-0.539063 5.28125,-0.742188 C5.71875,-0.945313 6.0599,-1.24479 6.30469,-1.64063 C6.54948,-2.03646 6.67188,-2.47917 6.67188,-2.96875 C6.67188,-3.3125 6.61458,-3.61198 6.5,-3.86719 C6.38542,-4.1224 6.22135,-4.32552 6.00781,-4.47656 C5.79427,-4.6276 5.55208,-4.74219 5.28125,-4.82031 C5.01042,-4.89844 4.60938,-4.97917 4.07813,-5.0625 C3.55729,-5.14583 3.14844,-5.22135 2.85156,-5.28906 C2.55469,-5.35677 2.26042,-5.46094 1.96875,-5.60156 C1.67708,-5.74219 1.4349,-5.92188 1.24219,-6.14063 C1.04948,-6.35938 0.893229,-6.625 0.773438,-6.9375 C0.653646,-7.25 0.59375,-7.58854 0.59375,-7.95313 C0.59375,-8.92188 0.932292,-9.71875 1.60938,-10.3438 C2.28646,-10.9688 3.19792,-11.2813 4.34375,-11.2813 C4.79167,-11.2813 5.28385,-11.224 5.82031,-11.1094 C6.35677,-10.9948 6.84375,-10.8281 7.28125,-10.6094 L7.32813,-10.5156 C7.21354,-10.0365 7.14583,-9.35417 7.125,-8.46875 L7.04688,-8.40625 L6.64063,-8.40625 L6.57813,-8.46875 C6.56771,-9.09375 6.55208,-9.48698 6.53125,-9.64844 C6.51042,-9.8099 6.27344,-10.0104 5.82031,-10.25 C5.36719,-10.4896 4.875,-10.6094 4.34375,-10.6094 C3.90625,-10.6094 3.49479,-10.5208 3.10938,-10.3438 C2.72396,-10.1667 2.43229,-9.88802 2.23438,-9.50781 C2.03646,-9.1276 1.9375,-8.73958 1.9375,-8.34375 C1.9375,-8.03125 1.9974,-7.75781 2.11719,-7.52344 C2.23698,-7.28906 2.39063,-7.10156 2.57813,-6.96094 C2.76563,-6.82031 2.98698,-6.71615 3.24219,-6.64844 C3.4974,-6.58073 3.95833,-6.5 4.625,-6.40625 C5.55208,-6.27083 6.22396,-6.11198 6.64063,-5.92969 C7.05729,-5.7474 7.39323,-5.45573 7.64844,-5.05469 C7.90365,-4.65365 8.03125,-4.16667 8.03125,-3.59375 C8.03125,-2.48958 7.57813,-1.5651 6.67188,-0.820313 C5.76563,-0.0755208 4.67188,0.296875 3.39063,0.296875 C2.30729,0.296875 1.35938,0.0989583 0.546875,-0.296875 L0.5,-0.390625 C0.552083,-0.723958 0.59375,-1.48958 0.625,-2.6875 M14.7813,-0.84375 L14.4688,-0.3125 C13.8021,0.0625 13.0521,0.25 12.2188,0.25 C11.0729,0.25 10.1875,-0.09375 9.5625,-0.78125 C8.9375,-1.46875 8.625,-2.34896 8.625,-3.42188 C8.625,-3.91146 8.67969,-4.34896 8.78906,-4.73438 C8.89844,-5.11979 9.03385,-5.4375 9.19531,-5.6875 C9.35677,-5.9375 9.53646,-6.13542 9.73438,-6.28125 C9.93229,-6.42708 10.2682,-6.63021 10.7422,-6.89063 C11.2161,-7.15104 11.5729,-7.32031 11.8125,-7.39844 C12.0521,-7.47656 12.3802,-7.51563 12.7969,-7.51563 C13.6094,-7.51563 14.2708,-7.36458 14.7813,-7.0625 C14.6875,-6.46875 14.6146,-5.8125 14.5625,-5.09375 L14.4844,-5.03125 L14.1719,-5.03125 L14.0938,-5.09375 C14.0729,-5.53125 14.0443,-5.82552 14.0078,-5.97656 C13.9714,-6.1276 13.7656,-6.28906 13.3906,-6.46094 C13.0156,-6.63281 12.6146,-6.71875 12.1875,-6.71875 C11.7604,-6.71875 11.3802,-6.63021 11.0469,-6.45313 C10.7135,-6.27604 10.4609,-5.98177 10.2891,-5.57031 C10.1172,-5.15885 10.0313,-4.67188 10.0313,-4.10938 C10.0313,-3.63021 10.099,-3.16146 10.2344,-2.70313 C10.3698,-2.24479 10.5495,-1.86719 10.7734,-1.57031 C10.9974,-1.27344 11.2917,-1.03385 11.6563,-0.851563 C12.0208,-0.669271 12.4271,-0.578125 12.875,-0.578125 C13.1563,-0.578125 13.4297,-0.614583 13.6953,-0.6875 C13.9609,-0.760417 14.2708,-0.880208 14.625,-1.04688 L14.7813,-0.84375 M17.6563,-11.5781 L17.8125,-11.4844 C17.75,-10.8802 17.7188,-9.67708 17.7188,-7.875 L17.7188,-5.95313 C18.1563,-6.30729 18.5625,-6.66146 18.9375,-7.01563 C19.0521,-7.11979 19.1589,-7.19531 19.2578,-7.24219 C19.3568,-7.28906 19.5156,-7.33854 19.7344,-7.39063 C19.9531,-7.44271 20.1823,-7.46875 20.4219,-7.46875 C20.8177,-7.46875 21.2005,-7.38802 21.5703,-7.22656 C21.9401,-7.0651 22.2214,-6.8724 22.4141,-6.64844 C22.6068,-6.42448 22.7396,-6.16146 22.8125,-5.85938 C22.8854,-5.55729 22.9219,-5.1875 22.9219,-4.75 L22.9219,-3.375 C22.9219,-3.28125 22.9323,-2.63021 22.9531,-1.42188 C22.974,-0.932292 23.0313,-0.640625 23.125,-0.546875 C23.2188,-0.453125 23.5417,-0.40625 24.0938,-0.40625 L24.1563,-0.34375 L24.1563,0 L24.0938,0.0625 C23.4271,0.0208333 22.9792,0 22.75,0 C22.625,0 22.2448,0.0208333 21.6094,0.0625 L21.5156,-0.03125 C21.5781,-0.708333 21.6094,-1.58854 21.6094,-2.67188 L21.6094,-3.70313 C21.6094,-4.31771 21.5964,-4.76042 21.5703,-5.03125 C21.5443,-5.30208 21.4583,-5.54688 21.3125,-5.76563 C21.1667,-5.98438 20.9714,-6.15625 20.7266,-6.28125 C20.4818,-6.40625 20.1875,-6.46875 19.8438,-6.46875 C19.4896,-6.46875 19.1953,-6.41927 18.9609,-6.32031 C18.7266,-6.22135 18.487,-6.05729 18.2422,-5.82813 C17.9974,-5.59896 17.849,-5.40885 17.7969,-5.25781 C17.7448,-5.10677 17.7188,-4.8125 17.7188,-4.375 L17.7188,-2.98438 C17.7188,-2.86979 17.7292,-2.5 17.75,-1.875 C17.7708,-1.25 17.7943,-0.885417 17.8203,-0.78125 C17.8464,-0.677083 17.8828,-0.601563 17.9297,-0.554688 C17.9766,-0.507813 18.0339,-0.479167 18.1016,-0.46875 C18.1693,-0.458333 18.4479,-0.4375 18.9375,-0.40625 L19.0156,-0.34375 L19.0156,-0.015625 L18.9531,0.0625 C18.2969,0.0208333 17.6667,0 17.0625,0 C16.4688,0 15.8438,0.0208333 15.1875,0.0625 L15.125,-0.015625 L15.125,-0.34375 L15.1875,-0.40625 C15.6979,-0.4375 15.9844,-0.460938 16.0469,-0.476563 C16.1094,-0.492188 16.1667,-0.523438 16.2188,-0.570313 C16.2708,-0.617188 16.3047,-0.692708 16.3203,-0.796875 C16.3359,-0.901042 16.3568,-1.23698 16.3828,-1.80469 C16.4089,-2.3724 16.4219,-2.80208 16.4219,-3.09375 L16.4219,-7.14063 L16.3906,-8.79688 C16.3698,-9.38021 16.3516,-9.78385 16.3359,-10.0078 C16.3203,-10.2318 16.2969,-10.3646 16.2656,-10.4063 C16.2344,-10.4479 16.1797,-10.4792 16.1016,-10.5 C16.0234,-10.5208 15.7083,-10.5313 15.1563,-10.5313 L15.0781,-10.5938 L15.0781,-10.9219 L15.1406,-11 C16.1406,-11.1146 16.9792,-11.3073 17.6563,-11.5781 M25.6563,-5.29688 L25.3594,-5.375 L25.2969,-5.45313 L25.2969,-6.42188 C26.224,-7.10938 27.125,-7.45313 28,-7.45313 C28.5938,-7.45313 29.0885,-7.34115 29.4844,-7.11719 C29.8802,-6.89323 30.1667,-6.61458 30.3438,-6.28125 C30.5208,-5.94792 30.6094,-5.55729 30.6094,-5.10938 L30.5781,-3.53125 L30.5781,-1.20313 C30.5781,-0.890625 30.599,-0.700521 30.6406,-0.632813 C30.6823,-0.565104 30.7318,-0.518229 30.7891,-0.492188 C30.8464,-0.466146 30.9531,-0.447917 31.1094,-0.4375 L31.5625,-0.390625 L31.625,-0.328125 L31.625,-0.015625 L31.5625,0.0625 C31.1771,0.03125 30.8229,0.015625 30.5,0.015625 C30.1875,0.015625 29.8125,0.03125 29.375,0.0625 L29.25,-0.0625 L29.2813,-1.3125 L27.5781,0.015625 C27.2969,0.140625 26.9844,0.203125 26.6406,0.203125 C26.224,0.203125 25.8672,0.125 25.5703,-0.03125 C25.2734,-0.1875 25.0443,-0.401042 24.8828,-0.671875 C24.7214,-0.942708 24.6406,-1.27083 24.6406,-1.65625 C24.6406,-2.41667 24.8802,-3.01302 25.3594,-3.44531 C25.8385,-3.8776 27.1458,-4.24479 29.2813,-4.54688 C29.2813,-5.31771 29.1094,-5.85938 28.7656,-6.17188 C28.4219,-6.48438 27.9635,-6.64063 27.3906,-6.64063 C27.0885,-6.64063 26.8125,-6.59635 26.5625,-6.50781 C26.3125,-6.41927 26.1693,-6.34896 26.1328,-6.29688 C26.0964,-6.24479 25.9583,-5.92708 25.7188,-5.34375 L25.6563,-5.29688 M29.2813,-4.0625 C27.8229,-3.82292 26.9141,-3.5625 26.5547,-3.28125 C26.1953,-3 26.0156,-2.5625 26.0156,-1.96875 C26.0156,-1.15625 26.4219,-0.75 27.2344,-0.75 C27.9219,-0.75 28.6042,-1.15104 29.2813,-1.95313 L29.2813,-4.0625 M29.6094,-9.09375 C29.3698,-9.09375 29.1667,-9.17708 29,-9.34375 C28.8333,-9.51042 28.75,-9.70833 28.75,-9.9375 C28.75,-10.1771 28.8333,-10.3802 29,-10.5469 C29.1667,-10.7135 29.3698,-10.7969 29.6094,-10.7969 C29.849,-10.7969 30.0495,-10.7135 30.2109,-10.5469 C30.3724,-10.3802 30.4531,-10.1771 30.4531,-9.9375 C30.4531,-9.70833 30.3698,-9.51042 30.2031,-9.34375 C30.0365,-9.17708 29.8385,-9.09375 29.6094,-9.09375 M26.2969,-9.09375 C26.0677,-9.09375 25.8698,-9.17708 25.7031,-9.34375 C25.5365,-9.51042 25.4531,-9.70833 25.4531,-9.9375 C25.4531,-10.1771 25.5365,-10.3802 25.7031,-10.5469 C25.8698,-10.7135 26.0677,-10.7969 26.2969,-10.7969 C26.5365,-10.7969 26.7396,-10.7135 26.9063,-10.5469 C27.0729,-10.3802 27.1563,-10.1771 27.1563,-9.9375 C27.1563,-9.70833 27.0729,-9.51042 26.9063,-9.34375 C26.7396,-9.17708 26.5365,-9.09375 26.2969,-9.09375 M43.6563,-2.14063 L43.5625,-1.34375 C43.5104,-0.9375 43.474,-0.489583 43.4531,0 L43.3906,0.0625 C41.8281,0.0104167 40.6406,-0.015625 39.8281,-0.015625 C39.0677,-0.015625 38.0052,0.0104167 36.6406,0.0625 L36.5781,0 L36.5156,-0.453125 C36.4323,-0.390625 36.1927,-0.213542 35.7969,0.078125 C35.6302,0.151042 35.4375,0.1875 35.2188,0.1875 C34.0833,0.1875 33.5156,-0.385417 33.5156,-1.53125 C33.5156,-1.76042 33.5208,-1.93229 33.5313,-2.04688 L33.5469,-2.59375 C33.5573,-2.70833 33.5625,-2.79688 33.5625,-2.85938 L33.5625,-6.10938 L33.2344,-6.10938 C33.0052,-6.10938 32.7396,-6.09896 32.4375,-6.07813 L32.3594,-6.14063 L32.3594,-6.34375 L32.4219,-6.42188 C32.9115,-6.59896 33.3073,-6.76563 33.6094,-6.92188 C33.6094,-8.15104 33.5938,-8.94271 33.5625,-9.29688 C34.0938,-9.48438 34.5313,-9.6875 34.875,-9.90625 L35.0625,-9.75 C35.0104,-9.3125 34.9479,-8.35938 34.875,-6.89063 C35.1354,-6.88021 35.4167,-6.875 35.7188,-6.875 C36.1042,-6.875 36.6302,-6.88542 37.2969,-6.90625 L37.2813,-7.23438 L37.3438,-7.29688 L41.0156,-7.23438 C41.3594,-7.23438 41.6823,-7.23438 41.9844,-7.23438 C42.526,-7.23438 43.0104,-7.25521 43.4375,-7.29688 L43.5,-7.23438 L43.5,-6.85938 C43.2396,-6.58854 42.5365,-5.72917 41.3906,-4.28125 L39.2344,-1.53125 C39.0052,-1.23958 38.7604,-0.911458 38.5,-0.546875 L39.0469,-0.546875 L40.4375,-0.5625 C40.9688,-0.5625 41.474,-0.580729 41.9531,-0.617188 C42.4323,-0.653646 42.6927,-0.690104 42.7344,-0.726563 C42.776,-0.763021 42.8177,-0.817708 42.8594,-0.890625 C42.901,-0.963542 42.9583,-1.16406 43.0313,-1.49219 C43.1042,-1.82031 43.151,-2.04167 43.1719,-2.15625 L43.2344,-2.21875 L43.5938,-2.21875 L43.6563,-2.14063 M41.6719,-6.70313 L39.8281,-6.70313 C39.4844,-6.70313 39.1667,-6.69531 38.875,-6.67969 C38.5833,-6.66406 38.3594,-6.64323 38.2031,-6.61719 C38.0469,-6.59115 37.9531,-6.54948 37.9219,-6.49219 C37.8906,-6.4349 37.8672,-6.35938 37.8516,-6.26563 C37.8359,-6.17188 37.7917,-5.92188 37.7188,-5.51563 L37.6719,-5.26563 L37.6094,-5.20313 L37.2969,-5.20313 L37.2188,-5.28125 L37.2813,-6.14063 L36,-6.15625 C35.7083,-6.15625 35.3333,-6.15104 34.875,-6.14063 L34.8281,-2.96875 L34.8438,-1.95313 C34.8438,-1.14063 35.1771,-0.734375 35.8438,-0.734375 C36.0417,-0.734375 36.276,-0.786458 36.5469,-0.890625 L36.6875,-0.625 C37.0208,-0.927083 37.4948,-1.43229 38.1094,-2.14063 L40.6094,-5.23438 C40.8594,-5.53646 41.2135,-6.02604 41.6719,-6.70313 M47.3594,0.15625 L46.2969,-3.35938 C46.099,-4.01563 45.9089,-4.625 45.7266,-5.1875 C45.5443,-5.75 45.4219,-6.10677 45.3594,-6.25781 C45.2969,-6.40885 45.2318,-6.51823 45.1641,-6.58594 C45.0964,-6.65365 45.0234,-6.70052 44.9453,-6.72656 C44.8672,-6.7526 44.6458,-6.78646 44.2813,-6.82813 L44.2344,-6.89063 L44.2344,-7.21875 L44.2969,-7.28125 C44.6719,-7.25 45.2552,-7.23438 46.0469,-7.23438 C46.8906,-7.23438 47.526,-7.25 47.9531,-7.28125 L48.0313,-7.21875 L48.0313,-6.89063 L47.9688,-6.82813 C47.4063,-6.82813 47.0703,-6.79948 46.9609,-6.74219 C46.8516,-6.6849 46.7969,-6.59375 46.7969,-6.46875 C46.7969,-6.35417 46.875,-6.03646 47.0313,-5.51563 L47.75,-3 C47.8646,-2.60417 48.0104,-2.14583 48.1875,-1.625 C48.3333,-1.96875 48.5313,-2.42188 48.7813,-2.98438 L49.9375,-5.5625 C50.2083,-6.16667 50.4635,-6.78125 50.7031,-7.40625 L51.0781,-7.40625 L51.7813,-5.51563 L52.6875,-3.25 L53.375,-1.53125 L53.9688,-3.0625 C54.3021,-3.94792 54.5625,-4.6849 54.75,-5.27344 C54.9375,-5.86198 55.0313,-6.23958 55.0313,-6.40625 C55.0313,-6.57292 54.974,-6.68229 54.8594,-6.73438 C54.7448,-6.78646 54.4375,-6.81771 53.9375,-6.82813 L53.875,-6.89063 L53.875,-7.21875 L53.9375,-7.28125 C54.5417,-7.25 55.0521,-7.23438 55.4688,-7.23438 C55.9896,-7.23438 56.4792,-7.25 56.9375,-7.28125 L57,-7.21875 L57,-6.90625 L56.9375,-6.82813 C56.6563,-6.81771 56.4635,-6.78646 56.3594,-6.73438 C56.2552,-6.68229 56.1406,-6.55729 56.0156,-6.35938 C55.8906,-6.16146 55.6979,-5.75521 55.4375,-5.14063 L54.6563,-3.29688 L54.3125,-2.42188 L53.75,-0.96875 C53.5833,-0.520833 53.4583,-0.145833 53.375,0.15625 L52.6406,0.15625 L52.2656,-0.828125 L50.4844,-5.3125 L49.7344,-3.6875 L48.875,-1.75 L48.1094,0.15625 L47.3594,0.15625 M63.9063,-1.15625 L63.6563,-0.59375 C63.1146,-0.239583 62.6328,-0.0104167 62.2109,0.09375 C61.7891,0.197917 61.4115,0.25 61.0781,0.25 C60.4531,0.25 59.8594,0.127604 59.2969,-0.117188 C58.7344,-0.361979 58.2786,-0.776042 57.9297,-1.35938 C57.5807,-1.94271 57.4063,-2.64583 57.4063,-3.46875 C57.4063,-4.02083 57.474,-4.51563 57.6094,-4.95313 C57.7448,-5.39063 57.8854,-5.71615 58.0313,-5.92969 C58.1771,-6.14323 58.4271,-6.38021 58.7813,-6.64063 C59.1354,-6.90104 59.5104,-7.10938 59.9063,-7.26563 C60.3021,-7.42188 60.7292,-7.5 61.1875,-7.5 C61.8125,-7.5 62.3646,-7.35417 62.8438,-7.0625 C63.3229,-6.77083 63.6589,-6.39583 63.8516,-5.9375 C64.0443,-5.47917 64.1406,-4.98958 64.1406,-4.46875 C64.1406,-4.3125 64.1302,-4.15625 64.1094,-4 L64.0313,-3.92188 C63.6771,-3.83854 63.2005,-3.78385 62.6016,-3.75781 C62.0026,-3.73177 61.6042,-3.71875 61.4063,-3.71875 L58.9063,-3.71875 C58.9167,-2.64583 59.1875,-1.85417 59.7188,-1.34375 C60.25,-0.833333 60.901,-0.578125 61.6719,-0.578125 C62.0365,-0.578125 62.3854,-0.640625 62.7188,-0.765625 C63.0521,-0.890625 63.4063,-1.0625 63.7813,-1.28125 L63.9063,-1.15625 M58.9063,-4.34375 C59,-4.33333 59.3594,-4.31771 59.9844,-4.29688 C60.6094,-4.27604 61.0729,-4.26563 61.375,-4.26563 C62.1042,-4.26563 62.5469,-4.27604 62.7031,-4.29688 C62.7031,-4.42188 62.7031,-4.52083 62.7031,-4.59375 C62.7031,-5.39583 62.5391,-5.99479 62.2109,-6.39063 C61.8828,-6.78646 61.4375,-6.98438 60.875,-6.98438 C60.25,-6.98438 59.7656,-6.76302 59.4219,-6.32031 C59.0781,-5.8776 58.9063,-5.21875 58.9063,-4.34375 M68,-7.45313 L68.1563,-7.34375 C68.125,-7.04167 68.099,-6.50521 68.0781,-5.73438 L68.6719,-6.48438 C68.8594,-6.72396 69.0286,-6.91146 69.1797,-7.04688 C69.3307,-7.18229 69.5052,-7.28646 69.7031,-7.35938 C69.901,-7.43229 70.1042,-7.46875 70.3125,-7.46875 C70.5417,-7.46875 70.7552,-7.42188 70.9531,-7.32813 L71.0156,-7.21875 C70.9323,-6.52083 70.8854,-5.91146 70.875,-5.39063 L70.5156,-5.39063 C70.3073,-5.86979 69.974,-6.10938 69.5156,-6.10938 C69.1927,-6.10938 68.9115,-6.00521 68.6719,-5.79688 C68.4323,-5.58854 68.2708,-5.33073 68.1875,-5.02344 C68.1042,-4.71615 68.0625,-4.32292 68.0625,-3.84375 L68.0625,-2.98438 C68.0625,-2.82813 68.0729,-2.44531 68.0938,-1.83594 C68.1146,-1.22656 68.138,-0.875 68.1641,-0.78125 C68.1901,-0.6875 68.2266,-0.617188 68.2734,-0.570313 C68.3203,-0.523438 68.3854,-0.492188 68.4688,-0.476563 C68.5521,-0.460938 68.9219,-0.4375 69.5781,-0.40625 L69.6563,-0.34375 L69.6563,-0.015625 L69.5781,0.0625 C68.8906,0.0208333 68.1667,0 67.4063,0 C66.8125,0 66.1875,0.0208333 65.5313,0.0625 L65.4688,-0.015625 L65.4688,-0.34375 L65.5313,-0.40625 C66.0417,-0.4375 66.3281,-0.460938 66.3906,-0.476563 C66.4531,-0.492188 66.5104,-0.523438 66.5625,-0.570313 C66.6146,-0.617188 66.6484,-0.692708 66.6641,-0.796875 C66.6797,-0.901042 66.7005,-1.23698 66.7266,-1.80469 C66.7526,-2.3724 66.7656,-2.80208 66.7656,-3.09375 L66.7656,-4.64063 C66.7656,-4.84896 66.7552,-5.13281 66.7344,-5.49219 C66.7135,-5.85156 66.6953,-6.07292 66.6797,-6.15625 C66.6641,-6.23958 66.6224,-6.29948 66.5547,-6.33594 C66.487,-6.3724 66.3542,-6.39063 66.1563,-6.39063 L65.5,-6.40625 L65.4219,-6.46875 L65.4219,-6.79688 L65.4844,-6.85938 C66.4844,-6.98438 67.3229,-7.18229 68,-7.45313 M71.3594,-6.14063 L71.3594,-6.34375 L71.4219,-6.42188 C71.9115,-6.59896 72.3073,-6.76563 72.6094,-6.92188 C72.6094,-8.28646 72.5938,-9.07813 72.5625,-9.29688 C73.0938,-9.48438 73.5313,-9.6875 73.875,-9.90625 L74.0625,-9.75 C74.0104,-9.41667 73.9479,-8.46354 73.875,-6.89063 C74.1354,-6.88021 74.4167,-6.875 74.7188,-6.875 C75.3333,-6.875 75.776,-6.89063 76.0469,-6.92188 L76.0938,-6.875 L75.9531,-6.21875 L75.8906,-6.14063 C75.6198,-6.15104 75.3229,-6.15625 75,-6.15625 C74.7083,-6.15625 74.3333,-6.15104 73.875,-6.14063 L73.8281,-2.96875 C73.8281,-2.22917 73.8464,-1.7474 73.8828,-1.52344 C73.9193,-1.29948 74.013,-1.1224 74.1641,-0.992188 C74.3151,-0.861979 74.5417,-0.796875 74.8438,-0.796875 C75.1979,-0.796875 75.5208,-0.890625 75.8125,-1.07813 L76,-0.796875 C75.875,-0.703125 75.5781,-0.442708 75.1094,-0.015625 C74.8385,0.119792 74.5625,0.1875 74.2813,0.1875 C73.1042,0.1875 72.5156,-0.385417 72.5156,-1.53125 C72.5156,-1.94792 72.526,-2.30208 72.5469,-2.59375 C72.5573,-2.67708 72.5625,-2.76563 72.5625,-2.85938 L72.5625,-6.10938 L72.2344,-6.10938 C72.0052,-6.10938 71.7396,-6.09896 71.4375,-6.07813 L71.3594,-6.14063 M84.3594,3.70313 C83.276,2.77604 82.4375,1.66406 81.8438,0.367188 C81.25,-0.929688 80.9531,-2.3125 80.9531,-3.78125 C80.9531,-4.97917 81.1198,-6.04427 81.4531,-6.97656 C81.7865,-7.90885 82.25,-8.76563 82.8438,-9.54688 C83.4375,-10.3281 83.9635,-10.8854 84.4219,-11.2188 L84.5156,-11.2031 L84.75,-10.9063 L84.75,-10.8125 C83.125,-9.0625 82.3125,-6.77604 82.3125,-3.95313 C82.3125,-2.39063 82.4948,-1.05469 82.8594,0.0546875 C83.224,1.16406 83.8542,2.26042 84.75,3.34375 L84.75,3.4375 L84.4531,3.6875 L84.3594,3.70313 M87.6719,-7.45313 L87.8281,-7.34375 C87.7969,-7 87.776,-6.54167 87.7656,-5.96875 C88.1823,-6.3125 88.5781,-6.66146 88.9531,-7.01563 C89.0573,-7.11979 89.1589,-7.19531 89.2578,-7.24219 C89.3568,-7.28906 89.5182,-7.33854 89.7422,-7.39063 C89.9661,-7.44271 90.1927,-7.46875 90.4219,-7.46875 C90.8177,-7.46875 91.2031,-7.38802 91.5781,-7.22656 C91.9531,-7.0651 92.2344,-6.8724 92.4219,-6.64844 C92.6094,-6.42448 92.7396,-6.16146 92.8125,-5.85938 C92.8854,-5.55729 92.9219,-5.1875 92.9219,-4.75 L92.9219,-3.375 C92.9219,-3.28125 92.9375,-2.63021 92.9688,-1.42188 C92.9792,-0.932292 93.0339,-0.640625 93.1328,-0.546875 C93.2318,-0.453125 93.5521,-0.40625 94.0938,-0.40625 L94.1563,-0.34375 L94.1563,0 L94.0938,0.0625 C93.4375,0.0208333 92.9896,0 92.75,0 C92.6146,0 92.2344,0.0208333 91.6094,0.0625 L91.5156,-0.03125 C91.5885,-0.708333 91.625,-1.58854 91.625,-2.67188 L91.625,-3.70313 C91.625,-4.31771 91.6094,-4.76042 91.5781,-5.03125 C91.5469,-5.30208 91.4583,-5.54688 91.3125,-5.76563 C91.1667,-5.98438 90.9714,-6.15625 90.7266,-6.28125 C90.4818,-6.40625 90.1927,-6.46875 89.8594,-6.46875 C89.5885,-6.46875 89.3568,-6.4401 89.1641,-6.38281 C88.9714,-6.32552 88.7552,-6.21354 88.5156,-6.04688 C88.276,-5.88021 88.099,-5.72135 87.9844,-5.57031 C87.8698,-5.41927 87.7995,-5.28125 87.7734,-5.15625 C87.7474,-5.03125 87.7344,-4.76042 87.7344,-4.34375 L87.7344,-2.98438 C87.7344,-2.86979 87.7448,-2.5 87.7656,-1.875 C87.7865,-1.25 87.8099,-0.885417 87.8359,-0.78125 C87.862,-0.677083 87.8984,-0.601563 87.9453,-0.554688 C87.9922,-0.507813 88.0495,-0.479167 88.1172,-0.46875 C88.1849,-0.458333 88.4635,-0.4375 88.9531,-0.40625 L89.0313,-0.34375 L89.0313,-0.015625 L88.9688,0.0625 C88.3125,0.0208333 87.6823,0 87.0781,0 C86.4844,0 85.8594,0.0208333 85.2031,0.0625 L85.1406,-0.015625 L85.1406,-0.34375 L85.2031,-0.40625 C85.7135,-0.4375 86,-0.460938 86.0625,-0.476563 C86.125,-0.492188 86.1823,-0.523438 86.2344,-0.570313 C86.2865,-0.617188 86.3203,-0.692708 86.3359,-0.796875 C86.3516,-0.901042 86.3724,-1.23698 86.3984,-1.80469 C86.4245,-2.3724 86.4375,-2.80208 86.4375,-3.09375 L86.4375,-4.64063 C86.4375,-4.84896 86.4271,-5.13281 86.4063,-5.49219 C86.3854,-5.85156 86.3672,-6.07292 86.3516,-6.15625 C86.3359,-6.23958 86.2943,-6.29948 86.2266,-6.33594 C86.1589,-6.3724 86.026,-6.39063 85.8281,-6.39063 L85.1719,-6.40625 L85.0938,-6.46875 L85.0938,-6.79688 L85.1563,-6.85938 C86.1563,-6.98438 86.9948,-7.18229 87.6719,-7.45313 M94.5313,-3.57813 C94.5313,-4.20313 94.6589,-4.80208 94.9141,-5.375 C95.1693,-5.94792 95.6146,-6.44531 96.25,-6.86719 C96.8854,-7.28906 97.6354,-7.5 98.5,-7.5 C99.5938,-7.5 100.484,-7.15365 101.172,-6.46094 C101.859,-5.76823 102.203,-4.88021 102.203,-3.79688 C102.203,-2.60938 101.81,-1.6276 101.023,-0.851563 C100.237,-0.0755208 99.2865,0.3125 98.1719,0.3125 C97.4427,0.3125 96.7917,0.114583 96.2188,-0.28125 C95.6458,-0.677083 95.2214,-1.15885 94.9453,-1.72656 C94.6693,-2.29427 94.5313,-2.91146 94.5313,-3.57813 M96.0156,-4.125 C96.0156,-3.39583 96.1094,-2.74219 96.2969,-2.16406 C96.4844,-1.58594 96.7813,-1.1224 97.1875,-0.773438 C97.5938,-0.424479 98.0573,-0.25 98.5781,-0.25 C99.1927,-0.25 99.7005,-0.494792 100.102,-0.984375 C100.503,-1.47396 100.703,-2.20833 100.703,-3.1875 C100.703,-4.29167 100.484,-5.19792 100.047,-5.90625 C99.6094,-6.61458 98.9844,-6.96875 98.1719,-6.96875 C97.4948,-6.96875 96.9661,-6.72396 96.5859,-6.23438 C96.2057,-5.74479 96.0156,-5.04167 96.0156,-4.125 M106,-7.45313 L106.156,-7.34375 C106.125,-7.04167 106.099,-6.50521 106.078,-5.73438 L106.672,-6.48438 C106.859,-6.72396 107.029,-6.91146 107.18,-7.04688 C107.331,-7.18229 107.505,-7.28646 107.703,-7.35938 C107.901,-7.43229 108.104,-7.46875 108.313,-7.46875 C108.542,-7.46875 108.755,-7.42188 108.953,-7.32813 L109.016,-7.21875 C108.932,-6.52083 108.885,-5.91146 108.875,-5.39063 L108.516,-5.39063 C108.307,-5.86979 107.974,-6.10938 107.516,-6.10938 C107.193,-6.10938 106.911,-6.00521 106.672,-5.79688 C106.432,-5.58854 106.271,-5.33073 106.188,-5.02344 C106.104,-4.71615 106.063,-4.32292 106.063,-3.84375 L106.063,-2.98438 C106.063,-2.82813 106.073,-2.44531 106.094,-1.83594 C106.115,-1.22656 106.138,-0.875 106.164,-0.78125 C106.19,-0.6875 106.227,-0.617188 106.273,-0.570313 C106.32,-0.523438 106.385,-0.492188 106.469,-0.476563 C106.552,-0.460938 106.922,-0.4375 107.578,-0.40625 L107.656,-0.34375 L107.656,-0.015625 L107.578,0.0625 C106.891,0.0208333 106.167,0 105.406,0 C104.813,0 104.188,0.0208333 103.531,0.0625 L103.469,-0.015625 L103.469,-0.34375 L103.531,-0.40625 C104.042,-0.4375 104.328,-0.460938 104.391,-0.476563 C104.453,-0.492188 104.51,-0.523438 104.563,-0.570313 C104.615,-0.617188 104.648,-0.692708 104.664,-0.796875 C104.68,-0.901042 104.701,-1.23698 104.727,-1.80469 C104.753,-2.3724 104.766,-2.80208 104.766,-3.09375 L104.766,-4.64063 C104.766,-4.84896 104.755,-5.13281 104.734,-5.49219 C104.714,-5.85156 104.695,-6.07292 104.68,-6.15625 C104.664,-6.23958 104.622,-6.29948 104.555,-6.33594 C104.487,-6.3724 104.354,-6.39063 104.156,-6.39063 L103.5,-6.40625 L103.422,-6.46875 L103.422,-6.79688 L103.484,-6.85938 C104.484,-6.98438 105.323,-7.18229 106,-7.45313 M111.875,-7.45313 L112.031,-7.34375 C112,-7 111.979,-6.58854 111.969,-6.10938 L112.703,-6.79688 C112.911,-6.98438 113.049,-7.10677 113.117,-7.16406 C113.185,-7.22135 113.344,-7.28646 113.594,-7.35938 C113.844,-7.43229 114.109,-7.46875 114.391,-7.46875 C114.911,-7.46875 115.367,-7.33854 115.758,-7.07813 C116.148,-6.81771 116.438,-6.46354 116.625,-6.01563 C117.323,-6.68229 117.732,-7.05208 117.852,-7.125 C117.971,-7.19792 118.159,-7.27083 118.414,-7.34375 C118.669,-7.41667 118.922,-7.45313 119.172,-7.45313 C119.589,-7.45313 119.969,-7.36458 120.313,-7.1875 C120.656,-7.01042 120.93,-6.77865 121.133,-6.49219 C121.336,-6.20573 121.453,-5.89583 121.484,-5.5625 C121.516,-5.22917 121.531,-4.77083 121.531,-4.1875 L121.531,-3.375 C121.531,-3.28125 121.547,-2.63021 121.578,-1.42188 C121.589,-0.932292 121.643,-0.640625 121.742,-0.546875 C121.841,-0.453125 122.161,-0.40625 122.703,-0.40625 L122.766,-0.34375 L122.766,0 L122.703,0.0625 C122.047,0.0208333 121.599,0 121.359,0 C121.234,0 120.859,0.0208333 120.234,0.0625 L120.125,-0.03125 C120.198,-0.708333 120.234,-1.58854 120.234,-2.67188 L120.234,-3.60938 C120.234,-4.44271 120.195,-5.02344 120.117,-5.35156 C120.039,-5.67969 119.857,-5.95052 119.57,-6.16406 C119.284,-6.3776 118.943,-6.48438 118.547,-6.48438 C118.266,-6.48438 118.003,-6.42708 117.758,-6.3125 C117.513,-6.19792 117.292,-6.03125 117.094,-5.8125 C116.896,-5.59375 116.786,-5.38802 116.766,-5.19531 C116.745,-5.0026 116.734,-4.65104 116.734,-4.14063 L116.734,-3.17188 C116.734,-2.94271 116.745,-2.51302 116.766,-1.88281 C116.786,-1.2526 116.81,-0.885417 116.836,-0.78125 C116.862,-0.677083 116.898,-0.601563 116.945,-0.554688 C116.992,-0.507813 117.049,-0.479167 117.117,-0.46875 C117.185,-0.458333 117.464,-0.4375 117.953,-0.40625 L118.031,-0.34375 L118.031,-0.015625 L117.969,0.0625 C117.313,0.0208333 116.682,0 116.078,0 C115.526,0 114.901,0.0208333 114.203,0.0625 L114.141,-0.015625 L114.141,-0.34375 L114.203,-0.40625 C114.714,-0.4375 115,-0.460938 115.063,-0.476563 C115.125,-0.492188 115.182,-0.523438 115.234,-0.570313 C115.286,-0.617188 115.32,-0.692708 115.336,-0.796875 C115.352,-0.901042 115.372,-1.23698 115.398,-1.80469 C115.424,-2.3724 115.438,-2.80208 115.438,-3.09375 L115.438,-3.98438 C115.438,-4.57813 115.396,-5.03385 115.313,-5.35156 C115.229,-5.66927 115.055,-5.9375 114.789,-6.15625 C114.523,-6.375 114.193,-6.48438 113.797,-6.48438 C113.484,-6.48438 113.198,-6.42188 112.938,-6.29688 C112.677,-6.17188 112.466,-6.02083 112.305,-5.84375 C112.143,-5.66667 112.042,-5.5 112,-5.34375 C111.958,-5.1875 111.938,-4.84896 111.938,-4.32813 L111.938,-3.17188 C111.938,-2.94271 111.948,-2.51302 111.969,-1.88281 C111.99,-1.2526 112.013,-0.885417 112.039,-0.78125 C112.065,-0.677083 112.102,-0.601563 112.148,-0.554688 C112.195,-0.507813 112.253,-0.479167 112.32,-0.46875 C112.388,-0.458333 112.667,-0.4375 113.156,-0.40625 L113.234,-0.34375 L113.234,-0.015625 L113.172,0.0625 C112.516,0.0208333 111.885,0 111.281,0 C110.688,0 110.063,0.0208333 109.406,0.0625 L109.344,-0.015625 L109.344,-0.34375 L109.406,-0.40625 C109.917,-0.4375 110.203,-0.460938 110.266,-0.476563 C110.328,-0.492188 110.385,-0.523438 110.438,-0.570313 C110.49,-0.617188 110.523,-0.692708 110.539,-0.796875 C110.555,-0.901042 110.576,-1.23698 110.602,-1.80469 C110.628,-2.3724 110.641,-2.80208 110.641,-3.09375 L110.641,-4.64063 C110.641,-4.84896 110.63,-5.13281 110.609,-5.49219 C110.589,-5.85156 110.57,-6.07292 110.555,-6.15625 C110.539,-6.23958 110.497,-6.29948 110.43,-6.33594 C110.362,-6.3724 110.229,-6.39063 110.031,-6.39063 L109.375,-6.40625 L109.297,-6.46875 L109.297,-6.79688 L109.359,-6.85938 C110.359,-6.98438 111.198,-7.18229 111.875,-7.45313 M125.25,-10.9375 C125.5,-10.9375 125.711,-10.8516 125.883,-10.6797 C126.055,-10.5078 126.141,-10.3021 126.141,-10.0625 C126.141,-9.82292 126.055,-9.61719 125.883,-9.44531 C125.711,-9.27344 125.5,-9.1875 125.25,-9.1875 C125.01,-9.1875 124.805,-9.27083 124.633,-9.4375 C124.461,-9.60417 124.375,-9.8125 124.375,-10.0625 C124.375,-10.3021 124.461,-10.5078 124.633,-10.6797 C124.805,-10.8516 125.01,-10.9375 125.25,-10.9375 M125.922,-7.45313 L126.063,-7.34375 C126.01,-6.66667 125.984,-5.80208 125.984,-4.75 L125.984,-2.98438 C125.984,-2.86979 125.995,-2.5 126.016,-1.875 C126.036,-1.25 126.057,-0.885417 126.078,-0.78125 C126.099,-0.677083 126.133,-0.601563 126.18,-0.554688 C126.227,-0.507813 126.284,-0.479167 126.352,-0.46875 C126.419,-0.458333 126.703,-0.4375 127.203,-0.40625 L127.266,-0.34375 L127.266,-0.015625 L127.203,0.0625 C126.557,0.0208333 125.932,0 125.328,0 C124.724,0 124.099,0.0208333 123.453,0.0625 L123.375,-0.015625 L123.375,-0.34375 L123.453,-0.40625 C123.953,-0.4375 124.237,-0.460938 124.305,-0.476563 C124.372,-0.492188 124.43,-0.523438 124.477,-0.570313 C124.523,-0.617188 124.557,-0.692708 124.578,-0.796875 C124.599,-0.901042 124.62,-1.23698 124.641,-1.80469 C124.661,-2.3724 124.672,-2.80208 124.672,-3.09375 L124.672,-4.64063 C124.672,-4.84896 124.661,-5.13281 124.641,-5.49219 C124.62,-5.85156 124.604,-6.07292 124.594,-6.15625 C124.583,-6.23958 124.544,-6.29948 124.477,-6.33594 C124.409,-6.3724 124.271,-6.39063 124.063,-6.39063 L123.406,-6.40625 L123.344,-6.46875 L123.344,-6.79688 L123.406,-6.85938 C124.396,-6.98438 125.234,-7.18229 125.922,-7.45313 M134.906,-1.15625 L134.656,-0.59375 C134.115,-0.239583 133.633,-0.0104167 133.211,0.09375 C132.789,0.197917 132.411,0.25 132.078,0.25 C131.453,0.25 130.859,0.127604 130.297,-0.117188 C129.734,-0.361979 129.279,-0.776042 128.93,-1.35938 C128.581,-1.94271 128.406,-2.64583 128.406,-3.46875 C128.406,-4.02083 128.474,-4.51563 128.609,-4.95313 C128.745,-5.39063 128.885,-5.71615 129.031,-5.92969 C129.177,-6.14323 129.427,-6.38021 129.781,-6.64063 C130.135,-6.90104 130.51,-7.10938 130.906,-7.26563 C131.302,-7.42188 131.729,-7.5 132.188,-7.5 C132.813,-7.5 133.365,-7.35417 133.844,-7.0625 C134.323,-6.77083 134.659,-6.39583 134.852,-5.9375 C135.044,-5.47917 135.141,-4.98958 135.141,-4.46875 C135.141,-4.3125 135.13,-4.15625 135.109,-4 L135.031,-3.92188 C134.677,-3.83854 134.201,-3.78385 133.602,-3.75781 C133.003,-3.73177 132.604,-3.71875 132.406,-3.71875 L129.906,-3.71875 C129.917,-2.64583 130.188,-1.85417 130.719,-1.34375 C131.25,-0.833333 131.901,-0.578125 132.672,-0.578125 C133.036,-0.578125 133.385,-0.640625 133.719,-0.765625 C134.052,-0.890625 134.406,-1.0625 134.781,-1.28125 L134.906,-1.15625 M129.906,-4.34375 C130,-4.33333 130.359,-4.31771 130.984,-4.29688 C131.609,-4.27604 132.073,-4.26563 132.375,-4.26563 C133.104,-4.26563 133.547,-4.27604 133.703,-4.29688 C133.703,-4.42188 133.703,-4.52083 133.703,-4.59375 C133.703,-5.39583 133.539,-5.99479 133.211,-6.39063 C132.883,-6.78646 132.438,-6.98438 131.875,-6.98438 C131.25,-6.98438 130.766,-6.76302 130.422,-6.32031 C130.078,-5.8776 129.906,-5.21875 129.906,-4.34375 M139,-7.45313 L139.156,-7.34375 C139.125,-7.04167 139.099,-6.50521 139.078,-5.73438 L139.672,-6.48438 C139.859,-6.72396 140.029,-6.91146 140.18,-7.04688 C140.331,-7.18229 140.505,-7.28646 140.703,-7.35938 C140.901,-7.43229 141.104,-7.46875 141.313,-7.46875 C141.542,-7.46875 141.755,-7.42188 141.953,-7.32813 L142.016,-7.21875 C141.932,-6.52083 141.885,-5.91146 141.875,-5.39063 L141.516,-5.39063 C141.307,-5.86979 140.974,-6.10938 140.516,-6.10938 C140.193,-6.10938 139.911,-6.00521 139.672,-5.79688 C139.432,-5.58854 139.271,-5.33073 139.188,-5.02344 C139.104,-4.71615 139.063,-4.32292 139.063,-3.84375 L139.063,-2.98438 C139.063,-2.82813 139.073,-2.44531 139.094,-1.83594 C139.115,-1.22656 139.138,-0.875 139.164,-0.78125 C139.19,-0.6875 139.227,-0.617188 139.273,-0.570313 C139.32,-0.523438 139.385,-0.492188 139.469,-0.476563 C139.552,-0.460938 139.922,-0.4375 140.578,-0.40625 L140.656,-0.34375 L140.656,-0.015625 L140.578,0.0625 C139.891,0.0208333 139.167,0 138.406,0 C137.813,0 137.188,0.0208333 136.531,0.0625 L136.469,-0.015625 L136.469,-0.34375 L136.531,-0.40625 C137.042,-0.4375 137.328,-0.460938 137.391,-0.476563 C137.453,-0.492188 137.51,-0.523438 137.563,-0.570313 C137.615,-0.617188 137.648,-0.692708 137.664,-0.796875 C137.68,-0.901042 137.701,-1.23698 137.727,-1.80469 C137.753,-2.3724 137.766,-2.80208 137.766,-3.09375 L137.766,-4.64063 C137.766,-4.84896 137.755,-5.13281 137.734,-5.49219 C137.714,-5.85156 137.695,-6.07292 137.68,-6.15625 C137.664,-6.23958 137.622,-6.29948 137.555,-6.33594 C137.487,-6.3724 137.354,-6.39063 137.156,-6.39063 L136.5,-6.40625 L136.422,-6.46875 L136.422,-6.79688 L136.484,-6.85938 C137.484,-6.98438 138.323,-7.18229 139,-7.45313 M142.359,-6.14063 L142.359,-6.34375 L142.422,-6.42188 C142.911,-6.59896 143.307,-6.76563 143.609,-6.92188 C143.609,-8.28646 143.594,-9.07813 143.563,-9.29688 C144.094,-9.48438 144.531,-9.6875 144.875,-9.90625 L145.063,-9.75 C145.01,-9.41667 144.948,-8.46354 144.875,-6.89063 C145.135,-6.88021 145.417,-6.875 145.719,-6.875 C146.333,-6.875 146.776,-6.89063 147.047,-6.92188 L147.094,-6.875 L146.953,-6.21875 L146.891,-6.14063 C146.62,-6.15104 146.323,-6.15625 146,-6.15625 C145.708,-6.15625 145.333,-6.15104 144.875,-6.14063 L144.828,-2.96875 C144.828,-2.22917 144.846,-1.7474 144.883,-1.52344 C144.919,-1.29948 145.013,-1.1224 145.164,-0.992188 C145.315,-0.861979 145.542,-0.796875 145.844,-0.796875 C146.198,-0.796875 146.521,-0.890625 146.813,-1.07813 L147,-0.796875 C146.875,-0.703125 146.578,-0.442708 146.109,-0.015625 C145.839,0.119792 145.563,0.1875 145.281,0.1875 C144.104,0.1875 143.516,-0.385417 143.516,-1.53125 C143.516,-1.94792 143.526,-2.30208 143.547,-2.59375 C143.557,-2.67708 143.563,-2.76563 143.563,-2.85938 L143.563,-6.10938 L143.234,-6.10938 C143.005,-6.10938 142.74,-6.09896 142.438,-6.07813 L142.359,-6.14063 M147.969,3.70313 L147.875,3.6875 L147.578,3.4375 L147.578,3.34375 C148.484,2.26042 149.117,1.16146 149.477,0.046875 C149.836,-1.06771 150.016,-2.40104 150.016,-3.95313 C150.016,-6.77604 149.203,-9.0625 147.578,-10.8125 L147.578,-10.9063 L147.828,-11.2031 L147.906,-11.2188 C148.708,-10.625 149.49,-9.68229 150.25,-8.39063 C151.01,-7.09896 151.391,-5.5625 151.391,-3.78125 C151.391,-2.34375 151.102,-0.976563 150.523,0.320313 C149.945,1.61719 149.094,2.74479 147.969,3.70313 "/>
</g>

<g fill="#212121" fill-opacity="1" stroke="#212121" stroke-opacity="1" stroke-width="1.06667" stroke-linecap="square" stroke-linejoin="round" transform="matrix(0.75,0,0,0.75,-22.8,-15.35)"
font-family="MS Shell Dlg 2" font-size="8.25" font-weight="400" font-style="normal" 
>
<polyline fill="none" vector-effect="none" points="77,269 77,23 " />
<polyline fill="none" vector-effect="none" points="535,269 535,23 " />
<polyline fill="none" vector-effect="none" points="77,269 81.58,269 " />
<polyline fill="none" vector-effect="none" points="530.42,269 535,269 " />
<polyline fill="none" vector-effect="none" points="77,191.759 81.58,191.759 " />
<polyline fill="none" vector-effect="none" points="530.42,191.759 535,191.759 " />
<polyline fill="none" vector-effect="none" points="77,114.517 81.58,114.517 " />
<polyline fill="none" vector-effect="none" points="530.42,114.517 535,114.517 " />
<polyline fill="none" vector-effect="none" points="77,37.2757 81.58,37.2757 " />
<polyline fill="none" vector-effect="none" points="530.42,37.2757 535,37.2757 " />
</g>

<g fill="#212121" fill-opacity="1" stroke="none" transform="matrix(0.75,0,0,0.75,21.5833,189.04)"
font-family="MS Shell Dlg 2" font-size="8.25" font-weight="400" font-style="normal" 
>
<path vector-effect="none" fill-rule="evenodd" d="M0.15625,-2.59375 L0.15625,-3.45313 L3.85938,-3.45313 L3.85938,-2.59375 L0.15625,-2.59375"/>
</g>

<g fill="#212121" fill-opacity="1" stroke="none" transform="matrix(0.75,0,0,0.75,25.25,189.04)"
font-family="MS Shell Dlg 2" font-size="8.25" font-weight="400" font-style="normal" 
>
<path vector-effect="none" fill-rule="evenodd" d="M1.21875,-1.59375 C1.3125,-1.32292 1.45833,-1.07552 1.65625,-0.851563 C1.85417,-0.627604 2.08854,-0.453125 2.35938,-0.328125 C2.63021,-0.203125 2.91146,-0.140625 3.20313,-0.140625 C3.88021,-0.140625 4.34635,-0.403646 4.60156,-0.929688 C4.85677,-1.45573 4.98438,-2.08854 4.98438,-2.82813 C4.98438,-3.15104 4.97917,-3.42448 4.96875,-3.64844 C4.95833,-3.8724 4.92708,-4.08333 4.875,-4.28125 C4.79167,-4.61458 4.64063,-4.90365 4.42188,-5.14844 C4.20313,-5.39323 3.9375,-5.51563 3.625,-5.51563 C3.3125,-5.51563 3.04167,-5.46875 2.8125,-5.375 C2.58333,-5.28125 2.39844,-5.16927 2.25781,-5.03906 C2.11719,-4.90885 1.99219,-4.77344 1.88281,-4.63281 C1.77344,-4.49219 1.70833,-4.41667 1.6875,-4.40625 L1.53125,-4.40625 C1.5,-4.40625 1.46875,-4.42188 1.4375,-4.45313 C1.40625,-4.48438 1.39063,-4.51563 1.39063,-4.54688 L1.39063,-9.21875 C1.39063,-9.23958 1.40625,-9.26302 1.4375,-9.28906 C1.46875,-9.3151 1.5,-9.32813 1.53125,-9.32813 L1.5625,-9.32813 C2.19792,-9.02604 2.86458,-8.875 3.5625,-8.875 C4.26042,-8.875 4.93229,-9.02604 5.57813,-9.32813 L5.60938,-9.32813 C5.64063,-9.32813 5.67188,-9.3151 5.70313,-9.28906 C5.73438,-9.26302 5.75,-9.23958 5.75,-9.21875 L5.75,-9.07813 C5.75,-9.03646 5.73958,-9.01563 5.71875,-9.01563 C5.39583,-8.58854 4.99479,-8.25781 4.51563,-8.02344 C4.03646,-7.78906 3.53646,-7.67188 3.01563,-7.67188 C2.65104,-7.67188 2.27083,-7.72396 1.875,-7.82813 L1.875,-5.1875 C2.1875,-5.4375 2.46354,-5.61458 2.70313,-5.71875 C2.94271,-5.82292 3.25521,-5.875 3.64063,-5.875 C4.15104,-5.875 4.61198,-5.72656 5.02344,-5.42969 C5.4349,-5.13281 5.75,-4.7474 5.96875,-4.27344 C6.1875,-3.79948 6.29688,-3.3125 6.29688,-2.8125 C6.29688,-2.25 6.15885,-1.73177 5.88281,-1.25781 C5.60677,-0.783854 5.23177,-0.403646 4.75781,-0.117188 C4.28385,0.169271 3.76563,0.3125 3.20313,0.3125 C2.74479,0.3125 2.32292,0.192708 1.9375,-0.046875 C1.55208,-0.286458 1.25,-0.606771 1.03125,-1.00781 C0.8125,-1.40885 0.703125,-1.83333 0.703125,-2.28125 C0.703125,-2.48958 0.770833,-2.66146 0.90625,-2.79688 C1.04167,-2.93229 1.21354,-3 1.42188,-3 C1.61979,-3 1.78906,-2.93229 1.92969,-2.79688 C2.07031,-2.66146 2.14063,-2.48958 2.14063,-2.28125 C2.14063,-2.08333 2.07031,-1.91667 1.92969,-1.78125 C1.78906,-1.64583 1.61979,-1.57813 1.42188,-1.57813 C1.39063,-1.57813 1.35417,-1.58073 1.3125,-1.58594 C1.27083,-1.59115 1.23958,-1.59375 1.21875,-1.59375 "/>
</g>

<g fill="#212121" fill-opacity="1" stroke="none" transform="matrix(0.75,0,0,0.75,25.25,131.109)"
font-family="MS Shell Dlg 2" font-size="8.25" font-weight="400" font-style="normal" 
>
<path vector-effect="none" fill-rule="evenodd" d="M3.5,0.3125 C2.35417,0.3125 1.57552,-0.158854 1.16406,-1.10156 C0.752604,-2.04427 0.546875,-3.16667 0.546875,-4.46875 C0.546875,-5.28125 0.619792,-6.04427 0.765625,-6.75781 C0.911458,-7.47135 1.20573,-8.07813 1.64844,-8.57813 C2.09115,-9.07813 2.70833,-9.32813 3.5,-9.32813 C4.11458,-9.32813 4.61719,-9.17708 5.00781,-8.875 C5.39844,-8.57292 5.69792,-8.1849 5.90625,-7.71094 C6.11458,-7.23698 6.25521,-6.72656 6.32813,-6.17969 C6.40104,-5.63281 6.4375,-5.0625 6.4375,-4.46875 C6.4375,-3.66667 6.36458,-2.91406 6.21875,-2.21094 C6.07292,-1.50781 5.78385,-0.911458 5.35156,-0.421875 C4.91927,0.0677083 4.30208,0.3125 3.5,0.3125 M3.5,-0.0625 C4.02083,-0.0625 4.40885,-0.328125 4.66406,-0.859375 C4.91927,-1.39063 5.07552,-1.97917 5.13281,-2.625 C5.1901,-3.27083 5.21875,-3.95833 5.21875,-4.6875 C5.21875,-5.39583 5.1901,-6.04427 5.13281,-6.63281 C5.07552,-7.22135 4.91927,-7.75781 4.66406,-8.24219 C4.40885,-8.72656 4.02083,-8.96875 3.5,-8.96875 C2.96875,-8.96875 2.57552,-8.72656 2.32031,-8.24219 C2.0651,-7.75781 1.90885,-7.22135 1.85156,-6.63281 C1.79427,-6.04427 1.76563,-5.39583 1.76563,-4.6875 C1.76563,-4.16667 1.77865,-3.67708 1.80469,-3.21875 C1.83073,-2.76042 1.89844,-2.28646 2.00781,-1.79688 C2.11719,-1.30729 2.29427,-0.895833 2.53906,-0.5625 C2.78385,-0.229167 3.10417,-0.0625 3.5,-0.0625 "/>
</g>

<g fill="#212121" fill-opacity="1" stroke="none" transform="matrix(0.75,0,0,0.75,25.25,73.1778)"
font-family="MS Shell Dlg 2" font-size="8.25" font-weight="400" font-style="normal" 
>
<path vector-effect="none" fill-rule="evenodd" d="M1.21875,-1.59375 C1.3125,-1.32292 1.45833,-1.07552 1.65625,-0.851563 C1.85417,-0.627604 2.08854,-0.453125 2.35938,-0.328125 C2.63021,-0.203125 2.91146,-0.140625 3.20313,-0.140625 C3.88021,-0.140625 4.34635,-0.403646 4.60156,-0.929688 C4.85677,-1.45573 4.98438,-2.08854 4.98438,-2.82813 C4.98438,-3.15104 4.97917,-3.42448 4.96875,-3.64844 C4.95833,-3.8724 4.92708,-4.08333 4.875,-4.28125 C4.79167,-4.61458 4.64063,-4.90365 4.42188,-5.14844 C4.20313,-5.39323 3.9375,-5.51563 3.625,-5.51563 C3.3125,-5.51563 3.04167,-5.46875 2.8125,-5.375 C2.58333,-5.28125 2.39844,-5.16927 2.25781,-5.03906 C2.11719,-4.90885 1.99219,-4.77344 1.88281,-4.63281 C1.77344,-4.49219 1.70833,-4.41667 1.6875,-4.40625 L1.53125,-4.40625 C1.5,-4.40625 1.46875,-4.42188 1.4375,-4.45313 C1.40625,-4.48438 1.39063,-4.51563 1.39063,-4.54688 L1.39063,-9.21875 C1.39063,-9.23958 1.40625,-9.26302 1.4375,-9.28906 C1.46875,-9.3151 1.5,-9.32813 1.53125,-9.32813 L1.5625,-9.32813 C2.19792,-9.02604 2.86458,-8.875 3.5625,-8.875 C4.26042,-8.875 4.93229,-9.02604 5.57813,-9.32813 L5.60938,-9.32813 C5.64063,-9.32813 5.67188,-9.3151 5.70313,-9.28906 C5.73438,-9.26302 5.75,-9.23958 5.75,-9.21875 L5.75,-9.07813 C5.75,-9.03646 5.73958,-9.01563 5.71875,-9.01563 C5.39583,-8.58854 4.99479,-8.25781 4.51563,-8.02344 C4.03646,-7.78906 3.53646,-7.67188 3.01563,-7.67188 C2.65104,-7.67188 2.27083,-7.72396 1.875,-7.82813 L1.875,-5.1875 C2.1875,-5.4375 2.46354,-5.61458 2.70313,-5.71875 C2.94271,-5.82292 3.25521,-5.875 3.64063,-5.875 C4.15104,-5.875 4.61198,-5.72656 5.02344,-5.42969 C5.4349,-5.13281 5.75,-4.7474 5.96875,-4.27344 C6.1875,-3.79948 6.29688,-3.3125 6.29688,-2.8125 C6.29688,-2.25 6.15885,-1.73177 5.88281,-1.25781 C5.60677,-0.783854 5.23177,-0.403646 4.75781,-0.117188 C4.28385,0.169271 3.76563,0.3125 3.20313,0.3125 C2.74479,0.3125 2.32292,0.192708 1.9375,-0.046875 C1.55208,-0.286458 1.25,-0.606771 1.03125,-1.00781 C0.8125,-1.40885 0.703125,-1.83333 0.703125,-2.28125 C0.703125,-2.48958 0.770833,-2.66146 0.90625,-2.79688 C1.04167,-2.93229 1.21354,-3 1.42188,-3 C1.61979,-3 1.78906,-2.93229 1.92969,-2.79688 C2.07031,-2.66146 2.14063,-2.48958 2.14063,-2.28125 C2.14063,-2.08333 2.07031,-1.91667 1.92969,-1.78125 C1.78906,-1.64583 1.61979,-1.57813 1.42188,-1.57813 C1.39063,-1.57813 1.35417,-1.58073 1.3125,-1.58594 C1.27083,-1.59115 1.23958,-1.59375 1.21875,-1.59375 "/>
</g>

<g fill="#212121" fill-opacity="1" stroke="none" transform="matrix(0.75,0,0,0.75,19.75,15.2468)"
font-family="MS Shell Dlg 2" font-size="8.25" font-weight="400" font-style="normal" 
>
<path vector-effect="none" fill-rule="evenodd" d="M1.29688,0 L1.29688,-0.5 C2.46354,-0.5 3.04688,-0.645833 3.04688,-0.9375 L3.04688,-8.28125 C2.56771,-8.05208 1.95833,-7.9375 1.21875,-7.9375 L1.21875,-8.42188 C2.36458,-8.42188 3.22917,-8.72396 3.8125,-9.32813 L4,-9.32813 C4.03125,-9.32813 4.0625,-9.3151 4.09375,-9.28906 C4.125,-9.26302 4.14063,-9.23438 4.14063,-9.20313 L4.14063,-0.9375 C4.14063,-0.645833 4.72396,-0.5 5.89063,-0.5 L5.89063,0 L1.29688,0"/>
</g>

<g fill="#212121" fill-opacity="1" stroke="none" transform="matrix(0.75,0,0,0.75,25.25,15.2468)"
font-family="MS Shell Dlg 2" font-size="8.25" font-weight="400" font-style="normal" 
>
<path vector-effect="none" fill-rule="evenodd" d="M3.5,0.3125 C2.35417,0.3125 1.57552,-0.158854 1.16406,-1.10156 C0.752604,-2.04427 0.546875,-3.16667 0.546875,-4.46875 C0.546875,-5.28125 0.619792,-6.04427 0.765625,-6.75781 C0.911458,-7.47135 1.20573,-8.07813 1.64844,-8.57813 C2.09115,-9.07813 2.70833,-9.32813 3.5,-9.32813 C4.11458,-9.32813 4.61719,-9.17708 5.00781,-8.875 C5.39844,-8.57292 5.69792,-8.1849 5.90625,-7.71094 C6.11458,-7.23698 6.25521,-6.72656 6.32813,-6.17969 C6.40104,-5.63281 6.4375,-5.0625 6.4375,-4.46875 C6.4375,-3.66667 6.36458,-2.91406 6.21875,-2.21094 C6.07292,-1.50781 5.78385,-0.911458 5.35156,-0.421875 C4.91927,0.0677083 4.30208,0.3125 3.5,0.3125 M3.5,-0.0625 C4.02083,-0.0625 4.40885,-0.328125 4.66406,-0.859375 C4.91927,-1.39063 5.07552,-1.97917 5.13281,-2.625 C5.1901,-3.27083 5.21875,-3.95833 5.21875,-4.6875 C5.21875,-5.39583 5.1901,-6.04427 5.13281,-6.63281 C5.07552,-7.22135 4.91927,-7.75781 4.66406,-8.24219 C4.40885,-8.72656 4.02083,-8.96875 3.5,-8.96875 C2.96875,-8.96875 2.57552,-8.72656 2.32031,-8.24219 C2.0651,-7.75781 1.90885,-7.22135 1.85156,-6.63281 C1.79427,-6.04427 1.76563,-5.39583 1.76563,-4.6875 C1.76563,-4.16667 1.77865,-3.67708 1.80469,-3.21875 C1.83073,-2.76042 1.89844,-2.28646 2.00781,-1.79688 C2.11719,-1.30729 2.29427,-0.895833 2.53906,-0.5625 C2.78385,-0.229167 3.10417,-0.0625 3.5,-0.0625 "/>
</g>

<g fill="#ffffff" fill-opacity="1" stroke="none" transform="matrix(7.5e-05,0,0,7.5e-05,-22.8,-15.35)"
font-family="MS Shell Dlg 2" font-size="8.25" font-weight="400" font-style="normal" 
>
<path vector-effect="none" fill-rule="evenodd" d="M5.48e+06,230000 L5.48e+06,840000 L7.02e+06,840000 L7.02e+06,230000 L5.48e+06,230000"/>
</g>

<g fill="#000000" fill-opacity="1" stroke="none" transform="matrix(7.5e-05,0,0,7.5e-05,-22.8,-15.35)"
font-family="MS Shell Dlg 2" font-size="8.25" font-weight="400" font-style="normal" 
>
<path vector-effect="none" fill-rule="evenodd" d="M5.52e+06,277500 L5.52e+06,412500 L5.92e+06,412500 L5.92e+06,277500 L5.52e+06,277500"/>
</g>

<g fill="none" stroke="#212121" stroke-opacity="1" stroke-width="0.666667" stroke-linecap="butt" stroke-linejoin="miter" stroke-miterlimit="2" transform="matrix(0.75,0,0,0.75,-22.8,-15.35)"
font-family="MS Shell Dlg 2" font-size="8.25" font-weight="400" font-style="normal" 
>
<path vector-effect="none" fill-rule="evenodd" d="M552,41.25 L552,27.75 L592,27.75 L592,41.25 L552,41.25"/>
</g>

<g fill="#808080" fill-opacity="1" stroke="none" transform="matrix(7.5e-05,0,0,7.5e-05,-22.8,-15.35)"
font-family="MS Shell Dlg 2" font-size="8.25" font-weight="400" font-style="normal" 
>
<path vector-effect="none" fill-rule="evenodd" d="M5.52e+06,472500 L5.52e+06,607500 L5.92e+06,607500 L5.92e+06,472500 L5.52e+06,472500"/>
</g>

<g fill="none" stroke="#212121" stroke-opacity="1" stroke-width="0.666667" stroke-linecap="butt" stroke-linejoin="miter" stroke-miterlimit="2" transform="matrix(0.75,0,0,0.75,-22.8,-15.35)"
font-family="MS Shell Dlg 2" font-size="8.25" font-weight="400" font-style="normal" 
>
<path vector-effect="none" fill-rule="evenodd" d="M552,60.75 L552,47.25 L592,47.25 L592,60.75 L552,60.75"/>
</g>

<g fill="#cccccc" fill-opacity="1" stroke="none" transform="matrix(7.5e-05,0,0,7.5e-05,-22.8,-15.35)"
font-family="MS Shell Dlg 2" font-size="8.25" font-weight="400" font-style="normal" 
>
<path vector-effect="none" fill-rule="evenodd" d="M5.52e+06,662500 L5.52e+06,797500 L5.92e+06,797500 L5.92e+06,662500 L5.52e+06,662500"/>
</g>

<g fill="none" stroke="#212121" stroke-opacity="1" stroke-width="0.666667" stroke-linecap="butt" stroke-linejoin="miter" stroke-miterlimit="2" transform="matrix(0.75,0,0,0.75,-22.8,-15.35)"
font-family="MS Shell Dlg 2" font-size="8.25" font-weight="400" font-style="normal" 
>
<path vector-effect="none" fill-rule="evenodd" d="M552,79.75 L552,66.25 L592,66.25 L592,79.75 L552,79.75"/>
</g>

<g fill="#212121" fill-opacity="1" stroke="none" transform="matrix(0.75,0,0,0.75,423.45,42.04)"
font-family="MS Shell Dlg 2" font-size="8.25" font-weight="400" font-style="normal" 
>
<path vector-effect="none" fill-rule="evenodd" d="M0.4375,0 L0.4375,-0.5 C1.39583,-0.5 1.875,-0.645833 1.875,-0.9375 L1.875,-8.625 C1.875,-8.92708 1.39583,-9.07813 0.4375,-9.07813 L0.4375,-9.5625 L8.34375,-9.5625 L8.73438,-6.35938 L8.32813,-6.35938 C8.23438,-7.16146 8.09635,-7.74479 7.91406,-8.10938 C7.73177,-8.47396 7.44271,-8.72656 7.04688,-8.86719 C6.65104,-9.00781 6.05729,-9.07813 5.26563,-9.07813 L3.89063,-9.07813 C3.72396,-9.07813 3.59375,-9.07031 3.5,-9.05469 C3.40625,-9.03906 3.32813,-8.9974 3.26563,-8.92969 C3.20313,-8.86198 3.17188,-8.76042 3.17188,-8.625 L3.17188,-5.20313 L4.21875,-5.20313 C4.6875,-5.20313 5.03906,-5.24479 5.27344,-5.32813 C5.50781,-5.41146 5.66927,-5.5651 5.75781,-5.78906 C5.84635,-6.01302 5.89063,-6.36458 5.89063,-6.84375 L6.29688,-6.84375 L6.29688,-3.07813 L5.89063,-3.07813 C5.89063,-3.55729 5.84635,-3.91146 5.75781,-4.14063 C5.66927,-4.36979 5.50781,-4.52344 5.27344,-4.60156 C5.03906,-4.67969 4.6875,-4.71875 4.21875,-4.71875 L3.17188,-4.71875 L3.17188,-0.9375 C3.17188,-0.739583 3.22917,-0.617188 3.34375,-0.570313 C3.45833,-0.523438 3.64063,-0.5 3.89063,-0.5 L5.375,-0.5 C6.02083,-0.5 6.54427,-0.549479 6.94531,-0.648438 C7.34635,-0.747396 7.65625,-0.916667 7.875,-1.15625 C8.09375,-1.39583 8.26302,-1.70573 8.38281,-2.08594 C8.5026,-2.46615 8.61458,-2.99479 8.71875,-3.67188 L9.125,-3.67188 L8.53125,0 L0.4375,0"/>
</g>

<g fill="#212121" fill-opacity="1" stroke="none" transform="matrix(0.75,0,0,0.75,430.936,42.04)"
font-family="MS Shell Dlg 2" font-size="8.25" font-weight="400" font-style="normal" 
>
<path vector-effect="none" fill-rule="evenodd" d="M0.421875,0 L0.421875,-0.5 C0.734375,-0.5 0.994792,-0.523438 1.20313,-0.570313 C1.41146,-0.617188 1.51563,-0.739583 1.51563,-0.9375 L1.51563,-4.76563 C1.51563,-5.01563 1.47656,-5.19531 1.39844,-5.30469 C1.32031,-5.41406 1.21094,-5.48177 1.07031,-5.50781 C0.929688,-5.53385 0.713542,-5.54688 0.421875,-5.54688 L0.421875,-6.03125 L2.45313,-6.1875 L2.45313,-4.8125 C2.64063,-5.21875 2.91667,-5.54948 3.28125,-5.80469 C3.64583,-6.0599 4.04688,-6.1875 4.48438,-6.1875 C5.55729,-6.1875 6.1875,-5.75 6.375,-4.875 C6.5625,-5.27083 6.83594,-5.58854 7.19531,-5.82813 C7.55469,-6.06771 7.94792,-6.1875 8.375,-6.1875 C8.80208,-6.1875 9.15885,-6.11979 9.44531,-5.98438 C9.73177,-5.84896 9.94792,-5.64063 10.0938,-5.35938 C10.2396,-5.07813 10.3125,-4.72396 10.3125,-4.29688 L10.3125,-0.9375 C10.3125,-0.739583 10.4167,-0.617188 10.625,-0.570313 C10.8333,-0.523438 11.0938,-0.5 11.4063,-0.5 L11.4063,0 L8.20313,0 L8.20313,-0.5 C8.52604,-0.5 8.78906,-0.523438 8.99219,-0.570313 C9.19531,-0.617188 9.29688,-0.739583 9.29688,-0.9375 L9.29688,-4.26563 C9.29688,-4.73438 9.23177,-5.11198 9.10156,-5.39844 C8.97135,-5.6849 8.69792,-5.82813 8.28125,-5.82813 C7.75,-5.82813 7.30729,-5.61198 6.95313,-5.17969 C6.59896,-4.7474 6.42188,-4.25521 6.42188,-3.70313 L6.42188,-0.9375 C6.42188,-0.739583 6.52604,-0.617188 6.73438,-0.570313 C6.94271,-0.523438 7.20313,-0.5 7.51563,-0.5 L7.51563,0 L4.3125,0 L4.3125,-0.5 C4.63542,-0.5 4.89844,-0.523438 5.10156,-0.570313 C5.30469,-0.617188 5.40625,-0.739583 5.40625,-0.9375 L5.40625,-4.26563 C5.40625,-4.71354 5.34115,-5.08594 5.21094,-5.38281 C5.08073,-5.67969 4.80729,-5.82813 4.39063,-5.82813 C3.84896,-5.82813 3.40365,-5.61198 3.05469,-5.17969 C2.70573,-4.7474 2.53125,-4.25521 2.53125,-3.70313 L2.53125,-0.9375 C2.53125,-0.739583 2.63542,-0.617188 2.84375,-0.570313 C3.05208,-0.523438 3.3125,-0.5 3.625,-0.5 L3.625,0 L0.421875,0"/>
</g>

<g fill="#212121" fill-opacity="1" stroke="none" transform="matrix(0.75,0,0,0.75,440.103,42.04)"
font-family="MS Shell Dlg 2" font-size="8.25" font-weight="400" font-style="normal" 
>
<path vector-effect="none" fill-rule="evenodd" d="M0.453125,0 L0.453125,-0.5 C1.28646,-0.5 1.79688,-0.770833 1.98438,-1.3125 L4.92188,-9.875 C4.95313,-9.96875 5.03125,-10.0156 5.15625,-10.0156 L5.32813,-10.0156 C5.45313,-10.0156 5.53125,-9.96875 5.5625,-9.875 L8.625,-0.9375 C8.70833,-0.739583 8.8724,-0.617188 9.11719,-0.570313 C9.36198,-0.523438 9.66667,-0.5 10.0313,-0.5 L10.0313,0 L6.125,0 L6.125,-0.5 C6.90625,-0.5 7.29688,-0.625 7.29688,-0.875 L7.29688,-0.9375 L6.53125,-3.125 L3.14063,-3.125 L2.51563,-1.3125 C2.50521,-1.28125 2.5,-1.23438 2.5,-1.17188 C2.5,-0.942708 2.60938,-0.773438 2.82813,-0.664063 C3.04688,-0.554688 3.28646,-0.5 3.54688,-0.5 L3.54688,0 L0.453125,0 M3.29688,-3.60938 L6.375,-3.60938 L4.82813,-8.07813 L3.29688,-3.60938"/>
</g>

<g fill="#212121" fill-opacity="1" stroke="none" transform="matrix(0.75,0,0,0.75,448.353,42.04)"
font-family="MS Shell Dlg 2" font-size="8.25" font-weight="400" font-style="normal" 
>
<path vector-effect="none" fill-rule="evenodd" d="M0.4375,0 L0.4375,-0.5 C1.39583,-0.5 1.875,-0.645833 1.875,-0.9375 L1.875,-8.625 C1.875,-8.92708 1.39583,-9.07813 0.4375,-9.07813 L0.4375,-9.5625 L4.96875,-9.5625 L4.96875,-9.07813 C3.77083,-9.07813 3.17188,-8.92708 3.17188,-8.625 L3.17188,-0.9375 C3.17188,-0.739583 3.22917,-0.617188 3.34375,-0.570313 C3.45833,-0.523438 3.64063,-0.5 3.89063,-0.5 L4.96875,-0.5 C5.66667,-0.5 6.20573,-0.627604 6.58594,-0.882813 C6.96615,-1.13802 7.23438,-1.48438 7.39063,-1.92188 C7.54688,-2.35938 7.66667,-2.94271 7.75,-3.67188 L8.15625,-3.67188 L7.76563,0 L0.4375,0"/>
</g>

<g fill="#212121" fill-opacity="1" stroke="none" transform="matrix(0.75,0,0,0.75,454.311,42.04)"
font-family="MS Shell Dlg 2" font-size="8.25" font-weight="400" font-style="normal" 
>
<path vector-effect="none" fill-rule="evenodd" d="M2.35938,0 L2.35938,-0.5 C2.82813,-0.5 3.28385,-0.526042 3.72656,-0.578125 C4.16927,-0.630208 4.39063,-0.75 4.39063,-0.9375 L4.39063,-8.625 C4.39063,-8.82292 4.33594,-8.94792 4.22656,-9 C4.11719,-9.05208 3.9375,-9.07813 3.6875,-9.07813 L3.09375,-9.07813 C2.32292,-9.07813 1.77604,-8.90625 1.45313,-8.5625 C1.28646,-8.39583 1.16667,-8.1276 1.09375,-7.75781 C1.02083,-7.38802 0.958333,-6.92188 0.90625,-6.35938 L0.5,-6.35938 L0.765625,-9.5625 L9.32813,-9.5625 L9.59375,-6.35938 L9.1875,-6.35938 C9.125,-6.96354 9.0625,-7.4401 9,-7.78906 C8.9375,-8.13802 8.81771,-8.39583 8.64063,-8.5625 C8.31771,-8.90625 7.77083,-9.07813 7,-9.07813 L6.40625,-9.07813 C6.23958,-9.07813 6.10938,-9.07031 6.01563,-9.05469 C5.92188,-9.03906 5.84635,-8.9974 5.78906,-8.92969 C5.73177,-8.86198 5.70313,-8.76042 5.70313,-8.625 L5.70313,-0.9375 C5.70313,-0.75 5.92448,-0.630208 6.36719,-0.578125 C6.8099,-0.526042 7.26042,-0.5 7.71875,-0.5 L7.71875,0 L2.35938,0"/>
</g>

<g fill="none" stroke="#212121" stroke-opacity="1" stroke-width="1.06667" stroke-linecap="butt" stroke-linejoin="miter" stroke-miterlimit="2" transform="matrix(0.75,0,0,0.75,-22.8,-15.35)"
font-family="MS Shell Dlg 2" font-size="8.25" font-weight="400" font-style="normal" 
>
<path vector-effect="none" fill-rule="evenodd" d="M548,84 L548,23 L702,23 L702,84 L548,84"/>
</g>
</g>
</svg>
