<?xml version="1.0" encoding="UTF-8" standalone="no"?>
<svg width="104.422mm" height="105.481mm"
 viewBox="0 0 296 299"
 xmlns="http://www.w3.org/2000/svg" xmlns:xlink="http://www.w3.org/1999/xlink"  version="1.2" baseProfile="tiny">
<title>Qt SVG Document</title>
<desc>MATLAB, The MathWorks, Inc. Version 25.2.0.3042426 R2025b Update 1</desc>
<defs>
</defs>
<g fill="none" stroke="black" stroke-width="1" fill-rule="evenodd" stroke-linecap="square" stroke-linejoin="bevel" >

<g fill="#ffffff" fill-opacity="1" stroke="none" transform="matrix(0.75,0,0,0.75,-14.319,-30.35)"
font-family="MS Shell Dlg 2" font-size="8.25" font-weight="400" font-style="normal" 
>
<path vector-effect="none" fill-rule="evenodd" d="M18,39 L414,39 L414,438 L18,438 L18,39"/>
</g>

<g fill="#ffffff" fill-opacity="1" stroke="none" transform="matrix(7.5e-05,0,0,7.5e-05,-14.319,-30.35)"
font-family="MS Shell Dlg 2" font-size="8.25" font-weight="400" font-style="normal" 
>
<path vector-effect="none" fill-rule="evenodd" d="M590000,430000 L590000,3.95e+06 L4.11e+06,3.95e+06 L4.11e+06,430000 L590000,430000"/>
</g>

<g fill="#212121" fill-opacity="0.25098" stroke="#212121" stroke-opacity="0.25098" stroke-dasharray="1,3" stroke-dashoffset="0" stroke-width="1.06667" stroke-linecap="butt" stroke-linejoin="round" transform="matrix(0.75,0,0,0.75,-14.319,-30.35)"
font-family="MS Shell Dlg 2" font-size="8.25" font-weight="400" font-style="normal" 
>
<polyline fill="none" vector-effect="none" points="137.222,43 137.222,395 " />
<polyline fill="none" vector-effect="none" points="235,43 235,395 " />
<polyline fill="none" vector-effect="none" points="332.778,43 332.778,395 " />
<polyline fill="none" vector-effect="none" points="59,316.778 411,316.778 " />
<polyline fill="none" vector-effect="none" points="59,219 411,219 " />
<polyline fill="none" vector-effect="none" points="59,121.222 411,121.222 " />
</g>

<g fill="#212121" fill-opacity="1" stroke="none" transform="matrix(0.75,0,0,0.75,156.053,294.764)"
font-family="MS Shell Dlg 2" font-size="8.25" font-weight="400" font-style="normal" 
>
<path vector-effect="none" fill-rule="evenodd" d="M1.25,-0.46875 C1.4375,-0.322917 1.70313,-0.25 2.04688,-0.25 C2.38021,-0.25 2.67448,-0.408854 2.92969,-0.726563 C3.1849,-1.04427 3.35938,-1.39583 3.45313,-1.78125 L4.1875,-4.60938 C4.30208,-5.13021 4.35938,-5.48438 4.35938,-5.67188 C4.35938,-5.93229 4.28385,-6.16146 4.13281,-6.35938 C3.98177,-6.55729 3.77604,-6.65625 3.51563,-6.65625 C3.17188,-6.65625 2.85156,-6.55208 2.55469,-6.34375 C2.25781,-6.13542 2.00781,-5.86719 1.80469,-5.53906 C1.60156,-5.21094 1.45833,-4.88021 1.375,-4.54688 C1.35417,-4.48438 1.3125,-4.45313 1.25,-4.45313 L1.0625,-4.45313 C0.979167,-4.45313 0.9375,-4.5 0.9375,-4.59375 L0.9375,-4.64063 C1.04167,-5.03646 1.21875,-5.42448 1.46875,-5.80469 C1.71875,-6.1849 2.02344,-6.49219 2.38281,-6.72656 C2.74219,-6.96094 3.13021,-7.07813 3.54688,-7.07813 C3.93229,-7.07813 4.28385,-6.97396 4.60156,-6.76563 C4.91927,-6.55729 5.14063,-6.27083 5.26563,-5.90625 C5.45313,-6.23958 5.6875,-6.51823 5.96875,-6.74219 C6.25,-6.96615 6.5625,-7.07813 6.90625,-7.07813 C7.13542,-7.07813 7.36979,-7.03646 7.60938,-6.95313 C7.84896,-6.86979 8.04427,-6.74479 8.19531,-6.57813 C8.34635,-6.41146 8.42188,-6.20313 8.42188,-5.95313 C8.42188,-5.68229 8.33333,-5.45052 8.15625,-5.25781 C7.97917,-5.0651 7.75521,-4.96875 7.48438,-4.96875 C7.31771,-4.96875 7.17708,-5.02344 7.0625,-5.13281 C6.94792,-5.24219 6.89063,-5.38021 6.89063,-5.54688 C6.89063,-5.76563 6.96615,-5.96094 7.11719,-6.13281 C7.26823,-6.30469 7.45313,-6.40625 7.67188,-6.4375 C7.47396,-6.58333 7.20833,-6.65625 6.875,-6.65625 C6.53125,-6.65625 6.23177,-6.4974 5.97656,-6.17969 C5.72135,-5.86198 5.54167,-5.51042 5.4375,-5.125 L4.73438,-2.29688 C4.61979,-1.86979 4.5625,-1.51563 4.5625,-1.23438 C4.5625,-0.963542 4.64063,-0.731771 4.79688,-0.539063 C4.95313,-0.346354 5.15625,-0.25 5.40625,-0.25 C5.90625,-0.25 6.35417,-0.46875 6.75,-0.90625 C7.14583,-1.34375 7.40625,-1.82813 7.53125,-2.35938 C7.55208,-2.42188 7.59375,-2.45313 7.65625,-2.45313 L7.84375,-2.45313 C7.88542,-2.45313 7.91927,-2.4375 7.94531,-2.40625 C7.97135,-2.375 7.98438,-2.34375 7.98438,-2.3125 C7.98438,-2.30208 7.97917,-2.28646 7.96875,-2.26563 C7.82292,-1.63021 7.50781,-1.0625 7.02344,-0.5625 C6.53906,-0.0625 5.98958,0.1875 5.375,0.1875 C4.98958,0.1875 4.63802,0.0807292 4.32031,-0.132813 C4.0026,-0.346354 3.78125,-0.635417 3.65625,-1 C3.48958,-0.6875 3.25781,-0.411458 2.96094,-0.171875 C2.66406,0.0677083 2.34896,0.1875 2.01563,0.1875 C1.78646,0.1875 1.55208,0.145833 1.3125,0.0625 C1.07292,-0.0208333 0.877604,-0.145833 0.726563,-0.3125 C0.575521,-0.479167 0.5,-0.692708 0.5,-0.953125 C0.5,-1.20313 0.585938,-1.42969 0.757813,-1.63281 C0.929688,-1.83594 1.14583,-1.9375 1.40625,-1.9375 C1.58333,-1.9375 1.73177,-1.88542 1.85156,-1.78125 C1.97135,-1.67708 2.03125,-1.53646 2.03125,-1.35938 C2.03125,-1.14063 1.95833,-0.947917 1.8125,-0.78125 C1.66667,-0.614583 1.47917,-0.510417 1.25,-0.46875 "/>
</g>

<g fill="#212121" fill-opacity="1" stroke="none" transform="matrix(0.75,0,0,0.75,162.969,296.579)"
font-family="MS Shell Dlg 2" font-size="8.25" font-weight="400" font-style="normal" 
>
<path vector-effect="none" fill-rule="evenodd" d="M1.01563,0 L1.01563,-0.390625 C1.93229,-0.390625 2.39063,-0.505208 2.39063,-0.734375 L2.39063,-6.51563 C2.01563,-6.32813 1.53646,-6.23438 0.953125,-6.23438 L0.953125,-6.625 C1.84896,-6.625 2.52604,-6.85938 2.98438,-7.32813 L3.14063,-7.32813 C3.17188,-7.32813 3.19792,-7.31771 3.21875,-7.29688 C3.23958,-7.27604 3.25,-7.25521 3.25,-7.23438 L3.25,-0.734375 C3.25,-0.505208 3.70833,-0.390625 4.625,-0.390625 L4.625,0 L1.01563,0"/>
</g>

<g fill="#212121" fill-opacity="1" stroke="#212121" stroke-opacity="1" stroke-width="1.06667" stroke-linecap="square" stroke-linejoin="round" transform="matrix(0.75,0,0,0.75,-14.319,-30.35)"
font-family="MS Shell Dlg 2" font-size="8.25" font-weight="400" font-style="normal" 
>
<polyline fill="none" vector-effect="none" points="59,395 411,395 " />
<polyline fill="none" vector-effect="none" points="59,43 411,43 " />
<polyline fill="none" vector-effect="none" points="137.222,395 137.222,391.48 " />
<polyline fill="none" vector-effect="none" points="137.222,46.52 137.222,43 " />
<polyline fill="none" vector-effect="none" points="235,395 235,391.48 " />
<polyline fill="none" vector-effect="none" points="235,46.52 235,43 " />
<polyline fill="none" vector-effect="none" points="332.778,395 332.778,391.48 " />
<polyline fill="none" vector-effect="none" points="332.778,46.52 332.778,43 " />
</g>

<g fill="#212121" fill-opacity="1" stroke="none" transform="matrix(0.75,0,0,0.75,84.0144,279.34)"
font-family="MS Shell Dlg 2" font-size="8.25" font-weight="400" font-style="normal" 
>
<path vector-effect="none" fill-rule="evenodd" d="M0.15625,-2.59375 L0.15625,-3.45313 L3.85938,-3.45313 L3.85938,-2.59375 L0.15625,-2.59375"/>
</g>

<g fill="#212121" fill-opacity="1" stroke="none" transform="matrix(0.75,0,0,0.75,87.681,279.34)"
font-family="MS Shell Dlg 2" font-size="8.25" font-weight="400" font-style="normal" 
>
<path vector-effect="none" fill-rule="evenodd" d="M1.29688,0 L1.29688,-0.5 C2.46354,-0.5 3.04688,-0.645833 3.04688,-0.9375 L3.04688,-8.28125 C2.56771,-8.05208 1.95833,-7.9375 1.21875,-7.9375 L1.21875,-8.42188 C2.36458,-8.42188 3.22917,-8.72396 3.8125,-9.32813 L4,-9.32813 C4.03125,-9.32813 4.0625,-9.3151 4.09375,-9.28906 C4.125,-9.26302 4.14063,-9.23438 4.14063,-9.20313 L4.14063,-0.9375 C4.14063,-0.645833 4.72396,-0.5 5.89063,-0.5 L5.89063,0 L1.29688,0"/>
</g>

<g fill="#212121" fill-opacity="1" stroke="none" transform="matrix(0.75,0,0,0.75,159.181,279.34)"
font-family="MS Shell Dlg 2" font-size="8.25" font-weight="400" font-style="normal" 
>
<path vector-effect="none" fill-rule="evenodd" d="M3.5,0.3125 C2.35417,0.3125 1.57552,-0.158854 1.16406,-1.10156 C0.752604,-2.04427 0.546875,-3.16667 0.546875,-4.46875 C0.546875,-5.28125 0.619792,-6.04427 0.765625,-6.75781 C0.911458,-7.47135 1.20573,-8.07813 1.64844,-8.57813 C2.09115,-9.07813 2.70833,-9.32813 3.5,-9.32813 C4.11458,-9.32813 4.61719,-9.17708 5.00781,-8.875 C5.39844,-8.57292 5.69792,-8.1849 5.90625,-7.71094 C6.11458,-7.23698 6.25521,-6.72656 6.32813,-6.17969 C6.40104,-5.63281 6.4375,-5.0625 6.4375,-4.46875 C6.4375,-3.66667 6.36458,-2.91406 6.21875,-2.21094 C6.07292,-1.50781 5.78385,-0.911458 5.35156,-0.421875 C4.91927,0.0677083 4.30208,0.3125 3.5,0.3125 M3.5,-0.0625 C4.02083,-0.0625 4.40885,-0.328125 4.66406,-0.859375 C4.91927,-1.39063 5.07552,-1.97917 5.13281,-2.625 C5.1901,-3.27083 5.21875,-3.95833 5.21875,-4.6875 C5.21875,-5.39583 5.1901,-6.04427 5.13281,-6.63281 C5.07552,-7.22135 4.91927,-7.75781 4.66406,-8.24219 C4.40885,-8.72656 4.02083,-8.96875 3.5,-8.96875 C2.96875,-8.96875 2.57552,-8.72656 2.32031,-8.24219 C2.0651,-7.75781 1.90885,-7.22135 1.85156,-6.63281 C1.79427,-6.04427 1.76563,-5.39583 1.76563,-4.6875 C1.76563,-4.16667 1.77865,-3.67708 1.80469,-3.21875 C1.83073,-2.76042 1.89844,-2.28646 2.00781,-1.79688 C2.11719,-1.30729 2.29427,-0.895833 2.53906,-0.5625 C2.78385,-0.229167 3.10417,-0.0625 3.5,-0.0625 "/>
</g>

<g fill="#212121" fill-opacity="1" stroke="none" transform="matrix(0.75,0,0,0.75,232.514,279.34)"
font-family="MS Shell Dlg 2" font-size="8.25" font-weight="400" font-style="normal" 
>
<path vector-effect="none" fill-rule="evenodd" d="M1.29688,0 L1.29688,-0.5 C2.46354,-0.5 3.04688,-0.645833 3.04688,-0.9375 L3.04688,-8.28125 C2.56771,-8.05208 1.95833,-7.9375 1.21875,-7.9375 L1.21875,-8.42188 C2.36458,-8.42188 3.22917,-8.72396 3.8125,-9.32813 L4,-9.32813 C4.03125,-9.32813 4.0625,-9.3151 4.09375,-9.28906 C4.125,-9.26302 4.14063,-9.23438 4.14063,-9.20313 L4.14063,-0.9375 C4.14063,-0.645833 4.72396,-0.5 5.89063,-0.5 L5.89063,0 L1.29688,0"/>
</g>

<g fill="#212121" fill-opacity="1" stroke="none" transform="matrix(0,-0.75,0.75,0,6.75,139.778)"
font-family="MS Shell Dlg 2" font-size="8.25" font-weight="400" font-style="normal" 
>
<path vector-effect="none" fill-rule="evenodd" d="M1.25,-0.46875 C1.4375,-0.322917 1.70313,-0.25 2.04688,-0.25 C2.38021,-0.25 2.67448,-0.408854 2.92969,-0.726563 C3.1849,-1.04427 3.35938,-1.39583 3.45313,-1.78125 L4.1875,-4.60938 C4.30208,-5.13021 4.35938,-5.48438 4.35938,-5.67188 C4.35938,-5.93229 4.28385,-6.16146 4.13281,-6.35938 C3.98177,-6.55729 3.77604,-6.65625 3.51563,-6.65625 C3.17188,-6.65625 2.85156,-6.55208 2.55469,-6.34375 C2.25781,-6.13542 2.00781,-5.86719 1.80469,-5.53906 C1.60156,-5.21094 1.45833,-4.88021 1.375,-4.54688 C1.35417,-4.48438 1.3125,-4.45313 1.25,-4.45313 L1.0625,-4.45313 C0.979167,-4.45313 0.9375,-4.5 0.9375,-4.59375 L0.9375,-4.64063 C1.04167,-5.03646 1.21875,-5.42448 1.46875,-5.80469 C1.71875,-6.1849 2.02344,-6.49219 2.38281,-6.72656 C2.74219,-6.96094 3.13021,-7.07813 3.54688,-7.07813 C3.93229,-7.07813 4.28385,-6.97396 4.60156,-6.76563 C4.91927,-6.55729 5.14063,-6.27083 5.26563,-5.90625 C5.45313,-6.23958 5.6875,-6.51823 5.96875,-6.74219 C6.25,-6.96615 6.5625,-7.07813 6.90625,-7.07813 C7.13542,-7.07813 7.36979,-7.03646 7.60938,-6.95313 C7.84896,-6.86979 8.04427,-6.74479 8.19531,-6.57813 C8.34635,-6.41146 8.42188,-6.20313 8.42188,-5.95313 C8.42188,-5.68229 8.33333,-5.45052 8.15625,-5.25781 C7.97917,-5.0651 7.75521,-4.96875 7.48438,-4.96875 C7.31771,-4.96875 7.17708,-5.02344 7.0625,-5.13281 C6.94792,-5.24219 6.89063,-5.38021 6.89063,-5.54688 C6.89063,-5.76563 6.96615,-5.96094 7.11719,-6.13281 C7.26823,-6.30469 7.45313,-6.40625 7.67188,-6.4375 C7.47396,-6.58333 7.20833,-6.65625 6.875,-6.65625 C6.53125,-6.65625 6.23177,-6.4974 5.97656,-6.17969 C5.72135,-5.86198 5.54167,-5.51042 5.4375,-5.125 L4.73438,-2.29688 C4.61979,-1.86979 4.5625,-1.51563 4.5625,-1.23438 C4.5625,-0.963542 4.64063,-0.731771 4.79688,-0.539063 C4.95313,-0.346354 5.15625,-0.25 5.40625,-0.25 C5.90625,-0.25 6.35417,-0.46875 6.75,-0.90625 C7.14583,-1.34375 7.40625,-1.82813 7.53125,-2.35938 C7.55208,-2.42188 7.59375,-2.45313 7.65625,-2.45313 L7.84375,-2.45313 C7.88542,-2.45313 7.91927,-2.4375 7.94531,-2.40625 C7.97135,-2.375 7.98438,-2.34375 7.98438,-2.3125 C7.98438,-2.30208 7.97917,-2.28646 7.96875,-2.26563 C7.82292,-1.63021 7.50781,-1.0625 7.02344,-0.5625 C6.53906,-0.0625 5.98958,0.1875 5.375,0.1875 C4.98958,0.1875 4.63802,0.0807292 4.32031,-0.132813 C4.0026,-0.346354 3.78125,-0.635417 3.65625,-1 C3.48958,-0.6875 3.25781,-0.411458 2.96094,-0.171875 C2.66406,0.0677083 2.34896,0.1875 2.01563,0.1875 C1.78646,0.1875 1.55208,0.145833 1.3125,0.0625 C1.07292,-0.0208333 0.877604,-0.145833 0.726563,-0.3125 C0.575521,-0.479167 0.5,-0.692708 0.5,-0.953125 C0.5,-1.20313 0.585938,-1.42969 0.757813,-1.63281 C0.929688,-1.83594 1.14583,-1.9375 1.40625,-1.9375 C1.58333,-1.9375 1.73177,-1.88542 1.85156,-1.78125 C1.97135,-1.67708 2.03125,-1.53646 2.03125,-1.35938 C2.03125,-1.14063 1.95833,-0.947917 1.8125,-0.78125 C1.66667,-0.614583 1.47917,-0.510417 1.25,-0.46875 "/>
</g>

<g fill="#212121" fill-opacity="1" stroke="none" transform="matrix(0,-0.75,0.75,0,8.56498,132.862)"
font-family="MS Shell Dlg 2" font-size="8.25" font-weight="400" font-style="normal" 
>
<path vector-effect="none" fill-rule="evenodd" d="M0.546875,0 L0.546875,-0.296875 C0.546875,-0.317708 0.552083,-0.338542 0.5625,-0.359375 L2.28125,-2.25 C2.54167,-2.53125 2.75,-2.76563 2.90625,-2.95313 C3.0625,-3.14063 3.22135,-3.35677 3.38281,-3.60156 C3.54427,-3.84635 3.66927,-4.09896 3.75781,-4.35938 C3.84635,-4.61979 3.89063,-4.89063 3.89063,-5.17188 C3.89063,-5.47396 3.83594,-5.76302 3.72656,-6.03906 C3.61719,-6.3151 3.45313,-6.53385 3.23438,-6.69531 C3.01563,-6.85677 2.75,-6.9375 2.4375,-6.9375 C2.11458,-6.9375 1.82552,-6.84115 1.57031,-6.64844 C1.3151,-6.45573 1.13542,-6.20833 1.03125,-5.90625 C1.0625,-5.91667 1.10417,-5.92188 1.15625,-5.92188 C1.32292,-5.92188 1.46354,-5.86719 1.57813,-5.75781 C1.69271,-5.64844 1.75,-5.50521 1.75,-5.32813 C1.75,-5.16146 1.69271,-5.01823 1.57813,-4.89844 C1.46354,-4.77865 1.32292,-4.71875 1.15625,-4.71875 C0.979167,-4.71875 0.833333,-4.77865 0.71875,-4.89844 C0.604167,-5.01823 0.546875,-5.16146 0.546875,-5.32813 C0.546875,-5.59896 0.598958,-5.85677 0.703125,-6.10156 C0.807292,-6.34635 0.955729,-6.5625 1.14844,-6.75 C1.34115,-6.9375 1.5625,-7.08073 1.8125,-7.17969 C2.0625,-7.27865 2.32292,-7.32813 2.59375,-7.32813 C3.01042,-7.32813 3.40104,-7.23958 3.76563,-7.0625 C4.13021,-6.88542 4.41667,-6.63542 4.625,-6.3125 C4.83333,-5.98958 4.9375,-5.60938 4.9375,-5.17188 C4.9375,-4.84896 4.86719,-4.54427 4.72656,-4.25781 C4.58594,-3.97135 4.40885,-3.71094 4.19531,-3.47656 C3.98177,-3.24219 3.70313,-2.97656 3.35938,-2.67969 C3.01563,-2.38281 2.79167,-2.1875 2.6875,-2.09375 L1.4375,-0.890625 L2.5,-0.890625 C3.02083,-0.890625 3.45573,-0.895833 3.80469,-0.90625 C4.15365,-0.916667 4.33854,-0.932292 4.35938,-0.953125 C4.44271,-1.03646 4.53125,-1.36979 4.625,-1.95313 L4.9375,-1.95313 L4.625,0 L0.546875,0"/>
</g>

<g fill="#212121" fill-opacity="1" stroke="#212121" stroke-opacity="1" stroke-width="1.06667" stroke-linecap="square" stroke-linejoin="round" transform="matrix(0.75,0,0,0.75,-14.319,-30.35)"
font-family="MS Shell Dlg 2" font-size="8.25" font-weight="400" font-style="normal" 
>
<polyline fill="none" vector-effect="none" points="59,395 59,43 " />
<polyline fill="none" vector-effect="none" points="411,395 411,43 " />
<polyline fill="none" vector-effect="none" points="59,316.778 62.52,316.778 " />
<polyline fill="none" vector-effect="none" points="407.48,316.778 411,316.778 " />
<polyline fill="none" vector-effect="none" points="59,219 62.52,219 " />
<polyline fill="none" vector-effect="none" points="407.48,219 411,219 " />
<polyline fill="none" vector-effect="none" points="59,121.222 62.52,121.222 " />
<polyline fill="none" vector-effect="none" points="407.48,121.222 411,121.222 " />
</g>

<g fill="#212121" fill-opacity="1" stroke="none" transform="matrix(0.75,0,0,0.75,16.5644,209.873)"
font-family="MS Shell Dlg 2" font-size="8.25" font-weight="400" font-style="normal" 
>
<path vector-effect="none" fill-rule="evenodd" d="M0.15625,-2.59375 L0.15625,-3.45313 L3.85938,-3.45313 L3.85938,-2.59375 L0.15625,-2.59375"/>
</g>

<g fill="#212121" fill-opacity="1" stroke="none" transform="matrix(0.75,0,0,0.75,20.231,209.873)"
font-family="MS Shell Dlg 2" font-size="8.25" font-weight="400" font-style="normal" 
>
<path vector-effect="none" fill-rule="evenodd" d="M1.29688,0 L1.29688,-0.5 C2.46354,-0.5 3.04688,-0.645833 3.04688,-0.9375 L3.04688,-8.28125 C2.56771,-8.05208 1.95833,-7.9375 1.21875,-7.9375 L1.21875,-8.42188 C2.36458,-8.42188 3.22917,-8.72396 3.8125,-9.32813 L4,-9.32813 C4.03125,-9.32813 4.0625,-9.3151 4.09375,-9.28906 C4.125,-9.26302 4.14063,-9.23438 4.14063,-9.20313 L4.14063,-0.9375 C4.14063,-0.645833 4.72396,-0.5 5.89063,-0.5 L5.89063,0 L1.29688,0"/>
</g>

<g fill="#212121" fill-opacity="1" stroke="none" transform="matrix(0.75,0,0,0.75,20.231,136.54)"
font-family="MS Shell Dlg 2" font-size="8.25" font-weight="400" font-style="normal" 
>
<path vector-effect="none" fill-rule="evenodd" d="M3.5,0.3125 C2.35417,0.3125 1.57552,-0.158854 1.16406,-1.10156 C0.752604,-2.04427 0.546875,-3.16667 0.546875,-4.46875 C0.546875,-5.28125 0.619792,-6.04427 0.765625,-6.75781 C0.911458,-7.47135 1.20573,-8.07813 1.64844,-8.57813 C2.09115,-9.07813 2.70833,-9.32813 3.5,-9.32813 C4.11458,-9.32813 4.61719,-9.17708 5.00781,-8.875 C5.39844,-8.57292 5.69792,-8.1849 5.90625,-7.71094 C6.11458,-7.23698 6.25521,-6.72656 6.32813,-6.17969 C6.40104,-5.63281 6.4375,-5.0625 6.4375,-4.46875 C6.4375,-3.66667 6.36458,-2.91406 6.21875,-2.21094 C6.07292,-1.50781 5.78385,-0.911458 5.35156,-0.421875 C4.91927,0.0677083 4.30208,0.3125 3.5,0.3125 M3.5,-0.0625 C4.02083,-0.0625 4.40885,-0.328125 4.66406,-0.859375 C4.91927,-1.39063 5.07552,-1.97917 5.13281,-2.625 C5.1901,-3.27083 5.21875,-3.95833 5.21875,-4.6875 C5.21875,-5.39583 5.1901,-6.04427 5.13281,-6.63281 C5.07552,-7.22135 4.91927,-7.75781 4.66406,-8.24219 C4.40885,-8.72656 4.02083,-8.96875 3.5,-8.96875 C2.96875,-8.96875 2.57552,-8.72656 2.32031,-8.24219 C2.0651,-7.75781 1.90885,-7.22135 1.85156,-6.63281 C1.79427,-6.04427 1.76563,-5.39583 1.76563,-4.6875 C1.76563,-4.16667 1.77865,-3.67708 1.80469,-3.21875 C1.83073,-2.76042 1.89844,-2.28646 2.00781,-1.79688 C2.11719,-1.30729 2.29427,-0.895833 2.53906,-0.5625 C2.78385,-0.229167 3.10417,-0.0625 3.5,-0.0625 "/>
</g>

<g fill="#212121" fill-opacity="1" stroke="none" transform="matrix(0.75,0,0,0.75,20.231,63.2066)"
font-family="MS Shell Dlg 2" font-size="8.25" font-weight="400" font-style="normal" 
>
<path vector-effect="none" fill-rule="evenodd" d="M1.29688,0 L1.29688,-0.5 C2.46354,-0.5 3.04688,-0.645833 3.04688,-0.9375 L3.04688,-8.28125 C2.56771,-8.05208 1.95833,-7.9375 1.21875,-7.9375 L1.21875,-8.42188 C2.36458,-8.42188 3.22917,-8.72396 3.8125,-9.32813 L4,-9.32813 C4.03125,-9.32813 4.0625,-9.3151 4.09375,-9.28906 C4.125,-9.26302 4.14063,-9.23438 4.14063,-9.20313 L4.14063,-0.9375 C4.14063,-0.645833 4.72396,-0.5 5.89063,-0.5 L5.89063,0 L1.29688,0"/>
</g>

<g fill="none" stroke="#000000" stroke-opacity="1" stroke-dasharray="10,6" stroke-dashoffset="0" stroke-width="1.33333" stroke-linecap="butt" stroke-linejoin="round" transform="matrix(0.75,0,0,0.75,-14.319,-30.35)"
font-family="MS Shell Dlg 2" font-size="8.25" font-weight="400" font-style="normal" 
>
<polyline fill="none" vector-effect="none" points="137.222,316.778 332.778,316.778 332.778,121.222 137.222,121.222 137.222,316.778 " />
</g>

<g fill="#000000" fill-opacity="1" stroke="none" transform="matrix(0.75,0,0,0.75,-14.319,-30.35)"
font-family="MS Shell Dlg 2" font-size="8.25" font-weight="400" font-style="normal" 
>
<circle cx="137.222" cy="316.778" r="5.96285"/>
<circle cx="332.778" cy="316.778" r="5.96285"/>
<circle cx="137.222" cy="121.222" r="5.96285"/>
<circle cx="332.778" cy="121.222" r="5.96285"/>
</g>
</g>
</svg>
