<?xml version="1.0" encoding="UTF-8" standalone="no"?>
<svg width="183.092mm" height="68.7917mm"
 viewBox="0 0 519 195"
 xmlns="http://www.w3.org/2000/svg" xmlns:xlink="http://www.w3.org/1999/xlink"  version="1.2" baseProfile="tiny">
<title>Qt SVG Document</title>
<desc>MATLAB, The MathWorks, Inc. Version 25.2.0.3055257 R2025b Update 2</desc>
<defs>
</defs>
<g fill="none" stroke="black" stroke-width="1" fill-rule="evenodd" stroke-linecap="square" stroke-linejoin="bevel" >

<g fill="#ffffff" fill-opacity="1" stroke="none" transform="matrix(0.75,0,0,0.75,-11.925,-11.64)"
font-family="MS Shell Dlg 2" font-size="8.25" font-weight="400" font-style="normal" 
>
<path vector-effect="none" fill-rule="evenodd" d="M14,14 L707,14 L707,275 L14,275 L14,14"/>
</g>

<g fill="#ffffff" fill-opacity="1" stroke="none" transform="matrix(7.5e-05,0,0,7.5e-05,-11.925,-11.64)"
font-family="MS Shell Dlg 2" font-size="8.25" font-weight="400" font-style="normal" 
>
<path vector-effect="none" fill-rule="evenodd" d="M700000,230000 L700000,2.69e+06 L4.88e+06,2.69e+06 L4.88e+06,230000 L700000,230000"/>
</g>

<g fill="#212121" fill-opacity="0.25098" stroke="#212121" stroke-opacity="0.25098" stroke-dasharray="1,3" stroke-dashoffset="0" stroke-width="1.06667" stroke-linecap="butt" stroke-linejoin="round" transform="matrix(0.75,0,0,0.75,-11.925,-11.64)"
font-family="MS Shell Dlg 2" font-size="8.25" font-weight="400" font-style="normal" 
>
<polyline fill="none" vector-effect="none" points="111.054,23 111.054,269 " />
<polyline fill="none" vector-effect="none" points="195.027,23 195.027,269 " />
<polyline fill="none" vector-effect="none" points="279,23 279,269 " />
<polyline fill="none" vector-effect="none" points="362.973,23 362.973,269 " />
<polyline fill="none" vector-effect="none" points="446.946,23 446.946,269 " />
<polyline fill="none" vector-effect="none" points="70,269 488,269 " />
<polyline fill="none" vector-effect="none" points="70,219.8 488,219.8 " />
<polyline fill="none" vector-effect="none" points="70,170.6 488,170.6 " />
<polyline fill="none" vector-effect="none" points="70,121.4 488,121.4 " />
<polyline fill="none" vector-effect="none" points="70,72.2 488,72.2 " />
<polyline fill="none" vector-effect="none" points="70,23 488,23 " />
</g>

<g fill="#212121" fill-opacity="1" stroke="#212121" stroke-opacity="1" stroke-width="0.666667" stroke-linecap="butt" stroke-linejoin="round" transform="matrix(0.75,0,0,0.75,-11.925,-11.64)"
font-family="MS Shell Dlg 2" font-size="8.25" font-weight="400" font-style="normal" 
>
<polyline fill="none" vector-effect="none" points="70,269 488,269 " />
</g>

<g fill="#000000" fill-opacity="1" stroke="none" transform="matrix(7.5e-05,0,0,7.5e-05,-11.925,-11.64)"
font-family="MS Shell Dlg 2" font-size="8.25" font-weight="400" font-style="normal" 
>
<path vector-effect="none" fill-rule="evenodd" d="M849285,234181 L849285,2.69e+06 L998571,2.69e+06 L998571,234181 L849285,234181"/>
</g>

<g fill="#000000" fill-opacity="1" stroke="none" transform="matrix(7.5e-05,0,0,7.5e-05,-11.925,-11.64)"
font-family="MS Shell Dlg 2" font-size="8.25" font-weight="400" font-style="normal" 
>
<path vector-effect="none" fill-rule="evenodd" d="M1.68902e+06,234428 L1.68902e+06,2.69e+06 L1.8383e+06,2.69e+06 L1.8383e+06,234428 L1.68902e+06,234428"/>
</g>

<g fill="#000000" fill-opacity="1" stroke="none" transform="matrix(7.5e-05,0,0,7.5e-05,-11.925,-11.64)"
font-family="MS Shell Dlg 2" font-size="8.25" font-weight="400" font-style="normal" 
>
<path vector-effect="none" fill-rule="evenodd" d="M2.52875e+06,314378 L2.52875e+06,2.69e+06 L2.67804e+06,2.69e+06 L2.67804e+06,314378 L2.52875e+06,314378"/>
</g>

<g fill="#000000" fill-opacity="1" stroke="none" transform="matrix(7.5e-05,0,0,7.5e-05,-11.925,-11.64)"
font-family="MS Shell Dlg 2" font-size="8.25" font-weight="400" font-style="normal" 
>
<path vector-effect="none" fill-rule="evenodd" d="M3.36848e+06,339224 L3.36848e+06,2.69e+06 L3.51777e+06,2.69e+06 L3.51777e+06,339224 L3.36848e+06,339224"/>
</g>

<g fill="#000000" fill-opacity="1" stroke="none" transform="matrix(7.5e-05,0,0,7.5e-05,-11.925,-11.64)"
font-family="MS Shell Dlg 2" font-size="8.25" font-weight="400" font-style="normal" 
>
<path vector-effect="none" fill-rule="evenodd" d="M4.20821e+06,440084 L4.20821e+06,2.69e+06 L4.3575e+06,2.69e+06 L4.3575e+06,440084 L4.20821e+06,440084"/>
</g>

<g fill="none" stroke="#212121" stroke-opacity="1" stroke-width="0.666667" stroke-linecap="butt" stroke-linejoin="miter" stroke-miterlimit="2" transform="matrix(0.75,0,0,0.75,-11.925,-11.64)"
font-family="MS Shell Dlg 2" font-size="8.25" font-weight="400" font-style="normal" 
>
<path vector-effect="none" fill-rule="evenodd" d="M84.9286,269 L84.9286,23.4182 L99.8571,23.4182 L99.8571,269 L84.9286,269"/>
<path vector-effect="none" fill-rule="evenodd" d="M168.902,269 L168.902,23.4428 L183.83,23.4428 L183.83,269 L168.902,269"/>
<path vector-effect="none" fill-rule="evenodd" d="M252.875,269 L252.875,31.4378 L267.804,31.4378 L267.804,269 L252.875,269"/>
<path vector-effect="none" fill-rule="evenodd" d="M336.848,269 L336.848,33.9224 L351.777,33.9224 L351.777,269 L336.848,269"/>
<path vector-effect="none" fill-rule="evenodd" d="M420.821,269 L420.821,44.0084 L435.75,44.0084 L435.75,269 L420.821,269"/>
</g>

<g fill="#999999" fill-opacity="1" stroke="none" transform="matrix(7.5e-05,0,0,7.5e-05,-11.925,-11.64)"
font-family="MS Shell Dlg 2" font-size="8.25" font-weight="400" font-style="normal" 
>
<path vector-effect="none" fill-rule="evenodd" d="M1.03589e+06,324709 L1.03589e+06,2.69e+06 L1.18518e+06,2.69e+06 L1.18518e+06,324709 L1.03589e+06,324709"/>
</g>

<g fill="#999999" fill-opacity="1" stroke="none" transform="matrix(7.5e-05,0,0,7.5e-05,-11.925,-11.64)"
font-family="MS Shell Dlg 2" font-size="8.25" font-weight="400" font-style="normal" 
>
<path vector-effect="none" fill-rule="evenodd" d="M1.87563e+06,365300 L1.87563e+06,2.69e+06 L2.02491e+06,2.69e+06 L2.02491e+06,365300 L1.87563e+06,365300"/>
</g>

<g fill="#999999" fill-opacity="1" stroke="none" transform="matrix(7.5e-05,0,0,7.5e-05,-11.925,-11.64)"
font-family="MS Shell Dlg 2" font-size="8.25" font-weight="400" font-style="normal" 
>
<path vector-effect="none" fill-rule="evenodd" d="M2.71536e+06,352753 L2.71536e+06,2.69e+06 L2.86464e+06,2.69e+06 L2.86464e+06,352753 L2.71536e+06,352753"/>
</g>

<g fill="#999999" fill-opacity="1" stroke="none" transform="matrix(7.5e-05,0,0,7.5e-05,-11.925,-11.64)"
font-family="MS Shell Dlg 2" font-size="8.25" font-weight="400" font-style="normal" 
>
<path vector-effect="none" fill-rule="evenodd" d="M3.55509e+06,1.36357e+06 L3.55509e+06,2.69e+06 L3.70438e+06,2.69e+06 L3.70438e+06,1.36357e+06 L3.55509e+06,1.36357e+06"/>
</g>

<g fill="#999999" fill-opacity="1" stroke="none" transform="matrix(7.5e-05,0,0,7.5e-05,-11.925,-11.64)"
font-family="MS Shell Dlg 2" font-size="8.25" font-weight="400" font-style="normal" 
>
<path vector-effect="none" fill-rule="evenodd" d="M4.39482e+06,1.20834e+06 L4.39482e+06,2.69e+06 L4.54411e+06,2.69e+06 L4.54411e+06,1.20834e+06 L4.39482e+06,1.20834e+06"/>
</g>

<g fill="none" stroke="#212121" stroke-opacity="1" stroke-width="0.666667" stroke-linecap="butt" stroke-linejoin="miter" stroke-miterlimit="2" transform="matrix(0.75,0,0,0.75,-11.925,-11.64)"
font-family="MS Shell Dlg 2" font-size="8.25" font-weight="400" font-style="normal" 
>
<path vector-effect="none" fill-rule="evenodd" d="M103.589,269 L103.589,32.471 L118.518,32.471 L118.518,269 L103.589,269"/>
<path vector-effect="none" fill-rule="evenodd" d="M187.563,269 L187.563,36.53 L202.491,36.53 L202.491,269 L187.563,269"/>
<path vector-effect="none" fill-rule="evenodd" d="M271.536,269 L271.536,35.2754 L286.464,35.2754 L286.464,269 L271.536,269"/>
<path vector-effect="none" fill-rule="evenodd" d="M355.509,269 L355.509,136.357 L370.438,136.357 L370.438,269 L355.509,269"/>
<path vector-effect="none" fill-rule="evenodd" d="M439.482,269 L439.482,120.834 L454.411,120.834 L454.411,269 L439.482,269"/>
</g>

<g fill="#4d4d4d" fill-opacity="1" stroke="none" transform="matrix(7.5e-05,0,0,7.5e-05,-11.925,-11.64)"
font-family="MS Shell Dlg 2" font-size="8.25" font-weight="400" font-style="normal" 
>
<path vector-effect="none" fill-rule="evenodd" d="M1.2225e+06,558656 L1.2225e+06,2.69e+06 L1.37179e+06,2.69e+06 L1.37179e+06,558656 L1.2225e+06,558656"/>
</g>

<g fill="#4d4d4d" fill-opacity="1" stroke="none" transform="matrix(7.5e-05,0,0,7.5e-05,-11.925,-11.64)"
font-family="MS Shell Dlg 2" font-size="8.25" font-weight="400" font-style="normal" 
>
<path vector-effect="none" fill-rule="evenodd" d="M2.06223e+06,306997 L2.06223e+06,2.69e+06 L2.21152e+06,2.69e+06 L2.21152e+06,306997 L2.06223e+06,306997"/>
</g>

<g fill="#4d4d4d" fill-opacity="1" stroke="none" transform="matrix(7.5e-05,0,0,7.5e-05,-11.925,-11.64)"
font-family="MS Shell Dlg 2" font-size="8.25" font-weight="400" font-style="normal" 
>
<path vector-effect="none" fill-rule="evenodd" d="M2.90196e+06,230000 L2.90196e+06,2.69e+06 L3.05125e+06,2.69e+06 L3.05125e+06,230000 L2.90196e+06,230000"/>
</g>

<g fill="#4d4d4d" fill-opacity="1" stroke="none" transform="matrix(7.5e-05,0,0,7.5e-05,-11.925,-11.64)"
font-family="MS Shell Dlg 2" font-size="8.25" font-weight="400" font-style="normal" 
>
<path vector-effect="none" fill-rule="evenodd" d="M3.7417e+06,1.74044e+06 L3.7417e+06,2.69e+06 L3.89098e+06,2.69e+06 L3.89098e+06,1.74044e+06 L3.7417e+06,1.74044e+06"/>
</g>

<g fill="#4d4d4d" fill-opacity="1" stroke="none" transform="matrix(7.5e-05,0,0,7.5e-05,-11.925,-11.64)"
font-family="MS Shell Dlg 2" font-size="8.25" font-weight="400" font-style="normal" 
>
<path vector-effect="none" fill-rule="evenodd" d="M4.58143e+06,366775 L4.58143e+06,2.69e+06 L4.73071e+06,2.69e+06 L4.73071e+06,366775 L4.58143e+06,366775"/>
</g>

<g fill="none" stroke="#212121" stroke-opacity="1" stroke-width="0.666667" stroke-linecap="butt" stroke-linejoin="miter" stroke-miterlimit="2" transform="matrix(0.75,0,0,0.75,-11.925,-11.64)"
font-family="MS Shell Dlg 2" font-size="8.25" font-weight="400" font-style="normal" 
>
<path vector-effect="none" fill-rule="evenodd" d="M122.25,269 L122.25,55.8656 L137.179,55.8656 L137.179,269 L122.25,269"/>
<path vector-effect="none" fill-rule="evenodd" d="M206.223,269 L206.223,30.6998 L221.152,30.6998 L221.152,269 L206.223,269"/>
<path vector-effect="none" fill-rule="evenodd" d="M290.196,269 L290.196,23 L305.125,23 L305.125,269 L290.196,269"/>
<path vector-effect="none" fill-rule="evenodd" d="M374.17,269 L374.17,174.044 L389.098,174.044 L389.098,269 L374.17,269"/>
<path vector-effect="none" fill-rule="evenodd" d="M458.143,269 L458.143,36.6776 L473.071,36.6776 L473.071,269 L458.143,269"/>
</g>

<g fill="#000000" fill-opacity="1" stroke="#000000" stroke-opacity="1" stroke-width="0.533333" stroke-linecap="butt" stroke-linejoin="miter" stroke-miterlimit="2" transform="matrix(0.75,0,0,0.75,-11.925,-11.64)"
font-family="MS Shell Dlg 2" font-size="8.25" font-weight="400" font-style="normal" 
>
<polyline fill="none" vector-effect="none" points="88.3929,23.4182 96.3929,23.4182 " />
<polyline fill="none" vector-effect="none" points="172.366,23.4428 180.366,23.4428 " />
<polyline fill="none" vector-effect="none" points="256.339,31.4378 264.339,31.4378 " />
<polyline fill="none" vector-effect="none" points="340.313,33.9224 348.313,33.9224 " />
<polyline fill="none" vector-effect="none" points="424.286,44.0084 432.286,44.0084 " />
<polyline fill="none" vector-effect="none" points="88.3929,23.4182 96.3929,23.4182 " />
<polyline fill="none" vector-effect="none" points="172.366,23.4428 180.366,23.4428 " />
<polyline fill="none" vector-effect="none" points="256.339,31.4378 264.339,31.4378 " />
<polyline fill="none" vector-effect="none" points="340.313,33.9224 348.313,33.9224 " />
<polyline fill="none" vector-effect="none" points="424.286,44.0084 432.286,44.0084 " />
</g>

<g fill="#000000" fill-opacity="1" stroke="#000000" stroke-opacity="1" stroke-width="0.533333" stroke-linecap="butt" stroke-linejoin="miter" stroke-miterlimit="2" transform="matrix(0.75,0,0,0.75,-11.925,-11.64)"
font-family="MS Shell Dlg 2" font-size="8.25" font-weight="400" font-style="normal" 
>
<polyline fill="none" vector-effect="none" points="107.054,32.471 115.054,32.471 " />
<polyline fill="none" vector-effect="none" points="191.027,36.53 199.027,36.53 " />
<polyline fill="none" vector-effect="none" points="275,35.2754 283,35.2754 " />
<polyline fill="none" vector-effect="none" points="358.973,136.357 366.973,136.357 " />
<polyline fill="none" vector-effect="none" points="442.946,120.834 450.946,120.834 " />
<polyline fill="none" vector-effect="none" points="107.054,32.471 115.054,32.471 " />
<polyline fill="none" vector-effect="none" points="191.027,36.53 199.027,36.53 " />
<polyline fill="none" vector-effect="none" points="275,35.2754 283,35.2754 " />
<polyline fill="none" vector-effect="none" points="358.973,136.357 366.973,136.357 " />
<polyline fill="none" vector-effect="none" points="442.946,120.834 450.946,120.834 " />
</g>

<g fill="#000000" fill-opacity="1" stroke="#000000" stroke-opacity="1" stroke-width="0.533333" stroke-linecap="butt" stroke-linejoin="miter" stroke-miterlimit="2" transform="matrix(0.75,0,0,0.75,-11.925,-11.64)"
font-family="MS Shell Dlg 2" font-size="8.25" font-weight="400" font-style="normal" 
>
<polyline fill="none" vector-effect="none" points="125.714,55.8656 133.714,55.8656 " />
<polyline fill="none" vector-effect="none" points="209.688,30.6998 217.688,30.6998 " />
<polyline fill="none" vector-effect="none" points="293.661,23 301.661,23 " />
<polyline fill="none" vector-effect="none" points="377.634,174.044 385.634,174.044 " />
<polyline fill="none" vector-effect="none" points="461.607,36.6776 469.607,36.6776 " />
<polyline fill="none" vector-effect="none" points="125.714,55.8656 133.714,55.8656 " />
<polyline fill="none" vector-effect="none" points="209.688,30.6998 217.688,30.6998 " />
<polyline fill="none" vector-effect="none" points="293.661,23 301.661,23 " />
<polyline fill="none" vector-effect="none" points="377.634,174.044 385.634,174.044 " />
<polyline fill="none" vector-effect="none" points="461.607,36.6776 469.607,36.6776 " />
</g>

<g fill="#212121" fill-opacity="1" stroke="#212121" stroke-opacity="1" stroke-width="1.06667" stroke-linecap="square" stroke-linejoin="round" transform="matrix(0.75,0,0,0.75,-11.925,-11.64)"
font-family="MS Shell Dlg 2" font-size="8.25" font-weight="400" font-style="normal" 
>
<polyline fill="none" vector-effect="none" points="70,269 488,269 " />
<polyline fill="none" vector-effect="none" points="70,23 488,23 " />
<polyline fill="none" vector-effect="none" points="111.054,269 111.054,264.82 " />
<polyline fill="none" vector-effect="none" points="111.054,27.18 111.054,23 " />
<polyline fill="none" vector-effect="none" points="195.027,269 195.027,264.82 " />
<polyline fill="none" vector-effect="none" points="195.027,27.18 195.027,23 " />
<polyline fill="none" vector-effect="none" points="279,269 279,264.82 " />
<polyline fill="none" vector-effect="none" points="279,27.18 279,23 " />
<polyline fill="none" vector-effect="none" points="362.973,269 362.973,264.82 " />
<polyline fill="none" vector-effect="none" points="362.973,27.18 362.973,23 " />
<polyline fill="none" vector-effect="none" points="446.946,269 446.946,264.82 " />
<polyline fill="none" vector-effect="none" points="446.946,27.18 446.946,23 " />
</g>

<g fill="#212121" fill-opacity="1" stroke="none" transform="matrix(0,-0.75,0.75,0,10.5,153.735)"
font-family="MS Shell Dlg 2" font-size="8.25" font-weight="400" font-style="normal" 
>
<path vector-effect="none" fill-rule="evenodd" d="M0.453125,-0.46875 C0.546875,-1.04167 0.619792,-1.78646 0.671875,-2.70313 L0.75,-2.76563 L1.09375,-2.76563 L1.15625,-2.6875 C1.17708,-1.88542 1.19271,-1.42188 1.20313,-1.29688 C1.52604,-0.984375 1.85677,-0.744792 2.19531,-0.578125 C2.53385,-0.411458 2.96875,-0.328125 3.5,-0.328125 L3.5,-4.75 C2.95833,-4.82292 2.51563,-4.90625 2.17188,-5 C1.82813,-5.09375 1.52083,-5.2526 1.25,-5.47656 C0.979167,-5.70052 0.778646,-5.97135 0.648438,-6.28906 C0.518229,-6.60677 0.453125,-6.96875 0.453125,-7.375 C0.453125,-8.15625 0.700521,-8.85417 1.19531,-9.46875 C1.6901,-10.0833 2.45833,-10.4688 3.5,-10.625 C3.48958,-11.125 3.47917,-11.4531 3.46875,-11.6094 L3.54688,-11.6875 L4.09375,-11.6875 L4.17188,-11.6094 C4.16146,-11.5677 4.15104,-11.25 4.14063,-10.6563 C5.40104,-10.5625 6.27083,-10.349 6.75,-10.0156 L6.78125,-9.92188 C6.73958,-9.75521 6.70833,-9.60156 6.6875,-9.46094 C6.66667,-9.32031 6.64583,-9.11979 6.625,-8.85938 L6.5625,-8.04688 L6.5,-7.98438 L6.1875,-7.98438 L6.125,-8.04688 C6.10417,-8.55729 6.05729,-8.98438 5.98438,-9.32813 C5.55729,-9.81771 4.94271,-10.0729 4.14063,-10.0938 L4.14063,-5.96875 C4.78646,-5.875 5.29688,-5.77865 5.67188,-5.67969 C6.04688,-5.58073 6.375,-5.42448 6.65625,-5.21094 C6.9375,-4.9974 7.14583,-4.73698 7.28125,-4.42969 C7.41667,-4.1224 7.48438,-3.77083 7.48438,-3.375 C7.48438,-2.75 7.34896,-2.18229 7.07813,-1.67188 C6.80729,-1.16146 6.45052,-0.755208 6.00781,-0.453125 C5.5651,-0.151042 4.94271,0.0833333 4.14063,0.25 C4.15104,1.04167 4.16667,1.55729 4.1875,1.79688 L4.125,1.85938 L3.54688,1.85938 L3.46875,1.79688 C3.47917,1.61979 3.48958,1.11458 3.5,0.28125 C2.39583,0.260417 1.40104,0.046875 0.515625,-0.359375 L0.453125,-0.46875 M3.5,-10.0625 C3.16667,-10.0208 2.875,-9.93229 2.625,-9.79688 C2.375,-9.66146 2.15365,-9.42969 1.96094,-9.10156 C1.76823,-8.77344 1.67188,-8.36458 1.67188,-7.875 C1.67188,-7.20833 1.85156,-6.75 2.21094,-6.5 C2.57031,-6.25 3,-6.09896 3.5,-6.04688 L3.5,-10.0625 M4.14063,-0.359375 C4.74479,-0.380208 5.24479,-0.619792 5.64063,-1.07813 C6.03646,-1.53646 6.23438,-2.09896 6.23438,-2.76563 C6.23438,-3.28646 6.08854,-3.70313 5.79688,-4.01563 C5.50521,-4.32813 4.95313,-4.54688 4.14063,-4.67188 L4.14063,-0.359375 M15.2344,1.84375 L15.1875,1.92188 L14.4219,1.92188 L14.3281,1.85938 L10.1094,-11.5625 L10.1719,-11.6406 L10.9375,-11.6406 L11.0156,-11.5781 L15.2344,1.84375 M18.7969,-2.29688 L19.125,-2.29688 L19.2031,-2.23438 C19.2135,-1.79688 19.2396,-1.42188 19.2813,-1.10938 C19.4375,-0.859375 19.7135,-0.658854 20.1094,-0.507813 C20.5052,-0.356771 20.8958,-0.28125 21.2813,-0.28125 C21.8333,-0.28125 22.276,-0.429688 22.6094,-0.726563 C22.9427,-1.02344 23.1094,-1.375 23.1094,-1.78125 C23.1094,-2.01042 23.0495,-2.20573 22.9297,-2.36719 C22.8099,-2.52865 22.6276,-2.66406 22.3828,-2.77344 C22.138,-2.88281 21.7031,-3.01042 21.0781,-3.15625 C20.5469,-3.28125 20.1745,-3.3776 19.9609,-3.44531 C19.7474,-3.51302 19.5417,-3.63021 19.3438,-3.79688 C19.1458,-3.96354 18.9948,-4.16927 18.8906,-4.41406 C18.7865,-4.65885 18.7344,-4.92708 18.7344,-5.21875 C18.7344,-5.91667 19.0104,-6.47396 19.5625,-6.89063 C20.1146,-7.30729 20.8073,-7.51563 21.6406,-7.51563 C21.9844,-7.51563 22.362,-7.46875 22.7734,-7.375 C23.1849,-7.28125 23.5,-7.1875 23.7188,-7.09375 L23.7813,-6.98438 C23.7396,-6.77604 23.7135,-6.22917 23.7031,-5.34375 L23.6406,-5.28125 L23.3281,-5.28125 L23.25,-5.34375 C23.2292,-5.66667 23.2005,-5.89063 23.1641,-6.01563 C23.1276,-6.14063 23.0339,-6.27865 22.8828,-6.42969 C22.7318,-6.58073 22.5182,-6.70573 22.2422,-6.80469 C21.9661,-6.90365 21.6771,-6.95313 21.375,-6.95313 C21.0521,-6.95313 20.7839,-6.90625 20.5703,-6.8125 C20.3568,-6.71875 20.1823,-6.57813 20.0469,-6.39063 C19.9115,-6.20313 19.8438,-5.97396 19.8438,-5.70313 C19.8438,-5.50521 19.8854,-5.32813 19.9688,-5.17188 C20.0521,-5.01563 20.1771,-4.88802 20.3438,-4.78906 C20.5104,-4.6901 20.6823,-4.61979 20.8594,-4.57813 L21.7188,-4.35938 C22.4479,-4.18229 22.9688,-4.02865 23.2813,-3.89844 C23.5938,-3.76823 23.8359,-3.57292 24.0078,-3.3125 C24.1797,-3.05208 24.2656,-2.73438 24.2656,-2.35938 C24.2656,-1.64063 23.9688,-1.02083 23.375,-0.5 C22.7813,0.0208333 22.0208,0.28125 21.0938,0.28125 C20.7604,0.28125 20.3516,0.244792 19.8672,0.171875 C19.3828,0.0989583 18.9688,0.015625 18.625,-0.078125 L18.5781,-0.1875 L18.6563,-0.703125 C18.6875,-0.869792 18.7057,-1.03385 18.7109,-1.19531 C18.7161,-1.35677 18.7188,-1.70313 18.7188,-2.23438 L18.7969,-2.29688 M25.3594,4.25 C25.5365,3.8125 25.6667,3.41146 25.75,3.04688 L25.9375,3.04688 C26.1979,3.31771 26.474,3.45313 26.7656,3.45313 C27.1406,3.45313 27.4635,3.27083 27.7344,2.90625 C28.0052,2.54167 28.3906,1.72917 28.8906,0.46875 C28.6927,-0.09375 28.4948,-0.619792 28.2969,-1.10938 L27.0469,-4.1875 C26.9219,-4.51042 26.7318,-4.96615 26.4766,-5.55469 C26.2214,-6.14323 26.0677,-6.46875 26.0156,-6.53125 C25.9635,-6.59375 25.8984,-6.65104 25.8203,-6.70313 C25.7422,-6.75521 25.5313,-6.80208 25.1875,-6.84375 L25.125,-6.90625 L25.125,-7.21875 L25.2031,-7.28125 C25.7969,-7.25 26.4115,-7.23438 27.0469,-7.23438 C27.7865,-7.23438 28.3542,-7.25 28.75,-7.28125 L28.8125,-7.21875 L28.8125,-6.90625 L28.7656,-6.84375 C28.7031,-6.84375 28.5417,-6.83333 28.2813,-6.8125 C28.0208,-6.79167 27.8568,-6.75 27.7891,-6.6875 C27.7214,-6.625 27.6875,-6.55208 27.6875,-6.46875 C27.6875,-6.375 27.7682,-6.08594 27.9297,-5.60156 C28.0911,-5.11719 28.25,-4.6875 28.4063,-4.3125 L28.8906,-3.09375 C29.2135,-2.29167 29.4635,-1.69792 29.6406,-1.3125 L30.0625,-2.23438 C30.2083,-2.56771 30.4167,-3.07292 30.6875,-3.75 L31.3281,-5.40625 C31.4948,-5.83333 31.5911,-6.09896 31.6172,-6.20313 C31.6432,-6.30729 31.6563,-6.38021 31.6563,-6.42188 C31.6563,-6.53646 31.6146,-6.61458 31.5313,-6.65625 C31.4479,-6.69792 31.2604,-6.73438 30.9688,-6.76563 L30.6406,-6.8125 L30.5938,-6.875 L30.5938,-7.21875 L30.6563,-7.28125 C31.0938,-7.25 31.6094,-7.23438 32.2031,-7.23438 C32.7552,-7.23438 33.1927,-7.25 33.5156,-7.28125 L33.5781,-7.21875 L33.5781,-6.875 L33.5156,-6.8125 C33.3281,-6.8125 33.1771,-6.78906 33.0625,-6.74219 C32.9479,-6.69531 32.8385,-6.61198 32.7344,-6.49219 C32.6302,-6.3724 32.4427,-6.03385 32.1719,-5.47656 C31.901,-4.91927 31.6302,-4.34375 31.3594,-3.75 L30.5938,-2.07813 L28.7813,2.15625 C28.625,2.52083 28.4323,2.91146 28.2031,3.32813 C27.974,3.74479 27.6901,4.04427 27.3516,4.22656 C27.013,4.40885 26.6563,4.5 26.2813,4.5 C25.9583,4.5 25.651,4.41667 25.3594,4.25 M36.875,-7.45313 L37.0313,-7.34375 C37,-7 36.9792,-6.58854 36.9688,-6.10938 L37.7031,-6.79688 C37.9115,-6.98438 38.0495,-7.10677 38.1172,-7.16406 C38.1849,-7.22135 38.3438,-7.28646 38.5938,-7.35938 C38.8438,-7.43229 39.1094,-7.46875 39.3906,-7.46875 C39.9115,-7.46875 40.3672,-7.33854 40.7578,-7.07813 C41.1484,-6.81771 41.4375,-6.46354 41.625,-6.01563 C42.3229,-6.68229 42.7318,-7.05208 42.8516,-7.125 C42.9714,-7.19792 43.1589,-7.27083 43.4141,-7.34375 C43.6693,-7.41667 43.9219,-7.45313 44.1719,-7.45313 C44.5885,-7.45313 44.9688,-7.36458 45.3125,-7.1875 C45.6563,-7.01042 45.9297,-6.77865 46.1328,-6.49219 C46.3359,-6.20573 46.4531,-5.89583 46.4844,-5.5625 C46.5156,-5.22917 46.5313,-4.77083 46.5313,-4.1875 L46.5313,-3.375 C46.5313,-3.28125 46.5469,-2.63021 46.5781,-1.42188 C46.5885,-0.932292 46.6432,-0.640625 46.7422,-0.546875 C46.8411,-0.453125 47.1615,-0.40625 47.7031,-0.40625 L47.7656,-0.34375 L47.7656,0 L47.7031,0.0625 C47.0469,0.0208333 46.599,0 46.3594,0 C46.2344,0 45.8594,0.0208333 45.2344,0.0625 L45.125,-0.03125 C45.1979,-0.708333 45.2344,-1.58854 45.2344,-2.67188 L45.2344,-3.60938 C45.2344,-4.44271 45.1953,-5.02344 45.1172,-5.35156 C45.0391,-5.67969 44.8568,-5.95052 44.5703,-6.16406 C44.2839,-6.3776 43.9427,-6.48438 43.5469,-6.48438 C43.2656,-6.48438 43.0026,-6.42708 42.7578,-6.3125 C42.513,-6.19792 42.2917,-6.03125 42.0938,-5.8125 C41.8958,-5.59375 41.7865,-5.38802 41.7656,-5.19531 C41.7448,-5.0026 41.7344,-4.65104 41.7344,-4.14063 L41.7344,-3.17188 C41.7344,-2.94271 41.7448,-2.51302 41.7656,-1.88281 C41.7865,-1.2526 41.8099,-0.885417 41.8359,-0.78125 C41.862,-0.677083 41.8984,-0.601563 41.9453,-0.554688 C41.9922,-0.507813 42.0495,-0.479167 42.1172,-0.46875 C42.1849,-0.458333 42.4635,-0.4375 42.9531,-0.40625 L43.0313,-0.34375 L43.0313,-0.015625 L42.9688,0.0625 C42.3125,0.0208333 41.6823,0 41.0781,0 C40.526,0 39.901,0.0208333 39.2031,0.0625 L39.1406,-0.015625 L39.1406,-0.34375 L39.2031,-0.40625 C39.7135,-0.4375 40,-0.460938 40.0625,-0.476563 C40.125,-0.492188 40.1823,-0.523438 40.2344,-0.570313 C40.2865,-0.617188 40.3203,-0.692708 40.3359,-0.796875 C40.3516,-0.901042 40.3724,-1.23698 40.3984,-1.80469 C40.4245,-2.3724 40.4375,-2.80208 40.4375,-3.09375 L40.4375,-3.98438 C40.4375,-4.57813 40.3958,-5.03385 40.3125,-5.35156 C40.2292,-5.66927 40.0547,-5.9375 39.7891,-6.15625 C39.5234,-6.375 39.1927,-6.48438 38.7969,-6.48438 C38.4844,-6.48438 38.1979,-6.42188 37.9375,-6.29688 C37.6771,-6.17188 37.4661,-6.02083 37.3047,-5.84375 C37.1432,-5.66667 37.0417,-5.5 37,-5.34375 C36.9583,-5.1875 36.9375,-4.84896 36.9375,-4.32813 L36.9375,-3.17188 C36.9375,-2.94271 36.9479,-2.51302 36.9688,-1.88281 C36.9896,-1.2526 37.013,-0.885417 37.0391,-0.78125 C37.0651,-0.677083 37.1016,-0.601563 37.1484,-0.554688 C37.1953,-0.507813 37.2526,-0.479167 37.3203,-0.46875 C37.388,-0.458333 37.6667,-0.4375 38.1563,-0.40625 L38.2344,-0.34375 L38.2344,-0.015625 L38.1719,0.0625 C37.5156,0.0208333 36.8854,0 36.2813,0 C35.6875,0 35.0625,0.0208333 34.4063,0.0625 L34.3438,-0.015625 L34.3438,-0.34375 L34.4063,-0.40625 C34.9167,-0.4375 35.2031,-0.460938 35.2656,-0.476563 C35.3281,-0.492188 35.3854,-0.523438 35.4375,-0.570313 C35.4896,-0.617188 35.5234,-0.692708 35.5391,-0.796875 C35.5547,-0.901042 35.5755,-1.23698 35.6016,-1.80469 C35.6276,-2.3724 35.6406,-2.80208 35.6406,-3.09375 L35.6406,-4.64063 C35.6406,-4.84896 35.6302,-5.13281 35.6094,-5.49219 C35.5885,-5.85156 35.5703,-6.07292 35.5547,-6.15625 C35.5391,-6.23958 35.4974,-6.29948 35.4297,-6.33594 C35.362,-6.3724 35.2292,-6.39063 35.0313,-6.39063 L34.375,-6.40625 L34.2969,-6.46875 L34.2969,-6.79688 L34.3594,-6.85938 C35.3594,-6.98438 36.1979,-7.18229 36.875,-7.45313 M52.625,2.78125 C51.6146,2.78125 50.9479,2.60938 50.625,2.26563 C50.3229,1.94271 50.1719,1.27604 50.1719,0.265625 L50.1719,-2.4375 C50.1719,-2.89583 50.138,-3.23438 50.0703,-3.45313 C50.0026,-3.67188 49.8802,-3.85938 49.7031,-4.01563 C49.4844,-4.20313 49.2292,-4.29688 48.9375,-4.29688 L48.9375,-4.5 C49.4167,-4.5 49.7552,-4.69792 49.9531,-5.09375 C50.099,-5.38542 50.1719,-5.78646 50.1719,-6.29688 L50.1719,-9.26563 C50.1719,-9.71354 50.2135,-10.0938 50.2969,-10.4063 C50.4427,-10.9167 50.7448,-11.2604 51.2031,-11.4375 C51.526,-11.5625 52,-11.625 52.625,-11.625 L52.625,-11.4375 C52.1771,-11.4375 51.849,-11.2891 51.6406,-10.9922 C51.4323,-10.6953 51.3281,-10.2031 51.3281,-9.51563 L51.3281,-6.5625 C51.3281,-5.94792 51.25,-5.48958 51.0938,-5.1875 C50.8958,-4.8125 50.5313,-4.54688 50,-4.39063 C50.5521,-4.23438 50.9219,-3.96875 51.1094,-3.59375 C51.2552,-3.30208 51.3281,-2.83854 51.3281,-2.20313 L51.3281,0.703125 C51.3281,1.69271 51.5573,2.29167 52.0156,2.5 C52.151,2.5625 52.3542,2.59375 52.625,2.59375 L52.625,2.78125 M55.8906,-7.54688 L56.0469,-7.45313 C55.9948,-6.85938 55.9635,-6.33333 55.9531,-5.875 C56.6615,-6.52083 57.1563,-6.94792 57.4375,-7.15625 C57.7188,-7.36458 58.1979,-7.46875 58.875,-7.46875 C59.3021,-7.46875 59.6901,-7.40885 60.0391,-7.28906 C60.388,-7.16927 60.7109,-6.97656 61.0078,-6.71094 C61.3047,-6.44531 61.5391,-6.10938 61.7109,-5.70313 C61.8828,-5.29688 61.9688,-4.82813 61.9688,-4.29688 C61.9688,-3.92188 61.9089,-3.54167 61.7891,-3.15625 C61.6693,-2.77083 61.513,-2.41406 61.3203,-2.08594 C61.1276,-1.75781 60.9714,-1.54167 60.8516,-1.4375 C60.7318,-1.33333 60.4896,-1.17188 60.125,-0.953125 C59.8021,-0.755208 59.4792,-0.541667 59.1563,-0.3125 C58.9271,-0.15625 58.7682,-0.0520833 58.6797,0 C58.5911,0.0520833 58.4427,0.101563 58.2344,0.148438 C58.026,0.195313 57.8073,0.21875 57.5781,0.21875 C57.0365,0.21875 56.4948,0.078125 55.9531,-0.203125 L55.9531,1.46875 C55.9531,1.58333 55.9635,1.95052 55.9844,2.57031 C56.0052,3.1901 56.0286,3.55208 56.0547,3.65625 C56.0807,3.76042 56.1172,3.83594 56.1641,3.88281 C56.2109,3.92969 56.2682,3.96094 56.3359,3.97656 C56.4036,3.99219 56.6823,4.01563 57.1719,4.04688 L57.25,4.10938 L57.25,4.4375 L57.1875,4.5 C56.5313,4.45833 55.9063,4.4375 55.3125,4.4375 C54.7083,4.4375 54.0833,4.45833 53.4375,4.5 L53.3594,4.4375 L53.3594,4.10938 L53.4375,4.04688 C53.9375,4.01563 54.2214,3.99219 54.2891,3.97656 C54.3568,3.96094 54.4141,3.92708 54.4609,3.875 C54.5078,3.82292 54.5417,3.74219 54.5625,3.63281 C54.5833,3.52344 54.6042,3.17448 54.625,2.58594 C54.6458,1.9974 54.6563,1.55729 54.6563,1.26563 L54.6563,-4.73438 C54.6563,-5.00521 54.6458,-5.31771 54.625,-5.67188 C54.6042,-6.02604 54.5859,-6.23177 54.5703,-6.28906 C54.5547,-6.34635 54.5156,-6.39323 54.4531,-6.42969 C54.3906,-6.46615 54.2552,-6.48438 54.0469,-6.48438 L53.3906,-6.5 L53.3281,-6.5625 L53.3281,-6.89063 L53.3906,-6.95313 C54.3802,-7.07813 55.2135,-7.27604 55.8906,-7.54688 M55.9531,-1.54688 C56.1927,-1.30729 56.4896,-1.09635 56.8438,-0.914063 C57.1979,-0.731771 57.5885,-0.640625 58.0156,-0.640625 C58.526,-0.640625 58.974,-0.768229 59.3594,-1.02344 C59.7448,-1.27865 60.0443,-1.65365 60.2578,-2.14844 C60.4714,-2.64323 60.5781,-3.1875 60.5781,-3.78125 C60.5781,-4.27083 60.4844,-4.72396 60.2969,-5.14063 C60.1094,-5.55729 59.8151,-5.88542 59.4141,-6.125 C59.013,-6.36458 58.5885,-6.48438 58.1406,-6.48438 C57.8698,-6.48438 57.6042,-6.4349 57.3438,-6.33594 C57.0833,-6.23698 56.8385,-6.09375 56.6094,-5.90625 C56.3802,-5.71875 56.2161,-5.54167 56.1172,-5.375 C56.0182,-5.20833 55.9661,-5.06771 55.9609,-4.95313 C55.9557,-4.83854 55.9531,-4.71354 55.9531,-4.57813 L55.9531,-1.54688 M63.5313,-3.57813 C63.5313,-4.20313 63.6589,-4.80208 63.9141,-5.375 C64.1693,-5.94792 64.6146,-6.44531 65.25,-6.86719 C65.8854,-7.28906 66.6354,-7.5 67.5,-7.5 C68.5938,-7.5 69.4844,-7.15365 70.1719,-6.46094 C70.8594,-5.76823 71.2031,-4.88021 71.2031,-3.79688 C71.2031,-2.60938 70.8099,-1.6276 70.0234,-0.851563 C69.237,-0.0755208 68.2865,0.3125 67.1719,0.3125 C66.4427,0.3125 65.7917,0.114583 65.2188,-0.28125 C64.6458,-0.677083 64.2214,-1.15885 63.9453,-1.72656 C63.6693,-2.29427 63.5313,-2.91146 63.5313,-3.57813 M65.0156,-4.125 C65.0156,-3.39583 65.1094,-2.74219 65.2969,-2.16406 C65.4844,-1.58594 65.7813,-1.1224 66.1875,-0.773438 C66.5938,-0.424479 67.0573,-0.25 67.5781,-0.25 C68.1927,-0.25 68.7005,-0.494792 69.1016,-0.984375 C69.5026,-1.47396 69.7031,-2.20833 69.7031,-3.1875 C69.7031,-4.29167 69.4844,-5.19792 69.0469,-5.90625 C68.6094,-6.61458 67.9844,-6.96875 67.1719,-6.96875 C66.4948,-6.96875 65.9661,-6.72396 65.5859,-6.23438 C65.2057,-5.74479 65.0156,-5.04167 65.0156,-4.125 M75.3594,0.15625 L74.2969,-3.35938 C74.099,-4.01563 73.9089,-4.625 73.7266,-5.1875 C73.5443,-5.75 73.4219,-6.10677 73.3594,-6.25781 C73.2969,-6.40885 73.2318,-6.51823 73.1641,-6.58594 C73.0964,-6.65365 73.0234,-6.70052 72.9453,-6.72656 C72.8672,-6.7526 72.6458,-6.78646 72.2813,-6.82813 L72.2344,-6.89063 L72.2344,-7.21875 L72.2969,-7.28125 C72.6719,-7.25 73.2552,-7.23438 74.0469,-7.23438 C74.8906,-7.23438 75.526,-7.25 75.9531,-7.28125 L76.0313,-7.21875 L76.0313,-6.89063 L75.9688,-6.82813 C75.4063,-6.82813 75.0703,-6.79948 74.9609,-6.74219 C74.8516,-6.6849 74.7969,-6.59375 74.7969,-6.46875 C74.7969,-6.35417 74.875,-6.03646 75.0313,-5.51563 L75.75,-3 C75.8646,-2.60417 76.0104,-2.14583 76.1875,-1.625 C76.3333,-1.96875 76.5313,-2.42188 76.7813,-2.98438 L77.9375,-5.5625 C78.2083,-6.16667 78.4635,-6.78125 78.7031,-7.40625 L79.0781,-7.40625 L79.7813,-5.51563 L80.6875,-3.25 L81.375,-1.53125 L81.9688,-3.0625 C82.3021,-3.94792 82.5625,-4.6849 82.75,-5.27344 C82.9375,-5.86198 83.0313,-6.23958 83.0313,-6.40625 C83.0313,-6.57292 82.974,-6.68229 82.8594,-6.73438 C82.7448,-6.78646 82.4375,-6.81771 81.9375,-6.82813 L81.875,-6.89063 L81.875,-7.21875 L81.9375,-7.28125 C82.5417,-7.25 83.0521,-7.23438 83.4688,-7.23438 C83.9896,-7.23438 84.4792,-7.25 84.9375,-7.28125 L85,-7.21875 L85,-6.90625 L84.9375,-6.82813 C84.6563,-6.81771 84.4635,-6.78646 84.3594,-6.73438 C84.2552,-6.68229 84.1406,-6.55729 84.0156,-6.35938 C83.8906,-6.16146 83.6979,-5.75521 83.4375,-5.14063 L82.6563,-3.29688 L82.3125,-2.42188 L81.75,-0.96875 C81.5833,-0.520833 81.4583,-0.145833 81.375,0.15625 L80.6406,0.15625 L80.2656,-0.828125 L78.4844,-5.3125 L77.7344,-3.6875 L76.875,-1.75 L76.1094,0.15625 L75.3594,0.15625 M91.9063,-1.15625 L91.6563,-0.59375 C91.1146,-0.239583 90.6328,-0.0104167 90.2109,0.09375 C89.7891,0.197917 89.4115,0.25 89.0781,0.25 C88.4531,0.25 87.8594,0.127604 87.2969,-0.117188 C86.7344,-0.361979 86.2786,-0.776042 85.9297,-1.35938 C85.5807,-1.94271 85.4063,-2.64583 85.4063,-3.46875 C85.4063,-4.02083 85.474,-4.51563 85.6094,-4.95313 C85.7448,-5.39063 85.8854,-5.71615 86.0313,-5.92969 C86.1771,-6.14323 86.4271,-6.38021 86.7813,-6.64063 C87.1354,-6.90104 87.5104,-7.10938 87.9063,-7.26563 C88.3021,-7.42188 88.7292,-7.5 89.1875,-7.5 C89.8125,-7.5 90.3646,-7.35417 90.8438,-7.0625 C91.3229,-6.77083 91.6589,-6.39583 91.8516,-5.9375 C92.0443,-5.47917 92.1406,-4.98958 92.1406,-4.46875 C92.1406,-4.3125 92.1302,-4.15625 92.1094,-4 L92.0313,-3.92188 C91.6771,-3.83854 91.2005,-3.78385 90.6016,-3.75781 C90.0026,-3.73177 89.6042,-3.71875 89.4063,-3.71875 L86.9063,-3.71875 C86.9167,-2.64583 87.1875,-1.85417 87.7188,-1.34375 C88.25,-0.833333 88.901,-0.578125 89.6719,-0.578125 C90.0365,-0.578125 90.3854,-0.640625 90.7188,-0.765625 C91.0521,-0.890625 91.4063,-1.0625 91.7813,-1.28125 L91.9063,-1.15625 M86.9063,-4.34375 C87,-4.33333 87.3594,-4.31771 87.9844,-4.29688 C88.6094,-4.27604 89.0729,-4.26563 89.375,-4.26563 C90.1042,-4.26563 90.5469,-4.27604 90.7031,-4.29688 C90.7031,-4.42188 90.7031,-4.52083 90.7031,-4.59375 C90.7031,-5.39583 90.5391,-5.99479 90.2109,-6.39063 C89.8828,-6.78646 89.4375,-6.98438 88.875,-6.98438 C88.25,-6.98438 87.7656,-6.76302 87.4219,-6.32031 C87.0781,-5.8776 86.9063,-5.21875 86.9063,-4.34375 M96,-7.45313 L96.1563,-7.34375 C96.125,-7.04167 96.099,-6.50521 96.0781,-5.73438 L96.6719,-6.48438 C96.8594,-6.72396 97.0286,-6.91146 97.1797,-7.04688 C97.3307,-7.18229 97.5052,-7.28646 97.7031,-7.35938 C97.901,-7.43229 98.1042,-7.46875 98.3125,-7.46875 C98.5417,-7.46875 98.7552,-7.42188 98.9531,-7.32813 L99.0156,-7.21875 C98.9323,-6.52083 98.8854,-5.91146 98.875,-5.39063 L98.5156,-5.39063 C98.3073,-5.86979 97.974,-6.10938 97.5156,-6.10938 C97.1927,-6.10938 96.9115,-6.00521 96.6719,-5.79688 C96.4323,-5.58854 96.2708,-5.33073 96.1875,-5.02344 C96.1042,-4.71615 96.0625,-4.32292 96.0625,-3.84375 L96.0625,-2.98438 C96.0625,-2.82813 96.0729,-2.44531 96.0938,-1.83594 C96.1146,-1.22656 96.138,-0.875 96.1641,-0.78125 C96.1901,-0.6875 96.2266,-0.617188 96.2734,-0.570313 C96.3203,-0.523438 96.3854,-0.492188 96.4688,-0.476563 C96.5521,-0.460938 96.9219,-0.4375 97.5781,-0.40625 L97.6563,-0.34375 L97.6563,-0.015625 L97.5781,0.0625 C96.8906,0.0208333 96.1667,0 95.4063,0 C94.8125,0 94.1875,0.0208333 93.5313,0.0625 L93.4688,-0.015625 L93.4688,-0.34375 L93.5313,-0.40625 C94.0417,-0.4375 94.3281,-0.460938 94.3906,-0.476563 C94.4531,-0.492188 94.5104,-0.523438 94.5625,-0.570313 C94.6146,-0.617188 94.6484,-0.692708 94.6641,-0.796875 C94.6797,-0.901042 94.7005,-1.23698 94.7266,-1.80469 C94.7526,-2.3724 94.7656,-2.80208 94.7656,-3.09375 L94.7656,-4.64063 C94.7656,-4.84896 94.7552,-5.13281 94.7344,-5.49219 C94.7135,-5.85156 94.6953,-6.07292 94.6797,-6.15625 C94.6641,-6.23958 94.6224,-6.29948 94.5547,-6.33594 C94.487,-6.3724 94.3542,-6.39063 94.1563,-6.39063 L93.5,-6.40625 L93.4219,-6.46875 L93.4219,-6.79688 L93.4844,-6.85938 C94.4844,-6.98438 95.3229,-7.18229 96,-7.45313 M103.406,-4.29688 C103.115,-4.29688 102.859,-4.20313 102.641,-4.01563 C102.464,-3.85938 102.341,-3.67188 102.273,-3.45313 C102.206,-3.23438 102.172,-2.89583 102.172,-2.4375 L102.172,0.265625 C102.172,1.27604 102.021,1.94271 101.719,2.26563 C101.396,2.60938 100.729,2.78125 99.7188,2.78125 L99.7188,2.59375 C100.188,2.59375 100.516,2.44792 100.703,2.15625 C100.911,1.82292 101.016,1.33854 101.016,0.703125 L101.016,-2.20313 C101.016,-2.83854 101.089,-3.30208 101.234,-3.59375 C101.422,-3.96875 101.792,-4.23438 102.344,-4.39063 C101.813,-4.54688 101.448,-4.8125 101.25,-5.1875 C101.094,-5.48958 101.016,-5.94792 101.016,-6.5625 L101.016,-9.51563 C101.016,-10.2031 100.911,-10.6953 100.703,-10.9922 C100.495,-11.2891 100.167,-11.4375 99.7188,-11.4375 L99.7188,-11.625 C100.344,-11.625 100.818,-11.5625 101.141,-11.4375 C101.599,-11.2604 101.901,-10.9167 102.047,-10.4063 C102.13,-10.0938 102.172,-9.71354 102.172,-9.26563 L102.172,-6.29688 C102.172,-5.78646 102.245,-5.38542 102.391,-5.09375 C102.589,-4.69792 102.927,-4.5 103.406,-4.5 L103.406,-4.29688 M112.594,2.85938 L112.594,3.26563 L112.516,3.34375 C112.516,3.34375 112.406,3.34375 112.188,3.34375 C111.635,3.32292 111.26,3.3125 111.063,3.3125 C110.625,3.3125 110.099,3.32292 109.484,3.34375 L109.313,3.20313 C109.375,2.23438 109.406,0.963542 109.406,-0.609375 C109.406,-5.21354 109.404,-7.91406 109.398,-8.71094 C109.393,-9.50781 109.365,-10.224 109.313,-10.8594 L109.453,-11.0469 C110.057,-11.0156 110.552,-11 110.938,-11 C111.302,-11 111.828,-11.0156 112.516,-11.0469 L112.594,-10.9844 L112.594,-10.5469 L112.547,-10.4844 C112.443,-10.474 112.292,-10.4635 112.094,-10.4531 C111.51,-10.4219 111.172,-10.388 111.078,-10.3516 C110.984,-10.3151 110.914,-10.2578 110.867,-10.1797 C110.82,-10.1016 110.781,-9.84635 110.75,-9.41406 C110.719,-8.98177 110.701,-8.17969 110.695,-7.00781 C110.69,-5.83594 110.688,-4.86979 110.688,-4.10938 L110.688,-0.875 L110.703,0.984375 C110.724,1.75521 110.766,2.24479 110.828,2.45313 C110.849,2.51563 110.888,2.57031 110.945,2.61719 C111.003,2.66406 111.104,2.70313 111.25,2.73438 C111.323,2.75521 111.745,2.77083 112.516,2.78125 L112.594,2.85938 M120.234,1.84375 L120.188,1.92188 L119.422,1.92188 L119.328,1.85938 L115.109,-11.5625 L115.172,-11.6406 L115.938,-11.6406 L116.016,-11.5781 L120.234,1.84375 M133.188,-11.4531 L127.016,0.515625 L126.922,0.5625 L126.359,0.5625 L126.313,0.484375 L132.484,-11.4844 L132.563,-11.5469 L133.141,-11.5469 L133.188,-11.4531 M123.719,-8.54688 C123.719,-9.25521 123.974,-9.875 124.484,-10.4063 C124.995,-10.9375 125.646,-11.2031 126.438,-11.2031 C126.917,-11.2031 127.354,-11.1016 127.75,-10.8984 C128.146,-10.6953 128.451,-10.388 128.664,-9.97656 C128.878,-9.5651 128.984,-9.13021 128.984,-8.67188 C128.984,-8.22396 128.872,-7.77604 128.648,-7.32813 C128.424,-6.88021 128.094,-6.53385 127.656,-6.28906 C127.219,-6.04427 126.755,-5.92188 126.266,-5.92188 C125.547,-5.92188 124.943,-6.16927 124.453,-6.66406 C123.964,-7.15885 123.719,-7.78646 123.719,-8.54688 M124.953,-8.48438 C124.953,-7.72396 125.078,-7.17448 125.328,-6.83594 C125.578,-6.4974 125.911,-6.32813 126.328,-6.32813 C126.786,-6.32813 127.141,-6.54167 127.391,-6.96875 C127.641,-7.39583 127.766,-7.97396 127.766,-8.70313 C127.766,-9.35938 127.656,-9.8776 127.438,-10.2578 C127.219,-10.638 126.88,-10.8281 126.422,-10.8281 C125.953,-10.8281 125.591,-10.6198 125.336,-10.2031 C125.081,-9.78646 124.953,-9.21354 124.953,-8.48438 M130.469,-2.40625 C130.469,-3.125 130.721,-3.7474 131.227,-4.27344 C131.732,-4.79948 132.38,-5.0625 133.172,-5.0625 C133.661,-5.0625 134.104,-4.96094 134.5,-4.75781 C134.896,-4.55469 135.198,-4.25 135.406,-3.84375 C135.615,-3.4375 135.719,-3 135.719,-2.53125 C135.719,-2.09375 135.612,-1.65365 135.398,-1.21094 C135.185,-0.768229 134.862,-0.419271 134.43,-0.164063 C133.997,0.0911458 133.526,0.21875 133.016,0.21875 C132.286,0.21875 131.68,-0.03125 131.195,-0.53125 C130.711,-1.03125 130.469,-1.65625 130.469,-2.40625 M131.703,-2.34375 C131.703,-1.90625 131.75,-1.52865 131.844,-1.21094 C131.938,-0.893229 132.094,-0.643229 132.313,-0.460938 C132.531,-0.278646 132.786,-0.1875 133.078,-0.1875 C133.526,-0.1875 133.878,-0.398438 134.133,-0.820313 C134.388,-1.24219 134.516,-1.82292 134.516,-2.5625 C134.516,-3.20833 134.409,-3.72396 134.195,-4.10938 C133.982,-4.49479 133.641,-4.6875 133.172,-4.6875 C132.734,-4.6875 132.38,-4.49219 132.109,-4.10156 C131.839,-3.71094 131.703,-3.125 131.703,-2.34375 M136.672,3.26563 L136.672,2.85938 L136.734,2.78125 L137.766,2.76563 C137.943,2.75521 138.091,2.72656 138.211,2.67969 C138.331,2.63281 138.406,2.55208 138.438,2.4375 C138.469,2.32292 138.492,2.14583 138.508,1.90625 C138.523,1.66667 138.539,1.07552 138.555,0.132813 C138.57,-0.809896 138.578,-1.70313 138.578,-2.54688 L138.563,-5.25 L138.547,-7.90625 C138.536,-8.8125 138.516,-9.40885 138.484,-9.69531 C138.453,-9.98177 138.417,-10.1536 138.375,-10.2109 C138.333,-10.2682 138.268,-10.3151 138.18,-10.3516 C138.091,-10.388 137.75,-10.4219 137.156,-10.4531 C136.958,-10.4635 136.807,-10.474 136.703,-10.4844 L136.672,-10.5469 L136.672,-10.9844 L136.734,-11.0469 C137.432,-11.0156 137.958,-11 138.313,-11 C138.708,-11 139.203,-11.0156 139.797,-11.0469 L139.938,-10.8594 C139.885,-10.3073 139.854,-8.05729 139.844,-4.10938 C139.844,-1.25521 139.849,0.492188 139.859,1.13281 C139.87,1.77344 139.896,2.46354 139.938,3.20313 L139.781,3.34375 C139.156,3.32292 138.625,3.3125 138.188,3.3125 C137.99,3.3125 137.505,3.32292 136.734,3.34375 L136.672,3.26563 M141.453,-0.46875 C141.547,-1.04167 141.62,-1.78646 141.672,-2.70313 L141.75,-2.76563 L142.094,-2.76563 L142.156,-2.6875 C142.177,-1.88542 142.193,-1.42188 142.203,-1.29688 C142.526,-0.984375 142.857,-0.744792 143.195,-0.578125 C143.534,-0.411458 143.969,-0.328125 144.5,-0.328125 L144.5,-4.75 C143.958,-4.82292 143.516,-4.90625 143.172,-5 C142.828,-5.09375 142.521,-5.2526 142.25,-5.47656 C141.979,-5.70052 141.779,-5.97135 141.648,-6.28906 C141.518,-6.60677 141.453,-6.96875 141.453,-7.375 C141.453,-8.15625 141.701,-8.85417 142.195,-9.46875 C142.69,-10.0833 143.458,-10.4688 144.5,-10.625 C144.49,-11.125 144.479,-11.4531 144.469,-11.6094 L144.547,-11.6875 L145.094,-11.6875 L145.172,-11.6094 C145.161,-11.5677 145.151,-11.25 145.141,-10.6563 C146.401,-10.5625 147.271,-10.349 147.75,-10.0156 L147.781,-9.92188 C147.74,-9.75521 147.708,-9.60156 147.688,-9.46094 C147.667,-9.32031 147.646,-9.11979 147.625,-8.85938 L147.563,-8.04688 L147.5,-7.98438 L147.188,-7.98438 L147.125,-8.04688 C147.104,-8.55729 147.057,-8.98438 146.984,-9.32813 C146.557,-9.81771 145.943,-10.0729 145.141,-10.0938 L145.141,-5.96875 C145.786,-5.875 146.297,-5.77865 146.672,-5.67969 C147.047,-5.58073 147.375,-5.42448 147.656,-5.21094 C147.938,-4.9974 148.146,-4.73698 148.281,-4.42969 C148.417,-4.1224 148.484,-3.77083 148.484,-3.375 C148.484,-2.75 148.349,-2.18229 148.078,-1.67188 C147.807,-1.16146 147.451,-0.755208 147.008,-0.453125 C146.565,-0.151042 145.943,0.0833333 145.141,0.25 C145.151,1.04167 145.167,1.55729 145.188,1.79688 L145.125,1.85938 L144.547,1.85938 L144.469,1.79688 C144.479,1.61979 144.49,1.11458 144.5,0.28125 C143.396,0.260417 142.401,0.046875 141.516,-0.359375 L141.453,-0.46875 M144.5,-10.0625 C144.167,-10.0208 143.875,-9.93229 143.625,-9.79688 C143.375,-9.66146 143.154,-9.42969 142.961,-9.10156 C142.768,-8.77344 142.672,-8.36458 142.672,-7.875 C142.672,-7.20833 142.852,-6.75 143.211,-6.5 C143.57,-6.25 144,-6.09896 144.5,-6.04688 L144.5,-10.0625 M145.141,-0.359375 C145.745,-0.380208 146.245,-0.619792 146.641,-1.07813 C147.036,-1.53646 147.234,-2.09896 147.234,-2.76563 C147.234,-3.28646 147.089,-3.70313 146.797,-4.01563 C146.505,-4.32813 145.953,-4.54688 145.141,-4.67188 L145.141,-0.359375"/>
</g>

<g fill="#212121" fill-opacity="1" stroke="#212121" stroke-opacity="1" stroke-width="1.06667" stroke-linecap="square" stroke-linejoin="round" transform="matrix(0.75,0,0,0.75,-11.925,-11.64)"
font-family="MS Shell Dlg 2" font-size="8.25" font-weight="400" font-style="normal" 
>
<polyline fill="none" vector-effect="none" points="70,269 70,23 " />
<polyline fill="none" vector-effect="none" points="488,269 488,23 " />
<polyline fill="none" vector-effect="none" points="70,269 74.18,269 " />
<polyline fill="none" vector-effect="none" points="483.82,269 488,269 " />
<polyline fill="none" vector-effect="none" points="70,219.8 74.18,219.8 " />
<polyline fill="none" vector-effect="none" points="483.82,219.8 488,219.8 " />
<polyline fill="none" vector-effect="none" points="70,170.6 74.18,170.6 " />
<polyline fill="none" vector-effect="none" points="483.82,170.6 488,170.6 " />
<polyline fill="none" vector-effect="none" points="70,121.4 74.18,121.4 " />
<polyline fill="none" vector-effect="none" points="483.82,121.4 488,121.4 " />
<polyline fill="none" vector-effect="none" points="70,72.2 74.18,72.2 " />
<polyline fill="none" vector-effect="none" points="483.82,72.2 488,72.2 " />
<polyline fill="none" vector-effect="none" points="70,23 74.18,23 " />
<polyline fill="none" vector-effect="none" points="483.82,23 488,23 " />
</g>

<g fill="#212121" fill-opacity="1" stroke="none" transform="matrix(0.75,0,0,0.75,30.875,192.75)"
font-family="MS Shell Dlg 2" font-size="8.25" font-weight="400" font-style="normal" 
>
<path vector-effect="none" fill-rule="evenodd" d="M3.5,0.3125 C2.35417,0.3125 1.57552,-0.158854 1.16406,-1.10156 C0.752604,-2.04427 0.546875,-3.16667 0.546875,-4.46875 C0.546875,-5.28125 0.619792,-6.04427 0.765625,-6.75781 C0.911458,-7.47135 1.20573,-8.07813 1.64844,-8.57813 C2.09115,-9.07813 2.70833,-9.32813 3.5,-9.32813 C4.11458,-9.32813 4.61719,-9.17708 5.00781,-8.875 C5.39844,-8.57292 5.69792,-8.1849 5.90625,-7.71094 C6.11458,-7.23698 6.25521,-6.72656 6.32813,-6.17969 C6.40104,-5.63281 6.4375,-5.0625 6.4375,-4.46875 C6.4375,-3.66667 6.36458,-2.91406 6.21875,-2.21094 C6.07292,-1.50781 5.78385,-0.911458 5.35156,-0.421875 C4.91927,0.0677083 4.30208,0.3125 3.5,0.3125 M3.5,-0.0625 C4.02083,-0.0625 4.40885,-0.328125 4.66406,-0.859375 C4.91927,-1.39063 5.07552,-1.97917 5.13281,-2.625 C5.1901,-3.27083 5.21875,-3.95833 5.21875,-4.6875 C5.21875,-5.39583 5.1901,-6.04427 5.13281,-6.63281 C5.07552,-7.22135 4.91927,-7.75781 4.66406,-8.24219 C4.40885,-8.72656 4.02083,-8.96875 3.5,-8.96875 C2.96875,-8.96875 2.57552,-8.72656 2.32031,-8.24219 C2.0651,-7.75781 1.90885,-7.22135 1.85156,-6.63281 C1.79427,-6.04427 1.76563,-5.39583 1.76563,-4.6875 C1.76563,-4.16667 1.77865,-3.67708 1.80469,-3.21875 C1.83073,-2.76042 1.89844,-2.28646 2.00781,-1.79688 C2.11719,-1.30729 2.29427,-0.895833 2.53906,-0.5625 C2.78385,-0.229167 3.10417,-0.0625 3.5,-0.0625 "/>
</g>

<g fill="#212121" fill-opacity="1" stroke="none" transform="matrix(0.75,0,0,0.75,25.375,155.85)"
font-family="MS Shell Dlg 2" font-size="8.25" font-weight="400" font-style="normal" 
>
<path vector-effect="none" fill-rule="evenodd" d="M0.703125,0 L0.703125,-0.375 C0.703125,-0.395833 0.708333,-0.421875 0.71875,-0.453125 L2.90625,-2.85938 C3.22917,-3.21354 3.49219,-3.51042 3.69531,-3.75 C3.89844,-3.98958 4.10156,-4.26823 4.30469,-4.58594 C4.50781,-4.90365 4.66667,-5.22396 4.78125,-5.54688 C4.89583,-5.86979 4.95313,-6.21354 4.95313,-6.57813 C4.95313,-6.96354 4.88281,-7.33073 4.74219,-7.67969 C4.60156,-8.02865 4.39063,-8.30729 4.10938,-8.51563 C3.82813,-8.72396 3.48958,-8.82813 3.09375,-8.82813 C2.6875,-8.82813 2.32292,-8.70573 2,-8.46094 C1.67708,-8.21615 1.44792,-7.90104 1.3125,-7.51563 C1.35417,-7.52604 1.40625,-7.53125 1.46875,-7.53125 C1.67708,-7.53125 1.85677,-7.46094 2.00781,-7.32031 C2.15885,-7.17969 2.23438,-7 2.23438,-6.78125 C2.23438,-6.5625 2.15885,-6.38021 2.00781,-6.23438 C1.85677,-6.08854 1.67708,-6.01563 1.46875,-6.01563 C1.25,-6.01563 1.06771,-6.09115 0.921875,-6.24219 C0.776042,-6.39323 0.703125,-6.57292 0.703125,-6.78125 C0.703125,-7.125 0.768229,-7.45052 0.898438,-7.75781 C1.02865,-8.0651 1.21875,-8.33854 1.46875,-8.57813 C1.71875,-8.81771 2,-9.0026 2.3125,-9.13281 C2.625,-9.26302 2.95313,-9.32813 3.29688,-9.32813 C3.83854,-9.32813 4.33854,-9.21354 4.79688,-8.98438 C5.25521,-8.75521 5.61979,-8.4349 5.89063,-8.02344 C6.16146,-7.61198 6.29688,-7.13021 6.29688,-6.57813 C6.29688,-6.17188 6.20573,-5.78646 6.02344,-5.42188 C5.84115,-5.05729 5.61198,-4.72656 5.33594,-4.42969 C5.0599,-4.13281 4.70573,-3.79427 4.27344,-3.41406 C3.84115,-3.03385 3.55729,-2.78125 3.42188,-2.65625 L1.82813,-1.14063 L3.17188,-1.14063 C3.83854,-1.14063 4.39323,-1.14583 4.83594,-1.15625 C5.27865,-1.16667 5.51563,-1.18229 5.54688,-1.20313 C5.65104,-1.31771 5.76042,-1.75 5.875,-2.5 L6.29688,-2.5 L5.89063,0 L0.703125,0"/>
</g>

<g fill="#212121" fill-opacity="1" stroke="none" transform="matrix(0.75,0,0,0.75,30.875,155.85)"
font-family="MS Shell Dlg 2" font-size="8.25" font-weight="400" font-style="normal" 
>
<path vector-effect="none" fill-rule="evenodd" d="M3.5,0.3125 C2.35417,0.3125 1.57552,-0.158854 1.16406,-1.10156 C0.752604,-2.04427 0.546875,-3.16667 0.546875,-4.46875 C0.546875,-5.28125 0.619792,-6.04427 0.765625,-6.75781 C0.911458,-7.47135 1.20573,-8.07813 1.64844,-8.57813 C2.09115,-9.07813 2.70833,-9.32813 3.5,-9.32813 C4.11458,-9.32813 4.61719,-9.17708 5.00781,-8.875 C5.39844,-8.57292 5.69792,-8.1849 5.90625,-7.71094 C6.11458,-7.23698 6.25521,-6.72656 6.32813,-6.17969 C6.40104,-5.63281 6.4375,-5.0625 6.4375,-4.46875 C6.4375,-3.66667 6.36458,-2.91406 6.21875,-2.21094 C6.07292,-1.50781 5.78385,-0.911458 5.35156,-0.421875 C4.91927,0.0677083 4.30208,0.3125 3.5,0.3125 M3.5,-0.0625 C4.02083,-0.0625 4.40885,-0.328125 4.66406,-0.859375 C4.91927,-1.39063 5.07552,-1.97917 5.13281,-2.625 C5.1901,-3.27083 5.21875,-3.95833 5.21875,-4.6875 C5.21875,-5.39583 5.1901,-6.04427 5.13281,-6.63281 C5.07552,-7.22135 4.91927,-7.75781 4.66406,-8.24219 C4.40885,-8.72656 4.02083,-8.96875 3.5,-8.96875 C2.96875,-8.96875 2.57552,-8.72656 2.32031,-8.24219 C2.0651,-7.75781 1.90885,-7.22135 1.85156,-6.63281 C1.79427,-6.04427 1.76563,-5.39583 1.76563,-4.6875 C1.76563,-4.16667 1.77865,-3.67708 1.80469,-3.21875 C1.83073,-2.76042 1.89844,-2.28646 2.00781,-1.79688 C2.11719,-1.30729 2.29427,-0.895833 2.53906,-0.5625 C2.78385,-0.229167 3.10417,-0.0625 3.5,-0.0625 "/>
</g>

<g fill="#212121" fill-opacity="1" stroke="none" transform="matrix(0.75,0,0,0.75,25.375,118.95)"
font-family="MS Shell Dlg 2" font-size="8.25" font-weight="400" font-style="normal" 
>
<path vector-effect="none" fill-rule="evenodd" d="M0.390625,-2.3125 L0.390625,-2.79688 L4.71875,-9.25 C4.75,-9.30208 4.79688,-9.32813 4.85938,-9.32813 L5.0625,-9.32813 C5.16667,-9.32813 5.21875,-9.27604 5.21875,-9.17188 L5.21875,-2.79688 L6.59375,-2.79688 L6.59375,-2.3125 L5.21875,-2.3125 L5.21875,-0.9375 C5.21875,-0.75 5.35677,-0.630208 5.63281,-0.578125 C5.90885,-0.526042 6.22396,-0.5 6.57813,-0.5 L6.57813,0 L2.73438,0 L2.73438,-0.5 C3.08854,-0.5 3.40365,-0.526042 3.67969,-0.578125 C3.95573,-0.630208 4.09375,-0.75 4.09375,-0.9375 L4.09375,-2.3125 L0.390625,-2.3125 M0.859375,-2.79688 L4.17188,-2.79688 L4.17188,-7.76563 L0.859375,-2.79688"/>
</g>

<g fill="#212121" fill-opacity="1" stroke="none" transform="matrix(0.75,0,0,0.75,30.875,118.95)"
font-family="MS Shell Dlg 2" font-size="8.25" font-weight="400" font-style="normal" 
>
<path vector-effect="none" fill-rule="evenodd" d="M3.5,0.3125 C2.35417,0.3125 1.57552,-0.158854 1.16406,-1.10156 C0.752604,-2.04427 0.546875,-3.16667 0.546875,-4.46875 C0.546875,-5.28125 0.619792,-6.04427 0.765625,-6.75781 C0.911458,-7.47135 1.20573,-8.07813 1.64844,-8.57813 C2.09115,-9.07813 2.70833,-9.32813 3.5,-9.32813 C4.11458,-9.32813 4.61719,-9.17708 5.00781,-8.875 C5.39844,-8.57292 5.69792,-8.1849 5.90625,-7.71094 C6.11458,-7.23698 6.25521,-6.72656 6.32813,-6.17969 C6.40104,-5.63281 6.4375,-5.0625 6.4375,-4.46875 C6.4375,-3.66667 6.36458,-2.91406 6.21875,-2.21094 C6.07292,-1.50781 5.78385,-0.911458 5.35156,-0.421875 C4.91927,0.0677083 4.30208,0.3125 3.5,0.3125 M3.5,-0.0625 C4.02083,-0.0625 4.40885,-0.328125 4.66406,-0.859375 C4.91927,-1.39063 5.07552,-1.97917 5.13281,-2.625 C5.1901,-3.27083 5.21875,-3.95833 5.21875,-4.6875 C5.21875,-5.39583 5.1901,-6.04427 5.13281,-6.63281 C5.07552,-7.22135 4.91927,-7.75781 4.66406,-8.24219 C4.40885,-8.72656 4.02083,-8.96875 3.5,-8.96875 C2.96875,-8.96875 2.57552,-8.72656 2.32031,-8.24219 C2.0651,-7.75781 1.90885,-7.22135 1.85156,-6.63281 C1.79427,-6.04427 1.76563,-5.39583 1.76563,-4.6875 C1.76563,-4.16667 1.77865,-3.67708 1.80469,-3.21875 C1.83073,-2.76042 1.89844,-2.28646 2.00781,-1.79688 C2.11719,-1.30729 2.29427,-0.895833 2.53906,-0.5625 C2.78385,-0.229167 3.10417,-0.0625 3.5,-0.0625 "/>
</g>

<g fill="#212121" fill-opacity="1" stroke="none" transform="matrix(0.75,0,0,0.75,25.375,82.05)"
font-family="MS Shell Dlg 2" font-size="8.25" font-weight="400" font-style="normal" 
>
<path vector-effect="none" fill-rule="evenodd" d="M3.5,0.3125 C2.91667,0.3125 2.43229,0.158854 2.04688,-0.148438 C1.66146,-0.455729 1.36198,-0.854167 1.14844,-1.34375 C0.934896,-1.83333 0.789063,-2.34896 0.710938,-2.89063 C0.632813,-3.43229 0.59375,-3.97917 0.59375,-4.53125 C0.59375,-5.27083 0.736979,-6.01042 1.02344,-6.75 C1.3099,-7.48958 1.73177,-8.10417 2.28906,-8.59375 C2.84635,-9.08333 3.50521,-9.32813 4.26563,-9.32813 C4.58854,-9.32813 4.88802,-9.26823 5.16406,-9.14844 C5.4401,-9.02865 5.65625,-8.85156 5.8125,-8.61719 C5.96875,-8.38281 6.04688,-8.09896 6.04688,-7.76563 C6.04688,-7.56771 5.98177,-7.40365 5.85156,-7.27344 C5.72135,-7.14323 5.5625,-7.07813 5.375,-7.07813 C5.1875,-7.07813 5.02865,-7.14583 4.89844,-7.28125 C4.76823,-7.41667 4.70313,-7.57813 4.70313,-7.76563 C4.70313,-7.94271 4.76823,-8.09635 4.89844,-8.22656 C5.02865,-8.35677 5.1875,-8.42188 5.375,-8.42188 L5.45313,-8.42188 C5.32813,-8.59896 5.15885,-8.72656 4.94531,-8.80469 C4.73177,-8.88281 4.50521,-8.92188 4.26563,-8.92188 C3.98438,-8.92188 3.72396,-8.85938 3.48438,-8.73438 C3.24479,-8.60938 3.03125,-8.44271 2.84375,-8.23438 C2.65625,-8.02604 2.4974,-7.79427 2.36719,-7.53906 C2.23698,-7.28385 2.13802,-6.99479 2.07031,-6.67188 C2.0026,-6.34896 1.95833,-6.04688 1.9375,-5.76563 C1.91667,-5.48438 1.90625,-5.13021 1.90625,-4.70313 C2.07292,-5.08854 2.30729,-5.40365 2.60938,-5.64844 C2.91146,-5.89323 3.25,-6.01563 3.625,-6.01563 C4.04167,-6.01563 4.41927,-5.92969 4.75781,-5.75781 C5.09635,-5.58594 5.39063,-5.35156 5.64063,-5.05469 C5.89063,-4.75781 6.08073,-4.41667 6.21094,-4.03125 C6.34115,-3.64583 6.40625,-3.26042 6.40625,-2.875 C6.40625,-2.32292 6.28385,-1.79948 6.03906,-1.30469 C5.79427,-0.809896 5.45052,-0.416667 5.00781,-0.125 C4.5651,0.166667 4.0625,0.3125 3.5,0.3125 M3.5,-0.140625 C3.86458,-0.140625 4.15625,-0.223958 4.375,-0.390625 C4.59375,-0.557292 4.7526,-0.776042 4.85156,-1.04688 C4.95052,-1.31771 5.01302,-1.58854 5.03906,-1.85938 C5.0651,-2.13021 5.07813,-2.46875 5.07813,-2.875 C5.07813,-3.39583 5.05208,-3.84375 5,-4.21875 C4.94792,-4.59375 4.8125,-4.92448 4.59375,-5.21094 C4.375,-5.4974 4.03125,-5.64063 3.5625,-5.64063 C3.1875,-5.64063 2.8776,-5.51302 2.63281,-5.25781 C2.38802,-5.0026 2.21094,-4.67969 2.10156,-4.28906 C1.99219,-3.89844 1.9375,-3.52604 1.9375,-3.17188 C1.9375,-3.04688 1.94271,-2.95313 1.95313,-2.89063 C1.95313,-2.86979 1.95052,-2.85677 1.94531,-2.85156 C1.9401,-2.84635 1.9375,-2.83333 1.9375,-2.8125 C1.9375,-2.41667 1.97917,-2.01302 2.0625,-1.60156 C2.14583,-1.1901 2.30208,-0.84375 2.53125,-0.5625 C2.76042,-0.28125 3.08333,-0.140625 3.5,-0.140625 "/>
</g>

<g fill="#212121" fill-opacity="1" stroke="none" transform="matrix(0.75,0,0,0.75,30.875,82.05)"
font-family="MS Shell Dlg 2" font-size="8.25" font-weight="400" font-style="normal" 
>
<path vector-effect="none" fill-rule="evenodd" d="M3.5,0.3125 C2.35417,0.3125 1.57552,-0.158854 1.16406,-1.10156 C0.752604,-2.04427 0.546875,-3.16667 0.546875,-4.46875 C0.546875,-5.28125 0.619792,-6.04427 0.765625,-6.75781 C0.911458,-7.47135 1.20573,-8.07813 1.64844,-8.57813 C2.09115,-9.07813 2.70833,-9.32813 3.5,-9.32813 C4.11458,-9.32813 4.61719,-9.17708 5.00781,-8.875 C5.39844,-8.57292 5.69792,-8.1849 5.90625,-7.71094 C6.11458,-7.23698 6.25521,-6.72656 6.32813,-6.17969 C6.40104,-5.63281 6.4375,-5.0625 6.4375,-4.46875 C6.4375,-3.66667 6.36458,-2.91406 6.21875,-2.21094 C6.07292,-1.50781 5.78385,-0.911458 5.35156,-0.421875 C4.91927,0.0677083 4.30208,0.3125 3.5,0.3125 M3.5,-0.0625 C4.02083,-0.0625 4.40885,-0.328125 4.66406,-0.859375 C4.91927,-1.39063 5.07552,-1.97917 5.13281,-2.625 C5.1901,-3.27083 5.21875,-3.95833 5.21875,-4.6875 C5.21875,-5.39583 5.1901,-6.04427 5.13281,-6.63281 C5.07552,-7.22135 4.91927,-7.75781 4.66406,-8.24219 C4.40885,-8.72656 4.02083,-8.96875 3.5,-8.96875 C2.96875,-8.96875 2.57552,-8.72656 2.32031,-8.24219 C2.0651,-7.75781 1.90885,-7.22135 1.85156,-6.63281 C1.79427,-6.04427 1.76563,-5.39583 1.76563,-4.6875 C1.76563,-4.16667 1.77865,-3.67708 1.80469,-3.21875 C1.83073,-2.76042 1.89844,-2.28646 2.00781,-1.79688 C2.11719,-1.30729 2.29427,-0.895833 2.53906,-0.5625 C2.78385,-0.229167 3.10417,-0.0625 3.5,-0.0625 "/>
</g>

<g fill="#212121" fill-opacity="1" stroke="none" transform="matrix(0.75,0,0,0.75,25.375,45.15)"
font-family="MS Shell Dlg 2" font-size="8.25" font-weight="400" font-style="normal" 
>
<path vector-effect="none" fill-rule="evenodd" d="M0.59375,-2.125 C0.59375,-2.6875 0.778646,-3.1849 1.14844,-3.61719 C1.51823,-4.04948 1.98958,-4.40625 2.5625,-4.6875 L2.04688,-5.03125 C1.72396,-5.23958 1.46354,-5.51823 1.26563,-5.86719 C1.06771,-6.21615 0.96875,-6.57813 0.96875,-6.95313 C0.96875,-7.40104 1.08594,-7.80469 1.32031,-8.16406 C1.55469,-8.52344 1.86719,-8.80729 2.25781,-9.01563 C2.64844,-9.22396 3.0625,-9.32813 3.5,-9.32813 C3.91667,-9.32813 4.31771,-9.24219 4.70313,-9.07031 C5.08854,-8.89844 5.40365,-8.65625 5.64844,-8.34375 C5.89323,-8.03125 6.01563,-7.66146 6.01563,-7.23438 C6.01563,-6.91146 5.94271,-6.61719 5.79688,-6.35156 C5.65104,-6.08594 5.45052,-5.84635 5.19531,-5.63281 C4.9401,-5.41927 4.66667,-5.23438 4.375,-5.07813 L5.17188,-4.5625 C5.53646,-4.32292 5.83333,-4.00781 6.0625,-3.61719 C6.29167,-3.22656 6.40625,-2.8125 6.40625,-2.375 C6.40625,-1.875 6.26823,-1.41667 5.99219,-1 C5.71615,-0.583333 5.35677,-0.260417 4.91406,-0.03125 C4.47135,0.197917 4,0.3125 3.5,0.3125 C3.02083,0.3125 2.55469,0.213542 2.10156,0.015625 C1.64844,-0.182292 1.28385,-0.466146 1.00781,-0.835938 C0.731771,-1.20573 0.59375,-1.63542 0.59375,-2.125 M1.34375,-2.125 C1.34375,-1.76042 1.44531,-1.42448 1.64844,-1.11719 C1.85156,-0.809896 2.11979,-0.570313 2.45313,-0.398438 C2.78646,-0.226563 3.13542,-0.140625 3.5,-0.140625 C4.04167,-0.140625 4.53385,-0.299479 4.97656,-0.617188 C5.41927,-0.934896 5.64063,-1.35417 5.64063,-1.875 C5.64063,-2.05208 5.60417,-2.22917 5.53125,-2.40625 C5.45833,-2.58333 5.35938,-2.74219 5.23438,-2.88281 C5.10938,-3.02344 4.96875,-3.14063 4.8125,-3.23438 L2.9375,-4.45313 C2.64583,-4.29688 2.3776,-4.10156 2.13281,-3.86719 C1.88802,-3.63281 1.69531,-3.36719 1.55469,-3.07031 C1.41406,-2.77344 1.34375,-2.45833 1.34375,-2.125 M2.3125,-6.40625 L4,-5.3125 C4.39583,-5.54167 4.71875,-5.81771 4.96875,-6.14063 C5.21875,-6.46354 5.34375,-6.82813 5.34375,-7.23438 C5.34375,-7.54688 5.25521,-7.83333 5.07813,-8.09375 C4.90104,-8.35417 4.67188,-8.55729 4.39063,-8.70313 C4.10938,-8.84896 3.80729,-8.92188 3.48438,-8.92188 C3.20313,-8.92188 2.91927,-8.86719 2.63281,-8.75781 C2.34635,-8.64844 2.10938,-8.48438 1.92188,-8.26563 C1.73438,-8.04688 1.64063,-7.79167 1.64063,-7.5 C1.64063,-7.0625 1.86458,-6.69792 2.3125,-6.40625 "/>
</g>

<g fill="#212121" fill-opacity="1" stroke="none" transform="matrix(0.75,0,0,0.75,30.875,45.15)"
font-family="MS Shell Dlg 2" font-size="8.25" font-weight="400" font-style="normal" 
>
<path vector-effect="none" fill-rule="evenodd" d="M3.5,0.3125 C2.35417,0.3125 1.57552,-0.158854 1.16406,-1.10156 C0.752604,-2.04427 0.546875,-3.16667 0.546875,-4.46875 C0.546875,-5.28125 0.619792,-6.04427 0.765625,-6.75781 C0.911458,-7.47135 1.20573,-8.07813 1.64844,-8.57813 C2.09115,-9.07813 2.70833,-9.32813 3.5,-9.32813 C4.11458,-9.32813 4.61719,-9.17708 5.00781,-8.875 C5.39844,-8.57292 5.69792,-8.1849 5.90625,-7.71094 C6.11458,-7.23698 6.25521,-6.72656 6.32813,-6.17969 C6.40104,-5.63281 6.4375,-5.0625 6.4375,-4.46875 C6.4375,-3.66667 6.36458,-2.91406 6.21875,-2.21094 C6.07292,-1.50781 5.78385,-0.911458 5.35156,-0.421875 C4.91927,0.0677083 4.30208,0.3125 3.5,0.3125 M3.5,-0.0625 C4.02083,-0.0625 4.40885,-0.328125 4.66406,-0.859375 C4.91927,-1.39063 5.07552,-1.97917 5.13281,-2.625 C5.1901,-3.27083 5.21875,-3.95833 5.21875,-4.6875 C5.21875,-5.39583 5.1901,-6.04427 5.13281,-6.63281 C5.07552,-7.22135 4.91927,-7.75781 4.66406,-8.24219 C4.40885,-8.72656 4.02083,-8.96875 3.5,-8.96875 C2.96875,-8.96875 2.57552,-8.72656 2.32031,-8.24219 C2.0651,-7.75781 1.90885,-7.22135 1.85156,-6.63281 C1.79427,-6.04427 1.76563,-5.39583 1.76563,-4.6875 C1.76563,-4.16667 1.77865,-3.67708 1.80469,-3.21875 C1.83073,-2.76042 1.89844,-2.28646 2.00781,-1.79688 C2.11719,-1.30729 2.29427,-0.895833 2.53906,-0.5625 C2.78385,-0.229167 3.10417,-0.0625 3.5,-0.0625 "/>
</g>

<g fill="#212121" fill-opacity="1" stroke="none" transform="matrix(0.75,0,0,0.75,19.875,8.25)"
font-family="MS Shell Dlg 2" font-size="8.25" font-weight="400" font-style="normal" 
>
<path vector-effect="none" fill-rule="evenodd" d="M1.29688,0 L1.29688,-0.5 C2.46354,-0.5 3.04688,-0.645833 3.04688,-0.9375 L3.04688,-8.28125 C2.56771,-8.05208 1.95833,-7.9375 1.21875,-7.9375 L1.21875,-8.42188 C2.36458,-8.42188 3.22917,-8.72396 3.8125,-9.32813 L4,-9.32813 C4.03125,-9.32813 4.0625,-9.3151 4.09375,-9.28906 C4.125,-9.26302 4.14063,-9.23438 4.14063,-9.20313 L4.14063,-0.9375 C4.14063,-0.645833 4.72396,-0.5 5.89063,-0.5 L5.89063,0 L1.29688,0"/>
</g>

<g fill="#212121" fill-opacity="1" stroke="none" transform="matrix(0.75,0,0,0.75,25.375,8.25)"
font-family="MS Shell Dlg 2" font-size="8.25" font-weight="400" font-style="normal" 
>
<path vector-effect="none" fill-rule="evenodd" d="M3.5,0.3125 C2.35417,0.3125 1.57552,-0.158854 1.16406,-1.10156 C0.752604,-2.04427 0.546875,-3.16667 0.546875,-4.46875 C0.546875,-5.28125 0.619792,-6.04427 0.765625,-6.75781 C0.911458,-7.47135 1.20573,-8.07813 1.64844,-8.57813 C2.09115,-9.07813 2.70833,-9.32813 3.5,-9.32813 C4.11458,-9.32813 4.61719,-9.17708 5.00781,-8.875 C5.39844,-8.57292 5.69792,-8.1849 5.90625,-7.71094 C6.11458,-7.23698 6.25521,-6.72656 6.32813,-6.17969 C6.40104,-5.63281 6.4375,-5.0625 6.4375,-4.46875 C6.4375,-3.66667 6.36458,-2.91406 6.21875,-2.21094 C6.07292,-1.50781 5.78385,-0.911458 5.35156,-0.421875 C4.91927,0.0677083 4.30208,0.3125 3.5,0.3125 M3.5,-0.0625 C4.02083,-0.0625 4.40885,-0.328125 4.66406,-0.859375 C4.91927,-1.39063 5.07552,-1.97917 5.13281,-2.625 C5.1901,-3.27083 5.21875,-3.95833 5.21875,-4.6875 C5.21875,-5.39583 5.1901,-6.04427 5.13281,-6.63281 C5.07552,-7.22135 4.91927,-7.75781 4.66406,-8.24219 C4.40885,-8.72656 4.02083,-8.96875 3.5,-8.96875 C2.96875,-8.96875 2.57552,-8.72656 2.32031,-8.24219 C2.0651,-7.75781 1.90885,-7.22135 1.85156,-6.63281 C1.79427,-6.04427 1.76563,-5.39583 1.76563,-4.6875 C1.76563,-4.16667 1.77865,-3.67708 1.80469,-3.21875 C1.83073,-2.76042 1.89844,-2.28646 2.00781,-1.79688 C2.11719,-1.30729 2.29427,-0.895833 2.53906,-0.5625 C2.78385,-0.229167 3.10417,-0.0625 3.5,-0.0625 "/>
</g>

<g fill="#212121" fill-opacity="1" stroke="none" transform="matrix(0.75,0,0,0.75,30.875,8.25)"
font-family="MS Shell Dlg 2" font-size="8.25" font-weight="400" font-style="normal" 
>
<path vector-effect="none" fill-rule="evenodd" d="M3.5,0.3125 C2.35417,0.3125 1.57552,-0.158854 1.16406,-1.10156 C0.752604,-2.04427 0.546875,-3.16667 0.546875,-4.46875 C0.546875,-5.28125 0.619792,-6.04427 0.765625,-6.75781 C0.911458,-7.47135 1.20573,-8.07813 1.64844,-8.57813 C2.09115,-9.07813 2.70833,-9.32813 3.5,-9.32813 C4.11458,-9.32813 4.61719,-9.17708 5.00781,-8.875 C5.39844,-8.57292 5.69792,-8.1849 5.90625,-7.71094 C6.11458,-7.23698 6.25521,-6.72656 6.32813,-6.17969 C6.40104,-5.63281 6.4375,-5.0625 6.4375,-4.46875 C6.4375,-3.66667 6.36458,-2.91406 6.21875,-2.21094 C6.07292,-1.50781 5.78385,-0.911458 5.35156,-0.421875 C4.91927,0.0677083 4.30208,0.3125 3.5,0.3125 M3.5,-0.0625 C4.02083,-0.0625 4.40885,-0.328125 4.66406,-0.859375 C4.91927,-1.39063 5.07552,-1.97917 5.13281,-2.625 C5.1901,-3.27083 5.21875,-3.95833 5.21875,-4.6875 C5.21875,-5.39583 5.1901,-6.04427 5.13281,-6.63281 C5.07552,-7.22135 4.91927,-7.75781 4.66406,-8.24219 C4.40885,-8.72656 4.02083,-8.96875 3.5,-8.96875 C2.96875,-8.96875 2.57552,-8.72656 2.32031,-8.24219 C2.0651,-7.75781 1.90885,-7.22135 1.85156,-6.63281 C1.79427,-6.04427 1.76563,-5.39583 1.76563,-4.6875 C1.76563,-4.16667 1.77865,-3.67708 1.80469,-3.21875 C1.83073,-2.76042 1.89844,-2.28646 2.00781,-1.79688 C2.11719,-1.30729 2.29427,-0.895833 2.53906,-0.5625 C2.78385,-0.229167 3.10417,-0.0625 3.5,-0.0625 "/>
</g>

<g fill="#ffffff" fill-opacity="1" stroke="none" transform="matrix(7.5e-05,0,0,7.5e-05,-11.925,-11.64)"
font-family="MS Shell Dlg 2" font-size="8.25" font-weight="400" font-style="normal" 
>
<path vector-effect="none" fill-rule="evenodd" d="M4.99e+06,230000 L4.99e+06,840000 L7.05e+06,840000 L7.05e+06,230000 L4.99e+06,230000"/>
</g>

<g fill="#000000" fill-opacity="1" stroke="none" transform="matrix(7.5e-05,0,0,7.5e-05,-11.925,-11.64)"
font-family="MS Shell Dlg 2" font-size="8.25" font-weight="400" font-style="normal" 
>
<path vector-effect="none" fill-rule="evenodd" d="M5.03e+06,277500 L5.03e+06,412500 L5.43e+06,412500 L5.43e+06,277500 L5.03e+06,277500"/>
</g>

<g fill="none" stroke="#212121" stroke-opacity="1" stroke-width="0.666667" stroke-linecap="butt" stroke-linejoin="miter" stroke-miterlimit="2" transform="matrix(0.75,0,0,0.75,-11.925,-11.64)"
font-family="MS Shell Dlg 2" font-size="8.25" font-weight="400" font-style="normal" 
>
<path vector-effect="none" fill-rule="evenodd" d="M503,41.25 L503,27.75 L543,27.75 L543,41.25 L503,41.25"/>
</g>

<g fill="#999999" fill-opacity="1" stroke="none" transform="matrix(7.5e-05,0,0,7.5e-05,-11.925,-11.64)"
font-family="MS Shell Dlg 2" font-size="8.25" font-weight="400" font-style="normal" 
>
<path vector-effect="none" fill-rule="evenodd" d="M5.03e+06,472500 L5.03e+06,607500 L5.43e+06,607500 L5.43e+06,472500 L5.03e+06,472500"/>
</g>

<g fill="none" stroke="#212121" stroke-opacity="1" stroke-width="0.666667" stroke-linecap="butt" stroke-linejoin="miter" stroke-miterlimit="2" transform="matrix(0.75,0,0,0.75,-11.925,-11.64)"
font-family="MS Shell Dlg 2" font-size="8.25" font-weight="400" font-style="normal" 
>
<path vector-effect="none" fill-rule="evenodd" d="M503,60.75 L503,47.25 L543,47.25 L543,60.75 L503,60.75"/>
</g>

<g fill="#4d4d4d" fill-opacity="1" stroke="none" transform="matrix(7.5e-05,0,0,7.5e-05,-11.925,-11.64)"
font-family="MS Shell Dlg 2" font-size="8.25" font-weight="400" font-style="normal" 
>
<path vector-effect="none" fill-rule="evenodd" d="M5.03e+06,662500 L5.03e+06,797500 L5.43e+06,797500 L5.43e+06,662500 L5.03e+06,662500"/>
</g>

<g fill="none" stroke="#212121" stroke-opacity="1" stroke-width="0.666667" stroke-linecap="butt" stroke-linejoin="miter" stroke-miterlimit="2" transform="matrix(0.75,0,0,0.75,-11.925,-11.64)"
font-family="MS Shell Dlg 2" font-size="8.25" font-weight="400" font-style="normal" 
>
<path vector-effect="none" fill-rule="evenodd" d="M503,79.75 L503,66.25 L543,66.25 L543,79.75 L503,79.75"/>
</g>

<g fill="#212121" fill-opacity="1" stroke="none" transform="matrix(0.75,0,0,0.75,397.575,45.75)"
font-family="MS Shell Dlg 2" font-size="8.25" font-weight="400" font-style="normal" 
>
<path vector-effect="none" fill-rule="evenodd" d="M0.4375,0 L0.4375,-0.5 C1.39583,-0.5 1.875,-0.645833 1.875,-0.9375 L1.875,-8.625 C1.875,-8.92708 1.39583,-9.07813 0.4375,-9.07813 L0.4375,-9.5625 L8.34375,-9.5625 L8.73438,-6.35938 L8.32813,-6.35938 C8.23438,-7.16146 8.09635,-7.74479 7.91406,-8.10938 C7.73177,-8.47396 7.44271,-8.72656 7.04688,-8.86719 C6.65104,-9.00781 6.05729,-9.07813 5.26563,-9.07813 L3.89063,-9.07813 C3.72396,-9.07813 3.59375,-9.07031 3.5,-9.05469 C3.40625,-9.03906 3.32813,-8.9974 3.26563,-8.92969 C3.20313,-8.86198 3.17188,-8.76042 3.17188,-8.625 L3.17188,-5.20313 L4.21875,-5.20313 C4.6875,-5.20313 5.03906,-5.24479 5.27344,-5.32813 C5.50781,-5.41146 5.66927,-5.5651 5.75781,-5.78906 C5.84635,-6.01302 5.89063,-6.36458 5.89063,-6.84375 L6.29688,-6.84375 L6.29688,-3.07813 L5.89063,-3.07813 C5.89063,-3.55729 5.84635,-3.91146 5.75781,-4.14063 C5.66927,-4.36979 5.50781,-4.52344 5.27344,-4.60156 C5.03906,-4.67969 4.6875,-4.71875 4.21875,-4.71875 L3.17188,-4.71875 L3.17188,-0.9375 C3.17188,-0.739583 3.22917,-0.617188 3.34375,-0.570313 C3.45833,-0.523438 3.64063,-0.5 3.89063,-0.5 L5.375,-0.5 C6.02083,-0.5 6.54427,-0.549479 6.94531,-0.648438 C7.34635,-0.747396 7.65625,-0.916667 7.875,-1.15625 C8.09375,-1.39583 8.26302,-1.70573 8.38281,-2.08594 C8.5026,-2.46615 8.61458,-2.99479 8.71875,-3.67188 L9.125,-3.67188 L8.53125,0 L0.4375,0"/>
</g>

<g fill="#212121" fill-opacity="1" stroke="none" transform="matrix(0.75,0,0,0.75,405.061,45.75)"
font-family="MS Shell Dlg 2" font-size="8.25" font-weight="400" font-style="normal" 
>
<path vector-effect="none" fill-rule="evenodd" d="M0.421875,0 L0.421875,-0.5 C0.734375,-0.5 0.994792,-0.523438 1.20313,-0.570313 C1.41146,-0.617188 1.51563,-0.739583 1.51563,-0.9375 L1.51563,-4.76563 C1.51563,-5.01563 1.47656,-5.19531 1.39844,-5.30469 C1.32031,-5.41406 1.21094,-5.48177 1.07031,-5.50781 C0.929688,-5.53385 0.713542,-5.54688 0.421875,-5.54688 L0.421875,-6.03125 L2.45313,-6.1875 L2.45313,-4.8125 C2.64063,-5.21875 2.91667,-5.54948 3.28125,-5.80469 C3.64583,-6.0599 4.04688,-6.1875 4.48438,-6.1875 C5.55729,-6.1875 6.1875,-5.75 6.375,-4.875 C6.5625,-5.27083 6.83594,-5.58854 7.19531,-5.82813 C7.55469,-6.06771 7.94792,-6.1875 8.375,-6.1875 C8.80208,-6.1875 9.15885,-6.11979 9.44531,-5.98438 C9.73177,-5.84896 9.94792,-5.64063 10.0938,-5.35938 C10.2396,-5.07813 10.3125,-4.72396 10.3125,-4.29688 L10.3125,-0.9375 C10.3125,-0.739583 10.4167,-0.617188 10.625,-0.570313 C10.8333,-0.523438 11.0938,-0.5 11.4063,-0.5 L11.4063,0 L8.20313,0 L8.20313,-0.5 C8.52604,-0.5 8.78906,-0.523438 8.99219,-0.570313 C9.19531,-0.617188 9.29688,-0.739583 9.29688,-0.9375 L9.29688,-4.26563 C9.29688,-4.73438 9.23177,-5.11198 9.10156,-5.39844 C8.97135,-5.6849 8.69792,-5.82813 8.28125,-5.82813 C7.75,-5.82813 7.30729,-5.61198 6.95313,-5.17969 C6.59896,-4.7474 6.42188,-4.25521 6.42188,-3.70313 L6.42188,-0.9375 C6.42188,-0.739583 6.52604,-0.617188 6.73438,-0.570313 C6.94271,-0.523438 7.20313,-0.5 7.51563,-0.5 L7.51563,0 L4.3125,0 L4.3125,-0.5 C4.63542,-0.5 4.89844,-0.523438 5.10156,-0.570313 C5.30469,-0.617188 5.40625,-0.739583 5.40625,-0.9375 L5.40625,-4.26563 C5.40625,-4.71354 5.34115,-5.08594 5.21094,-5.38281 C5.08073,-5.67969 4.80729,-5.82813 4.39063,-5.82813 C3.84896,-5.82813 3.40365,-5.61198 3.05469,-5.17969 C2.70573,-4.7474 2.53125,-4.25521 2.53125,-3.70313 L2.53125,-0.9375 C2.53125,-0.739583 2.63542,-0.617188 2.84375,-0.570313 C3.05208,-0.523438 3.3125,-0.5 3.625,-0.5 L3.625,0 L0.421875,0"/>
</g>

<g fill="#212121" fill-opacity="1" stroke="none" transform="matrix(0.75,0,0,0.75,414.228,45.75)"
font-family="MS Shell Dlg 2" font-size="8.25" font-weight="400" font-style="normal" 
>
<path vector-effect="none" fill-rule="evenodd" d="M0.453125,0 L0.453125,-0.5 C1.28646,-0.5 1.79688,-0.770833 1.98438,-1.3125 L4.92188,-9.875 C4.95313,-9.96875 5.03125,-10.0156 5.15625,-10.0156 L5.32813,-10.0156 C5.45313,-10.0156 5.53125,-9.96875 5.5625,-9.875 L8.625,-0.9375 C8.70833,-0.739583 8.8724,-0.617188 9.11719,-0.570313 C9.36198,-0.523438 9.66667,-0.5 10.0313,-0.5 L10.0313,0 L6.125,0 L6.125,-0.5 C6.90625,-0.5 7.29688,-0.625 7.29688,-0.875 L7.29688,-0.9375 L6.53125,-3.125 L3.14063,-3.125 L2.51563,-1.3125 C2.50521,-1.28125 2.5,-1.23438 2.5,-1.17188 C2.5,-0.942708 2.60938,-0.773438 2.82813,-0.664063 C3.04688,-0.554688 3.28646,-0.5 3.54688,-0.5 L3.54688,0 L0.453125,0 M3.29688,-3.60938 L6.375,-3.60938 L4.82813,-8.07813 L3.29688,-3.60938"/>
</g>

<g fill="#212121" fill-opacity="1" stroke="none" transform="matrix(0.75,0,0,0.75,422.478,45.75)"
font-family="MS Shell Dlg 2" font-size="8.25" font-weight="400" font-style="normal" 
>
<path vector-effect="none" fill-rule="evenodd" d="M0.4375,0 L0.4375,-0.5 C1.39583,-0.5 1.875,-0.645833 1.875,-0.9375 L1.875,-8.625 C1.875,-8.92708 1.39583,-9.07813 0.4375,-9.07813 L0.4375,-9.5625 L4.96875,-9.5625 L4.96875,-9.07813 C3.77083,-9.07813 3.17188,-8.92708 3.17188,-8.625 L3.17188,-0.9375 C3.17188,-0.739583 3.22917,-0.617188 3.34375,-0.570313 C3.45833,-0.523438 3.64063,-0.5 3.89063,-0.5 L4.96875,-0.5 C5.66667,-0.5 6.20573,-0.627604 6.58594,-0.882813 C6.96615,-1.13802 7.23438,-1.48438 7.39063,-1.92188 C7.54688,-2.35938 7.66667,-2.94271 7.75,-3.67188 L8.15625,-3.67188 L7.76563,0 L0.4375,0"/>
</g>

<g fill="#212121" fill-opacity="1" stroke="none" transform="matrix(0.75,0,0,0.75,428.436,45.75)"
font-family="MS Shell Dlg 2" font-size="8.25" font-weight="400" font-style="normal" 
>
<path vector-effect="none" fill-rule="evenodd" d="M2.35938,0 L2.35938,-0.5 C2.82813,-0.5 3.28385,-0.526042 3.72656,-0.578125 C4.16927,-0.630208 4.39063,-0.75 4.39063,-0.9375 L4.39063,-8.625 C4.39063,-8.82292 4.33594,-8.94792 4.22656,-9 C4.11719,-9.05208 3.9375,-9.07813 3.6875,-9.07813 L3.09375,-9.07813 C2.32292,-9.07813 1.77604,-8.90625 1.45313,-8.5625 C1.28646,-8.39583 1.16667,-8.1276 1.09375,-7.75781 C1.02083,-7.38802 0.958333,-6.92188 0.90625,-6.35938 L0.5,-6.35938 L0.765625,-9.5625 L9.32813,-9.5625 L9.59375,-6.35938 L9.1875,-6.35938 C9.125,-6.96354 9.0625,-7.4401 9,-7.78906 C8.9375,-8.13802 8.81771,-8.39583 8.64063,-8.5625 C8.31771,-8.90625 7.77083,-9.07813 7,-9.07813 L6.40625,-9.07813 C6.23958,-9.07813 6.10938,-9.07031 6.01563,-9.05469 C5.92188,-9.03906 5.84635,-8.9974 5.78906,-8.92969 C5.73177,-8.86198 5.70313,-8.76042 5.70313,-8.625 L5.70313,-0.9375 C5.70313,-0.75 5.92448,-0.630208 6.36719,-0.578125 C6.8099,-0.526042 7.26042,-0.5 7.71875,-0.5 L7.71875,0 L2.35938,0"/>
</g>

<g fill="none" stroke="#212121" stroke-opacity="1" stroke-width="1.06667" stroke-linecap="butt" stroke-linejoin="miter" stroke-miterlimit="2" transform="matrix(0.75,0,0,0.75,-11.925,-11.64)"
font-family="MS Shell Dlg 2" font-size="8.25" font-weight="400" font-style="normal" 
>
<path vector-effect="none" fill-rule="evenodd" d="M499,84 L499,23 L705,23 L705,84 L499,84"/>
</g>
</g>
</svg>
