<?xml version="1.0" encoding="UTF-8" standalone="no"?>
<svg width="182.739mm" height="68.7917mm"
 viewBox="0 0 518 195"
 xmlns="http://www.w3.org/2000/svg" xmlns:xlink="http://www.w3.org/1999/xlink"  version="1.2" baseProfile="tiny">
<title>Qt SVG Document</title>
<desc>MATLAB, The MathWorks, Inc. Version 25.2.0.3055257 R2025b Update 2</desc>
<defs>
</defs>
<g fill="none" stroke="black" stroke-width="1" fill-rule="evenodd" stroke-linecap="square" stroke-linejoin="bevel" >

<g fill="#ffffff" fill-opacity="1" stroke="none" transform="matrix(0.75,0,0,0.75,-13.425,-11.64)"
font-family="MS Shell Dlg 2" font-size="8.25" font-weight="400" font-style="normal" 
>
<path vector-effect="none" fill-rule="evenodd" d="M16,14 L707,14 L707,275 L16,275 L16,14"/>
</g>

<g fill="#ffffff" fill-opacity="1" stroke="none" transform="matrix(7.5e-05,0,0,7.5e-05,-13.425,-11.64)"
font-family="MS Shell Dlg 2" font-size="8.25" font-weight="400" font-style="normal" 
>
<path vector-effect="none" fill-rule="evenodd" d="M700000,230000 L700000,2.69e+06 L4.9e+06,2.69e+06 L4.9e+06,230000 L700000,230000"/>
</g>

<g fill="#212121" fill-opacity="0.25098" stroke="#212121" stroke-opacity="0.25098" stroke-dasharray="1,3" stroke-dashoffset="0" stroke-width="1.06667" stroke-linecap="butt" stroke-linejoin="round" transform="matrix(0.75,0,0,0.75,-13.425,-11.64)"
font-family="MS Shell Dlg 2" font-size="8.25" font-weight="400" font-style="normal" 
>
<polyline fill="none" vector-effect="none" points="104.349,23 104.349,269 " />
<polyline fill="none" vector-effect="none" points="174.61,23 174.61,269 " />
<polyline fill="none" vector-effect="none" points="244.87,23 244.87,269 " />
<polyline fill="none" vector-effect="none" points="315.13,23 315.13,269 " />
<polyline fill="none" vector-effect="none" points="385.39,23 385.39,269 " />
<polyline fill="none" vector-effect="none" points="455.651,23 455.651,269 " />
<polyline fill="none" vector-effect="none" points="70,269 490,269 " />
<polyline fill="none" vector-effect="none" points="70,219.8 490,219.8 " />
<polyline fill="none" vector-effect="none" points="70,170.6 490,170.6 " />
<polyline fill="none" vector-effect="none" points="70,121.4 490,121.4 " />
<polyline fill="none" vector-effect="none" points="70,72.2 490,72.2 " />
<polyline fill="none" vector-effect="none" points="70,23 490,23 " />
</g>

<g fill="#212121" fill-opacity="1" stroke="#212121" stroke-opacity="1" stroke-width="0.666667" stroke-linecap="butt" stroke-linejoin="round" transform="matrix(0.75,0,0,0.75,-13.425,-11.64)"
font-family="MS Shell Dlg 2" font-size="8.25" font-weight="400" font-style="normal" 
>
<polyline fill="none" vector-effect="none" points="70,269 490,269 " />
</g>

<g fill="#000000" fill-opacity="1" stroke="none" transform="matrix(7.5e-05,0,0,7.5e-05,-13.425,-11.64)"
font-family="MS Shell Dlg 2" font-size="8.25" font-weight="400" font-style="normal" 
>
<path vector-effect="none" fill-rule="evenodd" d="M824907,242053 L824907,2.69e+06 L949814,2.69e+06 L949814,242053 L824907,242053"/>
</g>

<g fill="#000000" fill-opacity="1" stroke="none" transform="matrix(7.5e-05,0,0,7.5e-05,-13.425,-11.64)"
font-family="MS Shell Dlg 2" font-size="8.25" font-weight="400" font-style="normal" 
>
<path vector-effect="none" fill-rule="evenodd" d="M1.52751e+06,943153 L1.52751e+06,2.69e+06 L1.65242e+06,2.69e+06 L1.65242e+06,943153 L1.52751e+06,943153"/>
</g>

<g fill="#000000" fill-opacity="1" stroke="none" transform="matrix(7.5e-05,0,0,7.5e-05,-13.425,-11.64)"
font-family="MS Shell Dlg 2" font-size="8.25" font-weight="400" font-style="normal" 
>
<path vector-effect="none" fill-rule="evenodd" d="M2.23011e+06,930115 L2.23011e+06,2.69e+06 L2.35502e+06,2.69e+06 L2.35502e+06,930115 L2.23011e+06,930115"/>
</g>

<g fill="#000000" fill-opacity="1" stroke="none" transform="matrix(7.5e-05,0,0,7.5e-05,-13.425,-11.64)"
font-family="MS Shell Dlg 2" font-size="8.25" font-weight="400" font-style="normal" 
>
<path vector-effect="none" fill-rule="evenodd" d="M2.93271e+06,1.26664e+06 L2.93271e+06,2.69e+06 L3.05762e+06,2.69e+06 L3.05762e+06,1.26664e+06 L2.93271e+06,1.26664e+06"/>
</g>

<g fill="#000000" fill-opacity="1" stroke="none" transform="matrix(7.5e-05,0,0,7.5e-05,-13.425,-11.64)"
font-family="MS Shell Dlg 2" font-size="8.25" font-weight="400" font-style="normal" 
>
<path vector-effect="none" fill-rule="evenodd" d="M3.63532e+06,997765 L3.63532e+06,2.69e+06 L3.76022e+06,2.69e+06 L3.76022e+06,997765 L3.63532e+06,997765"/>
</g>

<g fill="#000000" fill-opacity="1" stroke="none" transform="matrix(7.5e-05,0,0,7.5e-05,-13.425,-11.64)"
font-family="MS Shell Dlg 2" font-size="8.25" font-weight="400" font-style="normal" 
>
<path vector-effect="none" fill-rule="evenodd" d="M4.33792e+06,998258 L4.33792e+06,2.69e+06 L4.46283e+06,2.69e+06 L4.46283e+06,998258 L4.33792e+06,998258"/>
</g>

<g fill="none" stroke="#212121" stroke-opacity="1" stroke-width="0.666667" stroke-linecap="butt" stroke-linejoin="miter" stroke-miterlimit="2" transform="matrix(0.75,0,0,0.75,-13.425,-11.64)"
font-family="MS Shell Dlg 2" font-size="8.25" font-weight="400" font-style="normal" 
>
<path vector-effect="none" fill-rule="evenodd" d="M82.4907,269 L82.4907,24.2054 L94.9814,24.2054 L94.9814,269 L82.4907,269"/>
<path vector-effect="none" fill-rule="evenodd" d="M152.751,269 L152.751,94.3154 L165.242,94.3154 L165.242,269 L152.751,269"/>
<path vector-effect="none" fill-rule="evenodd" d="M223.011,269 L223.011,93.0116 L235.502,93.0116 L235.502,269 L223.011,269"/>
<path vector-effect="none" fill-rule="evenodd" d="M293.271,269 L293.271,126.664 L305.762,126.664 L305.762,269 L293.271,269"/>
<path vector-effect="none" fill-rule="evenodd" d="M363.532,269 L363.532,99.7766 L376.022,99.7766 L376.022,269 L363.532,269"/>
<path vector-effect="none" fill-rule="evenodd" d="M433.792,269 L433.792,99.8258 L446.283,99.8258 L446.283,269 L433.792,269"/>
</g>

<g fill="#999999" fill-opacity="1" stroke="none" transform="matrix(7.5e-05,0,0,7.5e-05,-13.425,-11.64)"
font-family="MS Shell Dlg 2" font-size="8.25" font-weight="400" font-style="normal" 
>
<path vector-effect="none" fill-rule="evenodd" d="M981040,266162 L981040,2.69e+06 L1.10595e+06,2.69e+06 L1.10595e+06,266162 L981040,266162"/>
</g>

<g fill="#999999" fill-opacity="1" stroke="none" transform="matrix(7.5e-05,0,0,7.5e-05,-13.425,-11.64)"
font-family="MS Shell Dlg 2" font-size="8.25" font-weight="400" font-style="normal" 
>
<path vector-effect="none" fill-rule="evenodd" d="M1.68364e+06,1.33085e+06 L1.68364e+06,2.69e+06 L1.80855e+06,2.69e+06 L1.80855e+06,1.33085e+06 L1.68364e+06,1.33085e+06"/>
</g>

<g fill="#999999" fill-opacity="1" stroke="none" transform="matrix(7.5e-05,0,0,7.5e-05,-13.425,-11.64)"
font-family="MS Shell Dlg 2" font-size="8.25" font-weight="400" font-style="normal" 
>
<path vector-effect="none" fill-rule="evenodd" d="M2.38625e+06,1.33552e+06 L2.38625e+06,2.69e+06 L2.51115e+06,2.69e+06 L2.51115e+06,1.33552e+06 L2.38625e+06,1.33552e+06"/>
</g>

<g fill="#999999" fill-opacity="1" stroke="none" transform="matrix(7.5e-05,0,0,7.5e-05,-13.425,-11.64)"
font-family="MS Shell Dlg 2" font-size="8.25" font-weight="400" font-style="normal" 
>
<path vector-effect="none" fill-rule="evenodd" d="M3.08885e+06,1.41449e+06 L3.08885e+06,2.69e+06 L3.21376e+06,2.69e+06 L3.21376e+06,1.41449e+06 L3.08885e+06,1.41449e+06"/>
</g>

<g fill="#999999" fill-opacity="1" stroke="none" transform="matrix(7.5e-05,0,0,7.5e-05,-13.425,-11.64)"
font-family="MS Shell Dlg 2" font-size="8.25" font-weight="400" font-style="normal" 
>
<path vector-effect="none" fill-rule="evenodd" d="M3.79145e+06,1.4969e+06 L3.79145e+06,2.69e+06 L3.91636e+06,2.69e+06 L3.91636e+06,1.4969e+06 L3.79145e+06,1.4969e+06"/>
</g>

<g fill="#999999" fill-opacity="1" stroke="none" transform="matrix(7.5e-05,0,0,7.5e-05,-13.425,-11.64)"
font-family="MS Shell Dlg 2" font-size="8.25" font-weight="400" font-style="normal" 
>
<path vector-effect="none" fill-rule="evenodd" d="M4.49405e+06,1.48804e+06 L4.49405e+06,2.69e+06 L4.61896e+06,2.69e+06 L4.61896e+06,1.48804e+06 L4.49405e+06,1.48804e+06"/>
</g>

<g fill="none" stroke="#212121" stroke-opacity="1" stroke-width="0.666667" stroke-linecap="butt" stroke-linejoin="miter" stroke-miterlimit="2" transform="matrix(0.75,0,0,0.75,-13.425,-11.64)"
font-family="MS Shell Dlg 2" font-size="8.25" font-weight="400" font-style="normal" 
>
<path vector-effect="none" fill-rule="evenodd" d="M98.1041,269 L98.1041,26.6162 L110.595,26.6162 L110.595,269 L98.1041,269"/>
<path vector-effect="none" fill-rule="evenodd" d="M168.364,269 L168.364,133.085 L180.855,133.085 L180.855,269 L168.364,269"/>
<path vector-effect="none" fill-rule="evenodd" d="M238.625,269 L238.625,133.552 L251.115,133.552 L251.115,269 L238.625,269"/>
<path vector-effect="none" fill-rule="evenodd" d="M308.885,269 L308.885,141.449 L321.375,141.449 L321.375,269 L308.885,269"/>
<path vector-effect="none" fill-rule="evenodd" d="M379.145,269 L379.145,149.69 L391.636,149.69 L391.636,269 L379.145,269"/>
<path vector-effect="none" fill-rule="evenodd" d="M449.405,269 L449.405,148.804 L461.896,148.804 L461.896,269 L449.405,269"/>
</g>

<g fill="#4d4d4d" fill-opacity="1" stroke="none" transform="matrix(7.5e-05,0,0,7.5e-05,-13.425,-11.64)"
font-family="MS Shell Dlg 2" font-size="8.25" font-weight="400" font-style="normal" 
>
<path vector-effect="none" fill-rule="evenodd" d="M1.13717e+06,240086 L1.13717e+06,2.69e+06 L1.26208e+06,2.69e+06 L1.26208e+06,240086 L1.13717e+06,240086"/>
</g>

<g fill="#4d4d4d" fill-opacity="1" stroke="none" transform="matrix(7.5e-05,0,0,7.5e-05,-13.425,-11.64)"
font-family="MS Shell Dlg 2" font-size="8.25" font-weight="400" font-style="normal" 
>
<path vector-effect="none" fill-rule="evenodd" d="M1.83978e+06,1.14094e+06 L1.83978e+06,2.69e+06 L1.96468e+06,2.69e+06 L1.96468e+06,1.14094e+06 L1.83978e+06,1.14094e+06"/>
</g>

<g fill="#4d4d4d" fill-opacity="1" stroke="none" transform="matrix(7.5e-05,0,0,7.5e-05,-13.425,-11.64)"
font-family="MS Shell Dlg 2" font-size="8.25" font-weight="400" font-style="normal" 
>
<path vector-effect="none" fill-rule="evenodd" d="M2.54238e+06,1.17021e+06 L2.54238e+06,2.69e+06 L2.66729e+06,2.69e+06 L2.66729e+06,1.17021e+06 L2.54238e+06,1.17021e+06"/>
</g>

<g fill="#4d4d4d" fill-opacity="1" stroke="none" transform="matrix(7.5e-05,0,0,7.5e-05,-13.425,-11.64)"
font-family="MS Shell Dlg 2" font-size="8.25" font-weight="400" font-style="normal" 
>
<path vector-effect="none" fill-rule="evenodd" d="M3.24498e+06,1.15668e+06 L3.24498e+06,2.69e+06 L3.36989e+06,2.69e+06 L3.36989e+06,1.15668e+06 L3.24498e+06,1.15668e+06"/>
</g>

<g fill="#4d4d4d" fill-opacity="1" stroke="none" transform="matrix(7.5e-05,0,0,7.5e-05,-13.425,-11.64)"
font-family="MS Shell Dlg 2" font-size="8.25" font-weight="400" font-style="normal" 
>
<path vector-effect="none" fill-rule="evenodd" d="M3.94758e+06,1.32864e+06 L3.94758e+06,2.69e+06 L4.07249e+06,2.69e+06 L4.07249e+06,1.32864e+06 L3.94758e+06,1.32864e+06"/>
</g>

<g fill="#4d4d4d" fill-opacity="1" stroke="none" transform="matrix(7.5e-05,0,0,7.5e-05,-13.425,-11.64)"
font-family="MS Shell Dlg 2" font-size="8.25" font-weight="400" font-style="normal" 
>
<path vector-effect="none" fill-rule="evenodd" d="M4.65019e+06,802688 L4.65019e+06,2.69e+06 L4.77509e+06,2.69e+06 L4.77509e+06,802688 L4.65019e+06,802688"/>
</g>

<g fill="none" stroke="#212121" stroke-opacity="1" stroke-width="0.666667" stroke-linecap="butt" stroke-linejoin="miter" stroke-miterlimit="2" transform="matrix(0.75,0,0,0.75,-13.425,-11.64)"
font-family="MS Shell Dlg 2" font-size="8.25" font-weight="400" font-style="normal" 
>
<path vector-effect="none" fill-rule="evenodd" d="M113.717,269 L113.717,24.0086 L126.208,24.0086 L126.208,269 L113.717,269"/>
<path vector-effect="none" fill-rule="evenodd" d="M183.978,269 L183.978,114.094 L196.468,114.094 L196.468,269 L183.978,269"/>
<path vector-effect="none" fill-rule="evenodd" d="M254.238,269 L254.238,117.021 L266.729,117.021 L266.729,269 L254.238,269"/>
<path vector-effect="none" fill-rule="evenodd" d="M324.498,269 L324.498,115.668 L336.989,115.668 L336.989,269 L324.498,269"/>
<path vector-effect="none" fill-rule="evenodd" d="M394.758,269 L394.758,132.864 L407.249,132.864 L407.249,269 L394.758,269"/>
<path vector-effect="none" fill-rule="evenodd" d="M465.019,269 L465.019,80.2688 L477.509,80.2688 L477.509,269 L465.019,269"/>
</g>

<g fill="#000000" fill-opacity="1" stroke="#000000" stroke-opacity="1" stroke-width="0.533333" stroke-linecap="butt" stroke-linejoin="round" transform="matrix(0.75,0,0,0.75,-13.425,-11.64)"
font-family="MS Shell Dlg 2" font-size="8.25" font-weight="400" font-style="normal" 
>
<polyline fill="none" vector-effect="none" points="88.7361,24.2054 88.7361,24.5421 " />
<polyline fill="none" vector-effect="none" points="158.996,94.3154 158.996,96.503 " />
<polyline fill="none" vector-effect="none" points="229.257,93.0116 229.257,95.1872 " />
<polyline fill="none" vector-effect="none" points="299.517,126.664 299.517,129.045 " />
<polyline fill="none" vector-effect="none" points="369.777,99.7766 369.777,102.011 " />
<polyline fill="none" vector-effect="none" points="440.037,99.8258 440.037,102.06 " />
<polyline fill="none" vector-effect="none" points="88.7361,24.2054 88.7361,23.8687 " />
<polyline fill="none" vector-effect="none" points="158.996,94.3154 158.996,92.1278 " />
<polyline fill="none" vector-effect="none" points="229.257,93.0116 229.257,90.836 " />
<polyline fill="none" vector-effect="none" points="299.517,126.664 299.517,124.284 " />
<polyline fill="none" vector-effect="none" points="369.777,99.7766 369.777,97.5425 " />
<polyline fill="none" vector-effect="none" points="440.037,99.8258 440.037,97.5913 " />
</g>

<g fill="#000000" fill-opacity="1" stroke="#000000" stroke-opacity="1" stroke-width="0.533333" stroke-linecap="butt" stroke-linejoin="miter" stroke-miterlimit="2" transform="matrix(0.75,0,0,0.75,-13.425,-11.64)"
font-family="MS Shell Dlg 2" font-size="8.25" font-weight="400" font-style="normal" 
>
<polyline fill="none" vector-effect="none" points="84.7361,24.5421 92.7361,24.5421 " />
<polyline fill="none" vector-effect="none" points="154.996,96.503 162.996,96.503 " />
<polyline fill="none" vector-effect="none" points="225.257,95.1872 233.257,95.1872 " />
<polyline fill="none" vector-effect="none" points="295.517,129.045 303.517,129.045 " />
<polyline fill="none" vector-effect="none" points="365.777,102.011 373.777,102.011 " />
<polyline fill="none" vector-effect="none" points="436.037,102.06 444.037,102.06 " />
<polyline fill="none" vector-effect="none" points="84.7361,23.8687 92.7361,23.8687 " />
<polyline fill="none" vector-effect="none" points="154.996,92.1278 162.996,92.1278 " />
<polyline fill="none" vector-effect="none" points="225.257,90.836 233.257,90.836 " />
<polyline fill="none" vector-effect="none" points="295.517,124.284 303.517,124.284 " />
<polyline fill="none" vector-effect="none" points="365.777,97.5425 373.777,97.5425 " />
<polyline fill="none" vector-effect="none" points="436.037,97.5913 444.037,97.5913 " />
</g>

<g fill="#000000" fill-opacity="1" stroke="#000000" stroke-opacity="1" stroke-width="0.533333" stroke-linecap="butt" stroke-linejoin="round" transform="matrix(0.75,0,0,0.75,-13.425,-11.64)"
font-family="MS Shell Dlg 2" font-size="8.25" font-weight="400" font-style="normal" 
>
<polyline fill="none" vector-effect="none" points="104.349,26.6162 104.349,27.1965 " />
<polyline fill="none" vector-effect="none" points="174.61,133.085 174.61,135.482 " />
<polyline fill="none" vector-effect="none" points="244.87,133.552 244.87,135.951 " />
<polyline fill="none" vector-effect="none" points="315.13,141.449 315.13,143.858 " />
<polyline fill="none" vector-effect="none" points="385.39,149.69 385.39,152.1 " />
<polyline fill="none" vector-effect="none" points="455.651,148.804 455.651,151.215 " />
<polyline fill="none" vector-effect="none" points="104.349,26.6162 104.349,26.0359 " />
<polyline fill="none" vector-effect="none" points="174.61,133.085 174.61,130.688 " />
<polyline fill="none" vector-effect="none" points="244.87,133.552 244.87,131.154 " />
<polyline fill="none" vector-effect="none" points="315.13,141.449 315.13,139.04 " />
<polyline fill="none" vector-effect="none" points="385.39,149.69 385.39,147.28 " />
<polyline fill="none" vector-effect="none" points="455.651,148.804 455.651,146.394 " />
</g>

<g fill="#000000" fill-opacity="1" stroke="#000000" stroke-opacity="1" stroke-width="0.533333" stroke-linecap="butt" stroke-linejoin="miter" stroke-miterlimit="2" transform="matrix(0.75,0,0,0.75,-13.425,-11.64)"
font-family="MS Shell Dlg 2" font-size="8.25" font-weight="400" font-style="normal" 
>
<polyline fill="none" vector-effect="none" points="100.349,27.1965 108.349,27.1965 " />
<polyline fill="none" vector-effect="none" points="170.61,135.482 178.61,135.482 " />
<polyline fill="none" vector-effect="none" points="240.87,135.951 248.87,135.951 " />
<polyline fill="none" vector-effect="none" points="311.13,143.858 319.13,143.858 " />
<polyline fill="none" vector-effect="none" points="381.39,152.1 389.39,152.1 " />
<polyline fill="none" vector-effect="none" points="451.651,151.215 459.651,151.215 " />
<polyline fill="none" vector-effect="none" points="100.349,26.0359 108.349,26.0359 " />
<polyline fill="none" vector-effect="none" points="170.61,130.688 178.61,130.688 " />
<polyline fill="none" vector-effect="none" points="240.87,131.154 248.87,131.154 " />
<polyline fill="none" vector-effect="none" points="311.13,139.04 319.13,139.04 " />
<polyline fill="none" vector-effect="none" points="381.39,147.28 389.39,147.28 " />
<polyline fill="none" vector-effect="none" points="451.651,146.394 459.651,146.394 " />
</g>

<g fill="#000000" fill-opacity="1" stroke="#000000" stroke-opacity="1" stroke-width="0.533333" stroke-linecap="butt" stroke-linejoin="round" transform="matrix(0.75,0,0,0.75,-13.425,-11.64)"
font-family="MS Shell Dlg 2" font-size="8.25" font-weight="400" font-style="normal" 
>
<polyline fill="none" vector-effect="none" points="119.963,24.0086 119.963,24.3167 " />
<polyline fill="none" vector-effect="none" points="190.223,114.094 190.223,116.422 " />
<polyline fill="none" vector-effect="none" points="260.483,117.021 260.483,119.364 " />
<polyline fill="none" vector-effect="none" points="330.743,115.668 330.743,118.005 " />
<polyline fill="none" vector-effect="none" points="401.004,132.864 401.004,135.261 " />
<polyline fill="none" vector-effect="none" points="471.264,80.2688 471.264,82.3065 " />
<polyline fill="none" vector-effect="none" points="119.963,24.0086 119.963,23.7005 " />
<polyline fill="none" vector-effect="none" points="190.223,114.094 190.223,111.766 " />
<polyline fill="none" vector-effect="none" points="260.483,117.021 260.483,114.678 " />
<polyline fill="none" vector-effect="none" points="330.743,115.668 330.743,113.332 " />
<polyline fill="none" vector-effect="none" points="401.004,132.864 401.004,130.467 " />
<polyline fill="none" vector-effect="none" points="471.264,80.2688 471.264,78.2311 " />
</g>

<g fill="#000000" fill-opacity="1" stroke="#000000" stroke-opacity="1" stroke-width="0.533333" stroke-linecap="butt" stroke-linejoin="miter" stroke-miterlimit="2" transform="matrix(0.75,0,0,0.75,-13.425,-11.64)"
font-family="MS Shell Dlg 2" font-size="8.25" font-weight="400" font-style="normal" 
>
<polyline fill="none" vector-effect="none" points="115.963,24.3167 123.963,24.3167 " />
<polyline fill="none" vector-effect="none" points="186.223,116.422 194.223,116.422 " />
<polyline fill="none" vector-effect="none" points="256.483,119.364 264.483,119.364 " />
<polyline fill="none" vector-effect="none" points="326.743,118.005 334.743,118.005 " />
<polyline fill="none" vector-effect="none" points="397.004,135.261 405.004,135.261 " />
<polyline fill="none" vector-effect="none" points="467.264,82.3065 475.264,82.3065 " />
<polyline fill="none" vector-effect="none" points="115.963,23.7005 123.963,23.7005 " />
<polyline fill="none" vector-effect="none" points="186.223,111.766 194.223,111.766 " />
<polyline fill="none" vector-effect="none" points="256.483,114.678 264.483,114.678 " />
<polyline fill="none" vector-effect="none" points="326.743,113.332 334.743,113.332 " />
<polyline fill="none" vector-effect="none" points="397.004,130.467 405.004,130.467 " />
<polyline fill="none" vector-effect="none" points="467.264,78.2311 475.264,78.2311 " />
</g>

<g fill="#212121" fill-opacity="1" stroke="#212121" stroke-opacity="1" stroke-width="1.06667" stroke-linecap="square" stroke-linejoin="round" transform="matrix(0.75,0,0,0.75,-13.425,-11.64)"
font-family="MS Shell Dlg 2" font-size="8.25" font-weight="400" font-style="normal" 
>
<polyline fill="none" vector-effect="none" points="70,269 490,269 " />
<polyline fill="none" vector-effect="none" points="70,23 490,23 " />
<polyline fill="none" vector-effect="none" points="104.349,269 104.349,264.8 " />
<polyline fill="none" vector-effect="none" points="104.349,27.2 104.349,23 " />
<polyline fill="none" vector-effect="none" points="174.61,269 174.61,264.8 " />
<polyline fill="none" vector-effect="none" points="174.61,27.2 174.61,23 " />
<polyline fill="none" vector-effect="none" points="244.87,269 244.87,264.8 " />
<polyline fill="none" vector-effect="none" points="244.87,27.2 244.87,23 " />
<polyline fill="none" vector-effect="none" points="315.13,269 315.13,264.8 " />
<polyline fill="none" vector-effect="none" points="315.13,27.2 315.13,23 " />
<polyline fill="none" vector-effect="none" points="385.39,269 385.39,264.8 " />
<polyline fill="none" vector-effect="none" points="385.39,27.2 385.39,23 " />
<polyline fill="none" vector-effect="none" points="455.651,269 455.651,264.8 " />
<polyline fill="none" vector-effect="none" points="455.651,27.2 455.651,23 " />
</g>

<g fill="#212121" fill-opacity="1" stroke="none" transform="matrix(0,-0.75,0.75,0,9.75,154.485)"
font-family="MS Shell Dlg 2" font-size="8.25" font-weight="400" font-style="normal" 
>
<path vector-effect="none" fill-rule="evenodd" d="M0.84375,-2.60938 L1.1875,-2.60938 C1.25,-1.90104 1.47656,-1.35677 1.86719,-0.976563 C2.25781,-0.596354 2.83854,-0.369792 3.60938,-0.296875 L3.60938,-4.85938 C2.44271,-5.57813 1.66146,-6.21875 1.26563,-6.78125 C0.994792,-7.17708 0.859375,-7.65625 0.859375,-8.21875 C0.859375,-8.86458 1.09635,-9.42708 1.57031,-9.90625 C2.04427,-10.3854 2.72396,-10.6719 3.60938,-10.7656 L3.60938,-11.4844 L4.10938,-11.4844 L4.10938,-10.7656 C4.53646,-10.7448 4.89583,-10.6979 5.1875,-10.625 C5.34375,-10.5833 5.84375,-10.401 6.6875,-10.0781 L6.6875,-7.75 L6.39063,-7.75 C6.31771,-8.57292 6.10156,-9.17708 5.74219,-9.5625 C5.38281,-9.94792 4.83854,-10.1771 4.10938,-10.25 L4.10938,-6.28125 C5.42188,-5.36458 6.26563,-4.6875 6.64063,-4.25 C7.01563,-3.8125 7.20313,-3.27083 7.20313,-2.625 C7.20313,-1.90625 6.92969,-1.27344 6.38281,-0.726563 C5.83594,-0.179688 5.07813,0.135417 4.10938,0.21875 L4.10938,1.21875 L3.60938,1.21875 L3.60938,0.21875 C3.11979,0.197917 2.66406,0.140625 2.24219,0.046875 C1.82031,-0.046875 1.35417,-0.197917 0.84375,-0.40625 L0.84375,-2.60938 M3.60938,-6.60938 L3.60938,-10.2344 C3.08854,-10.1719 2.70313,-10.0078 2.45313,-9.74219 C2.20313,-9.47656 2.07813,-9.14063 2.07813,-8.73438 C2.07813,-8.34896 2.19271,-7.99219 2.42188,-7.66406 C2.65104,-7.33594 3.04688,-6.98438 3.60938,-6.60938 M4.10938,-0.296875 C4.50521,-0.359375 4.80729,-0.453125 5.01563,-0.578125 C5.30729,-0.765625 5.53646,-1.00521 5.70313,-1.29688 C5.86979,-1.58854 5.95313,-1.90104 5.95313,-2.23438 C5.95313,-2.57813 5.85156,-2.90365 5.64844,-3.21094 C5.44531,-3.51823 4.93229,-3.95313 4.10938,-4.51563 L4.10938,-0.296875 M8.65625,-11.1094 L12.4844,0.21875 L11.8594,0.21875 L8.03125,-11.1094 L8.65625,-11.1094 M17.125,-7.375 L17.125,-4.9375 L16.875,-4.9375 C16.6771,-5.69792 16.4219,-6.21615 16.1094,-6.49219 C15.7969,-6.76823 15.401,-6.90625 14.9219,-6.90625 C14.5573,-6.90625 14.263,-6.8099 14.0391,-6.61719 C13.8151,-6.42448 13.7031,-6.21354 13.7031,-5.98438 C13.7031,-5.69271 13.7865,-5.44271 13.9531,-5.23438 C14.1198,-5.01563 14.4479,-4.78646 14.9375,-4.54688 L16.0781,-4 C17.1406,-3.47917 17.6719,-2.79688 17.6719,-1.95313 C17.6719,-1.30729 17.4245,-0.783854 16.9297,-0.382813 C16.4349,0.0182292 15.8854,0.21875 15.2813,0.21875 C14.8438,0.21875 14.3438,0.140625 13.7813,-0.015625 C13.6042,-0.0677083 13.4635,-0.09375 13.3594,-0.09375 C13.2344,-0.09375 13.1406,-0.0260417 13.0781,0.109375 L12.8125,0.109375 L12.8125,-2.45313 L13.0781,-2.45313 C13.224,-1.72396 13.5026,-1.17448 13.9141,-0.804688 C14.3255,-0.434896 14.7865,-0.25 15.2969,-0.25 C15.651,-0.25 15.9427,-0.354167 16.1719,-0.5625 C16.401,-0.770833 16.5156,-1.02604 16.5156,-1.32813 C16.5156,-1.68229 16.388,-1.98177 16.1328,-2.22656 C15.8776,-2.47135 15.3724,-2.78125 14.6172,-3.15625 C13.862,-3.53125 13.3698,-3.86979 13.1406,-4.17188 C12.901,-4.47396 12.7813,-4.84896 12.7813,-5.29688 C12.7813,-5.89063 12.9844,-6.38542 13.3906,-6.78125 C13.7969,-7.17708 14.3177,-7.375 14.9531,-7.375 C15.2344,-7.375 15.5781,-7.3125 15.9844,-7.1875 C16.2448,-7.11458 16.4219,-7.07813 16.5156,-7.07813 C16.599,-7.07813 16.6641,-7.09635 16.7109,-7.13281 C16.7578,-7.16927 16.8125,-7.25 16.875,-7.375 L17.125,-7.375 M18.0938,-7.15625 L21.4375,-7.15625 L21.4375,-6.875 L21.2656,-6.875 C21.0365,-6.875 20.862,-6.82292 20.7422,-6.71875 C20.6224,-6.61458 20.5625,-6.48958 20.5625,-6.34375 C20.5625,-6.13542 20.651,-5.85417 20.8281,-5.5 L22.5625,-1.89063 L24.1719,-5.84375 C24.2552,-6.05208 24.2969,-6.26042 24.2969,-6.46875 C24.2969,-6.5625 24.2813,-6.63542 24.25,-6.6875 C24.2083,-6.73958 24.1432,-6.78385 24.0547,-6.82031 C23.9661,-6.85677 23.8073,-6.875 23.5781,-6.875 L23.5781,-7.15625 L25.9063,-7.15625 L25.9063,-6.875 C25.7188,-6.85417 25.5729,-6.8125 25.4688,-6.75 C25.3646,-6.6875 25.25,-6.56771 25.125,-6.39063 C25.0729,-6.31771 24.9844,-6.11979 24.8594,-5.79688 L21.9375,1.35938 C21.6563,2.04688 21.2891,2.56771 20.8359,2.92188 C20.3828,3.27604 19.9427,3.45313 19.5156,3.45313 C19.2135,3.45313 18.9635,3.36458 18.7656,3.1875 C18.5677,3.01042 18.4688,2.80729 18.4688,2.57813 C18.4688,2.35938 18.5391,2.1849 18.6797,2.05469 C18.8203,1.92448 19.0156,1.85938 19.2656,1.85938 C19.4427,1.85938 19.6771,1.91667 19.9688,2.03125 C20.1771,2.10417 20.3073,2.14063 20.3594,2.14063 C20.5156,2.14063 20.6875,2.0599 20.875,1.89844 C21.0625,1.73698 21.25,1.42708 21.4375,0.96875 L21.9375,-0.28125 L19.375,-5.6875 C19.2917,-5.84375 19.1667,-6.04167 19,-6.28125 C18.8646,-6.46875 18.7552,-6.59375 18.6719,-6.65625 C18.5573,-6.73958 18.3646,-6.8125 18.0938,-6.875 L18.0938,-7.15625 M28.625,-5.84375 C29.1458,-6.36458 29.4531,-6.66667 29.5469,-6.75 C29.7865,-6.94792 30.0417,-7.10156 30.3125,-7.21094 C30.5833,-7.32031 30.849,-7.375 31.1094,-7.375 C31.5573,-7.375 31.9427,-7.24479 32.2656,-6.98438 C32.5885,-6.72396 32.8073,-6.34375 32.9219,-5.84375 C33.4531,-6.46875 33.9036,-6.88021 34.2734,-7.07813 C34.6432,-7.27604 35.026,-7.375 35.4219,-7.375 C35.7969,-7.375 36.1328,-7.27604 36.4297,-7.07813 C36.7266,-6.88021 36.9583,-6.5625 37.125,-6.125 C37.2396,-5.82292 37.2969,-5.34896 37.2969,-4.70313 L37.2969,-1.625 C37.2969,-1.17708 37.3333,-0.869792 37.4063,-0.703125 C37.4583,-0.588542 37.5547,-0.489583 37.6953,-0.40625 C37.8359,-0.322917 38.0625,-0.28125 38.375,-0.28125 L38.375,0 L34.8438,0 L34.8438,-0.28125 L35,-0.28125 C35.3021,-0.28125 35.5417,-0.34375 35.7188,-0.46875 C35.8333,-0.552083 35.9167,-0.682292 35.9688,-0.859375 C35.9896,-0.953125 36,-1.20833 36,-1.625 L36,-4.70313 C36,-5.28646 35.9323,-5.69792 35.7969,-5.9375 C35.5885,-6.27083 35.2604,-6.4375 34.8125,-6.4375 C34.5417,-6.4375 34.2656,-6.36719 33.9844,-6.22656 C33.7031,-6.08594 33.3646,-5.82813 32.9688,-5.45313 L32.9531,-5.375 L32.9688,-5.03125 L32.9688,-1.625 C32.9688,-1.13542 32.9974,-0.830729 33.0547,-0.710938 C33.112,-0.591146 33.2161,-0.489583 33.3672,-0.40625 C33.5182,-0.322917 33.776,-0.28125 34.1406,-0.28125 L34.1406,0 L30.5156,0 L30.5156,-0.28125 C30.9115,-0.28125 31.1849,-0.328125 31.3359,-0.421875 C31.487,-0.515625 31.5885,-0.65625 31.6406,-0.84375 C31.6719,-0.9375 31.6875,-1.19792 31.6875,-1.625 L31.6875,-4.70313 C31.6875,-5.28646 31.599,-5.70313 31.4219,-5.95313 C31.1927,-6.28646 30.875,-6.45313 30.4688,-6.45313 C30.1875,-6.45313 29.9063,-6.38021 29.625,-6.23438 C29.1979,-6.00521 28.8646,-5.74479 28.625,-5.45313 L28.625,-1.625 C28.625,-1.15625 28.6589,-0.851563 28.7266,-0.710938 C28.7943,-0.570313 28.8906,-0.463542 29.0156,-0.390625 C29.1406,-0.317708 29.401,-0.28125 29.7969,-0.28125 L29.7969,0 L26.25,0 L26.25,-0.28125 C26.5833,-0.28125 26.8151,-0.317708 26.9453,-0.390625 C27.0755,-0.463542 27.1745,-0.575521 27.2422,-0.726563 C27.3099,-0.877604 27.3438,-1.17708 27.3438,-1.625 L27.3438,-4.35938 C27.3438,-5.14063 27.3177,-5.64583 27.2656,-5.875 C27.2344,-6.05208 27.1797,-6.17188 27.1016,-6.23438 C27.0234,-6.29688 26.9167,-6.32813 26.7813,-6.32813 C26.6354,-6.32813 26.4583,-6.29167 26.25,-6.21875 L26.1406,-6.5 L28.2969,-7.375 L28.625,-7.375 L28.625,-5.84375 M44.5781,3.1875 L44.5781,3.45313 C43.7031,3.33854 42.9948,2.98698 42.4531,2.39844 C41.9115,1.8099 41.6406,1.16146 41.6406,0.453125 C41.6406,0.0677083 41.7005,-0.372396 41.8203,-0.867188 C41.9401,-1.36198 42,-1.75 42,-2.03125 C42,-2.40625 41.8411,-2.75521 41.5234,-3.07813 C41.2057,-3.40104 40.7708,-3.59896 40.2188,-3.67188 L40.2188,-4 C40.7708,-4.07292 41.2057,-4.27083 41.5234,-4.59375 C41.8411,-4.91667 42,-5.26563 42,-5.64063 C42,-5.92188 41.9401,-6.3099 41.8203,-6.80469 C41.7005,-7.29948 41.6406,-7.73438 41.6406,-8.10938 C41.6406,-8.81771 41.9115,-9.46615 42.4531,-10.0547 C42.9948,-10.6432 43.7031,-10.9948 44.5781,-11.1094 L44.5781,-10.8438 C43.9635,-10.6979 43.5156,-10.4583 43.2344,-10.125 C42.9531,-9.79167 42.8125,-9.42708 42.8125,-9.03125 C42.8125,-8.72917 42.8698,-8.32552 42.9844,-7.82031 C43.099,-7.3151 43.1563,-6.88542 43.1563,-6.53125 C43.1563,-6.01042 42.9635,-5.5026 42.5781,-5.00781 C42.1927,-4.51302 41.6198,-4.13021 40.8594,-3.85938 C41.6094,-3.57813 42.1797,-3.1849 42.5703,-2.67969 C42.9609,-2.17448 43.1563,-1.66146 43.1563,-1.14063 C43.1563,-0.786458 43.099,-0.356771 42.9844,0.148438 C42.8698,0.653646 42.8125,1.0625 42.8125,1.375 C42.8125,1.77083 42.9531,2.13281 43.2344,2.46094 C43.5156,2.78906 43.9635,3.03125 44.5781,3.1875 M45.9844,-6.45313 L48.1875,-7.34375 L48.4844,-7.34375 L48.4844,-5.67188 C48.8594,-6.29688 49.2318,-6.73698 49.6016,-6.99219 C49.9714,-7.2474 50.3646,-7.375 50.7813,-7.375 C51.5,-7.375 52.099,-7.09375 52.5781,-6.53125 C53.1615,-5.84375 53.4531,-4.94792 53.4531,-3.84375 C53.4531,-2.60417 53.099,-1.58333 52.3906,-0.78125 C51.8073,-0.114583 51.0729,0.21875 50.1875,0.21875 C49.8021,0.21875 49.4688,0.166667 49.1875,0.0625 C48.9792,-0.0208333 48.7448,-0.182292 48.4844,-0.421875 L48.4844,1.76563 C48.4844,2.25521 48.5156,2.56771 48.5781,2.70313 C48.6406,2.83854 48.7448,2.94531 48.8906,3.02344 C49.0365,3.10156 49.3073,3.14063 49.7031,3.14063 L49.7031,3.42188 L45.9375,3.42188 L45.9375,3.14063 L46.1406,3.14063 C46.4323,3.14063 46.6771,3.08333 46.875,2.96875 C46.9792,2.91667 47.0573,2.82552 47.1094,2.69531 C47.1615,2.5651 47.1875,2.23958 47.1875,1.71875 L47.1875,-5.04688 C47.1875,-5.51563 47.1667,-5.8125 47.125,-5.9375 C47.0833,-6.0625 47.0182,-6.15625 46.9297,-6.21875 C46.8411,-6.28125 46.7188,-6.3125 46.5625,-6.3125 C46.4375,-6.3125 46.276,-6.27604 46.0781,-6.20313 L45.9844,-6.45313 M48.4844,-5.20313 L48.4844,-2.53125 C48.4844,-1.95833 48.5104,-1.57813 48.5625,-1.39063 C48.6354,-1.08854 48.8125,-0.822917 49.0938,-0.59375 C49.375,-0.364583 49.7344,-0.25 50.1719,-0.25 C50.6927,-0.25 51.1146,-0.453125 51.4375,-0.859375 C51.8542,-1.39063 52.0625,-2.14063 52.0625,-3.10938 C52.0625,-4.20313 51.8229,-5.04167 51.3438,-5.625 C51.0104,-6.03125 50.6146,-6.23438 50.1563,-6.23438 C49.9063,-6.23438 49.6615,-6.17188 49.4219,-6.04688 C49.2344,-5.95313 48.9219,-5.67188 48.4844,-5.20313 M58,-7.375 C59.0833,-7.375 59.9531,-6.96354 60.6094,-6.14063 C61.1719,-5.43229 61.4531,-4.625 61.4531,-3.71875 C61.4531,-3.07292 61.2995,-2.42188 60.9922,-1.76563 C60.6849,-1.10938 60.2604,-0.614583 59.7188,-0.28125 C59.1771,0.0520833 58.5781,0.21875 57.9219,0.21875 C56.8385,0.21875 55.9792,-0.213542 55.3438,-1.07813 C54.8125,-1.79688 54.5469,-2.60938 54.5469,-3.51563 C54.5469,-4.17188 54.7083,-4.82292 55.0313,-5.46875 C55.3542,-6.11458 55.7813,-6.59375 56.3125,-6.90625 C56.8438,-7.21875 57.4063,-7.375 58,-7.375 M57.7656,-6.85938 C57.4844,-6.85938 57.2057,-6.77865 56.9297,-6.61719 C56.6536,-6.45573 56.4297,-6.16927 56.2578,-5.75781 C56.0859,-5.34635 56,-4.81771 56,-4.17188 C56,-3.13021 56.2057,-2.23177 56.6172,-1.47656 C57.0286,-0.721354 57.5729,-0.34375 58.25,-0.34375 C58.7604,-0.34375 59.1797,-0.552083 59.5078,-0.96875 C59.8359,-1.38542 60,-2.09896 60,-3.10938 C60,-4.38021 59.724,-5.38021 59.1719,-6.10938 C58.8073,-6.60938 58.3385,-6.85938 57.7656,-6.85938 M62.1094,-7.15625 L65.1094,-7.15625 L65.1094,-6.875 C64.8281,-6.85417 64.6458,-6.80469 64.5625,-6.72656 C64.4792,-6.64844 64.4375,-6.53646 64.4375,-6.39063 C64.4375,-6.22396 64.4792,-6.02604 64.5625,-5.79688 L66.0938,-1.6875 L67.6406,-5.03125 L67.2344,-6.09375 C67.1094,-6.40625 66.9427,-6.61979 66.7344,-6.73438 C66.6198,-6.80729 66.4063,-6.85417 66.0938,-6.875 L66.0938,-7.15625 L69.5,-7.15625 L69.5,-6.875 C69.125,-6.85417 68.8594,-6.78646 68.7031,-6.67188 C68.599,-6.58854 68.5469,-6.45313 68.5469,-6.26563 C68.5469,-6.16146 68.5677,-6.05729 68.6094,-5.95313 L70.2344,-1.84375 L71.75,-5.79688 C71.8542,-6.07813 71.9063,-6.30208 71.9063,-6.46875 C71.9063,-6.57292 71.8542,-6.66406 71.75,-6.74219 C71.6458,-6.82031 71.4479,-6.86458 71.1563,-6.875 L71.1563,-7.15625 L73.4063,-7.15625 L73.4063,-6.875 C72.9583,-6.80208 72.625,-6.49479 72.4063,-5.95313 L70.0156,0.21875 L69.7031,0.21875 L67.9063,-4.35938 L65.8281,0.21875 L65.5313,0.21875 L63.2344,-5.79688 C63.0885,-6.18229 62.9427,-6.4401 62.7969,-6.57031 C62.651,-6.70052 62.4219,-6.80208 62.1094,-6.875 L62.1094,-7.15625 M75.7031,-4.46875 C75.7031,-3.40625 75.9635,-2.57292 76.4844,-1.96875 C77.0052,-1.36458 77.6146,-1.0625 78.3125,-1.0625 C78.7813,-1.0625 79.1901,-1.1901 79.5391,-1.44531 C79.888,-1.70052 80.1771,-2.14063 80.4063,-2.76563 L80.6563,-2.60938 C80.5417,-1.90104 80.2214,-1.2526 79.6953,-0.664063 C79.1693,-0.0755208 78.5104,0.21875 77.7188,0.21875 C76.8646,0.21875 76.1302,-0.117188 75.5156,-0.789063 C74.901,-1.46094 74.5938,-2.35938 74.5938,-3.48438 C74.5938,-4.71354 74.9089,-5.66927 75.5391,-6.35156 C76.1693,-7.03385 76.9583,-7.375 77.9063,-7.375 C78.7083,-7.375 79.3672,-7.11198 79.8828,-6.58594 C80.3984,-6.0599 80.6563,-5.35417 80.6563,-4.46875 L75.7031,-4.46875 M75.7031,-4.92188 L79.0156,-4.92188 C78.9948,-5.38021 78.9427,-5.70313 78.8594,-5.89063 C78.724,-6.18229 78.5286,-6.41146 78.2734,-6.57813 C78.0182,-6.74479 77.75,-6.82813 77.4688,-6.82813 C77.0313,-6.82813 76.6432,-6.65885 76.3047,-6.32031 C75.9661,-5.98177 75.7656,-5.51563 75.7031,-4.92188 M83.5938,-7.375 L83.5938,-5.76563 C84.1979,-6.83854 84.8125,-7.375 85.4375,-7.375 C85.7292,-7.375 85.9688,-7.28646 86.1563,-7.10938 C86.3438,-6.93229 86.4375,-6.72917 86.4375,-6.5 C86.4375,-6.30208 86.3698,-6.13281 86.2344,-5.99219 C86.099,-5.85156 85.9375,-5.78125 85.75,-5.78125 C85.5625,-5.78125 85.3568,-5.86979 85.1328,-6.04688 C84.9089,-6.22396 84.7396,-6.3125 84.625,-6.3125 C84.5313,-6.3125 84.4323,-6.26042 84.3281,-6.15625 C84.0885,-5.94792 83.8438,-5.59896 83.5938,-5.10938 L83.5938,-1.67188 C83.5938,-1.27604 83.6458,-0.979167 83.75,-0.78125 C83.8125,-0.635417 83.9297,-0.515625 84.1016,-0.421875 C84.2734,-0.328125 84.5208,-0.28125 84.8438,-0.28125 L84.8438,0 L81.1875,0 L81.1875,-0.28125 C81.5521,-0.28125 81.8229,-0.338542 82,-0.453125 C82.125,-0.536458 82.2135,-0.671875 82.2656,-0.859375 C82.2969,-0.942708 82.3125,-1.19271 82.3125,-1.60938 L82.3125,-4.39063 C82.3125,-5.22396 82.2943,-5.71875 82.2578,-5.875 C82.2214,-6.03125 82.1589,-6.14583 82.0703,-6.21875 C81.9818,-6.29167 81.8698,-6.32813 81.7344,-6.32813 C81.5677,-6.32813 81.3854,-6.29167 81.1875,-6.21875 L81.1094,-6.5 L83.2656,-7.375 L83.5938,-7.375 M87.3906,-10.8438 L87.3906,-11.1094 C88.2552,-10.9948 88.9609,-10.6458 89.5078,-10.0625 C90.0547,-9.47917 90.3281,-8.82813 90.3281,-8.10938 C90.3281,-7.73438 90.2682,-7.29948 90.1484,-6.80469 C90.0286,-6.3099 89.9688,-5.92188 89.9688,-5.64063 C89.9688,-5.26563 90.125,-4.91667 90.4375,-4.59375 C90.75,-4.27083 91.1875,-4.07292 91.75,-4 L91.75,-3.67188 C91.1875,-3.59896 90.75,-3.40104 90.4375,-3.07813 C90.125,-2.75521 89.9688,-2.40625 89.9688,-2.03125 C89.9688,-1.75 90.0286,-1.36198 90.1484,-0.867188 C90.2682,-0.372396 90.3281,0.0677083 90.3281,0.453125 C90.3281,1.16146 90.0547,1.8099 89.5078,2.39844 C88.9609,2.98698 88.2552,3.33854 87.3906,3.45313 L87.3906,3.1875 C87.9948,3.03125 88.4401,2.78906 88.7266,2.46094 C89.013,2.13281 89.1563,1.77083 89.1563,1.375 C89.1563,1.0625 89.0964,0.653646 88.9766,0.148438 C88.8568,-0.356771 88.7969,-0.78125 88.7969,-1.125 C88.7969,-1.65625 88.9896,-2.16927 89.375,-2.66406 C89.7604,-3.15885 90.3385,-3.54167 91.1094,-3.8125 C90.3594,-4.09375 89.7865,-4.48698 89.3906,-4.99219 C88.9948,-5.4974 88.7969,-6.01042 88.7969,-6.53125 C88.7969,-6.88542 88.8568,-7.3151 88.9766,-7.82031 C89.0964,-8.32552 89.1563,-8.72917 89.1563,-9.03125 C89.1563,-9.42708 89.013,-9.79167 88.7266,-10.125 C88.4401,-10.4583 87.9948,-10.6979 87.3906,-10.8438 M102.75,3.17188 L99.3125,3.17188 L99.3125,-10.8438 L102.75,-10.8438 L102.75,-10.2188 L100.484,-10.2188 L100.484,2.5625 L102.75,2.5625 L102.75,3.17188 M103.656,-11.1094 L107.484,0.21875 L106.859,0.21875 L103.031,-11.1094 L103.656,-11.1094 M117.875,-10.8438 L110.156,0.4375 L109.469,0.4375 L117.188,-10.8438 L117.875,-10.8438 M109.844,-10.8438 C110.552,-10.8438 111.099,-10.5521 111.484,-9.96875 C111.87,-9.38542 112.063,-8.71354 112.063,-7.95313 C112.063,-7.04688 111.844,-6.34635 111.406,-5.85156 C110.969,-5.35677 110.443,-5.10938 109.828,-5.10938 C109.422,-5.10938 109.047,-5.22396 108.703,-5.45313 C108.359,-5.68229 108.083,-6.02083 107.875,-6.46875 C107.667,-6.91667 107.563,-7.41146 107.563,-7.95313 C107.563,-8.50521 107.667,-9.01042 107.875,-9.46875 C108.083,-9.92708 108.37,-10.2708 108.734,-10.5 C109.099,-10.7292 109.469,-10.8438 109.844,-10.8438 M109.828,-10.4063 C109.557,-10.4063 109.32,-10.25 109.117,-9.9375 C108.914,-9.625 108.813,-8.96875 108.813,-7.96875 C108.813,-7.23958 108.87,-6.6875 108.984,-6.3125 C109.068,-6.02083 109.203,-5.79688 109.391,-5.64063 C109.505,-5.54688 109.641,-5.5 109.797,-5.5 C110.047,-5.5 110.26,-5.63542 110.438,-5.90625 C110.698,-6.3125 110.828,-6.98438 110.828,-7.92188 C110.828,-8.91146 110.703,-9.60417 110.453,-10 C110.286,-10.2708 110.078,-10.4063 109.828,-10.4063 M117.516,-5.26563 C117.891,-5.26563 118.26,-5.14844 118.625,-4.91406 C118.99,-4.67969 119.273,-4.33854 119.477,-3.89063 C119.68,-3.44271 119.781,-2.94792 119.781,-2.40625 C119.781,-1.48958 119.56,-0.786458 119.117,-0.296875 C118.674,0.192708 118.151,0.4375 117.547,0.4375 C117.161,0.4375 116.792,0.320313 116.438,0.0859375 C116.083,-0.148438 115.802,-0.484375 115.594,-0.921875 C115.385,-1.35938 115.281,-1.85417 115.281,-2.40625 C115.281,-2.95833 115.385,-3.46094 115.594,-3.91406 C115.802,-4.36719 116.083,-4.70573 116.438,-4.92969 C116.792,-5.15365 117.151,-5.26563 117.516,-5.26563 M117.531,-4.84375 C117.281,-4.84375 117.063,-4.70313 116.875,-4.42188 C116.646,-4.05729 116.531,-3.36979 116.531,-2.35938 C116.531,-1.42188 116.651,-0.770833 116.891,-0.40625 C117.068,-0.135417 117.281,0 117.531,0 C117.771,0 117.984,-0.145833 118.172,-0.4375 C118.422,-0.8125 118.547,-1.46354 118.547,-2.39063 C118.547,-3.36979 118.422,-4.05729 118.172,-4.45313 C117.995,-4.71354 117.781,-4.84375 117.531,-4.84375 M120.594,-10.8438 L124.031,-10.8438 L124.031,3.1875 L120.594,3.1875 L120.594,2.5625 L122.859,2.5625 L122.859,-10.2188 L120.594,-10.2188 L120.594,-10.8438 M125.844,-2.60938 L126.188,-2.60938 C126.25,-1.90104 126.477,-1.35677 126.867,-0.976563 C127.258,-0.596354 127.839,-0.369792 128.609,-0.296875 L128.609,-4.85938 C127.443,-5.57813 126.661,-6.21875 126.266,-6.78125 C125.995,-7.17708 125.859,-7.65625 125.859,-8.21875 C125.859,-8.86458 126.096,-9.42708 126.57,-9.90625 C127.044,-10.3854 127.724,-10.6719 128.609,-10.7656 L128.609,-11.4844 L129.109,-11.4844 L129.109,-10.7656 C129.536,-10.7448 129.896,-10.6979 130.188,-10.625 C130.344,-10.5833 130.844,-10.401 131.688,-10.0781 L131.688,-7.75 L131.391,-7.75 C131.318,-8.57292 131.102,-9.17708 130.742,-9.5625 C130.383,-9.94792 129.839,-10.1771 129.109,-10.25 L129.109,-6.28125 C130.422,-5.36458 131.266,-4.6875 131.641,-4.25 C132.016,-3.8125 132.203,-3.27083 132.203,-2.625 C132.203,-1.90625 131.93,-1.27344 131.383,-0.726563 C130.836,-0.179688 130.078,0.135417 129.109,0.21875 L129.109,1.21875 L128.609,1.21875 L128.609,0.21875 C128.12,0.197917 127.664,0.140625 127.242,0.046875 C126.82,-0.046875 126.354,-0.197917 125.844,-0.40625 L125.844,-2.60938 M128.609,-6.60938 L128.609,-10.2344 C128.089,-10.1719 127.703,-10.0078 127.453,-9.74219 C127.203,-9.47656 127.078,-9.14063 127.078,-8.73438 C127.078,-8.34896 127.193,-7.99219 127.422,-7.66406 C127.651,-7.33594 128.047,-6.98438 128.609,-6.60938 M129.109,-0.296875 C129.505,-0.359375 129.807,-0.453125 130.016,-0.578125 C130.307,-0.765625 130.536,-1.00521 130.703,-1.29688 C130.87,-1.58854 130.953,-1.90104 130.953,-2.23438 C130.953,-2.57813 130.852,-2.90365 130.648,-3.21094 C130.445,-3.51823 129.932,-3.95313 129.109,-4.51563 L129.109,-0.296875"/>
</g>

<g fill="#212121" fill-opacity="1" stroke="#212121" stroke-opacity="1" stroke-width="1.06667" stroke-linecap="square" stroke-linejoin="round" transform="matrix(0.75,0,0,0.75,-13.425,-11.64)"
font-family="MS Shell Dlg 2" font-size="8.25" font-weight="400" font-style="normal" 
>
<polyline fill="none" vector-effect="none" points="70,269 70,23 " />
<polyline fill="none" vector-effect="none" points="490,269 490,23 " />
<polyline fill="none" vector-effect="none" points="70,269 74.2,269 " />
<polyline fill="none" vector-effect="none" points="485.8,269 490,269 " />
<polyline fill="none" vector-effect="none" points="70,219.8 74.2,219.8 " />
<polyline fill="none" vector-effect="none" points="485.8,219.8 490,219.8 " />
<polyline fill="none" vector-effect="none" points="70,170.6 74.2,170.6 " />
<polyline fill="none" vector-effect="none" points="485.8,170.6 490,170.6 " />
<polyline fill="none" vector-effect="none" points="70,121.4 74.2,121.4 " />
<polyline fill="none" vector-effect="none" points="485.8,121.4 490,121.4 " />
<polyline fill="none" vector-effect="none" points="70,72.2 74.2,72.2 " />
<polyline fill="none" vector-effect="none" points="485.8,72.2 490,72.2 " />
<polyline fill="none" vector-effect="none" points="70,23 74.2,23 " />
<polyline fill="none" vector-effect="none" points="485.8,23 490,23 " />
</g>

<g fill="#212121" fill-opacity="1" stroke="none" transform="matrix(0.75,0,0,0.75,29.375,192.75)"
font-family="MS Shell Dlg 2" font-size="8.25" font-weight="400" font-style="normal" 
>
<path vector-effect="none" fill-rule="evenodd" d="M3.5,0.3125 C2.35417,0.3125 1.57552,-0.158854 1.16406,-1.10156 C0.752604,-2.04427 0.546875,-3.16667 0.546875,-4.46875 C0.546875,-5.28125 0.619792,-6.04427 0.765625,-6.75781 C0.911458,-7.47135 1.20573,-8.07813 1.64844,-8.57813 C2.09115,-9.07813 2.70833,-9.32813 3.5,-9.32813 C4.11458,-9.32813 4.61719,-9.17708 5.00781,-8.875 C5.39844,-8.57292 5.69792,-8.1849 5.90625,-7.71094 C6.11458,-7.23698 6.25521,-6.72656 6.32813,-6.17969 C6.40104,-5.63281 6.4375,-5.0625 6.4375,-4.46875 C6.4375,-3.66667 6.36458,-2.91406 6.21875,-2.21094 C6.07292,-1.50781 5.78385,-0.911458 5.35156,-0.421875 C4.91927,0.0677083 4.30208,0.3125 3.5,0.3125 M3.5,-0.0625 C4.02083,-0.0625 4.40885,-0.328125 4.66406,-0.859375 C4.91927,-1.39063 5.07552,-1.97917 5.13281,-2.625 C5.1901,-3.27083 5.21875,-3.95833 5.21875,-4.6875 C5.21875,-5.39583 5.1901,-6.04427 5.13281,-6.63281 C5.07552,-7.22135 4.91927,-7.75781 4.66406,-8.24219 C4.40885,-8.72656 4.02083,-8.96875 3.5,-8.96875 C2.96875,-8.96875 2.57552,-8.72656 2.32031,-8.24219 C2.0651,-7.75781 1.90885,-7.22135 1.85156,-6.63281 C1.79427,-6.04427 1.76563,-5.39583 1.76563,-4.6875 C1.76563,-4.16667 1.77865,-3.67708 1.80469,-3.21875 C1.83073,-2.76042 1.89844,-2.28646 2.00781,-1.79688 C2.11719,-1.30729 2.29427,-0.895833 2.53906,-0.5625 C2.78385,-0.229167 3.10417,-0.0625 3.5,-0.0625 "/>
</g>

<g fill="#212121" fill-opacity="1" stroke="none" transform="matrix(0.75,0,0,0.75,23.875,155.85)"
font-family="MS Shell Dlg 2" font-size="8.25" font-weight="400" font-style="normal" 
>
<path vector-effect="none" fill-rule="evenodd" d="M0.703125,0 L0.703125,-0.375 C0.703125,-0.395833 0.708333,-0.421875 0.71875,-0.453125 L2.90625,-2.85938 C3.22917,-3.21354 3.49219,-3.51042 3.69531,-3.75 C3.89844,-3.98958 4.10156,-4.26823 4.30469,-4.58594 C4.50781,-4.90365 4.66667,-5.22396 4.78125,-5.54688 C4.89583,-5.86979 4.95313,-6.21354 4.95313,-6.57813 C4.95313,-6.96354 4.88281,-7.33073 4.74219,-7.67969 C4.60156,-8.02865 4.39063,-8.30729 4.10938,-8.51563 C3.82813,-8.72396 3.48958,-8.82813 3.09375,-8.82813 C2.6875,-8.82813 2.32292,-8.70573 2,-8.46094 C1.67708,-8.21615 1.44792,-7.90104 1.3125,-7.51563 C1.35417,-7.52604 1.40625,-7.53125 1.46875,-7.53125 C1.67708,-7.53125 1.85677,-7.46094 2.00781,-7.32031 C2.15885,-7.17969 2.23438,-7 2.23438,-6.78125 C2.23438,-6.5625 2.15885,-6.38021 2.00781,-6.23438 C1.85677,-6.08854 1.67708,-6.01563 1.46875,-6.01563 C1.25,-6.01563 1.06771,-6.09115 0.921875,-6.24219 C0.776042,-6.39323 0.703125,-6.57292 0.703125,-6.78125 C0.703125,-7.125 0.768229,-7.45052 0.898438,-7.75781 C1.02865,-8.0651 1.21875,-8.33854 1.46875,-8.57813 C1.71875,-8.81771 2,-9.0026 2.3125,-9.13281 C2.625,-9.26302 2.95313,-9.32813 3.29688,-9.32813 C3.83854,-9.32813 4.33854,-9.21354 4.79688,-8.98438 C5.25521,-8.75521 5.61979,-8.4349 5.89063,-8.02344 C6.16146,-7.61198 6.29688,-7.13021 6.29688,-6.57813 C6.29688,-6.17188 6.20573,-5.78646 6.02344,-5.42188 C5.84115,-5.05729 5.61198,-4.72656 5.33594,-4.42969 C5.0599,-4.13281 4.70573,-3.79427 4.27344,-3.41406 C3.84115,-3.03385 3.55729,-2.78125 3.42188,-2.65625 L1.82813,-1.14063 L3.17188,-1.14063 C3.83854,-1.14063 4.39323,-1.14583 4.83594,-1.15625 C5.27865,-1.16667 5.51563,-1.18229 5.54688,-1.20313 C5.65104,-1.31771 5.76042,-1.75 5.875,-2.5 L6.29688,-2.5 L5.89063,0 L0.703125,0"/>
</g>

<g fill="#212121" fill-opacity="1" stroke="none" transform="matrix(0.75,0,0,0.75,29.375,155.85)"
font-family="MS Shell Dlg 2" font-size="8.25" font-weight="400" font-style="normal" 
>
<path vector-effect="none" fill-rule="evenodd" d="M3.5,0.3125 C2.35417,0.3125 1.57552,-0.158854 1.16406,-1.10156 C0.752604,-2.04427 0.546875,-3.16667 0.546875,-4.46875 C0.546875,-5.28125 0.619792,-6.04427 0.765625,-6.75781 C0.911458,-7.47135 1.20573,-8.07813 1.64844,-8.57813 C2.09115,-9.07813 2.70833,-9.32813 3.5,-9.32813 C4.11458,-9.32813 4.61719,-9.17708 5.00781,-8.875 C5.39844,-8.57292 5.69792,-8.1849 5.90625,-7.71094 C6.11458,-7.23698 6.25521,-6.72656 6.32813,-6.17969 C6.40104,-5.63281 6.4375,-5.0625 6.4375,-4.46875 C6.4375,-3.66667 6.36458,-2.91406 6.21875,-2.21094 C6.07292,-1.50781 5.78385,-0.911458 5.35156,-0.421875 C4.91927,0.0677083 4.30208,0.3125 3.5,0.3125 M3.5,-0.0625 C4.02083,-0.0625 4.40885,-0.328125 4.66406,-0.859375 C4.91927,-1.39063 5.07552,-1.97917 5.13281,-2.625 C5.1901,-3.27083 5.21875,-3.95833 5.21875,-4.6875 C5.21875,-5.39583 5.1901,-6.04427 5.13281,-6.63281 C5.07552,-7.22135 4.91927,-7.75781 4.66406,-8.24219 C4.40885,-8.72656 4.02083,-8.96875 3.5,-8.96875 C2.96875,-8.96875 2.57552,-8.72656 2.32031,-8.24219 C2.0651,-7.75781 1.90885,-7.22135 1.85156,-6.63281 C1.79427,-6.04427 1.76563,-5.39583 1.76563,-4.6875 C1.76563,-4.16667 1.77865,-3.67708 1.80469,-3.21875 C1.83073,-2.76042 1.89844,-2.28646 2.00781,-1.79688 C2.11719,-1.30729 2.29427,-0.895833 2.53906,-0.5625 C2.78385,-0.229167 3.10417,-0.0625 3.5,-0.0625 "/>
</g>

<g fill="#212121" fill-opacity="1" stroke="none" transform="matrix(0.75,0,0,0.75,23.875,118.95)"
font-family="MS Shell Dlg 2" font-size="8.25" font-weight="400" font-style="normal" 
>
<path vector-effect="none" fill-rule="evenodd" d="M0.390625,-2.3125 L0.390625,-2.79688 L4.71875,-9.25 C4.75,-9.30208 4.79688,-9.32813 4.85938,-9.32813 L5.0625,-9.32813 C5.16667,-9.32813 5.21875,-9.27604 5.21875,-9.17188 L5.21875,-2.79688 L6.59375,-2.79688 L6.59375,-2.3125 L5.21875,-2.3125 L5.21875,-0.9375 C5.21875,-0.75 5.35677,-0.630208 5.63281,-0.578125 C5.90885,-0.526042 6.22396,-0.5 6.57813,-0.5 L6.57813,0 L2.73438,0 L2.73438,-0.5 C3.08854,-0.5 3.40365,-0.526042 3.67969,-0.578125 C3.95573,-0.630208 4.09375,-0.75 4.09375,-0.9375 L4.09375,-2.3125 L0.390625,-2.3125 M0.859375,-2.79688 L4.17188,-2.79688 L4.17188,-7.76563 L0.859375,-2.79688"/>
</g>

<g fill="#212121" fill-opacity="1" stroke="none" transform="matrix(0.75,0,0,0.75,29.375,118.95)"
font-family="MS Shell Dlg 2" font-size="8.25" font-weight="400" font-style="normal" 
>
<path vector-effect="none" fill-rule="evenodd" d="M3.5,0.3125 C2.35417,0.3125 1.57552,-0.158854 1.16406,-1.10156 C0.752604,-2.04427 0.546875,-3.16667 0.546875,-4.46875 C0.546875,-5.28125 0.619792,-6.04427 0.765625,-6.75781 C0.911458,-7.47135 1.20573,-8.07813 1.64844,-8.57813 C2.09115,-9.07813 2.70833,-9.32813 3.5,-9.32813 C4.11458,-9.32813 4.61719,-9.17708 5.00781,-8.875 C5.39844,-8.57292 5.69792,-8.1849 5.90625,-7.71094 C6.11458,-7.23698 6.25521,-6.72656 6.32813,-6.17969 C6.40104,-5.63281 6.4375,-5.0625 6.4375,-4.46875 C6.4375,-3.66667 6.36458,-2.91406 6.21875,-2.21094 C6.07292,-1.50781 5.78385,-0.911458 5.35156,-0.421875 C4.91927,0.0677083 4.30208,0.3125 3.5,0.3125 M3.5,-0.0625 C4.02083,-0.0625 4.40885,-0.328125 4.66406,-0.859375 C4.91927,-1.39063 5.07552,-1.97917 5.13281,-2.625 C5.1901,-3.27083 5.21875,-3.95833 5.21875,-4.6875 C5.21875,-5.39583 5.1901,-6.04427 5.13281,-6.63281 C5.07552,-7.22135 4.91927,-7.75781 4.66406,-8.24219 C4.40885,-8.72656 4.02083,-8.96875 3.5,-8.96875 C2.96875,-8.96875 2.57552,-8.72656 2.32031,-8.24219 C2.0651,-7.75781 1.90885,-7.22135 1.85156,-6.63281 C1.79427,-6.04427 1.76563,-5.39583 1.76563,-4.6875 C1.76563,-4.16667 1.77865,-3.67708 1.80469,-3.21875 C1.83073,-2.76042 1.89844,-2.28646 2.00781,-1.79688 C2.11719,-1.30729 2.29427,-0.895833 2.53906,-0.5625 C2.78385,-0.229167 3.10417,-0.0625 3.5,-0.0625 "/>
</g>

<g fill="#212121" fill-opacity="1" stroke="none" transform="matrix(0.75,0,0,0.75,23.875,82.05)"
font-family="MS Shell Dlg 2" font-size="8.25" font-weight="400" font-style="normal" 
>
<path vector-effect="none" fill-rule="evenodd" d="M3.5,0.3125 C2.91667,0.3125 2.43229,0.158854 2.04688,-0.148438 C1.66146,-0.455729 1.36198,-0.854167 1.14844,-1.34375 C0.934896,-1.83333 0.789063,-2.34896 0.710938,-2.89063 C0.632813,-3.43229 0.59375,-3.97917 0.59375,-4.53125 C0.59375,-5.27083 0.736979,-6.01042 1.02344,-6.75 C1.3099,-7.48958 1.73177,-8.10417 2.28906,-8.59375 C2.84635,-9.08333 3.50521,-9.32813 4.26563,-9.32813 C4.58854,-9.32813 4.88802,-9.26823 5.16406,-9.14844 C5.4401,-9.02865 5.65625,-8.85156 5.8125,-8.61719 C5.96875,-8.38281 6.04688,-8.09896 6.04688,-7.76563 C6.04688,-7.56771 5.98177,-7.40365 5.85156,-7.27344 C5.72135,-7.14323 5.5625,-7.07813 5.375,-7.07813 C5.1875,-7.07813 5.02865,-7.14583 4.89844,-7.28125 C4.76823,-7.41667 4.70313,-7.57813 4.70313,-7.76563 C4.70313,-7.94271 4.76823,-8.09635 4.89844,-8.22656 C5.02865,-8.35677 5.1875,-8.42188 5.375,-8.42188 L5.45313,-8.42188 C5.32813,-8.59896 5.15885,-8.72656 4.94531,-8.80469 C4.73177,-8.88281 4.50521,-8.92188 4.26563,-8.92188 C3.98438,-8.92188 3.72396,-8.85938 3.48438,-8.73438 C3.24479,-8.60938 3.03125,-8.44271 2.84375,-8.23438 C2.65625,-8.02604 2.4974,-7.79427 2.36719,-7.53906 C2.23698,-7.28385 2.13802,-6.99479 2.07031,-6.67188 C2.0026,-6.34896 1.95833,-6.04688 1.9375,-5.76563 C1.91667,-5.48438 1.90625,-5.13021 1.90625,-4.70313 C2.07292,-5.08854 2.30729,-5.40365 2.60938,-5.64844 C2.91146,-5.89323 3.25,-6.01563 3.625,-6.01563 C4.04167,-6.01563 4.41927,-5.92969 4.75781,-5.75781 C5.09635,-5.58594 5.39063,-5.35156 5.64063,-5.05469 C5.89063,-4.75781 6.08073,-4.41667 6.21094,-4.03125 C6.34115,-3.64583 6.40625,-3.26042 6.40625,-2.875 C6.40625,-2.32292 6.28385,-1.79948 6.03906,-1.30469 C5.79427,-0.809896 5.45052,-0.416667 5.00781,-0.125 C4.5651,0.166667 4.0625,0.3125 3.5,0.3125 M3.5,-0.140625 C3.86458,-0.140625 4.15625,-0.223958 4.375,-0.390625 C4.59375,-0.557292 4.7526,-0.776042 4.85156,-1.04688 C4.95052,-1.31771 5.01302,-1.58854 5.03906,-1.85938 C5.0651,-2.13021 5.07813,-2.46875 5.07813,-2.875 C5.07813,-3.39583 5.05208,-3.84375 5,-4.21875 C4.94792,-4.59375 4.8125,-4.92448 4.59375,-5.21094 C4.375,-5.4974 4.03125,-5.64063 3.5625,-5.64063 C3.1875,-5.64063 2.8776,-5.51302 2.63281,-5.25781 C2.38802,-5.0026 2.21094,-4.67969 2.10156,-4.28906 C1.99219,-3.89844 1.9375,-3.52604 1.9375,-3.17188 C1.9375,-3.04688 1.94271,-2.95313 1.95313,-2.89063 C1.95313,-2.86979 1.95052,-2.85677 1.94531,-2.85156 C1.9401,-2.84635 1.9375,-2.83333 1.9375,-2.8125 C1.9375,-2.41667 1.97917,-2.01302 2.0625,-1.60156 C2.14583,-1.1901 2.30208,-0.84375 2.53125,-0.5625 C2.76042,-0.28125 3.08333,-0.140625 3.5,-0.140625 "/>
</g>

<g fill="#212121" fill-opacity="1" stroke="none" transform="matrix(0.75,0,0,0.75,29.375,82.05)"
font-family="MS Shell Dlg 2" font-size="8.25" font-weight="400" font-style="normal" 
>
<path vector-effect="none" fill-rule="evenodd" d="M3.5,0.3125 C2.35417,0.3125 1.57552,-0.158854 1.16406,-1.10156 C0.752604,-2.04427 0.546875,-3.16667 0.546875,-4.46875 C0.546875,-5.28125 0.619792,-6.04427 0.765625,-6.75781 C0.911458,-7.47135 1.20573,-8.07813 1.64844,-8.57813 C2.09115,-9.07813 2.70833,-9.32813 3.5,-9.32813 C4.11458,-9.32813 4.61719,-9.17708 5.00781,-8.875 C5.39844,-8.57292 5.69792,-8.1849 5.90625,-7.71094 C6.11458,-7.23698 6.25521,-6.72656 6.32813,-6.17969 C6.40104,-5.63281 6.4375,-5.0625 6.4375,-4.46875 C6.4375,-3.66667 6.36458,-2.91406 6.21875,-2.21094 C6.07292,-1.50781 5.78385,-0.911458 5.35156,-0.421875 C4.91927,0.0677083 4.30208,0.3125 3.5,0.3125 M3.5,-0.0625 C4.02083,-0.0625 4.40885,-0.328125 4.66406,-0.859375 C4.91927,-1.39063 5.07552,-1.97917 5.13281,-2.625 C5.1901,-3.27083 5.21875,-3.95833 5.21875,-4.6875 C5.21875,-5.39583 5.1901,-6.04427 5.13281,-6.63281 C5.07552,-7.22135 4.91927,-7.75781 4.66406,-8.24219 C4.40885,-8.72656 4.02083,-8.96875 3.5,-8.96875 C2.96875,-8.96875 2.57552,-8.72656 2.32031,-8.24219 C2.0651,-7.75781 1.90885,-7.22135 1.85156,-6.63281 C1.79427,-6.04427 1.76563,-5.39583 1.76563,-4.6875 C1.76563,-4.16667 1.77865,-3.67708 1.80469,-3.21875 C1.83073,-2.76042 1.89844,-2.28646 2.00781,-1.79688 C2.11719,-1.30729 2.29427,-0.895833 2.53906,-0.5625 C2.78385,-0.229167 3.10417,-0.0625 3.5,-0.0625 "/>
</g>

<g fill="#212121" fill-opacity="1" stroke="none" transform="matrix(0.75,0,0,0.75,23.875,45.15)"
font-family="MS Shell Dlg 2" font-size="8.25" font-weight="400" font-style="normal" 
>
<path vector-effect="none" fill-rule="evenodd" d="M0.59375,-2.125 C0.59375,-2.6875 0.778646,-3.1849 1.14844,-3.61719 C1.51823,-4.04948 1.98958,-4.40625 2.5625,-4.6875 L2.04688,-5.03125 C1.72396,-5.23958 1.46354,-5.51823 1.26563,-5.86719 C1.06771,-6.21615 0.96875,-6.57813 0.96875,-6.95313 C0.96875,-7.40104 1.08594,-7.80469 1.32031,-8.16406 C1.55469,-8.52344 1.86719,-8.80729 2.25781,-9.01563 C2.64844,-9.22396 3.0625,-9.32813 3.5,-9.32813 C3.91667,-9.32813 4.31771,-9.24219 4.70313,-9.07031 C5.08854,-8.89844 5.40365,-8.65625 5.64844,-8.34375 C5.89323,-8.03125 6.01563,-7.66146 6.01563,-7.23438 C6.01563,-6.91146 5.94271,-6.61719 5.79688,-6.35156 C5.65104,-6.08594 5.45052,-5.84635 5.19531,-5.63281 C4.9401,-5.41927 4.66667,-5.23438 4.375,-5.07813 L5.17188,-4.5625 C5.53646,-4.32292 5.83333,-4.00781 6.0625,-3.61719 C6.29167,-3.22656 6.40625,-2.8125 6.40625,-2.375 C6.40625,-1.875 6.26823,-1.41667 5.99219,-1 C5.71615,-0.583333 5.35677,-0.260417 4.91406,-0.03125 C4.47135,0.197917 4,0.3125 3.5,0.3125 C3.02083,0.3125 2.55469,0.213542 2.10156,0.015625 C1.64844,-0.182292 1.28385,-0.466146 1.00781,-0.835938 C0.731771,-1.20573 0.59375,-1.63542 0.59375,-2.125 M1.34375,-2.125 C1.34375,-1.76042 1.44531,-1.42448 1.64844,-1.11719 C1.85156,-0.809896 2.11979,-0.570313 2.45313,-0.398438 C2.78646,-0.226563 3.13542,-0.140625 3.5,-0.140625 C4.04167,-0.140625 4.53385,-0.299479 4.97656,-0.617188 C5.41927,-0.934896 5.64063,-1.35417 5.64063,-1.875 C5.64063,-2.05208 5.60417,-2.22917 5.53125,-2.40625 C5.45833,-2.58333 5.35938,-2.74219 5.23438,-2.88281 C5.10938,-3.02344 4.96875,-3.14063 4.8125,-3.23438 L2.9375,-4.45313 C2.64583,-4.29688 2.3776,-4.10156 2.13281,-3.86719 C1.88802,-3.63281 1.69531,-3.36719 1.55469,-3.07031 C1.41406,-2.77344 1.34375,-2.45833 1.34375,-2.125 M2.3125,-6.40625 L4,-5.3125 C4.39583,-5.54167 4.71875,-5.81771 4.96875,-6.14063 C5.21875,-6.46354 5.34375,-6.82813 5.34375,-7.23438 C5.34375,-7.54688 5.25521,-7.83333 5.07813,-8.09375 C4.90104,-8.35417 4.67188,-8.55729 4.39063,-8.70313 C4.10938,-8.84896 3.80729,-8.92188 3.48438,-8.92188 C3.20313,-8.92188 2.91927,-8.86719 2.63281,-8.75781 C2.34635,-8.64844 2.10938,-8.48438 1.92188,-8.26563 C1.73438,-8.04688 1.64063,-7.79167 1.64063,-7.5 C1.64063,-7.0625 1.86458,-6.69792 2.3125,-6.40625 "/>
</g>

<g fill="#212121" fill-opacity="1" stroke="none" transform="matrix(0.75,0,0,0.75,29.375,45.15)"
font-family="MS Shell Dlg 2" font-size="8.25" font-weight="400" font-style="normal" 
>
<path vector-effect="none" fill-rule="evenodd" d="M3.5,0.3125 C2.35417,0.3125 1.57552,-0.158854 1.16406,-1.10156 C0.752604,-2.04427 0.546875,-3.16667 0.546875,-4.46875 C0.546875,-5.28125 0.619792,-6.04427 0.765625,-6.75781 C0.911458,-7.47135 1.20573,-8.07813 1.64844,-8.57813 C2.09115,-9.07813 2.70833,-9.32813 3.5,-9.32813 C4.11458,-9.32813 4.61719,-9.17708 5.00781,-8.875 C5.39844,-8.57292 5.69792,-8.1849 5.90625,-7.71094 C6.11458,-7.23698 6.25521,-6.72656 6.32813,-6.17969 C6.40104,-5.63281 6.4375,-5.0625 6.4375,-4.46875 C6.4375,-3.66667 6.36458,-2.91406 6.21875,-2.21094 C6.07292,-1.50781 5.78385,-0.911458 5.35156,-0.421875 C4.91927,0.0677083 4.30208,0.3125 3.5,0.3125 M3.5,-0.0625 C4.02083,-0.0625 4.40885,-0.328125 4.66406,-0.859375 C4.91927,-1.39063 5.07552,-1.97917 5.13281,-2.625 C5.1901,-3.27083 5.21875,-3.95833 5.21875,-4.6875 C5.21875,-5.39583 5.1901,-6.04427 5.13281,-6.63281 C5.07552,-7.22135 4.91927,-7.75781 4.66406,-8.24219 C4.40885,-8.72656 4.02083,-8.96875 3.5,-8.96875 C2.96875,-8.96875 2.57552,-8.72656 2.32031,-8.24219 C2.0651,-7.75781 1.90885,-7.22135 1.85156,-6.63281 C1.79427,-6.04427 1.76563,-5.39583 1.76563,-4.6875 C1.76563,-4.16667 1.77865,-3.67708 1.80469,-3.21875 C1.83073,-2.76042 1.89844,-2.28646 2.00781,-1.79688 C2.11719,-1.30729 2.29427,-0.895833 2.53906,-0.5625 C2.78385,-0.229167 3.10417,-0.0625 3.5,-0.0625 "/>
</g>

<g fill="#212121" fill-opacity="1" stroke="none" transform="matrix(0.75,0,0,0.75,18.3749,8.25)"
font-family="MS Shell Dlg 2" font-size="8.25" font-weight="400" font-style="normal" 
>
<path vector-effect="none" fill-rule="evenodd" d="M1.29688,0 L1.29688,-0.5 C2.46354,-0.5 3.04688,-0.645833 3.04688,-0.9375 L3.04688,-8.28125 C2.56771,-8.05208 1.95833,-7.9375 1.21875,-7.9375 L1.21875,-8.42188 C2.36458,-8.42188 3.22917,-8.72396 3.8125,-9.32813 L4,-9.32813 C4.03125,-9.32813 4.0625,-9.3151 4.09375,-9.28906 C4.125,-9.26302 4.14063,-9.23438 4.14063,-9.20313 L4.14063,-0.9375 C4.14063,-0.645833 4.72396,-0.5 5.89063,-0.5 L5.89063,0 L1.29688,0"/>
</g>

<g fill="#212121" fill-opacity="1" stroke="none" transform="matrix(0.75,0,0,0.75,23.875,8.25)"
font-family="MS Shell Dlg 2" font-size="8.25" font-weight="400" font-style="normal" 
>
<path vector-effect="none" fill-rule="evenodd" d="M3.5,0.3125 C2.35417,0.3125 1.57552,-0.158854 1.16406,-1.10156 C0.752604,-2.04427 0.546875,-3.16667 0.546875,-4.46875 C0.546875,-5.28125 0.619792,-6.04427 0.765625,-6.75781 C0.911458,-7.47135 1.20573,-8.07813 1.64844,-8.57813 C2.09115,-9.07813 2.70833,-9.32813 3.5,-9.32813 C4.11458,-9.32813 4.61719,-9.17708 5.00781,-8.875 C5.39844,-8.57292 5.69792,-8.1849 5.90625,-7.71094 C6.11458,-7.23698 6.25521,-6.72656 6.32813,-6.17969 C6.40104,-5.63281 6.4375,-5.0625 6.4375,-4.46875 C6.4375,-3.66667 6.36458,-2.91406 6.21875,-2.21094 C6.07292,-1.50781 5.78385,-0.911458 5.35156,-0.421875 C4.91927,0.0677083 4.30208,0.3125 3.5,0.3125 M3.5,-0.0625 C4.02083,-0.0625 4.40885,-0.328125 4.66406,-0.859375 C4.91927,-1.39063 5.07552,-1.97917 5.13281,-2.625 C5.1901,-3.27083 5.21875,-3.95833 5.21875,-4.6875 C5.21875,-5.39583 5.1901,-6.04427 5.13281,-6.63281 C5.07552,-7.22135 4.91927,-7.75781 4.66406,-8.24219 C4.40885,-8.72656 4.02083,-8.96875 3.5,-8.96875 C2.96875,-8.96875 2.57552,-8.72656 2.32031,-8.24219 C2.0651,-7.75781 1.90885,-7.22135 1.85156,-6.63281 C1.79427,-6.04427 1.76563,-5.39583 1.76563,-4.6875 C1.76563,-4.16667 1.77865,-3.67708 1.80469,-3.21875 C1.83073,-2.76042 1.89844,-2.28646 2.00781,-1.79688 C2.11719,-1.30729 2.29427,-0.895833 2.53906,-0.5625 C2.78385,-0.229167 3.10417,-0.0625 3.5,-0.0625 "/>
</g>

<g fill="#212121" fill-opacity="1" stroke="none" transform="matrix(0.75,0,0,0.75,29.375,8.25)"
font-family="MS Shell Dlg 2" font-size="8.25" font-weight="400" font-style="normal" 
>
<path vector-effect="none" fill-rule="evenodd" d="M3.5,0.3125 C2.35417,0.3125 1.57552,-0.158854 1.16406,-1.10156 C0.752604,-2.04427 0.546875,-3.16667 0.546875,-4.46875 C0.546875,-5.28125 0.619792,-6.04427 0.765625,-6.75781 C0.911458,-7.47135 1.20573,-8.07813 1.64844,-8.57813 C2.09115,-9.07813 2.70833,-9.32813 3.5,-9.32813 C4.11458,-9.32813 4.61719,-9.17708 5.00781,-8.875 C5.39844,-8.57292 5.69792,-8.1849 5.90625,-7.71094 C6.11458,-7.23698 6.25521,-6.72656 6.32813,-6.17969 C6.40104,-5.63281 6.4375,-5.0625 6.4375,-4.46875 C6.4375,-3.66667 6.36458,-2.91406 6.21875,-2.21094 C6.07292,-1.50781 5.78385,-0.911458 5.35156,-0.421875 C4.91927,0.0677083 4.30208,0.3125 3.5,0.3125 M3.5,-0.0625 C4.02083,-0.0625 4.40885,-0.328125 4.66406,-0.859375 C4.91927,-1.39063 5.07552,-1.97917 5.13281,-2.625 C5.1901,-3.27083 5.21875,-3.95833 5.21875,-4.6875 C5.21875,-5.39583 5.1901,-6.04427 5.13281,-6.63281 C5.07552,-7.22135 4.91927,-7.75781 4.66406,-8.24219 C4.40885,-8.72656 4.02083,-8.96875 3.5,-8.96875 C2.96875,-8.96875 2.57552,-8.72656 2.32031,-8.24219 C2.0651,-7.75781 1.90885,-7.22135 1.85156,-6.63281 C1.79427,-6.04427 1.76563,-5.39583 1.76563,-4.6875 C1.76563,-4.16667 1.77865,-3.67708 1.80469,-3.21875 C1.83073,-2.76042 1.89844,-2.28646 2.00781,-1.79688 C2.11719,-1.30729 2.29427,-0.895833 2.53906,-0.5625 C2.78385,-0.229167 3.10417,-0.0625 3.5,-0.0625 "/>
</g>

<g fill="#ffffff" fill-opacity="1" stroke="none" transform="matrix(7.5e-05,0,0,7.5e-05,-13.425,-11.64)"
font-family="MS Shell Dlg 2" font-size="8.25" font-weight="400" font-style="normal" 
>
<path vector-effect="none" fill-rule="evenodd" d="M5.01e+06,230000 L5.01e+06,780000 L7.05e+06,780000 L7.05e+06,230000 L5.01e+06,230000"/>
</g>

<g fill="#000000" fill-opacity="1" stroke="none" transform="matrix(7.5e-05,0,0,7.5e-05,-13.425,-11.64)"
font-family="MS Shell Dlg 2" font-size="8.25" font-weight="400" font-style="normal" 
>
<path vector-effect="none" fill-rule="evenodd" d="M5.05e+06,270000 L5.05e+06,390000 L5.45e+06,390000 L5.45e+06,270000 L5.05e+06,270000"/>
</g>

<g fill="none" stroke="#212121" stroke-opacity="1" stroke-width="0.666667" stroke-linecap="butt" stroke-linejoin="miter" stroke-miterlimit="2" transform="matrix(0.75,0,0,0.75,-13.425,-11.64)"
font-family="MS Shell Dlg 2" font-size="8.25" font-weight="400" font-style="normal" 
>
<path vector-effect="none" fill-rule="evenodd" d="M505,39 L505,27 L545,27 L545,39 L505,39"/>
</g>

<g fill="#999999" fill-opacity="1" stroke="none" transform="matrix(7.5e-05,0,0,7.5e-05,-13.425,-11.64)"
font-family="MS Shell Dlg 2" font-size="8.25" font-weight="400" font-style="normal" 
>
<path vector-effect="none" fill-rule="evenodd" d="M5.05e+06,435000 L5.05e+06,555000 L5.45e+06,555000 L5.45e+06,435000 L5.05e+06,435000"/>
</g>

<g fill="none" stroke="#212121" stroke-opacity="1" stroke-width="0.666667" stroke-linecap="butt" stroke-linejoin="miter" stroke-miterlimit="2" transform="matrix(0.75,0,0,0.75,-13.425,-11.64)"
font-family="MS Shell Dlg 2" font-size="8.25" font-weight="400" font-style="normal" 
>
<path vector-effect="none" fill-rule="evenodd" d="M505,55.5 L505,43.5 L545,43.5 L545,55.5 L505,55.5"/>
</g>

<g fill="#4d4d4d" fill-opacity="1" stroke="none" transform="matrix(7.5e-05,0,0,7.5e-05,-13.425,-11.64)"
font-family="MS Shell Dlg 2" font-size="8.25" font-weight="400" font-style="normal" 
>
<path vector-effect="none" fill-rule="evenodd" d="M5.05e+06,610000 L5.05e+06,730000 L5.45e+06,730000 L5.45e+06,610000 L5.05e+06,610000"/>
</g>

<g fill="none" stroke="#212121" stroke-opacity="1" stroke-width="0.666667" stroke-linecap="butt" stroke-linejoin="miter" stroke-miterlimit="2" transform="matrix(0.75,0,0,0.75,-13.425,-11.64)"
font-family="MS Shell Dlg 2" font-size="8.25" font-weight="400" font-style="normal" 
>
<path vector-effect="none" fill-rule="evenodd" d="M505,73 L505,61 L545,61 L545,73 L505,73"/>
</g>

<g fill="#212121" fill-opacity="1" stroke="none" transform="matrix(0.75,0,0,0.75,397.575,41.25)"
font-family="MS Shell Dlg 2" font-size="8.25" font-weight="400" font-style="normal" 
>
<path vector-effect="none" fill-rule="evenodd" d="M0.4375,0 L0.4375,-0.5 C1.39583,-0.5 1.875,-0.645833 1.875,-0.9375 L1.875,-8.625 C1.875,-8.92708 1.39583,-9.07813 0.4375,-9.07813 L0.4375,-9.5625 L8.34375,-9.5625 L8.73438,-6.35938 L8.32813,-6.35938 C8.23438,-7.16146 8.09635,-7.74479 7.91406,-8.10938 C7.73177,-8.47396 7.44271,-8.72656 7.04688,-8.86719 C6.65104,-9.00781 6.05729,-9.07813 5.26563,-9.07813 L3.89063,-9.07813 C3.72396,-9.07813 3.59375,-9.07031 3.5,-9.05469 C3.40625,-9.03906 3.32813,-8.9974 3.26563,-8.92969 C3.20313,-8.86198 3.17188,-8.76042 3.17188,-8.625 L3.17188,-5.20313 L4.21875,-5.20313 C4.6875,-5.20313 5.03906,-5.24479 5.27344,-5.32813 C5.50781,-5.41146 5.66927,-5.5651 5.75781,-5.78906 C5.84635,-6.01302 5.89063,-6.36458 5.89063,-6.84375 L6.29688,-6.84375 L6.29688,-3.07813 L5.89063,-3.07813 C5.89063,-3.55729 5.84635,-3.91146 5.75781,-4.14063 C5.66927,-4.36979 5.50781,-4.52344 5.27344,-4.60156 C5.03906,-4.67969 4.6875,-4.71875 4.21875,-4.71875 L3.17188,-4.71875 L3.17188,-0.9375 C3.17188,-0.739583 3.22917,-0.617188 3.34375,-0.570313 C3.45833,-0.523438 3.64063,-0.5 3.89063,-0.5 L5.375,-0.5 C6.02083,-0.5 6.54427,-0.549479 6.94531,-0.648438 C7.34635,-0.747396 7.65625,-0.916667 7.875,-1.15625 C8.09375,-1.39583 8.26302,-1.70573 8.38281,-2.08594 C8.5026,-2.46615 8.61458,-2.99479 8.71875,-3.67188 L9.125,-3.67188 L8.53125,0 L0.4375,0"/>
</g>

<g fill="#212121" fill-opacity="1" stroke="none" transform="matrix(0.75,0,0,0.75,405.061,41.25)"
font-family="MS Shell Dlg 2" font-size="8.25" font-weight="400" font-style="normal" 
>
<path vector-effect="none" fill-rule="evenodd" d="M0.421875,0 L0.421875,-0.5 C0.734375,-0.5 0.994792,-0.523438 1.20313,-0.570313 C1.41146,-0.617188 1.51563,-0.739583 1.51563,-0.9375 L1.51563,-4.76563 C1.51563,-5.01563 1.47656,-5.19531 1.39844,-5.30469 C1.32031,-5.41406 1.21094,-5.48177 1.07031,-5.50781 C0.929688,-5.53385 0.713542,-5.54688 0.421875,-5.54688 L0.421875,-6.03125 L2.45313,-6.1875 L2.45313,-4.8125 C2.64063,-5.21875 2.91667,-5.54948 3.28125,-5.80469 C3.64583,-6.0599 4.04688,-6.1875 4.48438,-6.1875 C5.55729,-6.1875 6.1875,-5.75 6.375,-4.875 C6.5625,-5.27083 6.83594,-5.58854 7.19531,-5.82813 C7.55469,-6.06771 7.94792,-6.1875 8.375,-6.1875 C8.80208,-6.1875 9.15885,-6.11979 9.44531,-5.98438 C9.73177,-5.84896 9.94792,-5.64063 10.0938,-5.35938 C10.2396,-5.07813 10.3125,-4.72396 10.3125,-4.29688 L10.3125,-0.9375 C10.3125,-0.739583 10.4167,-0.617188 10.625,-0.570313 C10.8333,-0.523438 11.0938,-0.5 11.4063,-0.5 L11.4063,0 L8.20313,0 L8.20313,-0.5 C8.52604,-0.5 8.78906,-0.523438 8.99219,-0.570313 C9.19531,-0.617188 9.29688,-0.739583 9.29688,-0.9375 L9.29688,-4.26563 C9.29688,-4.73438 9.23177,-5.11198 9.10156,-5.39844 C8.97135,-5.6849 8.69792,-5.82813 8.28125,-5.82813 C7.75,-5.82813 7.30729,-5.61198 6.95313,-5.17969 C6.59896,-4.7474 6.42188,-4.25521 6.42188,-3.70313 L6.42188,-0.9375 C6.42188,-0.739583 6.52604,-0.617188 6.73438,-0.570313 C6.94271,-0.523438 7.20313,-0.5 7.51563,-0.5 L7.51563,0 L4.3125,0 L4.3125,-0.5 C4.63542,-0.5 4.89844,-0.523438 5.10156,-0.570313 C5.30469,-0.617188 5.40625,-0.739583 5.40625,-0.9375 L5.40625,-4.26563 C5.40625,-4.71354 5.34115,-5.08594 5.21094,-5.38281 C5.08073,-5.67969 4.80729,-5.82813 4.39063,-5.82813 C3.84896,-5.82813 3.40365,-5.61198 3.05469,-5.17969 C2.70573,-4.7474 2.53125,-4.25521 2.53125,-3.70313 L2.53125,-0.9375 C2.53125,-0.739583 2.63542,-0.617188 2.84375,-0.570313 C3.05208,-0.523438 3.3125,-0.5 3.625,-0.5 L3.625,0 L0.421875,0"/>
</g>

<g fill="#212121" fill-opacity="1" stroke="none" transform="matrix(0.75,0,0,0.75,414.228,41.25)"
font-family="MS Shell Dlg 2" font-size="8.25" font-weight="400" font-style="normal" 
>
<path vector-effect="none" fill-rule="evenodd" d="M0.453125,0 L0.453125,-0.5 C1.28646,-0.5 1.79688,-0.770833 1.98438,-1.3125 L4.92188,-9.875 C4.95313,-9.96875 5.03125,-10.0156 5.15625,-10.0156 L5.32813,-10.0156 C5.45313,-10.0156 5.53125,-9.96875 5.5625,-9.875 L8.625,-0.9375 C8.70833,-0.739583 8.8724,-0.617188 9.11719,-0.570313 C9.36198,-0.523438 9.66667,-0.5 10.0313,-0.5 L10.0313,0 L6.125,0 L6.125,-0.5 C6.90625,-0.5 7.29688,-0.625 7.29688,-0.875 L7.29688,-0.9375 L6.53125,-3.125 L3.14063,-3.125 L2.51563,-1.3125 C2.50521,-1.28125 2.5,-1.23438 2.5,-1.17188 C2.5,-0.942708 2.60938,-0.773438 2.82813,-0.664063 C3.04688,-0.554688 3.28646,-0.5 3.54688,-0.5 L3.54688,0 L0.453125,0 M3.29688,-3.60938 L6.375,-3.60938 L4.82813,-8.07813 L3.29688,-3.60938"/>
</g>

<g fill="#212121" fill-opacity="1" stroke="none" transform="matrix(0.75,0,0,0.75,422.478,41.25)"
font-family="MS Shell Dlg 2" font-size="8.25" font-weight="400" font-style="normal" 
>
<path vector-effect="none" fill-rule="evenodd" d="M0.4375,0 L0.4375,-0.5 C1.39583,-0.5 1.875,-0.645833 1.875,-0.9375 L1.875,-8.625 C1.875,-8.92708 1.39583,-9.07813 0.4375,-9.07813 L0.4375,-9.5625 L4.96875,-9.5625 L4.96875,-9.07813 C3.77083,-9.07813 3.17188,-8.92708 3.17188,-8.625 L3.17188,-0.9375 C3.17188,-0.739583 3.22917,-0.617188 3.34375,-0.570313 C3.45833,-0.523438 3.64063,-0.5 3.89063,-0.5 L4.96875,-0.5 C5.66667,-0.5 6.20573,-0.627604 6.58594,-0.882813 C6.96615,-1.13802 7.23438,-1.48438 7.39063,-1.92188 C7.54688,-2.35938 7.66667,-2.94271 7.75,-3.67188 L8.15625,-3.67188 L7.76563,0 L0.4375,0"/>
</g>

<g fill="#212121" fill-opacity="1" stroke="none" transform="matrix(0.75,0,0,0.75,428.436,41.25)"
font-family="MS Shell Dlg 2" font-size="8.25" font-weight="400" font-style="normal" 
>
<path vector-effect="none" fill-rule="evenodd" d="M2.35938,0 L2.35938,-0.5 C2.82813,-0.5 3.28385,-0.526042 3.72656,-0.578125 C4.16927,-0.630208 4.39063,-0.75 4.39063,-0.9375 L4.39063,-8.625 C4.39063,-8.82292 4.33594,-8.94792 4.22656,-9 C4.11719,-9.05208 3.9375,-9.07813 3.6875,-9.07813 L3.09375,-9.07813 C2.32292,-9.07813 1.77604,-8.90625 1.45313,-8.5625 C1.28646,-8.39583 1.16667,-8.1276 1.09375,-7.75781 C1.02083,-7.38802 0.958333,-6.92188 0.90625,-6.35938 L0.5,-6.35938 L0.765625,-9.5625 L9.32813,-9.5625 L9.59375,-6.35938 L9.1875,-6.35938 C9.125,-6.96354 9.0625,-7.4401 9,-7.78906 C8.9375,-8.13802 8.81771,-8.39583 8.64063,-8.5625 C8.31771,-8.90625 7.77083,-9.07813 7,-9.07813 L6.40625,-9.07813 C6.23958,-9.07813 6.10938,-9.07031 6.01563,-9.05469 C5.92188,-9.03906 5.84635,-8.9974 5.78906,-8.92969 C5.73177,-8.86198 5.70313,-8.76042 5.70313,-8.625 L5.70313,-0.9375 C5.70313,-0.75 5.92448,-0.630208 6.36719,-0.578125 C6.8099,-0.526042 7.26042,-0.5 7.71875,-0.5 L7.71875,0 L2.35938,0"/>
</g>

<g fill="none" stroke="#212121" stroke-opacity="1" stroke-width="1.06667" stroke-linecap="butt" stroke-linejoin="miter" stroke-miterlimit="2" transform="matrix(0.75,0,0,0.75,-13.425,-11.64)"
font-family="MS Shell Dlg 2" font-size="8.25" font-weight="400" font-style="normal" 
>
<path vector-effect="none" fill-rule="evenodd" d="M501,78 L501,23 L705,23 L705,78 L501,78"/>
</g>
</g>
</svg>
