<?xml version="1.0" encoding="UTF-8" standalone="no"?>
<svg width="177.094mm" height="68.7917mm"
 viewBox="0 0 502 195"
 xmlns="http://www.w3.org/2000/svg" xmlns:xlink="http://www.w3.org/1999/xlink"  version="1.2" baseProfile="tiny">
<title>Qt SVG Document</title>
<desc>MATLAB, The MathWorks, Inc. Version 25.2.0.3055257 R2025b Update 2</desc>
<defs>
</defs>
<g fill="none" stroke="black" stroke-width="1" fill-rule="evenodd" stroke-linecap="square" stroke-linejoin="bevel" >

<g fill="#ffffff" fill-opacity="1" stroke="none" transform="matrix(0.75,0,0,0.75,-25.05,-11.64)"
font-family="MS Shell Dlg 2" font-size="8.25" font-weight="400" font-style="normal" 
>
<path vector-effect="none" fill-rule="evenodd" d="M32,14 L703,14 L703,275 L32,275 L32,14"/>
</g>

<g fill="#ffffff" fill-opacity="1" stroke="none" transform="matrix(7.5e-05,0,0,7.5e-05,-25.05,-11.64)"
font-family="MS Shell Dlg 2" font-size="8.25" font-weight="400" font-style="normal" 
>
<path vector-effect="none" fill-rule="evenodd" d="M780000,230000 L780000,2.69e+06 L5.41e+06,2.69e+06 L5.41e+06,230000 L780000,230000"/>
</g>

<g fill="#212121" fill-opacity="0.25098" stroke="#212121" stroke-opacity="0.25098" stroke-dasharray="1,3" stroke-dashoffset="0" stroke-width="1.06667" stroke-linecap="butt" stroke-linejoin="round" transform="matrix(0.75,0,0,0.75,-25.05,-11.64)"
font-family="MS Shell Dlg 2" font-size="8.25" font-weight="400" font-style="normal" 
>
<polyline fill="none" vector-effect="none" points="115.66,23 115.66,269 " />
<polyline fill="none" vector-effect="none" points="193.196,23 193.196,269 " />
<polyline fill="none" vector-effect="none" points="270.732,23 270.732,269 " />
<polyline fill="none" vector-effect="none" points="348.268,23 348.268,269 " />
<polyline fill="none" vector-effect="none" points="425.804,23 425.804,269 " />
<polyline fill="none" vector-effect="none" points="503.34,23 503.34,269 " />
<polyline fill="none" vector-effect="none" points="78,269 541,269 " />
<polyline fill="none" vector-effect="none" points="78,238.25 541,238.25 " />
<polyline fill="none" vector-effect="none" points="78,207.5 541,207.5 " />
<polyline fill="none" vector-effect="none" points="78,176.75 541,176.75 " />
<polyline fill="none" vector-effect="none" points="78,146 541,146 " />
<polyline fill="none" vector-effect="none" points="78,115.25 541,115.25 " />
<polyline fill="none" vector-effect="none" points="78,84.5 541,84.5 " />
<polyline fill="none" vector-effect="none" points="78,53.75 541,53.75 " />
<polyline fill="none" vector-effect="none" points="78,23 541,23 " />
</g>

<g fill="#212121" fill-opacity="1" stroke="#212121" stroke-opacity="1" stroke-width="0.666667" stroke-linecap="butt" stroke-linejoin="round" transform="matrix(0.75,0,0,0.75,-25.05,-11.64)"
font-family="MS Shell Dlg 2" font-size="8.25" font-weight="400" font-style="normal" 
>
<polyline fill="none" vector-effect="none" points="78,269 541,269 " />
</g>

<g fill="#000000" fill-opacity="1" stroke="none" transform="matrix(7.5e-05,0,0,7.5e-05,-25.05,-11.64)"
font-family="MS Shell Dlg 2" font-size="8.25" font-weight="400" font-style="normal" 
>
<path vector-effect="none" fill-rule="evenodd" d="M957224,959444 L957224,2.69e+06 L1.13445e+06,2.69e+06 L1.13445e+06,959444 L957224,959444"/>
</g>

<g fill="#000000" fill-opacity="1" stroke="none" transform="matrix(7.5e-05,0,0,7.5e-05,-25.05,-11.64)"
font-family="MS Shell Dlg 2" font-size="8.25" font-weight="400" font-style="normal" 
>
<path vector-effect="none" fill-rule="evenodd" d="M1.73258e+06,1.5931e+06 L1.73258e+06,2.69e+06 L1.90981e+06,2.69e+06 L1.90981e+06,1.5931e+06 L1.73258e+06,1.5931e+06"/>
</g>

<g fill="#000000" fill-opacity="1" stroke="none" transform="matrix(7.5e-05,0,0,7.5e-05,-25.05,-11.64)"
font-family="MS Shell Dlg 2" font-size="8.25" font-weight="400" font-style="normal" 
>
<path vector-effect="none" fill-rule="evenodd" d="M2.50794e+06,1.61696e+06 L2.50794e+06,2.69e+06 L2.68517e+06,2.69e+06 L2.68517e+06,1.61696e+06 L2.50794e+06,1.61696e+06"/>
</g>

<g fill="#000000" fill-opacity="1" stroke="none" transform="matrix(7.5e-05,0,0,7.5e-05,-25.05,-11.64)"
font-family="MS Shell Dlg 2" font-size="8.25" font-weight="400" font-style="normal" 
>
<path vector-effect="none" fill-rule="evenodd" d="M3.2833e+06,464927 L3.2833e+06,2.69e+06 L3.46053e+06,2.69e+06 L3.46053e+06,464927 L3.2833e+06,464927"/>
</g>

<g fill="#000000" fill-opacity="1" stroke="none" transform="matrix(7.5e-05,0,0,7.5e-05,-25.05,-11.64)"
font-family="MS Shell Dlg 2" font-size="8.25" font-weight="400" font-style="normal" 
>
<path vector-effect="none" fill-rule="evenodd" d="M4.05866e+06,1.44836e+06 L4.05866e+06,2.69e+06 L4.23589e+06,2.69e+06 L4.23589e+06,1.44836e+06 L4.05866e+06,1.44836e+06"/>
</g>

<g fill="#000000" fill-opacity="1" stroke="none" transform="matrix(7.5e-05,0,0,7.5e-05,-25.05,-11.64)"
font-family="MS Shell Dlg 2" font-size="8.25" font-weight="400" font-style="normal" 
>
<path vector-effect="none" fill-rule="evenodd" d="M4.83402e+06,1.43391e+06 L4.83402e+06,2.69e+06 L5.01124e+06,2.69e+06 L5.01124e+06,1.43391e+06 L4.83402e+06,1.43391e+06"/>
</g>

<g fill="none" stroke="#212121" stroke-opacity="1" stroke-width="0.666667" stroke-linecap="butt" stroke-linejoin="miter" stroke-miterlimit="2" transform="matrix(0.75,0,0,0.75,-25.05,-11.64)"
font-family="MS Shell Dlg 2" font-size="8.25" font-weight="400" font-style="normal" 
>
<path vector-effect="none" fill-rule="evenodd" d="M95.7225,269 L95.7225,95.9444 L113.445,95.9444 L113.445,269 L95.7225,269"/>
<path vector-effect="none" fill-rule="evenodd" d="M173.258,269 L173.258,159.31 L190.981,159.31 L190.981,269 L173.258,269"/>
<path vector-effect="none" fill-rule="evenodd" d="M250.794,269 L250.794,161.696 L268.517,161.696 L268.517,269 L250.794,269"/>
<path vector-effect="none" fill-rule="evenodd" d="M328.33,269 L328.33,46.4928 L346.053,46.4928 L346.053,269 L328.33,269"/>
<path vector-effect="none" fill-rule="evenodd" d="M405.866,269 L405.866,144.836 L423.589,144.836 L423.589,269 L405.866,269"/>
<path vector-effect="none" fill-rule="evenodd" d="M483.402,269 L483.402,143.391 L501.124,143.391 L501.124,269 L483.402,269"/>
</g>

<g fill="#808080" fill-opacity="1" stroke="none" transform="matrix(7.5e-05,0,0,7.5e-05,-25.05,-11.64)"
font-family="MS Shell Dlg 2" font-size="8.25" font-weight="400" font-style="normal" 
>
<path vector-effect="none" fill-rule="evenodd" d="M1.17876e+06,850761 L1.17876e+06,2.69e+06 L1.35598e+06,2.69e+06 L1.35598e+06,850761 L1.17876e+06,850761"/>
</g>

<g fill="#808080" fill-opacity="1" stroke="none" transform="matrix(7.5e-05,0,0,7.5e-05,-25.05,-11.64)"
font-family="MS Shell Dlg 2" font-size="8.25" font-weight="400" font-style="normal" 
>
<path vector-effect="none" fill-rule="evenodd" d="M1.95411e+06,962881 L1.95411e+06,2.69e+06 L2.13134e+06,2.69e+06 L2.13134e+06,962881 L1.95411e+06,962881"/>
</g>

<g fill="#808080" fill-opacity="1" stroke="none" transform="matrix(7.5e-05,0,0,7.5e-05,-25.05,-11.64)"
font-family="MS Shell Dlg 2" font-size="8.25" font-weight="400" font-style="normal" 
>
<path vector-effect="none" fill-rule="evenodd" d="M2.72947e+06,860075 L2.72947e+06,2.69e+06 L2.9067e+06,2.69e+06 L2.9067e+06,860075 L2.72947e+06,860075"/>
</g>

<g fill="#808080" fill-opacity="1" stroke="none" transform="matrix(7.5e-05,0,0,7.5e-05,-25.05,-11.64)"
font-family="MS Shell Dlg 2" font-size="8.25" font-weight="400" font-style="normal" 
>
<path vector-effect="none" fill-rule="evenodd" d="M3.50483e+06,998869 L3.50483e+06,2.69e+06 L3.68206e+06,2.69e+06 L3.68206e+06,998869 L3.50483e+06,998869"/>
</g>

<g fill="#808080" fill-opacity="1" stroke="none" transform="matrix(7.5e-05,0,0,7.5e-05,-25.05,-11.64)"
font-family="MS Shell Dlg 2" font-size="8.25" font-weight="400" font-style="normal" 
>
<path vector-effect="none" fill-rule="evenodd" d="M4.28019e+06,274444 L4.28019e+06,2.69e+06 L4.45742e+06,2.69e+06 L4.45742e+06,274444 L4.28019e+06,274444"/>
</g>

<g fill="#808080" fill-opacity="1" stroke="none" transform="matrix(7.5e-05,0,0,7.5e-05,-25.05,-11.64)"
font-family="MS Shell Dlg 2" font-size="8.25" font-weight="400" font-style="normal" 
>
<path vector-effect="none" fill-rule="evenodd" d="M5.05555e+06,1.97488e+06 L5.05555e+06,2.69e+06 L5.23278e+06,2.69e+06 L5.23278e+06,1.97488e+06 L5.05555e+06,1.97488e+06"/>
</g>

<g fill="none" stroke="#212121" stroke-opacity="1" stroke-width="0.666667" stroke-linecap="butt" stroke-linejoin="miter" stroke-miterlimit="2" transform="matrix(0.75,0,0,0.75,-25.05,-11.64)"
font-family="MS Shell Dlg 2" font-size="8.25" font-weight="400" font-style="normal" 
>
<path vector-effect="none" fill-rule="evenodd" d="M117.876,269 L117.876,85.0762 L135.598,85.0762 L135.598,269 L117.876,269"/>
<path vector-effect="none" fill-rule="evenodd" d="M195.411,269 L195.411,96.2882 L213.134,96.2882 L213.134,269 L195.411,269"/>
<path vector-effect="none" fill-rule="evenodd" d="M272.947,269 L272.947,86.0075 L290.67,86.0075 L290.67,269 L272.947,269"/>
<path vector-effect="none" fill-rule="evenodd" d="M350.483,269 L350.483,99.887 L368.206,99.887 L368.206,269 L350.483,269"/>
<path vector-effect="none" fill-rule="evenodd" d="M428.019,269 L428.019,27.4445 L445.742,27.4445 L445.742,269 L428.019,269"/>
<path vector-effect="none" fill-rule="evenodd" d="M505.555,269 L505.555,197.488 L523.278,197.488 L523.278,269 L505.555,269"/>
</g>

<g fill="#212121" fill-opacity="1" stroke="#212121" stroke-opacity="1" stroke-width="1.06667" stroke-linecap="square" stroke-linejoin="round" transform="matrix(0.75,0,0,0.75,-25.05,-11.64)"
font-family="MS Shell Dlg 2" font-size="8.25" font-weight="400" font-style="normal" 
>
<polyline fill="none" vector-effect="none" points="78,269 541,269 " />
<polyline fill="none" vector-effect="none" points="78,23 541,23 " />
<polyline fill="none" vector-effect="none" points="115.66,269 115.66,264.37 " />
<polyline fill="none" vector-effect="none" points="115.66,27.63 115.66,23 " />
<polyline fill="none" vector-effect="none" points="193.196,269 193.196,264.37 " />
<polyline fill="none" vector-effect="none" points="193.196,27.63 193.196,23 " />
<polyline fill="none" vector-effect="none" points="270.732,269 270.732,264.37 " />
<polyline fill="none" vector-effect="none" points="270.732,27.63 270.732,23 " />
<polyline fill="none" vector-effect="none" points="348.268,269 348.268,264.37 " />
<polyline fill="none" vector-effect="none" points="348.268,27.63 348.268,23 " />
<polyline fill="none" vector-effect="none" points="425.804,269 425.804,264.37 " />
<polyline fill="none" vector-effect="none" points="425.804,27.63 425.804,23 " />
<polyline fill="none" vector-effect="none" points="503.34,269 503.34,264.37 " />
<polyline fill="none" vector-effect="none" points="503.34,27.63 503.34,23 " />
</g>

<g fill="#212121" fill-opacity="1" stroke="none" transform="matrix(0,-0.75,0.75,0,9.75,127.11)"
font-family="MS Shell Dlg 2" font-size="8.25" font-weight="400" font-style="normal" 
>
<path vector-effect="none" fill-rule="evenodd" d="M0.65625,-11.1094 L4.48438,0.21875 L3.85938,0.21875 L0.03125,-11.1094 L0.65625,-11.1094 M9.125,-7.375 L9.125,-4.9375 L8.875,-4.9375 C8.67708,-5.69792 8.42188,-6.21615 8.10938,-6.49219 C7.79688,-6.76823 7.40104,-6.90625 6.92188,-6.90625 C6.55729,-6.90625 6.26302,-6.8099 6.03906,-6.61719 C5.8151,-6.42448 5.70313,-6.21354 5.70313,-5.98438 C5.70313,-5.69271 5.78646,-5.44271 5.95313,-5.23438 C6.11979,-5.01563 6.44792,-4.78646 6.9375,-4.54688 L8.07813,-4 C9.14063,-3.47917 9.67188,-2.79688 9.67188,-1.95313 C9.67188,-1.30729 9.42448,-0.783854 8.92969,-0.382813 C8.4349,0.0182292 7.88542,0.21875 7.28125,0.21875 C6.84375,0.21875 6.34375,0.140625 5.78125,-0.015625 C5.60417,-0.0677083 5.46354,-0.09375 5.35938,-0.09375 C5.23438,-0.09375 5.14063,-0.0260417 5.07813,0.109375 L4.8125,0.109375 L4.8125,-2.45313 L5.07813,-2.45313 C5.22396,-1.72396 5.5026,-1.17448 5.91406,-0.804688 C6.32552,-0.434896 6.78646,-0.25 7.29688,-0.25 C7.65104,-0.25 7.94271,-0.354167 8.17188,-0.5625 C8.40104,-0.770833 8.51563,-1.02604 8.51563,-1.32813 C8.51563,-1.68229 8.38802,-1.98177 8.13281,-2.22656 C7.8776,-2.47135 7.3724,-2.78125 6.61719,-3.15625 C5.86198,-3.53125 5.36979,-3.86979 5.14063,-4.17188 C4.90104,-4.47396 4.78125,-4.84896 4.78125,-5.29688 C4.78125,-5.89063 4.98438,-6.38542 5.39063,-6.78125 C5.79688,-7.17708 6.31771,-7.375 6.95313,-7.375 C7.23438,-7.375 7.57813,-7.3125 7.98438,-7.1875 C8.24479,-7.11458 8.42188,-7.07813 8.51563,-7.07813 C8.59896,-7.07813 8.66406,-7.09635 8.71094,-7.13281 C8.75781,-7.16927 8.8125,-7.25 8.875,-7.375 L9.125,-7.375 M10.0938,-7.15625 L13.4375,-7.15625 L13.4375,-6.875 L13.2656,-6.875 C13.0365,-6.875 12.862,-6.82292 12.7422,-6.71875 C12.6224,-6.61458 12.5625,-6.48958 12.5625,-6.34375 C12.5625,-6.13542 12.651,-5.85417 12.8281,-5.5 L14.5625,-1.89063 L16.1719,-5.84375 C16.2552,-6.05208 16.2969,-6.26042 16.2969,-6.46875 C16.2969,-6.5625 16.2813,-6.63542 16.25,-6.6875 C16.2083,-6.73958 16.1432,-6.78385 16.0547,-6.82031 C15.9661,-6.85677 15.8073,-6.875 15.5781,-6.875 L15.5781,-7.15625 L17.9063,-7.15625 L17.9063,-6.875 C17.7188,-6.85417 17.5729,-6.8125 17.4688,-6.75 C17.3646,-6.6875 17.25,-6.56771 17.125,-6.39063 C17.0729,-6.31771 16.9844,-6.11979 16.8594,-5.79688 L13.9375,1.35938 C13.6563,2.04688 13.2891,2.56771 12.8359,2.92188 C12.3828,3.27604 11.9427,3.45313 11.5156,3.45313 C11.2135,3.45313 10.9635,3.36458 10.7656,3.1875 C10.5677,3.01042 10.4688,2.80729 10.4688,2.57813 C10.4688,2.35938 10.5391,2.1849 10.6797,2.05469 C10.8203,1.92448 11.0156,1.85938 11.2656,1.85938 C11.4427,1.85938 11.6771,1.91667 11.9688,2.03125 C12.1771,2.10417 12.3073,2.14063 12.3594,2.14063 C12.5156,2.14063 12.6875,2.0599 12.875,1.89844 C13.0625,1.73698 13.25,1.42708 13.4375,0.96875 L13.9375,-0.28125 L11.375,-5.6875 C11.2917,-5.84375 11.1667,-6.04167 11,-6.28125 C10.8646,-6.46875 10.7552,-6.59375 10.6719,-6.65625 C10.5573,-6.73958 10.3646,-6.8125 10.0938,-6.875 L10.0938,-7.15625 M20.625,-5.84375 C21.1458,-6.36458 21.4531,-6.66667 21.5469,-6.75 C21.7865,-6.94792 22.0417,-7.10156 22.3125,-7.21094 C22.5833,-7.32031 22.849,-7.375 23.1094,-7.375 C23.5573,-7.375 23.9427,-7.24479 24.2656,-6.98438 C24.5885,-6.72396 24.8073,-6.34375 24.9219,-5.84375 C25.4531,-6.46875 25.9036,-6.88021 26.2734,-7.07813 C26.6432,-7.27604 27.026,-7.375 27.4219,-7.375 C27.7969,-7.375 28.1328,-7.27604 28.4297,-7.07813 C28.7266,-6.88021 28.9583,-6.5625 29.125,-6.125 C29.2396,-5.82292 29.2969,-5.34896 29.2969,-4.70313 L29.2969,-1.625 C29.2969,-1.17708 29.3333,-0.869792 29.4063,-0.703125 C29.4583,-0.588542 29.5547,-0.489583 29.6953,-0.40625 C29.8359,-0.322917 30.0625,-0.28125 30.375,-0.28125 L30.375,0 L26.8438,0 L26.8438,-0.28125 L27,-0.28125 C27.3021,-0.28125 27.5417,-0.34375 27.7188,-0.46875 C27.8333,-0.552083 27.9167,-0.682292 27.9688,-0.859375 C27.9896,-0.953125 28,-1.20833 28,-1.625 L28,-4.70313 C28,-5.28646 27.9323,-5.69792 27.7969,-5.9375 C27.5885,-6.27083 27.2604,-6.4375 26.8125,-6.4375 C26.5417,-6.4375 26.2656,-6.36719 25.9844,-6.22656 C25.7031,-6.08594 25.3646,-5.82813 24.9688,-5.45313 L24.9531,-5.375 L24.9688,-5.03125 L24.9688,-1.625 C24.9688,-1.13542 24.9974,-0.830729 25.0547,-0.710938 C25.112,-0.591146 25.2161,-0.489583 25.3672,-0.40625 C25.5182,-0.322917 25.776,-0.28125 26.1406,-0.28125 L26.1406,0 L22.5156,0 L22.5156,-0.28125 C22.9115,-0.28125 23.1849,-0.328125 23.3359,-0.421875 C23.487,-0.515625 23.5885,-0.65625 23.6406,-0.84375 C23.6719,-0.9375 23.6875,-1.19792 23.6875,-1.625 L23.6875,-4.70313 C23.6875,-5.28646 23.599,-5.70313 23.4219,-5.95313 C23.1927,-6.28646 22.875,-6.45313 22.4688,-6.45313 C22.1875,-6.45313 21.9063,-6.38021 21.625,-6.23438 C21.1979,-6.00521 20.8646,-5.74479 20.625,-5.45313 L20.625,-1.625 C20.625,-1.15625 20.6589,-0.851563 20.7266,-0.710938 C20.7943,-0.570313 20.8906,-0.463542 21.0156,-0.390625 C21.1406,-0.317708 21.401,-0.28125 21.7969,-0.28125 L21.7969,0 L18.25,0 L18.25,-0.28125 C18.5833,-0.28125 18.8151,-0.317708 18.9453,-0.390625 C19.0755,-0.463542 19.1745,-0.575521 19.2422,-0.726563 C19.3099,-0.877604 19.3438,-1.17708 19.3438,-1.625 L19.3438,-4.35938 C19.3438,-5.14063 19.3177,-5.64583 19.2656,-5.875 C19.2344,-6.05208 19.1797,-6.17188 19.1016,-6.23438 C19.0234,-6.29688 18.9167,-6.32813 18.7813,-6.32813 C18.6354,-6.32813 18.4583,-6.29167 18.25,-6.21875 L18.1406,-6.5 L20.2969,-7.375 L20.625,-7.375 L20.625,-5.84375 M36.5781,3.1875 L36.5781,3.45313 C35.7031,3.33854 34.9948,2.98698 34.4531,2.39844 C33.9115,1.8099 33.6406,1.16146 33.6406,0.453125 C33.6406,0.0677083 33.7005,-0.372396 33.8203,-0.867188 C33.9401,-1.36198 34,-1.75 34,-2.03125 C34,-2.40625 33.8411,-2.75521 33.5234,-3.07813 C33.2057,-3.40104 32.7708,-3.59896 32.2188,-3.67188 L32.2188,-4 C32.7708,-4.07292 33.2057,-4.27083 33.5234,-4.59375 C33.8411,-4.91667 34,-5.26563 34,-5.64063 C34,-5.92188 33.9401,-6.3099 33.8203,-6.80469 C33.7005,-7.29948 33.6406,-7.73438 33.6406,-8.10938 C33.6406,-8.81771 33.9115,-9.46615 34.4531,-10.0547 C34.9948,-10.6432 35.7031,-10.9948 36.5781,-11.1094 L36.5781,-10.8438 C35.9635,-10.6979 35.5156,-10.4583 35.2344,-10.125 C34.9531,-9.79167 34.8125,-9.42708 34.8125,-9.03125 C34.8125,-8.72917 34.8698,-8.32552 34.9844,-7.82031 C35.099,-7.3151 35.1563,-6.88542 35.1563,-6.53125 C35.1563,-6.01042 34.9635,-5.5026 34.5781,-5.00781 C34.1927,-4.51302 33.6198,-4.13021 32.8594,-3.85938 C33.6094,-3.57813 34.1797,-3.1849 34.5703,-2.67969 C34.9609,-2.17448 35.1563,-1.66146 35.1563,-1.14063 C35.1563,-0.786458 35.099,-0.356771 34.9844,0.148438 C34.8698,0.653646 34.8125,1.0625 34.8125,1.375 C34.8125,1.77083 34.9531,2.13281 35.2344,2.46094 C35.5156,2.78906 35.9635,3.03125 36.5781,3.1875 M40.625,-5.84375 C41.1458,-6.36458 41.4531,-6.66667 41.5469,-6.75 C41.7865,-6.94792 42.0417,-7.10156 42.3125,-7.21094 C42.5833,-7.32031 42.849,-7.375 43.1094,-7.375 C43.5573,-7.375 43.9427,-7.24479 44.2656,-6.98438 C44.5885,-6.72396 44.8073,-6.34375 44.9219,-5.84375 C45.4531,-6.46875 45.9036,-6.88021 46.2734,-7.07813 C46.6432,-7.27604 47.026,-7.375 47.4219,-7.375 C47.7969,-7.375 48.1328,-7.27604 48.4297,-7.07813 C48.7266,-6.88021 48.9583,-6.5625 49.125,-6.125 C49.2396,-5.82292 49.2969,-5.34896 49.2969,-4.70313 L49.2969,-1.625 C49.2969,-1.17708 49.3333,-0.869792 49.4063,-0.703125 C49.4583,-0.588542 49.5547,-0.489583 49.6953,-0.40625 C49.8359,-0.322917 50.0625,-0.28125 50.375,-0.28125 L50.375,0 L46.8438,0 L46.8438,-0.28125 L47,-0.28125 C47.3021,-0.28125 47.5417,-0.34375 47.7188,-0.46875 C47.8333,-0.552083 47.9167,-0.682292 47.9688,-0.859375 C47.9896,-0.953125 48,-1.20833 48,-1.625 L48,-4.70313 C48,-5.28646 47.9323,-5.69792 47.7969,-5.9375 C47.5885,-6.27083 47.2604,-6.4375 46.8125,-6.4375 C46.5417,-6.4375 46.2656,-6.36719 45.9844,-6.22656 C45.7031,-6.08594 45.3646,-5.82813 44.9688,-5.45313 L44.9531,-5.375 L44.9688,-5.03125 L44.9688,-1.625 C44.9688,-1.13542 44.9974,-0.830729 45.0547,-0.710938 C45.112,-0.591146 45.2161,-0.489583 45.3672,-0.40625 C45.5182,-0.322917 45.776,-0.28125 46.1406,-0.28125 L46.1406,0 L42.5156,0 L42.5156,-0.28125 C42.9115,-0.28125 43.1849,-0.328125 43.3359,-0.421875 C43.487,-0.515625 43.5885,-0.65625 43.6406,-0.84375 C43.6719,-0.9375 43.6875,-1.19792 43.6875,-1.625 L43.6875,-4.70313 C43.6875,-5.28646 43.599,-5.70313 43.4219,-5.95313 C43.1927,-6.28646 42.875,-6.45313 42.4688,-6.45313 C42.1875,-6.45313 41.9063,-6.38021 41.625,-6.23438 C41.1979,-6.00521 40.8646,-5.74479 40.625,-5.45313 L40.625,-1.625 C40.625,-1.15625 40.6589,-0.851563 40.7266,-0.710938 C40.7943,-0.570313 40.8906,-0.463542 41.0156,-0.390625 C41.1406,-0.317708 41.401,-0.28125 41.7969,-0.28125 L41.7969,0 L38.25,0 L38.25,-0.28125 C38.5833,-0.28125 38.8151,-0.317708 38.9453,-0.390625 C39.0755,-0.463542 39.1745,-0.575521 39.2422,-0.726563 C39.3099,-0.877604 39.3438,-1.17708 39.3438,-1.625 L39.3438,-4.35938 C39.3438,-5.14063 39.3177,-5.64583 39.2656,-5.875 C39.2344,-6.05208 39.1797,-6.17188 39.1016,-6.23438 C39.0234,-6.29688 38.9167,-6.32813 38.7813,-6.32813 C38.6354,-6.32813 38.4583,-6.29167 38.25,-6.21875 L38.1406,-6.5 L40.2969,-7.375 L40.625,-7.375 L40.625,-5.84375 M55.125,-7.375 L55.125,-4.9375 L54.875,-4.9375 C54.6771,-5.69792 54.4219,-6.21615 54.1094,-6.49219 C53.7969,-6.76823 53.401,-6.90625 52.9219,-6.90625 C52.5573,-6.90625 52.263,-6.8099 52.0391,-6.61719 C51.8151,-6.42448 51.7031,-6.21354 51.7031,-5.98438 C51.7031,-5.69271 51.7865,-5.44271 51.9531,-5.23438 C52.1198,-5.01563 52.4479,-4.78646 52.9375,-4.54688 L54.0781,-4 C55.1406,-3.47917 55.6719,-2.79688 55.6719,-1.95313 C55.6719,-1.30729 55.4245,-0.783854 54.9297,-0.382813 C54.4349,0.0182292 53.8854,0.21875 53.2813,0.21875 C52.8438,0.21875 52.3438,0.140625 51.7813,-0.015625 C51.6042,-0.0677083 51.4635,-0.09375 51.3594,-0.09375 C51.2344,-0.09375 51.1406,-0.0260417 51.0781,0.109375 L50.8125,0.109375 L50.8125,-2.45313 L51.0781,-2.45313 C51.224,-1.72396 51.5026,-1.17448 51.9141,-0.804688 C52.3255,-0.434896 52.7865,-0.25 53.2969,-0.25 C53.651,-0.25 53.9427,-0.354167 54.1719,-0.5625 C54.401,-0.770833 54.5156,-1.02604 54.5156,-1.32813 C54.5156,-1.68229 54.388,-1.98177 54.1328,-2.22656 C53.8776,-2.47135 53.3724,-2.78125 52.6172,-3.15625 C51.862,-3.53125 51.3698,-3.86979 51.1406,-4.17188 C50.901,-4.47396 50.7813,-4.84896 50.7813,-5.29688 C50.7813,-5.89063 50.9844,-6.38542 51.3906,-6.78125 C51.7969,-7.17708 52.3177,-7.375 52.9531,-7.375 C53.2344,-7.375 53.5781,-7.3125 53.9844,-7.1875 C54.2448,-7.11458 54.4219,-7.07813 54.5156,-7.07813 C54.599,-7.07813 54.6641,-7.09635 54.7109,-7.13281 C54.7578,-7.16927 54.8125,-7.25 54.875,-7.375 L55.125,-7.375 M57.7031,-4.46875 C57.7031,-3.40625 57.9635,-2.57292 58.4844,-1.96875 C59.0052,-1.36458 59.6146,-1.0625 60.3125,-1.0625 C60.7813,-1.0625 61.1901,-1.1901 61.5391,-1.44531 C61.888,-1.70052 62.1771,-2.14063 62.4063,-2.76563 L62.6563,-2.60938 C62.5417,-1.90104 62.2214,-1.2526 61.6953,-0.664063 C61.1693,-0.0755208 60.5104,0.21875 59.7188,0.21875 C58.8646,0.21875 58.1302,-0.117188 57.5156,-0.789063 C56.901,-1.46094 56.5938,-2.35938 56.5938,-3.48438 C56.5938,-4.71354 56.9089,-5.66927 57.5391,-6.35156 C58.1693,-7.03385 58.9583,-7.375 59.9063,-7.375 C60.7083,-7.375 61.3672,-7.11198 61.8828,-6.58594 C62.3984,-6.0599 62.6563,-5.35417 62.6563,-4.46875 L57.7031,-4.46875 M57.7031,-4.92188 L61.0156,-4.92188 C60.9948,-5.38021 60.9427,-5.70313 60.8594,-5.89063 C60.724,-6.18229 60.5286,-6.41146 60.2734,-6.57813 C60.0182,-6.74479 59.75,-6.82813 59.4688,-6.82813 C59.0313,-6.82813 58.6432,-6.65885 58.3047,-6.32031 C57.9661,-5.98177 57.7656,-5.51563 57.7031,-4.92188 M64.3906,-10.8438 L64.3906,-11.1094 C65.2552,-10.9948 65.9609,-10.6458 66.5078,-10.0625 C67.0547,-9.47917 67.3281,-8.82813 67.3281,-8.10938 C67.3281,-7.73438 67.2682,-7.29948 67.1484,-6.80469 C67.0286,-6.3099 66.9688,-5.92188 66.9688,-5.64063 C66.9688,-5.26563 67.125,-4.91667 67.4375,-4.59375 C67.75,-4.27083 68.1875,-4.07292 68.75,-4 L68.75,-3.67188 C68.1875,-3.59896 67.75,-3.40104 67.4375,-3.07813 C67.125,-2.75521 66.9688,-2.40625 66.9688,-2.03125 C66.9688,-1.75 67.0286,-1.36198 67.1484,-0.867188 C67.2682,-0.372396 67.3281,0.0677083 67.3281,0.453125 C67.3281,1.16146 67.0547,1.8099 66.5078,2.39844 C65.9609,2.98698 65.2552,3.33854 64.3906,3.45313 L64.3906,3.1875 C64.9948,3.03125 65.4401,2.78906 65.7266,2.46094 C66.013,2.13281 66.1563,1.77083 66.1563,1.375 C66.1563,1.0625 66.0964,0.653646 65.9766,0.148438 C65.8568,-0.356771 65.7969,-0.78125 65.7969,-1.125 C65.7969,-1.65625 65.9896,-2.16927 66.375,-2.66406 C66.7604,-3.15885 67.3385,-3.54167 68.1094,-3.8125 C67.3594,-4.09375 66.7865,-4.48698 66.3906,-4.99219 C65.9948,-5.4974 65.7969,-6.01042 65.7969,-6.53125 C65.7969,-6.88542 65.8568,-7.3151 65.9766,-7.82031 C66.0964,-8.32552 66.1563,-8.72917 66.1563,-9.03125 C66.1563,-9.42708 66.013,-9.79167 65.7266,-10.125 C65.4401,-10.4583 64.9948,-10.6979 64.3906,-10.8438 "/>
</g>

<g fill="#212121" fill-opacity="1" stroke="#212121" stroke-opacity="1" stroke-width="1.06667" stroke-linecap="square" stroke-linejoin="round" transform="matrix(0.75,0,0,0.75,-25.05,-11.64)"
font-family="MS Shell Dlg 2" font-size="8.25" font-weight="400" font-style="normal" 
>
<polyline fill="none" vector-effect="none" points="78,269 78,23 " />
<polyline fill="none" vector-effect="none" points="541,269 541,23 " />
<polyline fill="none" vector-effect="none" points="78,269 82.63,269 " />
<polyline fill="none" vector-effect="none" points="536.37,269 541,269 " />
<polyline fill="none" vector-effect="none" points="78,238.25 82.63,238.25 " />
<polyline fill="none" vector-effect="none" points="536.37,238.25 541,238.25 " />
<polyline fill="none" vector-effect="none" points="78,207.5 82.63,207.5 " />
<polyline fill="none" vector-effect="none" points="536.37,207.5 541,207.5 " />
<polyline fill="none" vector-effect="none" points="78,176.75 82.63,176.75 " />
<polyline fill="none" vector-effect="none" points="536.37,176.75 541,176.75 " />
<polyline fill="none" vector-effect="none" points="78,146 82.63,146 " />
<polyline fill="none" vector-effect="none" points="536.37,146 541,146 " />
<polyline fill="none" vector-effect="none" points="78,115.25 82.63,115.25 " />
<polyline fill="none" vector-effect="none" points="536.37,115.25 541,115.25 " />
<polyline fill="none" vector-effect="none" points="78,84.5 82.63,84.5 " />
<polyline fill="none" vector-effect="none" points="536.37,84.5 541,84.5 " />
<polyline fill="none" vector-effect="none" points="78,53.75 82.63,53.75 " />
<polyline fill="none" vector-effect="none" points="536.37,53.75 541,53.75 " />
<polyline fill="none" vector-effect="none" points="78,23 82.63,23 " />
<polyline fill="none" vector-effect="none" points="536.37,23 541,23 " />
</g>

<g fill="#212121" fill-opacity="1" stroke="none" transform="matrix(0.75,0,0,0.75,23.75,192.75)"
font-family="MS Shell Dlg 2" font-size="8.25" font-weight="400" font-style="normal" 
>
<path vector-effect="none" fill-rule="evenodd" d="M3.5,0.3125 C2.35417,0.3125 1.57552,-0.158854 1.16406,-1.10156 C0.752604,-2.04427 0.546875,-3.16667 0.546875,-4.46875 C0.546875,-5.28125 0.619792,-6.04427 0.765625,-6.75781 C0.911458,-7.47135 1.20573,-8.07813 1.64844,-8.57813 C2.09115,-9.07813 2.70833,-9.32813 3.5,-9.32813 C4.11458,-9.32813 4.61719,-9.17708 5.00781,-8.875 C5.39844,-8.57292 5.69792,-8.1849 5.90625,-7.71094 C6.11458,-7.23698 6.25521,-6.72656 6.32813,-6.17969 C6.40104,-5.63281 6.4375,-5.0625 6.4375,-4.46875 C6.4375,-3.66667 6.36458,-2.91406 6.21875,-2.21094 C6.07292,-1.50781 5.78385,-0.911458 5.35156,-0.421875 C4.91927,0.0677083 4.30208,0.3125 3.5,0.3125 M3.5,-0.0625 C4.02083,-0.0625 4.40885,-0.328125 4.66406,-0.859375 C4.91927,-1.39063 5.07552,-1.97917 5.13281,-2.625 C5.1901,-3.27083 5.21875,-3.95833 5.21875,-4.6875 C5.21875,-5.39583 5.1901,-6.04427 5.13281,-6.63281 C5.07552,-7.22135 4.91927,-7.75781 4.66406,-8.24219 C4.40885,-8.72656 4.02083,-8.96875 3.5,-8.96875 C2.96875,-8.96875 2.57552,-8.72656 2.32031,-8.24219 C2.0651,-7.75781 1.90885,-7.22135 1.85156,-6.63281 C1.79427,-6.04427 1.76563,-5.39583 1.76563,-4.6875 C1.76563,-4.16667 1.77865,-3.67708 1.80469,-3.21875 C1.83073,-2.76042 1.89844,-2.28646 2.00781,-1.79688 C2.11719,-1.30729 2.29427,-0.895833 2.53906,-0.5625 C2.78385,-0.229167 3.10417,-0.0625 3.5,-0.0625 "/>
</g>

<g fill="#212121" fill-opacity="1" stroke="none" transform="matrix(0.75,0,0,0.75,23.75,169.687)"
font-family="MS Shell Dlg 2" font-size="8.25" font-weight="400" font-style="normal" 
>
<path vector-effect="none" fill-rule="evenodd" d="M0.703125,0 L0.703125,-0.375 C0.703125,-0.395833 0.708333,-0.421875 0.71875,-0.453125 L2.90625,-2.85938 C3.22917,-3.21354 3.49219,-3.51042 3.69531,-3.75 C3.89844,-3.98958 4.10156,-4.26823 4.30469,-4.58594 C4.50781,-4.90365 4.66667,-5.22396 4.78125,-5.54688 C4.89583,-5.86979 4.95313,-6.21354 4.95313,-6.57813 C4.95313,-6.96354 4.88281,-7.33073 4.74219,-7.67969 C4.60156,-8.02865 4.39063,-8.30729 4.10938,-8.51563 C3.82813,-8.72396 3.48958,-8.82813 3.09375,-8.82813 C2.6875,-8.82813 2.32292,-8.70573 2,-8.46094 C1.67708,-8.21615 1.44792,-7.90104 1.3125,-7.51563 C1.35417,-7.52604 1.40625,-7.53125 1.46875,-7.53125 C1.67708,-7.53125 1.85677,-7.46094 2.00781,-7.32031 C2.15885,-7.17969 2.23438,-7 2.23438,-6.78125 C2.23438,-6.5625 2.15885,-6.38021 2.00781,-6.23438 C1.85677,-6.08854 1.67708,-6.01563 1.46875,-6.01563 C1.25,-6.01563 1.06771,-6.09115 0.921875,-6.24219 C0.776042,-6.39323 0.703125,-6.57292 0.703125,-6.78125 C0.703125,-7.125 0.768229,-7.45052 0.898438,-7.75781 C1.02865,-8.0651 1.21875,-8.33854 1.46875,-8.57813 C1.71875,-8.81771 2,-9.0026 2.3125,-9.13281 C2.625,-9.26302 2.95313,-9.32813 3.29688,-9.32813 C3.83854,-9.32813 4.33854,-9.21354 4.79688,-8.98438 C5.25521,-8.75521 5.61979,-8.4349 5.89063,-8.02344 C6.16146,-7.61198 6.29688,-7.13021 6.29688,-6.57813 C6.29688,-6.17188 6.20573,-5.78646 6.02344,-5.42188 C5.84115,-5.05729 5.61198,-4.72656 5.33594,-4.42969 C5.0599,-4.13281 4.70573,-3.79427 4.27344,-3.41406 C3.84115,-3.03385 3.55729,-2.78125 3.42188,-2.65625 L1.82813,-1.14063 L3.17188,-1.14063 C3.83854,-1.14063 4.39323,-1.14583 4.83594,-1.15625 C5.27865,-1.16667 5.51563,-1.18229 5.54688,-1.20313 C5.65104,-1.31771 5.76042,-1.75 5.875,-2.5 L6.29688,-2.5 L5.89063,0 L0.703125,0"/>
</g>

<g fill="#212121" fill-opacity="1" stroke="none" transform="matrix(0.75,0,0,0.75,23.75,146.625)"
font-family="MS Shell Dlg 2" font-size="8.25" font-weight="400" font-style="normal" 
>
<path vector-effect="none" fill-rule="evenodd" d="M0.390625,-2.3125 L0.390625,-2.79688 L4.71875,-9.25 C4.75,-9.30208 4.79688,-9.32813 4.85938,-9.32813 L5.0625,-9.32813 C5.16667,-9.32813 5.21875,-9.27604 5.21875,-9.17188 L5.21875,-2.79688 L6.59375,-2.79688 L6.59375,-2.3125 L5.21875,-2.3125 L5.21875,-0.9375 C5.21875,-0.75 5.35677,-0.630208 5.63281,-0.578125 C5.90885,-0.526042 6.22396,-0.5 6.57813,-0.5 L6.57813,0 L2.73438,0 L2.73438,-0.5 C3.08854,-0.5 3.40365,-0.526042 3.67969,-0.578125 C3.95573,-0.630208 4.09375,-0.75 4.09375,-0.9375 L4.09375,-2.3125 L0.390625,-2.3125 M0.859375,-2.79688 L4.17188,-2.79688 L4.17188,-7.76563 L0.859375,-2.79688"/>
</g>

<g fill="#212121" fill-opacity="1" stroke="none" transform="matrix(0.75,0,0,0.75,23.75,123.562)"
font-family="MS Shell Dlg 2" font-size="8.25" font-weight="400" font-style="normal" 
>
<path vector-effect="none" fill-rule="evenodd" d="M3.5,0.3125 C2.91667,0.3125 2.43229,0.158854 2.04688,-0.148438 C1.66146,-0.455729 1.36198,-0.854167 1.14844,-1.34375 C0.934896,-1.83333 0.789063,-2.34896 0.710938,-2.89063 C0.632813,-3.43229 0.59375,-3.97917 0.59375,-4.53125 C0.59375,-5.27083 0.736979,-6.01042 1.02344,-6.75 C1.3099,-7.48958 1.73177,-8.10417 2.28906,-8.59375 C2.84635,-9.08333 3.50521,-9.32813 4.26563,-9.32813 C4.58854,-9.32813 4.88802,-9.26823 5.16406,-9.14844 C5.4401,-9.02865 5.65625,-8.85156 5.8125,-8.61719 C5.96875,-8.38281 6.04688,-8.09896 6.04688,-7.76563 C6.04688,-7.56771 5.98177,-7.40365 5.85156,-7.27344 C5.72135,-7.14323 5.5625,-7.07813 5.375,-7.07813 C5.1875,-7.07813 5.02865,-7.14583 4.89844,-7.28125 C4.76823,-7.41667 4.70313,-7.57813 4.70313,-7.76563 C4.70313,-7.94271 4.76823,-8.09635 4.89844,-8.22656 C5.02865,-8.35677 5.1875,-8.42188 5.375,-8.42188 L5.45313,-8.42188 C5.32813,-8.59896 5.15885,-8.72656 4.94531,-8.80469 C4.73177,-8.88281 4.50521,-8.92188 4.26563,-8.92188 C3.98438,-8.92188 3.72396,-8.85938 3.48438,-8.73438 C3.24479,-8.60938 3.03125,-8.44271 2.84375,-8.23438 C2.65625,-8.02604 2.4974,-7.79427 2.36719,-7.53906 C2.23698,-7.28385 2.13802,-6.99479 2.07031,-6.67188 C2.0026,-6.34896 1.95833,-6.04688 1.9375,-5.76563 C1.91667,-5.48438 1.90625,-5.13021 1.90625,-4.70313 C2.07292,-5.08854 2.30729,-5.40365 2.60938,-5.64844 C2.91146,-5.89323 3.25,-6.01563 3.625,-6.01563 C4.04167,-6.01563 4.41927,-5.92969 4.75781,-5.75781 C5.09635,-5.58594 5.39063,-5.35156 5.64063,-5.05469 C5.89063,-4.75781 6.08073,-4.41667 6.21094,-4.03125 C6.34115,-3.64583 6.40625,-3.26042 6.40625,-2.875 C6.40625,-2.32292 6.28385,-1.79948 6.03906,-1.30469 C5.79427,-0.809896 5.45052,-0.416667 5.00781,-0.125 C4.5651,0.166667 4.0625,0.3125 3.5,0.3125 M3.5,-0.140625 C3.86458,-0.140625 4.15625,-0.223958 4.375,-0.390625 C4.59375,-0.557292 4.7526,-0.776042 4.85156,-1.04688 C4.95052,-1.31771 5.01302,-1.58854 5.03906,-1.85938 C5.0651,-2.13021 5.07813,-2.46875 5.07813,-2.875 C5.07813,-3.39583 5.05208,-3.84375 5,-4.21875 C4.94792,-4.59375 4.8125,-4.92448 4.59375,-5.21094 C4.375,-5.4974 4.03125,-5.64063 3.5625,-5.64063 C3.1875,-5.64063 2.8776,-5.51302 2.63281,-5.25781 C2.38802,-5.0026 2.21094,-4.67969 2.10156,-4.28906 C1.99219,-3.89844 1.9375,-3.52604 1.9375,-3.17188 C1.9375,-3.04688 1.94271,-2.95313 1.95313,-2.89063 C1.95313,-2.86979 1.95052,-2.85677 1.94531,-2.85156 C1.9401,-2.84635 1.9375,-2.83333 1.9375,-2.8125 C1.9375,-2.41667 1.97917,-2.01302 2.0625,-1.60156 C2.14583,-1.1901 2.30208,-0.84375 2.53125,-0.5625 C2.76042,-0.28125 3.08333,-0.140625 3.5,-0.140625 "/>
</g>

<g fill="#212121" fill-opacity="1" stroke="none" transform="matrix(0.75,0,0,0.75,23.75,100.5)"
font-family="MS Shell Dlg 2" font-size="8.25" font-weight="400" font-style="normal" 
>
<path vector-effect="none" fill-rule="evenodd" d="M0.59375,-2.125 C0.59375,-2.6875 0.778646,-3.1849 1.14844,-3.61719 C1.51823,-4.04948 1.98958,-4.40625 2.5625,-4.6875 L2.04688,-5.03125 C1.72396,-5.23958 1.46354,-5.51823 1.26563,-5.86719 C1.06771,-6.21615 0.96875,-6.57813 0.96875,-6.95313 C0.96875,-7.40104 1.08594,-7.80469 1.32031,-8.16406 C1.55469,-8.52344 1.86719,-8.80729 2.25781,-9.01563 C2.64844,-9.22396 3.0625,-9.32813 3.5,-9.32813 C3.91667,-9.32813 4.31771,-9.24219 4.70313,-9.07031 C5.08854,-8.89844 5.40365,-8.65625 5.64844,-8.34375 C5.89323,-8.03125 6.01563,-7.66146 6.01563,-7.23438 C6.01563,-6.91146 5.94271,-6.61719 5.79688,-6.35156 C5.65104,-6.08594 5.45052,-5.84635 5.19531,-5.63281 C4.9401,-5.41927 4.66667,-5.23438 4.375,-5.07813 L5.17188,-4.5625 C5.53646,-4.32292 5.83333,-4.00781 6.0625,-3.61719 C6.29167,-3.22656 6.40625,-2.8125 6.40625,-2.375 C6.40625,-1.875 6.26823,-1.41667 5.99219,-1 C5.71615,-0.583333 5.35677,-0.260417 4.91406,-0.03125 C4.47135,0.197917 4,0.3125 3.5,0.3125 C3.02083,0.3125 2.55469,0.213542 2.10156,0.015625 C1.64844,-0.182292 1.28385,-0.466146 1.00781,-0.835938 C0.731771,-1.20573 0.59375,-1.63542 0.59375,-2.125 M1.34375,-2.125 C1.34375,-1.76042 1.44531,-1.42448 1.64844,-1.11719 C1.85156,-0.809896 2.11979,-0.570313 2.45313,-0.398438 C2.78646,-0.226563 3.13542,-0.140625 3.5,-0.140625 C4.04167,-0.140625 4.53385,-0.299479 4.97656,-0.617188 C5.41927,-0.934896 5.64063,-1.35417 5.64063,-1.875 C5.64063,-2.05208 5.60417,-2.22917 5.53125,-2.40625 C5.45833,-2.58333 5.35938,-2.74219 5.23438,-2.88281 C5.10938,-3.02344 4.96875,-3.14063 4.8125,-3.23438 L2.9375,-4.45313 C2.64583,-4.29688 2.3776,-4.10156 2.13281,-3.86719 C1.88802,-3.63281 1.69531,-3.36719 1.55469,-3.07031 C1.41406,-2.77344 1.34375,-2.45833 1.34375,-2.125 M2.3125,-6.40625 L4,-5.3125 C4.39583,-5.54167 4.71875,-5.81771 4.96875,-6.14063 C5.21875,-6.46354 5.34375,-6.82813 5.34375,-7.23438 C5.34375,-7.54688 5.25521,-7.83333 5.07813,-8.09375 C4.90104,-8.35417 4.67188,-8.55729 4.39063,-8.70313 C4.10938,-8.84896 3.80729,-8.92188 3.48438,-8.92188 C3.20313,-8.92188 2.91927,-8.86719 2.63281,-8.75781 C2.34635,-8.64844 2.10938,-8.48438 1.92188,-8.26563 C1.73438,-8.04688 1.64063,-7.79167 1.64063,-7.5 C1.64063,-7.0625 1.86458,-6.69792 2.3125,-6.40625 "/>
</g>

<g fill="#212121" fill-opacity="1" stroke="none" transform="matrix(0.75,0,0,0.75,18.25,77.4375)"
font-family="MS Shell Dlg 2" font-size="8.25" font-weight="400" font-style="normal" 
>
<path vector-effect="none" fill-rule="evenodd" d="M1.29688,0 L1.29688,-0.5 C2.46354,-0.5 3.04688,-0.645833 3.04688,-0.9375 L3.04688,-8.28125 C2.56771,-8.05208 1.95833,-7.9375 1.21875,-7.9375 L1.21875,-8.42188 C2.36458,-8.42188 3.22917,-8.72396 3.8125,-9.32813 L4,-9.32813 C4.03125,-9.32813 4.0625,-9.3151 4.09375,-9.28906 C4.125,-9.26302 4.14063,-9.23438 4.14063,-9.20313 L4.14063,-0.9375 C4.14063,-0.645833 4.72396,-0.5 5.89063,-0.5 L5.89063,0 L1.29688,0"/>
</g>

<g fill="#212121" fill-opacity="1" stroke="none" transform="matrix(0.75,0,0,0.75,23.75,77.4375)"
font-family="MS Shell Dlg 2" font-size="8.25" font-weight="400" font-style="normal" 
>
<path vector-effect="none" fill-rule="evenodd" d="M3.5,0.3125 C2.35417,0.3125 1.57552,-0.158854 1.16406,-1.10156 C0.752604,-2.04427 0.546875,-3.16667 0.546875,-4.46875 C0.546875,-5.28125 0.619792,-6.04427 0.765625,-6.75781 C0.911458,-7.47135 1.20573,-8.07813 1.64844,-8.57813 C2.09115,-9.07813 2.70833,-9.32813 3.5,-9.32813 C4.11458,-9.32813 4.61719,-9.17708 5.00781,-8.875 C5.39844,-8.57292 5.69792,-8.1849 5.90625,-7.71094 C6.11458,-7.23698 6.25521,-6.72656 6.32813,-6.17969 C6.40104,-5.63281 6.4375,-5.0625 6.4375,-4.46875 C6.4375,-3.66667 6.36458,-2.91406 6.21875,-2.21094 C6.07292,-1.50781 5.78385,-0.911458 5.35156,-0.421875 C4.91927,0.0677083 4.30208,0.3125 3.5,0.3125 M3.5,-0.0625 C4.02083,-0.0625 4.40885,-0.328125 4.66406,-0.859375 C4.91927,-1.39063 5.07552,-1.97917 5.13281,-2.625 C5.1901,-3.27083 5.21875,-3.95833 5.21875,-4.6875 C5.21875,-5.39583 5.1901,-6.04427 5.13281,-6.63281 C5.07552,-7.22135 4.91927,-7.75781 4.66406,-8.24219 C4.40885,-8.72656 4.02083,-8.96875 3.5,-8.96875 C2.96875,-8.96875 2.57552,-8.72656 2.32031,-8.24219 C2.0651,-7.75781 1.90885,-7.22135 1.85156,-6.63281 C1.79427,-6.04427 1.76563,-5.39583 1.76563,-4.6875 C1.76563,-4.16667 1.77865,-3.67708 1.80469,-3.21875 C1.83073,-2.76042 1.89844,-2.28646 2.00781,-1.79688 C2.11719,-1.30729 2.29427,-0.895833 2.53906,-0.5625 C2.78385,-0.229167 3.10417,-0.0625 3.5,-0.0625 "/>
</g>

<g fill="#212121" fill-opacity="1" stroke="none" transform="matrix(0.75,0,0,0.75,18.25,54.375)"
font-family="MS Shell Dlg 2" font-size="8.25" font-weight="400" font-style="normal" 
>
<path vector-effect="none" fill-rule="evenodd" d="M1.29688,0 L1.29688,-0.5 C2.46354,-0.5 3.04688,-0.645833 3.04688,-0.9375 L3.04688,-8.28125 C2.56771,-8.05208 1.95833,-7.9375 1.21875,-7.9375 L1.21875,-8.42188 C2.36458,-8.42188 3.22917,-8.72396 3.8125,-9.32813 L4,-9.32813 C4.03125,-9.32813 4.0625,-9.3151 4.09375,-9.28906 C4.125,-9.26302 4.14063,-9.23438 4.14063,-9.20313 L4.14063,-0.9375 C4.14063,-0.645833 4.72396,-0.5 5.89063,-0.5 L5.89063,0 L1.29688,0"/>
</g>

<g fill="#212121" fill-opacity="1" stroke="none" transform="matrix(0.75,0,0,0.75,23.75,54.375)"
font-family="MS Shell Dlg 2" font-size="8.25" font-weight="400" font-style="normal" 
>
<path vector-effect="none" fill-rule="evenodd" d="M0.703125,0 L0.703125,-0.375 C0.703125,-0.395833 0.708333,-0.421875 0.71875,-0.453125 L2.90625,-2.85938 C3.22917,-3.21354 3.49219,-3.51042 3.69531,-3.75 C3.89844,-3.98958 4.10156,-4.26823 4.30469,-4.58594 C4.50781,-4.90365 4.66667,-5.22396 4.78125,-5.54688 C4.89583,-5.86979 4.95313,-6.21354 4.95313,-6.57813 C4.95313,-6.96354 4.88281,-7.33073 4.74219,-7.67969 C4.60156,-8.02865 4.39063,-8.30729 4.10938,-8.51563 C3.82813,-8.72396 3.48958,-8.82813 3.09375,-8.82813 C2.6875,-8.82813 2.32292,-8.70573 2,-8.46094 C1.67708,-8.21615 1.44792,-7.90104 1.3125,-7.51563 C1.35417,-7.52604 1.40625,-7.53125 1.46875,-7.53125 C1.67708,-7.53125 1.85677,-7.46094 2.00781,-7.32031 C2.15885,-7.17969 2.23438,-7 2.23438,-6.78125 C2.23438,-6.5625 2.15885,-6.38021 2.00781,-6.23438 C1.85677,-6.08854 1.67708,-6.01563 1.46875,-6.01563 C1.25,-6.01563 1.06771,-6.09115 0.921875,-6.24219 C0.776042,-6.39323 0.703125,-6.57292 0.703125,-6.78125 C0.703125,-7.125 0.768229,-7.45052 0.898438,-7.75781 C1.02865,-8.0651 1.21875,-8.33854 1.46875,-8.57813 C1.71875,-8.81771 2,-9.0026 2.3125,-9.13281 C2.625,-9.26302 2.95313,-9.32813 3.29688,-9.32813 C3.83854,-9.32813 4.33854,-9.21354 4.79688,-8.98438 C5.25521,-8.75521 5.61979,-8.4349 5.89063,-8.02344 C6.16146,-7.61198 6.29688,-7.13021 6.29688,-6.57813 C6.29688,-6.17188 6.20573,-5.78646 6.02344,-5.42188 C5.84115,-5.05729 5.61198,-4.72656 5.33594,-4.42969 C5.0599,-4.13281 4.70573,-3.79427 4.27344,-3.41406 C3.84115,-3.03385 3.55729,-2.78125 3.42188,-2.65625 L1.82813,-1.14063 L3.17188,-1.14063 C3.83854,-1.14063 4.39323,-1.14583 4.83594,-1.15625 C5.27865,-1.16667 5.51563,-1.18229 5.54688,-1.20313 C5.65104,-1.31771 5.76042,-1.75 5.875,-2.5 L6.29688,-2.5 L5.89063,0 L0.703125,0"/>
</g>

<g fill="#212121" fill-opacity="1" stroke="none" transform="matrix(0.75,0,0,0.75,18.25,31.3125)"
font-family="MS Shell Dlg 2" font-size="8.25" font-weight="400" font-style="normal" 
>
<path vector-effect="none" fill-rule="evenodd" d="M1.29688,0 L1.29688,-0.5 C2.46354,-0.5 3.04688,-0.645833 3.04688,-0.9375 L3.04688,-8.28125 C2.56771,-8.05208 1.95833,-7.9375 1.21875,-7.9375 L1.21875,-8.42188 C2.36458,-8.42188 3.22917,-8.72396 3.8125,-9.32813 L4,-9.32813 C4.03125,-9.32813 4.0625,-9.3151 4.09375,-9.28906 C4.125,-9.26302 4.14063,-9.23438 4.14063,-9.20313 L4.14063,-0.9375 C4.14063,-0.645833 4.72396,-0.5 5.89063,-0.5 L5.89063,0 L1.29688,0"/>
</g>

<g fill="#212121" fill-opacity="1" stroke="none" transform="matrix(0.75,0,0,0.75,23.75,31.3125)"
font-family="MS Shell Dlg 2" font-size="8.25" font-weight="400" font-style="normal" 
>
<path vector-effect="none" fill-rule="evenodd" d="M0.390625,-2.3125 L0.390625,-2.79688 L4.71875,-9.25 C4.75,-9.30208 4.79688,-9.32813 4.85938,-9.32813 L5.0625,-9.32813 C5.16667,-9.32813 5.21875,-9.27604 5.21875,-9.17188 L5.21875,-2.79688 L6.59375,-2.79688 L6.59375,-2.3125 L5.21875,-2.3125 L5.21875,-0.9375 C5.21875,-0.75 5.35677,-0.630208 5.63281,-0.578125 C5.90885,-0.526042 6.22396,-0.5 6.57813,-0.5 L6.57813,0 L2.73438,0 L2.73438,-0.5 C3.08854,-0.5 3.40365,-0.526042 3.67969,-0.578125 C3.95573,-0.630208 4.09375,-0.75 4.09375,-0.9375 L4.09375,-2.3125 L0.390625,-2.3125 M0.859375,-2.79688 L4.17188,-2.79688 L4.17188,-7.76563 L0.859375,-2.79688"/>
</g>

<g fill="#212121" fill-opacity="1" stroke="none" transform="matrix(0.75,0,0,0.75,18.25,8.25)"
font-family="MS Shell Dlg 2" font-size="8.25" font-weight="400" font-style="normal" 
>
<path vector-effect="none" fill-rule="evenodd" d="M1.29688,0 L1.29688,-0.5 C2.46354,-0.5 3.04688,-0.645833 3.04688,-0.9375 L3.04688,-8.28125 C2.56771,-8.05208 1.95833,-7.9375 1.21875,-7.9375 L1.21875,-8.42188 C2.36458,-8.42188 3.22917,-8.72396 3.8125,-9.32813 L4,-9.32813 C4.03125,-9.32813 4.0625,-9.3151 4.09375,-9.28906 C4.125,-9.26302 4.14063,-9.23438 4.14063,-9.20313 L4.14063,-0.9375 C4.14063,-0.645833 4.72396,-0.5 5.89063,-0.5 L5.89063,0 L1.29688,0"/>
</g>

<g fill="#212121" fill-opacity="1" stroke="none" transform="matrix(0.75,0,0,0.75,23.75,8.25)"
font-family="MS Shell Dlg 2" font-size="8.25" font-weight="400" font-style="normal" 
>
<path vector-effect="none" fill-rule="evenodd" d="M3.5,0.3125 C2.91667,0.3125 2.43229,0.158854 2.04688,-0.148438 C1.66146,-0.455729 1.36198,-0.854167 1.14844,-1.34375 C0.934896,-1.83333 0.789063,-2.34896 0.710938,-2.89063 C0.632813,-3.43229 0.59375,-3.97917 0.59375,-4.53125 C0.59375,-5.27083 0.736979,-6.01042 1.02344,-6.75 C1.3099,-7.48958 1.73177,-8.10417 2.28906,-8.59375 C2.84635,-9.08333 3.50521,-9.32813 4.26563,-9.32813 C4.58854,-9.32813 4.88802,-9.26823 5.16406,-9.14844 C5.4401,-9.02865 5.65625,-8.85156 5.8125,-8.61719 C5.96875,-8.38281 6.04688,-8.09896 6.04688,-7.76563 C6.04688,-7.56771 5.98177,-7.40365 5.85156,-7.27344 C5.72135,-7.14323 5.5625,-7.07813 5.375,-7.07813 C5.1875,-7.07813 5.02865,-7.14583 4.89844,-7.28125 C4.76823,-7.41667 4.70313,-7.57813 4.70313,-7.76563 C4.70313,-7.94271 4.76823,-8.09635 4.89844,-8.22656 C5.02865,-8.35677 5.1875,-8.42188 5.375,-8.42188 L5.45313,-8.42188 C5.32813,-8.59896 5.15885,-8.72656 4.94531,-8.80469 C4.73177,-8.88281 4.50521,-8.92188 4.26563,-8.92188 C3.98438,-8.92188 3.72396,-8.85938 3.48438,-8.73438 C3.24479,-8.60938 3.03125,-8.44271 2.84375,-8.23438 C2.65625,-8.02604 2.4974,-7.79427 2.36719,-7.53906 C2.23698,-7.28385 2.13802,-6.99479 2.07031,-6.67188 C2.0026,-6.34896 1.95833,-6.04688 1.9375,-5.76563 C1.91667,-5.48438 1.90625,-5.13021 1.90625,-4.70313 C2.07292,-5.08854 2.30729,-5.40365 2.60938,-5.64844 C2.91146,-5.89323 3.25,-6.01563 3.625,-6.01563 C4.04167,-6.01563 4.41927,-5.92969 4.75781,-5.75781 C5.09635,-5.58594 5.39063,-5.35156 5.64063,-5.05469 C5.89063,-4.75781 6.08073,-4.41667 6.21094,-4.03125 C6.34115,-3.64583 6.40625,-3.26042 6.40625,-2.875 C6.40625,-2.32292 6.28385,-1.79948 6.03906,-1.30469 C5.79427,-0.809896 5.45052,-0.416667 5.00781,-0.125 C4.5651,0.166667 4.0625,0.3125 3.5,0.3125 M3.5,-0.140625 C3.86458,-0.140625 4.15625,-0.223958 4.375,-0.390625 C4.59375,-0.557292 4.7526,-0.776042 4.85156,-1.04688 C4.95052,-1.31771 5.01302,-1.58854 5.03906,-1.85938 C5.0651,-2.13021 5.07813,-2.46875 5.07813,-2.875 C5.07813,-3.39583 5.05208,-3.84375 5,-4.21875 C4.94792,-4.59375 4.8125,-4.92448 4.59375,-5.21094 C4.375,-5.4974 4.03125,-5.64063 3.5625,-5.64063 C3.1875,-5.64063 2.8776,-5.51302 2.63281,-5.25781 C2.38802,-5.0026 2.21094,-4.67969 2.10156,-4.28906 C1.99219,-3.89844 1.9375,-3.52604 1.9375,-3.17188 C1.9375,-3.04688 1.94271,-2.95313 1.95313,-2.89063 C1.95313,-2.86979 1.95052,-2.85677 1.94531,-2.85156 C1.9401,-2.84635 1.9375,-2.83333 1.9375,-2.8125 C1.9375,-2.41667 1.97917,-2.01302 2.0625,-1.60156 C2.14583,-1.1901 2.30208,-0.84375 2.53125,-0.5625 C2.76042,-0.28125 3.08333,-0.140625 3.5,-0.140625 "/>
</g>

<g fill="#ffffff" fill-opacity="1" stroke="none" transform="matrix(7.5e-05,0,0,7.5e-05,-25.05,-11.64)"
font-family="MS Shell Dlg 2" font-size="8.25" font-weight="400" font-style="normal" 
>
<path vector-effect="none" fill-rule="evenodd" d="M5.52e+06,230000 L5.52e+06,610000 L7e+06,610000 L7e+06,230000 L5.52e+06,230000"/>
</g>

<g fill="#000000" fill-opacity="1" stroke="none" transform="matrix(7.5e-05,0,0,7.5e-05,-25.05,-11.64)"
font-family="MS Shell Dlg 2" font-size="8.25" font-weight="400" font-style="normal" 
>
<path vector-effect="none" fill-rule="evenodd" d="M5.56e+06,269480 L5.56e+06,387922 L5.96e+06,387922 L5.96e+06,269480 L5.56e+06,269480"/>
</g>

<g fill="none" stroke="#212121" stroke-opacity="1" stroke-width="0.666667" stroke-linecap="butt" stroke-linejoin="miter" stroke-miterlimit="2" transform="matrix(0.75,0,0,0.75,-25.05,-11.64)"
font-family="MS Shell Dlg 2" font-size="8.25" font-weight="400" font-style="normal" 
>
<path vector-effect="none" fill-rule="evenodd" d="M556,38.7922 L556,26.9481 L596,26.9481 L596,38.7922 L556,38.7922"/>
</g>

<g fill="#808080" fill-opacity="1" stroke="none" transform="matrix(7.5e-05,0,0,7.5e-05,-25.05,-11.64)"
font-family="MS Shell Dlg 2" font-size="8.25" font-weight="400" font-style="normal" 
>
<path vector-effect="none" fill-rule="evenodd" d="M5.56e+06,442207 L5.56e+06,560649 L5.96e+06,560649 L5.96e+06,442207 L5.56e+06,442207"/>
</g>

<g fill="none" stroke="#212121" stroke-opacity="1" stroke-width="0.666667" stroke-linecap="butt" stroke-linejoin="miter" stroke-miterlimit="2" transform="matrix(0.75,0,0,0.75,-25.05,-11.64)"
font-family="MS Shell Dlg 2" font-size="8.25" font-weight="400" font-style="normal" 
>
<path vector-effect="none" fill-rule="evenodd" d="M556,56.0649 L556,44.2208 L596,44.2208 L596,56.0649 L556,56.0649"/>
</g>

<g fill="#212121" fill-opacity="1" stroke="none" transform="matrix(0.75,0,0,0.75,424.2,28.6071)"
font-family="MS Shell Dlg 2" font-size="8.25" font-weight="400" font-style="normal" 
>
<path vector-effect="none" fill-rule="evenodd" d="M0.4375,0 L0.4375,-0.5 C1.39583,-0.5 1.875,-0.645833 1.875,-0.9375 L1.875,-8.625 C1.875,-8.92708 1.39583,-9.07813 0.4375,-9.07813 L0.4375,-9.5625 L8.34375,-9.5625 L8.73438,-6.35938 L8.32813,-6.35938 C8.23438,-7.16146 8.09635,-7.74479 7.91406,-8.10938 C7.73177,-8.47396 7.44271,-8.72656 7.04688,-8.86719 C6.65104,-9.00781 6.05729,-9.07813 5.26563,-9.07813 L3.89063,-9.07813 C3.72396,-9.07813 3.59375,-9.07031 3.5,-9.05469 C3.40625,-9.03906 3.32813,-8.9974 3.26563,-8.92969 C3.20313,-8.86198 3.17188,-8.76042 3.17188,-8.625 L3.17188,-5.20313 L4.21875,-5.20313 C4.6875,-5.20313 5.03906,-5.24479 5.27344,-5.32813 C5.50781,-5.41146 5.66927,-5.5651 5.75781,-5.78906 C5.84635,-6.01302 5.89063,-6.36458 5.89063,-6.84375 L6.29688,-6.84375 L6.29688,-3.07813 L5.89063,-3.07813 C5.89063,-3.55729 5.84635,-3.91146 5.75781,-4.14063 C5.66927,-4.36979 5.50781,-4.52344 5.27344,-4.60156 C5.03906,-4.67969 4.6875,-4.71875 4.21875,-4.71875 L3.17188,-4.71875 L3.17188,-0.9375 C3.17188,-0.739583 3.22917,-0.617188 3.34375,-0.570313 C3.45833,-0.523438 3.64063,-0.5 3.89063,-0.5 L5.375,-0.5 C6.02083,-0.5 6.54427,-0.549479 6.94531,-0.648438 C7.34635,-0.747396 7.65625,-0.916667 7.875,-1.15625 C8.09375,-1.39583 8.26302,-1.70573 8.38281,-2.08594 C8.5026,-2.46615 8.61458,-2.99479 8.71875,-3.67188 L9.125,-3.67188 L8.53125,0 L0.4375,0"/>
</g>

<g fill="#212121" fill-opacity="1" stroke="none" transform="matrix(0.75,0,0,0.75,431.686,28.6071)"
font-family="MS Shell Dlg 2" font-size="8.25" font-weight="400" font-style="normal" 
>
<path vector-effect="none" fill-rule="evenodd" d="M0.421875,0 L0.421875,-0.5 C0.734375,-0.5 0.994792,-0.523438 1.20313,-0.570313 C1.41146,-0.617188 1.51563,-0.739583 1.51563,-0.9375 L1.51563,-4.76563 C1.51563,-5.01563 1.47656,-5.19531 1.39844,-5.30469 C1.32031,-5.41406 1.21094,-5.48177 1.07031,-5.50781 C0.929688,-5.53385 0.713542,-5.54688 0.421875,-5.54688 L0.421875,-6.03125 L2.45313,-6.1875 L2.45313,-4.8125 C2.64063,-5.21875 2.91667,-5.54948 3.28125,-5.80469 C3.64583,-6.0599 4.04688,-6.1875 4.48438,-6.1875 C5.55729,-6.1875 6.1875,-5.75 6.375,-4.875 C6.5625,-5.27083 6.83594,-5.58854 7.19531,-5.82813 C7.55469,-6.06771 7.94792,-6.1875 8.375,-6.1875 C8.80208,-6.1875 9.15885,-6.11979 9.44531,-5.98438 C9.73177,-5.84896 9.94792,-5.64063 10.0938,-5.35938 C10.2396,-5.07813 10.3125,-4.72396 10.3125,-4.29688 L10.3125,-0.9375 C10.3125,-0.739583 10.4167,-0.617188 10.625,-0.570313 C10.8333,-0.523438 11.0938,-0.5 11.4063,-0.5 L11.4063,0 L8.20313,0 L8.20313,-0.5 C8.52604,-0.5 8.78906,-0.523438 8.99219,-0.570313 C9.19531,-0.617188 9.29688,-0.739583 9.29688,-0.9375 L9.29688,-4.26563 C9.29688,-4.73438 9.23177,-5.11198 9.10156,-5.39844 C8.97135,-5.6849 8.69792,-5.82813 8.28125,-5.82813 C7.75,-5.82813 7.30729,-5.61198 6.95313,-5.17969 C6.59896,-4.7474 6.42188,-4.25521 6.42188,-3.70313 L6.42188,-0.9375 C6.42188,-0.739583 6.52604,-0.617188 6.73438,-0.570313 C6.94271,-0.523438 7.20313,-0.5 7.51563,-0.5 L7.51563,0 L4.3125,0 L4.3125,-0.5 C4.63542,-0.5 4.89844,-0.523438 5.10156,-0.570313 C5.30469,-0.617188 5.40625,-0.739583 5.40625,-0.9375 L5.40625,-4.26563 C5.40625,-4.71354 5.34115,-5.08594 5.21094,-5.38281 C5.08073,-5.67969 4.80729,-5.82813 4.39063,-5.82813 C3.84896,-5.82813 3.40365,-5.61198 3.05469,-5.17969 C2.70573,-4.7474 2.53125,-4.25521 2.53125,-3.70313 L2.53125,-0.9375 C2.53125,-0.739583 2.63542,-0.617188 2.84375,-0.570313 C3.05208,-0.523438 3.3125,-0.5 3.625,-0.5 L3.625,0 L0.421875,0"/>
</g>

<g fill="#212121" fill-opacity="1" stroke="none" transform="matrix(0.75,0,0,0.75,440.853,28.6071)"
font-family="MS Shell Dlg 2" font-size="8.25" font-weight="400" font-style="normal" 
>
<path vector-effect="none" fill-rule="evenodd" d="M0.453125,0 L0.453125,-0.5 C1.28646,-0.5 1.79688,-0.770833 1.98438,-1.3125 L4.92188,-9.875 C4.95313,-9.96875 5.03125,-10.0156 5.15625,-10.0156 L5.32813,-10.0156 C5.45313,-10.0156 5.53125,-9.96875 5.5625,-9.875 L8.625,-0.9375 C8.70833,-0.739583 8.8724,-0.617188 9.11719,-0.570313 C9.36198,-0.523438 9.66667,-0.5 10.0313,-0.5 L10.0313,0 L6.125,0 L6.125,-0.5 C6.90625,-0.5 7.29688,-0.625 7.29688,-0.875 L7.29688,-0.9375 L6.53125,-3.125 L3.14063,-3.125 L2.51563,-1.3125 C2.50521,-1.28125 2.5,-1.23438 2.5,-1.17188 C2.5,-0.942708 2.60938,-0.773438 2.82813,-0.664063 C3.04688,-0.554688 3.28646,-0.5 3.54688,-0.5 L3.54688,0 L0.453125,0 M3.29688,-3.60938 L6.375,-3.60938 L4.82813,-8.07813 L3.29688,-3.60938"/>
</g>

<g fill="#212121" fill-opacity="1" stroke="none" transform="matrix(0.75,0,0,0.75,449.103,28.6071)"
font-family="MS Shell Dlg 2" font-size="8.25" font-weight="400" font-style="normal" 
>
<path vector-effect="none" fill-rule="evenodd" d="M0.4375,0 L0.4375,-0.5 C1.39583,-0.5 1.875,-0.645833 1.875,-0.9375 L1.875,-8.625 C1.875,-8.92708 1.39583,-9.07813 0.4375,-9.07813 L0.4375,-9.5625 L4.96875,-9.5625 L4.96875,-9.07813 C3.77083,-9.07813 3.17188,-8.92708 3.17188,-8.625 L3.17188,-0.9375 C3.17188,-0.739583 3.22917,-0.617188 3.34375,-0.570313 C3.45833,-0.523438 3.64063,-0.5 3.89063,-0.5 L4.96875,-0.5 C5.66667,-0.5 6.20573,-0.627604 6.58594,-0.882813 C6.96615,-1.13802 7.23438,-1.48438 7.39063,-1.92188 C7.54688,-2.35938 7.66667,-2.94271 7.75,-3.67188 L8.15625,-3.67188 L7.76563,0 L0.4375,0"/>
</g>

<g fill="#212121" fill-opacity="1" stroke="none" transform="matrix(0.75,0,0,0.75,455.061,28.6071)"
font-family="MS Shell Dlg 2" font-size="8.25" font-weight="400" font-style="normal" 
>
<path vector-effect="none" fill-rule="evenodd" d="M2.35938,0 L2.35938,-0.5 C2.82813,-0.5 3.28385,-0.526042 3.72656,-0.578125 C4.16927,-0.630208 4.39063,-0.75 4.39063,-0.9375 L4.39063,-8.625 C4.39063,-8.82292 4.33594,-8.94792 4.22656,-9 C4.11719,-9.05208 3.9375,-9.07813 3.6875,-9.07813 L3.09375,-9.07813 C2.32292,-9.07813 1.77604,-8.90625 1.45313,-8.5625 C1.28646,-8.39583 1.16667,-8.1276 1.09375,-7.75781 C1.02083,-7.38802 0.958333,-6.92188 0.90625,-6.35938 L0.5,-6.35938 L0.765625,-9.5625 L9.32813,-9.5625 L9.59375,-6.35938 L9.1875,-6.35938 C9.125,-6.96354 9.0625,-7.4401 9,-7.78906 C8.9375,-8.13802 8.81771,-8.39583 8.64063,-8.5625 C8.31771,-8.90625 7.77083,-9.07813 7,-9.07813 L6.40625,-9.07813 C6.23958,-9.07813 6.10938,-9.07031 6.01563,-9.05469 C5.92188,-9.03906 5.84635,-8.9974 5.78906,-8.92969 C5.73177,-8.86198 5.70313,-8.76042 5.70313,-8.625 L5.70313,-0.9375 C5.70313,-0.75 5.92448,-0.630208 6.36719,-0.578125 C6.8099,-0.526042 7.26042,-0.5 7.71875,-0.5 L7.71875,0 L2.35938,0"/>
</g>

<g fill="none" stroke="#212121" stroke-opacity="1" stroke-width="1.06667" stroke-linecap="butt" stroke-linejoin="miter" stroke-miterlimit="2" transform="matrix(0.75,0,0,0.75,-25.05,-11.64)"
font-family="MS Shell Dlg 2" font-size="8.25" font-weight="400" font-style="normal" 
>
<path vector-effect="none" fill-rule="evenodd" d="M552,61 L552,23 L700,23 L700,61 L552,61"/>
</g>
</g>
</svg>
