<?xml version="1.0" encoding="UTF-8" standalone="no"?>
<svg width="182.386mm" height="68.0861mm"
 viewBox="0 0 517 193"
 xmlns="http://www.w3.org/2000/svg" xmlns:xlink="http://www.w3.org/1999/xlink"  version="1.2" baseProfile="tiny">
<title>Qt SVG Document</title>
<desc>MATLAB, The MathWorks, Inc. Version 25.2.0.3055257 R2025b Update 2</desc>
<defs>
</defs>
<g fill="none" stroke="black" stroke-width="1" fill-rule="evenodd" stroke-linecap="square" stroke-linejoin="bevel" >

<g fill="#ffffff" fill-opacity="1" stroke="none" transform="matrix(0.75,0,0,0.75,-17.55,-11.64)"
font-family="MS Shell Dlg 2" font-size="8.25" font-weight="400" font-style="normal" 
>
<path vector-effect="none" fill-rule="evenodd" d="M22,14 L713,14 L713,272 L22,272 L22,14"/>
</g>

<g fill="#ffffff" fill-opacity="1" stroke="none" transform="matrix(7.5e-05,0,0,7.5e-05,-17.55,-11.64)"
font-family="MS Shell Dlg 2" font-size="8.25" font-weight="400" font-style="normal" 
>
<path vector-effect="none" fill-rule="evenodd" d="M700000,230000 L700000,2.69e+06 L4.88e+06,2.69e+06 L4.88e+06,230000 L700000,230000"/>
</g>

<g fill="#212121" fill-opacity="0.25098" stroke="#212121" stroke-opacity="0.25098" stroke-dasharray="1,3" stroke-dashoffset="0" stroke-width="1.06667" stroke-linecap="butt" stroke-linejoin="round" transform="matrix(0.75,0,0,0.75,-17.55,-11.64)"
font-family="MS Shell Dlg 2" font-size="8.25" font-weight="400" font-style="normal" 
>
<polyline fill="none" vector-effect="none" points="99.2866,23 99.2866,269 " />
<polyline fill="none" vector-effect="none" points="159.191,23 159.191,269 " />
<polyline fill="none" vector-effect="none" points="219.096,23 219.096,269 " />
<polyline fill="none" vector-effect="none" points="279,23 279,269 " />
<polyline fill="none" vector-effect="none" points="338.904,23 338.904,269 " />
<polyline fill="none" vector-effect="none" points="398.809,23 398.809,269 " />
<polyline fill="none" vector-effect="none" points="458.713,23 458.713,269 " />
<polyline fill="none" vector-effect="none" points="70,260.194 488,260.194 " />
<polyline fill="none" vector-effect="none" points="70,181.13 488,181.13 " />
<polyline fill="none" vector-effect="none" points="70,102.065 488,102.065 " />
<polyline fill="none" vector-effect="none" points="70,23 488,23 " />
</g>

<g fill="#212121" fill-opacity="1" stroke="#212121" stroke-opacity="1" stroke-width="0.666667" stroke-linecap="butt" stroke-linejoin="round" transform="matrix(0.75,0,0,0.75,-17.55,-11.64)"
font-family="MS Shell Dlg 2" font-size="8.25" font-weight="400" font-style="normal" 
>
<polyline fill="none" vector-effect="none" points="70,260.194 488,260.194 " />
</g>

<g fill="#000000" fill-opacity="1" stroke="none" transform="matrix(7.5e-05,0,0,7.5e-05,-17.55,-11.64)"
font-family="MS Shell Dlg 2" font-size="8.25" font-weight="400" font-style="normal" 
>
<path vector-effect="none" fill-rule="evenodd" d="M806496,2.33582e+06 L806496,2.60194e+06 L912993,2.60194e+06 L912993,2.33582e+06 L806496,2.33582e+06"/>
</g>

<g fill="#000000" fill-opacity="1" stroke="none" transform="matrix(7.5e-05,0,0,7.5e-05,-17.55,-11.64)"
font-family="MS Shell Dlg 2" font-size="8.25" font-weight="400" font-style="normal" 
>
<path vector-effect="none" fill-rule="evenodd" d="M1.40554e+06,913060 L1.40554e+06,2.60194e+06 L1.51204e+06,2.60194e+06 L1.51204e+06,913060 L1.40554e+06,913060"/>
</g>

<g fill="#000000" fill-opacity="1" stroke="none" transform="matrix(7.5e-05,0,0,7.5e-05,-17.55,-11.64)"
font-family="MS Shell Dlg 2" font-size="8.25" font-weight="400" font-style="normal" 
>
<path vector-effect="none" fill-rule="evenodd" d="M2.00459e+06,2.36297e+06 L2.00459e+06,2.60194e+06 L2.11108e+06,2.60194e+06 L2.11108e+06,2.36297e+06 L2.00459e+06,2.36297e+06"/>
</g>

<g fill="#000000" fill-opacity="1" stroke="none" transform="matrix(7.5e-05,0,0,7.5e-05,-17.55,-11.64)"
font-family="MS Shell Dlg 2" font-size="8.25" font-weight="400" font-style="normal" 
>
<path vector-effect="none" fill-rule="evenodd" d="M2.60363e+06,2.36357e+06 L2.60363e+06,2.60194e+06 L2.71013e+06,2.60194e+06 L2.71013e+06,2.36357e+06 L2.60363e+06,2.36357e+06"/>
</g>

<g fill="#000000" fill-opacity="1" stroke="none" transform="matrix(7.5e-05,0,0,7.5e-05,-17.55,-11.64)"
font-family="MS Shell Dlg 2" font-size="8.25" font-weight="400" font-style="normal" 
>
<path vector-effect="none" fill-rule="evenodd" d="M3.20268e+06,2.36353e+06 L3.20268e+06,2.60194e+06 L3.30917e+06,2.60194e+06 L3.30917e+06,2.36353e+06 L3.20268e+06,2.36353e+06"/>
</g>

<g fill="#000000" fill-opacity="1" stroke="none" transform="matrix(7.5e-05,0,0,7.5e-05,-17.55,-11.64)"
font-family="MS Shell Dlg 2" font-size="8.25" font-weight="400" font-style="normal" 
>
<path vector-effect="none" fill-rule="evenodd" d="M3.80172e+06,2.43515e+06 L3.80172e+06,2.60194e+06 L3.90822e+06,2.60194e+06 L3.90822e+06,2.43515e+06 L3.80172e+06,2.43515e+06"/>
</g>

<g fill="#000000" fill-opacity="1" stroke="none" transform="matrix(7.5e-05,0,0,7.5e-05,-17.55,-11.64)"
font-family="MS Shell Dlg 2" font-size="8.25" font-weight="400" font-style="normal" 
>
<path vector-effect="none" fill-rule="evenodd" d="M4.40076e+06,2.44015e+06 L4.40076e+06,2.60194e+06 L4.50726e+06,2.60194e+06 L4.50726e+06,2.44015e+06 L4.40076e+06,2.44015e+06"/>
</g>

<g fill="none" stroke="#212121" stroke-opacity="1" stroke-width="0.666667" stroke-linecap="butt" stroke-linejoin="miter" stroke-miterlimit="2" transform="matrix(0.75,0,0,0.75,-17.55,-11.64)"
font-family="MS Shell Dlg 2" font-size="8.25" font-weight="400" font-style="normal" 
>
<path vector-effect="none" fill-rule="evenodd" d="M80.6497,260.194 L80.6497,233.582 L91.2994,233.582 L91.2994,260.194 L80.6497,260.194"/>
<path vector-effect="none" fill-rule="evenodd" d="M140.554,260.194 L140.554,91.3061 L151.204,91.3061 L151.204,260.194 L140.554,260.194"/>
<path vector-effect="none" fill-rule="evenodd" d="M200.459,260.194 L200.459,236.297 L211.108,236.297 L211.108,260.194 L200.459,260.194"/>
<path vector-effect="none" fill-rule="evenodd" d="M260.363,260.194 L260.363,236.357 L271.013,236.357 L271.013,260.194 L260.363,260.194"/>
<path vector-effect="none" fill-rule="evenodd" d="M320.268,260.194 L320.268,236.353 L330.917,236.353 L330.917,260.194 L320.268,260.194"/>
<path vector-effect="none" fill-rule="evenodd" d="M380.172,260.194 L380.172,243.515 L390.822,243.515 L390.822,260.194 L380.172,260.194"/>
<path vector-effect="none" fill-rule="evenodd" d="M440.076,260.194 L440.076,244.015 L450.726,244.015 L450.726,260.194 L440.076,260.194"/>
</g>

<g fill="#999999" fill-opacity="1" stroke="none" transform="matrix(7.5e-05,0,0,7.5e-05,-17.55,-11.64)"
font-family="MS Shell Dlg 2" font-size="8.25" font-weight="400" font-style="normal" 
>
<path vector-effect="none" fill-rule="evenodd" d="M939617,2.3857e+06 L939617,2.60194e+06 L1.04611e+06,2.60194e+06 L1.04611e+06,2.3857e+06 L939617,2.3857e+06"/>
</g>

<g fill="#999999" fill-opacity="1" stroke="none" transform="matrix(7.5e-05,0,0,7.5e-05,-17.55,-11.64)"
font-family="MS Shell Dlg 2" font-size="8.25" font-weight="400" font-style="normal" 
>
<path vector-effect="none" fill-rule="evenodd" d="M1.53866e+06,766542 L1.53866e+06,2.60194e+06 L1.64516e+06,2.60194e+06 L1.64516e+06,766542 L1.53866e+06,766542"/>
</g>

<g fill="#999999" fill-opacity="1" stroke="none" transform="matrix(7.5e-05,0,0,7.5e-05,-17.55,-11.64)"
font-family="MS Shell Dlg 2" font-size="8.25" font-weight="400" font-style="normal" 
>
<path vector-effect="none" fill-rule="evenodd" d="M2.13771e+06,2.36833e+06 L2.13771e+06,2.60194e+06 L2.2442e+06,2.60194e+06 L2.2442e+06,2.36833e+06 L2.13771e+06,2.36833e+06"/>
</g>

<g fill="#999999" fill-opacity="1" stroke="none" transform="matrix(7.5e-05,0,0,7.5e-05,-17.55,-11.64)"
font-family="MS Shell Dlg 2" font-size="8.25" font-weight="400" font-style="normal" 
>
<path vector-effect="none" fill-rule="evenodd" d="M2.73675e+06,2.36894e+06 L2.73675e+06,2.60194e+06 L2.84325e+06,2.60194e+06 L2.84325e+06,2.36894e+06 L2.73675e+06,2.36894e+06"/>
</g>

<g fill="#999999" fill-opacity="1" stroke="none" transform="matrix(7.5e-05,0,0,7.5e-05,-17.55,-11.64)"
font-family="MS Shell Dlg 2" font-size="8.25" font-weight="400" font-style="normal" 
>
<path vector-effect="none" fill-rule="evenodd" d="M3.3358e+06,2.35779e+06 L3.3358e+06,2.60194e+06 L3.44229e+06,2.60194e+06 L3.44229e+06,2.35779e+06 L3.3358e+06,2.35779e+06"/>
</g>

<g fill="#999999" fill-opacity="1" stroke="none" transform="matrix(7.5e-05,0,0,7.5e-05,-17.55,-11.64)"
font-family="MS Shell Dlg 2" font-size="8.25" font-weight="400" font-style="normal" 
>
<path vector-effect="none" fill-rule="evenodd" d="M3.93484e+06,2.51716e+06 L3.93484e+06,2.60194e+06 L4.04134e+06,2.60194e+06 L4.04134e+06,2.51716e+06 L3.93484e+06,2.51716e+06"/>
</g>

<g fill="#999999" fill-opacity="1" stroke="none" transform="matrix(7.5e-05,0,0,7.5e-05,-17.55,-11.64)"
font-family="MS Shell Dlg 2" font-size="8.25" font-weight="400" font-style="normal" 
>
<path vector-effect="none" fill-rule="evenodd" d="M4.53389e+06,2.53015e+06 L4.53389e+06,2.60194e+06 L4.64038e+06,2.60194e+06 L4.64038e+06,2.53015e+06 L4.53389e+06,2.53015e+06"/>
</g>

<g fill="none" stroke="#212121" stroke-opacity="1" stroke-width="0.666667" stroke-linecap="butt" stroke-linejoin="miter" stroke-miterlimit="2" transform="matrix(0.75,0,0,0.75,-17.55,-11.64)"
font-family="MS Shell Dlg 2" font-size="8.25" font-weight="400" font-style="normal" 
>
<path vector-effect="none" fill-rule="evenodd" d="M93.9618,260.194 L93.9618,238.57 L104.611,238.57 L104.611,260.194 L93.9618,260.194"/>
<path vector-effect="none" fill-rule="evenodd" d="M153.866,260.194 L153.866,76.6542 L164.516,76.6542 L164.516,260.194 L153.866,260.194"/>
<path vector-effect="none" fill-rule="evenodd" d="M213.771,260.194 L213.771,236.833 L224.42,236.833 L224.42,260.194 L213.771,260.194"/>
<path vector-effect="none" fill-rule="evenodd" d="M273.675,260.194 L273.675,236.894 L284.325,236.894 L284.325,260.194 L273.675,260.194"/>
<path vector-effect="none" fill-rule="evenodd" d="M333.58,260.194 L333.58,235.779 L344.229,235.779 L344.229,260.194 L333.58,260.194"/>
<path vector-effect="none" fill-rule="evenodd" d="M393.484,260.194 L393.484,251.716 L404.134,251.716 L404.134,260.194 L393.484,260.194"/>
<path vector-effect="none" fill-rule="evenodd" d="M453.389,260.194 L453.389,253.015 L464.038,253.015 L464.038,260.194 L453.389,260.194"/>
</g>

<g fill="#4d4d4d" fill-opacity="1" stroke="none" transform="matrix(7.5e-05,0,0,7.5e-05,-17.55,-11.64)"
font-family="MS Shell Dlg 2" font-size="8.25" font-weight="400" font-style="normal" 
>
<path vector-effect="none" fill-rule="evenodd" d="M1.07274e+06,2.43956e+06 L1.07274e+06,2.60194e+06 L1.17924e+06,2.60194e+06 L1.17924e+06,2.43956e+06 L1.07274e+06,2.43956e+06"/>
</g>

<g fill="#4d4d4d" fill-opacity="1" stroke="none" transform="matrix(7.5e-05,0,0,7.5e-05,-17.55,-11.64)"
font-family="MS Shell Dlg 2" font-size="8.25" font-weight="400" font-style="normal" 
>
<path vector-effect="none" fill-rule="evenodd" d="M1.67178e+06,489332 L1.67178e+06,2.60194e+06 L1.77828e+06,2.60194e+06 L1.77828e+06,489332 L1.67178e+06,489332"/>
</g>

<g fill="#4d4d4d" fill-opacity="1" stroke="none" transform="matrix(7.5e-05,0,0,7.5e-05,-17.55,-11.64)"
font-family="MS Shell Dlg 2" font-size="8.25" font-weight="400" font-style="normal" 
>
<path vector-effect="none" fill-rule="evenodd" d="M2.27083e+06,2.40842e+06 L2.27083e+06,2.60194e+06 L2.37732e+06,2.60194e+06 L2.37732e+06,2.40842e+06 L2.27083e+06,2.40842e+06"/>
</g>

<g fill="#4d4d4d" fill-opacity="1" stroke="none" transform="matrix(7.5e-05,0,0,7.5e-05,-17.55,-11.64)"
font-family="MS Shell Dlg 2" font-size="8.25" font-weight="400" font-style="normal" 
>
<path vector-effect="none" fill-rule="evenodd" d="M2.86987e+06,2.398e+06 L2.86987e+06,2.60194e+06 L2.97637e+06,2.60194e+06 L2.97637e+06,2.398e+06 L2.86987e+06,2.398e+06"/>
</g>

<g fill="#4d4d4d" fill-opacity="1" stroke="none" transform="matrix(7.5e-05,0,0,7.5e-05,-17.55,-11.64)"
font-family="MS Shell Dlg 2" font-size="8.25" font-weight="400" font-style="normal" 
>
<path vector-effect="none" fill-rule="evenodd" d="M3.46892e+06,2.16753e+06 L3.46892e+06,2.60194e+06 L3.57541e+06,2.60194e+06 L3.57541e+06,2.16753e+06 L3.46892e+06,2.16753e+06"/>
</g>

<g fill="#4d4d4d" fill-opacity="1" stroke="none" transform="matrix(7.5e-05,0,0,7.5e-05,-17.55,-11.64)"
font-family="MS Shell Dlg 2" font-size="8.25" font-weight="400" font-style="normal" 
>
<path vector-effect="none" fill-rule="evenodd" d="M4.06796e+06,2.60194e+06 L4.06796e+06,2.69e+06 L4.17446e+06,2.69e+06 L4.17446e+06,2.60194e+06 L4.06796e+06,2.60194e+06"/>
</g>

<g fill="#4d4d4d" fill-opacity="1" stroke="none" transform="matrix(7.5e-05,0,0,7.5e-05,-17.55,-11.64)"
font-family="MS Shell Dlg 2" font-size="8.25" font-weight="400" font-style="normal" 
>
<path vector-effect="none" fill-rule="evenodd" d="M4.66701e+06,2.50997e+06 L4.66701e+06,2.60194e+06 L4.7735e+06,2.60194e+06 L4.7735e+06,2.50997e+06 L4.66701e+06,2.50997e+06"/>
</g>

<g fill="none" stroke="#212121" stroke-opacity="1" stroke-width="0.666667" stroke-linecap="butt" stroke-linejoin="miter" stroke-miterlimit="2" transform="matrix(0.75,0,0,0.75,-17.55,-11.64)"
font-family="MS Shell Dlg 2" font-size="8.25" font-weight="400" font-style="normal" 
>
<path vector-effect="none" fill-rule="evenodd" d="M107.274,260.194 L107.274,243.956 L117.924,243.956 L117.924,260.194 L107.274,260.194"/>
<path vector-effect="none" fill-rule="evenodd" d="M167.178,260.194 L167.178,48.9332 L177.828,48.9332 L177.828,260.194 L167.178,260.194"/>
<path vector-effect="none" fill-rule="evenodd" d="M227.083,260.194 L227.083,240.842 L237.732,240.842 L237.732,260.194 L227.083,260.194"/>
<path vector-effect="none" fill-rule="evenodd" d="M286.987,260.194 L286.987,239.8 L297.637,239.8 L297.637,260.194 L286.987,260.194"/>
<path vector-effect="none" fill-rule="evenodd" d="M346.892,260.194 L346.892,216.753 L357.541,216.753 L357.541,260.194 L346.892,260.194"/>
<path vector-effect="none" fill-rule="evenodd" d="M406.796,260.194 L406.796,269 L417.446,269 L417.446,260.194 L406.796,260.194"/>
<path vector-effect="none" fill-rule="evenodd" d="M466.701,260.194 L466.701,250.997 L477.35,250.997 L477.35,260.194 L466.701,260.194"/>
</g>

<g fill="#000000" fill-opacity="1" stroke="#000000" stroke-opacity="1" stroke-width="2.66667" stroke-linecap="butt" stroke-linejoin="round" transform="matrix(0.75,0,0,0.75,-17.55,-11.64)"
font-family="MS Shell Dlg 2" font-size="8.25" font-weight="400" font-style="normal" 
>
<polyline fill="none" vector-effect="none" points="78.3201,238.056 120.253,238.056 " />
<polyline fill="none" vector-effect="none" points="138.225,102.065 180.158,102.065 " />
<polyline fill="none" vector-effect="none" points="198.129,236.475 240.062,236.475 " />
<polyline fill="none" vector-effect="none" points="258.033,236.475 299.967,236.475 " />
<polyline fill="none" vector-effect="none" points="317.938,236.475 359.871,236.475 " />
<polyline fill="none" vector-effect="none" points="377.842,236.475 419.775,236.475 " />
<polyline fill="none" vector-effect="none" points="437.747,236.475 479.68,236.475 " />
</g>

<g fill="#212121" fill-opacity="1" stroke="#212121" stroke-opacity="1" stroke-width="1.06667" stroke-linecap="square" stroke-linejoin="round" transform="matrix(0.75,0,0,0.75,-17.55,-11.64)"
font-family="MS Shell Dlg 2" font-size="8.25" font-weight="400" font-style="normal" 
>
<polyline fill="none" vector-effect="none" points="70,269 488,269 " />
<polyline fill="none" vector-effect="none" points="70,23 488,23 " />
<polyline fill="none" vector-effect="none" points="99.2866,269 99.2866,264.82 " />
<polyline fill="none" vector-effect="none" points="99.2866,27.18 99.2866,23 " />
<polyline fill="none" vector-effect="none" points="159.191,269 159.191,264.82 " />
<polyline fill="none" vector-effect="none" points="159.191,27.18 159.191,23 " />
<polyline fill="none" vector-effect="none" points="219.096,269 219.096,264.82 " />
<polyline fill="none" vector-effect="none" points="219.096,27.18 219.096,23 " />
<polyline fill="none" vector-effect="none" points="279,269 279,264.82 " />
<polyline fill="none" vector-effect="none" points="279,27.18 279,23 " />
<polyline fill="none" vector-effect="none" points="338.904,269 338.904,264.82 " />
<polyline fill="none" vector-effect="none" points="338.904,27.18 338.904,23 " />
<polyline fill="none" vector-effect="none" points="398.809,269 398.809,264.82 " />
<polyline fill="none" vector-effect="none" points="398.809,27.18 398.809,23 " />
<polyline fill="none" vector-effect="none" points="458.713,269 458.713,264.82 " />
<polyline fill="none" vector-effect="none" points="458.713,27.18 458.713,23 " />
</g>

<g fill="#212121" fill-opacity="1" stroke="none" transform="matrix(0,-0.75,0.75,0,10.5,154.485)"
font-family="MS Shell Dlg 2" font-size="8.25" font-weight="400" font-style="normal" 
>
<path vector-effect="none" fill-rule="evenodd" d="M0.34375,0.0625 L0.28125,0 L0.28125,-0.40625 L0.34375,-0.46875 C0.729167,-0.479167 0.976563,-0.5 1.08594,-0.53125 C1.19531,-0.5625 1.29167,-0.630208 1.375,-0.734375 C1.45833,-0.838542 1.63021,-1.17188 1.89063,-1.73438 L2.71875,-3.51563 L4.84375,-8.32813 C5.23958,-9.26563 5.63542,-10.2083 6.03125,-11.1563 L6.54688,-11.1563 L9.875,-3.3125 L10.3281,-2.26563 C10.4531,-1.96354 10.6016,-1.63802 10.7734,-1.28906 C10.9453,-0.940104 11.0625,-0.734375 11.125,-0.671875 C11.1875,-0.609375 11.2682,-0.5625 11.3672,-0.53125 C11.4661,-0.5 11.6823,-0.479167 12.0156,-0.46875 L12.0781,-0.40625 L12.0781,0 L12.0156,0.0625 C11.4635,0.0104167 10.9635,-0.015625 10.5156,-0.015625 C9.65104,0.015625 8.78646,0.0416667 7.92188,0.0625 L7.85938,0 L7.85938,-0.40625 L7.92188,-0.46875 C8.50521,-0.479167 8.86979,-0.505208 9.01563,-0.546875 C9.16146,-0.588542 9.23438,-0.677083 9.23438,-0.8125 C9.23438,-0.927083 9.19792,-1.07813 9.125,-1.26563 L8.17188,-3.65625 L3.64063,-3.65625 L2.79688,-1.65625 C2.64063,-1.29167 2.5625,-1.02604 2.5625,-0.859375 C2.5625,-0.734375 2.63281,-0.640625 2.77344,-0.578125 C2.91406,-0.515625 3.27083,-0.479167 3.84375,-0.46875 L3.90625,-0.40625 L3.90625,0 L3.84375,0.0625 C3.17708,0.0208333 2.58854,0 2.07813,0 C1.50521,0 0.927083,0.0208333 0.34375,0.0625 M3.90625,-4.32813 L7.85938,-4.32813 L5.90625,-9.03125 L3.90625,-4.32813 M11.8906,-10.5313 L11.8281,-10.5938 L11.8281,-10.9219 L11.8906,-11 C12.8906,-11.1146 13.7292,-11.3073 14.4063,-11.5781 L14.5625,-11.4844 C14.5,-10.8802 14.4688,-9.67708 14.4688,-7.875 L14.4688,-5.89063 C14.5729,-6.01563 14.7604,-6.21354 15.0313,-6.48438 C15.3021,-6.75521 15.5208,-6.94531 15.6875,-7.05469 C15.8542,-7.16406 16.0859,-7.26042 16.3828,-7.34375 C16.6797,-7.42708 16.9896,-7.46875 17.3125,-7.46875 C17.8958,-7.46875 18.4115,-7.32292 18.8594,-7.03125 C19.3073,-6.73958 19.638,-6.34896 19.8516,-5.85938 C20.0651,-5.36979 20.1719,-4.84896 20.1719,-4.29688 C20.1719,-3.77604 20.0833,-3.27865 19.9063,-2.80469 C19.7292,-2.33073 19.5156,-1.9375 19.2656,-1.625 C19.1198,-1.44792 18.8646,-1.22396 18.5,-0.953125 C17.7708,-0.432292 17.2604,-0.104167 16.9688,0.03125 C16.6771,0.166667 16.2969,0.234375 15.8281,0.234375 C15.4635,0.234375 15.1328,0.182292 14.8359,0.078125 C14.5391,-0.0260417 14.2292,-0.1875 13.9063,-0.40625 L13.2813,0.203125 L13.0156,0.09375 C13.1198,-0.854167 13.1719,-1.93229 13.1719,-3.14063 L13.1719,-7.28125 L13.1406,-8.78125 C13.1198,-9.35417 13.1016,-9.75781 13.0859,-9.99219 C13.0703,-10.2266 13.0469,-10.3646 13.0156,-10.4063 C12.9844,-10.4479 12.9297,-10.4792 12.8516,-10.5 C12.7734,-10.5208 12.4531,-10.5313 11.8906,-10.5313 M14.4688,-4.95313 L14.4688,-2.01563 C14.4688,-1.77604 14.4818,-1.61719 14.5078,-1.53906 C14.5339,-1.46094 14.638,-1.34635 14.8203,-1.19531 C15.0026,-1.04427 15.2396,-0.911458 15.5313,-0.796875 C15.8229,-0.682292 16.125,-0.625 16.4375,-0.625 C17.1771,-0.625 17.7578,-0.911458 18.1797,-1.48438 C18.6016,-2.05729 18.8125,-2.78646 18.8125,-3.67188 C18.8125,-4.22396 18.724,-4.71094 18.5469,-5.13281 C18.3698,-5.55469 18.1068,-5.8776 17.7578,-6.10156 C17.4089,-6.32552 17.0156,-6.4375 16.5781,-6.4375 C16.0677,-6.4375 15.6146,-6.28646 15.2188,-5.98438 C14.8229,-5.68229 14.5729,-5.33854 14.4688,-4.95313 M21.7969,-2.29688 L22.125,-2.29688 L22.2031,-2.23438 C22.2135,-1.79688 22.2396,-1.42188 22.2813,-1.10938 C22.4375,-0.859375 22.7135,-0.658854 23.1094,-0.507813 C23.5052,-0.356771 23.8958,-0.28125 24.2813,-0.28125 C24.8333,-0.28125 25.276,-0.429688 25.6094,-0.726563 C25.9427,-1.02344 26.1094,-1.375 26.1094,-1.78125 C26.1094,-2.01042 26.0495,-2.20573 25.9297,-2.36719 C25.8099,-2.52865 25.6276,-2.66406 25.3828,-2.77344 C25.138,-2.88281 24.7031,-3.01042 24.0781,-3.15625 C23.5469,-3.28125 23.1745,-3.3776 22.9609,-3.44531 C22.7474,-3.51302 22.5417,-3.63021 22.3438,-3.79688 C22.1458,-3.96354 21.9948,-4.16927 21.8906,-4.41406 C21.7865,-4.65885 21.7344,-4.92708 21.7344,-5.21875 C21.7344,-5.91667 22.0104,-6.47396 22.5625,-6.89063 C23.1146,-7.30729 23.8073,-7.51563 24.6406,-7.51563 C24.9844,-7.51563 25.362,-7.46875 25.7734,-7.375 C26.1849,-7.28125 26.5,-7.1875 26.7188,-7.09375 L26.7813,-6.98438 C26.7396,-6.77604 26.7135,-6.22917 26.7031,-5.34375 L26.6406,-5.28125 L26.3281,-5.28125 L26.25,-5.34375 C26.2292,-5.66667 26.2005,-5.89063 26.1641,-6.01563 C26.1276,-6.14063 26.0339,-6.27865 25.8828,-6.42969 C25.7318,-6.58073 25.5182,-6.70573 25.2422,-6.80469 C24.9661,-6.90365 24.6771,-6.95313 24.375,-6.95313 C24.0521,-6.95313 23.7839,-6.90625 23.5703,-6.8125 C23.3568,-6.71875 23.1823,-6.57813 23.0469,-6.39063 C22.9115,-6.20313 22.8438,-5.97396 22.8438,-5.70313 C22.8438,-5.50521 22.8854,-5.32813 22.9688,-5.17188 C23.0521,-5.01563 23.1771,-4.88802 23.3438,-4.78906 C23.5104,-4.6901 23.6823,-4.61979 23.8594,-4.57813 L24.7188,-4.35938 C25.4479,-4.18229 25.9688,-4.02865 26.2813,-3.89844 C26.5938,-3.76823 26.8359,-3.57292 27.0078,-3.3125 C27.1797,-3.05208 27.2656,-2.73438 27.2656,-2.35938 C27.2656,-1.64063 26.9688,-1.02083 26.375,-0.5 C25.7813,0.0208333 25.0208,0.28125 24.0938,0.28125 C23.7604,0.28125 23.3516,0.244792 22.8672,0.171875 C22.3828,0.0989583 21.9688,0.015625 21.625,-0.078125 L21.5781,-0.1875 L21.6563,-0.703125 C21.6875,-0.869792 21.7057,-1.03385 21.7109,-1.19531 C21.7161,-1.35677 21.7188,-1.70313 21.7188,-2.23438 L21.7969,-2.29688 M28.5313,-3.57813 C28.5313,-4.20313 28.6589,-4.80208 28.9141,-5.375 C29.1693,-5.94792 29.6146,-6.44531 30.25,-6.86719 C30.8854,-7.28906 31.6354,-7.5 32.5,-7.5 C33.5938,-7.5 34.4844,-7.15365 35.1719,-6.46094 C35.8594,-5.76823 36.2031,-4.88021 36.2031,-3.79688 C36.2031,-2.60938 35.8099,-1.6276 35.0234,-0.851563 C34.237,-0.0755208 33.2865,0.3125 32.1719,0.3125 C31.4427,0.3125 30.7917,0.114583 30.2188,-0.28125 C29.6458,-0.677083 29.2214,-1.15885 28.9453,-1.72656 C28.6693,-2.29427 28.5313,-2.91146 28.5313,-3.57813 M30.0156,-4.125 C30.0156,-3.39583 30.1094,-2.74219 30.2969,-2.16406 C30.4844,-1.58594 30.7813,-1.1224 31.1875,-0.773438 C31.5938,-0.424479 32.0573,-0.25 32.5781,-0.25 C33.1927,-0.25 33.7005,-0.494792 34.1016,-0.984375 C34.5026,-1.47396 34.7031,-2.20833 34.7031,-3.1875 C34.7031,-4.29167 34.4844,-5.19792 34.0469,-5.90625 C33.6094,-6.61458 32.9844,-6.96875 32.1719,-6.96875 C31.4948,-6.96875 30.9661,-6.72396 30.5859,-6.23438 C30.2057,-5.74479 30.0156,-5.04167 30.0156,-4.125 M39.9219,-11.5781 L40.0781,-11.4844 C40.0156,-10.8802 39.9844,-9.67708 39.9844,-7.875 L39.9844,-2.98438 C39.9844,-2.86979 39.9948,-2.5 40.0156,-1.875 C40.0365,-1.25 40.0599,-0.885417 40.0859,-0.78125 C40.112,-0.677083 40.1484,-0.601563 40.1953,-0.554688 C40.2422,-0.507813 40.2995,-0.479167 40.3672,-0.46875 C40.4349,-0.458333 40.7135,-0.4375 41.2031,-0.40625 L41.2813,-0.34375 L41.2813,-0.015625 L41.2188,0.0625 C40.5625,0.0208333 39.9323,0 39.3281,0 C38.7344,0 38.1094,0.0208333 37.4531,0.0625 L37.3906,-0.015625 L37.3906,-0.34375 L37.4531,-0.40625 C37.9635,-0.4375 38.25,-0.460938 38.3125,-0.476563 C38.375,-0.492188 38.4323,-0.523438 38.4844,-0.570313 C38.5365,-0.617188 38.5703,-0.692708 38.5859,-0.796875 C38.6016,-0.901042 38.6224,-1.23698 38.6484,-1.80469 C38.6745,-2.3724 38.6875,-2.80208 38.6875,-3.09375 L38.6875,-7.14063 L38.6563,-8.79688 C38.6354,-9.38021 38.6172,-9.78385 38.6016,-10.0078 C38.5859,-10.2318 38.5625,-10.3646 38.5313,-10.4063 C38.5,-10.4479 38.4453,-10.4792 38.3672,-10.5 C38.2891,-10.5208 37.974,-10.5313 37.4219,-10.5313 L37.3438,-10.5938 L37.3438,-10.9219 L37.4063,-11 C38.4063,-11.1146 39.2448,-11.3073 39.9219,-11.5781 M44.7031,-7.45313 L44.8594,-7.34375 C44.7969,-6.66667 44.7656,-5.80208 44.7656,-4.75 L44.7656,-2.92188 C44.7656,-2.25521 44.8177,-1.79167 44.9219,-1.53125 C45.026,-1.27083 45.2031,-1.07292 45.4531,-0.9375 C45.7031,-0.802083 46,-0.734375 46.3438,-0.734375 C46.7188,-0.734375 47.0625,-0.807292 47.375,-0.953125 C47.6875,-1.09896 47.9505,-1.30729 48.1641,-1.57813 C48.3776,-1.84896 48.5,-2.03125 48.5313,-2.125 C48.5625,-2.21875 48.5833,-2.48438 48.5938,-2.92188 L48.6094,-3.79688 L48.6094,-4.64063 C48.6094,-4.84896 48.599,-5.13281 48.5781,-5.49219 C48.5573,-5.85156 48.5417,-6.07292 48.5313,-6.15625 C48.5208,-6.23958 48.4818,-6.29948 48.4141,-6.33594 C48.3464,-6.3724 48.2083,-6.39063 48,-6.39063 L47.3438,-6.40625 L47.2813,-6.46875 L47.2813,-6.79688 L47.3438,-6.85938 C48.3333,-6.98438 49.1719,-7.18229 49.8594,-7.45313 L50,-7.34375 C49.9479,-6.66667 49.9219,-5.80208 49.9219,-4.75 L49.9219,-3.375 C49.9219,-3.29167 49.9323,-2.65104 49.9531,-1.45313 C49.9635,-1.01563 49.9922,-0.747396 50.0391,-0.648438 C50.0859,-0.549479 50.1484,-0.481771 50.2266,-0.445313 C50.3047,-0.408854 50.5365,-0.390625 50.9219,-0.390625 L51.1406,-0.390625 L51.2031,-0.328125 L51.2031,-0.015625 L51.1406,0.0625 C50.4115,0.0208333 49.9219,0 49.6719,0 C49.349,0 48.9792,0.0208333 48.5625,0.0625 L48.5,-0.015625 C48.5313,-0.546875 48.5521,-0.994792 48.5625,-1.35938 C48.2396,-1.10938 47.8646,-0.770833 47.4375,-0.34375 C47.2813,-0.177083 47.0521,-0.0390625 46.75,0.0703125 C46.4479,0.179688 46.1042,0.234375 45.7188,0.234375 C45.1354,0.234375 44.6797,0.140625 44.3516,-0.046875 C44.0234,-0.234375 43.7917,-0.489583 43.6563,-0.8125 C43.5208,-1.13542 43.4531,-1.69792 43.4531,-2.5 L43.4688,-3.10938 L43.4688,-4.64063 C43.4688,-4.84896 43.4583,-5.13281 43.4375,-5.49219 C43.4167,-5.85156 43.3984,-6.07292 43.3828,-6.15625 C43.3672,-6.23958 43.3255,-6.29948 43.2578,-6.33594 C43.1901,-6.3724 43.0573,-6.39063 42.8594,-6.39063 L42.2031,-6.40625 L42.125,-6.46875 L42.125,-6.79688 L42.1875,-6.85938 C43.1875,-6.98438 44.026,-7.18229 44.7031,-7.45313 M52.3594,-6.14063 L52.3594,-6.34375 L52.4219,-6.42188 C52.9115,-6.59896 53.3073,-6.76563 53.6094,-6.92188 C53.6094,-8.28646 53.5938,-9.07813 53.5625,-9.29688 C54.0938,-9.48438 54.5313,-9.6875 54.875,-9.90625 L55.0625,-9.75 C55.0104,-9.41667 54.9479,-8.46354 54.875,-6.89063 C55.1354,-6.88021 55.4167,-6.875 55.7188,-6.875 C56.3333,-6.875 56.776,-6.89063 57.0469,-6.92188 L57.0938,-6.875 L56.9531,-6.21875 L56.8906,-6.14063 C56.6198,-6.15104 56.3229,-6.15625 56,-6.15625 C55.7083,-6.15625 55.3333,-6.15104 54.875,-6.14063 L54.8281,-2.96875 C54.8281,-2.22917 54.8464,-1.7474 54.8828,-1.52344 C54.9193,-1.29948 55.013,-1.1224 55.1641,-0.992188 C55.3151,-0.861979 55.5417,-0.796875 55.8438,-0.796875 C56.1979,-0.796875 56.5208,-0.890625 56.8125,-1.07813 L57,-0.796875 C56.875,-0.703125 56.5781,-0.442708 56.1094,-0.015625 C55.8385,0.119792 55.5625,0.1875 55.2813,0.1875 C54.1042,0.1875 53.5156,-0.385417 53.5156,-1.53125 C53.5156,-1.94792 53.526,-2.30208 53.5469,-2.59375 C53.5573,-2.67708 53.5625,-2.76563 53.5625,-2.85938 L53.5625,-6.10938 L53.2344,-6.10938 C53.0052,-6.10938 52.7396,-6.09896 52.4375,-6.07813 L52.3594,-6.14063 M63.9063,-1.15625 L63.6563,-0.59375 C63.1146,-0.239583 62.6328,-0.0104167 62.2109,0.09375 C61.7891,0.197917 61.4115,0.25 61.0781,0.25 C60.4531,0.25 59.8594,0.127604 59.2969,-0.117188 C58.7344,-0.361979 58.2786,-0.776042 57.9297,-1.35938 C57.5807,-1.94271 57.4063,-2.64583 57.4063,-3.46875 C57.4063,-4.02083 57.474,-4.51563 57.6094,-4.95313 C57.7448,-5.39063 57.8854,-5.71615 58.0313,-5.92969 C58.1771,-6.14323 58.4271,-6.38021 58.7813,-6.64063 C59.1354,-6.90104 59.5104,-7.10938 59.9063,-7.26563 C60.3021,-7.42188 60.7292,-7.5 61.1875,-7.5 C61.8125,-7.5 62.3646,-7.35417 62.8438,-7.0625 C63.3229,-6.77083 63.6589,-6.39583 63.8516,-5.9375 C64.0443,-5.47917 64.1406,-4.98958 64.1406,-4.46875 C64.1406,-4.3125 64.1302,-4.15625 64.1094,-4 L64.0313,-3.92188 C63.6771,-3.83854 63.2005,-3.78385 62.6016,-3.75781 C62.0026,-3.73177 61.6042,-3.71875 61.4063,-3.71875 L58.9063,-3.71875 C58.9167,-2.64583 59.1875,-1.85417 59.7188,-1.34375 C60.25,-0.833333 60.901,-0.578125 61.6719,-0.578125 C62.0365,-0.578125 62.3854,-0.640625 62.7188,-0.765625 C63.0521,-0.890625 63.4063,-1.0625 63.7813,-1.28125 L63.9063,-1.15625 M58.9063,-4.34375 C59,-4.33333 59.3594,-4.31771 59.9844,-4.29688 C60.6094,-4.27604 61.0729,-4.26563 61.375,-4.26563 C62.1042,-4.26563 62.5469,-4.27604 62.7031,-4.29688 C62.7031,-4.42188 62.7031,-4.52083 62.7031,-4.59375 C62.7031,-5.39583 62.5391,-5.99479 62.2109,-6.39063 C61.8828,-6.78646 61.4375,-6.98438 60.875,-6.98438 C60.25,-6.98438 59.7656,-6.76302 59.4219,-6.32031 C59.0781,-5.8776 58.9063,-5.21875 58.9063,-4.34375 M68,-7.45313 L68.1563,-7.34375 C68.125,-7.04167 68.099,-6.50521 68.0781,-5.73438 L68.6719,-6.48438 C68.8594,-6.72396 69.0286,-6.91146 69.1797,-7.04688 C69.3307,-7.18229 69.5052,-7.28646 69.7031,-7.35938 C69.901,-7.43229 70.1042,-7.46875 70.3125,-7.46875 C70.5417,-7.46875 70.7552,-7.42188 70.9531,-7.32813 L71.0156,-7.21875 C70.9323,-6.52083 70.8854,-5.91146 70.875,-5.39063 L70.5156,-5.39063 C70.3073,-5.86979 69.974,-6.10938 69.5156,-6.10938 C69.1927,-6.10938 68.9115,-6.00521 68.6719,-5.79688 C68.4323,-5.58854 68.2708,-5.33073 68.1875,-5.02344 C68.1042,-4.71615 68.0625,-4.32292 68.0625,-3.84375 L68.0625,-2.98438 C68.0625,-2.82813 68.0729,-2.44531 68.0938,-1.83594 C68.1146,-1.22656 68.138,-0.875 68.1641,-0.78125 C68.1901,-0.6875 68.2266,-0.617188 68.2734,-0.570313 C68.3203,-0.523438 68.3854,-0.492188 68.4688,-0.476563 C68.5521,-0.460938 68.9219,-0.4375 69.5781,-0.40625 L69.6563,-0.34375 L69.6563,-0.015625 L69.5781,0.0625 C68.8906,0.0208333 68.1667,0 67.4063,0 C66.8125,0 66.1875,0.0208333 65.5313,0.0625 L65.4688,-0.015625 L65.4688,-0.34375 L65.5313,-0.40625 C66.0417,-0.4375 66.3281,-0.460938 66.3906,-0.476563 C66.4531,-0.492188 66.5104,-0.523438 66.5625,-0.570313 C66.6146,-0.617188 66.6484,-0.692708 66.6641,-0.796875 C66.6797,-0.901042 66.7005,-1.23698 66.7266,-1.80469 C66.7526,-2.3724 66.7656,-2.80208 66.7656,-3.09375 L66.7656,-4.64063 C66.7656,-4.84896 66.7552,-5.13281 66.7344,-5.49219 C66.7135,-5.85156 66.6953,-6.07292 66.6797,-6.15625 C66.6641,-6.23958 66.6224,-6.29948 66.5547,-6.33594 C66.487,-6.3724 66.3542,-6.39063 66.1563,-6.39063 L65.5,-6.40625 L65.4219,-6.46875 L65.4219,-6.79688 L65.4844,-6.85938 C66.4844,-6.98438 67.3229,-7.18229 68,-7.45313 M75.625,-2.6875 L75.6875,-2.75 L76.0625,-2.75 L76.125,-2.6875 C76.1563,-2.02083 76.1927,-1.61458 76.2344,-1.46875 C76.276,-1.32292 76.4167,-1.16667 76.6563,-1 C76.8958,-0.833333 77.2109,-0.697917 77.6016,-0.59375 C77.9922,-0.489583 78.3906,-0.4375 78.7969,-0.4375 C79.349,-0.4375 79.8438,-0.539063 80.2813,-0.742188 C80.7188,-0.945313 81.0599,-1.24479 81.3047,-1.64063 C81.5495,-2.03646 81.6719,-2.47917 81.6719,-2.96875 C81.6719,-3.3125 81.6146,-3.61198 81.5,-3.86719 C81.3854,-4.1224 81.2214,-4.32552 81.0078,-4.47656 C80.7943,-4.6276 80.5521,-4.74219 80.2813,-4.82031 C80.0104,-4.89844 79.6094,-4.97917 79.0781,-5.0625 C78.5573,-5.14583 78.1484,-5.22135 77.8516,-5.28906 C77.5547,-5.35677 77.2604,-5.46094 76.9688,-5.60156 C76.6771,-5.74219 76.4349,-5.92188 76.2422,-6.14063 C76.0495,-6.35938 75.8932,-6.625 75.7734,-6.9375 C75.6536,-7.25 75.5938,-7.58854 75.5938,-7.95313 C75.5938,-8.92188 75.9323,-9.71875 76.6094,-10.3438 C77.2865,-10.9688 78.1979,-11.2813 79.3438,-11.2813 C79.7917,-11.2813 80.2839,-11.224 80.8203,-11.1094 C81.3568,-10.9948 81.8438,-10.8281 82.2813,-10.6094 L82.3281,-10.5156 C82.2135,-10.0365 82.1458,-9.35417 82.125,-8.46875 L82.0469,-8.40625 L81.6406,-8.40625 L81.5781,-8.46875 C81.5677,-9.09375 81.5521,-9.48698 81.5313,-9.64844 C81.5104,-9.8099 81.2734,-10.0104 80.8203,-10.25 C80.3672,-10.4896 79.875,-10.6094 79.3438,-10.6094 C78.9063,-10.6094 78.4948,-10.5208 78.1094,-10.3438 C77.724,-10.1667 77.4323,-9.88802 77.2344,-9.50781 C77.0365,-9.1276 76.9375,-8.73958 76.9375,-8.34375 C76.9375,-8.03125 76.9974,-7.75781 77.1172,-7.52344 C77.237,-7.28906 77.3906,-7.10156 77.5781,-6.96094 C77.7656,-6.82031 77.987,-6.71615 78.2422,-6.64844 C78.4974,-6.58073 78.9583,-6.5 79.625,-6.40625 C80.5521,-6.27083 81.224,-6.11198 81.6406,-5.92969 C82.0573,-5.7474 82.3932,-5.45573 82.6484,-5.05469 C82.9036,-4.65365 83.0313,-4.16667 83.0313,-3.59375 C83.0313,-2.48958 82.5781,-1.5651 81.6719,-0.820313 C80.7656,-0.0755208 79.6719,0.296875 78.3906,0.296875 C77.3073,0.296875 76.3594,0.0989583 75.5469,-0.296875 L75.5,-0.390625 C75.5521,-0.723958 75.5938,-1.48958 75.625,-2.6875 M89.7813,-0.84375 L89.4688,-0.3125 C88.8021,0.0625 88.0521,0.25 87.2188,0.25 C86.0729,0.25 85.1875,-0.09375 84.5625,-0.78125 C83.9375,-1.46875 83.625,-2.34896 83.625,-3.42188 C83.625,-3.91146 83.6797,-4.34896 83.7891,-4.73438 C83.8984,-5.11979 84.0339,-5.4375 84.1953,-5.6875 C84.3568,-5.9375 84.5365,-6.13542 84.7344,-6.28125 C84.9323,-6.42708 85.2682,-6.63021 85.7422,-6.89063 C86.2161,-7.15104 86.5729,-7.32031 86.8125,-7.39844 C87.0521,-7.47656 87.3802,-7.51563 87.7969,-7.51563 C88.6094,-7.51563 89.2708,-7.36458 89.7813,-7.0625 C89.6875,-6.46875 89.6146,-5.8125 89.5625,-5.09375 L89.4844,-5.03125 L89.1719,-5.03125 L89.0938,-5.09375 C89.0729,-5.53125 89.0443,-5.82552 89.0078,-5.97656 C88.9714,-6.1276 88.7656,-6.28906 88.3906,-6.46094 C88.0156,-6.63281 87.6146,-6.71875 87.1875,-6.71875 C86.7604,-6.71875 86.3802,-6.63021 86.0469,-6.45313 C85.7135,-6.27604 85.4609,-5.98177 85.2891,-5.57031 C85.1172,-5.15885 85.0313,-4.67188 85.0313,-4.10938 C85.0313,-3.63021 85.099,-3.16146 85.2344,-2.70313 C85.3698,-2.24479 85.5495,-1.86719 85.7734,-1.57031 C85.9974,-1.27344 86.2917,-1.03385 86.6563,-0.851563 C87.0208,-0.669271 87.4271,-0.578125 87.875,-0.578125 C88.1563,-0.578125 88.4297,-0.614583 88.6953,-0.6875 C88.9609,-0.760417 89.2708,-0.880208 89.625,-1.04688 L89.7813,-0.84375 M92.6563,-11.5781 L92.8125,-11.4844 C92.75,-10.8802 92.7188,-9.67708 92.7188,-7.875 L92.7188,-5.95313 C93.1563,-6.30729 93.5625,-6.66146 93.9375,-7.01563 C94.0521,-7.11979 94.1589,-7.19531 94.2578,-7.24219 C94.3568,-7.28906 94.5156,-7.33854 94.7344,-7.39063 C94.9531,-7.44271 95.1823,-7.46875 95.4219,-7.46875 C95.8177,-7.46875 96.2005,-7.38802 96.5703,-7.22656 C96.9401,-7.0651 97.2214,-6.8724 97.4141,-6.64844 C97.6068,-6.42448 97.7396,-6.16146 97.8125,-5.85938 C97.8854,-5.55729 97.9219,-5.1875 97.9219,-4.75 L97.9219,-3.375 C97.9219,-3.28125 97.9323,-2.63021 97.9531,-1.42188 C97.974,-0.932292 98.0313,-0.640625 98.125,-0.546875 C98.2188,-0.453125 98.5417,-0.40625 99.0938,-0.40625 L99.1563,-0.34375 L99.1563,0 L99.0938,0.0625 C98.4271,0.0208333 97.9792,0 97.75,0 C97.625,0 97.2448,0.0208333 96.6094,0.0625 L96.5156,-0.03125 C96.5781,-0.708333 96.6094,-1.58854 96.6094,-2.67188 L96.6094,-3.70313 C96.6094,-4.31771 96.5964,-4.76042 96.5703,-5.03125 C96.5443,-5.30208 96.4583,-5.54688 96.3125,-5.76563 C96.1667,-5.98438 95.9714,-6.15625 95.7266,-6.28125 C95.4818,-6.40625 95.1875,-6.46875 94.8438,-6.46875 C94.4896,-6.46875 94.1953,-6.41927 93.9609,-6.32031 C93.7266,-6.22135 93.487,-6.05729 93.2422,-5.82813 C92.9974,-5.59896 92.849,-5.40885 92.7969,-5.25781 C92.7448,-5.10677 92.7188,-4.8125 92.7188,-4.375 L92.7188,-2.98438 C92.7188,-2.86979 92.7292,-2.5 92.75,-1.875 C92.7708,-1.25 92.7943,-0.885417 92.8203,-0.78125 C92.8464,-0.677083 92.8828,-0.601563 92.9297,-0.554688 C92.9766,-0.507813 93.0339,-0.479167 93.1016,-0.46875 C93.1693,-0.458333 93.4479,-0.4375 93.9375,-0.40625 L94.0156,-0.34375 L94.0156,-0.015625 L93.9531,0.0625 C93.2969,0.0208333 92.6667,0 92.0625,0 C91.4688,0 90.8438,0.0208333 90.1875,0.0625 L90.125,-0.015625 L90.125,-0.34375 L90.1875,-0.40625 C90.6979,-0.4375 90.9844,-0.460938 91.0469,-0.476563 C91.1094,-0.492188 91.1667,-0.523438 91.2188,-0.570313 C91.2708,-0.617188 91.3047,-0.692708 91.3203,-0.796875 C91.3359,-0.901042 91.3568,-1.23698 91.3828,-1.80469 C91.4089,-2.3724 91.4219,-2.80208 91.4219,-3.09375 L91.4219,-7.14063 L91.3906,-8.79688 C91.3698,-9.38021 91.3516,-9.78385 91.3359,-10.0078 C91.3203,-10.2318 91.2969,-10.3646 91.2656,-10.4063 C91.2344,-10.4479 91.1797,-10.4792 91.1016,-10.5 C91.0234,-10.5208 90.7083,-10.5313 90.1563,-10.5313 L90.0781,-10.5938 L90.0781,-10.9219 L90.1406,-11 C91.1406,-11.1146 91.9792,-11.3073 92.6563,-11.5781 M100.656,-5.29688 L100.359,-5.375 L100.297,-5.45313 L100.297,-6.42188 C101.224,-7.10938 102.125,-7.45313 103,-7.45313 C103.594,-7.45313 104.089,-7.34115 104.484,-7.11719 C104.88,-6.89323 105.167,-6.61458 105.344,-6.28125 C105.521,-5.94792 105.609,-5.55729 105.609,-5.10938 L105.578,-3.53125 L105.578,-1.20313 C105.578,-0.890625 105.599,-0.700521 105.641,-0.632813 C105.682,-0.565104 105.732,-0.518229 105.789,-0.492188 C105.846,-0.466146 105.953,-0.447917 106.109,-0.4375 L106.563,-0.390625 L106.625,-0.328125 L106.625,-0.015625 L106.563,0.0625 C106.177,0.03125 105.823,0.015625 105.5,0.015625 C105.188,0.015625 104.813,0.03125 104.375,0.0625 L104.25,-0.0625 L104.281,-1.3125 L102.578,0.015625 C102.297,0.140625 101.984,0.203125 101.641,0.203125 C101.224,0.203125 100.867,0.125 100.57,-0.03125 C100.273,-0.1875 100.044,-0.401042 99.8828,-0.671875 C99.7214,-0.942708 99.6406,-1.27083 99.6406,-1.65625 C99.6406,-2.41667 99.8802,-3.01302 100.359,-3.44531 C100.839,-3.8776 102.146,-4.24479 104.281,-4.54688 C104.281,-5.31771 104.109,-5.85938 103.766,-6.17188 C103.422,-6.48438 102.964,-6.64063 102.391,-6.64063 C102.089,-6.64063 101.813,-6.59635 101.563,-6.50781 C101.313,-6.41927 101.169,-6.34896 101.133,-6.29688 C101.096,-6.24479 100.958,-5.92708 100.719,-5.34375 L100.656,-5.29688 M104.281,-4.0625 C102.823,-3.82292 101.914,-3.5625 101.555,-3.28125 C101.195,-3 101.016,-2.5625 101.016,-1.96875 C101.016,-1.15625 101.422,-0.75 102.234,-0.75 C102.922,-0.75 103.604,-1.15104 104.281,-1.95313 L104.281,-4.0625 M104.609,-9.09375 C104.37,-9.09375 104.167,-9.17708 104,-9.34375 C103.833,-9.51042 103.75,-9.70833 103.75,-9.9375 C103.75,-10.1771 103.833,-10.3802 104,-10.5469 C104.167,-10.7135 104.37,-10.7969 104.609,-10.7969 C104.849,-10.7969 105.049,-10.7135 105.211,-10.5469 C105.372,-10.3802 105.453,-10.1771 105.453,-9.9375 C105.453,-9.70833 105.37,-9.51042 105.203,-9.34375 C105.036,-9.17708 104.839,-9.09375 104.609,-9.09375 M101.297,-9.09375 C101.068,-9.09375 100.87,-9.17708 100.703,-9.34375 C100.536,-9.51042 100.453,-9.70833 100.453,-9.9375 C100.453,-10.1771 100.536,-10.3802 100.703,-10.5469 C100.87,-10.7135 101.068,-10.7969 101.297,-10.7969 C101.536,-10.7969 101.74,-10.7135 101.906,-10.5469 C102.073,-10.3802 102.156,-10.1771 102.156,-9.9375 C102.156,-9.70833 102.073,-9.51042 101.906,-9.34375 C101.74,-9.17708 101.536,-9.09375 101.297,-9.09375 M118.656,-2.14063 L118.563,-1.34375 C118.51,-0.9375 118.474,-0.489583 118.453,0 L118.391,0.0625 C116.828,0.0104167 115.641,-0.015625 114.828,-0.015625 C114.068,-0.015625 113.005,0.0104167 111.641,0.0625 L111.578,0 L111.516,-0.453125 C111.432,-0.390625 111.193,-0.213542 110.797,0.078125 C110.63,0.151042 110.438,0.1875 110.219,0.1875 C109.083,0.1875 108.516,-0.385417 108.516,-1.53125 C108.516,-1.76042 108.521,-1.93229 108.531,-2.04688 L108.547,-2.59375 C108.557,-2.70833 108.563,-2.79688 108.563,-2.85938 L108.563,-6.10938 L108.234,-6.10938 C108.005,-6.10938 107.74,-6.09896 107.438,-6.07813 L107.359,-6.14063 L107.359,-6.34375 L107.422,-6.42188 C107.911,-6.59896 108.307,-6.76563 108.609,-6.92188 C108.609,-8.15104 108.594,-8.94271 108.563,-9.29688 C109.094,-9.48438 109.531,-9.6875 109.875,-9.90625 L110.063,-9.75 C110.01,-9.3125 109.948,-8.35938 109.875,-6.89063 C110.135,-6.88021 110.417,-6.875 110.719,-6.875 C111.104,-6.875 111.63,-6.88542 112.297,-6.90625 L112.281,-7.23438 L112.344,-7.29688 L116.016,-7.23438 C116.359,-7.23438 116.682,-7.23438 116.984,-7.23438 C117.526,-7.23438 118.01,-7.25521 118.438,-7.29688 L118.5,-7.23438 L118.5,-6.85938 C118.24,-6.58854 117.536,-5.72917 116.391,-4.28125 L114.234,-1.53125 C114.005,-1.23958 113.76,-0.911458 113.5,-0.546875 L114.047,-0.546875 L115.438,-0.5625 C115.969,-0.5625 116.474,-0.580729 116.953,-0.617188 C117.432,-0.653646 117.693,-0.690104 117.734,-0.726563 C117.776,-0.763021 117.818,-0.817708 117.859,-0.890625 C117.901,-0.963542 117.958,-1.16406 118.031,-1.49219 C118.104,-1.82031 118.151,-2.04167 118.172,-2.15625 L118.234,-2.21875 L118.594,-2.21875 L118.656,-2.14063 M116.672,-6.70313 L114.828,-6.70313 C114.484,-6.70313 114.167,-6.69531 113.875,-6.67969 C113.583,-6.66406 113.359,-6.64323 113.203,-6.61719 C113.047,-6.59115 112.953,-6.54948 112.922,-6.49219 C112.891,-6.4349 112.867,-6.35938 112.852,-6.26563 C112.836,-6.17188 112.792,-5.92188 112.719,-5.51563 L112.672,-5.26563 L112.609,-5.20313 L112.297,-5.20313 L112.219,-5.28125 L112.281,-6.14063 L111,-6.15625 C110.708,-6.15625 110.333,-6.15104 109.875,-6.14063 L109.828,-2.96875 L109.844,-1.95313 C109.844,-1.14063 110.177,-0.734375 110.844,-0.734375 C111.042,-0.734375 111.276,-0.786458 111.547,-0.890625 L111.688,-0.625 C112.021,-0.927083 112.495,-1.43229 113.109,-2.14063 L115.609,-5.23438 C115.859,-5.53646 116.214,-6.02604 116.672,-6.70313 M122.359,0.15625 L121.297,-3.35938 C121.099,-4.01563 120.909,-4.625 120.727,-5.1875 C120.544,-5.75 120.422,-6.10677 120.359,-6.25781 C120.297,-6.40885 120.232,-6.51823 120.164,-6.58594 C120.096,-6.65365 120.023,-6.70052 119.945,-6.72656 C119.867,-6.7526 119.646,-6.78646 119.281,-6.82813 L119.234,-6.89063 L119.234,-7.21875 L119.297,-7.28125 C119.672,-7.25 120.255,-7.23438 121.047,-7.23438 C121.891,-7.23438 122.526,-7.25 122.953,-7.28125 L123.031,-7.21875 L123.031,-6.89063 L122.969,-6.82813 C122.406,-6.82813 122.07,-6.79948 121.961,-6.74219 C121.852,-6.6849 121.797,-6.59375 121.797,-6.46875 C121.797,-6.35417 121.875,-6.03646 122.031,-5.51563 L122.75,-3 C122.865,-2.60417 123.01,-2.14583 123.188,-1.625 C123.333,-1.96875 123.531,-2.42188 123.781,-2.98438 L124.938,-5.5625 C125.208,-6.16667 125.464,-6.78125 125.703,-7.40625 L126.078,-7.40625 L126.781,-5.51563 L127.688,-3.25 L128.375,-1.53125 L128.969,-3.0625 C129.302,-3.94792 129.563,-4.6849 129.75,-5.27344 C129.938,-5.86198 130.031,-6.23958 130.031,-6.40625 C130.031,-6.57292 129.974,-6.68229 129.859,-6.73438 C129.745,-6.78646 129.438,-6.81771 128.938,-6.82813 L128.875,-6.89063 L128.875,-7.21875 L128.938,-7.28125 C129.542,-7.25 130.052,-7.23438 130.469,-7.23438 C130.99,-7.23438 131.479,-7.25 131.938,-7.28125 L132,-7.21875 L132,-6.90625 L131.938,-6.82813 C131.656,-6.81771 131.464,-6.78646 131.359,-6.73438 C131.255,-6.68229 131.141,-6.55729 131.016,-6.35938 C130.891,-6.16146 130.698,-5.75521 130.438,-5.14063 L129.656,-3.29688 L129.313,-2.42188 L128.75,-0.96875 C128.583,-0.520833 128.458,-0.145833 128.375,0.15625 L127.641,0.15625 L127.266,-0.828125 L125.484,-5.3125 L124.734,-3.6875 L123.875,-1.75 L123.109,0.15625 L122.359,0.15625 M138.906,-1.15625 L138.656,-0.59375 C138.115,-0.239583 137.633,-0.0104167 137.211,0.09375 C136.789,0.197917 136.411,0.25 136.078,0.25 C135.453,0.25 134.859,0.127604 134.297,-0.117188 C133.734,-0.361979 133.279,-0.776042 132.93,-1.35938 C132.581,-1.94271 132.406,-2.64583 132.406,-3.46875 C132.406,-4.02083 132.474,-4.51563 132.609,-4.95313 C132.745,-5.39063 132.885,-5.71615 133.031,-5.92969 C133.177,-6.14323 133.427,-6.38021 133.781,-6.64063 C134.135,-6.90104 134.51,-7.10938 134.906,-7.26563 C135.302,-7.42188 135.729,-7.5 136.188,-7.5 C136.813,-7.5 137.365,-7.35417 137.844,-7.0625 C138.323,-6.77083 138.659,-6.39583 138.852,-5.9375 C139.044,-5.47917 139.141,-4.98958 139.141,-4.46875 C139.141,-4.3125 139.13,-4.15625 139.109,-4 L139.031,-3.92188 C138.677,-3.83854 138.201,-3.78385 137.602,-3.75781 C137.003,-3.73177 136.604,-3.71875 136.406,-3.71875 L133.906,-3.71875 C133.917,-2.64583 134.188,-1.85417 134.719,-1.34375 C135.25,-0.833333 135.901,-0.578125 136.672,-0.578125 C137.036,-0.578125 137.385,-0.640625 137.719,-0.765625 C138.052,-0.890625 138.406,-1.0625 138.781,-1.28125 L138.906,-1.15625 M133.906,-4.34375 C134,-4.33333 134.359,-4.31771 134.984,-4.29688 C135.609,-4.27604 136.073,-4.26563 136.375,-4.26563 C137.104,-4.26563 137.547,-4.27604 137.703,-4.29688 C137.703,-4.42188 137.703,-4.52083 137.703,-4.59375 C137.703,-5.39583 137.539,-5.99479 137.211,-6.39063 C136.883,-6.78646 136.438,-6.98438 135.875,-6.98438 C135.25,-6.98438 134.766,-6.76302 134.422,-6.32031 C134.078,-5.8776 133.906,-5.21875 133.906,-4.34375 M143,-7.45313 L143.156,-7.34375 C143.125,-7.04167 143.099,-6.50521 143.078,-5.73438 L143.672,-6.48438 C143.859,-6.72396 144.029,-6.91146 144.18,-7.04688 C144.331,-7.18229 144.505,-7.28646 144.703,-7.35938 C144.901,-7.43229 145.104,-7.46875 145.313,-7.46875 C145.542,-7.46875 145.755,-7.42188 145.953,-7.32813 L146.016,-7.21875 C145.932,-6.52083 145.885,-5.91146 145.875,-5.39063 L145.516,-5.39063 C145.307,-5.86979 144.974,-6.10938 144.516,-6.10938 C144.193,-6.10938 143.911,-6.00521 143.672,-5.79688 C143.432,-5.58854 143.271,-5.33073 143.188,-5.02344 C143.104,-4.71615 143.063,-4.32292 143.063,-3.84375 L143.063,-2.98438 C143.063,-2.82813 143.073,-2.44531 143.094,-1.83594 C143.115,-1.22656 143.138,-0.875 143.164,-0.78125 C143.19,-0.6875 143.227,-0.617188 143.273,-0.570313 C143.32,-0.523438 143.385,-0.492188 143.469,-0.476563 C143.552,-0.460938 143.922,-0.4375 144.578,-0.40625 L144.656,-0.34375 L144.656,-0.015625 L144.578,0.0625 C143.891,0.0208333 143.167,0 142.406,0 C141.813,0 141.188,0.0208333 140.531,0.0625 L140.469,-0.015625 L140.469,-0.34375 L140.531,-0.40625 C141.042,-0.4375 141.328,-0.460938 141.391,-0.476563 C141.453,-0.492188 141.51,-0.523438 141.563,-0.570313 C141.615,-0.617188 141.648,-0.692708 141.664,-0.796875 C141.68,-0.901042 141.701,-1.23698 141.727,-1.80469 C141.753,-2.3724 141.766,-2.80208 141.766,-3.09375 L141.766,-4.64063 C141.766,-4.84896 141.755,-5.13281 141.734,-5.49219 C141.714,-5.85156 141.695,-6.07292 141.68,-6.15625 C141.664,-6.23958 141.622,-6.29948 141.555,-6.33594 C141.487,-6.3724 141.354,-6.39063 141.156,-6.39063 L140.5,-6.40625 L140.422,-6.46875 L140.422,-6.79688 L140.484,-6.85938 C141.484,-6.98438 142.323,-7.18229 143,-7.45313 M146.359,-6.14063 L146.359,-6.34375 L146.422,-6.42188 C146.911,-6.59896 147.307,-6.76563 147.609,-6.92188 C147.609,-8.28646 147.594,-9.07813 147.563,-9.29688 C148.094,-9.48438 148.531,-9.6875 148.875,-9.90625 L149.063,-9.75 C149.01,-9.41667 148.948,-8.46354 148.875,-6.89063 C149.135,-6.88021 149.417,-6.875 149.719,-6.875 C150.333,-6.875 150.776,-6.89063 151.047,-6.92188 L151.094,-6.875 L150.953,-6.21875 L150.891,-6.14063 C150.62,-6.15104 150.323,-6.15625 150,-6.15625 C149.708,-6.15625 149.333,-6.15104 148.875,-6.14063 L148.828,-2.96875 C148.828,-2.22917 148.846,-1.7474 148.883,-1.52344 C148.919,-1.29948 149.013,-1.1224 149.164,-0.992188 C149.315,-0.861979 149.542,-0.796875 149.844,-0.796875 C150.198,-0.796875 150.521,-0.890625 150.813,-1.07813 L151,-0.796875 C150.875,-0.703125 150.578,-0.442708 150.109,-0.015625 C149.839,0.119792 149.563,0.1875 149.281,0.1875 C148.104,0.1875 147.516,-0.385417 147.516,-1.53125 C147.516,-1.94792 147.526,-2.30208 147.547,-2.59375 C147.557,-2.67708 147.563,-2.76563 147.563,-2.85938 L147.563,-6.10938 L147.234,-6.10938 C147.005,-6.10938 146.74,-6.09896 146.438,-6.07813 L146.359,-6.14063"/>
</g>

<g fill="#212121" fill-opacity="1" stroke="#212121" stroke-opacity="1" stroke-width="1.06667" stroke-linecap="square" stroke-linejoin="round" transform="matrix(0.75,0,0,0.75,-17.55,-11.64)"
font-family="MS Shell Dlg 2" font-size="8.25" font-weight="400" font-style="normal" 
>
<polyline fill="none" vector-effect="none" points="70,269 70,23 " />
<polyline fill="none" vector-effect="none" points="488,269 488,23 " />
<polyline fill="none" vector-effect="none" points="70,260.194 74.18,260.194 " />
<polyline fill="none" vector-effect="none" points="483.82,260.194 488,260.194 " />
<polyline fill="none" vector-effect="none" points="70,181.13 74.18,181.13 " />
<polyline fill="none" vector-effect="none" points="483.82,181.13 488,181.13 " />
<polyline fill="none" vector-effect="none" points="70,102.065 74.18,102.065 " />
<polyline fill="none" vector-effect="none" points="483.82,102.065 488,102.065 " />
<polyline fill="none" vector-effect="none" points="70,23 74.18,23 " />
<polyline fill="none" vector-effect="none" points="483.82,23 488,23 " />
</g>

<g fill="#212121" fill-opacity="1" stroke="none" transform="matrix(0.75,0,0,0.75,25.25,186.146)"
font-family="MS Shell Dlg 2" font-size="8.25" font-weight="400" font-style="normal" 
>
<path vector-effect="none" fill-rule="evenodd" d="M3.5,0.3125 C2.35417,0.3125 1.57552,-0.158854 1.16406,-1.10156 C0.752604,-2.04427 0.546875,-3.16667 0.546875,-4.46875 C0.546875,-5.28125 0.619792,-6.04427 0.765625,-6.75781 C0.911458,-7.47135 1.20573,-8.07813 1.64844,-8.57813 C2.09115,-9.07813 2.70833,-9.32813 3.5,-9.32813 C4.11458,-9.32813 4.61719,-9.17708 5.00781,-8.875 C5.39844,-8.57292 5.69792,-8.1849 5.90625,-7.71094 C6.11458,-7.23698 6.25521,-6.72656 6.32813,-6.17969 C6.40104,-5.63281 6.4375,-5.0625 6.4375,-4.46875 C6.4375,-3.66667 6.36458,-2.91406 6.21875,-2.21094 C6.07292,-1.50781 5.78385,-0.911458 5.35156,-0.421875 C4.91927,0.0677083 4.30208,0.3125 3.5,0.3125 M3.5,-0.0625 C4.02083,-0.0625 4.40885,-0.328125 4.66406,-0.859375 C4.91927,-1.39063 5.07552,-1.97917 5.13281,-2.625 C5.1901,-3.27083 5.21875,-3.95833 5.21875,-4.6875 C5.21875,-5.39583 5.1901,-6.04427 5.13281,-6.63281 C5.07552,-7.22135 4.91927,-7.75781 4.66406,-8.24219 C4.40885,-8.72656 4.02083,-8.96875 3.5,-8.96875 C2.96875,-8.96875 2.57552,-8.72656 2.32031,-8.24219 C2.0651,-7.75781 1.90885,-7.22135 1.85156,-6.63281 C1.79427,-6.04427 1.76563,-5.39583 1.76563,-4.6875 C1.76563,-4.16667 1.77865,-3.67708 1.80469,-3.21875 C1.83073,-2.76042 1.89844,-2.28646 2.00781,-1.79688 C2.11719,-1.30729 2.29427,-0.895833 2.53906,-0.5625 C2.78385,-0.229167 3.10417,-0.0625 3.5,-0.0625 "/>
</g>

<g fill="#212121" fill-opacity="1" stroke="none" transform="matrix(0.75,0,0,0.75,25.25,126.847)"
font-family="MS Shell Dlg 2" font-size="8.25" font-weight="400" font-style="normal" 
>
<path vector-effect="none" fill-rule="evenodd" d="M1.21875,-1.59375 C1.3125,-1.32292 1.45833,-1.07552 1.65625,-0.851563 C1.85417,-0.627604 2.08854,-0.453125 2.35938,-0.328125 C2.63021,-0.203125 2.91146,-0.140625 3.20313,-0.140625 C3.88021,-0.140625 4.34635,-0.403646 4.60156,-0.929688 C4.85677,-1.45573 4.98438,-2.08854 4.98438,-2.82813 C4.98438,-3.15104 4.97917,-3.42448 4.96875,-3.64844 C4.95833,-3.8724 4.92708,-4.08333 4.875,-4.28125 C4.79167,-4.61458 4.64063,-4.90365 4.42188,-5.14844 C4.20313,-5.39323 3.9375,-5.51563 3.625,-5.51563 C3.3125,-5.51563 3.04167,-5.46875 2.8125,-5.375 C2.58333,-5.28125 2.39844,-5.16927 2.25781,-5.03906 C2.11719,-4.90885 1.99219,-4.77344 1.88281,-4.63281 C1.77344,-4.49219 1.70833,-4.41667 1.6875,-4.40625 L1.53125,-4.40625 C1.5,-4.40625 1.46875,-4.42188 1.4375,-4.45313 C1.40625,-4.48438 1.39063,-4.51563 1.39063,-4.54688 L1.39063,-9.21875 C1.39063,-9.23958 1.40625,-9.26302 1.4375,-9.28906 C1.46875,-9.3151 1.5,-9.32813 1.53125,-9.32813 L1.5625,-9.32813 C2.19792,-9.02604 2.86458,-8.875 3.5625,-8.875 C4.26042,-8.875 4.93229,-9.02604 5.57813,-9.32813 L5.60938,-9.32813 C5.64063,-9.32813 5.67188,-9.3151 5.70313,-9.28906 C5.73438,-9.26302 5.75,-9.23958 5.75,-9.21875 L5.75,-9.07813 C5.75,-9.03646 5.73958,-9.01563 5.71875,-9.01563 C5.39583,-8.58854 4.99479,-8.25781 4.51563,-8.02344 C4.03646,-7.78906 3.53646,-7.67188 3.01563,-7.67188 C2.65104,-7.67188 2.27083,-7.72396 1.875,-7.82813 L1.875,-5.1875 C2.1875,-5.4375 2.46354,-5.61458 2.70313,-5.71875 C2.94271,-5.82292 3.25521,-5.875 3.64063,-5.875 C4.15104,-5.875 4.61198,-5.72656 5.02344,-5.42969 C5.4349,-5.13281 5.75,-4.7474 5.96875,-4.27344 C6.1875,-3.79948 6.29688,-3.3125 6.29688,-2.8125 C6.29688,-2.25 6.15885,-1.73177 5.88281,-1.25781 C5.60677,-0.783854 5.23177,-0.403646 4.75781,-0.117188 C4.28385,0.169271 3.76563,0.3125 3.20313,0.3125 C2.74479,0.3125 2.32292,0.192708 1.9375,-0.046875 C1.55208,-0.286458 1.25,-0.606771 1.03125,-1.00781 C0.8125,-1.40885 0.703125,-1.83333 0.703125,-2.28125 C0.703125,-2.48958 0.770833,-2.66146 0.90625,-2.79688 C1.04167,-2.93229 1.21354,-3 1.42188,-3 C1.61979,-3 1.78906,-2.93229 1.92969,-2.79688 C2.07031,-2.66146 2.14063,-2.48958 2.14063,-2.28125 C2.14063,-2.08333 2.07031,-1.91667 1.92969,-1.78125 C1.78906,-1.64583 1.61979,-1.57813 1.42188,-1.57813 C1.39063,-1.57813 1.35417,-1.58073 1.3125,-1.58594 C1.27083,-1.59115 1.23958,-1.59375 1.21875,-1.59375 "/>
</g>

<g fill="#212121" fill-opacity="1" stroke="none" transform="matrix(0.75,0,0,0.75,19.75,67.5486)"
font-family="MS Shell Dlg 2" font-size="8.25" font-weight="400" font-style="normal" 
>
<path vector-effect="none" fill-rule="evenodd" d="M1.29688,0 L1.29688,-0.5 C2.46354,-0.5 3.04688,-0.645833 3.04688,-0.9375 L3.04688,-8.28125 C2.56771,-8.05208 1.95833,-7.9375 1.21875,-7.9375 L1.21875,-8.42188 C2.36458,-8.42188 3.22917,-8.72396 3.8125,-9.32813 L4,-9.32813 C4.03125,-9.32813 4.0625,-9.3151 4.09375,-9.28906 C4.125,-9.26302 4.14063,-9.23438 4.14063,-9.20313 L4.14063,-0.9375 C4.14063,-0.645833 4.72396,-0.5 5.89063,-0.5 L5.89063,0 L1.29688,0"/>
</g>

<g fill="#212121" fill-opacity="1" stroke="none" transform="matrix(0.75,0,0,0.75,25.25,67.5486)"
font-family="MS Shell Dlg 2" font-size="8.25" font-weight="400" font-style="normal" 
>
<path vector-effect="none" fill-rule="evenodd" d="M3.5,0.3125 C2.35417,0.3125 1.57552,-0.158854 1.16406,-1.10156 C0.752604,-2.04427 0.546875,-3.16667 0.546875,-4.46875 C0.546875,-5.28125 0.619792,-6.04427 0.765625,-6.75781 C0.911458,-7.47135 1.20573,-8.07813 1.64844,-8.57813 C2.09115,-9.07813 2.70833,-9.32813 3.5,-9.32813 C4.11458,-9.32813 4.61719,-9.17708 5.00781,-8.875 C5.39844,-8.57292 5.69792,-8.1849 5.90625,-7.71094 C6.11458,-7.23698 6.25521,-6.72656 6.32813,-6.17969 C6.40104,-5.63281 6.4375,-5.0625 6.4375,-4.46875 C6.4375,-3.66667 6.36458,-2.91406 6.21875,-2.21094 C6.07292,-1.50781 5.78385,-0.911458 5.35156,-0.421875 C4.91927,0.0677083 4.30208,0.3125 3.5,0.3125 M3.5,-0.0625 C4.02083,-0.0625 4.40885,-0.328125 4.66406,-0.859375 C4.91927,-1.39063 5.07552,-1.97917 5.13281,-2.625 C5.1901,-3.27083 5.21875,-3.95833 5.21875,-4.6875 C5.21875,-5.39583 5.1901,-6.04427 5.13281,-6.63281 C5.07552,-7.22135 4.91927,-7.75781 4.66406,-8.24219 C4.40885,-8.72656 4.02083,-8.96875 3.5,-8.96875 C2.96875,-8.96875 2.57552,-8.72656 2.32031,-8.24219 C2.0651,-7.75781 1.90885,-7.22135 1.85156,-6.63281 C1.79427,-6.04427 1.76563,-5.39583 1.76563,-4.6875 C1.76563,-4.16667 1.77865,-3.67708 1.80469,-3.21875 C1.83073,-2.76042 1.89844,-2.28646 2.00781,-1.79688 C2.11719,-1.30729 2.29427,-0.895833 2.53906,-0.5625 C2.78385,-0.229167 3.10417,-0.0625 3.5,-0.0625 "/>
</g>

<g fill="#212121" fill-opacity="1" stroke="none" transform="matrix(0.75,0,0,0.75,19.75,8.25)"
font-family="MS Shell Dlg 2" font-size="8.25" font-weight="400" font-style="normal" 
>
<path vector-effect="none" fill-rule="evenodd" d="M1.29688,0 L1.29688,-0.5 C2.46354,-0.5 3.04688,-0.645833 3.04688,-0.9375 L3.04688,-8.28125 C2.56771,-8.05208 1.95833,-7.9375 1.21875,-7.9375 L1.21875,-8.42188 C2.36458,-8.42188 3.22917,-8.72396 3.8125,-9.32813 L4,-9.32813 C4.03125,-9.32813 4.0625,-9.3151 4.09375,-9.28906 C4.125,-9.26302 4.14063,-9.23438 4.14063,-9.20313 L4.14063,-0.9375 C4.14063,-0.645833 4.72396,-0.5 5.89063,-0.5 L5.89063,0 L1.29688,0"/>
</g>

<g fill="#212121" fill-opacity="1" stroke="none" transform="matrix(0.75,0,0,0.75,25.25,8.25)"
font-family="MS Shell Dlg 2" font-size="8.25" font-weight="400" font-style="normal" 
>
<path vector-effect="none" fill-rule="evenodd" d="M1.21875,-1.59375 C1.3125,-1.32292 1.45833,-1.07552 1.65625,-0.851563 C1.85417,-0.627604 2.08854,-0.453125 2.35938,-0.328125 C2.63021,-0.203125 2.91146,-0.140625 3.20313,-0.140625 C3.88021,-0.140625 4.34635,-0.403646 4.60156,-0.929688 C4.85677,-1.45573 4.98438,-2.08854 4.98438,-2.82813 C4.98438,-3.15104 4.97917,-3.42448 4.96875,-3.64844 C4.95833,-3.8724 4.92708,-4.08333 4.875,-4.28125 C4.79167,-4.61458 4.64063,-4.90365 4.42188,-5.14844 C4.20313,-5.39323 3.9375,-5.51563 3.625,-5.51563 C3.3125,-5.51563 3.04167,-5.46875 2.8125,-5.375 C2.58333,-5.28125 2.39844,-5.16927 2.25781,-5.03906 C2.11719,-4.90885 1.99219,-4.77344 1.88281,-4.63281 C1.77344,-4.49219 1.70833,-4.41667 1.6875,-4.40625 L1.53125,-4.40625 C1.5,-4.40625 1.46875,-4.42188 1.4375,-4.45313 C1.40625,-4.48438 1.39063,-4.51563 1.39063,-4.54688 L1.39063,-9.21875 C1.39063,-9.23958 1.40625,-9.26302 1.4375,-9.28906 C1.46875,-9.3151 1.5,-9.32813 1.53125,-9.32813 L1.5625,-9.32813 C2.19792,-9.02604 2.86458,-8.875 3.5625,-8.875 C4.26042,-8.875 4.93229,-9.02604 5.57813,-9.32813 L5.60938,-9.32813 C5.64063,-9.32813 5.67188,-9.3151 5.70313,-9.28906 C5.73438,-9.26302 5.75,-9.23958 5.75,-9.21875 L5.75,-9.07813 C5.75,-9.03646 5.73958,-9.01563 5.71875,-9.01563 C5.39583,-8.58854 4.99479,-8.25781 4.51563,-8.02344 C4.03646,-7.78906 3.53646,-7.67188 3.01563,-7.67188 C2.65104,-7.67188 2.27083,-7.72396 1.875,-7.82813 L1.875,-5.1875 C2.1875,-5.4375 2.46354,-5.61458 2.70313,-5.71875 C2.94271,-5.82292 3.25521,-5.875 3.64063,-5.875 C4.15104,-5.875 4.61198,-5.72656 5.02344,-5.42969 C5.4349,-5.13281 5.75,-4.7474 5.96875,-4.27344 C6.1875,-3.79948 6.29688,-3.3125 6.29688,-2.8125 C6.29688,-2.25 6.15885,-1.73177 5.88281,-1.25781 C5.60677,-0.783854 5.23177,-0.403646 4.75781,-0.117188 C4.28385,0.169271 3.76563,0.3125 3.20313,0.3125 C2.74479,0.3125 2.32292,0.192708 1.9375,-0.046875 C1.55208,-0.286458 1.25,-0.606771 1.03125,-1.00781 C0.8125,-1.40885 0.703125,-1.83333 0.703125,-2.28125 C0.703125,-2.48958 0.770833,-2.66146 0.90625,-2.79688 C1.04167,-2.93229 1.21354,-3 1.42188,-3 C1.61979,-3 1.78906,-2.93229 1.92969,-2.79688 C2.07031,-2.66146 2.14063,-2.48958 2.14063,-2.28125 C2.14063,-2.08333 2.07031,-1.91667 1.92969,-1.78125 C1.78906,-1.64583 1.61979,-1.57813 1.42188,-1.57813 C1.39063,-1.57813 1.35417,-1.58073 1.3125,-1.58594 C1.27083,-1.59115 1.23958,-1.59375 1.21875,-1.59375 "/>
</g>

<g fill="#ffffff" fill-opacity="1" stroke="none" transform="matrix(7.5e-05,0,0,7.5e-05,-17.55,-11.64)"
font-family="MS Shell Dlg 2" font-size="8.25" font-weight="400" font-style="normal" 
>
<path vector-effect="none" fill-rule="evenodd" d="M5.04e+06,230000 L5.04e+06,1.02e+06 L7.1e+06,1.02e+06 L7.1e+06,230000 L5.04e+06,230000"/>
</g>

<g fill="#000000" fill-opacity="1" stroke="none" transform="matrix(7.5e-05,0,0,7.5e-05,-17.55,-11.64)"
font-family="MS Shell Dlg 2" font-size="8.25" font-weight="400" font-style="normal" 
>
<path vector-effect="none" fill-rule="evenodd" d="M5.08e+06,277201 L5.08e+06,411352 L5.48e+06,411352 L5.48e+06,277201 L5.08e+06,277201"/>
</g>

<g fill="none" stroke="#212121" stroke-opacity="1" stroke-width="0.666667" stroke-linecap="butt" stroke-linejoin="miter" stroke-miterlimit="2" transform="matrix(0.75,0,0,0.75,-17.55,-11.64)"
font-family="MS Shell Dlg 2" font-size="8.25" font-weight="400" font-style="normal" 
>
<path vector-effect="none" fill-rule="evenodd" d="M508,41.1352 L508,27.7201 L548,27.7201 L548,41.1352 L508,41.1352"/>
</g>

<g fill="#999999" fill-opacity="1" stroke="none" transform="matrix(7.5e-05,0,0,7.5e-05,-17.55,-11.64)"
font-family="MS Shell Dlg 2" font-size="8.25" font-weight="400" font-style="normal" 
>
<path vector-effect="none" fill-rule="evenodd" d="M5.08e+06,470974 L5.08e+06,605125 L5.48e+06,605125 L5.48e+06,470974 L5.08e+06,470974"/>
</g>

<g fill="none" stroke="#212121" stroke-opacity="1" stroke-width="0.666667" stroke-linecap="butt" stroke-linejoin="miter" stroke-miterlimit="2" transform="matrix(0.75,0,0,0.75,-17.55,-11.64)"
font-family="MS Shell Dlg 2" font-size="8.25" font-weight="400" font-style="normal" 
>
<path vector-effect="none" fill-rule="evenodd" d="M508,60.5126 L508,47.0975 L548,47.0975 L548,60.5126 L508,60.5126"/>
</g>

<g fill="#4d4d4d" fill-opacity="1" stroke="none" transform="matrix(7.5e-05,0,0,7.5e-05,-17.55,-11.64)"
font-family="MS Shell Dlg 2" font-size="8.25" font-weight="400" font-style="normal" 
>
<path vector-effect="none" fill-rule="evenodd" d="M5.08e+06,659779 L5.08e+06,793930 L5.48e+06,793930 L5.48e+06,659779 L5.08e+06,659779"/>
</g>

<g fill="none" stroke="#212121" stroke-opacity="1" stroke-width="0.666667" stroke-linecap="butt" stroke-linejoin="miter" stroke-miterlimit="2" transform="matrix(0.75,0,0,0.75,-17.55,-11.64)"
font-family="MS Shell Dlg 2" font-size="8.25" font-weight="400" font-style="normal" 
>
<path vector-effect="none" fill-rule="evenodd" d="M508,79.3931 L508,65.978 L548,65.978 L548,79.3931 L508,79.3931"/>
</g>

<g fill="#000000" fill-opacity="1" stroke="#000000" stroke-opacity="1" stroke-width="2.66667" stroke-linecap="butt" stroke-linejoin="round" transform="matrix(0.75,0,0,0.75,-17.55,-11.64)"
font-family="MS Shell Dlg 2" font-size="8.25" font-weight="400" font-style="normal" 
>
<polyline fill="none" vector-effect="none" points="508,91.0692 548,91.0692 " />
</g>

<g fill="#212121" fill-opacity="1" stroke="none" transform="matrix(0.75,0,0,0.75,395.7,45.5141)"
font-family="MS Shell Dlg 2" font-size="8.25" font-weight="400" font-style="normal" 
>
<path vector-effect="none" fill-rule="evenodd" d="M0.4375,0 L0.4375,-0.5 C1.39583,-0.5 1.875,-0.645833 1.875,-0.9375 L1.875,-8.625 C1.875,-8.92708 1.39583,-9.07813 0.4375,-9.07813 L0.4375,-9.5625 L8.34375,-9.5625 L8.73438,-6.35938 L8.32813,-6.35938 C8.23438,-7.16146 8.09635,-7.74479 7.91406,-8.10938 C7.73177,-8.47396 7.44271,-8.72656 7.04688,-8.86719 C6.65104,-9.00781 6.05729,-9.07813 5.26563,-9.07813 L3.89063,-9.07813 C3.72396,-9.07813 3.59375,-9.07031 3.5,-9.05469 C3.40625,-9.03906 3.32813,-8.9974 3.26563,-8.92969 C3.20313,-8.86198 3.17188,-8.76042 3.17188,-8.625 L3.17188,-5.20313 L4.21875,-5.20313 C4.6875,-5.20313 5.03906,-5.24479 5.27344,-5.32813 C5.50781,-5.41146 5.66927,-5.5651 5.75781,-5.78906 C5.84635,-6.01302 5.89063,-6.36458 5.89063,-6.84375 L6.29688,-6.84375 L6.29688,-3.07813 L5.89063,-3.07813 C5.89063,-3.55729 5.84635,-3.91146 5.75781,-4.14063 C5.66927,-4.36979 5.50781,-4.52344 5.27344,-4.60156 C5.03906,-4.67969 4.6875,-4.71875 4.21875,-4.71875 L3.17188,-4.71875 L3.17188,-0.9375 C3.17188,-0.739583 3.22917,-0.617188 3.34375,-0.570313 C3.45833,-0.523438 3.64063,-0.5 3.89063,-0.5 L5.375,-0.5 C6.02083,-0.5 6.54427,-0.549479 6.94531,-0.648438 C7.34635,-0.747396 7.65625,-0.916667 7.875,-1.15625 C8.09375,-1.39583 8.26302,-1.70573 8.38281,-2.08594 C8.5026,-2.46615 8.61458,-2.99479 8.71875,-3.67188 L9.125,-3.67188 L8.53125,0 L0.4375,0"/>
</g>

<g fill="#212121" fill-opacity="1" stroke="none" transform="matrix(0.75,0,0,0.75,403.186,45.5141)"
font-family="MS Shell Dlg 2" font-size="8.25" font-weight="400" font-style="normal" 
>
<path vector-effect="none" fill-rule="evenodd" d="M0.421875,0 L0.421875,-0.5 C0.734375,-0.5 0.994792,-0.523438 1.20313,-0.570313 C1.41146,-0.617188 1.51563,-0.739583 1.51563,-0.9375 L1.51563,-4.76563 C1.51563,-5.01563 1.47656,-5.19531 1.39844,-5.30469 C1.32031,-5.41406 1.21094,-5.48177 1.07031,-5.50781 C0.929688,-5.53385 0.713542,-5.54688 0.421875,-5.54688 L0.421875,-6.03125 L2.45313,-6.1875 L2.45313,-4.8125 C2.64063,-5.21875 2.91667,-5.54948 3.28125,-5.80469 C3.64583,-6.0599 4.04688,-6.1875 4.48438,-6.1875 C5.55729,-6.1875 6.1875,-5.75 6.375,-4.875 C6.5625,-5.27083 6.83594,-5.58854 7.19531,-5.82813 C7.55469,-6.06771 7.94792,-6.1875 8.375,-6.1875 C8.80208,-6.1875 9.15885,-6.11979 9.44531,-5.98438 C9.73177,-5.84896 9.94792,-5.64063 10.0938,-5.35938 C10.2396,-5.07813 10.3125,-4.72396 10.3125,-4.29688 L10.3125,-0.9375 C10.3125,-0.739583 10.4167,-0.617188 10.625,-0.570313 C10.8333,-0.523438 11.0938,-0.5 11.4063,-0.5 L11.4063,0 L8.20313,0 L8.20313,-0.5 C8.52604,-0.5 8.78906,-0.523438 8.99219,-0.570313 C9.19531,-0.617188 9.29688,-0.739583 9.29688,-0.9375 L9.29688,-4.26563 C9.29688,-4.73438 9.23177,-5.11198 9.10156,-5.39844 C8.97135,-5.6849 8.69792,-5.82813 8.28125,-5.82813 C7.75,-5.82813 7.30729,-5.61198 6.95313,-5.17969 C6.59896,-4.7474 6.42188,-4.25521 6.42188,-3.70313 L6.42188,-0.9375 C6.42188,-0.739583 6.52604,-0.617188 6.73438,-0.570313 C6.94271,-0.523438 7.20313,-0.5 7.51563,-0.5 L7.51563,0 L4.3125,0 L4.3125,-0.5 C4.63542,-0.5 4.89844,-0.523438 5.10156,-0.570313 C5.30469,-0.617188 5.40625,-0.739583 5.40625,-0.9375 L5.40625,-4.26563 C5.40625,-4.71354 5.34115,-5.08594 5.21094,-5.38281 C5.08073,-5.67969 4.80729,-5.82813 4.39063,-5.82813 C3.84896,-5.82813 3.40365,-5.61198 3.05469,-5.17969 C2.70573,-4.7474 2.53125,-4.25521 2.53125,-3.70313 L2.53125,-0.9375 C2.53125,-0.739583 2.63542,-0.617188 2.84375,-0.570313 C3.05208,-0.523438 3.3125,-0.5 3.625,-0.5 L3.625,0 L0.421875,0"/>
</g>

<g fill="#212121" fill-opacity="1" stroke="none" transform="matrix(0.75,0,0,0.75,412.353,45.5141)"
font-family="MS Shell Dlg 2" font-size="8.25" font-weight="400" font-style="normal" 
>
<path vector-effect="none" fill-rule="evenodd" d="M0.453125,0 L0.453125,-0.5 C1.28646,-0.5 1.79688,-0.770833 1.98438,-1.3125 L4.92188,-9.875 C4.95313,-9.96875 5.03125,-10.0156 5.15625,-10.0156 L5.32813,-10.0156 C5.45313,-10.0156 5.53125,-9.96875 5.5625,-9.875 L8.625,-0.9375 C8.70833,-0.739583 8.8724,-0.617188 9.11719,-0.570313 C9.36198,-0.523438 9.66667,-0.5 10.0313,-0.5 L10.0313,0 L6.125,0 L6.125,-0.5 C6.90625,-0.5 7.29688,-0.625 7.29688,-0.875 L7.29688,-0.9375 L6.53125,-3.125 L3.14063,-3.125 L2.51563,-1.3125 C2.50521,-1.28125 2.5,-1.23438 2.5,-1.17188 C2.5,-0.942708 2.60938,-0.773438 2.82813,-0.664063 C3.04688,-0.554688 3.28646,-0.5 3.54688,-0.5 L3.54688,0 L0.453125,0 M3.29688,-3.60938 L6.375,-3.60938 L4.82813,-8.07813 L3.29688,-3.60938"/>
</g>

<g fill="#212121" fill-opacity="1" stroke="none" transform="matrix(0.75,0,0,0.75,420.603,45.5141)"
font-family="MS Shell Dlg 2" font-size="8.25" font-weight="400" font-style="normal" 
>
<path vector-effect="none" fill-rule="evenodd" d="M0.4375,0 L0.4375,-0.5 C1.39583,-0.5 1.875,-0.645833 1.875,-0.9375 L1.875,-8.625 C1.875,-8.92708 1.39583,-9.07813 0.4375,-9.07813 L0.4375,-9.5625 L4.96875,-9.5625 L4.96875,-9.07813 C3.77083,-9.07813 3.17188,-8.92708 3.17188,-8.625 L3.17188,-0.9375 C3.17188,-0.739583 3.22917,-0.617188 3.34375,-0.570313 C3.45833,-0.523438 3.64063,-0.5 3.89063,-0.5 L4.96875,-0.5 C5.66667,-0.5 6.20573,-0.627604 6.58594,-0.882813 C6.96615,-1.13802 7.23438,-1.48438 7.39063,-1.92188 C7.54688,-2.35938 7.66667,-2.94271 7.75,-3.67188 L8.15625,-3.67188 L7.76563,0 L0.4375,0"/>
</g>

<g fill="#212121" fill-opacity="1" stroke="none" transform="matrix(0.75,0,0,0.75,426.561,45.5141)"
font-family="MS Shell Dlg 2" font-size="8.25" font-weight="400" font-style="normal" 
>
<path vector-effect="none" fill-rule="evenodd" d="M2.35938,0 L2.35938,-0.5 C2.82813,-0.5 3.28385,-0.526042 3.72656,-0.578125 C4.16927,-0.630208 4.39063,-0.75 4.39063,-0.9375 L4.39063,-8.625 C4.39063,-8.82292 4.33594,-8.94792 4.22656,-9 C4.11719,-9.05208 3.9375,-9.07813 3.6875,-9.07813 L3.09375,-9.07813 C2.32292,-9.07813 1.77604,-8.90625 1.45313,-8.5625 C1.28646,-8.39583 1.16667,-8.1276 1.09375,-7.75781 C1.02083,-7.38802 0.958333,-6.92188 0.90625,-6.35938 L0.5,-6.35938 L0.765625,-9.5625 L9.32813,-9.5625 L9.59375,-6.35938 L9.1875,-6.35938 C9.125,-6.96354 9.0625,-7.4401 9,-7.78906 C8.9375,-8.13802 8.81771,-8.39583 8.64063,-8.5625 C8.31771,-8.90625 7.77083,-9.07813 7,-9.07813 L6.40625,-9.07813 C6.23958,-9.07813 6.10938,-9.07031 6.01563,-9.05469 C5.92188,-9.03906 5.84635,-8.9974 5.78906,-8.92969 C5.73177,-8.86198 5.70313,-8.76042 5.70313,-8.625 L5.70313,-0.9375 C5.70313,-0.75 5.92448,-0.630208 6.36719,-0.578125 C6.8099,-0.526042 7.26042,-0.5 7.71875,-0.5 L7.71875,0 L2.35938,0"/>
</g>

<g fill="#212121" fill-opacity="1" stroke="none" transform="matrix(0.75,0,0,0.75,395.7,59.3019)"
font-family="MS Shell Dlg 2" font-size="8.25" font-weight="400" font-style="normal" 
>
<path vector-effect="none" fill-rule="evenodd" d="M4.35938,0.15625 L1.5,-8.625 C1.42708,-8.82292 1.28646,-8.94792 1.07813,-9 C0.869792,-9.05208 0.59375,-9.07813 0.25,-9.07813 L0.25,-9.5625 L4,-9.5625 L4,-9.07813 C3.21875,-9.07813 2.82813,-8.95313 2.82813,-8.70313 L2.82813,-8.625 L5.0625,-1.73438 L6.96875,-7.625 L6.65625,-8.625 C6.58333,-8.82292 6.4401,-8.94792 6.22656,-9 C6.01302,-9.05208 5.73958,-9.07813 5.40625,-9.07813 L5.40625,-9.5625 L9.15625,-9.5625 L9.15625,-9.07813 C8.36458,-9.07813 7.96875,-8.95313 7.96875,-8.70313 C7.96875,-8.68229 7.97135,-8.65885 7.97656,-8.63281 C7.98177,-8.60677 7.98438,-8.58854 7.98438,-8.57813 L10.2188,-1.73438 L12.3125,-8.25 C12.3229,-8.27083 12.3281,-8.3125 12.3281,-8.375 C12.3281,-8.625 12.1979,-8.80469 11.9375,-8.91406 C11.6771,-9.02344 11.4063,-9.07813 11.125,-9.07813 L11.125,-9.5625 L14.125,-9.5625 L14.125,-9.07813 C13.3854,-9.07813 12.9271,-8.80208 12.75,-8.25 L10.0156,0.15625 C9.98438,0.260417 9.91667,0.3125 9.8125,0.3125 L9.71875,0.3125 C9.61458,0.3125 9.54688,0.260417 9.51563,0.15625 L7.20313,-6.96875 L4.875,0.15625 C4.84375,0.260417 4.77083,0.3125 4.65625,0.3125 L4.5625,0.3125 C4.45833,0.3125 4.39063,0.260417 4.35938,0.15625 "/>
</g>

<g fill="#212121" fill-opacity="1" stroke="none" transform="matrix(0.75,0,0,0.75,406.089,59.3019)"
font-family="MS Shell Dlg 2" font-size="8.25" font-weight="400" font-style="normal" 
>
<path vector-effect="none" fill-rule="evenodd" d="M0.5625,-1.375 C0.5625,-1.92708 0.78125,-2.3776 1.21875,-2.72656 C1.65625,-3.07552 2.18229,-3.32292 2.79688,-3.46875 C3.41146,-3.61458 3.99479,-3.6875 4.54688,-3.6875 L4.54688,-4.25 C4.54688,-4.52083 4.48698,-4.78385 4.36719,-5.03906 C4.2474,-5.29427 4.07552,-5.5026 3.85156,-5.66406 C3.6276,-5.82552 3.38021,-5.90625 3.10938,-5.90625 C2.49479,-5.90625 2.02604,-5.76563 1.70313,-5.48438 C1.88021,-5.48438 2.02604,-5.41667 2.14063,-5.28125 C2.25521,-5.14583 2.3125,-4.98958 2.3125,-4.8125 C2.3125,-4.625 2.2474,-4.46615 2.11719,-4.33594 C1.98698,-4.20573 1.82813,-4.14063 1.64063,-4.14063 C1.45313,-4.14063 1.29427,-4.20833 1.16406,-4.34375 C1.03385,-4.47917 0.96875,-4.63542 0.96875,-4.8125 C0.96875,-5.3125 1.1901,-5.68229 1.63281,-5.92188 C2.07552,-6.16146 2.56771,-6.28125 3.10938,-6.28125 C3.48438,-6.28125 3.86458,-6.20052 4.25,-6.03906 C4.63542,-5.8776 4.95052,-5.64583 5.19531,-5.34375 C5.4401,-5.04167 5.5625,-4.6875 5.5625,-4.28125 L5.5625,-1.14063 C5.5625,-0.963542 5.60156,-0.796875 5.67969,-0.640625 C5.75781,-0.484375 5.875,-0.40625 6.03125,-0.40625 C6.1875,-0.40625 6.30469,-0.484375 6.38281,-0.640625 C6.46094,-0.796875 6.5,-0.963542 6.5,-1.14063 L6.5,-2.03125 L6.90625,-2.03125 L6.90625,-1.125 C6.90625,-0.916667 6.85156,-0.71875 6.74219,-0.53125 C6.63281,-0.34375 6.48438,-0.195313 6.29688,-0.0859375 C6.10938,0.0234375 5.91146,0.078125 5.70313,0.078125 C5.43229,0.078125 5.19792,-0.0286458 5,-0.242188 C4.80208,-0.455729 4.6875,-0.708333 4.65625,-1 C4.48958,-0.645833 4.23698,-0.364583 3.89844,-0.15625 C3.5599,0.0520833 3.19792,0.15625 2.8125,0.15625 C2.45833,0.15625 2.10938,0.104167 1.76563,0 C1.42188,-0.104167 1.13542,-0.268229 0.90625,-0.492188 C0.677083,-0.716146 0.5625,-1.01042 0.5625,-1.375 M1.70313,-1.375 C1.70313,-1.05208 1.82292,-0.778646 2.0625,-0.554688 C2.30208,-0.330729 2.58333,-0.21875 2.90625,-0.21875 C3.20833,-0.21875 3.48438,-0.294271 3.73438,-0.445313 C3.98438,-0.596354 4.18229,-0.799479 4.32813,-1.05469 C4.47396,-1.3099 4.54688,-1.58333 4.54688,-1.875 L4.54688,-3.32813 C4.11979,-3.32813 3.6849,-3.25781 3.24219,-3.11719 C2.79948,-2.97656 2.43229,-2.75781 2.14063,-2.46094 C1.84896,-2.16406 1.70313,-1.80208 1.70313,-1.375 "/>
</g>

<g fill="#212121" fill-opacity="1" stroke="none" transform="matrix(0.75,0,0,0.75,411.589,59.3019)"
font-family="MS Shell Dlg 2" font-size="8.25" font-weight="400" font-style="normal" 
>
<path vector-effect="none" fill-rule="evenodd" d="M0.421875,0 L0.421875,-0.5 C0.734375,-0.5 0.994792,-0.523438 1.20313,-0.570313 C1.41146,-0.617188 1.51563,-0.739583 1.51563,-0.9375 L1.51563,-8.28125 C1.51563,-8.53125 1.47656,-8.71354 1.39844,-8.82813 C1.32031,-8.94271 1.21094,-9.01302 1.07031,-9.03906 C0.929688,-9.0651 0.713542,-9.07813 0.421875,-9.07813 L0.421875,-9.5625 L2.5,-9.71875 L2.5,-4.90625 C2.69792,-5.29167 2.97135,-5.60156 3.32031,-5.83594 C3.66927,-6.07031 4.05729,-6.1875 4.48438,-6.1875 C5.13021,-6.1875 5.61458,-6.03125 5.9375,-5.71875 C6.26042,-5.40625 6.42188,-4.93229 6.42188,-4.29688 L6.42188,-0.9375 C6.42188,-0.739583 6.52604,-0.617188 6.73438,-0.570313 C6.94271,-0.523438 7.20313,-0.5 7.51563,-0.5 L7.51563,0 L4.3125,0 L4.3125,-0.5 C4.63542,-0.5 4.89844,-0.523438 5.10156,-0.570313 C5.30469,-0.617188 5.40625,-0.739583 5.40625,-0.9375 L5.40625,-4.26563 C5.40625,-4.71354 5.34115,-5.08594 5.21094,-5.38281 C5.08073,-5.67969 4.80729,-5.82813 4.39063,-5.82813 C3.84896,-5.82813 3.40365,-5.61198 3.05469,-5.17969 C2.70573,-4.7474 2.53125,-4.25521 2.53125,-3.70313 L2.53125,-0.9375 C2.53125,-0.739583 2.63542,-0.617188 2.84375,-0.570313 C3.05208,-0.523438 3.3125,-0.5 3.625,-0.5 L3.625,0 L0.421875,0"/>
</g>

<g fill="#212121" fill-opacity="1" stroke="none" transform="matrix(0.75,0,0,0.75,417.7,59.3019)"
font-family="MS Shell Dlg 2" font-size="8.25" font-weight="400" font-style="normal" 
>
<path vector-effect="none" fill-rule="evenodd" d="M0.359375,0 L0.359375,-0.5 C0.682292,-0.5 0.945313,-0.523438 1.14844,-0.570313 C1.35156,-0.617188 1.45313,-0.739583 1.45313,-0.9375 L1.45313,-4.76563 C1.45313,-5.01563 1.41667,-5.19531 1.34375,-5.30469 C1.27083,-5.41406 1.16406,-5.48177 1.02344,-5.50781 C0.882813,-5.53385 0.661458,-5.54688 0.359375,-5.54688 L0.359375,-6.03125 L2.35938,-6.1875 L2.35938,-4.8125 C2.51563,-5.21875 2.73177,-5.54948 3.00781,-5.80469 C3.28385,-6.0599 3.61979,-6.1875 4.01563,-6.1875 C4.29688,-6.1875 4.54688,-6.10417 4.76563,-5.9375 C4.98438,-5.77083 5.09375,-5.55729 5.09375,-5.29688 C5.09375,-5.11979 5.03385,-4.96875 4.91406,-4.84375 C4.79427,-4.71875 4.64583,-4.65625 4.46875,-4.65625 C4.29167,-4.65625 4.14063,-4.71875 4.01563,-4.84375 C3.89063,-4.96875 3.82813,-5.11979 3.82813,-5.29688 C3.82813,-5.54688 3.92188,-5.72396 4.10938,-5.82813 L4.01563,-5.82813 C3.64063,-5.82813 3.33333,-5.6901 3.09375,-5.41406 C2.85417,-5.13802 2.6849,-4.79688 2.58594,-4.39063 C2.48698,-3.98438 2.4375,-3.59896 2.4375,-3.23438 L2.4375,-0.9375 C2.4375,-0.645833 2.89063,-0.5 3.79688,-0.5 L3.79688,0 L0.359375,0"/>
</g>

<g fill="#212121" fill-opacity="1" stroke="none" transform="matrix(0.75,0,0,0.75,422.008,59.3019)"
font-family="MS Shell Dlg 2" font-size="8.25" font-weight="400" font-style="normal" 
>
<path vector-effect="none" fill-rule="evenodd" d="M3.48438,0.15625 C2.91146,0.15625 2.38802,0.0078125 1.91406,-0.289063 C1.4401,-0.585938 1.06771,-0.984375 0.796875,-1.48438 C0.526042,-1.98438 0.390625,-2.51042 0.390625,-3.0625 C0.390625,-3.61458 0.515625,-4.13542 0.765625,-4.625 C1.01563,-5.11458 1.36198,-5.51302 1.80469,-5.82031 C2.2474,-6.1276 2.73958,-6.28125 3.28125,-6.28125 C3.71875,-6.28125 4.09375,-6.20833 4.40625,-6.0625 C4.71875,-5.91667 4.97917,-5.71615 5.1875,-5.46094 C5.39583,-5.20573 5.55208,-4.90625 5.65625,-4.5625 C5.76042,-4.21875 5.8125,-3.83854 5.8125,-3.42188 C5.8125,-3.29688 5.76563,-3.23438 5.67188,-3.23438 L1.60938,-3.23438 L1.60938,-3.07813 C1.60938,-2.30729 1.76563,-1.64583 2.07813,-1.09375 C2.39063,-0.541667 2.90104,-0.265625 3.60938,-0.265625 C3.90104,-0.265625 4.16667,-0.328125 4.40625,-0.453125 C4.64583,-0.578125 4.85677,-0.755208 5.03906,-0.984375 C5.22135,-1.21354 5.34375,-1.45833 5.40625,-1.71875 C5.41667,-1.75 5.4349,-1.77604 5.46094,-1.79688 C5.48698,-1.81771 5.51563,-1.82813 5.54688,-1.82813 L5.67188,-1.82813 C5.76563,-1.82813 5.8125,-1.77083 5.8125,-1.65625 C5.67708,-1.125 5.39063,-0.690104 4.95313,-0.351563 C4.51563,-0.0130208 4.02604,0.15625 3.48438,0.15625 M1.625,-3.57813 L4.8125,-3.57813 C4.8125,-3.93229 4.76563,-4.28906 4.67188,-4.64844 C4.57813,-5.00781 4.41667,-5.30729 4.1875,-5.54688 C3.95833,-5.78646 3.65625,-5.90625 3.28125,-5.90625 C2.76042,-5.90625 2.35417,-5.65885 2.0625,-5.16406 C1.77083,-4.66927 1.625,-4.14063 1.625,-3.57813 "/>
</g>

<g fill="#212121" fill-opacity="1" stroke="none" transform="matrix(0.75,0,0,0.75,426.897,59.3019)"
font-family="MS Shell Dlg 2" font-size="8.25" font-weight="400" font-style="normal" 
>
<path vector-effect="none" fill-rule="evenodd" d="M0.359375,0 L0.359375,-0.5 C0.682292,-0.5 0.945313,-0.523438 1.14844,-0.570313 C1.35156,-0.617188 1.45313,-0.739583 1.45313,-0.9375 L1.45313,-4.76563 C1.45313,-5.01563 1.41667,-5.19531 1.34375,-5.30469 C1.27083,-5.41406 1.16406,-5.48177 1.02344,-5.50781 C0.882813,-5.53385 0.661458,-5.54688 0.359375,-5.54688 L0.359375,-6.03125 L2.35938,-6.1875 L2.35938,-4.8125 C2.51563,-5.21875 2.73177,-5.54948 3.00781,-5.80469 C3.28385,-6.0599 3.61979,-6.1875 4.01563,-6.1875 C4.29688,-6.1875 4.54688,-6.10417 4.76563,-5.9375 C4.98438,-5.77083 5.09375,-5.55729 5.09375,-5.29688 C5.09375,-5.11979 5.03385,-4.96875 4.91406,-4.84375 C4.79427,-4.71875 4.64583,-4.65625 4.46875,-4.65625 C4.29167,-4.65625 4.14063,-4.71875 4.01563,-4.84375 C3.89063,-4.96875 3.82813,-5.11979 3.82813,-5.29688 C3.82813,-5.54688 3.92188,-5.72396 4.10938,-5.82813 L4.01563,-5.82813 C3.64063,-5.82813 3.33333,-5.6901 3.09375,-5.41406 C2.85417,-5.13802 2.6849,-4.79688 2.58594,-4.39063 C2.48698,-3.98438 2.4375,-3.59896 2.4375,-3.23438 L2.4375,-0.9375 C2.4375,-0.645833 2.89063,-0.5 3.79688,-0.5 L3.79688,0 L0.359375,0"/>
</g>

<g fill="#212121" fill-opacity="1" stroke="none" transform="matrix(0.75,0,0,0.75,434.872,59.3019)"
font-family="MS Shell Dlg 2" font-size="8.25" font-weight="400" font-style="normal" 
>
<path vector-effect="none" fill-rule="evenodd" d="M0.4375,0 L0.4375,-0.5 C1.39583,-0.5 1.875,-0.770833 1.875,-1.3125 L1.875,-8.98438 C1.57292,-9.04688 1.09375,-9.07813 0.4375,-9.07813 L0.4375,-9.5625 L3.10938,-9.5625 C3.15104,-9.5625 3.18229,-9.54688 3.20313,-9.51563 L8.15625,-2.21875 L8.15625,-8.25 C8.15625,-8.80208 7.67708,-9.07813 6.71875,-9.07813 L6.71875,-9.5625 L10.0469,-9.5625 L10.0469,-9.07813 C9.08854,-9.07813 8.60938,-8.80208 8.60938,-8.25 L8.60938,-0.125 C8.60938,-0.09375 8.59115,-0.0651042 8.55469,-0.0390625 C8.51823,-0.0130208 8.48958,0 8.46875,0 L8.29688,0 C8.25521,0 8.22396,-0.0208333 8.20313,-0.0625 L2.32813,-8.70313 L2.32813,-1.3125 C2.32813,-0.770833 2.80729,-0.5 3.76563,-0.5 L3.76563,0 L0.4375,0"/>
</g>

<g fill="#212121" fill-opacity="1" stroke="none" transform="matrix(0.75,0,0,0.75,443.122,59.3019)"
font-family="MS Shell Dlg 2" font-size="8.25" font-weight="400" font-style="normal" 
>
<path vector-effect="none" fill-rule="evenodd" d="M3.5,0.15625 C2.9375,0.15625 2.41667,0.0130208 1.9375,-0.273438 C1.45833,-0.559896 1.08073,-0.942708 0.804688,-1.42188 C0.528646,-1.90104 0.390625,-2.42188 0.390625,-2.98438 C0.390625,-3.41146 0.466146,-3.82292 0.617188,-4.21875 C0.768229,-4.61458 0.986979,-4.96875 1.27344,-5.28125 C1.5599,-5.59375 1.89323,-5.83854 2.27344,-6.01563 C2.65365,-6.19271 3.0625,-6.28125 3.5,-6.28125 C4.07292,-6.28125 4.59635,-6.1276 5.07031,-5.82031 C5.54427,-5.51302 5.91667,-5.10677 6.1875,-4.60156 C6.45833,-4.09635 6.59375,-3.55729 6.59375,-2.98438 C6.59375,-2.42188 6.45573,-1.90104 6.17969,-1.42188 C5.90365,-0.942708 5.52604,-0.559896 5.04688,-0.273438 C4.56771,0.0130208 4.05208,0.15625 3.5,0.15625 M3.5,-0.265625 C4.25,-0.265625 4.75,-0.533854 5,-1.07031 C5.25,-1.60677 5.375,-2.29688 5.375,-3.14063 C5.375,-3.60938 5.34896,-3.9974 5.29688,-4.30469 C5.24479,-4.61198 5.13542,-4.89063 4.96875,-5.14063 C4.86458,-5.29688 4.73177,-5.43229 4.57031,-5.54688 C4.40885,-5.66146 4.23698,-5.75 4.05469,-5.8125 C3.8724,-5.875 3.6875,-5.90625 3.5,-5.90625 C3.20833,-5.90625 2.93229,-5.83854 2.67188,-5.70313 C2.41146,-5.56771 2.19271,-5.38021 2.01563,-5.14063 C1.83854,-4.86979 1.72656,-4.57813 1.67969,-4.26563 C1.63281,-3.95313 1.60938,-3.57813 1.60938,-3.14063 C1.60938,-2.61979 1.65625,-2.15104 1.75,-1.73438 C1.84375,-1.31771 2.02865,-0.96875 2.30469,-0.6875 C2.58073,-0.40625 2.97917,-0.265625 3.5,-0.265625 "/>
</g>

<g fill="#212121" fill-opacity="1" stroke="none" transform="matrix(0.75,0,0,0.75,448.622,59.3019)"
font-family="MS Shell Dlg 2" font-size="8.25" font-weight="400" font-style="normal" 
>
<path vector-effect="none" fill-rule="evenodd" d="M0.421875,0 L0.421875,-0.5 C0.734375,-0.5 0.994792,-0.523438 1.20313,-0.570313 C1.41146,-0.617188 1.51563,-0.739583 1.51563,-0.9375 L1.51563,-4.76563 C1.51563,-5.01563 1.47656,-5.19531 1.39844,-5.30469 C1.32031,-5.41406 1.21094,-5.48177 1.07031,-5.50781 C0.929688,-5.53385 0.713542,-5.54688 0.421875,-5.54688 L0.421875,-6.03125 L2.45313,-6.1875 L2.45313,-4.8125 C2.64063,-5.21875 2.91667,-5.54948 3.28125,-5.80469 C3.64583,-6.0599 4.04688,-6.1875 4.48438,-6.1875 C5.55729,-6.1875 6.1875,-5.75 6.375,-4.875 C6.5625,-5.27083 6.83594,-5.58854 7.19531,-5.82813 C7.55469,-6.06771 7.94792,-6.1875 8.375,-6.1875 C8.80208,-6.1875 9.15885,-6.11979 9.44531,-5.98438 C9.73177,-5.84896 9.94792,-5.64063 10.0938,-5.35938 C10.2396,-5.07813 10.3125,-4.72396 10.3125,-4.29688 L10.3125,-0.9375 C10.3125,-0.739583 10.4167,-0.617188 10.625,-0.570313 C10.8333,-0.523438 11.0938,-0.5 11.4063,-0.5 L11.4063,0 L8.20313,0 L8.20313,-0.5 C8.52604,-0.5 8.78906,-0.523438 8.99219,-0.570313 C9.19531,-0.617188 9.29688,-0.739583 9.29688,-0.9375 L9.29688,-4.26563 C9.29688,-4.73438 9.23177,-5.11198 9.10156,-5.39844 C8.97135,-5.6849 8.69792,-5.82813 8.28125,-5.82813 C7.75,-5.82813 7.30729,-5.61198 6.95313,-5.17969 C6.59896,-4.7474 6.42188,-4.25521 6.42188,-3.70313 L6.42188,-0.9375 C6.42188,-0.739583 6.52604,-0.617188 6.73438,-0.570313 C6.94271,-0.523438 7.20313,-0.5 7.51563,-0.5 L7.51563,0 L4.3125,0 L4.3125,-0.5 C4.63542,-0.5 4.89844,-0.523438 5.10156,-0.570313 C5.30469,-0.617188 5.40625,-0.739583 5.40625,-0.9375 L5.40625,-4.26563 C5.40625,-4.71354 5.34115,-5.08594 5.21094,-5.38281 C5.08073,-5.67969 4.80729,-5.82813 4.39063,-5.82813 C3.84896,-5.82813 3.40365,-5.61198 3.05469,-5.17969 C2.70573,-4.7474 2.53125,-4.25521 2.53125,-3.70313 L2.53125,-0.9375 C2.53125,-0.739583 2.63542,-0.617188 2.84375,-0.570313 C3.05208,-0.523438 3.3125,-0.5 3.625,-0.5 L3.625,0 L0.421875,0"/>
</g>

<g fill="#212121" fill-opacity="1" stroke="none" transform="matrix(0.75,0,0,0.75,457.789,59.3019)"
font-family="MS Shell Dlg 2" font-size="8.25" font-weight="400" font-style="normal" 
>
<path vector-effect="none" fill-rule="evenodd" d="M0.4375,0 L0.4375,-0.5 C0.75,-0.5 1.01042,-0.523438 1.21875,-0.570313 C1.42708,-0.617188 1.53125,-0.739583 1.53125,-0.9375 L1.53125,-4.76563 C1.53125,-5.11979 1.46094,-5.33854 1.32031,-5.42188 C1.17969,-5.50521 0.90625,-5.54688 0.5,-5.54688 L0.5,-6.03125 L2.51563,-6.1875 L2.51563,-0.9375 C2.51563,-0.739583 2.60417,-0.617188 2.78125,-0.570313 C2.95833,-0.523438 3.19271,-0.5 3.48438,-0.5 L3.48438,0 L0.4375,0 M1.03125,-8.59375 C1.03125,-8.80208 1.10677,-8.98177 1.25781,-9.13281 C1.40885,-9.28385 1.58854,-9.35938 1.79688,-9.35938 C1.92188,-9.35938 2.04688,-9.32552 2.17188,-9.25781 C2.29688,-9.1901 2.39323,-9.09635 2.46094,-8.97656 C2.52865,-8.85677 2.5625,-8.72917 2.5625,-8.59375 C2.5625,-8.39583 2.48438,-8.21875 2.32813,-8.0625 C2.17188,-7.90625 1.99479,-7.82813 1.79688,-7.82813 C1.58854,-7.82813 1.40885,-7.90625 1.25781,-8.0625 C1.10677,-8.21875 1.03125,-8.39583 1.03125,-8.59375 "/>
</g>

<g fill="#212121" fill-opacity="1" stroke="none" transform="matrix(0.75,0,0,0.75,460.845,59.3019)"
font-family="MS Shell Dlg 2" font-size="8.25" font-weight="400" font-style="normal" 
>
<path vector-effect="none" fill-rule="evenodd" d="M0.421875,0 L0.421875,-0.5 C0.734375,-0.5 0.994792,-0.523438 1.20313,-0.570313 C1.41146,-0.617188 1.51563,-0.739583 1.51563,-0.9375 L1.51563,-4.76563 C1.51563,-5.01563 1.47656,-5.19531 1.39844,-5.30469 C1.32031,-5.41406 1.21094,-5.48177 1.07031,-5.50781 C0.929688,-5.53385 0.713542,-5.54688 0.421875,-5.54688 L0.421875,-6.03125 L2.45313,-6.1875 L2.45313,-4.8125 C2.64063,-5.21875 2.91667,-5.54948 3.28125,-5.80469 C3.64583,-6.0599 4.04688,-6.1875 4.48438,-6.1875 C5.13021,-6.1875 5.61458,-6.03125 5.9375,-5.71875 C6.26042,-5.40625 6.42188,-4.93229 6.42188,-4.29688 L6.42188,-0.9375 C6.42188,-0.739583 6.52604,-0.617188 6.73438,-0.570313 C6.94271,-0.523438 7.20313,-0.5 7.51563,-0.5 L7.51563,0 L4.3125,0 L4.3125,-0.5 C4.63542,-0.5 4.89844,-0.523438 5.10156,-0.570313 C5.30469,-0.617188 5.40625,-0.739583 5.40625,-0.9375 L5.40625,-4.26563 C5.40625,-4.71354 5.34115,-5.08594 5.21094,-5.38281 C5.08073,-5.67969 4.80729,-5.82813 4.39063,-5.82813 C3.84896,-5.82813 3.40365,-5.61198 3.05469,-5.17969 C2.70573,-4.7474 2.53125,-4.25521 2.53125,-3.70313 L2.53125,-0.9375 C2.53125,-0.739583 2.63542,-0.617188 2.84375,-0.570313 C3.05208,-0.523438 3.3125,-0.5 3.625,-0.5 L3.625,0 L0.421875,0"/>
</g>

<g fill="#212121" fill-opacity="1" stroke="none" transform="matrix(0.75,0,0,0.75,466.956,59.3019)"
font-family="MS Shell Dlg 2" font-size="8.25" font-weight="400" font-style="normal" 
>
<path vector-effect="none" fill-rule="evenodd" d="M3.48438,0.15625 C2.91146,0.15625 2.38802,0.0078125 1.91406,-0.289063 C1.4401,-0.585938 1.06771,-0.984375 0.796875,-1.48438 C0.526042,-1.98438 0.390625,-2.51042 0.390625,-3.0625 C0.390625,-3.61458 0.515625,-4.13542 0.765625,-4.625 C1.01563,-5.11458 1.36198,-5.51302 1.80469,-5.82031 C2.2474,-6.1276 2.73958,-6.28125 3.28125,-6.28125 C3.71875,-6.28125 4.09375,-6.20833 4.40625,-6.0625 C4.71875,-5.91667 4.97917,-5.71615 5.1875,-5.46094 C5.39583,-5.20573 5.55208,-4.90625 5.65625,-4.5625 C5.76042,-4.21875 5.8125,-3.83854 5.8125,-3.42188 C5.8125,-3.29688 5.76563,-3.23438 5.67188,-3.23438 L1.60938,-3.23438 L1.60938,-3.07813 C1.60938,-2.30729 1.76563,-1.64583 2.07813,-1.09375 C2.39063,-0.541667 2.90104,-0.265625 3.60938,-0.265625 C3.90104,-0.265625 4.16667,-0.328125 4.40625,-0.453125 C4.64583,-0.578125 4.85677,-0.755208 5.03906,-0.984375 C5.22135,-1.21354 5.34375,-1.45833 5.40625,-1.71875 C5.41667,-1.75 5.4349,-1.77604 5.46094,-1.79688 C5.48698,-1.81771 5.51563,-1.82813 5.54688,-1.82813 L5.67188,-1.82813 C5.76563,-1.82813 5.8125,-1.77083 5.8125,-1.65625 C5.67708,-1.125 5.39063,-0.690104 4.95313,-0.351563 C4.51563,-0.0130208 4.02604,0.15625 3.48438,0.15625 M1.625,-3.57813 L4.8125,-3.57813 C4.8125,-3.93229 4.76563,-4.28906 4.67188,-4.64844 C4.57813,-5.00781 4.41667,-5.30729 4.1875,-5.54688 C3.95833,-5.78646 3.65625,-5.90625 3.28125,-5.90625 C2.76042,-5.90625 2.35417,-5.65885 2.0625,-5.16406 C1.77083,-4.66927 1.625,-4.14063 1.625,-3.57813 "/>
</g>

<g fill="#212121" fill-opacity="1" stroke="none" transform="matrix(0.75,0,0,0.75,471.845,59.3019)"
font-family="MS Shell Dlg 2" font-size="8.25" font-weight="400" font-style="normal" 
>
<path vector-effect="none" fill-rule="evenodd" d="M0.4375,0 L0.4375,-0.5 C0.75,-0.5 1.01042,-0.523438 1.21875,-0.570313 C1.42708,-0.617188 1.53125,-0.739583 1.53125,-0.9375 L1.53125,-8.28125 C1.53125,-8.53125 1.49219,-8.71354 1.41406,-8.82813 C1.33594,-8.94271 1.22656,-9.01302 1.08594,-9.03906 C0.945313,-9.0651 0.729167,-9.07813 0.4375,-9.07813 L0.4375,-9.5625 L2.51563,-9.71875 L2.51563,-0.9375 C2.51563,-0.739583 2.61719,-0.617188 2.82031,-0.570313 C3.02344,-0.523438 3.28125,-0.5 3.59375,-0.5 L3.59375,0 L0.4375,0"/>
</g>

<g fill="#212121" fill-opacity="1" stroke="none" transform="matrix(0.75,0,0,0.75,474.9,59.3019)"
font-family="MS Shell Dlg 2" font-size="8.25" font-weight="400" font-style="normal" 
>
<path vector-effect="none" fill-rule="evenodd" d="M0.4375,0 L0.4375,-0.5 C0.75,-0.5 1.01042,-0.523438 1.21875,-0.570313 C1.42708,-0.617188 1.53125,-0.739583 1.53125,-0.9375 L1.53125,-8.28125 C1.53125,-8.53125 1.49219,-8.71354 1.41406,-8.82813 C1.33594,-8.94271 1.22656,-9.01302 1.08594,-9.03906 C0.945313,-9.0651 0.729167,-9.07813 0.4375,-9.07813 L0.4375,-9.5625 L2.51563,-9.71875 L2.51563,-0.9375 C2.51563,-0.739583 2.61719,-0.617188 2.82031,-0.570313 C3.02344,-0.523438 3.28125,-0.5 3.59375,-0.5 L3.59375,0 L0.4375,0"/>
</g>

<g fill="#212121" fill-opacity="1" stroke="none" transform="matrix(0.75,0,0,0.75,477.956,59.3019)"
font-family="MS Shell Dlg 2" font-size="8.25" font-weight="400" font-style="normal" 
>
<path vector-effect="none" fill-rule="evenodd" d="M3.48438,0.15625 C2.91146,0.15625 2.38802,0.0078125 1.91406,-0.289063 C1.4401,-0.585938 1.06771,-0.984375 0.796875,-1.48438 C0.526042,-1.98438 0.390625,-2.51042 0.390625,-3.0625 C0.390625,-3.61458 0.515625,-4.13542 0.765625,-4.625 C1.01563,-5.11458 1.36198,-5.51302 1.80469,-5.82031 C2.2474,-6.1276 2.73958,-6.28125 3.28125,-6.28125 C3.71875,-6.28125 4.09375,-6.20833 4.40625,-6.0625 C4.71875,-5.91667 4.97917,-5.71615 5.1875,-5.46094 C5.39583,-5.20573 5.55208,-4.90625 5.65625,-4.5625 C5.76042,-4.21875 5.8125,-3.83854 5.8125,-3.42188 C5.8125,-3.29688 5.76563,-3.23438 5.67188,-3.23438 L1.60938,-3.23438 L1.60938,-3.07813 C1.60938,-2.30729 1.76563,-1.64583 2.07813,-1.09375 C2.39063,-0.541667 2.90104,-0.265625 3.60938,-0.265625 C3.90104,-0.265625 4.16667,-0.328125 4.40625,-0.453125 C4.64583,-0.578125 4.85677,-0.755208 5.03906,-0.984375 C5.22135,-1.21354 5.34375,-1.45833 5.40625,-1.71875 C5.41667,-1.75 5.4349,-1.77604 5.46094,-1.79688 C5.48698,-1.81771 5.51563,-1.82813 5.54688,-1.82813 L5.67188,-1.82813 C5.76563,-1.82813 5.8125,-1.77083 5.8125,-1.65625 C5.67708,-1.125 5.39063,-0.690104 4.95313,-0.351563 C4.51563,-0.0130208 4.02604,0.15625 3.48438,0.15625 M1.625,-3.57813 L4.8125,-3.57813 C4.8125,-3.93229 4.76563,-4.28906 4.67188,-4.64844 C4.57813,-5.00781 4.41667,-5.30729 4.1875,-5.54688 C3.95833,-5.78646 3.65625,-5.90625 3.28125,-5.90625 C2.76042,-5.90625 2.35417,-5.65885 2.0625,-5.16406 C1.77083,-4.66927 1.625,-4.14063 1.625,-3.57813 "/>
</g>

<g fill="#212121" fill-opacity="1" stroke="none" transform="matrix(0.75,0,0,0.75,482.845,59.3019)"
font-family="MS Shell Dlg 2" font-size="8.25" font-weight="400" font-style="normal" 
>
<path vector-effect="none" fill-rule="evenodd" d="M0.359375,0 L0.359375,-0.5 C0.682292,-0.5 0.945313,-0.523438 1.14844,-0.570313 C1.35156,-0.617188 1.45313,-0.739583 1.45313,-0.9375 L1.45313,-4.76563 C1.45313,-5.01563 1.41667,-5.19531 1.34375,-5.30469 C1.27083,-5.41406 1.16406,-5.48177 1.02344,-5.50781 C0.882813,-5.53385 0.661458,-5.54688 0.359375,-5.54688 L0.359375,-6.03125 L2.35938,-6.1875 L2.35938,-4.8125 C2.51563,-5.21875 2.73177,-5.54948 3.00781,-5.80469 C3.28385,-6.0599 3.61979,-6.1875 4.01563,-6.1875 C4.29688,-6.1875 4.54688,-6.10417 4.76563,-5.9375 C4.98438,-5.77083 5.09375,-5.55729 5.09375,-5.29688 C5.09375,-5.11979 5.03385,-4.96875 4.91406,-4.84375 C4.79427,-4.71875 4.64583,-4.65625 4.46875,-4.65625 C4.29167,-4.65625 4.14063,-4.71875 4.01563,-4.84375 C3.89063,-4.96875 3.82813,-5.11979 3.82813,-5.29688 C3.82813,-5.54688 3.92188,-5.72396 4.10938,-5.82813 L4.01563,-5.82813 C3.64063,-5.82813 3.33333,-5.6901 3.09375,-5.41406 C2.85417,-5.13802 2.6849,-4.79688 2.58594,-4.39063 C2.48698,-3.98438 2.4375,-3.59896 2.4375,-3.23438 L2.4375,-0.9375 C2.4375,-0.645833 2.89063,-0.5 3.79688,-0.5 L3.79688,0 L0.359375,0"/>
</g>

<g fill="#212121" fill-opacity="1" stroke="none" transform="matrix(0.75,0,0,0.75,490.82,59.3019)"
font-family="MS Shell Dlg 2" font-size="8.25" font-weight="400" font-style="normal" 
>
<path vector-effect="none" fill-rule="evenodd" d="M4.35938,0.15625 L1.5,-8.625 C1.42708,-8.82292 1.28646,-8.94792 1.07813,-9 C0.869792,-9.05208 0.59375,-9.07813 0.25,-9.07813 L0.25,-9.5625 L4,-9.5625 L4,-9.07813 C3.21875,-9.07813 2.82813,-8.95313 2.82813,-8.70313 L2.82813,-8.625 L5.0625,-1.73438 L6.96875,-7.625 L6.65625,-8.625 C6.58333,-8.82292 6.4401,-8.94792 6.22656,-9 C6.01302,-9.05208 5.73958,-9.07813 5.40625,-9.07813 L5.40625,-9.5625 L9.15625,-9.5625 L9.15625,-9.07813 C8.36458,-9.07813 7.96875,-8.95313 7.96875,-8.70313 C7.96875,-8.68229 7.97135,-8.65885 7.97656,-8.63281 C7.98177,-8.60677 7.98438,-8.58854 7.98438,-8.57813 L10.2188,-1.73438 L12.3125,-8.25 C12.3229,-8.27083 12.3281,-8.3125 12.3281,-8.375 C12.3281,-8.625 12.1979,-8.80469 11.9375,-8.91406 C11.6771,-9.02344 11.4063,-9.07813 11.125,-9.07813 L11.125,-9.5625 L14.125,-9.5625 L14.125,-9.07813 C13.3854,-9.07813 12.9271,-8.80208 12.75,-8.25 L10.0156,0.15625 C9.98438,0.260417 9.91667,0.3125 9.8125,0.3125 L9.71875,0.3125 C9.61458,0.3125 9.54688,0.260417 9.51563,0.15625 L7.20313,-6.96875 L4.875,0.15625 C4.84375,0.260417 4.77083,0.3125 4.65625,0.3125 L4.5625,0.3125 C4.45833,0.3125 4.39063,0.260417 4.35938,0.15625 "/>
</g>

<g fill="#212121" fill-opacity="1" stroke="none" transform="matrix(0.75,0,0,0.75,501.208,59.3019)"
font-family="MS Shell Dlg 2" font-size="8.25" font-weight="400" font-style="normal" 
>
<path vector-effect="none" fill-rule="evenodd" d="M3.48438,0.15625 C2.91146,0.15625 2.38802,0.0078125 1.91406,-0.289063 C1.4401,-0.585938 1.06771,-0.984375 0.796875,-1.48438 C0.526042,-1.98438 0.390625,-2.51042 0.390625,-3.0625 C0.390625,-3.61458 0.515625,-4.13542 0.765625,-4.625 C1.01563,-5.11458 1.36198,-5.51302 1.80469,-5.82031 C2.2474,-6.1276 2.73958,-6.28125 3.28125,-6.28125 C3.71875,-6.28125 4.09375,-6.20833 4.40625,-6.0625 C4.71875,-5.91667 4.97917,-5.71615 5.1875,-5.46094 C5.39583,-5.20573 5.55208,-4.90625 5.65625,-4.5625 C5.76042,-4.21875 5.8125,-3.83854 5.8125,-3.42188 C5.8125,-3.29688 5.76563,-3.23438 5.67188,-3.23438 L1.60938,-3.23438 L1.60938,-3.07813 C1.60938,-2.30729 1.76563,-1.64583 2.07813,-1.09375 C2.39063,-0.541667 2.90104,-0.265625 3.60938,-0.265625 C3.90104,-0.265625 4.16667,-0.328125 4.40625,-0.453125 C4.64583,-0.578125 4.85677,-0.755208 5.03906,-0.984375 C5.22135,-1.21354 5.34375,-1.45833 5.40625,-1.71875 C5.41667,-1.75 5.4349,-1.77604 5.46094,-1.79688 C5.48698,-1.81771 5.51563,-1.82813 5.54688,-1.82813 L5.67188,-1.82813 C5.76563,-1.82813 5.8125,-1.77083 5.8125,-1.65625 C5.67708,-1.125 5.39063,-0.690104 4.95313,-0.351563 C4.51563,-0.0130208 4.02604,0.15625 3.48438,0.15625 M1.625,-3.57813 L4.8125,-3.57813 C4.8125,-3.93229 4.76563,-4.28906 4.67188,-4.64844 C4.57813,-5.00781 4.41667,-5.30729 4.1875,-5.54688 C3.95833,-5.78646 3.65625,-5.90625 3.28125,-5.90625 C2.76042,-5.90625 2.35417,-5.65885 2.0625,-5.16406 C1.77083,-4.66927 1.625,-4.14063 1.625,-3.57813 "/>
</g>

<g fill="#212121" fill-opacity="1" stroke="none" transform="matrix(0.75,0,0,0.75,506.097,59.3019)"
font-family="MS Shell Dlg 2" font-size="8.25" font-weight="400" font-style="normal" 
>
<path vector-effect="none" fill-rule="evenodd" d="M0.359375,0 L0.359375,-0.5 C0.682292,-0.5 0.945313,-0.523438 1.14844,-0.570313 C1.35156,-0.617188 1.45313,-0.739583 1.45313,-0.9375 L1.45313,-4.76563 C1.45313,-5.01563 1.41667,-5.19531 1.34375,-5.30469 C1.27083,-5.41406 1.16406,-5.48177 1.02344,-5.50781 C0.882813,-5.53385 0.661458,-5.54688 0.359375,-5.54688 L0.359375,-6.03125 L2.35938,-6.1875 L2.35938,-4.8125 C2.51563,-5.21875 2.73177,-5.54948 3.00781,-5.80469 C3.28385,-6.0599 3.61979,-6.1875 4.01563,-6.1875 C4.29688,-6.1875 4.54688,-6.10417 4.76563,-5.9375 C4.98438,-5.77083 5.09375,-5.55729 5.09375,-5.29688 C5.09375,-5.11979 5.03385,-4.96875 4.91406,-4.84375 C4.79427,-4.71875 4.64583,-4.65625 4.46875,-4.65625 C4.29167,-4.65625 4.14063,-4.71875 4.01563,-4.84375 C3.89063,-4.96875 3.82813,-5.11979 3.82813,-5.29688 C3.82813,-5.54688 3.92188,-5.72396 4.10938,-5.82813 L4.01563,-5.82813 C3.64063,-5.82813 3.33333,-5.6901 3.09375,-5.41406 C2.85417,-5.13802 2.6849,-4.79688 2.58594,-4.39063 C2.48698,-3.98438 2.4375,-3.59896 2.4375,-3.23438 L2.4375,-0.9375 C2.4375,-0.645833 2.89063,-0.5 3.79688,-0.5 L3.79688,0 L0.359375,0"/>
</g>

<g fill="#212121" fill-opacity="1" stroke="none" transform="matrix(0.75,0,0,0.75,510.406,59.3019)"
font-family="MS Shell Dlg 2" font-size="8.25" font-weight="400" font-style="normal" 
>
<path vector-effect="none" fill-rule="evenodd" d="M1.42188,-1.6875 L1.42188,-5.54688 L0.265625,-5.54688 L0.265625,-5.90625 C0.880208,-5.90625 1.33073,-6.1901 1.61719,-6.75781 C1.90365,-7.32552 2.04688,-7.94271 2.04688,-8.60938 L2.45313,-8.60938 L2.45313,-6.03125 L4.42188,-6.03125 L4.42188,-5.54688 L2.45313,-5.54688 L2.45313,-1.71875 C2.45313,-1.33333 2.51823,-0.994792 2.64844,-0.703125 C2.77865,-0.411458 3.01042,-0.265625 3.34375,-0.265625 C3.66667,-0.265625 3.89844,-0.419271 4.03906,-0.726563 C4.17969,-1.03385 4.25,-1.36458 4.25,-1.71875 L4.25,-2.54688 L4.65625,-2.54688 L4.65625,-1.6875 C4.65625,-1.39583 4.60156,-1.10677 4.49219,-0.820313 C4.38281,-0.533854 4.22396,-0.299479 4.01563,-0.117188 C3.80729,0.0651042 3.55208,0.15625 3.25,0.15625 C2.6875,0.15625 2.24219,-0.0104167 1.91406,-0.34375 C1.58594,-0.677083 1.42188,-1.125 1.42188,-1.6875 "/>
</g>

<g fill="none" stroke="#212121" stroke-opacity="1" stroke-width="1.06667" stroke-linecap="butt" stroke-linejoin="miter" stroke-miterlimit="2" transform="matrix(0.75,0,0,0.75,-17.55,-11.64)"
font-family="MS Shell Dlg 2" font-size="8.25" font-weight="400" font-style="normal" 
>
<path vector-effect="none" fill-rule="evenodd" d="M504,102 L504,23 L710,23 L710,102 L504,102"/>
</g>
</g>
</svg>
