<?xml version="1.0" encoding="UTF-8" standalone="no"?>
<svg width="107.597mm" height="86.7833mm"
 viewBox="0 0 305 246"
 xmlns="http://www.w3.org/2000/svg" xmlns:xlink="http://www.w3.org/1999/xlink"  version="1.2" baseProfile="tiny">
<title>Qt SVG Document</title>
<desc>MATLAB, The MathWorks, Inc. Version 25.2.0.3055257 R2025b Update 2</desc>
<defs>
</defs>
<g fill="none" stroke="black" stroke-width="1" fill-rule="evenodd" stroke-linecap="square" stroke-linejoin="bevel" >

<g fill="#ffffff" fill-opacity="1" stroke="none" transform="matrix(0.75,0,0,0.75,-10.8,-13.14)"
font-family="MS Shell Dlg 2" font-size="8.25" font-weight="400" font-style="normal" 
>
<path vector-effect="none" fill-rule="evenodd" d="M13,16 L421,16 L421,345 L13,345 L13,16"/>
</g>

<g fill="#ffffff" fill-opacity="1" stroke="none" transform="matrix(7.5e-05,0,0,7.5e-05,-10.8,-13.14)"
font-family="MS Shell Dlg 2" font-size="8.25" font-weight="400" font-style="normal" 
>
<path vector-effect="none" fill-rule="evenodd" d="M590000,250000 L590000,2.98e+06 L4.11e+06,2.98e+06 L4.11e+06,250000 L590000,250000"/>
</g>

<g fill="#212121" fill-opacity="0.25098" stroke="#212121" stroke-opacity="0.25098" stroke-dasharray="1,3" stroke-dashoffset="0" stroke-width="1.06667" stroke-linecap="butt" stroke-linejoin="round" transform="matrix(0.75,0,0,0.75,-10.8,-13.14)"
font-family="MS Shell Dlg 2" font-size="8.25" font-weight="400" font-style="normal" 
>
<polyline fill="none" vector-effect="none" points="59,25 59,298 " />
<polyline fill="none" vector-effect="none" points="176.333,25 176.333,298 " />
<polyline fill="none" vector-effect="none" points="293.667,25 293.667,298 " />
<polyline fill="none" vector-effect="none" points="411,25 411,298 " />
<polyline fill="none" vector-effect="none" points="59,298 411,298 " />
<polyline fill="none" vector-effect="none" points="59,243.4 411,243.4 " />
<polyline fill="none" vector-effect="none" points="59,188.8 411,188.8 " />
<polyline fill="none" vector-effect="none" points="59,134.2 411,134.2 " />
<polyline fill="none" vector-effect="none" points="59,79.6 411,79.6 " />
<polyline fill="none" vector-effect="none" points="59,25 411,25 " />
</g>

<g fill="#212121" fill-opacity="1" stroke="none" transform="matrix(0.75,0,0,0.75,118.2,241.81)"
font-family="MS Shell Dlg 2" font-size="8.25" font-weight="400" font-style="normal" 
>
<path vector-effect="none" fill-rule="evenodd" d="M10.8125,0 L7.98438,0 L4.40625,-4.95313 C4.13542,-4.94271 3.91667,-4.9375 3.75,-4.9375 C3.6875,-4.9375 3.61719,-4.9401 3.53906,-4.94531 C3.46094,-4.95052 3.38021,-4.95313 3.29688,-4.95313 L3.29688,-1.875 C3.29688,-1.20833 3.36979,-0.796875 3.51563,-0.640625 C3.71354,-0.411458 4.01042,-0.296875 4.40625,-0.296875 L4.8125,-0.296875 L4.8125,0 L0.28125,0 L0.28125,-0.296875 L0.671875,-0.296875 C1.11979,-0.296875 1.44271,-0.442708 1.64063,-0.734375 C1.74479,-0.890625 1.79688,-1.27083 1.79688,-1.875 L1.79688,-8.71875 C1.79688,-9.38542 1.72396,-9.80208 1.57813,-9.96875 C1.38021,-10.1979 1.07813,-10.3125 0.671875,-10.3125 L0.28125,-10.3125 L0.28125,-10.5938 L4.14063,-10.5938 C5.26563,-10.5938 6.09375,-10.513 6.625,-10.3516 C7.15625,-10.1901 7.60938,-9.88802 7.98438,-9.44531 C8.35938,-9.0026 8.54688,-8.47917 8.54688,-7.875 C8.54688,-7.21875 8.33333,-6.65104 7.90625,-6.17188 C7.47917,-5.69271 6.82292,-5.35417 5.9375,-5.15625 L8.125,-2.125 C8.625,-1.42708 9.05469,-0.963542 9.41406,-0.734375 C9.77344,-0.505208 10.2396,-0.359375 10.8125,-0.296875 L10.8125,0 M3.29688,-5.45313 C3.39063,-5.45313 3.47396,-5.45052 3.54688,-5.44531 C3.61979,-5.4401 3.68229,-5.4375 3.73438,-5.4375 C4.74479,-5.4375 5.50521,-5.65625 6.01563,-6.09375 C6.52604,-6.53125 6.78125,-7.08854 6.78125,-7.76563 C6.78125,-8.43229 6.57552,-8.97135 6.16406,-9.38281 C5.7526,-9.79427 5.20313,-10 4.51563,-10 C4.21354,-10 3.80729,-9.95313 3.29688,-9.85938 L3.29688,-5.45313 M15.5625,-1.03125 C14.8229,-0.46875 14.3594,-0.140625 14.1719,-0.046875 C13.8906,0.0885417 13.5938,0.15625 13.2813,0.15625 C12.7813,0.15625 12.3724,-0.015625 12.0547,-0.359375 C11.737,-0.703125 11.5781,-1.15104 11.5781,-1.70313 C11.5781,-2.04688 11.6563,-2.34896 11.8125,-2.60938 C12.0208,-2.96354 12.3906,-3.29688 12.9219,-3.60938 C13.4531,-3.92188 14.3333,-4.30208 15.5625,-4.75 L15.5625,-5.03125 C15.5625,-5.73958 15.4479,-6.22656 15.2188,-6.49219 C14.9896,-6.75781 14.6615,-6.89063 14.2344,-6.89063 C13.901,-6.89063 13.6406,-6.80208 13.4531,-6.625 C13.2552,-6.44792 13.1563,-6.24479 13.1563,-6.01563 L13.1719,-5.5625 C13.1719,-5.32292 13.1094,-5.13802 12.9844,-5.00781 C12.8594,-4.8776 12.6979,-4.8125 12.5,-4.8125 C12.3125,-4.8125 12.1563,-4.88021 12.0313,-5.01563 C11.9063,-5.15104 11.8438,-5.33854 11.8438,-5.57813 C11.8438,-6.02604 12.0729,-6.4375 12.5313,-6.8125 C12.9896,-7.1875 13.6354,-7.375 14.4688,-7.375 C15.1042,-7.375 15.625,-7.26563 16.0313,-7.04688 C16.3333,-6.89063 16.5573,-6.64063 16.7031,-6.29688 C16.7969,-6.06771 16.8438,-5.60938 16.8438,-4.92188 L16.8438,-2.48438 C16.8438,-1.80729 16.8568,-1.39063 16.8828,-1.23438 C16.9089,-1.07813 16.9531,-0.973958 17.0156,-0.921875 C17.0781,-0.869792 17.1458,-0.84375 17.2188,-0.84375 C17.3021,-0.84375 17.375,-0.864583 17.4375,-0.90625 C17.5521,-0.96875 17.7656,-1.15625 18.0781,-1.46875 L18.0781,-1.03125 C17.4948,-0.25 16.9375,0.140625 16.4063,0.140625 C16.1458,0.140625 15.9401,0.0520833 15.7891,-0.125 C15.638,-0.302083 15.5625,-0.604167 15.5625,-1.03125 M15.5625,-1.54688 L15.5625,-4.26563 C14.7708,-3.95313 14.2604,-3.73438 14.0313,-3.60938 C13.625,-3.38021 13.3333,-3.14063 13.1563,-2.89063 C12.9792,-2.64063 12.8906,-2.36458 12.8906,-2.0625 C12.8906,-1.6875 13.0026,-1.3776 13.2266,-1.13281 C13.4505,-0.888021 13.7083,-0.765625 14,-0.765625 C14.3958,-0.765625 14.9167,-1.02604 15.5625,-1.54688 M23.5625,-0.8125 C23.2083,-0.447917 22.8646,-0.184896 22.5313,-0.0234375 C22.1979,0.138021 21.8385,0.21875 21.4531,0.21875 C20.6719,0.21875 19.9896,-0.109375 19.4063,-0.765625 C18.8229,-1.42188 18.5313,-2.26042 18.5313,-3.28125 C18.5313,-4.3125 18.8542,-5.2526 19.5,-6.10156 C20.1458,-6.95052 20.9792,-7.375 22,-7.375 C22.625,-7.375 23.1458,-7.17708 23.5625,-6.78125 L23.5625,-8.09375 C23.5625,-8.91667 23.5417,-9.42188 23.5,-9.60938 C23.4583,-9.79688 23.3958,-9.92448 23.3125,-9.99219 C23.2292,-10.0599 23.125,-10.0938 23,-10.0938 C22.8646,-10.0938 22.6875,-10.0521 22.4688,-9.96875 L22.3594,-10.2344 L24.5,-11.1094 L24.8438,-11.1094 L24.8438,-2.84375 C24.8438,-2 24.8646,-1.48698 24.9063,-1.30469 C24.9479,-1.1224 25.0104,-0.994792 25.0938,-0.921875 C25.1771,-0.848958 25.276,-0.8125 25.3906,-0.8125 C25.5365,-0.8125 25.724,-0.854167 25.9531,-0.9375 L26.0469,-0.671875 L23.9219,0.21875 L23.5625,0.21875 L23.5625,-0.8125 M23.5625,-1.35938 L23.5625,-5.04688 C23.5313,-5.40104 23.4375,-5.72396 23.2813,-6.01563 C23.125,-6.30729 22.9167,-6.52604 22.6563,-6.67188 C22.3958,-6.81771 22.1458,-6.89063 21.9063,-6.89063 C21.4479,-6.89063 21.0365,-6.6875 20.6719,-6.28125 C20.2031,-5.73958 19.9688,-4.94792 19.9688,-3.90625 C19.9688,-2.85417 20.1979,-2.04688 20.6563,-1.48438 C21.1146,-0.921875 21.625,-0.640625 22.1875,-0.640625 C22.6563,-0.640625 23.1146,-0.880208 23.5625,-1.35938 M28.3281,-11.1094 C28.5469,-11.1094 28.7318,-11.0339 28.8828,-10.8828 C29.0339,-10.7318 29.1094,-10.5469 29.1094,-10.3281 C29.1094,-10.1094 29.0339,-9.92188 28.8828,-9.76563 C28.7318,-9.60938 28.5469,-9.53125 28.3281,-9.53125 C28.1094,-9.53125 27.9219,-9.60938 27.7656,-9.76563 C27.6094,-9.92188 27.5313,-10.1094 27.5313,-10.3281 C27.5313,-10.5469 27.6068,-10.7318 27.7578,-10.8828 C27.9089,-11.0339 28.099,-11.1094 28.3281,-11.1094 M28.9688,-7.375 L28.9688,-1.625 C28.9688,-1.17708 29.0026,-0.877604 29.0703,-0.726563 C29.138,-0.575521 29.2344,-0.463542 29.3594,-0.390625 C29.4844,-0.317708 29.7188,-0.28125 30.0625,-0.28125 L30.0625,0 L26.5781,0 L26.5781,-0.28125 C26.9323,-0.28125 27.1693,-0.315104 27.2891,-0.382813 C27.4089,-0.450521 27.5026,-0.5625 27.5703,-0.71875 C27.638,-0.875 27.6719,-1.17708 27.6719,-1.625 L27.6719,-4.375 C27.6719,-5.15625 27.651,-5.66146 27.6094,-5.89063 C27.5677,-6.05729 27.5078,-6.17188 27.4297,-6.23438 C27.3516,-6.29688 27.2448,-6.32813 27.1094,-6.32813 C26.9635,-6.32813 26.7865,-6.29167 26.5781,-6.21875 L26.4688,-6.5 L28.625,-7.375 L28.9688,-7.375 M36.7813,-7.15625 L36.7813,-2.82813 C36.7813,-1.99479 36.7995,-1.48698 36.8359,-1.30469 C36.8724,-1.1224 36.9349,-0.994792 37.0234,-0.921875 C37.112,-0.848958 37.2135,-0.8125 37.3281,-0.8125 C37.4844,-0.8125 37.6667,-0.854167 37.875,-0.9375 L37.9844,-0.671875 L35.8438,0.21875 L35.4844,0.21875 L35.4844,-1.29688 C34.8698,-0.630208 34.401,-0.210938 34.0781,-0.0390625 C33.7552,0.132813 33.4167,0.21875 33.0625,0.21875 C32.6563,0.21875 32.3073,0.101563 32.0156,-0.132813 C31.724,-0.367188 31.5208,-0.666667 31.4063,-1.03125 C31.2917,-1.39583 31.2344,-1.91146 31.2344,-2.57813 L31.2344,-5.76563 C31.2344,-6.10938 31.1979,-6.34635 31.125,-6.47656 C31.0521,-6.60677 30.9427,-6.70573 30.7969,-6.77344 C30.651,-6.84115 30.3906,-6.875 30.0156,-6.875 L30.0156,-7.15625 L32.5313,-7.15625 L32.5313,-2.375 C32.5313,-1.70833 32.6458,-1.27083 32.875,-1.0625 C33.1042,-0.854167 33.3854,-0.75 33.7188,-0.75 C33.9375,-0.75 34.1901,-0.820313 34.4766,-0.960938 C34.763,-1.10156 35.099,-1.36979 35.4844,-1.76563 L35.4844,-5.8125 C35.4844,-6.21875 35.4115,-6.49479 35.2656,-6.64063 C35.1198,-6.78646 34.8125,-6.86458 34.3438,-6.875 L34.3438,-7.15625 L36.7813,-7.15625 M43.125,-7.375 L43.125,-4.9375 L42.875,-4.9375 C42.6771,-5.69792 42.4219,-6.21615 42.1094,-6.49219 C41.7969,-6.76823 41.401,-6.90625 40.9219,-6.90625 C40.5573,-6.90625 40.263,-6.8099 40.0391,-6.61719 C39.8151,-6.42448 39.7031,-6.21354 39.7031,-5.98438 C39.7031,-5.69271 39.7865,-5.44271 39.9531,-5.23438 C40.1198,-5.01563 40.4479,-4.78646 40.9375,-4.54688 L42.0781,-4 C43.1406,-3.47917 43.6719,-2.79688 43.6719,-1.95313 C43.6719,-1.30729 43.4245,-0.783854 42.9297,-0.382813 C42.4349,0.0182292 41.8854,0.21875 41.2813,0.21875 C40.8438,0.21875 40.3438,0.140625 39.7813,-0.015625 C39.6042,-0.0677083 39.4635,-0.09375 39.3594,-0.09375 C39.2344,-0.09375 39.1406,-0.0260417 39.0781,0.109375 L38.8125,0.109375 L38.8125,-2.45313 L39.0781,-2.45313 C39.224,-1.72396 39.5026,-1.17448 39.9141,-0.804688 C40.3255,-0.434896 40.7865,-0.25 41.2969,-0.25 C41.651,-0.25 41.9427,-0.354167 42.1719,-0.5625 C42.401,-0.770833 42.5156,-1.02604 42.5156,-1.32813 C42.5156,-1.68229 42.388,-1.98177 42.1328,-2.22656 C41.8776,-2.47135 41.3724,-2.78125 40.6172,-3.15625 C39.862,-3.53125 39.3698,-3.86979 39.1406,-4.17188 C38.901,-4.47396 38.7813,-4.84896 38.7813,-5.29688 C38.7813,-5.89063 38.9844,-6.38542 39.3906,-6.78125 C39.7969,-7.17708 40.3177,-7.375 40.9531,-7.375 C41.2344,-7.375 41.5781,-7.3125 41.9844,-7.1875 C42.2448,-7.11458 42.4219,-7.07813 42.5156,-7.07813 C42.599,-7.07813 42.6641,-7.09635 42.7109,-7.13281 C42.7578,-7.16927 42.8125,-7.25 42.875,-7.375 L43.125,-7.375 M48.8438,-2.60938 L49.1875,-2.60938 C49.25,-1.90104 49.4766,-1.35677 49.8672,-0.976563 C50.2578,-0.596354 50.8385,-0.369792 51.6094,-0.296875 L51.6094,-4.85938 C50.4427,-5.57813 49.6615,-6.21875 49.2656,-6.78125 C48.9948,-7.17708 48.8594,-7.65625 48.8594,-8.21875 C48.8594,-8.86458 49.0964,-9.42708 49.5703,-9.90625 C50.0443,-10.3854 50.724,-10.6719 51.6094,-10.7656 L51.6094,-11.4844 L52.1094,-11.4844 L52.1094,-10.7656 C52.5365,-10.7448 52.8958,-10.6979 53.1875,-10.625 C53.3438,-10.5833 53.8438,-10.401 54.6875,-10.0781 L54.6875,-7.75 L54.3906,-7.75 C54.3177,-8.57292 54.1016,-9.17708 53.7422,-9.5625 C53.3828,-9.94792 52.8385,-10.1771 52.1094,-10.25 L52.1094,-6.28125 C53.4219,-5.36458 54.2656,-4.6875 54.6406,-4.25 C55.0156,-3.8125 55.2031,-3.27083 55.2031,-2.625 C55.2031,-1.90625 54.9297,-1.27344 54.3828,-0.726563 C53.8359,-0.179688 53.0781,0.135417 52.1094,0.21875 L52.1094,1.21875 L51.6094,1.21875 L51.6094,0.21875 C51.1198,0.197917 50.6641,0.140625 50.2422,0.046875 C49.8203,-0.046875 49.3542,-0.197917 48.8438,-0.40625 L48.8438,-2.60938 M51.6094,-6.60938 L51.6094,-10.2344 C51.0885,-10.1719 50.7031,-10.0078 50.4531,-9.74219 C50.2031,-9.47656 50.0781,-9.14063 50.0781,-8.73438 C50.0781,-8.34896 50.1927,-7.99219 50.4219,-7.66406 C50.651,-7.33594 51.0469,-6.98438 51.6094,-6.60938 M52.1094,-0.296875 C52.5052,-0.359375 52.8073,-0.453125 53.0156,-0.578125 C53.3073,-0.765625 53.5365,-1.00521 53.7031,-1.29688 C53.8698,-1.58854 53.9531,-1.90104 53.9531,-2.23438 C53.9531,-2.57813 53.8516,-2.90365 53.6484,-3.21094 C53.4453,-3.51823 52.9323,-3.95313 52.1094,-4.51563 L52.1094,-0.296875 M56.6563,-11.1094 L60.4844,0.21875 L59.8594,0.21875 L56.0313,-11.1094 L56.6563,-11.1094 M65.125,-7.375 L65.125,-4.9375 L64.875,-4.9375 C64.6771,-5.69792 64.4219,-6.21615 64.1094,-6.49219 C63.7969,-6.76823 63.401,-6.90625 62.9219,-6.90625 C62.5573,-6.90625 62.263,-6.8099 62.0391,-6.61719 C61.8151,-6.42448 61.7031,-6.21354 61.7031,-5.98438 C61.7031,-5.69271 61.7865,-5.44271 61.9531,-5.23438 C62.1198,-5.01563 62.4479,-4.78646 62.9375,-4.54688 L64.0781,-4 C65.1406,-3.47917 65.6719,-2.79688 65.6719,-1.95313 C65.6719,-1.30729 65.4245,-0.783854 64.9297,-0.382813 C64.4349,0.0182292 63.8854,0.21875 63.2813,0.21875 C62.8438,0.21875 62.3438,0.140625 61.7813,-0.015625 C61.6042,-0.0677083 61.4635,-0.09375 61.3594,-0.09375 C61.2344,-0.09375 61.1406,-0.0260417 61.0781,0.109375 L60.8125,0.109375 L60.8125,-2.45313 L61.0781,-2.45313 C61.224,-1.72396 61.5026,-1.17448 61.9141,-0.804688 C62.3255,-0.434896 62.7865,-0.25 63.2969,-0.25 C63.651,-0.25 63.9427,-0.354167 64.1719,-0.5625 C64.401,-0.770833 64.5156,-1.02604 64.5156,-1.32813 C64.5156,-1.68229 64.388,-1.98177 64.1328,-2.22656 C63.8776,-2.47135 63.3724,-2.78125 62.6172,-3.15625 C61.862,-3.53125 61.3698,-3.86979 61.1406,-4.17188 C60.901,-4.47396 60.7813,-4.84896 60.7813,-5.29688 C60.7813,-5.89063 60.9844,-6.38542 61.3906,-6.78125 C61.7969,-7.17708 62.3177,-7.375 62.9531,-7.375 C63.2344,-7.375 63.5781,-7.3125 63.9844,-7.1875 C64.2448,-7.11458 64.4219,-7.07813 64.5156,-7.07813 C64.599,-7.07813 64.6641,-7.09635 64.7109,-7.13281 C64.7578,-7.16927 64.8125,-7.25 64.875,-7.375 L65.125,-7.375 M66.0938,-7.15625 L69.4375,-7.15625 L69.4375,-6.875 L69.2656,-6.875 C69.0365,-6.875 68.862,-6.82292 68.7422,-6.71875 C68.6224,-6.61458 68.5625,-6.48958 68.5625,-6.34375 C68.5625,-6.13542 68.651,-5.85417 68.8281,-5.5 L70.5625,-1.89063 L72.1719,-5.84375 C72.2552,-6.05208 72.2969,-6.26042 72.2969,-6.46875 C72.2969,-6.5625 72.2813,-6.63542 72.25,-6.6875 C72.2083,-6.73958 72.1432,-6.78385 72.0547,-6.82031 C71.9661,-6.85677 71.8073,-6.875 71.5781,-6.875 L71.5781,-7.15625 L73.9063,-7.15625 L73.9063,-6.875 C73.7188,-6.85417 73.5729,-6.8125 73.4688,-6.75 C73.3646,-6.6875 73.25,-6.56771 73.125,-6.39063 C73.0729,-6.31771 72.9844,-6.11979 72.8594,-5.79688 L69.9375,1.35938 C69.6563,2.04688 69.2891,2.56771 68.8359,2.92188 C68.3828,3.27604 67.9427,3.45313 67.5156,3.45313 C67.2135,3.45313 66.9635,3.36458 66.7656,3.1875 C66.5677,3.01042 66.4688,2.80729 66.4688,2.57813 C66.4688,2.35938 66.5391,2.1849 66.6797,2.05469 C66.8203,1.92448 67.0156,1.85938 67.2656,1.85938 C67.4427,1.85938 67.6771,1.91667 67.9688,2.03125 C68.1771,2.10417 68.3073,2.14063 68.3594,2.14063 C68.5156,2.14063 68.6875,2.0599 68.875,1.89844 C69.0625,1.73698 69.25,1.42708 69.4375,0.96875 L69.9375,-0.28125 L67.375,-5.6875 C67.2917,-5.84375 67.1667,-6.04167 67,-6.28125 C66.8646,-6.46875 66.7552,-6.59375 66.6719,-6.65625 C66.5573,-6.73958 66.3646,-6.8125 66.0938,-6.875 L66.0938,-7.15625 M76.625,-5.84375 C77.1458,-6.36458 77.4531,-6.66667 77.5469,-6.75 C77.7865,-6.94792 78.0417,-7.10156 78.3125,-7.21094 C78.5833,-7.32031 78.849,-7.375 79.1094,-7.375 C79.5573,-7.375 79.9427,-7.24479 80.2656,-6.98438 C80.5885,-6.72396 80.8073,-6.34375 80.9219,-5.84375 C81.4531,-6.46875 81.9036,-6.88021 82.2734,-7.07813 C82.6432,-7.27604 83.026,-7.375 83.4219,-7.375 C83.7969,-7.375 84.1328,-7.27604 84.4297,-7.07813 C84.7266,-6.88021 84.9583,-6.5625 85.125,-6.125 C85.2396,-5.82292 85.2969,-5.34896 85.2969,-4.70313 L85.2969,-1.625 C85.2969,-1.17708 85.3333,-0.869792 85.4063,-0.703125 C85.4583,-0.588542 85.5547,-0.489583 85.6953,-0.40625 C85.8359,-0.322917 86.0625,-0.28125 86.375,-0.28125 L86.375,0 L82.8438,0 L82.8438,-0.28125 L83,-0.28125 C83.3021,-0.28125 83.5417,-0.34375 83.7188,-0.46875 C83.8333,-0.552083 83.9167,-0.682292 83.9688,-0.859375 C83.9896,-0.953125 84,-1.20833 84,-1.625 L84,-4.70313 C84,-5.28646 83.9323,-5.69792 83.7969,-5.9375 C83.5885,-6.27083 83.2604,-6.4375 82.8125,-6.4375 C82.5417,-6.4375 82.2656,-6.36719 81.9844,-6.22656 C81.7031,-6.08594 81.3646,-5.82813 80.9688,-5.45313 L80.9531,-5.375 L80.9688,-5.03125 L80.9688,-1.625 C80.9688,-1.13542 80.9974,-0.830729 81.0547,-0.710938 C81.112,-0.591146 81.2161,-0.489583 81.3672,-0.40625 C81.5182,-0.322917 81.776,-0.28125 82.1406,-0.28125 L82.1406,0 L78.5156,0 L78.5156,-0.28125 C78.9115,-0.28125 79.1849,-0.328125 79.3359,-0.421875 C79.487,-0.515625 79.5885,-0.65625 79.6406,-0.84375 C79.6719,-0.9375 79.6875,-1.19792 79.6875,-1.625 L79.6875,-4.70313 C79.6875,-5.28646 79.599,-5.70313 79.4219,-5.95313 C79.1927,-6.28646 78.875,-6.45313 78.4688,-6.45313 C78.1875,-6.45313 77.9063,-6.38021 77.625,-6.23438 C77.1979,-6.00521 76.8646,-5.74479 76.625,-5.45313 L76.625,-1.625 C76.625,-1.15625 76.6589,-0.851563 76.7266,-0.710938 C76.7943,-0.570313 76.8906,-0.463542 77.0156,-0.390625 C77.1406,-0.317708 77.401,-0.28125 77.7969,-0.28125 L77.7969,0 L74.25,0 L74.25,-0.28125 C74.5833,-0.28125 74.8151,-0.317708 74.9453,-0.390625 C75.0755,-0.463542 75.1745,-0.575521 75.2422,-0.726563 C75.3099,-0.877604 75.3438,-1.17708 75.3438,-1.625 L75.3438,-4.35938 C75.3438,-5.14063 75.3177,-5.64583 75.2656,-5.875 C75.2344,-6.05208 75.1797,-6.17188 75.1016,-6.23438 C75.0234,-6.29688 74.9167,-6.32813 74.7813,-6.32813 C74.6354,-6.32813 74.4583,-6.29167 74.25,-6.21875 L74.1406,-6.5 L76.2969,-7.375 L76.625,-7.375 L76.625,-5.84375 M92.5781,3.1875 L92.5781,3.45313 C91.7031,3.33854 90.9948,2.98698 90.4531,2.39844 C89.9115,1.8099 89.6406,1.16146 89.6406,0.453125 C89.6406,0.0677083 89.7005,-0.372396 89.8203,-0.867188 C89.9401,-1.36198 90,-1.75 90,-2.03125 C90,-2.40625 89.8411,-2.75521 89.5234,-3.07813 C89.2057,-3.40104 88.7708,-3.59896 88.2188,-3.67188 L88.2188,-4 C88.7708,-4.07292 89.2057,-4.27083 89.5234,-4.59375 C89.8411,-4.91667 90,-5.26563 90,-5.64063 C90,-5.92188 89.9401,-6.3099 89.8203,-6.80469 C89.7005,-7.29948 89.6406,-7.73438 89.6406,-8.10938 C89.6406,-8.81771 89.9115,-9.46615 90.4531,-10.0547 C90.9948,-10.6432 91.7031,-10.9948 92.5781,-11.1094 L92.5781,-10.8438 C91.9635,-10.6979 91.5156,-10.4583 91.2344,-10.125 C90.9531,-9.79167 90.8125,-9.42708 90.8125,-9.03125 C90.8125,-8.72917 90.8698,-8.32552 90.9844,-7.82031 C91.099,-7.3151 91.1563,-6.88542 91.1563,-6.53125 C91.1563,-6.01042 90.9635,-5.5026 90.5781,-5.00781 C90.1927,-4.51302 89.6198,-4.13021 88.8594,-3.85938 C89.6094,-3.57813 90.1797,-3.1849 90.5703,-2.67969 C90.9609,-2.17448 91.1563,-1.66146 91.1563,-1.14063 C91.1563,-0.786458 91.099,-0.356771 90.9844,0.148438 C90.8698,0.653646 90.8125,1.0625 90.8125,1.375 C90.8125,1.77083 90.9531,2.13281 91.2344,2.46094 C91.5156,2.78906 91.9635,3.03125 92.5781,3.1875 M96.5938,-7.375 L96.5938,-5.76563 C97.1979,-6.83854 97.8125,-7.375 98.4375,-7.375 C98.7292,-7.375 98.9688,-7.28646 99.1563,-7.10938 C99.3438,-6.93229 99.4375,-6.72917 99.4375,-6.5 C99.4375,-6.30208 99.3698,-6.13281 99.2344,-5.99219 C99.099,-5.85156 98.9375,-5.78125 98.75,-5.78125 C98.5625,-5.78125 98.3568,-5.86979 98.1328,-6.04688 C97.9089,-6.22396 97.7396,-6.3125 97.625,-6.3125 C97.5313,-6.3125 97.4323,-6.26042 97.3281,-6.15625 C97.0885,-5.94792 96.8438,-5.59896 96.5938,-5.10938 L96.5938,-1.67188 C96.5938,-1.27604 96.6458,-0.979167 96.75,-0.78125 C96.8125,-0.635417 96.9297,-0.515625 97.1016,-0.421875 C97.2734,-0.328125 97.5208,-0.28125 97.8438,-0.28125 L97.8438,0 L94.1875,0 L94.1875,-0.28125 C94.5521,-0.28125 94.8229,-0.338542 95,-0.453125 C95.125,-0.536458 95.2135,-0.671875 95.2656,-0.859375 C95.2969,-0.942708 95.3125,-1.19271 95.3125,-1.60938 L95.3125,-4.39063 C95.3125,-5.22396 95.2943,-5.71875 95.2578,-5.875 C95.2214,-6.03125 95.1589,-6.14583 95.0703,-6.21875 C94.9818,-6.29167 94.8698,-6.32813 94.7344,-6.32813 C94.5677,-6.32813 94.3854,-6.29167 94.1875,-6.21875 L94.1094,-6.5 L96.2656,-7.375 L96.5938,-7.375 M100.391,-10.8438 L100.391,-11.1094 C101.255,-10.9948 101.961,-10.6458 102.508,-10.0625 C103.055,-9.47917 103.328,-8.82813 103.328,-8.10938 C103.328,-7.73438 103.268,-7.29948 103.148,-6.80469 C103.029,-6.3099 102.969,-5.92188 102.969,-5.64063 C102.969,-5.26563 103.125,-4.91667 103.438,-4.59375 C103.75,-4.27083 104.188,-4.07292 104.75,-4 L104.75,-3.67188 C104.188,-3.59896 103.75,-3.40104 103.438,-3.07813 C103.125,-2.75521 102.969,-2.40625 102.969,-2.03125 C102.969,-1.75 103.029,-1.36198 103.148,-0.867188 C103.268,-0.372396 103.328,0.0677083 103.328,0.453125 C103.328,1.16146 103.055,1.8099 102.508,2.39844 C101.961,2.98698 101.255,3.33854 100.391,3.45313 L100.391,3.1875 C100.995,3.03125 101.44,2.78906 101.727,2.46094 C102.013,2.13281 102.156,1.77083 102.156,1.375 C102.156,1.0625 102.096,0.653646 101.977,0.148438 C101.857,-0.356771 101.797,-0.78125 101.797,-1.125 C101.797,-1.65625 101.99,-2.16927 102.375,-2.66406 C102.76,-3.15885 103.339,-3.54167 104.109,-3.8125 C103.359,-4.09375 102.786,-4.48698 102.391,-4.99219 C101.995,-5.4974 101.797,-6.01042 101.797,-6.53125 C101.797,-6.88542 101.857,-7.3151 101.977,-7.82031 C102.096,-8.32552 102.156,-8.72917 102.156,-9.03125 C102.156,-9.42708 102.013,-9.79167 101.727,-10.125 C101.44,-10.4583 100.995,-10.6979 100.391,-10.8438 M107.844,-2.60938 L108.188,-2.60938 C108.25,-1.90104 108.477,-1.35677 108.867,-0.976563 C109.258,-0.596354 109.839,-0.369792 110.609,-0.296875 L110.609,-4.85938 C109.443,-5.57813 108.661,-6.21875 108.266,-6.78125 C107.995,-7.17708 107.859,-7.65625 107.859,-8.21875 C107.859,-8.86458 108.096,-9.42708 108.57,-9.90625 C109.044,-10.3854 109.724,-10.6719 110.609,-10.7656 L110.609,-11.4844 L111.109,-11.4844 L111.109,-10.7656 C111.536,-10.7448 111.896,-10.6979 112.188,-10.625 C112.344,-10.5833 112.844,-10.401 113.688,-10.0781 L113.688,-7.75 L113.391,-7.75 C113.318,-8.57292 113.102,-9.17708 112.742,-9.5625 C112.383,-9.94792 111.839,-10.1771 111.109,-10.25 L111.109,-6.28125 C112.422,-5.36458 113.266,-4.6875 113.641,-4.25 C114.016,-3.8125 114.203,-3.27083 114.203,-2.625 C114.203,-1.90625 113.93,-1.27344 113.383,-0.726563 C112.836,-0.179688 112.078,0.135417 111.109,0.21875 L111.109,1.21875 L110.609,1.21875 L110.609,0.21875 C110.12,0.197917 109.664,0.140625 109.242,0.046875 C108.82,-0.046875 108.354,-0.197917 107.844,-0.40625 L107.844,-2.60938 M110.609,-6.60938 L110.609,-10.2344 C110.089,-10.1719 109.703,-10.0078 109.453,-9.74219 C109.203,-9.47656 109.078,-9.14063 109.078,-8.73438 C109.078,-8.34896 109.193,-7.99219 109.422,-7.66406 C109.651,-7.33594 110.047,-6.98438 110.609,-6.60938 M111.109,-0.296875 C111.505,-0.359375 111.807,-0.453125 112.016,-0.578125 C112.307,-0.765625 112.536,-1.00521 112.703,-1.29688 C112.87,-1.58854 112.953,-1.90104 112.953,-2.23438 C112.953,-2.57813 112.852,-2.90365 112.648,-3.21094 C112.445,-3.51823 111.932,-3.95313 111.109,-4.51563 L111.109,-0.296875"/>
</g>

<g fill="#212121" fill-opacity="1" stroke="#212121" stroke-opacity="1" stroke-width="1.06667" stroke-linecap="square" stroke-linejoin="round" transform="matrix(0.75,0,0,0.75,-10.8,-13.14)"
font-family="MS Shell Dlg 2" font-size="8.25" font-weight="400" font-style="normal" 
>
<polyline fill="none" vector-effect="none" points="59,298 411,298 " />
<polyline fill="none" vector-effect="none" points="59,25 411,25 " />
<polyline fill="none" vector-effect="none" points="59,298 59,294.48 " />
<polyline fill="none" vector-effect="none" points="59,28.52 59,25 " />
<polyline fill="none" vector-effect="none" points="176.333,298 176.333,294.48 " />
<polyline fill="none" vector-effect="none" points="176.333,28.52 176.333,25 " />
<polyline fill="none" vector-effect="none" points="293.667,298 293.667,294.48 " />
<polyline fill="none" vector-effect="none" points="293.667,28.52 293.667,25 " />
<polyline fill="none" vector-effect="none" points="411,298 411,294.48 " />
<polyline fill="none" vector-effect="none" points="411,28.52 411,25 " />
</g>

<g fill="#212121" fill-opacity="1" stroke="none" transform="matrix(0.75,0,0,0.75,30.7,223.8)"
font-family="MS Shell Dlg 2" font-size="8.25" font-weight="400" font-style="normal" 
>
<path vector-effect="none" fill-rule="evenodd" d="M3.5,0.3125 C2.35417,0.3125 1.57552,-0.158854 1.16406,-1.10156 C0.752604,-2.04427 0.546875,-3.16667 0.546875,-4.46875 C0.546875,-5.28125 0.619792,-6.04427 0.765625,-6.75781 C0.911458,-7.47135 1.20573,-8.07813 1.64844,-8.57813 C2.09115,-9.07813 2.70833,-9.32813 3.5,-9.32813 C4.11458,-9.32813 4.61719,-9.17708 5.00781,-8.875 C5.39844,-8.57292 5.69792,-8.1849 5.90625,-7.71094 C6.11458,-7.23698 6.25521,-6.72656 6.32813,-6.17969 C6.40104,-5.63281 6.4375,-5.0625 6.4375,-4.46875 C6.4375,-3.66667 6.36458,-2.91406 6.21875,-2.21094 C6.07292,-1.50781 5.78385,-0.911458 5.35156,-0.421875 C4.91927,0.0677083 4.30208,0.3125 3.5,0.3125 M3.5,-0.0625 C4.02083,-0.0625 4.40885,-0.328125 4.66406,-0.859375 C4.91927,-1.39063 5.07552,-1.97917 5.13281,-2.625 C5.1901,-3.27083 5.21875,-3.95833 5.21875,-4.6875 C5.21875,-5.39583 5.1901,-6.04427 5.13281,-6.63281 C5.07552,-7.22135 4.91927,-7.75781 4.66406,-8.24219 C4.40885,-8.72656 4.02083,-8.96875 3.5,-8.96875 C2.96875,-8.96875 2.57552,-8.72656 2.32031,-8.24219 C2.0651,-7.75781 1.90885,-7.22135 1.85156,-6.63281 C1.79427,-6.04427 1.76563,-5.39583 1.76563,-4.6875 C1.76563,-4.16667 1.77865,-3.67708 1.80469,-3.21875 C1.83073,-2.76042 1.89844,-2.28646 2.00781,-1.79688 C2.11719,-1.30729 2.29427,-0.895833 2.53906,-0.5625 C2.78385,-0.229167 3.10417,-0.0625 3.5,-0.0625 "/>
</g>

<g fill="#212121" fill-opacity="1" stroke="none" transform="matrix(0.75,0,0,0.75,114.422,223.8)"
font-family="MS Shell Dlg 2" font-size="8.25" font-weight="400" font-style="normal" 
>
<path vector-effect="none" fill-rule="evenodd" d="M3.5,0.3125 C2.35417,0.3125 1.57552,-0.158854 1.16406,-1.10156 C0.752604,-2.04427 0.546875,-3.16667 0.546875,-4.46875 C0.546875,-5.28125 0.619792,-6.04427 0.765625,-6.75781 C0.911458,-7.47135 1.20573,-8.07813 1.64844,-8.57813 C2.09115,-9.07813 2.70833,-9.32813 3.5,-9.32813 C4.11458,-9.32813 4.61719,-9.17708 5.00781,-8.875 C5.39844,-8.57292 5.69792,-8.1849 5.90625,-7.71094 C6.11458,-7.23698 6.25521,-6.72656 6.32813,-6.17969 C6.40104,-5.63281 6.4375,-5.0625 6.4375,-4.46875 C6.4375,-3.66667 6.36458,-2.91406 6.21875,-2.21094 C6.07292,-1.50781 5.78385,-0.911458 5.35156,-0.421875 C4.91927,0.0677083 4.30208,0.3125 3.5,0.3125 M3.5,-0.0625 C4.02083,-0.0625 4.40885,-0.328125 4.66406,-0.859375 C4.91927,-1.39063 5.07552,-1.97917 5.13281,-2.625 C5.1901,-3.27083 5.21875,-3.95833 5.21875,-4.6875 C5.21875,-5.39583 5.1901,-6.04427 5.13281,-6.63281 C5.07552,-7.22135 4.91927,-7.75781 4.66406,-8.24219 C4.40885,-8.72656 4.02083,-8.96875 3.5,-8.96875 C2.96875,-8.96875 2.57552,-8.72656 2.32031,-8.24219 C2.0651,-7.75781 1.90885,-7.22135 1.85156,-6.63281 C1.79427,-6.04427 1.76563,-5.39583 1.76563,-4.6875 C1.76563,-4.16667 1.77865,-3.67708 1.80469,-3.21875 C1.83073,-2.76042 1.89844,-2.28646 2.00781,-1.79688 C2.11719,-1.30729 2.29427,-0.895833 2.53906,-0.5625 C2.78385,-0.229167 3.10417,-0.0625 3.5,-0.0625 "/>
</g>

<g fill="#212121" fill-opacity="1" stroke="none" transform="matrix(0.75,0,0,0.75,119.922,223.8)"
font-family="MS Shell Dlg 2" font-size="8.25" font-weight="400" font-style="normal" 
>
<path vector-effect="none" fill-rule="evenodd" d="M1.17188,-0.765625 C1.17188,-0.984375 1.25,-1.16667 1.40625,-1.3125 C1.5625,-1.45833 1.74479,-1.53125 1.95313,-1.53125 C2.07813,-1.53125 2.20313,-1.4974 2.32813,-1.42969 C2.45313,-1.36198 2.54948,-1.26823 2.61719,-1.14844 C2.6849,-1.02865 2.71875,-0.901042 2.71875,-0.765625 C2.71875,-0.567708 2.64323,-0.390625 2.49219,-0.234375 C2.34115,-0.078125 2.16146,0 1.95313,0 C1.74479,0 1.5625,-0.078125 1.40625,-0.234375 C1.25,-0.390625 1.17188,-0.567708 1.17188,-0.765625 "/>
</g>

<g fill="#212121" fill-opacity="1" stroke="none" transform="matrix(0.75,0,0,0.75,122.978,223.8)"
font-family="MS Shell Dlg 2" font-size="8.25" font-weight="400" font-style="normal" 
>
<path vector-effect="none" fill-rule="evenodd" d="M1.21875,-1.59375 C1.3125,-1.32292 1.45833,-1.07552 1.65625,-0.851563 C1.85417,-0.627604 2.08854,-0.453125 2.35938,-0.328125 C2.63021,-0.203125 2.91146,-0.140625 3.20313,-0.140625 C3.88021,-0.140625 4.34635,-0.403646 4.60156,-0.929688 C4.85677,-1.45573 4.98438,-2.08854 4.98438,-2.82813 C4.98438,-3.15104 4.97917,-3.42448 4.96875,-3.64844 C4.95833,-3.8724 4.92708,-4.08333 4.875,-4.28125 C4.79167,-4.61458 4.64063,-4.90365 4.42188,-5.14844 C4.20313,-5.39323 3.9375,-5.51563 3.625,-5.51563 C3.3125,-5.51563 3.04167,-5.46875 2.8125,-5.375 C2.58333,-5.28125 2.39844,-5.16927 2.25781,-5.03906 C2.11719,-4.90885 1.99219,-4.77344 1.88281,-4.63281 C1.77344,-4.49219 1.70833,-4.41667 1.6875,-4.40625 L1.53125,-4.40625 C1.5,-4.40625 1.46875,-4.42188 1.4375,-4.45313 C1.40625,-4.48438 1.39063,-4.51563 1.39063,-4.54688 L1.39063,-9.21875 C1.39063,-9.23958 1.40625,-9.26302 1.4375,-9.28906 C1.46875,-9.3151 1.5,-9.32813 1.53125,-9.32813 L1.5625,-9.32813 C2.19792,-9.02604 2.86458,-8.875 3.5625,-8.875 C4.26042,-8.875 4.93229,-9.02604 5.57813,-9.32813 L5.60938,-9.32813 C5.64063,-9.32813 5.67188,-9.3151 5.70313,-9.28906 C5.73438,-9.26302 5.75,-9.23958 5.75,-9.21875 L5.75,-9.07813 C5.75,-9.03646 5.73958,-9.01563 5.71875,-9.01563 C5.39583,-8.58854 4.99479,-8.25781 4.51563,-8.02344 C4.03646,-7.78906 3.53646,-7.67188 3.01563,-7.67188 C2.65104,-7.67188 2.27083,-7.72396 1.875,-7.82813 L1.875,-5.1875 C2.1875,-5.4375 2.46354,-5.61458 2.70313,-5.71875 C2.94271,-5.82292 3.25521,-5.875 3.64063,-5.875 C4.15104,-5.875 4.61198,-5.72656 5.02344,-5.42969 C5.4349,-5.13281 5.75,-4.7474 5.96875,-4.27344 C6.1875,-3.79948 6.29688,-3.3125 6.29688,-2.8125 C6.29688,-2.25 6.15885,-1.73177 5.88281,-1.25781 C5.60677,-0.783854 5.23177,-0.403646 4.75781,-0.117188 C4.28385,0.169271 3.76563,0.3125 3.20313,0.3125 C2.74479,0.3125 2.32292,0.192708 1.9375,-0.046875 C1.55208,-0.286458 1.25,-0.606771 1.03125,-1.00781 C0.8125,-1.40885 0.703125,-1.83333 0.703125,-2.28125 C0.703125,-2.48958 0.770833,-2.66146 0.90625,-2.79688 C1.04167,-2.93229 1.21354,-3 1.42188,-3 C1.61979,-3 1.78906,-2.93229 1.92969,-2.79688 C2.07031,-2.66146 2.14063,-2.48958 2.14063,-2.28125 C2.14063,-2.08333 2.07031,-1.91667 1.92969,-1.78125 C1.78906,-1.64583 1.61979,-1.57813 1.42188,-1.57813 C1.39063,-1.57813 1.35417,-1.58073 1.3125,-1.58594 C1.27083,-1.59115 1.23958,-1.59375 1.21875,-1.59375 "/>
</g>

<g fill="#212121" fill-opacity="1" stroke="none" transform="matrix(0.75,0,0,0.75,206.7,223.8)"
font-family="MS Shell Dlg 2" font-size="8.25" font-weight="400" font-style="normal" 
>
<path vector-effect="none" fill-rule="evenodd" d="M1.29688,0 L1.29688,-0.5 C2.46354,-0.5 3.04688,-0.645833 3.04688,-0.9375 L3.04688,-8.28125 C2.56771,-8.05208 1.95833,-7.9375 1.21875,-7.9375 L1.21875,-8.42188 C2.36458,-8.42188 3.22917,-8.72396 3.8125,-9.32813 L4,-9.32813 C4.03125,-9.32813 4.0625,-9.3151 4.09375,-9.28906 C4.125,-9.26302 4.14063,-9.23438 4.14063,-9.20313 L4.14063,-0.9375 C4.14063,-0.645833 4.72396,-0.5 5.89063,-0.5 L5.89063,0 L1.29688,0"/>
</g>

<g fill="#212121" fill-opacity="1" stroke="none" transform="matrix(0.75,0,0,0.75,290.422,223.8)"
font-family="MS Shell Dlg 2" font-size="8.25" font-weight="400" font-style="normal" 
>
<path vector-effect="none" fill-rule="evenodd" d="M1.29688,0 L1.29688,-0.5 C2.46354,-0.5 3.04688,-0.645833 3.04688,-0.9375 L3.04688,-8.28125 C2.56771,-8.05208 1.95833,-7.9375 1.21875,-7.9375 L1.21875,-8.42188 C2.36458,-8.42188 3.22917,-8.72396 3.8125,-9.32813 L4,-9.32813 C4.03125,-9.32813 4.0625,-9.3151 4.09375,-9.28906 C4.125,-9.26302 4.14063,-9.23438 4.14063,-9.20313 L4.14063,-0.9375 C4.14063,-0.645833 4.72396,-0.5 5.89063,-0.5 L5.89063,0 L1.29688,0"/>
</g>

<g fill="#212121" fill-opacity="1" stroke="none" transform="matrix(0.75,0,0,0.75,295.922,223.8)"
font-family="MS Shell Dlg 2" font-size="8.25" font-weight="400" font-style="normal" 
>
<path vector-effect="none" fill-rule="evenodd" d="M1.17188,-0.765625 C1.17188,-0.984375 1.25,-1.16667 1.40625,-1.3125 C1.5625,-1.45833 1.74479,-1.53125 1.95313,-1.53125 C2.07813,-1.53125 2.20313,-1.4974 2.32813,-1.42969 C2.45313,-1.36198 2.54948,-1.26823 2.61719,-1.14844 C2.6849,-1.02865 2.71875,-0.901042 2.71875,-0.765625 C2.71875,-0.567708 2.64323,-0.390625 2.49219,-0.234375 C2.34115,-0.078125 2.16146,0 1.95313,0 C1.74479,0 1.5625,-0.078125 1.40625,-0.234375 C1.25,-0.390625 1.17188,-0.567708 1.17188,-0.765625 "/>
</g>

<g fill="#212121" fill-opacity="1" stroke="none" transform="matrix(0.75,0,0,0.75,298.978,223.8)"
font-family="MS Shell Dlg 2" font-size="8.25" font-weight="400" font-style="normal" 
>
<path vector-effect="none" fill-rule="evenodd" d="M1.21875,-1.59375 C1.3125,-1.32292 1.45833,-1.07552 1.65625,-0.851563 C1.85417,-0.627604 2.08854,-0.453125 2.35938,-0.328125 C2.63021,-0.203125 2.91146,-0.140625 3.20313,-0.140625 C3.88021,-0.140625 4.34635,-0.403646 4.60156,-0.929688 C4.85677,-1.45573 4.98438,-2.08854 4.98438,-2.82813 C4.98438,-3.15104 4.97917,-3.42448 4.96875,-3.64844 C4.95833,-3.8724 4.92708,-4.08333 4.875,-4.28125 C4.79167,-4.61458 4.64063,-4.90365 4.42188,-5.14844 C4.20313,-5.39323 3.9375,-5.51563 3.625,-5.51563 C3.3125,-5.51563 3.04167,-5.46875 2.8125,-5.375 C2.58333,-5.28125 2.39844,-5.16927 2.25781,-5.03906 C2.11719,-4.90885 1.99219,-4.77344 1.88281,-4.63281 C1.77344,-4.49219 1.70833,-4.41667 1.6875,-4.40625 L1.53125,-4.40625 C1.5,-4.40625 1.46875,-4.42188 1.4375,-4.45313 C1.40625,-4.48438 1.39063,-4.51563 1.39063,-4.54688 L1.39063,-9.21875 C1.39063,-9.23958 1.40625,-9.26302 1.4375,-9.28906 C1.46875,-9.3151 1.5,-9.32813 1.53125,-9.32813 L1.5625,-9.32813 C2.19792,-9.02604 2.86458,-8.875 3.5625,-8.875 C4.26042,-8.875 4.93229,-9.02604 5.57813,-9.32813 L5.60938,-9.32813 C5.64063,-9.32813 5.67188,-9.3151 5.70313,-9.28906 C5.73438,-9.26302 5.75,-9.23958 5.75,-9.21875 L5.75,-9.07813 C5.75,-9.03646 5.73958,-9.01563 5.71875,-9.01563 C5.39583,-8.58854 4.99479,-8.25781 4.51563,-8.02344 C4.03646,-7.78906 3.53646,-7.67188 3.01563,-7.67188 C2.65104,-7.67188 2.27083,-7.72396 1.875,-7.82813 L1.875,-5.1875 C2.1875,-5.4375 2.46354,-5.61458 2.70313,-5.71875 C2.94271,-5.82292 3.25521,-5.875 3.64063,-5.875 C4.15104,-5.875 4.61198,-5.72656 5.02344,-5.42969 C5.4349,-5.13281 5.75,-4.7474 5.96875,-4.27344 C6.1875,-3.79948 6.29688,-3.3125 6.29688,-2.8125 C6.29688,-2.25 6.15885,-1.73177 5.88281,-1.25781 C5.60677,-0.783854 5.23177,-0.403646 4.75781,-0.117188 C4.28385,0.169271 3.76563,0.3125 3.20313,0.3125 C2.74479,0.3125 2.32292,0.192708 1.9375,-0.046875 C1.55208,-0.286458 1.25,-0.606771 1.03125,-1.00781 C0.8125,-1.40885 0.703125,-1.83333 0.703125,-2.28125 C0.703125,-2.48958 0.770833,-2.66146 0.90625,-2.79688 C1.04167,-2.93229 1.21354,-3 1.42188,-3 C1.61979,-3 1.78906,-2.93229 1.92969,-2.79688 C2.07031,-2.66146 2.14063,-2.48958 2.14063,-2.28125 C2.14063,-2.08333 2.07031,-1.91667 1.92969,-1.78125 C1.78906,-1.64583 1.61979,-1.57813 1.42188,-1.57813 C1.39063,-1.57813 1.35417,-1.58073 1.3125,-1.58594 C1.27083,-1.59115 1.23958,-1.59375 1.21875,-1.59375 "/>
</g>

<g fill="#212121" fill-opacity="1" stroke="none" transform="matrix(0,-0.75,0.75,0,9.75,157.11)"
font-family="MS Shell Dlg 2" font-size="8.25" font-weight="400" font-style="normal" 
>
<path vector-effect="none" fill-rule="evenodd" d="M0.84375,-2.60938 L1.1875,-2.60938 C1.25,-1.90104 1.47656,-1.35677 1.86719,-0.976563 C2.25781,-0.596354 2.83854,-0.369792 3.60938,-0.296875 L3.60938,-4.85938 C2.44271,-5.57813 1.66146,-6.21875 1.26563,-6.78125 C0.994792,-7.17708 0.859375,-7.65625 0.859375,-8.21875 C0.859375,-8.86458 1.09635,-9.42708 1.57031,-9.90625 C2.04427,-10.3854 2.72396,-10.6719 3.60938,-10.7656 L3.60938,-11.4844 L4.10938,-11.4844 L4.10938,-10.7656 C4.53646,-10.7448 4.89583,-10.6979 5.1875,-10.625 C5.34375,-10.5833 5.84375,-10.401 6.6875,-10.0781 L6.6875,-7.75 L6.39063,-7.75 C6.31771,-8.57292 6.10156,-9.17708 5.74219,-9.5625 C5.38281,-9.94792 4.83854,-10.1771 4.10938,-10.25 L4.10938,-6.28125 C5.42188,-5.36458 6.26563,-4.6875 6.64063,-4.25 C7.01563,-3.8125 7.20313,-3.27083 7.20313,-2.625 C7.20313,-1.90625 6.92969,-1.27344 6.38281,-0.726563 C5.83594,-0.179688 5.07813,0.135417 4.10938,0.21875 L4.10938,1.21875 L3.60938,1.21875 L3.60938,0.21875 C3.11979,0.197917 2.66406,0.140625 2.24219,0.046875 C1.82031,-0.046875 1.35417,-0.197917 0.84375,-0.40625 L0.84375,-2.60938 M3.60938,-6.60938 L3.60938,-10.2344 C3.08854,-10.1719 2.70313,-10.0078 2.45313,-9.74219 C2.20313,-9.47656 2.07813,-9.14063 2.07813,-8.73438 C2.07813,-8.34896 2.19271,-7.99219 2.42188,-7.66406 C2.65104,-7.33594 3.04688,-6.98438 3.60938,-6.60938 M4.10938,-0.296875 C4.50521,-0.359375 4.80729,-0.453125 5.01563,-0.578125 C5.30729,-0.765625 5.53646,-1.00521 5.70313,-1.29688 C5.86979,-1.58854 5.95313,-1.90104 5.95313,-2.23438 C5.95313,-2.57813 5.85156,-2.90365 5.64844,-3.21094 C5.44531,-3.51823 4.93229,-3.95313 4.10938,-4.51563 L4.10938,-0.296875 M8.65625,-11.1094 L12.4844,0.21875 L11.8594,0.21875 L8.03125,-11.1094 L8.65625,-11.1094 M17.125,-7.375 L17.125,-4.9375 L16.875,-4.9375 C16.6771,-5.69792 16.4219,-6.21615 16.1094,-6.49219 C15.7969,-6.76823 15.401,-6.90625 14.9219,-6.90625 C14.5573,-6.90625 14.263,-6.8099 14.0391,-6.61719 C13.8151,-6.42448 13.7031,-6.21354 13.7031,-5.98438 C13.7031,-5.69271 13.7865,-5.44271 13.9531,-5.23438 C14.1198,-5.01563 14.4479,-4.78646 14.9375,-4.54688 L16.0781,-4 C17.1406,-3.47917 17.6719,-2.79688 17.6719,-1.95313 C17.6719,-1.30729 17.4245,-0.783854 16.9297,-0.382813 C16.4349,0.0182292 15.8854,0.21875 15.2813,0.21875 C14.8438,0.21875 14.3438,0.140625 13.7813,-0.015625 C13.6042,-0.0677083 13.4635,-0.09375 13.3594,-0.09375 C13.2344,-0.09375 13.1406,-0.0260417 13.0781,0.109375 L12.8125,0.109375 L12.8125,-2.45313 L13.0781,-2.45313 C13.224,-1.72396 13.5026,-1.17448 13.9141,-0.804688 C14.3255,-0.434896 14.7865,-0.25 15.2969,-0.25 C15.651,-0.25 15.9427,-0.354167 16.1719,-0.5625 C16.401,-0.770833 16.5156,-1.02604 16.5156,-1.32813 C16.5156,-1.68229 16.388,-1.98177 16.1328,-2.22656 C15.8776,-2.47135 15.3724,-2.78125 14.6172,-3.15625 C13.862,-3.53125 13.3698,-3.86979 13.1406,-4.17188 C12.901,-4.47396 12.7813,-4.84896 12.7813,-5.29688 C12.7813,-5.89063 12.9844,-6.38542 13.3906,-6.78125 C13.7969,-7.17708 14.3177,-7.375 14.9531,-7.375 C15.2344,-7.375 15.5781,-7.3125 15.9844,-7.1875 C16.2448,-7.11458 16.4219,-7.07813 16.5156,-7.07813 C16.599,-7.07813 16.6641,-7.09635 16.7109,-7.13281 C16.7578,-7.16927 16.8125,-7.25 16.875,-7.375 L17.125,-7.375 M18.0938,-7.15625 L21.4375,-7.15625 L21.4375,-6.875 L21.2656,-6.875 C21.0365,-6.875 20.862,-6.82292 20.7422,-6.71875 C20.6224,-6.61458 20.5625,-6.48958 20.5625,-6.34375 C20.5625,-6.13542 20.651,-5.85417 20.8281,-5.5 L22.5625,-1.89063 L24.1719,-5.84375 C24.2552,-6.05208 24.2969,-6.26042 24.2969,-6.46875 C24.2969,-6.5625 24.2813,-6.63542 24.25,-6.6875 C24.2083,-6.73958 24.1432,-6.78385 24.0547,-6.82031 C23.9661,-6.85677 23.8073,-6.875 23.5781,-6.875 L23.5781,-7.15625 L25.9063,-7.15625 L25.9063,-6.875 C25.7188,-6.85417 25.5729,-6.8125 25.4688,-6.75 C25.3646,-6.6875 25.25,-6.56771 25.125,-6.39063 C25.0729,-6.31771 24.9844,-6.11979 24.8594,-5.79688 L21.9375,1.35938 C21.6563,2.04688 21.2891,2.56771 20.8359,2.92188 C20.3828,3.27604 19.9427,3.45313 19.5156,3.45313 C19.2135,3.45313 18.9635,3.36458 18.7656,3.1875 C18.5677,3.01042 18.4688,2.80729 18.4688,2.57813 C18.4688,2.35938 18.5391,2.1849 18.6797,2.05469 C18.8203,1.92448 19.0156,1.85938 19.2656,1.85938 C19.4427,1.85938 19.6771,1.91667 19.9688,2.03125 C20.1771,2.10417 20.3073,2.14063 20.3594,2.14063 C20.5156,2.14063 20.6875,2.0599 20.875,1.89844 C21.0625,1.73698 21.25,1.42708 21.4375,0.96875 L21.9375,-0.28125 L19.375,-5.6875 C19.2917,-5.84375 19.1667,-6.04167 19,-6.28125 C18.8646,-6.46875 18.7552,-6.59375 18.6719,-6.65625 C18.5573,-6.73958 18.3646,-6.8125 18.0938,-6.875 L18.0938,-7.15625 M28.625,-5.84375 C29.1458,-6.36458 29.4531,-6.66667 29.5469,-6.75 C29.7865,-6.94792 30.0417,-7.10156 30.3125,-7.21094 C30.5833,-7.32031 30.849,-7.375 31.1094,-7.375 C31.5573,-7.375 31.9427,-7.24479 32.2656,-6.98438 C32.5885,-6.72396 32.8073,-6.34375 32.9219,-5.84375 C33.4531,-6.46875 33.9036,-6.88021 34.2734,-7.07813 C34.6432,-7.27604 35.026,-7.375 35.4219,-7.375 C35.7969,-7.375 36.1328,-7.27604 36.4297,-7.07813 C36.7266,-6.88021 36.9583,-6.5625 37.125,-6.125 C37.2396,-5.82292 37.2969,-5.34896 37.2969,-4.70313 L37.2969,-1.625 C37.2969,-1.17708 37.3333,-0.869792 37.4063,-0.703125 C37.4583,-0.588542 37.5547,-0.489583 37.6953,-0.40625 C37.8359,-0.322917 38.0625,-0.28125 38.375,-0.28125 L38.375,0 L34.8438,0 L34.8438,-0.28125 L35,-0.28125 C35.3021,-0.28125 35.5417,-0.34375 35.7188,-0.46875 C35.8333,-0.552083 35.9167,-0.682292 35.9688,-0.859375 C35.9896,-0.953125 36,-1.20833 36,-1.625 L36,-4.70313 C36,-5.28646 35.9323,-5.69792 35.7969,-5.9375 C35.5885,-6.27083 35.2604,-6.4375 34.8125,-6.4375 C34.5417,-6.4375 34.2656,-6.36719 33.9844,-6.22656 C33.7031,-6.08594 33.3646,-5.82813 32.9688,-5.45313 L32.9531,-5.375 L32.9688,-5.03125 L32.9688,-1.625 C32.9688,-1.13542 32.9974,-0.830729 33.0547,-0.710938 C33.112,-0.591146 33.2161,-0.489583 33.3672,-0.40625 C33.5182,-0.322917 33.776,-0.28125 34.1406,-0.28125 L34.1406,0 L30.5156,0 L30.5156,-0.28125 C30.9115,-0.28125 31.1849,-0.328125 31.3359,-0.421875 C31.487,-0.515625 31.5885,-0.65625 31.6406,-0.84375 C31.6719,-0.9375 31.6875,-1.19792 31.6875,-1.625 L31.6875,-4.70313 C31.6875,-5.28646 31.599,-5.70313 31.4219,-5.95313 C31.1927,-6.28646 30.875,-6.45313 30.4688,-6.45313 C30.1875,-6.45313 29.9063,-6.38021 29.625,-6.23438 C29.1979,-6.00521 28.8646,-5.74479 28.625,-5.45313 L28.625,-1.625 C28.625,-1.15625 28.6589,-0.851563 28.7266,-0.710938 C28.7943,-0.570313 28.8906,-0.463542 29.0156,-0.390625 C29.1406,-0.317708 29.401,-0.28125 29.7969,-0.28125 L29.7969,0 L26.25,0 L26.25,-0.28125 C26.5833,-0.28125 26.8151,-0.317708 26.9453,-0.390625 C27.0755,-0.463542 27.1745,-0.575521 27.2422,-0.726563 C27.3099,-0.877604 27.3438,-1.17708 27.3438,-1.625 L27.3438,-4.35938 C27.3438,-5.14063 27.3177,-5.64583 27.2656,-5.875 C27.2344,-6.05208 27.1797,-6.17188 27.1016,-6.23438 C27.0234,-6.29688 26.9167,-6.32813 26.7813,-6.32813 C26.6354,-6.32813 26.4583,-6.29167 26.25,-6.21875 L26.1406,-6.5 L28.2969,-7.375 L28.625,-7.375 L28.625,-5.84375 M44.5781,3.1875 L44.5781,3.45313 C43.7031,3.33854 42.9948,2.98698 42.4531,2.39844 C41.9115,1.8099 41.6406,1.16146 41.6406,0.453125 C41.6406,0.0677083 41.7005,-0.372396 41.8203,-0.867188 C41.9401,-1.36198 42,-1.75 42,-2.03125 C42,-2.40625 41.8411,-2.75521 41.5234,-3.07813 C41.2057,-3.40104 40.7708,-3.59896 40.2188,-3.67188 L40.2188,-4 C40.7708,-4.07292 41.2057,-4.27083 41.5234,-4.59375 C41.8411,-4.91667 42,-5.26563 42,-5.64063 C42,-5.92188 41.9401,-6.3099 41.8203,-6.80469 C41.7005,-7.29948 41.6406,-7.73438 41.6406,-8.10938 C41.6406,-8.81771 41.9115,-9.46615 42.4531,-10.0547 C42.9948,-10.6432 43.7031,-10.9948 44.5781,-11.1094 L44.5781,-10.8438 C43.9635,-10.6979 43.5156,-10.4583 43.2344,-10.125 C42.9531,-9.79167 42.8125,-9.42708 42.8125,-9.03125 C42.8125,-8.72917 42.8698,-8.32552 42.9844,-7.82031 C43.099,-7.3151 43.1563,-6.88542 43.1563,-6.53125 C43.1563,-6.01042 42.9635,-5.5026 42.5781,-5.00781 C42.1927,-4.51302 41.6198,-4.13021 40.8594,-3.85938 C41.6094,-3.57813 42.1797,-3.1849 42.5703,-2.67969 C42.9609,-2.17448 43.1563,-1.66146 43.1563,-1.14063 C43.1563,-0.786458 43.099,-0.356771 42.9844,0.148438 C42.8698,0.653646 42.8125,1.0625 42.8125,1.375 C42.8125,1.77083 42.9531,2.13281 43.2344,2.46094 C43.5156,2.78906 43.9635,3.03125 44.5781,3.1875 M45.9844,-6.45313 L48.1875,-7.34375 L48.4844,-7.34375 L48.4844,-5.67188 C48.8594,-6.29688 49.2318,-6.73698 49.6016,-6.99219 C49.9714,-7.2474 50.3646,-7.375 50.7813,-7.375 C51.5,-7.375 52.099,-7.09375 52.5781,-6.53125 C53.1615,-5.84375 53.4531,-4.94792 53.4531,-3.84375 C53.4531,-2.60417 53.099,-1.58333 52.3906,-0.78125 C51.8073,-0.114583 51.0729,0.21875 50.1875,0.21875 C49.8021,0.21875 49.4688,0.166667 49.1875,0.0625 C48.9792,-0.0208333 48.7448,-0.182292 48.4844,-0.421875 L48.4844,1.76563 C48.4844,2.25521 48.5156,2.56771 48.5781,2.70313 C48.6406,2.83854 48.7448,2.94531 48.8906,3.02344 C49.0365,3.10156 49.3073,3.14063 49.7031,3.14063 L49.7031,3.42188 L45.9375,3.42188 L45.9375,3.14063 L46.1406,3.14063 C46.4323,3.14063 46.6771,3.08333 46.875,2.96875 C46.9792,2.91667 47.0573,2.82552 47.1094,2.69531 C47.1615,2.5651 47.1875,2.23958 47.1875,1.71875 L47.1875,-5.04688 C47.1875,-5.51563 47.1667,-5.8125 47.125,-5.9375 C47.0833,-6.0625 47.0182,-6.15625 46.9297,-6.21875 C46.8411,-6.28125 46.7188,-6.3125 46.5625,-6.3125 C46.4375,-6.3125 46.276,-6.27604 46.0781,-6.20313 L45.9844,-6.45313 M48.4844,-5.20313 L48.4844,-2.53125 C48.4844,-1.95833 48.5104,-1.57813 48.5625,-1.39063 C48.6354,-1.08854 48.8125,-0.822917 49.0938,-0.59375 C49.375,-0.364583 49.7344,-0.25 50.1719,-0.25 C50.6927,-0.25 51.1146,-0.453125 51.4375,-0.859375 C51.8542,-1.39063 52.0625,-2.14063 52.0625,-3.10938 C52.0625,-4.20313 51.8229,-5.04167 51.3438,-5.625 C51.0104,-6.03125 50.6146,-6.23438 50.1563,-6.23438 C49.9063,-6.23438 49.6615,-6.17188 49.4219,-6.04688 C49.2344,-5.95313 48.9219,-5.67188 48.4844,-5.20313 M56.5938,-7.375 L56.5938,-5.76563 C57.1979,-6.83854 57.8125,-7.375 58.4375,-7.375 C58.7292,-7.375 58.9688,-7.28646 59.1563,-7.10938 C59.3438,-6.93229 59.4375,-6.72917 59.4375,-6.5 C59.4375,-6.30208 59.3698,-6.13281 59.2344,-5.99219 C59.099,-5.85156 58.9375,-5.78125 58.75,-5.78125 C58.5625,-5.78125 58.3568,-5.86979 58.1328,-6.04688 C57.9089,-6.22396 57.7396,-6.3125 57.625,-6.3125 C57.5313,-6.3125 57.4323,-6.26042 57.3281,-6.15625 C57.0885,-5.94792 56.8438,-5.59896 56.5938,-5.10938 L56.5938,-1.67188 C56.5938,-1.27604 56.6458,-0.979167 56.75,-0.78125 C56.8125,-0.635417 56.9297,-0.515625 57.1016,-0.421875 C57.2734,-0.328125 57.5208,-0.28125 57.8438,-0.28125 L57.8438,0 L54.1875,0 L54.1875,-0.28125 C54.5521,-0.28125 54.8229,-0.338542 55,-0.453125 C55.125,-0.536458 55.2135,-0.671875 55.2656,-0.859375 C55.2969,-0.942708 55.3125,-1.19271 55.3125,-1.60938 L55.3125,-4.39063 C55.3125,-5.22396 55.2943,-5.71875 55.2578,-5.875 C55.2214,-6.03125 55.1589,-6.14583 55.0703,-6.21875 C54.9818,-6.29167 54.8698,-6.32813 54.7344,-6.32813 C54.5677,-6.32813 54.3854,-6.29167 54.1875,-6.21875 L54.1094,-6.5 L56.2656,-7.375 L56.5938,-7.375 M60.7031,-4.46875 C60.7031,-3.40625 60.9635,-2.57292 61.4844,-1.96875 C62.0052,-1.36458 62.6146,-1.0625 63.3125,-1.0625 C63.7813,-1.0625 64.1901,-1.1901 64.5391,-1.44531 C64.888,-1.70052 65.1771,-2.14063 65.4063,-2.76563 L65.6563,-2.60938 C65.5417,-1.90104 65.2214,-1.2526 64.6953,-0.664063 C64.1693,-0.0755208 63.5104,0.21875 62.7188,0.21875 C61.8646,0.21875 61.1302,-0.117188 60.5156,-0.789063 C59.901,-1.46094 59.5938,-2.35938 59.5938,-3.48438 C59.5938,-4.71354 59.9089,-5.66927 60.5391,-6.35156 C61.1693,-7.03385 61.9583,-7.375 62.9063,-7.375 C63.7083,-7.375 64.3672,-7.11198 64.8828,-6.58594 C65.3984,-6.0599 65.6563,-5.35417 65.6563,-4.46875 L60.7031,-4.46875 M60.7031,-4.92188 L64.0156,-4.92188 C63.9948,-5.38021 63.9427,-5.70313 63.8594,-5.89063 C63.724,-6.18229 63.5286,-6.41146 63.2734,-6.57813 C63.0182,-6.74479 62.75,-6.82813 62.4688,-6.82813 C62.0313,-6.82813 61.6432,-6.65885 61.3047,-6.32031 C60.9661,-5.98177 60.7656,-5.51563 60.7031,-4.92188 M71.5625,-0.8125 C71.2083,-0.447917 70.8646,-0.184896 70.5313,-0.0234375 C70.1979,0.138021 69.8385,0.21875 69.4531,0.21875 C68.6719,0.21875 67.9896,-0.109375 67.4063,-0.765625 C66.8229,-1.42188 66.5313,-2.26042 66.5313,-3.28125 C66.5313,-4.3125 66.8542,-5.2526 67.5,-6.10156 C68.1458,-6.95052 68.9792,-7.375 70,-7.375 C70.625,-7.375 71.1458,-7.17708 71.5625,-6.78125 L71.5625,-8.09375 C71.5625,-8.91667 71.5417,-9.42188 71.5,-9.60938 C71.4583,-9.79688 71.3958,-9.92448 71.3125,-9.99219 C71.2292,-10.0599 71.125,-10.0938 71,-10.0938 C70.8646,-10.0938 70.6875,-10.0521 70.4688,-9.96875 L70.3594,-10.2344 L72.5,-11.1094 L72.8438,-11.1094 L72.8438,-2.84375 C72.8438,-2 72.8646,-1.48698 72.9063,-1.30469 C72.9479,-1.1224 73.0104,-0.994792 73.0938,-0.921875 C73.1771,-0.848958 73.276,-0.8125 73.3906,-0.8125 C73.5365,-0.8125 73.724,-0.854167 73.9531,-0.9375 L74.0469,-0.671875 L71.9219,0.21875 L71.5625,0.21875 L71.5625,-0.8125 M71.5625,-1.35938 L71.5625,-5.04688 C71.5313,-5.40104 71.4375,-5.72396 71.2813,-6.01563 C71.125,-6.30729 70.9167,-6.52604 70.6563,-6.67188 C70.3958,-6.81771 70.1458,-6.89063 69.9063,-6.89063 C69.4479,-6.89063 69.0365,-6.6875 68.6719,-6.28125 C68.2031,-5.73958 67.9688,-4.94792 67.9688,-3.90625 C67.9688,-2.85417 68.1979,-2.04688 68.6563,-1.48438 C69.1146,-0.921875 69.625,-0.640625 70.1875,-0.640625 C70.6563,-0.640625 71.1146,-0.880208 71.5625,-1.35938 M82.1406,3.45313 L73.8594,3.45313 L73.8594,2.79688 L82.1406,2.79688 L82.1406,3.45313 M82.1406,-7.15625 L85.5,-7.15625 L85.5,-6.875 L85.2813,-6.875 C85.0833,-6.875 84.9297,-6.82552 84.8203,-6.72656 C84.7109,-6.6276 84.6563,-6.49479 84.6563,-6.32813 C84.6563,-6.14063 84.7135,-5.92188 84.8281,-5.67188 L86.4844,-1.71875 L88.1563,-5.82813 C88.2813,-6.11979 88.3438,-6.33854 88.3438,-6.48438 C88.3438,-6.55729 88.3229,-6.61979 88.2813,-6.67188 C88.2188,-6.74479 88.1432,-6.79688 88.0547,-6.82813 C87.9661,-6.85938 87.7865,-6.875 87.5156,-6.875 L87.5156,-7.15625 L89.8594,-7.15625 L89.8594,-6.875 C89.5885,-6.85417 89.401,-6.79688 89.2969,-6.70313 C89.1094,-6.54688 88.9427,-6.28646 88.7969,-5.92188 L86.2656,0.21875 L85.9375,0.21875 L83.3906,-5.82813 C83.276,-6.10938 83.1667,-6.3099 83.0625,-6.42969 C82.9583,-6.54948 82.8229,-6.65104 82.6563,-6.73438 C82.5729,-6.78646 82.401,-6.83333 82.1406,-6.875 L82.1406,-7.15625 M94.5625,-1.03125 C93.8229,-0.46875 93.3594,-0.140625 93.1719,-0.046875 C92.8906,0.0885417 92.5938,0.15625 92.2813,0.15625 C91.7813,0.15625 91.3724,-0.015625 91.0547,-0.359375 C90.737,-0.703125 90.5781,-1.15104 90.5781,-1.70313 C90.5781,-2.04688 90.6563,-2.34896 90.8125,-2.60938 C91.0208,-2.96354 91.3906,-3.29688 91.9219,-3.60938 C92.4531,-3.92188 93.3333,-4.30208 94.5625,-4.75 L94.5625,-5.03125 C94.5625,-5.73958 94.4479,-6.22656 94.2188,-6.49219 C93.9896,-6.75781 93.6615,-6.89063 93.2344,-6.89063 C92.901,-6.89063 92.6406,-6.80208 92.4531,-6.625 C92.2552,-6.44792 92.1563,-6.24479 92.1563,-6.01563 L92.1719,-5.5625 C92.1719,-5.32292 92.1094,-5.13802 91.9844,-5.00781 C91.8594,-4.8776 91.6979,-4.8125 91.5,-4.8125 C91.3125,-4.8125 91.1563,-4.88021 91.0313,-5.01563 C90.9063,-5.15104 90.8438,-5.33854 90.8438,-5.57813 C90.8438,-6.02604 91.0729,-6.4375 91.5313,-6.8125 C91.9896,-7.1875 92.6354,-7.375 93.4688,-7.375 C94.1042,-7.375 94.625,-7.26563 95.0313,-7.04688 C95.3333,-6.89063 95.5573,-6.64063 95.7031,-6.29688 C95.7969,-6.06771 95.8438,-5.60938 95.8438,-4.92188 L95.8438,-2.48438 C95.8438,-1.80729 95.8568,-1.39063 95.8828,-1.23438 C95.9089,-1.07813 95.9531,-0.973958 96.0156,-0.921875 C96.0781,-0.869792 96.1458,-0.84375 96.2188,-0.84375 C96.3021,-0.84375 96.375,-0.864583 96.4375,-0.90625 C96.5521,-0.96875 96.7656,-1.15625 97.0781,-1.46875 L97.0781,-1.03125 C96.4948,-0.25 95.9375,0.140625 95.4063,0.140625 C95.1458,0.140625 94.9401,0.0520833 94.7891,-0.125 C94.638,-0.302083 94.5625,-0.604167 94.5625,-1.03125 M94.5625,-1.54688 L94.5625,-4.26563 C93.7708,-3.95313 93.2604,-3.73438 93.0313,-3.60938 C92.625,-3.38021 92.3333,-3.14063 92.1563,-2.89063 C91.9792,-2.64063 91.8906,-2.36458 91.8906,-2.0625 C91.8906,-1.6875 92.0026,-1.3776 92.2266,-1.13281 C92.4505,-0.888021 92.7083,-0.765625 93,-0.765625 C93.3958,-0.765625 93.9167,-1.02604 94.5625,-1.54688 M99.5938,-7.375 L99.5938,-5.76563 C100.198,-6.83854 100.813,-7.375 101.438,-7.375 C101.729,-7.375 101.969,-7.28646 102.156,-7.10938 C102.344,-6.93229 102.438,-6.72917 102.438,-6.5 C102.438,-6.30208 102.37,-6.13281 102.234,-5.99219 C102.099,-5.85156 101.938,-5.78125 101.75,-5.78125 C101.563,-5.78125 101.357,-5.86979 101.133,-6.04688 C100.909,-6.22396 100.74,-6.3125 100.625,-6.3125 C100.531,-6.3125 100.432,-6.26042 100.328,-6.15625 C100.089,-5.94792 99.8438,-5.59896 99.5938,-5.10938 L99.5938,-1.67188 C99.5938,-1.27604 99.6458,-0.979167 99.75,-0.78125 C99.8125,-0.635417 99.9297,-0.515625 100.102,-0.421875 C100.273,-0.328125 100.521,-0.28125 100.844,-0.28125 L100.844,0 L97.1875,0 L97.1875,-0.28125 C97.5521,-0.28125 97.8229,-0.338542 98,-0.453125 C98.125,-0.536458 98.2135,-0.671875 98.2656,-0.859375 C98.2969,-0.942708 98.3125,-1.19271 98.3125,-1.60938 L98.3125,-4.39063 C98.3125,-5.22396 98.2943,-5.71875 98.2578,-5.875 C98.2214,-6.03125 98.1589,-6.14583 98.0703,-6.21875 C97.9818,-6.29167 97.8698,-6.32813 97.7344,-6.32813 C97.5677,-6.32813 97.3854,-6.29167 97.1875,-6.21875 L97.1094,-6.5 L99.2656,-7.375 L99.5938,-7.375 M103.391,-10.8438 L103.391,-11.1094 C104.255,-10.9948 104.961,-10.6458 105.508,-10.0625 C106.055,-9.47917 106.328,-8.82813 106.328,-8.10938 C106.328,-7.73438 106.268,-7.29948 106.148,-6.80469 C106.029,-6.3099 105.969,-5.92188 105.969,-5.64063 C105.969,-5.26563 106.125,-4.91667 106.438,-4.59375 C106.75,-4.27083 107.188,-4.07292 107.75,-4 L107.75,-3.67188 C107.188,-3.59896 106.75,-3.40104 106.438,-3.07813 C106.125,-2.75521 105.969,-2.40625 105.969,-2.03125 C105.969,-1.75 106.029,-1.36198 106.148,-0.867188 C106.268,-0.372396 106.328,0.0677083 106.328,0.453125 C106.328,1.16146 106.055,1.8099 105.508,2.39844 C104.961,2.98698 104.255,3.33854 103.391,3.45313 L103.391,3.1875 C103.995,3.03125 104.44,2.78906 104.727,2.46094 C105.013,2.13281 105.156,1.77083 105.156,1.375 C105.156,1.0625 105.096,0.653646 104.977,0.148438 C104.857,-0.356771 104.797,-0.78125 104.797,-1.125 C104.797,-1.65625 104.99,-2.16927 105.375,-2.66406 C105.76,-3.15885 106.339,-3.54167 107.109,-3.8125 C106.359,-4.09375 105.786,-4.48698 105.391,-4.99219 C104.995,-5.4974 104.797,-6.01042 104.797,-6.53125 C104.797,-6.88542 104.857,-7.3151 104.977,-7.82031 C105.096,-8.32552 105.156,-8.72917 105.156,-9.03125 C105.156,-9.42708 105.013,-9.79167 104.727,-10.125 C104.44,-10.4583 103.995,-10.6979 103.391,-10.8438 M110.844,-2.60938 L111.188,-2.60938 C111.25,-1.90104 111.477,-1.35677 111.867,-0.976563 C112.258,-0.596354 112.839,-0.369792 113.609,-0.296875 L113.609,-4.85938 C112.443,-5.57813 111.661,-6.21875 111.266,-6.78125 C110.995,-7.17708 110.859,-7.65625 110.859,-8.21875 C110.859,-8.86458 111.096,-9.42708 111.57,-9.90625 C112.044,-10.3854 112.724,-10.6719 113.609,-10.7656 L113.609,-11.4844 L114.109,-11.4844 L114.109,-10.7656 C114.536,-10.7448 114.896,-10.6979 115.188,-10.625 C115.344,-10.5833 115.844,-10.401 116.688,-10.0781 L116.688,-7.75 L116.391,-7.75 C116.318,-8.57292 116.102,-9.17708 115.742,-9.5625 C115.383,-9.94792 114.839,-10.1771 114.109,-10.25 L114.109,-6.28125 C115.422,-5.36458 116.266,-4.6875 116.641,-4.25 C117.016,-3.8125 117.203,-3.27083 117.203,-2.625 C117.203,-1.90625 116.93,-1.27344 116.383,-0.726563 C115.836,-0.179688 115.078,0.135417 114.109,0.21875 L114.109,1.21875 L113.609,1.21875 L113.609,0.21875 C113.12,0.197917 112.664,0.140625 112.242,0.046875 C111.82,-0.046875 111.354,-0.197917 110.844,-0.40625 L110.844,-2.60938 M113.609,-6.60938 L113.609,-10.2344 C113.089,-10.1719 112.703,-10.0078 112.453,-9.74219 C112.203,-9.47656 112.078,-9.14063 112.078,-8.73438 C112.078,-8.34896 112.193,-7.99219 112.422,-7.66406 C112.651,-7.33594 113.047,-6.98438 113.609,-6.60938 M114.109,-0.296875 C114.505,-0.359375 114.807,-0.453125 115.016,-0.578125 C115.307,-0.765625 115.536,-1.00521 115.703,-1.29688 C115.87,-1.58854 115.953,-1.90104 115.953,-2.23438 C115.953,-2.57813 115.852,-2.90365 115.648,-3.21094 C115.445,-3.51823 114.932,-3.95313 114.109,-4.51563 L114.109,-0.296875"/>
</g>

<g fill="#212121" fill-opacity="1" stroke="#212121" stroke-opacity="1" stroke-width="1.06667" stroke-linecap="square" stroke-linejoin="round" transform="matrix(0.75,0,0,0.75,-10.8,-13.14)"
font-family="MS Shell Dlg 2" font-size="8.25" font-weight="400" font-style="normal" 
>
<polyline fill="none" vector-effect="none" points="59,298 59,25 " />
<polyline fill="none" vector-effect="none" points="411,298 411,25 " />
<polyline fill="none" vector-effect="none" points="59,298 62.52,298 " />
<polyline fill="none" vector-effect="none" points="407.48,298 411,298 " />
<polyline fill="none" vector-effect="none" points="59,243.4 62.52,243.4 " />
<polyline fill="none" vector-effect="none" points="407.48,243.4 411,243.4 " />
<polyline fill="none" vector-effect="none" points="59,188.8 62.52,188.8 " />
<polyline fill="none" vector-effect="none" points="407.48,188.8 411,188.8 " />
<polyline fill="none" vector-effect="none" points="59,134.2 62.52,134.2 " />
<polyline fill="none" vector-effect="none" points="407.48,134.2 411,134.2 " />
<polyline fill="none" vector-effect="none" points="59,79.6 62.52,79.6 " />
<polyline fill="none" vector-effect="none" points="407.48,79.6 411,79.6 " />
<polyline fill="none" vector-effect="none" points="59,25 62.52,25 " />
<polyline fill="none" vector-effect="none" points="407.48,25 411,25 " />
</g>

<g fill="#212121" fill-opacity="1" stroke="none" transform="matrix(0.75,0,0,0.75,23.75,213)"
font-family="MS Shell Dlg 2" font-size="8.25" font-weight="400" font-style="normal" 
>
<path vector-effect="none" fill-rule="evenodd" d="M3.5,0.3125 C2.35417,0.3125 1.57552,-0.158854 1.16406,-1.10156 C0.752604,-2.04427 0.546875,-3.16667 0.546875,-4.46875 C0.546875,-5.28125 0.619792,-6.04427 0.765625,-6.75781 C0.911458,-7.47135 1.20573,-8.07813 1.64844,-8.57813 C2.09115,-9.07813 2.70833,-9.32813 3.5,-9.32813 C4.11458,-9.32813 4.61719,-9.17708 5.00781,-8.875 C5.39844,-8.57292 5.69792,-8.1849 5.90625,-7.71094 C6.11458,-7.23698 6.25521,-6.72656 6.32813,-6.17969 C6.40104,-5.63281 6.4375,-5.0625 6.4375,-4.46875 C6.4375,-3.66667 6.36458,-2.91406 6.21875,-2.21094 C6.07292,-1.50781 5.78385,-0.911458 5.35156,-0.421875 C4.91927,0.0677083 4.30208,0.3125 3.5,0.3125 M3.5,-0.0625 C4.02083,-0.0625 4.40885,-0.328125 4.66406,-0.859375 C4.91927,-1.39063 5.07552,-1.97917 5.13281,-2.625 C5.1901,-3.27083 5.21875,-3.95833 5.21875,-4.6875 C5.21875,-5.39583 5.1901,-6.04427 5.13281,-6.63281 C5.07552,-7.22135 4.91927,-7.75781 4.66406,-8.24219 C4.40885,-8.72656 4.02083,-8.96875 3.5,-8.96875 C2.96875,-8.96875 2.57552,-8.72656 2.32031,-8.24219 C2.0651,-7.75781 1.90885,-7.22135 1.85156,-6.63281 C1.79427,-6.04427 1.76563,-5.39583 1.76563,-4.6875 C1.76563,-4.16667 1.77865,-3.67708 1.80469,-3.21875 C1.83073,-2.76042 1.89844,-2.28646 2.00781,-1.79688 C2.11719,-1.30729 2.29427,-0.895833 2.53906,-0.5625 C2.78385,-0.229167 3.10417,-0.0625 3.5,-0.0625 "/>
</g>

<g fill="#212121" fill-opacity="1" stroke="none" transform="matrix(0.75,0,0,0.75,23.75,172.05)"
font-family="MS Shell Dlg 2" font-size="8.25" font-weight="400" font-style="normal" 
>
<path vector-effect="none" fill-rule="evenodd" d="M1.21875,-1.59375 C1.3125,-1.32292 1.45833,-1.07552 1.65625,-0.851563 C1.85417,-0.627604 2.08854,-0.453125 2.35938,-0.328125 C2.63021,-0.203125 2.91146,-0.140625 3.20313,-0.140625 C3.88021,-0.140625 4.34635,-0.403646 4.60156,-0.929688 C4.85677,-1.45573 4.98438,-2.08854 4.98438,-2.82813 C4.98438,-3.15104 4.97917,-3.42448 4.96875,-3.64844 C4.95833,-3.8724 4.92708,-4.08333 4.875,-4.28125 C4.79167,-4.61458 4.64063,-4.90365 4.42188,-5.14844 C4.20313,-5.39323 3.9375,-5.51563 3.625,-5.51563 C3.3125,-5.51563 3.04167,-5.46875 2.8125,-5.375 C2.58333,-5.28125 2.39844,-5.16927 2.25781,-5.03906 C2.11719,-4.90885 1.99219,-4.77344 1.88281,-4.63281 C1.77344,-4.49219 1.70833,-4.41667 1.6875,-4.40625 L1.53125,-4.40625 C1.5,-4.40625 1.46875,-4.42188 1.4375,-4.45313 C1.40625,-4.48438 1.39063,-4.51563 1.39063,-4.54688 L1.39063,-9.21875 C1.39063,-9.23958 1.40625,-9.26302 1.4375,-9.28906 C1.46875,-9.3151 1.5,-9.32813 1.53125,-9.32813 L1.5625,-9.32813 C2.19792,-9.02604 2.86458,-8.875 3.5625,-8.875 C4.26042,-8.875 4.93229,-9.02604 5.57813,-9.32813 L5.60938,-9.32813 C5.64063,-9.32813 5.67188,-9.3151 5.70313,-9.28906 C5.73438,-9.26302 5.75,-9.23958 5.75,-9.21875 L5.75,-9.07813 C5.75,-9.03646 5.73958,-9.01563 5.71875,-9.01563 C5.39583,-8.58854 4.99479,-8.25781 4.51563,-8.02344 C4.03646,-7.78906 3.53646,-7.67188 3.01563,-7.67188 C2.65104,-7.67188 2.27083,-7.72396 1.875,-7.82813 L1.875,-5.1875 C2.1875,-5.4375 2.46354,-5.61458 2.70313,-5.71875 C2.94271,-5.82292 3.25521,-5.875 3.64063,-5.875 C4.15104,-5.875 4.61198,-5.72656 5.02344,-5.42969 C5.4349,-5.13281 5.75,-4.7474 5.96875,-4.27344 C6.1875,-3.79948 6.29688,-3.3125 6.29688,-2.8125 C6.29688,-2.25 6.15885,-1.73177 5.88281,-1.25781 C5.60677,-0.783854 5.23177,-0.403646 4.75781,-0.117188 C4.28385,0.169271 3.76563,0.3125 3.20313,0.3125 C2.74479,0.3125 2.32292,0.192708 1.9375,-0.046875 C1.55208,-0.286458 1.25,-0.606771 1.03125,-1.00781 C0.8125,-1.40885 0.703125,-1.83333 0.703125,-2.28125 C0.703125,-2.48958 0.770833,-2.66146 0.90625,-2.79688 C1.04167,-2.93229 1.21354,-3 1.42188,-3 C1.61979,-3 1.78906,-2.93229 1.92969,-2.79688 C2.07031,-2.66146 2.14063,-2.48958 2.14063,-2.28125 C2.14063,-2.08333 2.07031,-1.91667 1.92969,-1.78125 C1.78906,-1.64583 1.61979,-1.57813 1.42188,-1.57813 C1.39063,-1.57813 1.35417,-1.58073 1.3125,-1.58594 C1.27083,-1.59115 1.23958,-1.59375 1.21875,-1.59375 "/>
</g>

<g fill="#212121" fill-opacity="1" stroke="none" transform="matrix(0.75,0,0,0.75,18.25,131.1)"
font-family="MS Shell Dlg 2" font-size="8.25" font-weight="400" font-style="normal" 
>
<path vector-effect="none" fill-rule="evenodd" d="M1.29688,0 L1.29688,-0.5 C2.46354,-0.5 3.04688,-0.645833 3.04688,-0.9375 L3.04688,-8.28125 C2.56771,-8.05208 1.95833,-7.9375 1.21875,-7.9375 L1.21875,-8.42188 C2.36458,-8.42188 3.22917,-8.72396 3.8125,-9.32813 L4,-9.32813 C4.03125,-9.32813 4.0625,-9.3151 4.09375,-9.28906 C4.125,-9.26302 4.14063,-9.23438 4.14063,-9.20313 L4.14063,-0.9375 C4.14063,-0.645833 4.72396,-0.5 5.89063,-0.5 L5.89063,0 L1.29688,0"/>
</g>

<g fill="#212121" fill-opacity="1" stroke="none" transform="matrix(0.75,0,0,0.75,23.75,131.1)"
font-family="MS Shell Dlg 2" font-size="8.25" font-weight="400" font-style="normal" 
>
<path vector-effect="none" fill-rule="evenodd" d="M3.5,0.3125 C2.35417,0.3125 1.57552,-0.158854 1.16406,-1.10156 C0.752604,-2.04427 0.546875,-3.16667 0.546875,-4.46875 C0.546875,-5.28125 0.619792,-6.04427 0.765625,-6.75781 C0.911458,-7.47135 1.20573,-8.07813 1.64844,-8.57813 C2.09115,-9.07813 2.70833,-9.32813 3.5,-9.32813 C4.11458,-9.32813 4.61719,-9.17708 5.00781,-8.875 C5.39844,-8.57292 5.69792,-8.1849 5.90625,-7.71094 C6.11458,-7.23698 6.25521,-6.72656 6.32813,-6.17969 C6.40104,-5.63281 6.4375,-5.0625 6.4375,-4.46875 C6.4375,-3.66667 6.36458,-2.91406 6.21875,-2.21094 C6.07292,-1.50781 5.78385,-0.911458 5.35156,-0.421875 C4.91927,0.0677083 4.30208,0.3125 3.5,0.3125 M3.5,-0.0625 C4.02083,-0.0625 4.40885,-0.328125 4.66406,-0.859375 C4.91927,-1.39063 5.07552,-1.97917 5.13281,-2.625 C5.1901,-3.27083 5.21875,-3.95833 5.21875,-4.6875 C5.21875,-5.39583 5.1901,-6.04427 5.13281,-6.63281 C5.07552,-7.22135 4.91927,-7.75781 4.66406,-8.24219 C4.40885,-8.72656 4.02083,-8.96875 3.5,-8.96875 C2.96875,-8.96875 2.57552,-8.72656 2.32031,-8.24219 C2.0651,-7.75781 1.90885,-7.22135 1.85156,-6.63281 C1.79427,-6.04427 1.76563,-5.39583 1.76563,-4.6875 C1.76563,-4.16667 1.77865,-3.67708 1.80469,-3.21875 C1.83073,-2.76042 1.89844,-2.28646 2.00781,-1.79688 C2.11719,-1.30729 2.29427,-0.895833 2.53906,-0.5625 C2.78385,-0.229167 3.10417,-0.0625 3.5,-0.0625 "/>
</g>

<g fill="#212121" fill-opacity="1" stroke="none" transform="matrix(0.75,0,0,0.75,18.25,90.15)"
font-family="MS Shell Dlg 2" font-size="8.25" font-weight="400" font-style="normal" 
>
<path vector-effect="none" fill-rule="evenodd" d="M1.29688,0 L1.29688,-0.5 C2.46354,-0.5 3.04688,-0.645833 3.04688,-0.9375 L3.04688,-8.28125 C2.56771,-8.05208 1.95833,-7.9375 1.21875,-7.9375 L1.21875,-8.42188 C2.36458,-8.42188 3.22917,-8.72396 3.8125,-9.32813 L4,-9.32813 C4.03125,-9.32813 4.0625,-9.3151 4.09375,-9.28906 C4.125,-9.26302 4.14063,-9.23438 4.14063,-9.20313 L4.14063,-0.9375 C4.14063,-0.645833 4.72396,-0.5 5.89063,-0.5 L5.89063,0 L1.29688,0"/>
</g>

<g fill="#212121" fill-opacity="1" stroke="none" transform="matrix(0.75,0,0,0.75,23.75,90.15)"
font-family="MS Shell Dlg 2" font-size="8.25" font-weight="400" font-style="normal" 
>
<path vector-effect="none" fill-rule="evenodd" d="M1.21875,-1.59375 C1.3125,-1.32292 1.45833,-1.07552 1.65625,-0.851563 C1.85417,-0.627604 2.08854,-0.453125 2.35938,-0.328125 C2.63021,-0.203125 2.91146,-0.140625 3.20313,-0.140625 C3.88021,-0.140625 4.34635,-0.403646 4.60156,-0.929688 C4.85677,-1.45573 4.98438,-2.08854 4.98438,-2.82813 C4.98438,-3.15104 4.97917,-3.42448 4.96875,-3.64844 C4.95833,-3.8724 4.92708,-4.08333 4.875,-4.28125 C4.79167,-4.61458 4.64063,-4.90365 4.42188,-5.14844 C4.20313,-5.39323 3.9375,-5.51563 3.625,-5.51563 C3.3125,-5.51563 3.04167,-5.46875 2.8125,-5.375 C2.58333,-5.28125 2.39844,-5.16927 2.25781,-5.03906 C2.11719,-4.90885 1.99219,-4.77344 1.88281,-4.63281 C1.77344,-4.49219 1.70833,-4.41667 1.6875,-4.40625 L1.53125,-4.40625 C1.5,-4.40625 1.46875,-4.42188 1.4375,-4.45313 C1.40625,-4.48438 1.39063,-4.51563 1.39063,-4.54688 L1.39063,-9.21875 C1.39063,-9.23958 1.40625,-9.26302 1.4375,-9.28906 C1.46875,-9.3151 1.5,-9.32813 1.53125,-9.32813 L1.5625,-9.32813 C2.19792,-9.02604 2.86458,-8.875 3.5625,-8.875 C4.26042,-8.875 4.93229,-9.02604 5.57813,-9.32813 L5.60938,-9.32813 C5.64063,-9.32813 5.67188,-9.3151 5.70313,-9.28906 C5.73438,-9.26302 5.75,-9.23958 5.75,-9.21875 L5.75,-9.07813 C5.75,-9.03646 5.73958,-9.01563 5.71875,-9.01563 C5.39583,-8.58854 4.99479,-8.25781 4.51563,-8.02344 C4.03646,-7.78906 3.53646,-7.67188 3.01563,-7.67188 C2.65104,-7.67188 2.27083,-7.72396 1.875,-7.82813 L1.875,-5.1875 C2.1875,-5.4375 2.46354,-5.61458 2.70313,-5.71875 C2.94271,-5.82292 3.25521,-5.875 3.64063,-5.875 C4.15104,-5.875 4.61198,-5.72656 5.02344,-5.42969 C5.4349,-5.13281 5.75,-4.7474 5.96875,-4.27344 C6.1875,-3.79948 6.29688,-3.3125 6.29688,-2.8125 C6.29688,-2.25 6.15885,-1.73177 5.88281,-1.25781 C5.60677,-0.783854 5.23177,-0.403646 4.75781,-0.117188 C4.28385,0.169271 3.76563,0.3125 3.20313,0.3125 C2.74479,0.3125 2.32292,0.192708 1.9375,-0.046875 C1.55208,-0.286458 1.25,-0.606771 1.03125,-1.00781 C0.8125,-1.40885 0.703125,-1.83333 0.703125,-2.28125 C0.703125,-2.48958 0.770833,-2.66146 0.90625,-2.79688 C1.04167,-2.93229 1.21354,-3 1.42188,-3 C1.61979,-3 1.78906,-2.93229 1.92969,-2.79688 C2.07031,-2.66146 2.14063,-2.48958 2.14063,-2.28125 C2.14063,-2.08333 2.07031,-1.91667 1.92969,-1.78125 C1.78906,-1.64583 1.61979,-1.57813 1.42188,-1.57813 C1.39063,-1.57813 1.35417,-1.58073 1.3125,-1.58594 C1.27083,-1.59115 1.23958,-1.59375 1.21875,-1.59375 "/>
</g>

<g fill="#212121" fill-opacity="1" stroke="none" transform="matrix(0.75,0,0,0.75,18.25,49.2)"
font-family="MS Shell Dlg 2" font-size="8.25" font-weight="400" font-style="normal" 
>
<path vector-effect="none" fill-rule="evenodd" d="M0.703125,0 L0.703125,-0.375 C0.703125,-0.395833 0.708333,-0.421875 0.71875,-0.453125 L2.90625,-2.85938 C3.22917,-3.21354 3.49219,-3.51042 3.69531,-3.75 C3.89844,-3.98958 4.10156,-4.26823 4.30469,-4.58594 C4.50781,-4.90365 4.66667,-5.22396 4.78125,-5.54688 C4.89583,-5.86979 4.95313,-6.21354 4.95313,-6.57813 C4.95313,-6.96354 4.88281,-7.33073 4.74219,-7.67969 C4.60156,-8.02865 4.39063,-8.30729 4.10938,-8.51563 C3.82813,-8.72396 3.48958,-8.82813 3.09375,-8.82813 C2.6875,-8.82813 2.32292,-8.70573 2,-8.46094 C1.67708,-8.21615 1.44792,-7.90104 1.3125,-7.51563 C1.35417,-7.52604 1.40625,-7.53125 1.46875,-7.53125 C1.67708,-7.53125 1.85677,-7.46094 2.00781,-7.32031 C2.15885,-7.17969 2.23438,-7 2.23438,-6.78125 C2.23438,-6.5625 2.15885,-6.38021 2.00781,-6.23438 C1.85677,-6.08854 1.67708,-6.01563 1.46875,-6.01563 C1.25,-6.01563 1.06771,-6.09115 0.921875,-6.24219 C0.776042,-6.39323 0.703125,-6.57292 0.703125,-6.78125 C0.703125,-7.125 0.768229,-7.45052 0.898438,-7.75781 C1.02865,-8.0651 1.21875,-8.33854 1.46875,-8.57813 C1.71875,-8.81771 2,-9.0026 2.3125,-9.13281 C2.625,-9.26302 2.95313,-9.32813 3.29688,-9.32813 C3.83854,-9.32813 4.33854,-9.21354 4.79688,-8.98438 C5.25521,-8.75521 5.61979,-8.4349 5.89063,-8.02344 C6.16146,-7.61198 6.29688,-7.13021 6.29688,-6.57813 C6.29688,-6.17188 6.20573,-5.78646 6.02344,-5.42188 C5.84115,-5.05729 5.61198,-4.72656 5.33594,-4.42969 C5.0599,-4.13281 4.70573,-3.79427 4.27344,-3.41406 C3.84115,-3.03385 3.55729,-2.78125 3.42188,-2.65625 L1.82813,-1.14063 L3.17188,-1.14063 C3.83854,-1.14063 4.39323,-1.14583 4.83594,-1.15625 C5.27865,-1.16667 5.51563,-1.18229 5.54688,-1.20313 C5.65104,-1.31771 5.76042,-1.75 5.875,-2.5 L6.29688,-2.5 L5.89063,0 L0.703125,0"/>
</g>

<g fill="#212121" fill-opacity="1" stroke="none" transform="matrix(0.75,0,0,0.75,23.75,49.2)"
font-family="MS Shell Dlg 2" font-size="8.25" font-weight="400" font-style="normal" 
>
<path vector-effect="none" fill-rule="evenodd" d="M3.5,0.3125 C2.35417,0.3125 1.57552,-0.158854 1.16406,-1.10156 C0.752604,-2.04427 0.546875,-3.16667 0.546875,-4.46875 C0.546875,-5.28125 0.619792,-6.04427 0.765625,-6.75781 C0.911458,-7.47135 1.20573,-8.07813 1.64844,-8.57813 C2.09115,-9.07813 2.70833,-9.32813 3.5,-9.32813 C4.11458,-9.32813 4.61719,-9.17708 5.00781,-8.875 C5.39844,-8.57292 5.69792,-8.1849 5.90625,-7.71094 C6.11458,-7.23698 6.25521,-6.72656 6.32813,-6.17969 C6.40104,-5.63281 6.4375,-5.0625 6.4375,-4.46875 C6.4375,-3.66667 6.36458,-2.91406 6.21875,-2.21094 C6.07292,-1.50781 5.78385,-0.911458 5.35156,-0.421875 C4.91927,0.0677083 4.30208,0.3125 3.5,0.3125 M3.5,-0.0625 C4.02083,-0.0625 4.40885,-0.328125 4.66406,-0.859375 C4.91927,-1.39063 5.07552,-1.97917 5.13281,-2.625 C5.1901,-3.27083 5.21875,-3.95833 5.21875,-4.6875 C5.21875,-5.39583 5.1901,-6.04427 5.13281,-6.63281 C5.07552,-7.22135 4.91927,-7.75781 4.66406,-8.24219 C4.40885,-8.72656 4.02083,-8.96875 3.5,-8.96875 C2.96875,-8.96875 2.57552,-8.72656 2.32031,-8.24219 C2.0651,-7.75781 1.90885,-7.22135 1.85156,-6.63281 C1.79427,-6.04427 1.76563,-5.39583 1.76563,-4.6875 C1.76563,-4.16667 1.77865,-3.67708 1.80469,-3.21875 C1.83073,-2.76042 1.89844,-2.28646 2.00781,-1.79688 C2.11719,-1.30729 2.29427,-0.895833 2.53906,-0.5625 C2.78385,-0.229167 3.10417,-0.0625 3.5,-0.0625 "/>
</g>

<g fill="#212121" fill-opacity="1" stroke="none" transform="matrix(0.75,0,0,0.75,18.25,8.25)"
font-family="MS Shell Dlg 2" font-size="8.25" font-weight="400" font-style="normal" 
>
<path vector-effect="none" fill-rule="evenodd" d="M0.703125,0 L0.703125,-0.375 C0.703125,-0.395833 0.708333,-0.421875 0.71875,-0.453125 L2.90625,-2.85938 C3.22917,-3.21354 3.49219,-3.51042 3.69531,-3.75 C3.89844,-3.98958 4.10156,-4.26823 4.30469,-4.58594 C4.50781,-4.90365 4.66667,-5.22396 4.78125,-5.54688 C4.89583,-5.86979 4.95313,-6.21354 4.95313,-6.57813 C4.95313,-6.96354 4.88281,-7.33073 4.74219,-7.67969 C4.60156,-8.02865 4.39063,-8.30729 4.10938,-8.51563 C3.82813,-8.72396 3.48958,-8.82813 3.09375,-8.82813 C2.6875,-8.82813 2.32292,-8.70573 2,-8.46094 C1.67708,-8.21615 1.44792,-7.90104 1.3125,-7.51563 C1.35417,-7.52604 1.40625,-7.53125 1.46875,-7.53125 C1.67708,-7.53125 1.85677,-7.46094 2.00781,-7.32031 C2.15885,-7.17969 2.23438,-7 2.23438,-6.78125 C2.23438,-6.5625 2.15885,-6.38021 2.00781,-6.23438 C1.85677,-6.08854 1.67708,-6.01563 1.46875,-6.01563 C1.25,-6.01563 1.06771,-6.09115 0.921875,-6.24219 C0.776042,-6.39323 0.703125,-6.57292 0.703125,-6.78125 C0.703125,-7.125 0.768229,-7.45052 0.898438,-7.75781 C1.02865,-8.0651 1.21875,-8.33854 1.46875,-8.57813 C1.71875,-8.81771 2,-9.0026 2.3125,-9.13281 C2.625,-9.26302 2.95313,-9.32813 3.29688,-9.32813 C3.83854,-9.32813 4.33854,-9.21354 4.79688,-8.98438 C5.25521,-8.75521 5.61979,-8.4349 5.89063,-8.02344 C6.16146,-7.61198 6.29688,-7.13021 6.29688,-6.57813 C6.29688,-6.17188 6.20573,-5.78646 6.02344,-5.42188 C5.84115,-5.05729 5.61198,-4.72656 5.33594,-4.42969 C5.0599,-4.13281 4.70573,-3.79427 4.27344,-3.41406 C3.84115,-3.03385 3.55729,-2.78125 3.42188,-2.65625 L1.82813,-1.14063 L3.17188,-1.14063 C3.83854,-1.14063 4.39323,-1.14583 4.83594,-1.15625 C5.27865,-1.16667 5.51563,-1.18229 5.54688,-1.20313 C5.65104,-1.31771 5.76042,-1.75 5.875,-2.5 L6.29688,-2.5 L5.89063,0 L0.703125,0"/>
</g>

<g fill="#212121" fill-opacity="1" stroke="none" transform="matrix(0.75,0,0,0.75,23.75,8.25)"
font-family="MS Shell Dlg 2" font-size="8.25" font-weight="400" font-style="normal" 
>
<path vector-effect="none" fill-rule="evenodd" d="M1.21875,-1.59375 C1.3125,-1.32292 1.45833,-1.07552 1.65625,-0.851563 C1.85417,-0.627604 2.08854,-0.453125 2.35938,-0.328125 C2.63021,-0.203125 2.91146,-0.140625 3.20313,-0.140625 C3.88021,-0.140625 4.34635,-0.403646 4.60156,-0.929688 C4.85677,-1.45573 4.98438,-2.08854 4.98438,-2.82813 C4.98438,-3.15104 4.97917,-3.42448 4.96875,-3.64844 C4.95833,-3.8724 4.92708,-4.08333 4.875,-4.28125 C4.79167,-4.61458 4.64063,-4.90365 4.42188,-5.14844 C4.20313,-5.39323 3.9375,-5.51563 3.625,-5.51563 C3.3125,-5.51563 3.04167,-5.46875 2.8125,-5.375 C2.58333,-5.28125 2.39844,-5.16927 2.25781,-5.03906 C2.11719,-4.90885 1.99219,-4.77344 1.88281,-4.63281 C1.77344,-4.49219 1.70833,-4.41667 1.6875,-4.40625 L1.53125,-4.40625 C1.5,-4.40625 1.46875,-4.42188 1.4375,-4.45313 C1.40625,-4.48438 1.39063,-4.51563 1.39063,-4.54688 L1.39063,-9.21875 C1.39063,-9.23958 1.40625,-9.26302 1.4375,-9.28906 C1.46875,-9.3151 1.5,-9.32813 1.53125,-9.32813 L1.5625,-9.32813 C2.19792,-9.02604 2.86458,-8.875 3.5625,-8.875 C4.26042,-8.875 4.93229,-9.02604 5.57813,-9.32813 L5.60938,-9.32813 C5.64063,-9.32813 5.67188,-9.3151 5.70313,-9.28906 C5.73438,-9.26302 5.75,-9.23958 5.75,-9.21875 L5.75,-9.07813 C5.75,-9.03646 5.73958,-9.01563 5.71875,-9.01563 C5.39583,-8.58854 4.99479,-8.25781 4.51563,-8.02344 C4.03646,-7.78906 3.53646,-7.67188 3.01563,-7.67188 C2.65104,-7.67188 2.27083,-7.72396 1.875,-7.82813 L1.875,-5.1875 C2.1875,-5.4375 2.46354,-5.61458 2.70313,-5.71875 C2.94271,-5.82292 3.25521,-5.875 3.64063,-5.875 C4.15104,-5.875 4.61198,-5.72656 5.02344,-5.42969 C5.4349,-5.13281 5.75,-4.7474 5.96875,-4.27344 C6.1875,-3.79948 6.29688,-3.3125 6.29688,-2.8125 C6.29688,-2.25 6.15885,-1.73177 5.88281,-1.25781 C5.60677,-0.783854 5.23177,-0.403646 4.75781,-0.117188 C4.28385,0.169271 3.76563,0.3125 3.20313,0.3125 C2.74479,0.3125 2.32292,0.192708 1.9375,-0.046875 C1.55208,-0.286458 1.25,-0.606771 1.03125,-1.00781 C0.8125,-1.40885 0.703125,-1.83333 0.703125,-2.28125 C0.703125,-2.48958 0.770833,-2.66146 0.90625,-2.79688 C1.04167,-2.93229 1.21354,-3 1.42188,-3 C1.61979,-3 1.78906,-2.93229 1.92969,-2.79688 C2.07031,-2.66146 2.14063,-2.48958 2.14063,-2.28125 C2.14063,-2.08333 2.07031,-1.91667 1.92969,-1.78125 C1.78906,-1.64583 1.61979,-1.57813 1.42188,-1.57813 C1.39063,-1.57813 1.35417,-1.58073 1.3125,-1.58594 C1.27083,-1.59115 1.23958,-1.59375 1.21875,-1.59375 "/>
</g>

<g fill="none" stroke="#000000" stroke-opacity="1" stroke-dasharray="10,6" stroke-dashoffset="0" stroke-width="1.6" stroke-linecap="butt" stroke-linejoin="round" transform="matrix(0.75,0,0,0.75,-10.8,-13.14)"
font-family="MS Shell Dlg 2" font-size="8.25" font-weight="400" font-style="normal" 
>
<polyline fill="none" vector-effect="none" points="59,257.96 67.5095,257.993 76.0189,258.091 84.5284,258.253 93.0378,258.477 101.547,258.76 110.057,259.097 118.566,259.484 127.076,259.915 135.585,260.384 144.095,260.883 152.604,261.403 161.113,261.936 169.623,262.471 178.132,262.997 186.642,263.502 195.151,263.974 203.661,264.398 212.17,264.761 220.68,265.046 229.189,265.238 237.699,265.319 246.208,265.271 254.717,265.075 263.227,264.712 271.736,264.16 280.246,263.398 288.755,262.403 297.265,261.152 305.774,259.621 314.284,257.785 322.793,255.617 331.303,253.091 339.812,250.178 348.322,246.851 356.831,243.079 365.34,238.832 373.85,234.079 382.359,228.788 390.869,222.925 " />
</g>

<g fill="none" stroke="#000000" stroke-opacity="1" stroke-dasharray="1,3" stroke-dashoffset="0" stroke-width="1.6" stroke-linecap="butt" stroke-linejoin="round" transform="matrix(0.75,0,0,0.75,-10.8,-13.14)"
font-family="MS Shell Dlg 2" font-size="8.25" font-weight="400" font-style="normal" 
>
<polyline fill="none" vector-effect="none" points="59,265.24 67.5095,265.262 76.0189,265.326 84.5284,265.431 93.0378,265.576 101.547,265.756 110.057,265.97 118.566,266.21 127.076,266.473 135.585,266.752 144.095,267.04 152.604,267.328 161.113,267.607 169.623,267.869 178.132,268.102 186.642,268.294 195.151,268.434 203.661,268.508 212.17,268.502 220.68,268.402 229.189,268.191 237.699,267.853 246.208,267.372 254.717,266.727 263.227,265.901 271.736,264.873 280.246,263.622 288.755,262.128 297.265,260.366 305.774,258.315 314.284,255.949 322.793,253.244 331.303,250.174 339.812,246.712 348.322,242.83 356.831,238.5 365.34,233.692 373.85,228.377 382.359,222.524 390.869,216.1 " />
</g>

<g fill="none" stroke="#666666" stroke-opacity="1" stroke-width="2.66667" stroke-linecap="butt" stroke-linejoin="round" transform="matrix(0.75,0,0,0.75,-10.8,-13.14)"
font-family="MS Shell Dlg 2" font-size="8.25" font-weight="400" font-style="normal" 
>
<polyline fill="none" vector-effect="none" points="59,269.608 67.5095,269.622 76.0189,269.663 84.5284,269.731 93.0378,269.823 101.547,269.936 110.057,270.066 118.566,270.209 127.076,270.359 135.585,270.51 144.095,270.655 152.604,270.785 161.113,270.892 169.623,270.966 178.132,270.997 186.642,270.972 195.151,270.88 203.661,270.707 212.17,270.44 220.68,270.064 229.189,269.563 237.699,268.92 246.208,268.119 254.717,267.14 263.227,265.966 271.736,264.575 280.246,262.948 288.755,261.063 297.265,258.897 305.774,256.426 314.284,253.628 322.793,250.477 331.303,246.946 339.812,243.01 348.322,238.641 356.831,233.81 365.34,228.489 373.85,222.646 382.359,216.252 390.869,209.275 " />
</g>

<g fill="none" stroke="#000000" stroke-opacity="1" stroke-dasharray="8,3,2,3" stroke-dashoffset="0" stroke-width="1.6" stroke-linecap="butt" stroke-linejoin="round" transform="matrix(0.75,0,0,0.75,-10.8,-13.14)"
font-family="MS Shell Dlg 2" font-size="8.25" font-weight="400" font-style="normal" 
>
<polyline fill="none" vector-effect="none" points="59,274.6 67.5095,274.604 76.0189,274.615 84.5284,274.632 93.0378,274.652 101.547,274.673 110.057,274.691 118.566,274.7 127.076,274.696 135.585,274.671 144.095,274.618 152.604,274.529 161.113,274.394 169.623,274.203 178.132,273.945 186.642,273.609 195.151,273.182 203.661,272.649 212.17,271.997 220.68,271.21 229.189,270.272 237.699,269.165 246.208,267.872 254.717,266.374 263.227,264.65 271.736,262.681 280.246,260.444 288.755,257.918 297.265,255.078 305.774,251.901 314.284,248.362 322.793,244.434 331.303,240.091 339.812,235.305 348.322,230.048 356.831,224.289 365.34,218 373.85,211.147 382.359,203.7 390.869,195.625 " />
</g>

<g fill="#ffffff" fill-opacity="1" stroke="none" transform="matrix(7.5e-05,0,0,7.5e-05,-10.8,-13.14)"
font-family="MS Shell Dlg 2" font-size="8.25" font-weight="400" font-style="normal" 
>
<path vector-effect="none" fill-rule="evenodd" d="M700000,360000 L700000,1.05e+06 L3.09e+06,1.05e+06 L3.09e+06,360000 L700000,360000"/>
</g>

<g fill="#000000" fill-opacity="1" stroke="#000000" stroke-opacity="1" stroke-dasharray="10,6" stroke-dashoffset="0" stroke-width="1.6" stroke-linecap="butt" stroke-linejoin="round" transform="matrix(0.75,0,0,0.75,-10.8,-13.14)"
font-family="MS Shell Dlg 2" font-size="8.25" font-weight="400" font-style="normal" 
>
<polyline fill="none" vector-effect="none" points="74,45.9281 114,45.9281 " />
</g>

<g fill="#000000" fill-opacity="1" stroke="#000000" stroke-opacity="1" stroke-dasharray="1,3" stroke-dashoffset="0" stroke-width="1.6" stroke-linecap="butt" stroke-linejoin="round" transform="matrix(0.75,0,0,0.75,-10.8,-13.14)"
font-family="MS Shell Dlg 2" font-size="8.25" font-weight="400" font-style="normal" 
>
<polyline fill="none" vector-effect="none" points="74,62.3094 114,62.3094 " />
</g>

<g fill="#666666" fill-opacity="1" stroke="#666666" stroke-opacity="1" stroke-width="2.66667" stroke-linecap="butt" stroke-linejoin="round" transform="matrix(0.75,0,0,0.75,-10.8,-13.14)"
font-family="MS Shell Dlg 2" font-size="8.25" font-weight="400" font-style="normal" 
>
<polyline fill="none" vector-effect="none" points="74,78.6907 114,78.6907 " />
</g>

<g fill="#000000" fill-opacity="1" stroke="#000000" stroke-opacity="1" stroke-dasharray="8,3,2,3" stroke-dashoffset="0" stroke-width="1.6" stroke-linecap="butt" stroke-linejoin="round" transform="matrix(0.75,0,0,0.75,-10.8,-13.14)"
font-family="MS Shell Dlg 2" font-size="8.25" font-weight="400" font-style="normal" 
>
<polyline fill="none" vector-effect="none" points="74,95.0719 114,95.0719 " />
</g>

<g fill="none" stroke="#212121" stroke-opacity="1" stroke-width="1.06667" stroke-linecap="butt" stroke-linejoin="miter" stroke-miterlimit="2" transform="matrix(0.75,0,0,0.75,-10.8,-13.14)"
font-family="MS Shell Dlg 2" font-size="8.25" font-weight="400" font-style="normal" 
>
<path vector-effect="none" fill-rule="evenodd" d="M70,105 L70,36 L309,36 L309,105 L70,105"/>
</g>
</g>
</svg>
