<?xml version="1.0" encoding="UTF-8" standalone="no"?>
<svg width="107.95mm" height="105.481mm"
 viewBox="0 0 306 299"
 xmlns="http://www.w3.org/2000/svg" xmlns:xlink="http://www.w3.org/1999/xlink"  version="1.2" baseProfile="tiny">
<title>Qt SVG Document</title>
<desc>MATLAB, The MathWorks, Inc. Version 25.2.0.3055257 R2025b Update 2</desc>
<defs>
</defs>
<g fill="none" stroke="black" stroke-width="1" fill-rule="evenodd" stroke-linecap="square" stroke-linejoin="bevel" >

<g fill="#ffffff" fill-opacity="1" stroke="none" transform="matrix(0.75,0,0,0.75,-4.82677,-30.725)"
font-family="MS Shell Dlg 2" font-size="8.25" font-weight="400" font-style="normal" 
>
<path vector-effect="none" fill-rule="evenodd" d="M5,39 L414,39 L414,438 L5,438 L5,39"/>
</g>

<g fill="#ffffff" fill-opacity="1" stroke="none" transform="matrix(7.5e-05,0,0,7.5e-05,-4.82677,-30.725)"
font-family="MS Shell Dlg 2" font-size="8.25" font-weight="400" font-style="normal" 
>
<path vector-effect="none" fill-rule="evenodd" d="M600000,435000 L600000,3.945e+06 L4.11e+06,3.945e+06 L4.11e+06,435000 L600000,435000"/>
</g>

<g fill="#212121" fill-opacity="0.25098" stroke="#212121" stroke-opacity="0.25098" stroke-dasharray="1,3" stroke-dashoffset="0" stroke-width="1.06667" stroke-linecap="butt" stroke-linejoin="round" transform="matrix(0.75,0,0,0.75,-4.82677,-30.725)"
font-family="MS Shell Dlg 2" font-size="8.25" font-weight="400" font-style="normal" 
>
<polyline fill="none" vector-effect="none" points="98.6945,43.5 98.6945,394.5 " />
<polyline fill="none" vector-effect="none" points="138.764,43.5 138.764,394.5 " />
<polyline fill="none" vector-effect="none" points="235.5,43.5 235.5,394.5 " />
<polyline fill="none" vector-effect="none" points="332.236,43.5 332.236,394.5 " />
<polyline fill="none" vector-effect="none" points="372.306,43.5 372.306,394.5 " />
<polyline fill="none" vector-effect="none" points="60,355.806 411,355.806 " />
<polyline fill="none" vector-effect="none" points="60,315.736 411,315.736 " />
<polyline fill="none" vector-effect="none" points="60,219 411,219 " />
<polyline fill="none" vector-effect="none" points="60,122.264 411,122.264 " />
<polyline fill="none" vector-effect="none" points="60,82.1945 411,82.1945 " />
</g>

<g fill="#212121" fill-opacity="1" stroke="none" transform="matrix(0.75,0,0,0.75,165.921,295.139)"
font-family="MS Shell Dlg 2" font-size="8.25" font-weight="400" font-style="normal" 
>
<path vector-effect="none" fill-rule="evenodd" d="M1.25,-0.46875 C1.4375,-0.322917 1.70313,-0.25 2.04688,-0.25 C2.38021,-0.25 2.67448,-0.408854 2.92969,-0.726563 C3.1849,-1.04427 3.35938,-1.39583 3.45313,-1.78125 L4.1875,-4.60938 C4.30208,-5.13021 4.35938,-5.48438 4.35938,-5.67188 C4.35938,-5.93229 4.28385,-6.16146 4.13281,-6.35938 C3.98177,-6.55729 3.77604,-6.65625 3.51563,-6.65625 C3.17188,-6.65625 2.85156,-6.55208 2.55469,-6.34375 C2.25781,-6.13542 2.00781,-5.86719 1.80469,-5.53906 C1.60156,-5.21094 1.45833,-4.88021 1.375,-4.54688 C1.35417,-4.48438 1.3125,-4.45313 1.25,-4.45313 L1.0625,-4.45313 C0.979167,-4.45313 0.9375,-4.5 0.9375,-4.59375 L0.9375,-4.64063 C1.04167,-5.03646 1.21875,-5.42448 1.46875,-5.80469 C1.71875,-6.1849 2.02344,-6.49219 2.38281,-6.72656 C2.74219,-6.96094 3.13021,-7.07813 3.54688,-7.07813 C3.93229,-7.07813 4.28385,-6.97396 4.60156,-6.76563 C4.91927,-6.55729 5.14063,-6.27083 5.26563,-5.90625 C5.45313,-6.23958 5.6875,-6.51823 5.96875,-6.74219 C6.25,-6.96615 6.5625,-7.07813 6.90625,-7.07813 C7.13542,-7.07813 7.36979,-7.03646 7.60938,-6.95313 C7.84896,-6.86979 8.04427,-6.74479 8.19531,-6.57813 C8.34635,-6.41146 8.42188,-6.20313 8.42188,-5.95313 C8.42188,-5.68229 8.33333,-5.45052 8.15625,-5.25781 C7.97917,-5.0651 7.75521,-4.96875 7.48438,-4.96875 C7.31771,-4.96875 7.17708,-5.02344 7.0625,-5.13281 C6.94792,-5.24219 6.89063,-5.38021 6.89063,-5.54688 C6.89063,-5.76563 6.96615,-5.96094 7.11719,-6.13281 C7.26823,-6.30469 7.45313,-6.40625 7.67188,-6.4375 C7.47396,-6.58333 7.20833,-6.65625 6.875,-6.65625 C6.53125,-6.65625 6.23177,-6.4974 5.97656,-6.17969 C5.72135,-5.86198 5.54167,-5.51042 5.4375,-5.125 L4.73438,-2.29688 C4.61979,-1.86979 4.5625,-1.51563 4.5625,-1.23438 C4.5625,-0.963542 4.64063,-0.731771 4.79688,-0.539063 C4.95313,-0.346354 5.15625,-0.25 5.40625,-0.25 C5.90625,-0.25 6.35417,-0.46875 6.75,-0.90625 C7.14583,-1.34375 7.40625,-1.82813 7.53125,-2.35938 C7.55208,-2.42188 7.59375,-2.45313 7.65625,-2.45313 L7.84375,-2.45313 C7.88542,-2.45313 7.91927,-2.4375 7.94531,-2.40625 C7.97135,-2.375 7.98438,-2.34375 7.98438,-2.3125 C7.98438,-2.30208 7.97917,-2.28646 7.96875,-2.26563 C7.82292,-1.63021 7.50781,-1.0625 7.02344,-0.5625 C6.53906,-0.0625 5.98958,0.1875 5.375,0.1875 C4.98958,0.1875 4.63802,0.0807292 4.32031,-0.132813 C4.0026,-0.346354 3.78125,-0.635417 3.65625,-1 C3.48958,-0.6875 3.25781,-0.411458 2.96094,-0.171875 C2.66406,0.0677083 2.34896,0.1875 2.01563,0.1875 C1.78646,0.1875 1.55208,0.145833 1.3125,0.0625 C1.07292,-0.0208333 0.877604,-0.145833 0.726563,-0.3125 C0.575521,-0.479167 0.5,-0.692708 0.5,-0.953125 C0.5,-1.20313 0.585938,-1.42969 0.757813,-1.63281 C0.929688,-1.83594 1.14583,-1.9375 1.40625,-1.9375 C1.58333,-1.9375 1.73177,-1.88542 1.85156,-1.78125 C1.97135,-1.67708 2.03125,-1.53646 2.03125,-1.35938 C2.03125,-1.14063 1.95833,-0.947917 1.8125,-0.78125 C1.66667,-0.614583 1.47917,-0.510417 1.25,-0.46875 "/>
</g>

<g fill="#212121" fill-opacity="1" stroke="none" transform="matrix(0.75,0,0,0.75,172.836,296.954)"
font-family="MS Shell Dlg 2" font-size="8.25" font-weight="400" font-style="normal" 
>
<path vector-effect="none" fill-rule="evenodd" d="M1.01563,0 L1.01563,-0.390625 C1.93229,-0.390625 2.39063,-0.505208 2.39063,-0.734375 L2.39063,-6.51563 C2.01563,-6.32813 1.53646,-6.23438 0.953125,-6.23438 L0.953125,-6.625 C1.84896,-6.625 2.52604,-6.85938 2.98438,-7.32813 L3.14063,-7.32813 C3.17188,-7.32813 3.19792,-7.31771 3.21875,-7.29688 C3.23958,-7.27604 3.25,-7.25521 3.25,-7.23438 L3.25,-0.734375 C3.25,-0.505208 3.70833,-0.390625 4.625,-0.390625 L4.625,0 L1.01563,0"/>
</g>

<g fill="#212121" fill-opacity="1" stroke="#212121" stroke-opacity="1" stroke-width="1.06667" stroke-linecap="square" stroke-linejoin="round" transform="matrix(0.75,0,0,0.75,-4.82677,-30.725)"
font-family="MS Shell Dlg 2" font-size="8.25" font-weight="400" font-style="normal" 
>
<polyline fill="none" vector-effect="none" points="60,394.5 411,394.5 " />
<polyline fill="none" vector-effect="none" points="60,43.5 411,43.5 " />
<polyline fill="none" vector-effect="none" points="98.6945,394.5 98.6945,390.99 " />
<polyline fill="none" vector-effect="none" points="98.6945,47.01 98.6945,43.5 " />
<polyline fill="none" vector-effect="none" points="138.764,394.5 138.764,390.99 " />
<polyline fill="none" vector-effect="none" points="138.764,47.01 138.764,43.5 " />
<polyline fill="none" vector-effect="none" points="235.5,394.5 235.5,390.99 " />
<polyline fill="none" vector-effect="none" points="235.5,47.01 235.5,43.5 " />
<polyline fill="none" vector-effect="none" points="332.236,394.5 332.236,390.99 " />
<polyline fill="none" vector-effect="none" points="332.236,47.01 332.236,43.5 " />
<polyline fill="none" vector-effect="none" points="372.306,394.5 372.306,390.99 " />
<polyline fill="none" vector-effect="none" points="372.306,47.01 372.306,43.5 " />
</g>

<g fill="#212121" fill-opacity="1" stroke="none" transform="matrix(0.75,0,0,0.75,58.182,278.59)"
font-family="MS Shell Dlg 2" font-size="8.25" font-weight="400" font-style="normal" 
>
<path vector-effect="none" fill-rule="evenodd" d="M1.42188,-3.21875 C1.34896,-3.21875 1.28646,-3.2474 1.23438,-3.30469 C1.18229,-3.36198 1.15625,-3.42708 1.15625,-3.5 C1.15625,-3.57292 1.18229,-3.63802 1.23438,-3.69531 C1.28646,-3.7526 1.34896,-3.78125 1.42188,-3.78125 L9.46875,-3.78125 C9.54167,-3.78125 9.60156,-3.7526 9.64844,-3.69531 C9.69531,-3.63802 9.71875,-3.57292 9.71875,-3.5 C9.71875,-3.42708 9.69531,-3.36198 9.64844,-3.30469 C9.60156,-3.2474 9.54167,-3.21875 9.46875,-3.21875 L1.42188,-3.21875"/>
</g>

<g fill="#212121" fill-opacity="1" stroke="none" transform="matrix(0.75,0,0,0.75,66.7375,278.59)"
font-family="MS Shell Dlg 2" font-size="8.25" font-weight="400" font-style="normal" 
>
<path vector-effect="none" fill-rule="evenodd" d="M2.8125,0.15625 C2.375,0.15625 1.98438,0.0520833 1.64063,-0.15625 C1.29688,-0.364583 1.03125,-0.645833 0.84375,-1 C0.65625,-1.35417 0.5625,-1.76042 0.5625,-2.21875 C0.5625,-2.85417 0.739583,-3.48177 1.09375,-4.10156 C1.44792,-4.72135 1.91667,-5.22396 2.5,-5.60938 C3.08333,-5.99479 3.69792,-6.1875 4.34375,-6.1875 C4.8125,-6.1875 5.22656,-6.0625 5.58594,-5.8125 C5.94531,-5.5625 6.21875,-5.23177 6.40625,-4.82031 C6.59375,-4.40885 6.6875,-3.96875 6.6875,-3.5 L6.70313,-2.5625 C7.02604,-3.01042 7.29688,-3.47135 7.51563,-3.94531 C7.73438,-4.41927 7.90625,-4.91146 8.03125,-5.42188 C8.04167,-5.47396 8.07813,-5.5 8.14063,-5.5 L8.29688,-5.5 C8.38021,-5.5 8.42188,-5.45833 8.42188,-5.375 C8.42188,-5.36458 8.42188,-5.34896 8.42188,-5.32813 C8.30729,-4.90104 8.16927,-4.49219 8.00781,-4.10156 C7.84635,-3.71094 7.65365,-3.33073 7.42969,-2.96094 C7.20573,-2.59115 6.96354,-2.25521 6.70313,-1.95313 C6.70313,-0.796875 6.83854,-0.21875 7.10938,-0.21875 C7.28646,-0.21875 7.42969,-0.270833 7.53906,-0.375 C7.64844,-0.479167 7.74479,-0.606771 7.82813,-0.757813 C7.91146,-0.908854 7.96354,-0.984375 7.98438,-0.984375 L8.15625,-0.984375 C8.22917,-0.984375 8.26563,-0.9375 8.26563,-0.84375 C8.26563,-0.614583 8.13281,-0.390625 7.86719,-0.171875 C7.60156,0.046875 7.33854,0.15625 7.07813,0.15625 C6.74479,0.15625 6.46615,0.046875 6.24219,-0.171875 C6.01823,-0.390625 5.86458,-0.677083 5.78125,-1.03125 C5.34375,-0.65625 4.86979,-0.364583 4.35938,-0.15625 C3.84896,0.0520833 3.33333,0.15625 2.8125,0.15625 M2.84375,-0.21875 C3.84375,-0.21875 4.80208,-0.630208 5.71875,-1.45313 C5.70833,-1.50521 5.70052,-1.57031 5.69531,-1.64844 C5.6901,-1.72656 5.6875,-1.77083 5.6875,-1.78125 L5.6875,-3.29688 C5.6875,-4.98438 5.22917,-5.82813 4.3125,-5.82813 C3.77083,-5.82813 3.29427,-5.59375 2.88281,-5.125 C2.47135,-4.65625 2.16146,-4.09896 1.95313,-3.45313 C1.74479,-2.80729 1.64063,-2.21354 1.64063,-1.67188 C1.64063,-1.26563 1.74479,-0.921875 1.95313,-0.640625 C2.16146,-0.359375 2.45833,-0.21875 2.84375,-0.21875 "/>
</g>

<g fill="#212121" fill-opacity="1" stroke="none" transform="matrix(0.75,0,0,0.75,73.7743,280.24)"
font-family="MS Shell Dlg 2" font-size="8.25" font-weight="400" font-style="normal" 
>
<path vector-effect="none" fill-rule="evenodd" d="M0.328125,0 L0.328125,-0.359375 C1.01563,-0.359375 1.35938,-0.463542 1.35938,-0.671875 L1.35938,-6.15625 C1.35938,-6.375 1.01563,-6.48438 0.328125,-6.48438 L0.328125,-6.82813 L4.01563,-6.82813 C4.47396,-6.82813 4.89063,-6.72917 5.26563,-6.53125 C5.64063,-6.33333 5.96354,-6.07031 6.23438,-5.74219 C6.50521,-5.41406 6.71354,-5.04167 6.85938,-4.625 C7.00521,-4.20833 7.07813,-3.78125 7.07813,-3.34375 C7.07813,-2.92708 7.0026,-2.51823 6.85156,-2.11719 C6.70052,-1.71615 6.48958,-1.35677 6.21875,-1.03906 C5.94792,-0.721354 5.6224,-0.46875 5.24219,-0.28125 C4.86198,-0.09375 4.45313,0 4.01563,0 L0.328125,0 M2.26563,-0.671875 C2.26563,-0.526042 2.30469,-0.4375 2.38281,-0.40625 C2.46094,-0.375 2.58854,-0.359375 2.76563,-0.359375 L3.76563,-0.359375 C4.09896,-0.359375 4.42188,-0.432292 4.73438,-0.578125 C5.04688,-0.723958 5.30208,-0.927083 5.5,-1.1875 C5.70833,-1.46875 5.84896,-1.78385 5.92188,-2.13281 C5.99479,-2.48177 6.03125,-2.88542 6.03125,-3.34375 C6.03125,-3.83333 5.99479,-4.26042 5.92188,-4.625 C5.84896,-4.98958 5.70833,-5.3125 5.5,-5.59375 C5.30208,-5.88542 5.04948,-6.10677 4.74219,-6.25781 C4.4349,-6.40885 4.10938,-6.48438 3.76563,-6.48438 L2.76563,-6.48438 C2.65104,-6.48438 2.5599,-6.47917 2.49219,-6.46875 C2.42448,-6.45833 2.36979,-6.42969 2.32813,-6.38281 C2.28646,-6.33594 2.26563,-6.26042 2.26563,-6.15625 L2.26563,-0.671875"/>
</g>

<g fill="#212121" fill-opacity="1" stroke="none" transform="matrix(0.75,0,0,0.75,92.2183,278.59)"
font-family="MS Shell Dlg 2" font-size="8.25" font-weight="400" font-style="normal" 
>
<path vector-effect="none" fill-rule="evenodd" d="M1.42188,-3.21875 C1.34896,-3.21875 1.28646,-3.2474 1.23438,-3.30469 C1.18229,-3.36198 1.15625,-3.42708 1.15625,-3.5 C1.15625,-3.57292 1.18229,-3.63802 1.23438,-3.69531 C1.28646,-3.7526 1.34896,-3.78125 1.42188,-3.78125 L9.46875,-3.78125 C9.54167,-3.78125 9.60156,-3.7526 9.64844,-3.69531 C9.69531,-3.63802 9.71875,-3.57292 9.71875,-3.5 C9.71875,-3.42708 9.69531,-3.36198 9.64844,-3.30469 C9.60156,-3.2474 9.54167,-3.21875 9.46875,-3.21875 L1.42188,-3.21875"/>
</g>

<g fill="#212121" fill-opacity="1" stroke="none" transform="matrix(0.75,0,0,0.75,100.774,278.59)"
font-family="MS Shell Dlg 2" font-size="8.25" font-weight="400" font-style="normal" 
>
<path vector-effect="none" fill-rule="evenodd" d="M1.29688,0 L1.29688,-0.5 C2.46354,-0.5 3.04688,-0.645833 3.04688,-0.9375 L3.04688,-8.28125 C2.56771,-8.05208 1.95833,-7.9375 1.21875,-7.9375 L1.21875,-8.42188 C2.36458,-8.42188 3.22917,-8.72396 3.8125,-9.32813 L4,-9.32813 C4.03125,-9.32813 4.0625,-9.3151 4.09375,-9.28906 C4.125,-9.26302 4.14063,-9.23438 4.14063,-9.20313 L4.14063,-0.9375 C4.14063,-0.645833 4.72396,-0.5 5.89063,-0.5 L5.89063,0 L1.29688,0"/>
</g>

<g fill="#212121" fill-opacity="1" stroke="none" transform="matrix(0.75,0,0,0.75,169.048,278.59)"
font-family="MS Shell Dlg 2" font-size="8.25" font-weight="400" font-style="normal" 
>
<path vector-effect="none" fill-rule="evenodd" d="M3.5,0.3125 C2.35417,0.3125 1.57552,-0.158854 1.16406,-1.10156 C0.752604,-2.04427 0.546875,-3.16667 0.546875,-4.46875 C0.546875,-5.28125 0.619792,-6.04427 0.765625,-6.75781 C0.911458,-7.47135 1.20573,-8.07813 1.64844,-8.57813 C2.09115,-9.07813 2.70833,-9.32813 3.5,-9.32813 C4.11458,-9.32813 4.61719,-9.17708 5.00781,-8.875 C5.39844,-8.57292 5.69792,-8.1849 5.90625,-7.71094 C6.11458,-7.23698 6.25521,-6.72656 6.32813,-6.17969 C6.40104,-5.63281 6.4375,-5.0625 6.4375,-4.46875 C6.4375,-3.66667 6.36458,-2.91406 6.21875,-2.21094 C6.07292,-1.50781 5.78385,-0.911458 5.35156,-0.421875 C4.91927,0.0677083 4.30208,0.3125 3.5,0.3125 M3.5,-0.0625 C4.02083,-0.0625 4.40885,-0.328125 4.66406,-0.859375 C4.91927,-1.39063 5.07552,-1.97917 5.13281,-2.625 C5.1901,-3.27083 5.21875,-3.95833 5.21875,-4.6875 C5.21875,-5.39583 5.1901,-6.04427 5.13281,-6.63281 C5.07552,-7.22135 4.91927,-7.75781 4.66406,-8.24219 C4.40885,-8.72656 4.02083,-8.96875 3.5,-8.96875 C2.96875,-8.96875 2.57552,-8.72656 2.32031,-8.24219 C2.0651,-7.75781 1.90885,-7.22135 1.85156,-6.63281 C1.79427,-6.04427 1.76563,-5.39583 1.76563,-4.6875 C1.76563,-4.16667 1.77865,-3.67708 1.80469,-3.21875 C1.83073,-2.76042 1.89844,-2.28646 2.00781,-1.79688 C2.11719,-1.30729 2.29427,-0.895833 2.53906,-0.5625 C2.78385,-0.229167 3.10417,-0.0625 3.5,-0.0625 "/>
</g>

<g fill="#212121" fill-opacity="1" stroke="none" transform="matrix(0.75,0,0,0.75,237.323,278.59)"
font-family="MS Shell Dlg 2" font-size="8.25" font-weight="400" font-style="normal" 
>
<path vector-effect="none" fill-rule="evenodd" d="M1.04688,-3.21875 C0.973958,-3.21875 0.911458,-3.2474 0.859375,-3.30469 C0.807292,-3.36198 0.78125,-3.42708 0.78125,-3.5 C0.78125,-3.57292 0.807292,-3.63802 0.859375,-3.69531 C0.911458,-3.7526 0.973958,-3.78125 1.04688,-3.78125 L5.17188,-3.78125 L5.17188,-7.90625 C5.17188,-7.97917 5.19792,-8.03906 5.25,-8.08594 C5.30208,-8.13281 5.36979,-8.15625 5.45313,-8.15625 C5.51563,-8.15625 5.57813,-8.13281 5.64063,-8.08594 C5.70313,-8.03906 5.73438,-7.97917 5.73438,-7.90625 L5.73438,-3.78125 L9.84375,-3.78125 C9.91667,-3.78125 9.97656,-3.7526 10.0234,-3.69531 C10.0703,-3.63802 10.0938,-3.57292 10.0938,-3.5 C10.0938,-3.42708 10.0703,-3.36198 10.0234,-3.30469 C9.97656,-3.2474 9.91667,-3.21875 9.84375,-3.21875 L5.73438,-3.21875 L5.73438,0.90625 C5.73438,0.979167 5.70313,1.03906 5.64063,1.08594 C5.57813,1.13281 5.51563,1.15625 5.45313,1.15625 C5.36979,1.15625 5.30208,1.13281 5.25,1.08594 C5.19792,1.03906 5.17188,0.979167 5.17188,0.90625 L5.17188,-3.21875 L1.04688,-3.21875"/>
</g>

<g fill="#212121" fill-opacity="1" stroke="none" transform="matrix(0.75,0,0,0.75,245.878,278.59)"
font-family="MS Shell Dlg 2" font-size="8.25" font-weight="400" font-style="normal" 
>
<path vector-effect="none" fill-rule="evenodd" d="M1.29688,0 L1.29688,-0.5 C2.46354,-0.5 3.04688,-0.645833 3.04688,-0.9375 L3.04688,-8.28125 C2.56771,-8.05208 1.95833,-7.9375 1.21875,-7.9375 L1.21875,-8.42188 C2.36458,-8.42188 3.22917,-8.72396 3.8125,-9.32813 L4,-9.32813 C4.03125,-9.32813 4.0625,-9.3151 4.09375,-9.28906 C4.125,-9.26302 4.14063,-9.23438 4.14063,-9.20313 L4.14063,-0.9375 C4.14063,-0.645833 4.72396,-0.5 5.89063,-0.5 L5.89063,0 L1.29688,0"/>
</g>

<g fill="#212121" fill-opacity="1" stroke="none" transform="matrix(0.75,0,0,0.75,263.39,278.59)"
font-family="MS Shell Dlg 2" font-size="8.25" font-weight="400" font-style="normal" 
>
<path vector-effect="none" fill-rule="evenodd" d="M1.04688,-3.21875 C0.973958,-3.21875 0.911458,-3.2474 0.859375,-3.30469 C0.807292,-3.36198 0.78125,-3.42708 0.78125,-3.5 C0.78125,-3.57292 0.807292,-3.63802 0.859375,-3.69531 C0.911458,-3.7526 0.973958,-3.78125 1.04688,-3.78125 L5.17188,-3.78125 L5.17188,-7.90625 C5.17188,-7.97917 5.19792,-8.03906 5.25,-8.08594 C5.30208,-8.13281 5.36979,-8.15625 5.45313,-8.15625 C5.51563,-8.15625 5.57813,-8.13281 5.64063,-8.08594 C5.70313,-8.03906 5.73438,-7.97917 5.73438,-7.90625 L5.73438,-3.78125 L9.84375,-3.78125 C9.91667,-3.78125 9.97656,-3.7526 10.0234,-3.69531 C10.0703,-3.63802 10.0938,-3.57292 10.0938,-3.5 C10.0938,-3.42708 10.0703,-3.36198 10.0234,-3.30469 C9.97656,-3.2474 9.91667,-3.21875 9.84375,-3.21875 L5.73438,-3.21875 L5.73438,0.90625 C5.73438,0.979167 5.70313,1.03906 5.64063,1.08594 C5.57813,1.13281 5.51563,1.15625 5.45313,1.15625 C5.36979,1.15625 5.30208,1.13281 5.25,1.08594 C5.19792,1.03906 5.17188,0.979167 5.17188,0.90625 L5.17188,-3.21875 L1.04688,-3.21875"/>
</g>

<g fill="#212121" fill-opacity="1" stroke="none" transform="matrix(0.75,0,0,0.75,271.946,278.59)"
font-family="MS Shell Dlg 2" font-size="8.25" font-weight="400" font-style="normal" 
>
<path vector-effect="none" fill-rule="evenodd" d="M2.8125,0.15625 C2.375,0.15625 1.98438,0.0520833 1.64063,-0.15625 C1.29688,-0.364583 1.03125,-0.645833 0.84375,-1 C0.65625,-1.35417 0.5625,-1.76042 0.5625,-2.21875 C0.5625,-2.85417 0.739583,-3.48177 1.09375,-4.10156 C1.44792,-4.72135 1.91667,-5.22396 2.5,-5.60938 C3.08333,-5.99479 3.69792,-6.1875 4.34375,-6.1875 C4.8125,-6.1875 5.22656,-6.0625 5.58594,-5.8125 C5.94531,-5.5625 6.21875,-5.23177 6.40625,-4.82031 C6.59375,-4.40885 6.6875,-3.96875 6.6875,-3.5 L6.70313,-2.5625 C7.02604,-3.01042 7.29688,-3.47135 7.51563,-3.94531 C7.73438,-4.41927 7.90625,-4.91146 8.03125,-5.42188 C8.04167,-5.47396 8.07813,-5.5 8.14063,-5.5 L8.29688,-5.5 C8.38021,-5.5 8.42188,-5.45833 8.42188,-5.375 C8.42188,-5.36458 8.42188,-5.34896 8.42188,-5.32813 C8.30729,-4.90104 8.16927,-4.49219 8.00781,-4.10156 C7.84635,-3.71094 7.65365,-3.33073 7.42969,-2.96094 C7.20573,-2.59115 6.96354,-2.25521 6.70313,-1.95313 C6.70313,-0.796875 6.83854,-0.21875 7.10938,-0.21875 C7.28646,-0.21875 7.42969,-0.270833 7.53906,-0.375 C7.64844,-0.479167 7.74479,-0.606771 7.82813,-0.757813 C7.91146,-0.908854 7.96354,-0.984375 7.98438,-0.984375 L8.15625,-0.984375 C8.22917,-0.984375 8.26563,-0.9375 8.26563,-0.84375 C8.26563,-0.614583 8.13281,-0.390625 7.86719,-0.171875 C7.60156,0.046875 7.33854,0.15625 7.07813,0.15625 C6.74479,0.15625 6.46615,0.046875 6.24219,-0.171875 C6.01823,-0.390625 5.86458,-0.677083 5.78125,-1.03125 C5.34375,-0.65625 4.86979,-0.364583 4.35938,-0.15625 C3.84896,0.0520833 3.33333,0.15625 2.8125,0.15625 M2.84375,-0.21875 C3.84375,-0.21875 4.80208,-0.630208 5.71875,-1.45313 C5.70833,-1.50521 5.70052,-1.57031 5.69531,-1.64844 C5.6901,-1.72656 5.6875,-1.77083 5.6875,-1.78125 L5.6875,-3.29688 C5.6875,-4.98438 5.22917,-5.82813 4.3125,-5.82813 C3.77083,-5.82813 3.29427,-5.59375 2.88281,-5.125 C2.47135,-4.65625 2.16146,-4.09896 1.95313,-3.45313 C1.74479,-2.80729 1.64063,-2.21354 1.64063,-1.67188 C1.64063,-1.26563 1.74479,-0.921875 1.95313,-0.640625 C2.16146,-0.359375 2.45833,-0.21875 2.84375,-0.21875 "/>
</g>

<g fill="#212121" fill-opacity="1" stroke="none" transform="matrix(0.75,0,0,0.75,278.983,280.24)"
font-family="MS Shell Dlg 2" font-size="8.25" font-weight="400" font-style="normal" 
>
<path vector-effect="none" fill-rule="evenodd" d="M0.328125,0 L0.328125,-0.359375 C1.01563,-0.359375 1.35938,-0.463542 1.35938,-0.671875 L1.35938,-6.15625 C1.35938,-6.375 1.01563,-6.48438 0.328125,-6.48438 L0.328125,-6.82813 L4.01563,-6.82813 C4.47396,-6.82813 4.89063,-6.72917 5.26563,-6.53125 C5.64063,-6.33333 5.96354,-6.07031 6.23438,-5.74219 C6.50521,-5.41406 6.71354,-5.04167 6.85938,-4.625 C7.00521,-4.20833 7.07813,-3.78125 7.07813,-3.34375 C7.07813,-2.92708 7.0026,-2.51823 6.85156,-2.11719 C6.70052,-1.71615 6.48958,-1.35677 6.21875,-1.03906 C5.94792,-0.721354 5.6224,-0.46875 5.24219,-0.28125 C4.86198,-0.09375 4.45313,0 4.01563,0 L0.328125,0 M2.26563,-0.671875 C2.26563,-0.526042 2.30469,-0.4375 2.38281,-0.40625 C2.46094,-0.375 2.58854,-0.359375 2.76563,-0.359375 L3.76563,-0.359375 C4.09896,-0.359375 4.42188,-0.432292 4.73438,-0.578125 C5.04688,-0.723958 5.30208,-0.927083 5.5,-1.1875 C5.70833,-1.46875 5.84896,-1.78385 5.92188,-2.13281 C5.99479,-2.48177 6.03125,-2.88542 6.03125,-3.34375 C6.03125,-3.83333 5.99479,-4.26042 5.92188,-4.625 C5.84896,-4.98958 5.70833,-5.3125 5.5,-5.59375 C5.30208,-5.88542 5.04948,-6.10677 4.74219,-6.25781 C4.4349,-6.40885 4.10938,-6.48438 3.76563,-6.48438 L2.76563,-6.48438 C2.65104,-6.48438 2.5599,-6.47917 2.49219,-6.46875 C2.42448,-6.45833 2.36979,-6.42969 2.32813,-6.38281 C2.28646,-6.33594 2.26563,-6.26042 2.26563,-6.15625 L2.26563,-0.671875"/>
</g>

<g fill="#212121" fill-opacity="1" stroke="none" transform="matrix(0,-0.75,0.75,0,6.75,139.403)"
font-family="MS Shell Dlg 2" font-size="8.25" font-weight="400" font-style="normal" 
>
<path vector-effect="none" fill-rule="evenodd" d="M1.25,-0.46875 C1.4375,-0.322917 1.70313,-0.25 2.04688,-0.25 C2.38021,-0.25 2.67448,-0.408854 2.92969,-0.726563 C3.1849,-1.04427 3.35938,-1.39583 3.45313,-1.78125 L4.1875,-4.60938 C4.30208,-5.13021 4.35938,-5.48438 4.35938,-5.67188 C4.35938,-5.93229 4.28385,-6.16146 4.13281,-6.35938 C3.98177,-6.55729 3.77604,-6.65625 3.51563,-6.65625 C3.17188,-6.65625 2.85156,-6.55208 2.55469,-6.34375 C2.25781,-6.13542 2.00781,-5.86719 1.80469,-5.53906 C1.60156,-5.21094 1.45833,-4.88021 1.375,-4.54688 C1.35417,-4.48438 1.3125,-4.45313 1.25,-4.45313 L1.0625,-4.45313 C0.979167,-4.45313 0.9375,-4.5 0.9375,-4.59375 L0.9375,-4.64063 C1.04167,-5.03646 1.21875,-5.42448 1.46875,-5.80469 C1.71875,-6.1849 2.02344,-6.49219 2.38281,-6.72656 C2.74219,-6.96094 3.13021,-7.07813 3.54688,-7.07813 C3.93229,-7.07813 4.28385,-6.97396 4.60156,-6.76563 C4.91927,-6.55729 5.14063,-6.27083 5.26563,-5.90625 C5.45313,-6.23958 5.6875,-6.51823 5.96875,-6.74219 C6.25,-6.96615 6.5625,-7.07813 6.90625,-7.07813 C7.13542,-7.07813 7.36979,-7.03646 7.60938,-6.95313 C7.84896,-6.86979 8.04427,-6.74479 8.19531,-6.57813 C8.34635,-6.41146 8.42188,-6.20313 8.42188,-5.95313 C8.42188,-5.68229 8.33333,-5.45052 8.15625,-5.25781 C7.97917,-5.0651 7.75521,-4.96875 7.48438,-4.96875 C7.31771,-4.96875 7.17708,-5.02344 7.0625,-5.13281 C6.94792,-5.24219 6.89063,-5.38021 6.89063,-5.54688 C6.89063,-5.76563 6.96615,-5.96094 7.11719,-6.13281 C7.26823,-6.30469 7.45313,-6.40625 7.67188,-6.4375 C7.47396,-6.58333 7.20833,-6.65625 6.875,-6.65625 C6.53125,-6.65625 6.23177,-6.4974 5.97656,-6.17969 C5.72135,-5.86198 5.54167,-5.51042 5.4375,-5.125 L4.73438,-2.29688 C4.61979,-1.86979 4.5625,-1.51563 4.5625,-1.23438 C4.5625,-0.963542 4.64063,-0.731771 4.79688,-0.539063 C4.95313,-0.346354 5.15625,-0.25 5.40625,-0.25 C5.90625,-0.25 6.35417,-0.46875 6.75,-0.90625 C7.14583,-1.34375 7.40625,-1.82813 7.53125,-2.35938 C7.55208,-2.42188 7.59375,-2.45313 7.65625,-2.45313 L7.84375,-2.45313 C7.88542,-2.45313 7.91927,-2.4375 7.94531,-2.40625 C7.97135,-2.375 7.98438,-2.34375 7.98438,-2.3125 C7.98438,-2.30208 7.97917,-2.28646 7.96875,-2.26563 C7.82292,-1.63021 7.50781,-1.0625 7.02344,-0.5625 C6.53906,-0.0625 5.98958,0.1875 5.375,0.1875 C4.98958,0.1875 4.63802,0.0807292 4.32031,-0.132813 C4.0026,-0.346354 3.78125,-0.635417 3.65625,-1 C3.48958,-0.6875 3.25781,-0.411458 2.96094,-0.171875 C2.66406,0.0677083 2.34896,0.1875 2.01563,0.1875 C1.78646,0.1875 1.55208,0.145833 1.3125,0.0625 C1.07292,-0.0208333 0.877604,-0.145833 0.726563,-0.3125 C0.575521,-0.479167 0.5,-0.692708 0.5,-0.953125 C0.5,-1.20313 0.585938,-1.42969 0.757813,-1.63281 C0.929688,-1.83594 1.14583,-1.9375 1.40625,-1.9375 C1.58333,-1.9375 1.73177,-1.88542 1.85156,-1.78125 C1.97135,-1.67708 2.03125,-1.53646 2.03125,-1.35938 C2.03125,-1.14063 1.95833,-0.947917 1.8125,-0.78125 C1.66667,-0.614583 1.47917,-0.510417 1.25,-0.46875 "/>
</g>

<g fill="#212121" fill-opacity="1" stroke="none" transform="matrix(0,-0.75,0.75,0,8.56498,132.487)"
font-family="MS Shell Dlg 2" font-size="8.25" font-weight="400" font-style="normal" 
>
<path vector-effect="none" fill-rule="evenodd" d="M0.546875,0 L0.546875,-0.296875 C0.546875,-0.317708 0.552083,-0.338542 0.5625,-0.359375 L2.28125,-2.25 C2.54167,-2.53125 2.75,-2.76563 2.90625,-2.95313 C3.0625,-3.14063 3.22135,-3.35677 3.38281,-3.60156 C3.54427,-3.84635 3.66927,-4.09896 3.75781,-4.35938 C3.84635,-4.61979 3.89063,-4.89063 3.89063,-5.17188 C3.89063,-5.47396 3.83594,-5.76302 3.72656,-6.03906 C3.61719,-6.3151 3.45313,-6.53385 3.23438,-6.69531 C3.01563,-6.85677 2.75,-6.9375 2.4375,-6.9375 C2.11458,-6.9375 1.82552,-6.84115 1.57031,-6.64844 C1.3151,-6.45573 1.13542,-6.20833 1.03125,-5.90625 C1.0625,-5.91667 1.10417,-5.92188 1.15625,-5.92188 C1.32292,-5.92188 1.46354,-5.86719 1.57813,-5.75781 C1.69271,-5.64844 1.75,-5.50521 1.75,-5.32813 C1.75,-5.16146 1.69271,-5.01823 1.57813,-4.89844 C1.46354,-4.77865 1.32292,-4.71875 1.15625,-4.71875 C0.979167,-4.71875 0.833333,-4.77865 0.71875,-4.89844 C0.604167,-5.01823 0.546875,-5.16146 0.546875,-5.32813 C0.546875,-5.59896 0.598958,-5.85677 0.703125,-6.10156 C0.807292,-6.34635 0.955729,-6.5625 1.14844,-6.75 C1.34115,-6.9375 1.5625,-7.08073 1.8125,-7.17969 C2.0625,-7.27865 2.32292,-7.32813 2.59375,-7.32813 C3.01042,-7.32813 3.40104,-7.23958 3.76563,-7.0625 C4.13021,-6.88542 4.41667,-6.63542 4.625,-6.3125 C4.83333,-5.98958 4.9375,-5.60938 4.9375,-5.17188 C4.9375,-4.84896 4.86719,-4.54427 4.72656,-4.25781 C4.58594,-3.97135 4.40885,-3.71094 4.19531,-3.47656 C3.98177,-3.24219 3.70313,-2.97656 3.35938,-2.67969 C3.01563,-2.38281 2.79167,-2.1875 2.6875,-2.09375 L1.4375,-0.890625 L2.5,-0.890625 C3.02083,-0.890625 3.45573,-0.895833 3.80469,-0.90625 C4.15365,-0.916667 4.33854,-0.932292 4.35938,-0.953125 C4.44271,-1.03646 4.53125,-1.36979 4.625,-1.95313 L4.9375,-1.95313 L4.625,0 L0.546875,0"/>
</g>

<g fill="#212121" fill-opacity="1" stroke="#212121" stroke-opacity="1" stroke-width="1.06667" stroke-linecap="square" stroke-linejoin="round" transform="matrix(0.75,0,0,0.75,-4.82677,-30.725)"
font-family="MS Shell Dlg 2" font-size="8.25" font-weight="400" font-style="normal" 
>
<polyline fill="none" vector-effect="none" points="60,394.5 60,43.5 " />
<polyline fill="none" vector-effect="none" points="411,394.5 411,43.5 " />
<polyline fill="none" vector-effect="none" points="60,355.806 63.51,355.806 " />
<polyline fill="none" vector-effect="none" points="407.49,355.806 411,355.806 " />
<polyline fill="none" vector-effect="none" points="60,315.736 63.51,315.736 " />
<polyline fill="none" vector-effect="none" points="407.49,315.736 411,315.736 " />
<polyline fill="none" vector-effect="none" points="60,219 63.51,219 " />
<polyline fill="none" vector-effect="none" points="407.49,219 411,219 " />
<polyline fill="none" vector-effect="none" points="60,122.264 63.51,122.264 " />
<polyline fill="none" vector-effect="none" points="407.49,122.264 411,122.264 " />
<polyline fill="none" vector-effect="none" points="60,82.1945 63.51,82.1945 " />
<polyline fill="none" vector-effect="none" points="407.49,82.1945 411,82.1945 " />
</g>

<g fill="#212121" fill-opacity="1" stroke="none" transform="matrix(0.75,0,0,0.75,13.949,238.769)"
font-family="MS Shell Dlg 2" font-size="8.25" font-weight="400" font-style="normal" 
>
<path vector-effect="none" fill-rule="evenodd" d="M1.42188,-3.21875 C1.34896,-3.21875 1.28646,-3.2474 1.23438,-3.30469 C1.18229,-3.36198 1.15625,-3.42708 1.15625,-3.5 C1.15625,-3.57292 1.18229,-3.63802 1.23438,-3.69531 C1.28646,-3.7526 1.34896,-3.78125 1.42188,-3.78125 L9.46875,-3.78125 C9.54167,-3.78125 9.60156,-3.7526 9.64844,-3.69531 C9.69531,-3.63802 9.71875,-3.57292 9.71875,-3.5 C9.71875,-3.42708 9.69531,-3.36198 9.64844,-3.30469 C9.60156,-3.2474 9.54167,-3.21875 9.46875,-3.21875 L1.42188,-3.21875"/>
</g>

<g fill="#212121" fill-opacity="1" stroke="none" transform="matrix(0.75,0,0,0.75,22.5046,238.769)"
font-family="MS Shell Dlg 2" font-size="8.25" font-weight="400" font-style="normal" 
>
<path vector-effect="none" fill-rule="evenodd" d="M2.8125,0.15625 C2.375,0.15625 1.98438,0.0520833 1.64063,-0.15625 C1.29688,-0.364583 1.03125,-0.645833 0.84375,-1 C0.65625,-1.35417 0.5625,-1.76042 0.5625,-2.21875 C0.5625,-2.85417 0.739583,-3.48177 1.09375,-4.10156 C1.44792,-4.72135 1.91667,-5.22396 2.5,-5.60938 C3.08333,-5.99479 3.69792,-6.1875 4.34375,-6.1875 C4.8125,-6.1875 5.22656,-6.0625 5.58594,-5.8125 C5.94531,-5.5625 6.21875,-5.23177 6.40625,-4.82031 C6.59375,-4.40885 6.6875,-3.96875 6.6875,-3.5 L6.70313,-2.5625 C7.02604,-3.01042 7.29688,-3.47135 7.51563,-3.94531 C7.73438,-4.41927 7.90625,-4.91146 8.03125,-5.42188 C8.04167,-5.47396 8.07813,-5.5 8.14063,-5.5 L8.29688,-5.5 C8.38021,-5.5 8.42188,-5.45833 8.42188,-5.375 C8.42188,-5.36458 8.42188,-5.34896 8.42188,-5.32813 C8.30729,-4.90104 8.16927,-4.49219 8.00781,-4.10156 C7.84635,-3.71094 7.65365,-3.33073 7.42969,-2.96094 C7.20573,-2.59115 6.96354,-2.25521 6.70313,-1.95313 C6.70313,-0.796875 6.83854,-0.21875 7.10938,-0.21875 C7.28646,-0.21875 7.42969,-0.270833 7.53906,-0.375 C7.64844,-0.479167 7.74479,-0.606771 7.82813,-0.757813 C7.91146,-0.908854 7.96354,-0.984375 7.98438,-0.984375 L8.15625,-0.984375 C8.22917,-0.984375 8.26563,-0.9375 8.26563,-0.84375 C8.26563,-0.614583 8.13281,-0.390625 7.86719,-0.171875 C7.60156,0.046875 7.33854,0.15625 7.07813,0.15625 C6.74479,0.15625 6.46615,0.046875 6.24219,-0.171875 C6.01823,-0.390625 5.86458,-0.677083 5.78125,-1.03125 C5.34375,-0.65625 4.86979,-0.364583 4.35938,-0.15625 C3.84896,0.0520833 3.33333,0.15625 2.8125,0.15625 M2.84375,-0.21875 C3.84375,-0.21875 4.80208,-0.630208 5.71875,-1.45313 C5.70833,-1.50521 5.70052,-1.57031 5.69531,-1.64844 C5.6901,-1.72656 5.6875,-1.77083 5.6875,-1.78125 L5.6875,-3.29688 C5.6875,-4.98438 5.22917,-5.82813 4.3125,-5.82813 C3.77083,-5.82813 3.29427,-5.59375 2.88281,-5.125 C2.47135,-4.65625 2.16146,-4.09896 1.95313,-3.45313 C1.74479,-2.80729 1.64063,-2.21354 1.64063,-1.67188 C1.64063,-1.26563 1.74479,-0.921875 1.95313,-0.640625 C2.16146,-0.359375 2.45833,-0.21875 2.84375,-0.21875 "/>
</g>

<g fill="#212121" fill-opacity="1" stroke="none" transform="matrix(0.75,0,0,0.75,29.5413,240.419)"
font-family="MS Shell Dlg 2" font-size="8.25" font-weight="400" font-style="normal" 
>
<path vector-effect="none" fill-rule="evenodd" d="M0.328125,0 L0.328125,-0.359375 C1.01563,-0.359375 1.35938,-0.463542 1.35938,-0.671875 L1.35938,-6.15625 C1.35938,-6.375 1.01563,-6.48438 0.328125,-6.48438 L0.328125,-6.82813 L4.01563,-6.82813 C4.47396,-6.82813 4.89063,-6.72917 5.26563,-6.53125 C5.64063,-6.33333 5.96354,-6.07031 6.23438,-5.74219 C6.50521,-5.41406 6.71354,-5.04167 6.85938,-4.625 C7.00521,-4.20833 7.07813,-3.78125 7.07813,-3.34375 C7.07813,-2.92708 7.0026,-2.51823 6.85156,-2.11719 C6.70052,-1.71615 6.48958,-1.35677 6.21875,-1.03906 C5.94792,-0.721354 5.6224,-0.46875 5.24219,-0.28125 C4.86198,-0.09375 4.45313,0 4.01563,0 L0.328125,0 M2.26563,-0.671875 C2.26563,-0.526042 2.30469,-0.4375 2.38281,-0.40625 C2.46094,-0.375 2.58854,-0.359375 2.76563,-0.359375 L3.76563,-0.359375 C4.09896,-0.359375 4.42188,-0.432292 4.73438,-0.578125 C5.04688,-0.723958 5.30208,-0.927083 5.5,-1.1875 C5.70833,-1.46875 5.84896,-1.78385 5.92188,-2.13281 C5.99479,-2.48177 6.03125,-2.88542 6.03125,-3.34375 C6.03125,-3.83333 5.99479,-4.26042 5.92188,-4.625 C5.84896,-4.98958 5.70833,-5.3125 5.5,-5.59375 C5.30208,-5.88542 5.04948,-6.10677 4.74219,-6.25781 C4.4349,-6.40885 4.10938,-6.48438 3.76563,-6.48438 L2.76563,-6.48438 C2.65104,-6.48438 2.5599,-6.47917 2.49219,-6.46875 C2.42448,-6.45833 2.36979,-6.42969 2.32813,-6.38281 C2.28646,-6.33594 2.26563,-6.26042 2.26563,-6.15625 L2.26563,-0.671875"/>
</g>

<g fill="#212121" fill-opacity="1" stroke="none" transform="matrix(0.75,0,0,0.75,21.9176,208.717)"
font-family="MS Shell Dlg 2" font-size="8.25" font-weight="400" font-style="normal" 
>
<path vector-effect="none" fill-rule="evenodd" d="M1.42188,-3.21875 C1.34896,-3.21875 1.28646,-3.2474 1.23438,-3.30469 C1.18229,-3.36198 1.15625,-3.42708 1.15625,-3.5 C1.15625,-3.57292 1.18229,-3.63802 1.23438,-3.69531 C1.28646,-3.7526 1.34896,-3.78125 1.42188,-3.78125 L9.46875,-3.78125 C9.54167,-3.78125 9.60156,-3.7526 9.64844,-3.69531 C9.69531,-3.63802 9.71875,-3.57292 9.71875,-3.5 C9.71875,-3.42708 9.69531,-3.36198 9.64844,-3.30469 C9.60156,-3.2474 9.54167,-3.21875 9.46875,-3.21875 L1.42188,-3.21875"/>
</g>

<g fill="#212121" fill-opacity="1" stroke="none" transform="matrix(0.75,0,0,0.75,30.4732,208.717)"
font-family="MS Shell Dlg 2" font-size="8.25" font-weight="400" font-style="normal" 
>
<path vector-effect="none" fill-rule="evenodd" d="M1.29688,0 L1.29688,-0.5 C2.46354,-0.5 3.04688,-0.645833 3.04688,-0.9375 L3.04688,-8.28125 C2.56771,-8.05208 1.95833,-7.9375 1.21875,-7.9375 L1.21875,-8.42188 C2.36458,-8.42188 3.22917,-8.72396 3.8125,-9.32813 L4,-9.32813 C4.03125,-9.32813 4.0625,-9.3151 4.09375,-9.28906 C4.125,-9.26302 4.14063,-9.23438 4.14063,-9.20313 L4.14063,-0.9375 C4.14063,-0.645833 4.72396,-0.5 5.89063,-0.5 L5.89063,0 L1.29688,0"/>
</g>

<g fill="#212121" fill-opacity="1" stroke="none" transform="matrix(0.75,0,0,0.75,30.4732,136.165)"
font-family="MS Shell Dlg 2" font-size="8.25" font-weight="400" font-style="normal" 
>
<path vector-effect="none" fill-rule="evenodd" d="M3.5,0.3125 C2.35417,0.3125 1.57552,-0.158854 1.16406,-1.10156 C0.752604,-2.04427 0.546875,-3.16667 0.546875,-4.46875 C0.546875,-5.28125 0.619792,-6.04427 0.765625,-6.75781 C0.911458,-7.47135 1.20573,-8.07813 1.64844,-8.57813 C2.09115,-9.07813 2.70833,-9.32813 3.5,-9.32813 C4.11458,-9.32813 4.61719,-9.17708 5.00781,-8.875 C5.39844,-8.57292 5.69792,-8.1849 5.90625,-7.71094 C6.11458,-7.23698 6.25521,-6.72656 6.32813,-6.17969 C6.40104,-5.63281 6.4375,-5.0625 6.4375,-4.46875 C6.4375,-3.66667 6.36458,-2.91406 6.21875,-2.21094 C6.07292,-1.50781 5.78385,-0.911458 5.35156,-0.421875 C4.91927,0.0677083 4.30208,0.3125 3.5,0.3125 M3.5,-0.0625 C4.02083,-0.0625 4.40885,-0.328125 4.66406,-0.859375 C4.91927,-1.39063 5.07552,-1.97917 5.13281,-2.625 C5.1901,-3.27083 5.21875,-3.95833 5.21875,-4.6875 C5.21875,-5.39583 5.1901,-6.04427 5.13281,-6.63281 C5.07552,-7.22135 4.91927,-7.75781 4.66406,-8.24219 C4.40885,-8.72656 4.02083,-8.96875 3.5,-8.96875 C2.96875,-8.96875 2.57552,-8.72656 2.32031,-8.24219 C2.0651,-7.75781 1.90885,-7.22135 1.85156,-6.63281 C1.79427,-6.04427 1.76563,-5.39583 1.76563,-4.6875 C1.76563,-4.16667 1.77865,-3.67708 1.80469,-3.21875 C1.83073,-2.76042 1.89844,-2.28646 2.00781,-1.79688 C2.11719,-1.30729 2.29427,-0.895833 2.53906,-0.5625 C2.78385,-0.229167 3.10417,-0.0625 3.5,-0.0625 "/>
</g>

<g fill="#212121" fill-opacity="1" stroke="none" transform="matrix(0.75,0,0,0.75,21.9176,63.6129)"
font-family="MS Shell Dlg 2" font-size="8.25" font-weight="400" font-style="normal" 
>
<path vector-effect="none" fill-rule="evenodd" d="M1.04688,-3.21875 C0.973958,-3.21875 0.911458,-3.2474 0.859375,-3.30469 C0.807292,-3.36198 0.78125,-3.42708 0.78125,-3.5 C0.78125,-3.57292 0.807292,-3.63802 0.859375,-3.69531 C0.911458,-3.7526 0.973958,-3.78125 1.04688,-3.78125 L5.17188,-3.78125 L5.17188,-7.90625 C5.17188,-7.97917 5.19792,-8.03906 5.25,-8.08594 C5.30208,-8.13281 5.36979,-8.15625 5.45313,-8.15625 C5.51563,-8.15625 5.57813,-8.13281 5.64063,-8.08594 C5.70313,-8.03906 5.73438,-7.97917 5.73438,-7.90625 L5.73438,-3.78125 L9.84375,-3.78125 C9.91667,-3.78125 9.97656,-3.7526 10.0234,-3.69531 C10.0703,-3.63802 10.0938,-3.57292 10.0938,-3.5 C10.0938,-3.42708 10.0703,-3.36198 10.0234,-3.30469 C9.97656,-3.2474 9.91667,-3.21875 9.84375,-3.21875 L5.73438,-3.21875 L5.73438,0.90625 C5.73438,0.979167 5.70313,1.03906 5.64063,1.08594 C5.57813,1.13281 5.51563,1.15625 5.45313,1.15625 C5.36979,1.15625 5.30208,1.13281 5.25,1.08594 C5.19792,1.03906 5.17188,0.979167 5.17188,0.90625 L5.17188,-3.21875 L1.04688,-3.21875"/>
</g>

<g fill="#212121" fill-opacity="1" stroke="none" transform="matrix(0.75,0,0,0.75,30.4732,63.6129)"
font-family="MS Shell Dlg 2" font-size="8.25" font-weight="400" font-style="normal" 
>
<path vector-effect="none" fill-rule="evenodd" d="M1.29688,0 L1.29688,-0.5 C2.46354,-0.5 3.04688,-0.645833 3.04688,-0.9375 L3.04688,-8.28125 C2.56771,-8.05208 1.95833,-7.9375 1.21875,-7.9375 L1.21875,-8.42188 C2.36458,-8.42188 3.22917,-8.72396 3.8125,-9.32813 L4,-9.32813 C4.03125,-9.32813 4.0625,-9.3151 4.09375,-9.28906 C4.125,-9.26302 4.14063,-9.23438 4.14063,-9.20313 L4.14063,-0.9375 C4.14063,-0.645833 4.72396,-0.5 5.89063,-0.5 L5.89063,0 L1.29688,0"/>
</g>

<g fill="#212121" fill-opacity="1" stroke="none" transform="matrix(0.75,0,0,0.75,13.949,33.5608)"
font-family="MS Shell Dlg 2" font-size="8.25" font-weight="400" font-style="normal" 
>
<path vector-effect="none" fill-rule="evenodd" d="M1.04688,-3.21875 C0.973958,-3.21875 0.911458,-3.2474 0.859375,-3.30469 C0.807292,-3.36198 0.78125,-3.42708 0.78125,-3.5 C0.78125,-3.57292 0.807292,-3.63802 0.859375,-3.69531 C0.911458,-3.7526 0.973958,-3.78125 1.04688,-3.78125 L5.17188,-3.78125 L5.17188,-7.90625 C5.17188,-7.97917 5.19792,-8.03906 5.25,-8.08594 C5.30208,-8.13281 5.36979,-8.15625 5.45313,-8.15625 C5.51563,-8.15625 5.57813,-8.13281 5.64063,-8.08594 C5.70313,-8.03906 5.73438,-7.97917 5.73438,-7.90625 L5.73438,-3.78125 L9.84375,-3.78125 C9.91667,-3.78125 9.97656,-3.7526 10.0234,-3.69531 C10.0703,-3.63802 10.0938,-3.57292 10.0938,-3.5 C10.0938,-3.42708 10.0703,-3.36198 10.0234,-3.30469 C9.97656,-3.2474 9.91667,-3.21875 9.84375,-3.21875 L5.73438,-3.21875 L5.73438,0.90625 C5.73438,0.979167 5.70313,1.03906 5.64063,1.08594 C5.57813,1.13281 5.51563,1.15625 5.45313,1.15625 C5.36979,1.15625 5.30208,1.13281 5.25,1.08594 C5.19792,1.03906 5.17188,0.979167 5.17188,0.90625 L5.17188,-3.21875 L1.04688,-3.21875"/>
</g>

<g fill="#212121" fill-opacity="1" stroke="none" transform="matrix(0.75,0,0,0.75,22.5046,33.5608)"
font-family="MS Shell Dlg 2" font-size="8.25" font-weight="400" font-style="normal" 
>
<path vector-effect="none" fill-rule="evenodd" d="M2.8125,0.15625 C2.375,0.15625 1.98438,0.0520833 1.64063,-0.15625 C1.29688,-0.364583 1.03125,-0.645833 0.84375,-1 C0.65625,-1.35417 0.5625,-1.76042 0.5625,-2.21875 C0.5625,-2.85417 0.739583,-3.48177 1.09375,-4.10156 C1.44792,-4.72135 1.91667,-5.22396 2.5,-5.60938 C3.08333,-5.99479 3.69792,-6.1875 4.34375,-6.1875 C4.8125,-6.1875 5.22656,-6.0625 5.58594,-5.8125 C5.94531,-5.5625 6.21875,-5.23177 6.40625,-4.82031 C6.59375,-4.40885 6.6875,-3.96875 6.6875,-3.5 L6.70313,-2.5625 C7.02604,-3.01042 7.29688,-3.47135 7.51563,-3.94531 C7.73438,-4.41927 7.90625,-4.91146 8.03125,-5.42188 C8.04167,-5.47396 8.07813,-5.5 8.14063,-5.5 L8.29688,-5.5 C8.38021,-5.5 8.42188,-5.45833 8.42188,-5.375 C8.42188,-5.36458 8.42188,-5.34896 8.42188,-5.32813 C8.30729,-4.90104 8.16927,-4.49219 8.00781,-4.10156 C7.84635,-3.71094 7.65365,-3.33073 7.42969,-2.96094 C7.20573,-2.59115 6.96354,-2.25521 6.70313,-1.95313 C6.70313,-0.796875 6.83854,-0.21875 7.10938,-0.21875 C7.28646,-0.21875 7.42969,-0.270833 7.53906,-0.375 C7.64844,-0.479167 7.74479,-0.606771 7.82813,-0.757813 C7.91146,-0.908854 7.96354,-0.984375 7.98438,-0.984375 L8.15625,-0.984375 C8.22917,-0.984375 8.26563,-0.9375 8.26563,-0.84375 C8.26563,-0.614583 8.13281,-0.390625 7.86719,-0.171875 C7.60156,0.046875 7.33854,0.15625 7.07813,0.15625 C6.74479,0.15625 6.46615,0.046875 6.24219,-0.171875 C6.01823,-0.390625 5.86458,-0.677083 5.78125,-1.03125 C5.34375,-0.65625 4.86979,-0.364583 4.35938,-0.15625 C3.84896,0.0520833 3.33333,0.15625 2.8125,0.15625 M2.84375,-0.21875 C3.84375,-0.21875 4.80208,-0.630208 5.71875,-1.45313 C5.70833,-1.50521 5.70052,-1.57031 5.69531,-1.64844 C5.6901,-1.72656 5.6875,-1.77083 5.6875,-1.78125 L5.6875,-3.29688 C5.6875,-4.98438 5.22917,-5.82813 4.3125,-5.82813 C3.77083,-5.82813 3.29427,-5.59375 2.88281,-5.125 C2.47135,-4.65625 2.16146,-4.09896 1.95313,-3.45313 C1.74479,-2.80729 1.64063,-2.21354 1.64063,-1.67188 C1.64063,-1.26563 1.74479,-0.921875 1.95313,-0.640625 C2.16146,-0.359375 2.45833,-0.21875 2.84375,-0.21875 "/>
</g>

<g fill="#212121" fill-opacity="1" stroke="none" transform="matrix(0.75,0,0,0.75,29.5413,35.2108)"
font-family="MS Shell Dlg 2" font-size="8.25" font-weight="400" font-style="normal" 
>
<path vector-effect="none" fill-rule="evenodd" d="M0.328125,0 L0.328125,-0.359375 C1.01563,-0.359375 1.35938,-0.463542 1.35938,-0.671875 L1.35938,-6.15625 C1.35938,-6.375 1.01563,-6.48438 0.328125,-6.48438 L0.328125,-6.82813 L4.01563,-6.82813 C4.47396,-6.82813 4.89063,-6.72917 5.26563,-6.53125 C5.64063,-6.33333 5.96354,-6.07031 6.23438,-5.74219 C6.50521,-5.41406 6.71354,-5.04167 6.85938,-4.625 C7.00521,-4.20833 7.07813,-3.78125 7.07813,-3.34375 C7.07813,-2.92708 7.0026,-2.51823 6.85156,-2.11719 C6.70052,-1.71615 6.48958,-1.35677 6.21875,-1.03906 C5.94792,-0.721354 5.6224,-0.46875 5.24219,-0.28125 C4.86198,-0.09375 4.45313,0 4.01563,0 L0.328125,0 M2.26563,-0.671875 C2.26563,-0.526042 2.30469,-0.4375 2.38281,-0.40625 C2.46094,-0.375 2.58854,-0.359375 2.76563,-0.359375 L3.76563,-0.359375 C4.09896,-0.359375 4.42188,-0.432292 4.73438,-0.578125 C5.04688,-0.723958 5.30208,-0.927083 5.5,-1.1875 C5.70833,-1.46875 5.84896,-1.78385 5.92188,-2.13281 C5.99479,-2.48177 6.03125,-2.88542 6.03125,-3.34375 C6.03125,-3.83333 5.99479,-4.26042 5.92188,-4.625 C5.84896,-4.98958 5.70833,-5.3125 5.5,-5.59375 C5.30208,-5.88542 5.04948,-6.10677 4.74219,-6.25781 C4.4349,-6.40885 4.10938,-6.48438 3.76563,-6.48438 L2.76563,-6.48438 C2.65104,-6.48438 2.5599,-6.47917 2.49219,-6.46875 C2.42448,-6.45833 2.36979,-6.42969 2.32813,-6.38281 C2.28646,-6.33594 2.26563,-6.26042 2.26563,-6.15625 L2.26563,-0.671875"/>
</g>

<g fill="none" stroke="#000000" stroke-opacity="1" stroke-dasharray="10,6" stroke-dashoffset="0" stroke-width="1.33333" stroke-linecap="butt" stroke-linejoin="round" transform="matrix(0.75,0,0,0.75,-4.82677,-30.725)"
font-family="MS Shell Dlg 2" font-size="8.25" font-weight="400" font-style="normal" 
>
<polyline fill="none" vector-effect="none" points="138.764,315.736 332.236,315.736 332.236,122.264 138.764,122.264 138.764,315.736 " />
</g>

<g fill="none" stroke="#808080" stroke-opacity="1" stroke-dasharray="1,3" stroke-dashoffset="0" stroke-width="1.33333" stroke-linecap="butt" stroke-linejoin="round" transform="matrix(0.75,0,0,0.75,-4.82677,-30.725)"
font-family="MS Shell Dlg 2" font-size="8.25" font-weight="400" font-style="normal" 
>
<polyline fill="none" vector-effect="none" points="372.306,219 372.03,210.323 371.205,201.681 369.833,193.109 367.921,184.642 365.475,176.312 362.506,168.155 359.025,160.202 355.047,152.486 350.588,145.037 345.665,137.887 340.299,131.063 334.511,124.593 328.324,118.504 321.763,112.819 314.855,107.561 307.627,102.753 300.109,98.4123 292.331,94.5573 284.324,91.2034 276.12,88.3641 267.753,86.0508 259.256,84.2728 250.663,83.0374 242.009,82.3494 233.329,82.2117 224.658,82.6247 216.031,83.5869 207.481,85.0944 199.045,87.1411 190.755,89.7187 182.646,92.8168 174.749,96.4231 167.097,100.523 159.721,105.1 152.649,110.135 145.911,115.609 139.534,121.499 133.544,127.782 127.964,134.432 122.816,141.423 118.123,148.726 113.902,156.312 110.171,164.15 106.945,172.21 104.236,180.457 102.056,188.86 100.413,197.385 99.3139,205.996 98.7633,214.659 98.7633,223.341 99.3139,232.004 100.413,240.615 102.056,249.14 104.236,257.543 106.945,265.79 110.171,273.85 113.902,281.688 118.123,289.274 122.816,296.577 127.964,303.568 133.544,310.218 139.534,316.501 145.911,322.391 152.649,327.865 159.721,332.9 167.097,337.477 174.749,341.577 182.646,345.183 190.755,348.281 199.045,350.859 207.481,352.906 216.031,354.413 224.658,355.375 233.329,355.788 242.009,355.651 250.663,354.963 259.256,353.727 267.753,351.949 276.12,349.636 284.324,346.797 292.331,343.443 300.109,339.588 307.627,335.247 314.855,330.439 321.763,325.181 328.324,319.496 334.511,313.407 340.299,306.937 345.665,300.113 350.588,292.963 355.047,285.514 359.025,277.798 362.506,269.845 365.475,261.688 367.921,253.358 369.833,244.891 371.205,236.319 372.03,227.677 372.306,219 " />
</g>

<g fill="#000000" fill-opacity="1" stroke="none" transform="matrix(0.75,0,0,0.75,-4.82677,-30.725)"
font-family="MS Shell Dlg 2" font-size="8.25" font-weight="400" font-style="normal" 
>
<circle cx="138.764" cy="315.736" r="5.96285"/>
<circle cx="332.236" cy="315.736" r="5.96285"/>
<circle cx="138.764" cy="122.264" r="5.96285"/>
<circle cx="332.236" cy="122.264" r="5.96285"/>
<circle cx="98.6945" cy="219" r="5.96285"/>
<circle cx="372.306" cy="219" r="5.96285"/>
<circle cx="235.5" cy="355.806" r="5.96285"/>
<circle cx="235.5" cy="82.1945" r="5.96285"/>
<circle cx="235.5" cy="219" r="5.96285"/>
</g>
</g>
</svg>
