<?xml version="1.0" encoding="UTF-8" standalone="no"?>
<svg width="51.5056mm" height="61.3833mm"
 viewBox="0 0 146 174"
 xmlns="http://www.w3.org/2000/svg" xmlns:xlink="http://www.w3.org/1999/xlink"  version="1.2" baseProfile="tiny">
<title>Qt SVG Document</title>
<desc>MATLAB, The MathWorks, Inc. Version 25.2.0.3042426 R2025b Update 1</desc>
<defs>
</defs>
<g fill="none" stroke="black" stroke-width="1" fill-rule="evenodd" stroke-linecap="square" stroke-linejoin="bevel" >

<g fill="#ffffff" fill-opacity="1" stroke="none" transform="matrix(0.75,0,0,0.75,-9.41666,2.27254)"
font-family="MS Shell Dlg 2" font-size="8.25" font-weight="400" font-style="normal" 
>
<path vector-effect="none" fill-rule="evenodd" d="M11,-4 L206,-4 L206,229 L11,229 L11,-4"/>
</g>

<g fill="#ffffff" fill-opacity="1" stroke="none" transform="matrix(7.5e-05,0,0,7.5e-05,-9.41666,2.27254)"
font-family="MS Shell Dlg 2" font-size="8.25" font-weight="400" font-style="normal" 
>
<path vector-effect="none" fill-rule="evenodd" d="M310000,170000 L310000,1.9e+06 L2.04e+06,1.9e+06 L2.04e+06,170000 L310000,170000"/>
</g>

<g fill="#212121" fill-opacity="1" stroke="none" transform="matrix(0.75,0,0,0.75,73.365,170.708)"
font-family="MS Shell Dlg 2" font-size="8.25" font-weight="400" font-style="normal" 
>
<path vector-effect="none" fill-rule="evenodd" d="M1.09375,-0.40625 C1.26042,-0.28125 1.49479,-0.21875 1.79688,-0.21875 C2.08854,-0.21875 2.34635,-0.359375 2.57031,-0.640625 C2.79427,-0.921875 2.94271,-1.22917 3.01563,-1.5625 L3.65625,-4.03125 C3.76042,-4.48958 3.8125,-4.79688 3.8125,-4.95313 C3.8125,-5.19271 3.7474,-5.39844 3.61719,-5.57031 C3.48698,-5.74219 3.30208,-5.82813 3.0625,-5.82813 C2.77083,-5.82813 2.49479,-5.73438 2.23438,-5.54688 C1.97396,-5.35938 1.75521,-5.125 1.57813,-4.84375 C1.40104,-4.5625 1.27604,-4.27604 1.20313,-3.98438 C1.18229,-3.92188 1.14583,-3.89063 1.09375,-3.89063 L0.921875,-3.89063 C0.848958,-3.89063 0.8125,-3.93229 0.8125,-4.01563 L0.8125,-4.0625 C0.90625,-4.40625 1.0625,-4.74479 1.28125,-5.07813 C1.5,-5.41146 1.76823,-5.67969 2.08594,-5.88281 C2.40365,-6.08594 2.73958,-6.1875 3.09375,-6.1875 C3.4375,-6.1875 3.7474,-6.09635 4.02344,-5.91406 C4.29948,-5.73177 4.49479,-5.48438 4.60938,-5.17188 C4.76563,-5.45313 4.96875,-5.69271 5.21875,-5.89063 C5.46875,-6.08854 5.73958,-6.1875 6.03125,-6.1875 C6.23958,-6.1875 6.44792,-6.15104 6.65625,-6.07813 C6.86458,-6.00521 7.03385,-5.89583 7.16406,-5.75 C7.29427,-5.60417 7.35938,-5.42188 7.35938,-5.20313 C7.35938,-4.97396 7.28385,-4.77344 7.13281,-4.60156 C6.98177,-4.42969 6.78646,-4.34375 6.54688,-4.34375 C6.40104,-4.34375 6.27604,-4.39063 6.17188,-4.48438 C6.06771,-4.57813 6.01563,-4.69792 6.01563,-4.84375 C6.01563,-5.04167 6.08333,-5.21354 6.21875,-5.35938 C6.35417,-5.50521 6.51563,-5.59375 6.70313,-5.625 C6.53646,-5.76042 6.30729,-5.82813 6.01563,-5.82813 C5.71354,-5.82813 5.45052,-5.6875 5.22656,-5.40625 C5.0026,-5.125 4.84896,-4.81771 4.76563,-4.48438 L4.14063,-2 C4.04688,-1.63542 4,-1.32813 4,-1.07813 C4,-0.848958 4.0651,-0.648438 4.19531,-0.476563 C4.32552,-0.304688 4.50521,-0.21875 4.73438,-0.21875 C5.17188,-0.21875 5.5625,-0.411458 5.90625,-0.796875 C6.25,-1.18229 6.47396,-1.60417 6.57813,-2.0625 C6.59896,-2.11458 6.63542,-2.14063 6.6875,-2.14063 L6.85938,-2.14063 C6.90104,-2.14063 6.93229,-2.1276 6.95313,-2.10156 C6.97396,-2.07552 6.98438,-2.04688 6.98438,-2.01563 C6.98438,-2.00521 6.97917,-1.99479 6.96875,-1.98438 C6.84375,-1.42188 6.56771,-0.924479 6.14063,-0.492188 C5.71354,-0.0598958 5.23438,0.15625 4.70313,0.15625 C4.35938,0.15625 4.04948,0.0625 3.77344,-0.125 C3.4974,-0.3125 3.30208,-0.5625 3.1875,-0.875 C3.04167,-0.604167 2.84115,-0.364583 2.58594,-0.15625 C2.33073,0.0520833 2.05729,0.15625 1.76563,0.15625 C1.56771,0.15625 1.36198,0.119792 1.14844,0.046875 C0.934896,-0.0260417 0.763021,-0.135417 0.632813,-0.28125 C0.502604,-0.427083 0.4375,-0.609375 0.4375,-0.828125 C0.4375,-1.04688 0.513021,-1.2474 0.664063,-1.42969 C0.815104,-1.61198 1.00521,-1.70313 1.23438,-1.70313 C1.39063,-1.70313 1.52083,-1.65625 1.625,-1.5625 C1.72917,-1.46875 1.78125,-1.34375 1.78125,-1.1875 C1.78125,-1 1.71615,-0.833333 1.58594,-0.6875 C1.45573,-0.541667 1.29167,-0.447917 1.09375,-0.40625 "/>
</g>

<g fill="#212121" fill-opacity="1" stroke="none" transform="matrix(0.75,0,0,0.75,79.6518,172.358)"
font-family="MS Shell Dlg 2" font-size="8.25" font-weight="400" font-style="normal" 
>
<path vector-effect="none" fill-rule="evenodd" d="M0.921875,0 L0.921875,-0.359375 C1.75521,-0.359375 2.17188,-0.463542 2.17188,-0.671875 L2.17188,-5.92188 C1.82813,-5.75521 1.39583,-5.67188 0.875,-5.67188 L0.875,-6.01563 C1.6875,-6.01563 2.30208,-6.22917 2.71875,-6.65625 L2.85938,-6.65625 C2.88021,-6.65625 2.90104,-6.64844 2.92188,-6.63281 C2.94271,-6.61719 2.95313,-6.59896 2.95313,-6.57813 L2.95313,-0.671875 C2.95313,-0.463542 3.36979,-0.359375 4.20313,-0.359375 L4.20313,0 L0.921875,0"/>
</g>

<g fill="#212121" fill-opacity="1" stroke="#212121" stroke-opacity="1" stroke-width="1.06667" stroke-linecap="square" stroke-linejoin="round" transform="matrix(0.75,0,0,0.75,-9.41666,2.27254)"
font-family="MS Shell Dlg 2" font-size="8.25" font-weight="400" font-style="normal" 
>
<polyline fill="none" vector-effect="none" points="31,190 204,190 " />
<polyline fill="none" vector-effect="none" points="31,17 204,17 " />
<polyline fill="none" vector-effect="none" points="71.9737,190 71.9737,188.27 " />
<polyline fill="none" vector-effect="none" points="71.9737,18.73 71.9737,17 " />
<polyline fill="none" vector-effect="none" points="117.5,190 117.5,188.27 " />
<polyline fill="none" vector-effect="none" points="117.5,18.73 117.5,17 " />
<polyline fill="none" vector-effect="none" points="163.026,190 163.026,188.27 " />
<polyline fill="none" vector-effect="none" points="163.026,18.73 163.026,17 " />
</g>

<g fill="#212121" fill-opacity="1" stroke="none" transform="matrix(0.75,0,0,0.75,40.3969,157.173)"
font-family="MS Shell Dlg 2" font-size="8.25" font-weight="400" font-style="normal" 
>
<path vector-effect="none" fill-rule="evenodd" d="M0.140625,-2.40625 L0.140625,-3.21875 L3.59375,-3.21875 L3.59375,-2.40625 L0.140625,-2.40625"/>
</g>

<g fill="#212121" fill-opacity="1" stroke="none" transform="matrix(0.75,0,0,0.75,43.7303,157.173)"
font-family="MS Shell Dlg 2" font-size="8.25" font-weight="400" font-style="normal" 
>
<path vector-effect="none" fill-rule="evenodd" d="M1.20313,0 L1.20313,-0.453125 C2.28646,-0.453125 2.82813,-0.59375 2.82813,-0.875 L2.82813,-7.6875 C2.38021,-7.47917 1.8125,-7.375 1.125,-7.375 L1.125,-7.82813 C2.1875,-7.82813 2.98958,-8.10417 3.53125,-8.65625 L3.71875,-8.65625 C3.75,-8.65625 3.77865,-8.64583 3.80469,-8.625 C3.83073,-8.60417 3.84375,-8.57813 3.84375,-8.54688 L3.84375,-0.875 C3.84375,-0.59375 4.38542,-0.453125 5.46875,-0.453125 L5.46875,0 L1.20313,0"/>
</g>

<g fill="#212121" fill-opacity="1" stroke="none" transform="matrix(0.75,0,0,0.75,76.2083,157.173)"
font-family="MS Shell Dlg 2" font-size="8.25" font-weight="400" font-style="normal" 
>
<path vector-effect="none" fill-rule="evenodd" d="M3.25,0.28125 C2.1875,0.28125 1.46615,-0.15625 1.08594,-1.03125 C0.705729,-1.90625 0.515625,-2.94271 0.515625,-4.14063 C0.515625,-4.90104 0.583333,-5.61198 0.71875,-6.27344 C0.854167,-6.9349 1.125,-7.4974 1.53125,-7.96094 C1.9375,-8.42448 2.51042,-8.65625 3.25,-8.65625 C3.82292,-8.65625 4.29167,-8.51823 4.65625,-8.24219 C5.02083,-7.96615 5.29688,-7.60677 5.48438,-7.16406 C5.67188,-6.72135 5.80208,-6.2474 5.875,-5.74219 C5.94792,-5.23698 5.98438,-4.70313 5.98438,-4.14063 C5.98438,-3.40104 5.91406,-2.70573 5.77344,-2.05469 C5.63281,-1.40365 5.36198,-0.851563 4.96094,-0.398438 C4.5599,0.0546875 3.98958,0.28125 3.25,0.28125 M3.25,-0.046875 C3.72917,-0.046875 4.08854,-0.294271 4.32813,-0.789063 C4.56771,-1.28385 4.71354,-1.83333 4.76563,-2.4375 C4.81771,-3.04167 4.84375,-3.68229 4.84375,-4.35938 C4.84375,-5.00521 4.81771,-5.60417 4.76563,-6.15625 C4.71354,-6.70833 4.57031,-7.20833 4.33594,-7.65625 C4.10156,-8.10417 3.73958,-8.32813 3.25,-8.32813 C2.76042,-8.32813 2.39583,-8.10156 2.15625,-7.64844 C1.91667,-7.19531 1.77083,-6.69531 1.71875,-6.14844 C1.66667,-5.60156 1.64063,-5.00521 1.64063,-4.35938 C1.64063,-3.86979 1.65104,-3.41146 1.67188,-2.98438 C1.69271,-2.55729 1.75521,-2.11719 1.85938,-1.66406 C1.96354,-1.21094 2.1276,-0.828125 2.35156,-0.515625 C2.57552,-0.203125 2.875,-0.046875 3.25,-0.046875 "/>
</g>

<g fill="#212121" fill-opacity="1" stroke="none" transform="matrix(0.75,0,0,0.75,110.353,157.173)"
font-family="MS Shell Dlg 2" font-size="8.25" font-weight="400" font-style="normal" 
>
<path vector-effect="none" fill-rule="evenodd" d="M1.20313,0 L1.20313,-0.453125 C2.28646,-0.453125 2.82813,-0.59375 2.82813,-0.875 L2.82813,-7.6875 C2.38021,-7.47917 1.8125,-7.375 1.125,-7.375 L1.125,-7.82813 C2.1875,-7.82813 2.98958,-8.10417 3.53125,-8.65625 L3.71875,-8.65625 C3.75,-8.65625 3.77865,-8.64583 3.80469,-8.625 C3.83073,-8.60417 3.84375,-8.57813 3.84375,-8.54688 L3.84375,-0.875 C3.84375,-0.59375 4.38542,-0.453125 5.46875,-0.453125 L5.46875,0 L1.20313,0"/>
</g>

<g fill="#212121" fill-opacity="1" stroke="#212121" stroke-opacity="1" stroke-width="1.06667" stroke-linecap="square" stroke-linejoin="round" transform="matrix(0.75,0,0,0.75,-9.41666,2.27254)"
font-family="MS Shell Dlg 2" font-size="8.25" font-weight="400" font-style="normal" 
>
<polyline fill="none" vector-effect="none" points="31,190 31,17 " />
<polyline fill="none" vector-effect="none" points="204,190 204,17 " />
<polyline fill="none" vector-effect="none" points="31,149.026 32.73,149.026 " />
<polyline fill="none" vector-effect="none" points="202.27,149.026 204,149.026 " />
<polyline fill="none" vector-effect="none" points="31,103.5 32.73,103.5 " />
<polyline fill="none" vector-effect="none" points="202.27,103.5 204,103.5 " />
<polyline fill="none" vector-effect="none" points="31,57.9737 32.73,57.9737 " />
<polyline fill="none" vector-effect="none" points="202.27,57.9737 204,57.9737 " />
</g>

<g fill="#212121" fill-opacity="1" stroke="none" transform="matrix(0.75,0,0,0.75,1.5,116.442)"
font-family="MS Shell Dlg 2" font-size="8.25" font-weight="400" font-style="normal" 
>
<path vector-effect="none" fill-rule="evenodd" d="M0.140625,-2.40625 L0.140625,-3.21875 L3.59375,-3.21875 L3.59375,-2.40625 L0.140625,-2.40625"/>
</g>

<g fill="#212121" fill-opacity="1" stroke="none" transform="matrix(0.75,0,0,0.75,4.83333,116.442)"
font-family="MS Shell Dlg 2" font-size="8.25" font-weight="400" font-style="normal" 
>
<path vector-effect="none" fill-rule="evenodd" d="M1.20313,0 L1.20313,-0.453125 C2.28646,-0.453125 2.82813,-0.59375 2.82813,-0.875 L2.82813,-7.6875 C2.38021,-7.47917 1.8125,-7.375 1.125,-7.375 L1.125,-7.82813 C2.1875,-7.82813 2.98958,-8.10417 3.53125,-8.65625 L3.71875,-8.65625 C3.75,-8.65625 3.77865,-8.64583 3.80469,-8.625 C3.83073,-8.60417 3.84375,-8.57813 3.84375,-8.54688 L3.84375,-0.875 C3.84375,-0.59375 4.38542,-0.453125 5.46875,-0.453125 L5.46875,0 L1.20313,0"/>
</g>

<g fill="#212121" fill-opacity="1" stroke="none" transform="matrix(0.75,0,0,0.75,4.83333,82.2975)"
font-family="MS Shell Dlg 2" font-size="8.25" font-weight="400" font-style="normal" 
>
<path vector-effect="none" fill-rule="evenodd" d="M3.25,0.28125 C2.1875,0.28125 1.46615,-0.15625 1.08594,-1.03125 C0.705729,-1.90625 0.515625,-2.94271 0.515625,-4.14063 C0.515625,-4.90104 0.583333,-5.61198 0.71875,-6.27344 C0.854167,-6.9349 1.125,-7.4974 1.53125,-7.96094 C1.9375,-8.42448 2.51042,-8.65625 3.25,-8.65625 C3.82292,-8.65625 4.29167,-8.51823 4.65625,-8.24219 C5.02083,-7.96615 5.29688,-7.60677 5.48438,-7.16406 C5.67188,-6.72135 5.80208,-6.2474 5.875,-5.74219 C5.94792,-5.23698 5.98438,-4.70313 5.98438,-4.14063 C5.98438,-3.40104 5.91406,-2.70573 5.77344,-2.05469 C5.63281,-1.40365 5.36198,-0.851563 4.96094,-0.398438 C4.5599,0.0546875 3.98958,0.28125 3.25,0.28125 M3.25,-0.046875 C3.72917,-0.046875 4.08854,-0.294271 4.32813,-0.789063 C4.56771,-1.28385 4.71354,-1.83333 4.76563,-2.4375 C4.81771,-3.04167 4.84375,-3.68229 4.84375,-4.35938 C4.84375,-5.00521 4.81771,-5.60417 4.76563,-6.15625 C4.71354,-6.70833 4.57031,-7.20833 4.33594,-7.65625 C4.10156,-8.10417 3.73958,-8.32813 3.25,-8.32813 C2.76042,-8.32813 2.39583,-8.10156 2.15625,-7.64844 C1.91667,-7.19531 1.77083,-6.69531 1.71875,-6.14844 C1.66667,-5.60156 1.64063,-5.00521 1.64063,-4.35938 C1.64063,-3.86979 1.65104,-3.41146 1.67188,-2.98438 C1.69271,-2.55729 1.75521,-2.11719 1.85938,-1.66406 C1.96354,-1.21094 2.1276,-0.828125 2.35156,-0.515625 C2.57552,-0.203125 2.875,-0.046875 3.25,-0.046875 "/>
</g>

<g fill="#212121" fill-opacity="1" stroke="none" transform="matrix(0.75,0,0,0.75,4.83333,48.1528)"
font-family="MS Shell Dlg 2" font-size="8.25" font-weight="400" font-style="normal" 
>
<path vector-effect="none" fill-rule="evenodd" d="M1.20313,0 L1.20313,-0.453125 C2.28646,-0.453125 2.82813,-0.59375 2.82813,-0.875 L2.82813,-7.6875 C2.38021,-7.47917 1.8125,-7.375 1.125,-7.375 L1.125,-7.82813 C2.1875,-7.82813 2.98958,-8.10417 3.53125,-8.65625 L3.71875,-8.65625 C3.75,-8.65625 3.77865,-8.64583 3.80469,-8.625 C3.83073,-8.60417 3.84375,-8.57813 3.84375,-8.54688 L3.84375,-0.875 C3.84375,-0.59375 4.38542,-0.453125 5.46875,-0.453125 L5.46875,0 L1.20313,0"/>
</g>

<g fill="#212121" fill-opacity="1" stroke="none" transform="matrix(0.75,0,0,0.75,66.5626,9)"
font-family="MS Shell Dlg 2" font-size="8.25" font-weight="400" font-style="normal" 
>
<path vector-effect="none" fill-rule="evenodd" d="M3.1875,-1.5 C3.51042,-1.09375 3.91146,-0.773438 4.39063,-0.539063 C4.86979,-0.304688 5.36458,-0.1875 5.875,-0.1875 C6.3125,-0.1875 6.71615,-0.273438 7.08594,-0.445313 C7.45573,-0.617188 7.77865,-0.854167 8.05469,-1.15625 C8.33073,-1.45833 8.54167,-1.80469 8.6875,-2.19531 C8.83333,-2.58594 8.90625,-2.99479 8.90625,-3.42188 C8.90625,-3.49479 8.94792,-3.53125 9.03125,-3.53125 L9.20313,-3.53125 C9.27604,-3.53125 9.3125,-3.48438 9.3125,-3.39063 C9.3125,-2.90104 9.21875,-2.42969 9.03125,-1.97656 C8.84375,-1.52344 8.57813,-1.125 8.23438,-0.78125 C7.89063,-0.4375 7.4974,-0.169271 7.05469,0.0234375 C6.61198,0.216146 6.15104,0.3125 5.67188,0.3125 C4.99479,0.3125 4.35677,0.177083 3.75781,-0.09375 C3.15885,-0.364583 2.63802,-0.736979 2.19531,-1.21094 C1.7526,-1.6849 1.40625,-2.23177 1.15625,-2.85156 C0.90625,-3.47135 0.78125,-4.11458 0.78125,-4.78125 C0.78125,-5.45833 0.90625,-6.10677 1.15625,-6.72656 C1.40625,-7.34635 1.7526,-7.89323 2.19531,-8.36719 C2.63802,-8.84115 3.15885,-9.21094 3.75781,-9.47656 C4.35677,-9.74219 4.99479,-9.875 5.67188,-9.875 C6.15104,-9.875 6.60938,-9.77083 7.04688,-9.5625 C7.48438,-9.35417 7.86458,-9.0625 8.1875,-8.6875 L9,-9.82813 C9.05208,-9.85938 9.08333,-9.875 9.09375,-9.875 L9.20313,-9.875 C9.23438,-9.875 9.26042,-9.86198 9.28125,-9.83594 C9.30208,-9.8099 9.3125,-9.78125 9.3125,-9.75 L9.3125,-5.96875 C9.3125,-5.89583 9.27604,-5.85938 9.20313,-5.85938 L8.95313,-5.85938 C8.85938,-5.85938 8.8125,-5.89583 8.8125,-5.96875 C8.8125,-6.23958 8.76042,-6.54167 8.65625,-6.875 C8.55208,-7.20833 8.41667,-7.52344 8.25,-7.82031 C8.08333,-8.11719 7.89063,-8.38021 7.67188,-8.60938 C7.15104,-9.11979 6.54688,-9.375 5.85938,-9.375 C5.34896,-9.375 4.85677,-9.26042 4.38281,-9.03125 C3.90885,-8.80208 3.51042,-8.47917 3.1875,-8.0625 C2.85417,-7.625 2.61979,-7.1276 2.48438,-6.57031 C2.34896,-6.01302 2.28125,-5.41667 2.28125,-4.78125 C2.28125,-4.14583 2.34896,-3.54948 2.48438,-2.99219 C2.61979,-2.4349 2.85417,-1.9375 3.1875,-1.5 "/>
</g>

<g fill="#212121" fill-opacity="1" stroke="none" transform="matrix(0.75,0,0,0.75,74.507,9)"
font-family="MS Shell Dlg 2" font-size="8.25" font-weight="400" font-style="normal" 
>
<path vector-effect="none" fill-rule="evenodd" d="M3.1875,-1.5 C3.51042,-1.09375 3.91146,-0.773438 4.39063,-0.539063 C4.86979,-0.304688 5.36458,-0.1875 5.875,-0.1875 C6.3125,-0.1875 6.71615,-0.273438 7.08594,-0.445313 C7.45573,-0.617188 7.77865,-0.854167 8.05469,-1.15625 C8.33073,-1.45833 8.54167,-1.80469 8.6875,-2.19531 C8.83333,-2.58594 8.90625,-2.99479 8.90625,-3.42188 C8.90625,-3.49479 8.94792,-3.53125 9.03125,-3.53125 L9.20313,-3.53125 C9.27604,-3.53125 9.3125,-3.48438 9.3125,-3.39063 C9.3125,-2.90104 9.21875,-2.42969 9.03125,-1.97656 C8.84375,-1.52344 8.57813,-1.125 8.23438,-0.78125 C7.89063,-0.4375 7.4974,-0.169271 7.05469,0.0234375 C6.61198,0.216146 6.15104,0.3125 5.67188,0.3125 C4.99479,0.3125 4.35677,0.177083 3.75781,-0.09375 C3.15885,-0.364583 2.63802,-0.736979 2.19531,-1.21094 C1.7526,-1.6849 1.40625,-2.23177 1.15625,-2.85156 C0.90625,-3.47135 0.78125,-4.11458 0.78125,-4.78125 C0.78125,-5.45833 0.90625,-6.10677 1.15625,-6.72656 C1.40625,-7.34635 1.7526,-7.89323 2.19531,-8.36719 C2.63802,-8.84115 3.15885,-9.21094 3.75781,-9.47656 C4.35677,-9.74219 4.99479,-9.875 5.67188,-9.875 C6.15104,-9.875 6.60938,-9.77083 7.04688,-9.5625 C7.48438,-9.35417 7.86458,-9.0625 8.1875,-8.6875 L9,-9.82813 C9.05208,-9.85938 9.08333,-9.875 9.09375,-9.875 L9.20313,-9.875 C9.23438,-9.875 9.26042,-9.86198 9.28125,-9.83594 C9.30208,-9.8099 9.3125,-9.78125 9.3125,-9.75 L9.3125,-5.96875 C9.3125,-5.89583 9.27604,-5.85938 9.20313,-5.85938 L8.95313,-5.85938 C8.85938,-5.85938 8.8125,-5.89583 8.8125,-5.96875 C8.8125,-6.23958 8.76042,-6.54167 8.65625,-6.875 C8.55208,-7.20833 8.41667,-7.52344 8.25,-7.82031 C8.08333,-8.11719 7.89063,-8.38021 7.67188,-8.60938 C7.15104,-9.11979 6.54688,-9.375 5.85938,-9.375 C5.34896,-9.375 4.85677,-9.26042 4.38281,-9.03125 C3.90885,-8.80208 3.51042,-8.47917 3.1875,-8.0625 C2.85417,-7.625 2.61979,-7.1276 2.48438,-6.57031 C2.34896,-6.01302 2.28125,-5.41667 2.28125,-4.78125 C2.28125,-4.14583 2.34896,-3.54948 2.48438,-2.99219 C2.61979,-2.4349 2.85417,-1.9375 3.1875,-1.5 "/>
</g>

<g fill="#212121" fill-opacity="1" stroke="none" transform="matrix(0.75,0,0,0.75,82.4515,9)"
font-family="MS Shell Dlg 2" font-size="8.25" font-weight="400" font-style="normal" 
>
<path vector-effect="none" fill-rule="evenodd" d="M0.46875,0 L0.46875,-0.5 C1.42708,-0.5 1.90625,-0.645833 1.90625,-0.9375 L1.90625,-8.625 C1.90625,-8.92708 1.42708,-9.07813 0.46875,-9.07813 L0.46875,-9.5625 L5.625,-9.5625 C6.26042,-9.5625 6.84375,-9.42448 7.375,-9.14844 C7.90625,-8.8724 8.35938,-8.50521 8.73438,-8.04688 C9.10938,-7.58854 9.39844,-7.06771 9.60156,-6.48438 C9.80469,-5.90104 9.90625,-5.30208 9.90625,-4.6875 C9.90625,-4.09375 9.80208,-3.51823 9.59375,-2.96094 C9.38542,-2.40365 9.08854,-1.90104 8.70313,-1.45313 C8.31771,-1.00521 7.86198,-0.651042 7.33594,-0.390625 C6.8099,-0.130208 6.23958,0 5.625,0 L0.46875,0 M3.17188,-0.9375 C3.17188,-0.739583 3.22656,-0.617188 3.33594,-0.570313 C3.44531,-0.523438 3.625,-0.5 3.875,-0.5 L5.26563,-0.5 C5.74479,-0.5 6.20052,-0.601563 6.63281,-0.804688 C7.0651,-1.00781 7.42188,-1.29688 7.70313,-1.67188 C7.99479,-2.05729 8.1901,-2.49479 8.28906,-2.98438 C8.38802,-3.47396 8.4375,-4.04167 8.4375,-4.6875 C8.4375,-5.36458 8.38802,-5.95833 8.28906,-6.46875 C8.1901,-6.97917 7.99479,-7.4375 7.70313,-7.84375 C7.42188,-8.23958 7.06771,-8.54427 6.64063,-8.75781 C6.21354,-8.97135 5.75521,-9.07813 5.26563,-9.07813 L3.875,-9.07813 C3.70833,-9.07813 3.57813,-9.07031 3.48438,-9.05469 C3.39063,-9.03906 3.3151,-8.9974 3.25781,-8.92969 C3.20052,-8.86198 3.17188,-8.76042 3.17188,-8.625 L3.17188,-0.9375"/>
</g>

<g fill="none" stroke="#000000" stroke-opacity="1" stroke-dasharray="10,6" stroke-dashoffset="0" stroke-width="1.06667" stroke-linecap="butt" stroke-linejoin="round" transform="matrix(0.75,0,0,0.75,-9.41666,2.27254)"
font-family="MS Shell Dlg 2" font-size="8.25" font-weight="400" font-style="normal" 
>
<polyline fill="none" vector-effect="none" points="71.9737,149.026 163.026,149.026 163.026,57.9737 71.9737,57.9737 71.9737,149.026 " />
</g>

<g fill="none" stroke="#808080" stroke-opacity="1" stroke-dasharray="1,3" stroke-dashoffset="0" stroke-width="0.666667" stroke-linecap="butt" stroke-linejoin="round" transform="matrix(0.75,0,0,0.75,-9.41666,2.27254)"
font-family="MS Shell Dlg 2" font-size="8.25" font-weight="400" font-style="normal" 
>
<polyline fill="none" vector-effect="none" points="181.884,103.5 181.754,99.4165 181.366,95.3495 180.72,91.3153 179.82,87.3301 178.669,83.4101 177.272,79.5709 175.634,75.8281 173.762,72.1967 171.663,68.6914 169.346,65.3263 166.821,62.1148 164.097,59.07 161.185,56.2041 158.097,53.5286 154.846,51.0544 151.445,48.7913 147.907,46.7486 144.246,44.9343 140.478,43.3559 136.617,42.0196 132.679,40.9309 128.68,40.0942 124.636,39.5128 120.564,39.189 116.478,39.1242 112.398,39.3186 108.337,39.7714 104.314,40.4808 100.343,41.4441 96.4421,42.6571 92.6256,44.1152 88.9092,45.8124 85.308,47.7419 81.8364,49.8959 78.5085,52.2657 75.3375,54.8419 72.3363,57.6139 69.5169,60.5708 66.8908,63.7005 64.4685,66.9905 62.2597,70.4274 60.2733,73.9976 58.5173,77.6865 56.9989,81.4794 55.7241,85.3609 54.698,89.3155 53.9248,93.3272 53.4076,97.3799 53.1485,101.457 53.1485,105.543 53.4076,109.62 53.9248,113.673 54.698,117.684 55.7241,121.639 56.9989,125.521 58.5173,129.313 60.2733,133.002 62.2597,136.573 64.4685,140.01 66.8908,143.299 69.5169,146.429 72.3363,149.386 75.3375,152.158 78.5085,154.734 81.8364,157.104 85.308,159.258 88.9092,161.188 92.6256,162.885 96.4421,164.343 100.343,165.556 104.314,166.519 108.337,167.229 112.398,167.681 116.478,167.876 120.564,167.811 124.636,167.487 128.68,166.906 132.679,166.069 136.617,164.98 140.478,163.644 144.246,162.066 147.907,160.251 151.445,158.209 154.846,155.946 158.097,153.471 161.185,150.796 164.097,147.93 166.821,144.885 169.346,141.674 171.663,138.309 173.762,134.803 175.634,131.172 177.272,127.429 178.669,123.59 179.82,119.67 180.72,115.685 181.366,111.651 181.754,107.583 181.884,103.5 " />
</g>

<g fill="#000000" fill-opacity="1" stroke="none" transform="matrix(0.75,0,0,0.75,-9.41666,2.27254)"
font-family="MS Shell Dlg 2" font-size="8.25" font-weight="400" font-style="normal" 
>
<circle cx="71.9737" cy="149.026" r="4.21637"/>
<circle cx="163.026" cy="149.026" r="4.21637"/>
<circle cx="71.9737" cy="57.9737" r="4.21637"/>
<circle cx="163.026" cy="57.9737" r="4.21637"/>
<circle cx="117.5" cy="103.5" r="4.21637"/>
<circle cx="53.1161" cy="103.5" r="4.21637"/>
<circle cx="181.884" cy="103.5" r="4.21637"/>
<circle cx="117.5" cy="167.884" r="4.21637"/>
<circle cx="117.5" cy="39.1161" r="4.21637"/>
</g>

<g fill="#b3b3b3" fill-opacity="0.701961" stroke="#b3b3b3" stroke-opacity="0.701961" stroke-dasharray="1,3" stroke-dashoffset="0" stroke-width="0.666667" stroke-linecap="butt" stroke-linejoin="round" transform="matrix(0.75,0,0,0.75,-9.41666,2.27254)"
font-family="MS Shell Dlg 2" font-size="8.25" font-weight="400" font-style="normal" 
>
<polyline fill="none" vector-effect="none" points="117.5,190 117.5,17 " />
<polyline fill="none" vector-effect="none" points="31,103.5 204,103.5 " />
</g>
</g>
</svg>
