<?xml version="1.0" encoding="UTF-8" standalone="no"?>
<svg width="53.6222mm" height="59.6194mm"
 viewBox="0 0 152 169"
 xmlns="http://www.w3.org/2000/svg" xmlns:xlink="http://www.w3.org/1999/xlink"  version="1.2" baseProfile="tiny">
<title>Qt SVG Document</title>
<desc>MATLAB, The MathWorks, Inc. Version 25.2.0.3042426 R2025b Update 1</desc>
<defs>
</defs>
<g fill="none" stroke="black" stroke-width="1" fill-rule="evenodd" stroke-linecap="square" stroke-linejoin="bevel" >

<g fill="#ffffff" fill-opacity="1" stroke="none" transform="matrix(0.75,0,0,0.75,-4.46183,-0.485647)"
font-family="MS Shell Dlg 2" font-size="8.25" font-weight="400" font-style="normal" 
>
<path vector-effect="none" fill-rule="evenodd" d="M4,0 L207,0 L207,226 L4,226 L4,0"/>
</g>

<g fill="#ffffff" fill-opacity="1" stroke="none" transform="matrix(7.5e-05,0,0,7.5e-05,-4.46183,-0.485647)"
font-family="MS Shell Dlg 2" font-size="8.25" font-weight="400" font-style="normal" 
>
<path vector-effect="none" fill-rule="evenodd" d="M420000,230000 L420000,1.86e+06 L2.05e+06,1.86e+06 L2.05e+06,230000 L420000,230000"/>
</g>

<g fill="#212121" fill-opacity="1" stroke="none" transform="matrix(0.75,0,0,0.75,82.8198,164.95)"
font-family="MS Shell Dlg 2" font-size="8.25" font-weight="400" font-style="normal" 
>
<path vector-effect="none" fill-rule="evenodd" d="M1.09375,-0.40625 C1.26042,-0.28125 1.49479,-0.21875 1.79688,-0.21875 C2.08854,-0.21875 2.34635,-0.359375 2.57031,-0.640625 C2.79427,-0.921875 2.94271,-1.22917 3.01563,-1.5625 L3.65625,-4.03125 C3.76042,-4.48958 3.8125,-4.79688 3.8125,-4.95313 C3.8125,-5.19271 3.7474,-5.39844 3.61719,-5.57031 C3.48698,-5.74219 3.30208,-5.82813 3.0625,-5.82813 C2.77083,-5.82813 2.49479,-5.73438 2.23438,-5.54688 C1.97396,-5.35938 1.75521,-5.125 1.57813,-4.84375 C1.40104,-4.5625 1.27604,-4.27604 1.20313,-3.98438 C1.18229,-3.92188 1.14583,-3.89063 1.09375,-3.89063 L0.921875,-3.89063 C0.848958,-3.89063 0.8125,-3.93229 0.8125,-4.01563 L0.8125,-4.0625 C0.90625,-4.40625 1.0625,-4.74479 1.28125,-5.07813 C1.5,-5.41146 1.76823,-5.67969 2.08594,-5.88281 C2.40365,-6.08594 2.73958,-6.1875 3.09375,-6.1875 C3.4375,-6.1875 3.7474,-6.09635 4.02344,-5.91406 C4.29948,-5.73177 4.49479,-5.48438 4.60938,-5.17188 C4.76563,-5.45313 4.96875,-5.69271 5.21875,-5.89063 C5.46875,-6.08854 5.73958,-6.1875 6.03125,-6.1875 C6.23958,-6.1875 6.44792,-6.15104 6.65625,-6.07813 C6.86458,-6.00521 7.03385,-5.89583 7.16406,-5.75 C7.29427,-5.60417 7.35938,-5.42188 7.35938,-5.20313 C7.35938,-4.97396 7.28385,-4.77344 7.13281,-4.60156 C6.98177,-4.42969 6.78646,-4.34375 6.54688,-4.34375 C6.40104,-4.34375 6.27604,-4.39063 6.17188,-4.48438 C6.06771,-4.57813 6.01563,-4.69792 6.01563,-4.84375 C6.01563,-5.04167 6.08333,-5.21354 6.21875,-5.35938 C6.35417,-5.50521 6.51563,-5.59375 6.70313,-5.625 C6.53646,-5.76042 6.30729,-5.82813 6.01563,-5.82813 C5.71354,-5.82813 5.45052,-5.6875 5.22656,-5.40625 C5.0026,-5.125 4.84896,-4.81771 4.76563,-4.48438 L4.14063,-2 C4.04688,-1.63542 4,-1.32813 4,-1.07813 C4,-0.848958 4.0651,-0.648438 4.19531,-0.476563 C4.32552,-0.304688 4.50521,-0.21875 4.73438,-0.21875 C5.17188,-0.21875 5.5625,-0.411458 5.90625,-0.796875 C6.25,-1.18229 6.47396,-1.60417 6.57813,-2.0625 C6.59896,-2.11458 6.63542,-2.14063 6.6875,-2.14063 L6.85938,-2.14063 C6.90104,-2.14063 6.93229,-2.1276 6.95313,-2.10156 C6.97396,-2.07552 6.98438,-2.04688 6.98438,-2.01563 C6.98438,-2.00521 6.97917,-1.99479 6.96875,-1.98438 C6.84375,-1.42188 6.56771,-0.924479 6.14063,-0.492188 C5.71354,-0.0598958 5.23438,0.15625 4.70313,0.15625 C4.35938,0.15625 4.04948,0.0625 3.77344,-0.125 C3.4974,-0.3125 3.30208,-0.5625 3.1875,-0.875 C3.04167,-0.604167 2.84115,-0.364583 2.58594,-0.15625 C2.33073,0.0520833 2.05729,0.15625 1.76563,0.15625 C1.56771,0.15625 1.36198,0.119792 1.14844,0.046875 C0.934896,-0.0260417 0.763021,-0.135417 0.632813,-0.28125 C0.502604,-0.427083 0.4375,-0.609375 0.4375,-0.828125 C0.4375,-1.04688 0.513021,-1.2474 0.664063,-1.42969 C0.815104,-1.61198 1.00521,-1.70313 1.23438,-1.70313 C1.39063,-1.70313 1.52083,-1.65625 1.625,-1.5625 C1.72917,-1.46875 1.78125,-1.34375 1.78125,-1.1875 C1.78125,-1 1.71615,-0.833333 1.58594,-0.6875 C1.45573,-0.541667 1.29167,-0.447917 1.09375,-0.40625 "/>
</g>

<g fill="#212121" fill-opacity="1" stroke="none" transform="matrix(0.75,0,0,0.75,89.1066,166.6)"
font-family="MS Shell Dlg 2" font-size="8.25" font-weight="400" font-style="normal" 
>
<path vector-effect="none" fill-rule="evenodd" d="M0.921875,0 L0.921875,-0.359375 C1.75521,-0.359375 2.17188,-0.463542 2.17188,-0.671875 L2.17188,-5.92188 C1.82813,-5.75521 1.39583,-5.67188 0.875,-5.67188 L0.875,-6.01563 C1.6875,-6.01563 2.30208,-6.22917 2.71875,-6.65625 L2.85938,-6.65625 C2.88021,-6.65625 2.90104,-6.64844 2.92188,-6.63281 C2.94271,-6.61719 2.95313,-6.59896 2.95313,-6.57813 L2.95313,-0.671875 C2.95313,-0.463542 3.36979,-0.359375 4.20313,-0.359375 L4.20313,0 L0.921875,0"/>
</g>

<g fill="#212121" fill-opacity="1" stroke="#212121" stroke-opacity="1" stroke-width="1.06667" stroke-linecap="square" stroke-linejoin="round" transform="matrix(0.75,0,0,0.75,-4.46183,-0.485647)"
font-family="MS Shell Dlg 2" font-size="8.25" font-weight="400" font-style="normal" 
>
<polyline fill="none" vector-effect="none" points="42,186 205,186 " />
<polyline fill="none" vector-effect="none" points="42,23 205,23 " />
<polyline fill="none" vector-effect="none" points="80.6053,186 80.6053,184.37 " />
<polyline fill="none" vector-effect="none" points="80.6053,24.63 80.6053,23 " />
<polyline fill="none" vector-effect="none" points="123.5,186 123.5,184.37 " />
<polyline fill="none" vector-effect="none" points="123.5,24.63 123.5,23 " />
<polyline fill="none" vector-effect="none" points="166.395,186 166.395,184.37 " />
<polyline fill="none" vector-effect="none" points="166.395,24.63 166.395,23 " />
</g>

<g fill="#212121" fill-opacity="1" stroke="none" transform="matrix(0.75,0,0,0.75,51.8254,151.414)"
font-family="MS Shell Dlg 2" font-size="8.25" font-weight="400" font-style="normal" 
>
<path vector-effect="none" fill-rule="evenodd" d="M0.140625,-2.40625 L0.140625,-3.21875 L3.59375,-3.21875 L3.59375,-2.40625 L0.140625,-2.40625"/>
</g>

<g fill="#212121" fill-opacity="1" stroke="none" transform="matrix(0.75,0,0,0.75,55.1588,151.414)"
font-family="MS Shell Dlg 2" font-size="8.25" font-weight="400" font-style="normal" 
>
<path vector-effect="none" fill-rule="evenodd" d="M1.20313,0 L1.20313,-0.453125 C2.28646,-0.453125 2.82813,-0.59375 2.82813,-0.875 L2.82813,-7.6875 C2.38021,-7.47917 1.8125,-7.375 1.125,-7.375 L1.125,-7.82813 C2.1875,-7.82813 2.98958,-8.10417 3.53125,-8.65625 L3.71875,-8.65625 C3.75,-8.65625 3.77865,-8.64583 3.80469,-8.625 C3.83073,-8.60417 3.84375,-8.57813 3.84375,-8.54688 L3.84375,-0.875 C3.84375,-0.59375 4.38542,-0.453125 5.46875,-0.453125 L5.46875,0 L1.20313,0"/>
</g>

<g fill="#212121" fill-opacity="1" stroke="none" transform="matrix(0.75,0,0,0.75,85.6632,151.414)"
font-family="MS Shell Dlg 2" font-size="8.25" font-weight="400" font-style="normal" 
>
<path vector-effect="none" fill-rule="evenodd" d="M3.25,0.28125 C2.1875,0.28125 1.46615,-0.15625 1.08594,-1.03125 C0.705729,-1.90625 0.515625,-2.94271 0.515625,-4.14063 C0.515625,-4.90104 0.583333,-5.61198 0.71875,-6.27344 C0.854167,-6.9349 1.125,-7.4974 1.53125,-7.96094 C1.9375,-8.42448 2.51042,-8.65625 3.25,-8.65625 C3.82292,-8.65625 4.29167,-8.51823 4.65625,-8.24219 C5.02083,-7.96615 5.29688,-7.60677 5.48438,-7.16406 C5.67188,-6.72135 5.80208,-6.2474 5.875,-5.74219 C5.94792,-5.23698 5.98438,-4.70313 5.98438,-4.14063 C5.98438,-3.40104 5.91406,-2.70573 5.77344,-2.05469 C5.63281,-1.40365 5.36198,-0.851563 4.96094,-0.398438 C4.5599,0.0546875 3.98958,0.28125 3.25,0.28125 M3.25,-0.046875 C3.72917,-0.046875 4.08854,-0.294271 4.32813,-0.789063 C4.56771,-1.28385 4.71354,-1.83333 4.76563,-2.4375 C4.81771,-3.04167 4.84375,-3.68229 4.84375,-4.35938 C4.84375,-5.00521 4.81771,-5.60417 4.76563,-6.15625 C4.71354,-6.70833 4.57031,-7.20833 4.33594,-7.65625 C4.10156,-8.10417 3.73958,-8.32813 3.25,-8.32813 C2.76042,-8.32813 2.39583,-8.10156 2.15625,-7.64844 C1.91667,-7.19531 1.77083,-6.69531 1.71875,-6.14844 C1.66667,-5.60156 1.64063,-5.00521 1.64063,-4.35938 C1.64063,-3.86979 1.65104,-3.41146 1.67188,-2.98438 C1.69271,-2.55729 1.75521,-2.11719 1.85938,-1.66406 C1.96354,-1.21094 2.1276,-0.828125 2.35156,-0.515625 C2.57552,-0.203125 2.875,-0.046875 3.25,-0.046875 "/>
</g>

<g fill="#212121" fill-opacity="1" stroke="none" transform="matrix(0.75,0,0,0.75,117.834,151.414)"
font-family="MS Shell Dlg 2" font-size="8.25" font-weight="400" font-style="normal" 
>
<path vector-effect="none" fill-rule="evenodd" d="M1.20313,0 L1.20313,-0.453125 C2.28646,-0.453125 2.82813,-0.59375 2.82813,-0.875 L2.82813,-7.6875 C2.38021,-7.47917 1.8125,-7.375 1.125,-7.375 L1.125,-7.82813 C2.1875,-7.82813 2.98958,-8.10417 3.53125,-8.65625 L3.71875,-8.65625 C3.75,-8.65625 3.77865,-8.64583 3.80469,-8.625 C3.83073,-8.60417 3.84375,-8.57813 3.84375,-8.54688 L3.84375,-0.875 C3.84375,-0.59375 4.38542,-0.453125 5.46875,-0.453125 L5.46875,0 L1.20313,0"/>
</g>

<g fill="#212121" fill-opacity="1" stroke="none" transform="matrix(0,-0.75,0.75,0,6,83.2327)"
font-family="MS Shell Dlg 2" font-size="8.25" font-weight="400" font-style="normal" 
>
<path vector-effect="none" fill-rule="evenodd" d="M1.09375,-0.40625 C1.26042,-0.28125 1.49479,-0.21875 1.79688,-0.21875 C2.08854,-0.21875 2.34635,-0.359375 2.57031,-0.640625 C2.79427,-0.921875 2.94271,-1.22917 3.01563,-1.5625 L3.65625,-4.03125 C3.76042,-4.48958 3.8125,-4.79688 3.8125,-4.95313 C3.8125,-5.19271 3.7474,-5.39844 3.61719,-5.57031 C3.48698,-5.74219 3.30208,-5.82813 3.0625,-5.82813 C2.77083,-5.82813 2.49479,-5.73438 2.23438,-5.54688 C1.97396,-5.35938 1.75521,-5.125 1.57813,-4.84375 C1.40104,-4.5625 1.27604,-4.27604 1.20313,-3.98438 C1.18229,-3.92188 1.14583,-3.89063 1.09375,-3.89063 L0.921875,-3.89063 C0.848958,-3.89063 0.8125,-3.93229 0.8125,-4.01563 L0.8125,-4.0625 C0.90625,-4.40625 1.0625,-4.74479 1.28125,-5.07813 C1.5,-5.41146 1.76823,-5.67969 2.08594,-5.88281 C2.40365,-6.08594 2.73958,-6.1875 3.09375,-6.1875 C3.4375,-6.1875 3.7474,-6.09635 4.02344,-5.91406 C4.29948,-5.73177 4.49479,-5.48438 4.60938,-5.17188 C4.76563,-5.45313 4.96875,-5.69271 5.21875,-5.89063 C5.46875,-6.08854 5.73958,-6.1875 6.03125,-6.1875 C6.23958,-6.1875 6.44792,-6.15104 6.65625,-6.07813 C6.86458,-6.00521 7.03385,-5.89583 7.16406,-5.75 C7.29427,-5.60417 7.35938,-5.42188 7.35938,-5.20313 C7.35938,-4.97396 7.28385,-4.77344 7.13281,-4.60156 C6.98177,-4.42969 6.78646,-4.34375 6.54688,-4.34375 C6.40104,-4.34375 6.27604,-4.39063 6.17188,-4.48438 C6.06771,-4.57813 6.01563,-4.69792 6.01563,-4.84375 C6.01563,-5.04167 6.08333,-5.21354 6.21875,-5.35938 C6.35417,-5.50521 6.51563,-5.59375 6.70313,-5.625 C6.53646,-5.76042 6.30729,-5.82813 6.01563,-5.82813 C5.71354,-5.82813 5.45052,-5.6875 5.22656,-5.40625 C5.0026,-5.125 4.84896,-4.81771 4.76563,-4.48438 L4.14063,-2 C4.04688,-1.63542 4,-1.32813 4,-1.07813 C4,-0.848958 4.0651,-0.648438 4.19531,-0.476563 C4.32552,-0.304688 4.50521,-0.21875 4.73438,-0.21875 C5.17188,-0.21875 5.5625,-0.411458 5.90625,-0.796875 C6.25,-1.18229 6.47396,-1.60417 6.57813,-2.0625 C6.59896,-2.11458 6.63542,-2.14063 6.6875,-2.14063 L6.85938,-2.14063 C6.90104,-2.14063 6.93229,-2.1276 6.95313,-2.10156 C6.97396,-2.07552 6.98438,-2.04688 6.98438,-2.01563 C6.98438,-2.00521 6.97917,-1.99479 6.96875,-1.98438 C6.84375,-1.42188 6.56771,-0.924479 6.14063,-0.492188 C5.71354,-0.0598958 5.23438,0.15625 4.70313,0.15625 C4.35938,0.15625 4.04948,0.0625 3.77344,-0.125 C3.4974,-0.3125 3.30208,-0.5625 3.1875,-0.875 C3.04167,-0.604167 2.84115,-0.364583 2.58594,-0.15625 C2.33073,0.0520833 2.05729,0.15625 1.76563,0.15625 C1.56771,0.15625 1.36198,0.119792 1.14844,0.046875 C0.934896,-0.0260417 0.763021,-0.135417 0.632813,-0.28125 C0.502604,-0.427083 0.4375,-0.609375 0.4375,-0.828125 C0.4375,-1.04688 0.513021,-1.2474 0.664063,-1.42969 C0.815104,-1.61198 1.00521,-1.70313 1.23438,-1.70313 C1.39063,-1.70313 1.52083,-1.65625 1.625,-1.5625 C1.72917,-1.46875 1.78125,-1.34375 1.78125,-1.1875 C1.78125,-1 1.71615,-0.833333 1.58594,-0.6875 C1.45573,-0.541667 1.29167,-0.447917 1.09375,-0.40625 "/>
</g>

<g fill="#212121" fill-opacity="1" stroke="none" transform="matrix(0,-0.75,0.75,0,7.64998,76.9459)"
font-family="MS Shell Dlg 2" font-size="8.25" font-weight="400" font-style="normal" 
>
<path vector-effect="none" fill-rule="evenodd" d="M0.5,0 L0.5,-0.265625 C0.5,-0.286458 0.505208,-0.307292 0.515625,-0.328125 L2.07813,-2.04688 C2.30729,-2.29688 2.49479,-2.50781 2.64063,-2.67969 C2.78646,-2.85156 2.93229,-3.04948 3.07813,-3.27344 C3.22396,-3.4974 3.33854,-3.72656 3.42188,-3.96094 C3.50521,-4.19531 3.54688,-4.44271 3.54688,-4.70313 C3.54688,-4.97396 3.49479,-5.23438 3.39063,-5.48438 C3.28646,-5.73438 3.13542,-5.9349 2.9375,-6.08594 C2.73958,-6.23698 2.5,-6.3125 2.21875,-6.3125 C1.92708,-6.3125 1.66406,-6.22396 1.42969,-6.04688 C1.19531,-5.86979 1.03125,-5.64583 0.9375,-5.375 C0.96875,-5.375 1.00521,-5.375 1.04688,-5.375 C1.20313,-5.375 1.33333,-5.32552 1.4375,-5.22656 C1.54167,-5.1276 1.59375,-5 1.59375,-4.84375 C1.59375,-4.6875 1.54167,-4.55729 1.4375,-4.45313 C1.33333,-4.34896 1.20313,-4.29688 1.04688,-4.29688 C0.890625,-4.29688 0.760417,-4.35156 0.65625,-4.46094 C0.552083,-4.57031 0.5,-4.69792 0.5,-4.84375 C0.5,-5.09375 0.546875,-5.32813 0.640625,-5.54688 C0.734375,-5.76563 0.869792,-5.96094 1.04688,-6.13281 C1.22396,-6.30469 1.42448,-6.4349 1.64844,-6.52344 C1.8724,-6.61198 2.10938,-6.65625 2.35938,-6.65625 C2.74479,-6.65625 3.10156,-6.57552 3.42969,-6.41406 C3.75781,-6.2526 4.01823,-6.02604 4.21094,-5.73438 C4.40365,-5.44271 4.5,-5.09896 4.5,-4.70313 C4.5,-4.41146 4.4349,-4.13542 4.30469,-3.875 C4.17448,-3.61458 4.01042,-3.3776 3.8125,-3.16406 C3.61458,-2.95052 3.36198,-2.70833 3.05469,-2.4375 C2.7474,-2.16667 2.54167,-1.98958 2.4375,-1.90625 L1.3125,-0.8125 L2.26563,-0.8125 C2.74479,-0.8125 3.14323,-0.815104 3.46094,-0.820313 C3.77865,-0.825521 3.94271,-0.838542 3.95313,-0.859375 C4.03646,-0.942708 4.11979,-1.25 4.20313,-1.78125 L4.5,-1.78125 L4.20313,0 L0.5,0"/>
</g>

<g fill="#212121" fill-opacity="1" stroke="#212121" stroke-opacity="1" stroke-width="1.06667" stroke-linecap="square" stroke-linejoin="round" transform="matrix(0.75,0,0,0.75,-4.46183,-0.485647)"
font-family="MS Shell Dlg 2" font-size="8.25" font-weight="400" font-style="normal" 
>
<polyline fill="none" vector-effect="none" points="42,186 42,23 " />
<polyline fill="none" vector-effect="none" points="205,186 205,23 " />
<polyline fill="none" vector-effect="none" points="42,147.395 43.63,147.395 " />
<polyline fill="none" vector-effect="none" points="203.37,147.395 205,147.395 " />
<polyline fill="none" vector-effect="none" points="42,104.5 43.63,104.5 " />
<polyline fill="none" vector-effect="none" points="203.37,104.5 205,104.5 " />
<polyline fill="none" vector-effect="none" points="42,61.6053 43.63,61.6053 " />
<polyline fill="none" vector-effect="none" points="203.37,61.6053 205,61.6053 " />
</g>

<g fill="#212121" fill-opacity="1" stroke="none" transform="matrix(0.75,0,0,0.75,14.7048,112.46)"
font-family="MS Shell Dlg 2" font-size="8.25" font-weight="400" font-style="normal" 
>
<path vector-effect="none" fill-rule="evenodd" d="M0.140625,-2.40625 L0.140625,-3.21875 L3.59375,-3.21875 L3.59375,-2.40625 L0.140625,-2.40625"/>
</g>

<g fill="#212121" fill-opacity="1" stroke="none" transform="matrix(0.75,0,0,0.75,18.0382,112.46)"
font-family="MS Shell Dlg 2" font-size="8.25" font-weight="400" font-style="normal" 
>
<path vector-effect="none" fill-rule="evenodd" d="M1.20313,0 L1.20313,-0.453125 C2.28646,-0.453125 2.82813,-0.59375 2.82813,-0.875 L2.82813,-7.6875 C2.38021,-7.47917 1.8125,-7.375 1.125,-7.375 L1.125,-7.82813 C2.1875,-7.82813 2.98958,-8.10417 3.53125,-8.65625 L3.71875,-8.65625 C3.75,-8.65625 3.77865,-8.64583 3.80469,-8.625 C3.83073,-8.60417 3.84375,-8.57813 3.84375,-8.54688 L3.84375,-0.875 C3.84375,-0.59375 4.38542,-0.453125 5.46875,-0.453125 L5.46875,0 L1.20313,0"/>
</g>

<g fill="#212121" fill-opacity="1" stroke="none" transform="matrix(0.75,0,0,0.75,18.0382,80.2893)"
font-family="MS Shell Dlg 2" font-size="8.25" font-weight="400" font-style="normal" 
>
<path vector-effect="none" fill-rule="evenodd" d="M3.25,0.28125 C2.1875,0.28125 1.46615,-0.15625 1.08594,-1.03125 C0.705729,-1.90625 0.515625,-2.94271 0.515625,-4.14063 C0.515625,-4.90104 0.583333,-5.61198 0.71875,-6.27344 C0.854167,-6.9349 1.125,-7.4974 1.53125,-7.96094 C1.9375,-8.42448 2.51042,-8.65625 3.25,-8.65625 C3.82292,-8.65625 4.29167,-8.51823 4.65625,-8.24219 C5.02083,-7.96615 5.29688,-7.60677 5.48438,-7.16406 C5.67188,-6.72135 5.80208,-6.2474 5.875,-5.74219 C5.94792,-5.23698 5.98438,-4.70313 5.98438,-4.14063 C5.98438,-3.40104 5.91406,-2.70573 5.77344,-2.05469 C5.63281,-1.40365 5.36198,-0.851563 4.96094,-0.398438 C4.5599,0.0546875 3.98958,0.28125 3.25,0.28125 M3.25,-0.046875 C3.72917,-0.046875 4.08854,-0.294271 4.32813,-0.789063 C4.56771,-1.28385 4.71354,-1.83333 4.76563,-2.4375 C4.81771,-3.04167 4.84375,-3.68229 4.84375,-4.35938 C4.84375,-5.00521 4.81771,-5.60417 4.76563,-6.15625 C4.71354,-6.70833 4.57031,-7.20833 4.33594,-7.65625 C4.10156,-8.10417 3.73958,-8.32813 3.25,-8.32813 C2.76042,-8.32813 2.39583,-8.10156 2.15625,-7.64844 C1.91667,-7.19531 1.77083,-6.69531 1.71875,-6.14844 C1.66667,-5.60156 1.64063,-5.00521 1.64063,-4.35938 C1.64063,-3.86979 1.65104,-3.41146 1.67188,-2.98438 C1.69271,-2.55729 1.75521,-2.11719 1.85938,-1.66406 C1.96354,-1.21094 2.1276,-0.828125 2.35156,-0.515625 C2.57552,-0.203125 2.875,-0.046875 3.25,-0.046875 "/>
</g>

<g fill="#212121" fill-opacity="1" stroke="none" transform="matrix(0.75,0,0,0.75,18.0382,48.1183)"
font-family="MS Shell Dlg 2" font-size="8.25" font-weight="400" font-style="normal" 
>
<path vector-effect="none" fill-rule="evenodd" d="M1.20313,0 L1.20313,-0.453125 C2.28646,-0.453125 2.82813,-0.59375 2.82813,-0.875 L2.82813,-7.6875 C2.38021,-7.47917 1.8125,-7.375 1.125,-7.375 L1.125,-7.82813 C2.1875,-7.82813 2.98958,-8.10417 3.53125,-8.65625 L3.71875,-8.65625 C3.75,-8.65625 3.77865,-8.64583 3.80469,-8.625 C3.83073,-8.60417 3.84375,-8.57813 3.84375,-8.54688 L3.84375,-0.875 C3.84375,-0.59375 4.38542,-0.453125 5.46875,-0.453125 L5.46875,0 L1.20313,0"/>
</g>

<g fill="#212121" fill-opacity="1" stroke="none" transform="matrix(0.75,0,0,0.75,41.7646,10.7418)"
font-family="MS Shell Dlg 2" font-size="8.25" font-weight="400" font-style="normal" 
>
<path vector-effect="none" fill-rule="evenodd" d="M2.35938,0 L2.35938,-0.5 C2.82813,-0.5 3.28385,-0.526042 3.72656,-0.578125 C4.16927,-0.630208 4.39063,-0.75 4.39063,-0.9375 L4.39063,-8.625 C4.39063,-8.82292 4.33594,-8.94792 4.22656,-9 C4.11719,-9.05208 3.9375,-9.07813 3.6875,-9.07813 L3.09375,-9.07813 C2.32292,-9.07813 1.77604,-8.90625 1.45313,-8.5625 C1.28646,-8.39583 1.16667,-8.1276 1.09375,-7.75781 C1.02083,-7.38802 0.958333,-6.92188 0.90625,-6.35938 L0.5,-6.35938 L0.765625,-9.5625 L9.32813,-9.5625 L9.59375,-6.35938 L9.1875,-6.35938 C9.125,-6.96354 9.0625,-7.4401 9,-7.78906 C8.9375,-8.13802 8.81771,-8.39583 8.64063,-8.5625 C8.31771,-8.90625 7.77083,-9.07813 7,-9.07813 L6.40625,-9.07813 C6.23958,-9.07813 6.10938,-9.07031 6.01563,-9.05469 C5.92188,-9.03906 5.84635,-8.9974 5.78906,-8.92969 C5.73177,-8.86198 5.70313,-8.76042 5.70313,-8.625 L5.70313,-0.9375 C5.70313,-0.75 5.92448,-0.630208 6.36719,-0.578125 C6.8099,-0.526042 7.26042,-0.5 7.71875,-0.5 L7.71875,0 L2.35938,0"/>
</g>

<g fill="#212121" fill-opacity="1" stroke="none" transform="matrix(0.75,0,0,0.75,48.7923,10.7418)"
font-family="MS Shell Dlg 2" font-size="8.25" font-weight="400" font-style="normal" 
>
<path vector-effect="none" fill-rule="evenodd" d="M3.48438,0.15625 C2.91146,0.15625 2.38802,0.0078125 1.91406,-0.289063 C1.4401,-0.585938 1.06771,-0.984375 0.796875,-1.48438 C0.526042,-1.98438 0.390625,-2.51042 0.390625,-3.0625 C0.390625,-3.61458 0.515625,-4.13542 0.765625,-4.625 C1.01563,-5.11458 1.36198,-5.51302 1.80469,-5.82031 C2.2474,-6.1276 2.73958,-6.28125 3.28125,-6.28125 C3.71875,-6.28125 4.09375,-6.20833 4.40625,-6.0625 C4.71875,-5.91667 4.97917,-5.71615 5.1875,-5.46094 C5.39583,-5.20573 5.55208,-4.90625 5.65625,-4.5625 C5.76042,-4.21875 5.8125,-3.83854 5.8125,-3.42188 C5.8125,-3.29688 5.76563,-3.23438 5.67188,-3.23438 L1.60938,-3.23438 L1.60938,-3.07813 C1.60938,-2.30729 1.76563,-1.64583 2.07813,-1.09375 C2.39063,-0.541667 2.90104,-0.265625 3.60938,-0.265625 C3.90104,-0.265625 4.16667,-0.328125 4.40625,-0.453125 C4.64583,-0.578125 4.85677,-0.755208 5.03906,-0.984375 C5.22135,-1.21354 5.34375,-1.45833 5.40625,-1.71875 C5.41667,-1.75 5.4349,-1.77604 5.46094,-1.79688 C5.48698,-1.81771 5.51563,-1.82813 5.54688,-1.82813 L5.67188,-1.82813 C5.76563,-1.82813 5.8125,-1.77083 5.8125,-1.65625 C5.67708,-1.125 5.39063,-0.690104 4.95313,-0.351563 C4.51563,-0.0130208 4.02604,0.15625 3.48438,0.15625 M1.625,-3.57813 L4.8125,-3.57813 C4.8125,-3.93229 4.76563,-4.28906 4.67188,-4.64844 C4.57813,-5.00781 4.41667,-5.30729 4.1875,-5.54688 C3.95833,-5.78646 3.65625,-5.90625 3.28125,-5.90625 C2.76042,-5.90625 2.35417,-5.65885 2.0625,-5.16406 C1.77083,-4.66927 1.625,-4.14063 1.625,-3.57813 "/>
</g>

<g fill="#212121" fill-opacity="1" stroke="none" transform="matrix(0.75,0,0,0.75,53.6812,10.7418)"
font-family="MS Shell Dlg 2" font-size="8.25" font-weight="400" font-style="normal" 
>
<path vector-effect="none" fill-rule="evenodd" d="M0.4375,0 L0.4375,-0.5 C0.75,-0.5 1.01042,-0.523438 1.21875,-0.570313 C1.42708,-0.617188 1.53125,-0.739583 1.53125,-0.9375 L1.53125,-4.76563 C1.53125,-5.11979 1.46094,-5.33854 1.32031,-5.42188 C1.17969,-5.50521 0.90625,-5.54688 0.5,-5.54688 L0.5,-6.03125 L2.51563,-6.1875 L2.51563,-0.9375 C2.51563,-0.739583 2.60417,-0.617188 2.78125,-0.570313 C2.95833,-0.523438 3.19271,-0.5 3.48438,-0.5 L3.48438,0 L0.4375,0 M1.03125,-8.59375 C1.03125,-8.80208 1.10677,-8.98177 1.25781,-9.13281 C1.40885,-9.28385 1.58854,-9.35938 1.79688,-9.35938 C1.92188,-9.35938 2.04688,-9.32552 2.17188,-9.25781 C2.29688,-9.1901 2.39323,-9.09635 2.46094,-8.97656 C2.52865,-8.85677 2.5625,-8.72917 2.5625,-8.59375 C2.5625,-8.39583 2.48438,-8.21875 2.32813,-8.0625 C2.17188,-7.90625 1.99479,-7.82813 1.79688,-7.82813 C1.58854,-7.82813 1.40885,-7.90625 1.25781,-8.0625 C1.10677,-8.21875 1.03125,-8.39583 1.03125,-8.59375 "/>
</g>

<g fill="#212121" fill-opacity="1" stroke="none" transform="matrix(0.75,0,0,0.75,56.7368,10.7418)"
font-family="MS Shell Dlg 2" font-size="8.25" font-weight="400" font-style="normal" 
>
<path vector-effect="none" fill-rule="evenodd" d="M0.4375,0 L0.4375,-0.5 C0.75,-0.5 1.01042,-0.523438 1.21875,-0.570313 C1.42708,-0.617188 1.53125,-0.739583 1.53125,-0.9375 L1.53125,-8.28125 C1.53125,-8.53125 1.49219,-8.71354 1.41406,-8.82813 C1.33594,-8.94271 1.22656,-9.01302 1.08594,-9.03906 C0.945313,-9.0651 0.729167,-9.07813 0.4375,-9.07813 L0.4375,-9.5625 L2.51563,-9.71875 L2.51563,-0.9375 C2.51563,-0.739583 2.61719,-0.617188 2.82031,-0.570313 C3.02344,-0.523438 3.28125,-0.5 3.59375,-0.5 L3.59375,0 L0.4375,0"/>
</g>

<g fill="#212121" fill-opacity="1" stroke="none" transform="matrix(0.75,0,0,0.75,59.7923,10.7418)"
font-family="MS Shell Dlg 2" font-size="8.25" font-weight="400" font-style="normal" 
>
<path vector-effect="none" fill-rule="evenodd" d="M0.453125,0 L0.453125,-0.5 C0.765625,-0.5 1.02344,-0.523438 1.22656,-0.570313 C1.42969,-0.617188 1.53125,-0.739583 1.53125,-0.9375 L1.53125,-5.54688 L0.46875,-5.54688 L0.46875,-6.03125 L1.53125,-6.03125 L1.53125,-7.71875 C1.53125,-8.01042 1.59635,-8.28906 1.72656,-8.55469 C1.85677,-8.82031 2.02604,-9.04948 2.23438,-9.24219 C2.44271,-9.4349 2.6849,-9.58854 2.96094,-9.70313 C3.23698,-9.81771 3.52604,-9.875 3.82813,-9.875 C4.14063,-9.875 4.42188,-9.78125 4.67188,-9.59375 C4.92188,-9.40625 5.04688,-9.15625 5.04688,-8.84375 C5.04688,-8.66667 4.98698,-8.51823 4.86719,-8.39844 C4.7474,-8.27865 4.59896,-8.21875 4.42188,-8.21875 C4.24479,-8.21875 4.09375,-8.27865 3.96875,-8.39844 C3.84375,-8.51823 3.78125,-8.66667 3.78125,-8.84375 C3.78125,-9.13542 3.90625,-9.33333 4.15625,-9.4375 C4.01042,-9.48958 3.875,-9.51563 3.75,-9.51563 C3.47917,-9.51563 3.2474,-9.41667 3.05469,-9.21875 C2.86198,-9.02083 2.71615,-8.78385 2.61719,-8.50781 C2.51823,-8.23177 2.46875,-7.95833 2.46875,-7.6875 L2.46875,-6.03125 L4.09375,-6.03125 L4.09375,-5.54688 L2.51563,-5.54688 L2.51563,-0.9375 C2.51563,-0.75 2.65365,-0.630208 2.92969,-0.578125 C3.20573,-0.526042 3.52083,-0.5 3.875,-0.5 L3.875,0 L0.453125,0"/>
</g>

<g fill="#212121" fill-opacity="1" stroke="none" transform="matrix(0.75,0,0,0.75,63.1535,10.7418)"
font-family="MS Shell Dlg 2" font-size="8.25" font-weight="400" font-style="normal" 
>
<path vector-effect="none" fill-rule="evenodd" d="M0.5625,-1.375 C0.5625,-1.92708 0.78125,-2.3776 1.21875,-2.72656 C1.65625,-3.07552 2.18229,-3.32292 2.79688,-3.46875 C3.41146,-3.61458 3.99479,-3.6875 4.54688,-3.6875 L4.54688,-4.25 C4.54688,-4.52083 4.48698,-4.78385 4.36719,-5.03906 C4.2474,-5.29427 4.07552,-5.5026 3.85156,-5.66406 C3.6276,-5.82552 3.38021,-5.90625 3.10938,-5.90625 C2.49479,-5.90625 2.02604,-5.76563 1.70313,-5.48438 C1.88021,-5.48438 2.02604,-5.41667 2.14063,-5.28125 C2.25521,-5.14583 2.3125,-4.98958 2.3125,-4.8125 C2.3125,-4.625 2.2474,-4.46615 2.11719,-4.33594 C1.98698,-4.20573 1.82813,-4.14063 1.64063,-4.14063 C1.45313,-4.14063 1.29427,-4.20833 1.16406,-4.34375 C1.03385,-4.47917 0.96875,-4.63542 0.96875,-4.8125 C0.96875,-5.3125 1.1901,-5.68229 1.63281,-5.92188 C2.07552,-6.16146 2.56771,-6.28125 3.10938,-6.28125 C3.48438,-6.28125 3.86458,-6.20052 4.25,-6.03906 C4.63542,-5.8776 4.95052,-5.64583 5.19531,-5.34375 C5.4401,-5.04167 5.5625,-4.6875 5.5625,-4.28125 L5.5625,-1.14063 C5.5625,-0.963542 5.60156,-0.796875 5.67969,-0.640625 C5.75781,-0.484375 5.875,-0.40625 6.03125,-0.40625 C6.1875,-0.40625 6.30469,-0.484375 6.38281,-0.640625 C6.46094,-0.796875 6.5,-0.963542 6.5,-1.14063 L6.5,-2.03125 L6.90625,-2.03125 L6.90625,-1.125 C6.90625,-0.916667 6.85156,-0.71875 6.74219,-0.53125 C6.63281,-0.34375 6.48438,-0.195313 6.29688,-0.0859375 C6.10938,0.0234375 5.91146,0.078125 5.70313,0.078125 C5.43229,0.078125 5.19792,-0.0286458 5,-0.242188 C4.80208,-0.455729 4.6875,-0.708333 4.65625,-1 C4.48958,-0.645833 4.23698,-0.364583 3.89844,-0.15625 C3.5599,0.0520833 3.19792,0.15625 2.8125,0.15625 C2.45833,0.15625 2.10938,0.104167 1.76563,0 C1.42188,-0.104167 1.13542,-0.268229 0.90625,-0.492188 C0.677083,-0.716146 0.5625,-1.01042 0.5625,-1.375 M1.70313,-1.375 C1.70313,-1.05208 1.82292,-0.778646 2.0625,-0.554688 C2.30208,-0.330729 2.58333,-0.21875 2.90625,-0.21875 C3.20833,-0.21875 3.48438,-0.294271 3.73438,-0.445313 C3.98438,-0.596354 4.18229,-0.799479 4.32813,-1.05469 C4.47396,-1.3099 4.54688,-1.58333 4.54688,-1.875 L4.54688,-3.32813 C4.11979,-3.32813 3.6849,-3.25781 3.24219,-3.11719 C2.79948,-2.97656 2.43229,-2.75781 2.14063,-2.46094 C1.84896,-2.16406 1.70313,-1.80208 1.70313,-1.375 "/>
</g>

<g fill="#212121" fill-opacity="1" stroke="none" transform="matrix(0.75,0,0,0.75,68.6535,10.7418)"
font-family="MS Shell Dlg 2" font-size="8.25" font-weight="400" font-style="normal" 
>
<path vector-effect="none" fill-rule="evenodd" d="M0.359375,0 L0.359375,-0.5 C0.682292,-0.5 0.945313,-0.523438 1.14844,-0.570313 C1.35156,-0.617188 1.45313,-0.739583 1.45313,-0.9375 L1.45313,-8.28125 C1.45313,-8.53125 1.41667,-8.71354 1.34375,-8.82813 C1.27083,-8.94271 1.16406,-9.01302 1.02344,-9.03906 C0.882813,-9.0651 0.661458,-9.07813 0.359375,-9.07813 L0.359375,-9.5625 L2.4375,-9.71875 L2.4375,-3.0625 L4.3125,-4.71875 C4.5,-4.89583 4.59375,-5.05729 4.59375,-5.20313 C4.59375,-5.31771 4.55469,-5.40365 4.47656,-5.46094 C4.39844,-5.51823 4.30729,-5.54688 4.20313,-5.54688 L4.20313,-6.03125 L6.82813,-6.03125 L6.82813,-5.54688 C6.19271,-5.54688 5.55729,-5.27083 4.92188,-4.71875 L3.9375,-3.84375 L5.71875,-1.3125 C5.95833,-0.96875 6.16146,-0.747396 6.32813,-0.648438 C6.49479,-0.549479 6.77083,-0.5 7.15625,-0.5 L7.15625,0 L4.375,0 L4.375,-0.5 C4.6875,-0.5 4.84375,-0.59375 4.84375,-0.78125 C4.84375,-0.927083 4.76042,-1.10417 4.59375,-1.3125 L3.25,-3.23438 L2.39063,-2.5 L2.39063,-0.9375 C2.39063,-0.739583 2.49479,-0.617188 2.70313,-0.570313 C2.91146,-0.523438 3.17188,-0.5 3.48438,-0.5 L3.48438,0 L0.359375,0"/>
</g>

<g fill="#212121" fill-opacity="1" stroke="none" transform="matrix(0.75,0,0,0.75,74.4591,10.7418)"
font-family="MS Shell Dlg 2" font-size="8.25" font-weight="400" font-style="normal" 
>
<path vector-effect="none" fill-rule="evenodd" d="M1.42188,-1.6875 L1.42188,-5.54688 L0.265625,-5.54688 L0.265625,-5.90625 C0.880208,-5.90625 1.33073,-6.1901 1.61719,-6.75781 C1.90365,-7.32552 2.04688,-7.94271 2.04688,-8.60938 L2.45313,-8.60938 L2.45313,-6.03125 L4.42188,-6.03125 L4.42188,-5.54688 L2.45313,-5.54688 L2.45313,-1.71875 C2.45313,-1.33333 2.51823,-0.994792 2.64844,-0.703125 C2.77865,-0.411458 3.01042,-0.265625 3.34375,-0.265625 C3.66667,-0.265625 3.89844,-0.419271 4.03906,-0.726563 C4.17969,-1.03385 4.25,-1.36458 4.25,-1.71875 L4.25,-2.54688 L4.65625,-2.54688 L4.65625,-1.6875 C4.65625,-1.39583 4.60156,-1.10677 4.49219,-0.820313 C4.38281,-0.533854 4.22396,-0.299479 4.01563,-0.117188 C3.80729,0.0651042 3.55208,0.15625 3.25,0.15625 C2.6875,0.15625 2.24219,-0.0104167 1.91406,-0.34375 C1.58594,-0.677083 1.42188,-1.125 1.42188,-1.6875 "/>
</g>

<g fill="#212121" fill-opacity="1" stroke="none" transform="matrix(0.75,0,0,0.75,78.7369,10.7418)"
font-family="MS Shell Dlg 2" font-size="8.25" font-weight="400" font-style="normal" 
>
<path vector-effect="none" fill-rule="evenodd" d="M3.5,0.15625 C2.9375,0.15625 2.41667,0.0130208 1.9375,-0.273438 C1.45833,-0.559896 1.08073,-0.942708 0.804688,-1.42188 C0.528646,-1.90104 0.390625,-2.42188 0.390625,-2.98438 C0.390625,-3.41146 0.466146,-3.82292 0.617188,-4.21875 C0.768229,-4.61458 0.986979,-4.96875 1.27344,-5.28125 C1.5599,-5.59375 1.89323,-5.83854 2.27344,-6.01563 C2.65365,-6.19271 3.0625,-6.28125 3.5,-6.28125 C4.07292,-6.28125 4.59635,-6.1276 5.07031,-5.82031 C5.54427,-5.51302 5.91667,-5.10677 6.1875,-4.60156 C6.45833,-4.09635 6.59375,-3.55729 6.59375,-2.98438 C6.59375,-2.42188 6.45573,-1.90104 6.17969,-1.42188 C5.90365,-0.942708 5.52604,-0.559896 5.04688,-0.273438 C4.56771,0.0130208 4.05208,0.15625 3.5,0.15625 M3.5,-0.265625 C4.25,-0.265625 4.75,-0.533854 5,-1.07031 C5.25,-1.60677 5.375,-2.29688 5.375,-3.14063 C5.375,-3.60938 5.34896,-3.9974 5.29688,-4.30469 C5.24479,-4.61198 5.13542,-4.89063 4.96875,-5.14063 C4.86458,-5.29688 4.73177,-5.43229 4.57031,-5.54688 C4.40885,-5.66146 4.23698,-5.75 4.05469,-5.8125 C3.8724,-5.875 3.6875,-5.90625 3.5,-5.90625 C3.20833,-5.90625 2.93229,-5.83854 2.67188,-5.70313 C2.41146,-5.56771 2.19271,-5.38021 2.01563,-5.14063 C1.83854,-4.86979 1.72656,-4.57813 1.67969,-4.26563 C1.63281,-3.95313 1.60938,-3.57813 1.60938,-3.14063 C1.60938,-2.61979 1.65625,-2.15104 1.75,-1.73438 C1.84375,-1.31771 2.02865,-0.96875 2.30469,-0.6875 C2.58073,-0.40625 2.97917,-0.265625 3.5,-0.265625 "/>
</g>

<g fill="#212121" fill-opacity="1" stroke="none" transform="matrix(0.75,0,0,0.75,84.2369,10.7418)"
font-family="MS Shell Dlg 2" font-size="8.25" font-weight="400" font-style="normal" 
>
<path vector-effect="none" fill-rule="evenodd" d="M0.359375,0 L0.359375,-0.5 C0.682292,-0.5 0.945313,-0.523438 1.14844,-0.570313 C1.35156,-0.617188 1.45313,-0.739583 1.45313,-0.9375 L1.45313,-4.76563 C1.45313,-5.01563 1.41667,-5.19531 1.34375,-5.30469 C1.27083,-5.41406 1.16406,-5.48177 1.02344,-5.50781 C0.882813,-5.53385 0.661458,-5.54688 0.359375,-5.54688 L0.359375,-6.03125 L2.35938,-6.1875 L2.35938,-4.8125 C2.51563,-5.21875 2.73177,-5.54948 3.00781,-5.80469 C3.28385,-6.0599 3.61979,-6.1875 4.01563,-6.1875 C4.29688,-6.1875 4.54688,-6.10417 4.76563,-5.9375 C4.98438,-5.77083 5.09375,-5.55729 5.09375,-5.29688 C5.09375,-5.11979 5.03385,-4.96875 4.91406,-4.84375 C4.79427,-4.71875 4.64583,-4.65625 4.46875,-4.65625 C4.29167,-4.65625 4.14063,-4.71875 4.01563,-4.84375 C3.89063,-4.96875 3.82813,-5.11979 3.82813,-5.29688 C3.82813,-5.54688 3.92188,-5.72396 4.10938,-5.82813 L4.01563,-5.82813 C3.64063,-5.82813 3.33333,-5.6901 3.09375,-5.41406 C2.85417,-5.13802 2.6849,-4.79688 2.58594,-4.39063 C2.48698,-3.98438 2.4375,-3.59896 2.4375,-3.23438 L2.4375,-0.9375 C2.4375,-0.645833 2.89063,-0.5 3.79688,-0.5 L3.79688,0 L0.359375,0"/>
</g>

<g fill="#212121" fill-opacity="1" stroke="none" transform="matrix(0.75,0,0,0.75,88.5452,10.7418)"
font-family="MS Shell Dlg 2" font-size="8.25" font-weight="400" font-style="normal" 
>
<path vector-effect="none" fill-rule="evenodd" d="M0.4375,0 L0.4375,-0.5 C0.75,-0.5 1.01042,-0.523438 1.21875,-0.570313 C1.42708,-0.617188 1.53125,-0.739583 1.53125,-0.9375 L1.53125,-4.76563 C1.53125,-5.11979 1.46094,-5.33854 1.32031,-5.42188 C1.17969,-5.50521 0.90625,-5.54688 0.5,-5.54688 L0.5,-6.03125 L2.51563,-6.1875 L2.51563,-0.9375 C2.51563,-0.739583 2.60417,-0.617188 2.78125,-0.570313 C2.95833,-0.523438 3.19271,-0.5 3.48438,-0.5 L3.48438,0 L0.4375,0 M1.03125,-8.59375 C1.03125,-8.80208 1.10677,-8.98177 1.25781,-9.13281 C1.40885,-9.28385 1.58854,-9.35938 1.79688,-9.35938 C1.92188,-9.35938 2.04688,-9.32552 2.17188,-9.25781 C2.29688,-9.1901 2.39323,-9.09635 2.46094,-8.97656 C2.52865,-8.85677 2.5625,-8.72917 2.5625,-8.59375 C2.5625,-8.39583 2.48438,-8.21875 2.32813,-8.0625 C2.17188,-7.90625 1.99479,-7.82813 1.79688,-7.82813 C1.58854,-7.82813 1.40885,-7.90625 1.25781,-8.0625 C1.10677,-8.21875 1.03125,-8.39583 1.03125,-8.59375 "/>
</g>

<g fill="#212121" fill-opacity="1" stroke="none" transform="matrix(0.75,0,0,0.75,91.6008,10.7418)"
font-family="MS Shell Dlg 2" font-size="8.25" font-weight="400" font-style="normal" 
>
<path vector-effect="none" fill-rule="evenodd" d="M3.48438,0.15625 C2.91146,0.15625 2.38802,0.0078125 1.91406,-0.289063 C1.4401,-0.585938 1.06771,-0.984375 0.796875,-1.48438 C0.526042,-1.98438 0.390625,-2.51042 0.390625,-3.0625 C0.390625,-3.61458 0.515625,-4.13542 0.765625,-4.625 C1.01563,-5.11458 1.36198,-5.51302 1.80469,-5.82031 C2.2474,-6.1276 2.73958,-6.28125 3.28125,-6.28125 C3.71875,-6.28125 4.09375,-6.20833 4.40625,-6.0625 C4.71875,-5.91667 4.97917,-5.71615 5.1875,-5.46094 C5.39583,-5.20573 5.55208,-4.90625 5.65625,-4.5625 C5.76042,-4.21875 5.8125,-3.83854 5.8125,-3.42188 C5.8125,-3.29688 5.76563,-3.23438 5.67188,-3.23438 L1.60938,-3.23438 L1.60938,-3.07813 C1.60938,-2.30729 1.76563,-1.64583 2.07813,-1.09375 C2.39063,-0.541667 2.90104,-0.265625 3.60938,-0.265625 C3.90104,-0.265625 4.16667,-0.328125 4.40625,-0.453125 C4.64583,-0.578125 4.85677,-0.755208 5.03906,-0.984375 C5.22135,-1.21354 5.34375,-1.45833 5.40625,-1.71875 C5.41667,-1.75 5.4349,-1.77604 5.46094,-1.79688 C5.48698,-1.81771 5.51563,-1.82813 5.54688,-1.82813 L5.67188,-1.82813 C5.76563,-1.82813 5.8125,-1.77083 5.8125,-1.65625 C5.67708,-1.125 5.39063,-0.690104 4.95313,-0.351563 C4.51563,-0.0130208 4.02604,0.15625 3.48438,0.15625 M1.625,-3.57813 L4.8125,-3.57813 C4.8125,-3.93229 4.76563,-4.28906 4.67188,-4.64844 C4.57813,-5.00781 4.41667,-5.30729 4.1875,-5.54688 C3.95833,-5.78646 3.65625,-5.90625 3.28125,-5.90625 C2.76042,-5.90625 2.35417,-5.65885 2.0625,-5.16406 C1.77083,-4.66927 1.625,-4.14063 1.625,-3.57813 "/>
</g>

<g fill="#212121" fill-opacity="1" stroke="none" transform="matrix(0.75,0,0,0.75,96.4897,10.7418)"
font-family="MS Shell Dlg 2" font-size="8.25" font-weight="400" font-style="normal" 
>
<path vector-effect="none" fill-rule="evenodd" d="M0.4375,0 L0.4375,-0.5 C0.75,-0.5 1.01042,-0.523438 1.21875,-0.570313 C1.42708,-0.617188 1.53125,-0.739583 1.53125,-0.9375 L1.53125,-8.28125 C1.53125,-8.53125 1.49219,-8.71354 1.41406,-8.82813 C1.33594,-8.94271 1.22656,-9.01302 1.08594,-9.03906 C0.945313,-9.0651 0.729167,-9.07813 0.4375,-9.07813 L0.4375,-9.5625 L2.51563,-9.71875 L2.51563,-0.9375 C2.51563,-0.739583 2.61719,-0.617188 2.82031,-0.570313 C3.02344,-0.523438 3.28125,-0.5 3.59375,-0.5 L3.59375,0 L0.4375,0"/>
</g>

<g fill="#212121" fill-opacity="1" stroke="none" transform="matrix(0.75,0,0,0.75,99.5452,10.7418)"
font-family="MS Shell Dlg 2" font-size="8.25" font-weight="400" font-style="normal" 
>
<path vector-effect="none" fill-rule="evenodd" d="M0.4375,0 L0.4375,-0.5 C0.75,-0.5 1.01042,-0.523438 1.21875,-0.570313 C1.42708,-0.617188 1.53125,-0.739583 1.53125,-0.9375 L1.53125,-8.28125 C1.53125,-8.53125 1.49219,-8.71354 1.41406,-8.82813 C1.33594,-8.94271 1.22656,-9.01302 1.08594,-9.03906 C0.945313,-9.0651 0.729167,-9.07813 0.4375,-9.07813 L0.4375,-9.5625 L2.51563,-9.71875 L2.51563,-0.9375 C2.51563,-0.739583 2.61719,-0.617188 2.82031,-0.570313 C3.02344,-0.523438 3.28125,-0.5 3.59375,-0.5 L3.59375,0 L0.4375,0"/>
</g>

<g fill="#212121" fill-opacity="1" stroke="none" transform="matrix(0.75,0,0,0.75,106.267,10.7418)"
font-family="MS Shell Dlg 2" font-size="8.25" font-weight="400" font-style="normal" 
>
<path vector-effect="none" fill-rule="evenodd" d="M4.34375,3.46875 C3.82292,3.0625 3.375,2.59375 3,2.0625 C2.625,1.53125 2.31771,0.963542 2.07813,0.359375 C1.83854,-0.244792 1.65885,-0.875 1.53906,-1.53125 C1.41927,-2.1875 1.35938,-2.84375 1.35938,-3.5 C1.35938,-4.16667 1.41927,-4.82813 1.53906,-5.48438 C1.65885,-6.14063 1.84115,-6.77344 2.08594,-7.38281 C2.33073,-7.99219 2.64063,-8.5599 3.01563,-9.08594 C3.39063,-9.61198 3.83333,-10.0729 4.34375,-10.4688 C4.34375,-10.4896 4.36458,-10.5 4.40625,-10.5 L4.54688,-10.5 C4.56771,-10.5 4.59115,-10.487 4.61719,-10.4609 C4.64323,-10.4349 4.65625,-10.4063 4.65625,-10.375 C4.65625,-10.3333 4.64583,-10.3021 4.625,-10.2813 C4.16667,-9.84375 3.78646,-9.36979 3.48438,-8.85938 C3.18229,-8.34896 2.9375,-7.80469 2.75,-7.22656 C2.5625,-6.64844 2.42969,-6.04948 2.35156,-5.42969 C2.27344,-4.8099 2.23438,-4.16667 2.23438,-3.5 C2.23438,-0.53125 3.02604,1.72396 4.60938,3.26563 C4.64063,3.28646 4.65625,3.32292 4.65625,3.375 C4.65625,3.39583 4.64323,3.42188 4.61719,3.45313 C4.59115,3.48438 4.56771,3.5 4.54688,3.5 L4.40625,3.5 C4.36458,3.5 4.34375,3.48958 4.34375,3.46875 "/>
</g>

<g fill="#212121" fill-opacity="1" stroke="none" transform="matrix(0.75,0,0,0.75,110.545,10.7418)"
font-family="MS Shell Dlg 2" font-size="8.25" font-weight="400" font-style="normal" 
>
<path vector-effect="none" fill-rule="evenodd" d="M0.703125,0 L0.703125,-0.375 C0.703125,-0.395833 0.708333,-0.421875 0.71875,-0.453125 L2.90625,-2.85938 C3.22917,-3.21354 3.49219,-3.51042 3.69531,-3.75 C3.89844,-3.98958 4.10156,-4.26823 4.30469,-4.58594 C4.50781,-4.90365 4.66667,-5.22396 4.78125,-5.54688 C4.89583,-5.86979 4.95313,-6.21354 4.95313,-6.57813 C4.95313,-6.96354 4.88281,-7.33073 4.74219,-7.67969 C4.60156,-8.02865 4.39063,-8.30729 4.10938,-8.51563 C3.82813,-8.72396 3.48958,-8.82813 3.09375,-8.82813 C2.6875,-8.82813 2.32292,-8.70573 2,-8.46094 C1.67708,-8.21615 1.44792,-7.90104 1.3125,-7.51563 C1.35417,-7.52604 1.40625,-7.53125 1.46875,-7.53125 C1.67708,-7.53125 1.85677,-7.46094 2.00781,-7.32031 C2.15885,-7.17969 2.23438,-7 2.23438,-6.78125 C2.23438,-6.5625 2.15885,-6.38021 2.00781,-6.23438 C1.85677,-6.08854 1.67708,-6.01563 1.46875,-6.01563 C1.25,-6.01563 1.06771,-6.09115 0.921875,-6.24219 C0.776042,-6.39323 0.703125,-6.57292 0.703125,-6.78125 C0.703125,-7.125 0.768229,-7.45052 0.898438,-7.75781 C1.02865,-8.0651 1.21875,-8.33854 1.46875,-8.57813 C1.71875,-8.81771 2,-9.0026 2.3125,-9.13281 C2.625,-9.26302 2.95313,-9.32813 3.29688,-9.32813 C3.83854,-9.32813 4.33854,-9.21354 4.79688,-8.98438 C5.25521,-8.75521 5.61979,-8.4349 5.89063,-8.02344 C6.16146,-7.61198 6.29688,-7.13021 6.29688,-6.57813 C6.29688,-6.17188 6.20573,-5.78646 6.02344,-5.42188 C5.84115,-5.05729 5.61198,-4.72656 5.33594,-4.42969 C5.0599,-4.13281 4.70573,-3.79427 4.27344,-3.41406 C3.84115,-3.03385 3.55729,-2.78125 3.42188,-2.65625 L1.82813,-1.14063 L3.17188,-1.14063 C3.83854,-1.14063 4.39323,-1.14583 4.83594,-1.15625 C5.27865,-1.16667 5.51563,-1.18229 5.54688,-1.20313 C5.65104,-1.31771 5.76042,-1.75 5.875,-2.5 L6.29688,-2.5 L5.89063,0 L0.703125,0"/>
</g>

<g fill="#212121" fill-opacity="1" stroke="none" transform="matrix(0.75,0,0,0.75,116.045,6.75)"
font-family="MS Shell Dlg 2" font-size="8.25" font-weight="400" font-style="normal" 
>
<path vector-effect="none" fill-rule="evenodd" d="M0.5,0 L0.5,-0.265625 C0.5,-0.286458 0.505208,-0.307292 0.515625,-0.328125 L2.07813,-2.04688 C2.30729,-2.29688 2.49479,-2.50781 2.64063,-2.67969 C2.78646,-2.85156 2.93229,-3.04948 3.07813,-3.27344 C3.22396,-3.4974 3.33854,-3.72656 3.42188,-3.96094 C3.50521,-4.19531 3.54688,-4.44271 3.54688,-4.70313 C3.54688,-4.97396 3.49479,-5.23438 3.39063,-5.48438 C3.28646,-5.73438 3.13542,-5.9349 2.9375,-6.08594 C2.73958,-6.23698 2.5,-6.3125 2.21875,-6.3125 C1.92708,-6.3125 1.66406,-6.22396 1.42969,-6.04688 C1.19531,-5.86979 1.03125,-5.64583 0.9375,-5.375 C0.96875,-5.375 1.00521,-5.375 1.04688,-5.375 C1.20313,-5.375 1.33333,-5.32552 1.4375,-5.22656 C1.54167,-5.1276 1.59375,-5 1.59375,-4.84375 C1.59375,-4.6875 1.54167,-4.55729 1.4375,-4.45313 C1.33333,-4.34896 1.20313,-4.29688 1.04688,-4.29688 C0.890625,-4.29688 0.760417,-4.35156 0.65625,-4.46094 C0.552083,-4.57031 0.5,-4.69792 0.5,-4.84375 C0.5,-5.09375 0.546875,-5.32813 0.640625,-5.54688 C0.734375,-5.76563 0.869792,-5.96094 1.04688,-6.13281 C1.22396,-6.30469 1.42448,-6.4349 1.64844,-6.52344 C1.8724,-6.61198 2.10938,-6.65625 2.35938,-6.65625 C2.74479,-6.65625 3.10156,-6.57552 3.42969,-6.41406 C3.75781,-6.2526 4.01823,-6.02604 4.21094,-5.73438 C4.40365,-5.44271 4.5,-5.09896 4.5,-4.70313 C4.5,-4.41146 4.4349,-4.13542 4.30469,-3.875 C4.17448,-3.61458 4.01042,-3.3776 3.8125,-3.16406 C3.61458,-2.95052 3.36198,-2.70833 3.05469,-2.4375 C2.7474,-2.16667 2.54167,-1.98958 2.4375,-1.90625 L1.3125,-0.8125 L2.26563,-0.8125 C2.74479,-0.8125 3.14323,-0.815104 3.46094,-0.820313 C3.77865,-0.825521 3.94271,-0.838542 3.95313,-0.859375 C4.03646,-0.942708 4.11979,-1.25 4.20313,-1.78125 L4.5,-1.78125 L4.20313,0 L0.5,0"/>
</g>

<g fill="#212121" fill-opacity="1" stroke="none" transform="matrix(0.75,0,0,0.75,119.895,6.75)"
font-family="MS Shell Dlg 2" font-size="8.25" font-weight="400" font-style="normal" 
>
<path vector-effect="none" fill-rule="evenodd" d="M1.01563,-2.29688 C0.963542,-2.29688 0.919271,-2.31771 0.882813,-2.35938 C0.846354,-2.40104 0.828125,-2.44792 0.828125,-2.5 C0.828125,-2.55208 0.846354,-2.59896 0.882813,-2.64063 C0.919271,-2.68229 0.963542,-2.70313 1.01563,-2.70313 L6.76563,-2.70313 C6.81771,-2.70313 6.85938,-2.68229 6.89063,-2.64063 C6.92188,-2.59896 6.9375,-2.55208 6.9375,-2.5 C6.9375,-2.44792 6.92188,-2.40104 6.89063,-2.35938 C6.85938,-2.31771 6.81771,-2.29688 6.76563,-2.29688 L1.01563,-2.29688"/>
</g>

<g fill="#212121" fill-opacity="1" stroke="none" transform="matrix(0.75,0,0,0.75,125.884,6.75)"
font-family="MS Shell Dlg 2" font-size="8.25" font-weight="400" font-style="normal" 
>
<path vector-effect="none" fill-rule="evenodd" d="M0.921875,0 L0.921875,-0.359375 C1.75521,-0.359375 2.17188,-0.463542 2.17188,-0.671875 L2.17188,-5.92188 C1.82813,-5.75521 1.39583,-5.67188 0.875,-5.67188 L0.875,-6.01563 C1.6875,-6.01563 2.30208,-6.22917 2.71875,-6.65625 L2.85938,-6.65625 C2.88021,-6.65625 2.90104,-6.64844 2.92188,-6.63281 C2.94271,-6.61719 2.95313,-6.59896 2.95313,-6.57813 L2.95313,-0.671875 C2.95313,-0.463542 3.36979,-0.359375 4.20313,-0.359375 L4.20313,0 L0.921875,0"/>
</g>

<g fill="#212121" fill-opacity="1" stroke="none" transform="matrix(0.75,0,0,0.75,130.284,10.7418)"
font-family="MS Shell Dlg 2" font-size="8.25" font-weight="400" font-style="normal" 
>
<path vector-effect="none" fill-rule="evenodd" d="M0.90625,3.5 C0.822917,3.5 0.78125,3.45833 0.78125,3.375 C0.78125,3.33333 0.791667,3.30208 0.8125,3.28125 C2.40625,1.72917 3.20313,-0.53125 3.20313,-3.5 C3.20313,-6.46875 2.41667,-8.72396 0.84375,-10.2656 C0.802083,-10.2865 0.78125,-10.3229 0.78125,-10.375 C0.78125,-10.4063 0.794271,-10.4349 0.820313,-10.4609 C0.846354,-10.487 0.875,-10.5 0.90625,-10.5 L1.04688,-10.5 C1.06771,-10.5 1.08854,-10.4896 1.10938,-10.4688 C1.77604,-9.94792 2.33333,-9.30729 2.78125,-8.54688 C3.22917,-7.78646 3.55729,-6.97917 3.76563,-6.125 C3.97396,-5.27083 4.07813,-4.39583 4.07813,-3.5 C4.07813,-2.84375 4.02083,-2.19531 3.90625,-1.55469 C3.79167,-0.914063 3.61458,-0.28125 3.375,0.34375 C3.13542,0.96875 2.82813,1.54427 2.45313,2.07031 C2.07813,2.59635 1.63021,3.0625 1.10938,3.46875 C1.08854,3.48958 1.06771,3.5 1.04688,3.5 L0.90625,3.5"/>
</g>

<g fill="none" stroke="#000000" stroke-opacity="1" stroke-dasharray="10,6" stroke-dashoffset="0" stroke-width="1.06667" stroke-linecap="butt" stroke-linejoin="round" transform="matrix(0.75,0,0,0.75,-4.46183,-0.485647)"
font-family="MS Shell Dlg 2" font-size="8.25" font-weight="400" font-style="normal" 
>
<polyline fill="none" vector-effect="none" points="80.6053,147.395 166.395,147.395 166.395,61.6053 80.6053,61.6053 80.6053,147.395 " />
</g>

<g fill="#000000" fill-opacity="1" stroke="none" transform="matrix(0.75,0,0,0.75,-4.46183,-0.485647)"
font-family="MS Shell Dlg 2" font-size="8.25" font-weight="400" font-style="normal" 
>
<circle cx="80.6053" cy="147.395" r="4.21637"/>
<circle cx="166.395" cy="61.6053" r="4.21637"/>
</g>

<g fill="#b3b3b3" fill-opacity="0.701961" stroke="#b3b3b3" stroke-opacity="0.701961" stroke-dasharray="1,3" stroke-dashoffset="0" stroke-width="0.666667" stroke-linecap="butt" stroke-linejoin="round" transform="matrix(0.75,0,0,0.75,-4.46183,-0.485647)"
font-family="MS Shell Dlg 2" font-size="8.25" font-weight="400" font-style="normal" 
>
<polyline fill="none" vector-effect="none" points="123.5,186 123.5,23 " />
<polyline fill="none" vector-effect="none" points="42,104.5 205,104.5 " />
</g>
</g>
</svg>
